%TF.GenerationSoftware,KiCad,Pcbnew,10.0.4*%
%TF.CreationDate,2026-10-10T10:35:38-04:00*%
%TF.ProjectId,dual_adc_usb,6475616c-5f61-4646-935f-7573622e6b69,rev?*%
%TF.SameCoordinates,Original*%
%TF.FileFunction,Legend,Top*%
%TF.FilePolarity,Positive*%
%FSLAX46Y46*%
G04 Gerber Fmt 4.6, Leading zero omitted, Abs format (unit mm)*
G04 Created by KiCad (PCBNEW 10.0.4) date 2026-10-10 10:35:38*
%MOMM*%
%LPD*%
G01*
G04 APERTURE LIST*
%ADD10C,0.150000*%
%ADD11C,0.120000*%
G04 APERTURE END LIST*
D10*
X16154819Y-64285714D02*
X16869104Y-64285714D01*
X16869104Y-64285714D02*
X17011961Y-64333333D01*
X17011961Y-64333333D02*
X17107200Y-64428571D01*
X17107200Y-64428571D02*
X17154819Y-64571428D01*
X17154819Y-64571428D02*
X17154819Y-64666666D01*
X16154819Y-63904761D02*
X16154819Y-63285714D01*
X16154819Y-63285714D02*
X16535771Y-63619047D01*
X16535771Y-63619047D02*
X16535771Y-63476190D01*
X16535771Y-63476190D02*
X16583390Y-63380952D01*
X16583390Y-63380952D02*
X16631009Y-63333333D01*
X16631009Y-63333333D02*
X16726247Y-63285714D01*
X16726247Y-63285714D02*
X16964342Y-63285714D01*
X16964342Y-63285714D02*
X17059580Y-63333333D01*
X17059580Y-63333333D02*
X17107200Y-63380952D01*
X17107200Y-63380952D02*
X17154819Y-63476190D01*
X17154819Y-63476190D02*
X17154819Y-63761904D01*
X17154819Y-63761904D02*
X17107200Y-63857142D01*
X17107200Y-63857142D02*
X17059580Y-63904761D01*
X16154819Y-62666666D02*
X16154819Y-62571428D01*
X16154819Y-62571428D02*
X16202438Y-62476190D01*
X16202438Y-62476190D02*
X16250057Y-62428571D01*
X16250057Y-62428571D02*
X16345295Y-62380952D01*
X16345295Y-62380952D02*
X16535771Y-62333333D01*
X16535771Y-62333333D02*
X16773866Y-62333333D01*
X16773866Y-62333333D02*
X16964342Y-62380952D01*
X16964342Y-62380952D02*
X17059580Y-62428571D01*
X17059580Y-62428571D02*
X17107200Y-62476190D01*
X17107200Y-62476190D02*
X17154819Y-62571428D01*
X17154819Y-62571428D02*
X17154819Y-62666666D01*
X17154819Y-62666666D02*
X17107200Y-62761904D01*
X17107200Y-62761904D02*
X17059580Y-62809523D01*
X17059580Y-62809523D02*
X16964342Y-62857142D01*
X16964342Y-62857142D02*
X16773866Y-62904761D01*
X16773866Y-62904761D02*
X16535771Y-62904761D01*
X16535771Y-62904761D02*
X16345295Y-62857142D01*
X16345295Y-62857142D02*
X16250057Y-62809523D01*
X16250057Y-62809523D02*
X16202438Y-62761904D01*
X16202438Y-62761904D02*
X16154819Y-62666666D01*
X17154819Y-61380952D02*
X17154819Y-61952380D01*
X17154819Y-61666666D02*
X16154819Y-61666666D01*
X16154819Y-61666666D02*
X16297676Y-61761904D01*
X16297676Y-61761904D02*
X16392914Y-61857142D01*
X16392914Y-61857142D02*
X16440533Y-61952380D01*
X105974285Y-38684819D02*
X105974285Y-39399104D01*
X105974285Y-39399104D02*
X105926666Y-39541961D01*
X105926666Y-39541961D02*
X105831428Y-39637200D01*
X105831428Y-39637200D02*
X105688571Y-39684819D01*
X105688571Y-39684819D02*
X105593333Y-39684819D01*
X106355238Y-38684819D02*
X107021904Y-38684819D01*
X107021904Y-38684819D02*
X106593333Y-39684819D01*
X107593333Y-38684819D02*
X107688571Y-38684819D01*
X107688571Y-38684819D02*
X107783809Y-38732438D01*
X107783809Y-38732438D02*
X107831428Y-38780057D01*
X107831428Y-38780057D02*
X107879047Y-38875295D01*
X107879047Y-38875295D02*
X107926666Y-39065771D01*
X107926666Y-39065771D02*
X107926666Y-39303866D01*
X107926666Y-39303866D02*
X107879047Y-39494342D01*
X107879047Y-39494342D02*
X107831428Y-39589580D01*
X107831428Y-39589580D02*
X107783809Y-39637200D01*
X107783809Y-39637200D02*
X107688571Y-39684819D01*
X107688571Y-39684819D02*
X107593333Y-39684819D01*
X107593333Y-39684819D02*
X107498095Y-39637200D01*
X107498095Y-39637200D02*
X107450476Y-39589580D01*
X107450476Y-39589580D02*
X107402857Y-39494342D01*
X107402857Y-39494342D02*
X107355238Y-39303866D01*
X107355238Y-39303866D02*
X107355238Y-39065771D01*
X107355238Y-39065771D02*
X107402857Y-38875295D01*
X107402857Y-38875295D02*
X107450476Y-38780057D01*
X107450476Y-38780057D02*
X107498095Y-38732438D01*
X107498095Y-38732438D02*
X107593333Y-38684819D01*
X108879047Y-39684819D02*
X108307619Y-39684819D01*
X108593333Y-39684819D02*
X108593333Y-38684819D01*
X108593333Y-38684819D02*
X108498095Y-38827676D01*
X108498095Y-38827676D02*
X108402857Y-38922914D01*
X108402857Y-38922914D02*
X108307619Y-38970533D01*
X95285714Y-55854819D02*
X95285714Y-56664342D01*
X95285714Y-56664342D02*
X95333333Y-56759580D01*
X95333333Y-56759580D02*
X95380952Y-56807200D01*
X95380952Y-56807200D02*
X95476190Y-56854819D01*
X95476190Y-56854819D02*
X95666666Y-56854819D01*
X95666666Y-56854819D02*
X95761904Y-56807200D01*
X95761904Y-56807200D02*
X95809523Y-56759580D01*
X95809523Y-56759580D02*
X95857142Y-56664342D01*
X95857142Y-56664342D02*
X95857142Y-55854819D01*
X96809523Y-55854819D02*
X96333333Y-55854819D01*
X96333333Y-55854819D02*
X96285714Y-56331009D01*
X96285714Y-56331009D02*
X96333333Y-56283390D01*
X96333333Y-56283390D02*
X96428571Y-56235771D01*
X96428571Y-56235771D02*
X96666666Y-56235771D01*
X96666666Y-56235771D02*
X96761904Y-56283390D01*
X96761904Y-56283390D02*
X96809523Y-56331009D01*
X96809523Y-56331009D02*
X96857142Y-56426247D01*
X96857142Y-56426247D02*
X96857142Y-56664342D01*
X96857142Y-56664342D02*
X96809523Y-56759580D01*
X96809523Y-56759580D02*
X96761904Y-56807200D01*
X96761904Y-56807200D02*
X96666666Y-56854819D01*
X96666666Y-56854819D02*
X96428571Y-56854819D01*
X96428571Y-56854819D02*
X96333333Y-56807200D01*
X96333333Y-56807200D02*
X96285714Y-56759580D01*
X97476190Y-55854819D02*
X97571428Y-55854819D01*
X97571428Y-55854819D02*
X97666666Y-55902438D01*
X97666666Y-55902438D02*
X97714285Y-55950057D01*
X97714285Y-55950057D02*
X97761904Y-56045295D01*
X97761904Y-56045295D02*
X97809523Y-56235771D01*
X97809523Y-56235771D02*
X97809523Y-56473866D01*
X97809523Y-56473866D02*
X97761904Y-56664342D01*
X97761904Y-56664342D02*
X97714285Y-56759580D01*
X97714285Y-56759580D02*
X97666666Y-56807200D01*
X97666666Y-56807200D02*
X97571428Y-56854819D01*
X97571428Y-56854819D02*
X97476190Y-56854819D01*
X97476190Y-56854819D02*
X97380952Y-56807200D01*
X97380952Y-56807200D02*
X97333333Y-56759580D01*
X97333333Y-56759580D02*
X97285714Y-56664342D01*
X97285714Y-56664342D02*
X97238095Y-56473866D01*
X97238095Y-56473866D02*
X97238095Y-56235771D01*
X97238095Y-56235771D02*
X97285714Y-56045295D01*
X97285714Y-56045295D02*
X97333333Y-55950057D01*
X97333333Y-55950057D02*
X97380952Y-55902438D01*
X97380952Y-55902438D02*
X97476190Y-55854819D01*
X98190476Y-55950057D02*
X98238095Y-55902438D01*
X98238095Y-55902438D02*
X98333333Y-55854819D01*
X98333333Y-55854819D02*
X98571428Y-55854819D01*
X98571428Y-55854819D02*
X98666666Y-55902438D01*
X98666666Y-55902438D02*
X98714285Y-55950057D01*
X98714285Y-55950057D02*
X98761904Y-56045295D01*
X98761904Y-56045295D02*
X98761904Y-56140533D01*
X98761904Y-56140533D02*
X98714285Y-56283390D01*
X98714285Y-56283390D02*
X98142857Y-56854819D01*
X98142857Y-56854819D02*
X98761904Y-56854819D01*
X64954819Y-71714285D02*
X65764342Y-71714285D01*
X65764342Y-71714285D02*
X65859580Y-71666666D01*
X65859580Y-71666666D02*
X65907200Y-71619047D01*
X65907200Y-71619047D02*
X65954819Y-71523809D01*
X65954819Y-71523809D02*
X65954819Y-71333333D01*
X65954819Y-71333333D02*
X65907200Y-71238095D01*
X65907200Y-71238095D02*
X65859580Y-71190476D01*
X65859580Y-71190476D02*
X65764342Y-71142857D01*
X65764342Y-71142857D02*
X64954819Y-71142857D01*
X64954819Y-70238095D02*
X64954819Y-70428571D01*
X64954819Y-70428571D02*
X65002438Y-70523809D01*
X65002438Y-70523809D02*
X65050057Y-70571428D01*
X65050057Y-70571428D02*
X65192914Y-70666666D01*
X65192914Y-70666666D02*
X65383390Y-70714285D01*
X65383390Y-70714285D02*
X65764342Y-70714285D01*
X65764342Y-70714285D02*
X65859580Y-70666666D01*
X65859580Y-70666666D02*
X65907200Y-70619047D01*
X65907200Y-70619047D02*
X65954819Y-70523809D01*
X65954819Y-70523809D02*
X65954819Y-70333333D01*
X65954819Y-70333333D02*
X65907200Y-70238095D01*
X65907200Y-70238095D02*
X65859580Y-70190476D01*
X65859580Y-70190476D02*
X65764342Y-70142857D01*
X65764342Y-70142857D02*
X65526247Y-70142857D01*
X65526247Y-70142857D02*
X65431009Y-70190476D01*
X65431009Y-70190476D02*
X65383390Y-70238095D01*
X65383390Y-70238095D02*
X65335771Y-70333333D01*
X65335771Y-70333333D02*
X65335771Y-70523809D01*
X65335771Y-70523809D02*
X65383390Y-70619047D01*
X65383390Y-70619047D02*
X65431009Y-70666666D01*
X65431009Y-70666666D02*
X65526247Y-70714285D01*
X64954819Y-69523809D02*
X64954819Y-69428571D01*
X64954819Y-69428571D02*
X65002438Y-69333333D01*
X65002438Y-69333333D02*
X65050057Y-69285714D01*
X65050057Y-69285714D02*
X65145295Y-69238095D01*
X65145295Y-69238095D02*
X65335771Y-69190476D01*
X65335771Y-69190476D02*
X65573866Y-69190476D01*
X65573866Y-69190476D02*
X65764342Y-69238095D01*
X65764342Y-69238095D02*
X65859580Y-69285714D01*
X65859580Y-69285714D02*
X65907200Y-69333333D01*
X65907200Y-69333333D02*
X65954819Y-69428571D01*
X65954819Y-69428571D02*
X65954819Y-69523809D01*
X65954819Y-69523809D02*
X65907200Y-69619047D01*
X65907200Y-69619047D02*
X65859580Y-69666666D01*
X65859580Y-69666666D02*
X65764342Y-69714285D01*
X65764342Y-69714285D02*
X65573866Y-69761904D01*
X65573866Y-69761904D02*
X65335771Y-69761904D01*
X65335771Y-69761904D02*
X65145295Y-69714285D01*
X65145295Y-69714285D02*
X65050057Y-69666666D01*
X65050057Y-69666666D02*
X65002438Y-69619047D01*
X65002438Y-69619047D02*
X64954819Y-69523809D01*
X65954819Y-68238095D02*
X65954819Y-68809523D01*
X65954819Y-68523809D02*
X64954819Y-68523809D01*
X64954819Y-68523809D02*
X65097676Y-68619047D01*
X65097676Y-68619047D02*
X65192914Y-68714285D01*
X65192914Y-68714285D02*
X65240533Y-68809523D01*
X63074819Y-6015714D02*
X63789104Y-6015714D01*
X63789104Y-6015714D02*
X63931961Y-6063333D01*
X63931961Y-6063333D02*
X64027200Y-6158571D01*
X64027200Y-6158571D02*
X64074819Y-6301428D01*
X64074819Y-6301428D02*
X64074819Y-6396666D01*
X63074819Y-5063333D02*
X63074819Y-5539523D01*
X63074819Y-5539523D02*
X63551009Y-5587142D01*
X63551009Y-5587142D02*
X63503390Y-5539523D01*
X63503390Y-5539523D02*
X63455771Y-5444285D01*
X63455771Y-5444285D02*
X63455771Y-5206190D01*
X63455771Y-5206190D02*
X63503390Y-5110952D01*
X63503390Y-5110952D02*
X63551009Y-5063333D01*
X63551009Y-5063333D02*
X63646247Y-5015714D01*
X63646247Y-5015714D02*
X63884342Y-5015714D01*
X63884342Y-5015714D02*
X63979580Y-5063333D01*
X63979580Y-5063333D02*
X64027200Y-5110952D01*
X64027200Y-5110952D02*
X64074819Y-5206190D01*
X64074819Y-5206190D02*
X64074819Y-5444285D01*
X64074819Y-5444285D02*
X64027200Y-5539523D01*
X64027200Y-5539523D02*
X63979580Y-5587142D01*
X63074819Y-4396666D02*
X63074819Y-4301428D01*
X63074819Y-4301428D02*
X63122438Y-4206190D01*
X63122438Y-4206190D02*
X63170057Y-4158571D01*
X63170057Y-4158571D02*
X63265295Y-4110952D01*
X63265295Y-4110952D02*
X63455771Y-4063333D01*
X63455771Y-4063333D02*
X63693866Y-4063333D01*
X63693866Y-4063333D02*
X63884342Y-4110952D01*
X63884342Y-4110952D02*
X63979580Y-4158571D01*
X63979580Y-4158571D02*
X64027200Y-4206190D01*
X64027200Y-4206190D02*
X64074819Y-4301428D01*
X64074819Y-4301428D02*
X64074819Y-4396666D01*
X64074819Y-4396666D02*
X64027200Y-4491904D01*
X64027200Y-4491904D02*
X63979580Y-4539523D01*
X63979580Y-4539523D02*
X63884342Y-4587142D01*
X63884342Y-4587142D02*
X63693866Y-4634761D01*
X63693866Y-4634761D02*
X63455771Y-4634761D01*
X63455771Y-4634761D02*
X63265295Y-4587142D01*
X63265295Y-4587142D02*
X63170057Y-4539523D01*
X63170057Y-4539523D02*
X63122438Y-4491904D01*
X63122438Y-4491904D02*
X63074819Y-4396666D01*
X64074819Y-3110952D02*
X64074819Y-3682380D01*
X64074819Y-3396666D02*
X63074819Y-3396666D01*
X63074819Y-3396666D02*
X63217676Y-3491904D01*
X63217676Y-3491904D02*
X63312914Y-3587142D01*
X63312914Y-3587142D02*
X63360533Y-3682380D01*
X76285714Y-27104819D02*
X76285714Y-27914342D01*
X76285714Y-27914342D02*
X76333333Y-28009580D01*
X76333333Y-28009580D02*
X76380952Y-28057200D01*
X76380952Y-28057200D02*
X76476190Y-28104819D01*
X76476190Y-28104819D02*
X76666666Y-28104819D01*
X76666666Y-28104819D02*
X76761904Y-28057200D01*
X76761904Y-28057200D02*
X76809523Y-28009580D01*
X76809523Y-28009580D02*
X76857142Y-27914342D01*
X76857142Y-27914342D02*
X76857142Y-27104819D01*
X77809523Y-27104819D02*
X77333333Y-27104819D01*
X77333333Y-27104819D02*
X77285714Y-27581009D01*
X77285714Y-27581009D02*
X77333333Y-27533390D01*
X77333333Y-27533390D02*
X77428571Y-27485771D01*
X77428571Y-27485771D02*
X77666666Y-27485771D01*
X77666666Y-27485771D02*
X77761904Y-27533390D01*
X77761904Y-27533390D02*
X77809523Y-27581009D01*
X77809523Y-27581009D02*
X77857142Y-27676247D01*
X77857142Y-27676247D02*
X77857142Y-27914342D01*
X77857142Y-27914342D02*
X77809523Y-28009580D01*
X77809523Y-28009580D02*
X77761904Y-28057200D01*
X77761904Y-28057200D02*
X77666666Y-28104819D01*
X77666666Y-28104819D02*
X77428571Y-28104819D01*
X77428571Y-28104819D02*
X77333333Y-28057200D01*
X77333333Y-28057200D02*
X77285714Y-28009580D01*
X78476190Y-27104819D02*
X78571428Y-27104819D01*
X78571428Y-27104819D02*
X78666666Y-27152438D01*
X78666666Y-27152438D02*
X78714285Y-27200057D01*
X78714285Y-27200057D02*
X78761904Y-27295295D01*
X78761904Y-27295295D02*
X78809523Y-27485771D01*
X78809523Y-27485771D02*
X78809523Y-27723866D01*
X78809523Y-27723866D02*
X78761904Y-27914342D01*
X78761904Y-27914342D02*
X78714285Y-28009580D01*
X78714285Y-28009580D02*
X78666666Y-28057200D01*
X78666666Y-28057200D02*
X78571428Y-28104819D01*
X78571428Y-28104819D02*
X78476190Y-28104819D01*
X78476190Y-28104819D02*
X78380952Y-28057200D01*
X78380952Y-28057200D02*
X78333333Y-28009580D01*
X78333333Y-28009580D02*
X78285714Y-27914342D01*
X78285714Y-27914342D02*
X78238095Y-27723866D01*
X78238095Y-27723866D02*
X78238095Y-27485771D01*
X78238095Y-27485771D02*
X78285714Y-27295295D01*
X78285714Y-27295295D02*
X78333333Y-27200057D01*
X78333333Y-27200057D02*
X78380952Y-27152438D01*
X78380952Y-27152438D02*
X78476190Y-27104819D01*
X79761904Y-28104819D02*
X79190476Y-28104819D01*
X79476190Y-28104819D02*
X79476190Y-27104819D01*
X79476190Y-27104819D02*
X79380952Y-27247676D01*
X79380952Y-27247676D02*
X79285714Y-27342914D01*
X79285714Y-27342914D02*
X79190476Y-27390533D01*
X16154819Y-23285714D02*
X16869104Y-23285714D01*
X16869104Y-23285714D02*
X17011961Y-23333333D01*
X17011961Y-23333333D02*
X17107200Y-23428571D01*
X17107200Y-23428571D02*
X17154819Y-23571428D01*
X17154819Y-23571428D02*
X17154819Y-23666666D01*
X16250057Y-22857142D02*
X16202438Y-22809523D01*
X16202438Y-22809523D02*
X16154819Y-22714285D01*
X16154819Y-22714285D02*
X16154819Y-22476190D01*
X16154819Y-22476190D02*
X16202438Y-22380952D01*
X16202438Y-22380952D02*
X16250057Y-22333333D01*
X16250057Y-22333333D02*
X16345295Y-22285714D01*
X16345295Y-22285714D02*
X16440533Y-22285714D01*
X16440533Y-22285714D02*
X16583390Y-22333333D01*
X16583390Y-22333333D02*
X17154819Y-22904761D01*
X17154819Y-22904761D02*
X17154819Y-22285714D01*
X16154819Y-21666666D02*
X16154819Y-21571428D01*
X16154819Y-21571428D02*
X16202438Y-21476190D01*
X16202438Y-21476190D02*
X16250057Y-21428571D01*
X16250057Y-21428571D02*
X16345295Y-21380952D01*
X16345295Y-21380952D02*
X16535771Y-21333333D01*
X16535771Y-21333333D02*
X16773866Y-21333333D01*
X16773866Y-21333333D02*
X16964342Y-21380952D01*
X16964342Y-21380952D02*
X17059580Y-21428571D01*
X17059580Y-21428571D02*
X17107200Y-21476190D01*
X17107200Y-21476190D02*
X17154819Y-21571428D01*
X17154819Y-21571428D02*
X17154819Y-21666666D01*
X17154819Y-21666666D02*
X17107200Y-21761904D01*
X17107200Y-21761904D02*
X17059580Y-21809523D01*
X17059580Y-21809523D02*
X16964342Y-21857142D01*
X16964342Y-21857142D02*
X16773866Y-21904761D01*
X16773866Y-21904761D02*
X16535771Y-21904761D01*
X16535771Y-21904761D02*
X16345295Y-21857142D01*
X16345295Y-21857142D02*
X16250057Y-21809523D01*
X16250057Y-21809523D02*
X16202438Y-21761904D01*
X16202438Y-21761904D02*
X16154819Y-21666666D01*
X17154819Y-20380952D02*
X17154819Y-20952380D01*
X17154819Y-20666666D02*
X16154819Y-20666666D01*
X16154819Y-20666666D02*
X16297676Y-20761904D01*
X16297676Y-20761904D02*
X16392914Y-20857142D01*
X16392914Y-20857142D02*
X16440533Y-20952380D01*
%TO.C,C521*%
D11*
X61240000Y-35890580D02*
X61240000Y-35609420D01*
X62260000Y-35890580D02*
X62260000Y-35609420D01*
%TO.C,C718*%
X105490000Y-15140580D02*
X105490000Y-14859420D01*
X106510000Y-15140580D02*
X106510000Y-14859420D01*
%TO.C,J301*%
X0Y-55500000D02*
X15000000Y-55500000D01*
X0Y-70500000D02*
X0Y-55500000D01*
X200000Y-63000000D02*
X1200000Y-62000000D01*
X200000Y-63000000D02*
X1200000Y-64000000D01*
X15000000Y-55500000D02*
X15000000Y-70500000D01*
X15000000Y-70500000D02*
X0Y-70500000D01*
%TO.C,C708*%
X104609420Y-17490000D02*
X104890580Y-17490000D01*
X104609420Y-18510000D02*
X104890580Y-18510000D01*
%TO.C,R301*%
X17512742Y-65477500D02*
X17987258Y-65477500D01*
X17512742Y-66522500D02*
X17987258Y-66522500D01*
%TO.C,C109*%
X99609420Y-72990000D02*
X99890580Y-72990000D01*
X99609420Y-74010000D02*
X99890580Y-74010000D01*
%TO.C,C401*%
X37490000Y-38390580D02*
X37490000Y-38109420D01*
X38510000Y-38390580D02*
X38510000Y-38109420D01*
%TO.C,X501*%
X88040000Y-23365000D02*
X88040000Y-26635000D01*
X88040000Y-26635000D02*
X91960000Y-26635000D01*
%TO.C,U101*%
X103090000Y-68440000D02*
X104910000Y-68440000D01*
X103090000Y-68490000D02*
X103090000Y-68440000D01*
X103090000Y-71560000D02*
X103090000Y-71510000D01*
X104910000Y-68440000D02*
X104910000Y-68490000D01*
X104910000Y-69610000D02*
X104910000Y-70390000D01*
X104910000Y-71510000D02*
X104910000Y-71560000D01*
X104910000Y-71560000D02*
X103090000Y-71560000D01*
X102550000Y-68490000D02*
X102310000Y-68160000D01*
X102790000Y-68160000D01*
X102550000Y-68490000D01*
G36*
X102550000Y-68490000D02*
G01*
X102310000Y-68160000D01*
X102790000Y-68160000D01*
X102550000Y-68490000D01*
G37*
%TO.C,R306*%
X41477500Y-66487258D02*
X41477500Y-66012742D01*
X42522500Y-66487258D02*
X42522500Y-66012742D01*
%TO.C,C601*%
X68109420Y-78740000D02*
X68390580Y-78740000D01*
X68109420Y-79760000D02*
X68390580Y-79760000D01*
%TO.C,C209*%
X39990000Y-39390580D02*
X39990000Y-39109420D01*
X41010000Y-39390580D02*
X41010000Y-39109420D01*
%TO.C,U202*%
X34390000Y-20390000D02*
X37610000Y-20390000D01*
X34390000Y-20515000D02*
X34390000Y-20390000D01*
X34390000Y-23610000D02*
X34390000Y-23485000D01*
X37610000Y-20390000D02*
X37610000Y-20515000D01*
X37610000Y-23485000D02*
X37610000Y-23610000D01*
X37610000Y-23610000D02*
X34390000Y-23610000D01*
X33840000Y-20510000D02*
X33600000Y-20180000D01*
X34080000Y-20180000D01*
X33840000Y-20510000D01*
G36*
X33840000Y-20510000D02*
G01*
X33600000Y-20180000D01*
X34080000Y-20180000D01*
X33840000Y-20510000D01*
G37*
%TO.C,R101*%
X19727500Y-40737258D02*
X19727500Y-40262742D01*
X20772500Y-40737258D02*
X20772500Y-40262742D01*
%TO.C,U402*%
X52090000Y-29440000D02*
X53910000Y-29440000D01*
X52090000Y-29490000D02*
X52090000Y-29440000D01*
X52090000Y-32560000D02*
X52090000Y-32510000D01*
X53910000Y-29440000D02*
X53910000Y-29490000D01*
X53910000Y-30610000D02*
X53910000Y-31390000D01*
X53910000Y-32510000D02*
X53910000Y-32560000D01*
X53910000Y-32560000D02*
X52090000Y-32560000D01*
X51550000Y-29490000D02*
X51310000Y-29160000D01*
X51790000Y-29160000D01*
X51550000Y-29490000D01*
G36*
X51550000Y-29490000D02*
G01*
X51310000Y-29160000D01*
X51790000Y-29160000D01*
X51550000Y-29490000D01*
G37*
%TO.C,C706*%
X110609420Y-23240000D02*
X110890580Y-23240000D01*
X110609420Y-24260000D02*
X110890580Y-24260000D01*
%TO.C,R501*%
X84727500Y-55237258D02*
X84727500Y-54762742D01*
X85772500Y-55237258D02*
X85772500Y-54762742D01*
%TO.C,R404*%
X56227500Y-32237258D02*
X56227500Y-31762742D01*
X57272500Y-32237258D02*
X57272500Y-31762742D01*
%TO.C,C409*%
X45359420Y-31990000D02*
X45640580Y-31990000D01*
X45359420Y-33010000D02*
X45640580Y-33010000D01*
%TO.C,C712*%
X100109420Y-17490000D02*
X100390580Y-17490000D01*
X100109420Y-18510000D02*
X100390580Y-18510000D01*
%TO.C,R202*%
X29227500Y-18487258D02*
X29227500Y-18012742D01*
X30272500Y-18487258D02*
X30272500Y-18012742D01*
%TO.C,U703*%
X94940000Y-10440000D02*
X99060000Y-10440000D01*
X94940000Y-10535000D02*
X94940000Y-10440000D01*
X94940000Y-15560000D02*
X94940000Y-15465000D01*
X99060000Y-10440000D02*
X99060000Y-10535000D01*
X99060000Y-15465000D02*
X99060000Y-15560000D01*
X99060000Y-15560000D02*
X94940000Y-15560000D01*
X94400000Y-10530000D02*
X94160000Y-10200000D01*
X94640000Y-10200000D01*
X94400000Y-10530000D01*
G36*
X94400000Y-10530000D02*
G01*
X94160000Y-10200000D01*
X94640000Y-10200000D01*
X94400000Y-10530000D01*
G37*
%TO.C,RN404*%
X52070000Y-52750000D02*
X52070000Y-53750000D01*
X55430000Y-52750000D02*
X55430000Y-53750000D01*
%TO.C,J701*%
X98180000Y-46500000D02*
X98180000Y-47500000D01*
X98180000Y-47500000D02*
X98680000Y-47000000D01*
X98680000Y-47000000D02*
X98180000Y-46500000D01*
X98900000Y-42090000D02*
X98900000Y-54410000D01*
X98900000Y-54410000D02*
X103160000Y-54410000D01*
X103160000Y-42090000D02*
X98900000Y-42090000D01*
X107260000Y-42090000D02*
X115620000Y-42090000D01*
X115620000Y-42090000D02*
X115620000Y-54410000D01*
X115620000Y-54410000D02*
X107260000Y-54410000D01*
%TO.C,C519*%
X73859420Y-22990000D02*
X74140580Y-22990000D01*
X73859420Y-24010000D02*
X74140580Y-24010000D01*
%TO.C,RN405*%
X56570000Y-50250000D02*
X56570000Y-51250000D01*
X59930000Y-50250000D02*
X59930000Y-51250000D01*
%TO.C,R503*%
X91727500Y-50987258D02*
X91727500Y-50512742D01*
X92772500Y-50987258D02*
X92772500Y-50512742D01*
%TO.C,C310*%
X44859420Y-49490000D02*
X45140580Y-49490000D01*
X44859420Y-50510000D02*
X45140580Y-50510000D01*
%TO.C,C403*%
X48609420Y-49490000D02*
X48890580Y-49490000D01*
X48609420Y-50510000D02*
X48890580Y-50510000D01*
%TO.C,R507*%
X69762742Y-22727500D02*
X70237258Y-22727500D01*
X69762742Y-23772500D02*
X70237258Y-23772500D01*
%TO.C,R401*%
X55227500Y-38237258D02*
X55227500Y-37762742D01*
X56272500Y-38237258D02*
X56272500Y-37762742D01*
%TO.C,R701*%
X109262742Y-15977500D02*
X109737258Y-15977500D01*
X109262742Y-17022500D02*
X109737258Y-17022500D01*
%TO.C,C608*%
X63265000Y-76511252D02*
X63265000Y-75988748D01*
X64735000Y-76511252D02*
X64735000Y-75988748D01*
%TO.C,C203*%
X30740000Y-22390580D02*
X30740000Y-22109420D01*
X31760000Y-22390580D02*
X31760000Y-22109420D01*
%TO.C,R209*%
X39262742Y-27727500D02*
X39737258Y-27727500D01*
X39262742Y-28772500D02*
X39737258Y-28772500D01*
%TO.C,C415*%
X49490000Y-53390580D02*
X49490000Y-53109420D01*
X50510000Y-53390580D02*
X50510000Y-53109420D01*
%TO.C,D502*%
X61015000Y-24765000D02*
X61015000Y-26235000D01*
X61015000Y-26235000D02*
X63300000Y-26235000D01*
X63300000Y-24765000D02*
X61015000Y-24765000D01*
%TO.C,U401*%
X43390000Y-37890000D02*
X43865000Y-37890000D01*
X43390000Y-38365000D02*
X43390000Y-37890000D01*
X43390000Y-47110000D02*
X43390000Y-46635000D01*
X43865000Y-47110000D02*
X43390000Y-47110000D01*
X52135000Y-37890000D02*
X52610000Y-37890000D01*
X52610000Y-37890000D02*
X52610000Y-38365000D01*
X52610000Y-46635000D02*
X52610000Y-47110000D01*
X52610000Y-47110000D02*
X52135000Y-47110000D01*
X42860000Y-38750000D02*
X42530000Y-38990000D01*
X42530000Y-38510000D01*
X42860000Y-38750000D01*
G36*
X42860000Y-38750000D02*
G01*
X42530000Y-38990000D01*
X42530000Y-38510000D01*
X42860000Y-38750000D01*
G37*
%TO.C,C513*%
X79609420Y-56240000D02*
X79890580Y-56240000D01*
X79609420Y-57260000D02*
X79890580Y-57260000D01*
%TO.C,C702*%
X110990000Y-37390580D02*
X110990000Y-37109420D01*
X112010000Y-37390580D02*
X112010000Y-37109420D01*
%TO.C,R704*%
X96227500Y-41737258D02*
X96227500Y-41262742D01*
X97272500Y-41737258D02*
X97272500Y-41262742D01*
%TO.C,C414*%
X47990000Y-31890580D02*
X47990000Y-31609420D01*
X49010000Y-31890580D02*
X49010000Y-31609420D01*
%TO.C,C202*%
X32859420Y-18240000D02*
X33140580Y-18240000D01*
X32859420Y-19260000D02*
X33140580Y-19260000D01*
%TO.C,R508*%
X66012742Y-24977500D02*
X66487258Y-24977500D01*
X66012742Y-26022500D02*
X66487258Y-26022500D01*
%TO.C,C101*%
X102488748Y-65765000D02*
X103011252Y-65765000D01*
X102488748Y-67235000D02*
X103011252Y-67235000D01*
%TO.C,C507*%
X91740000Y-39390580D02*
X91740000Y-39109420D01*
X92760000Y-39390580D02*
X92760000Y-39109420D01*
%TO.C,U701*%
X107090000Y-36440000D02*
X108910000Y-36440000D01*
X107090000Y-36490000D02*
X107090000Y-36440000D01*
X107090000Y-39560000D02*
X107090000Y-39510000D01*
X108910000Y-36440000D02*
X108910000Y-36490000D01*
X108910000Y-39510000D02*
X108910000Y-39560000D01*
X108910000Y-39560000D02*
X107090000Y-39560000D01*
X106550000Y-36490000D02*
X106310000Y-36160000D01*
X106790000Y-36160000D01*
X106550000Y-36490000D01*
G36*
X106550000Y-36490000D02*
G01*
X106310000Y-36160000D01*
X106790000Y-36160000D01*
X106550000Y-36490000D01*
G37*
%TO.C,C711*%
X103609420Y-37990000D02*
X103890580Y-37990000D01*
X103609420Y-39010000D02*
X103890580Y-39010000D01*
%TO.C,C417*%
X55240000Y-47140580D02*
X55240000Y-46859420D01*
X56260000Y-47140580D02*
X56260000Y-46859420D01*
%TO.C,C106*%
X98609420Y-66490000D02*
X98890580Y-66490000D01*
X98609420Y-67510000D02*
X98890580Y-67510000D01*
%TO.C,U102*%
X103090000Y-76440000D02*
X104910000Y-76440000D01*
X103090000Y-76490000D02*
X103090000Y-76440000D01*
X103090000Y-79560000D02*
X103090000Y-79510000D01*
X104910000Y-76440000D02*
X104910000Y-76490000D01*
X104910000Y-77610000D02*
X104910000Y-78390000D01*
X104910000Y-79510000D02*
X104910000Y-79560000D01*
X104910000Y-79560000D02*
X103090000Y-79560000D01*
X102550000Y-76490000D02*
X102310000Y-76160000D01*
X102790000Y-76160000D01*
X102550000Y-76490000D01*
G36*
X102550000Y-76490000D02*
G01*
X102310000Y-76160000D01*
X102790000Y-76160000D01*
X102550000Y-76490000D01*
G37*
%TO.C,U302*%
X34390000Y-61390000D02*
X37610000Y-61390000D01*
X34390000Y-61515000D02*
X34390000Y-61390000D01*
X34390000Y-64610000D02*
X34390000Y-64485000D01*
X37610000Y-61390000D02*
X37610000Y-61515000D01*
X37610000Y-64485000D02*
X37610000Y-64610000D01*
X37610000Y-64610000D02*
X34390000Y-64610000D01*
X33840000Y-61510000D02*
X33600000Y-61180000D01*
X34080000Y-61180000D01*
X33840000Y-61510000D01*
G36*
X33840000Y-61510000D02*
G01*
X33600000Y-61180000D01*
X34080000Y-61180000D01*
X33840000Y-61510000D01*
G37*
%TO.C,R403*%
X32977500Y-47237258D02*
X32977500Y-46762742D01*
X34022500Y-47237258D02*
X34022500Y-46762742D01*
%TO.C,C410*%
X34990000Y-38390580D02*
X34990000Y-38109420D01*
X36010000Y-38390580D02*
X36010000Y-38109420D01*
%TO.C,C516*%
X91490000Y-34640580D02*
X91490000Y-34359420D01*
X92510000Y-34640580D02*
X92510000Y-34359420D01*
%TO.C,C705*%
X110859420Y-33740000D02*
X111140580Y-33740000D01*
X110859420Y-34760000D02*
X111140580Y-34760000D01*
%TO.C,D201*%
X31990000Y-11440000D02*
X33510000Y-11440000D01*
X31990000Y-11490000D02*
X31990000Y-11440000D01*
X31990000Y-13390000D02*
X31990000Y-12610000D01*
X31990000Y-14560000D02*
X31990000Y-14510000D01*
X33510000Y-11440000D02*
X33510000Y-12440000D01*
X33510000Y-13560000D02*
X33510000Y-14560000D01*
X33510000Y-14560000D02*
X31990000Y-14560000D01*
X31450000Y-12620000D02*
X31690000Y-12950000D01*
X31210000Y-12950000D01*
X31450000Y-12620000D01*
G36*
X31690000Y-12950000D02*
G01*
X31210000Y-12950000D01*
X31450000Y-12620000D01*
X31690000Y-12950000D01*
G37*
%TO.C,C303*%
X30740000Y-63390580D02*
X30740000Y-63109420D01*
X31760000Y-63390580D02*
X31760000Y-63109420D01*
%TO.C,U502*%
X94240000Y-57240000D02*
X99760000Y-57240000D01*
X94240000Y-57510000D02*
X94240000Y-57240000D01*
X94240000Y-62760000D02*
X94240000Y-62490000D01*
X99760000Y-57240000D02*
X99760000Y-57510000D01*
X99760000Y-62490000D02*
X99760000Y-62760000D01*
X99760000Y-62760000D02*
X94240000Y-62760000D01*
X93410000Y-57500000D02*
X93070000Y-57030000D01*
X93750000Y-57030000D01*
X93410000Y-57500000D01*
G36*
X93410000Y-57500000D02*
G01*
X93070000Y-57030000D01*
X93750000Y-57030000D01*
X93410000Y-57500000D01*
G37*
%TO.C,C111*%
X105990000Y-74140580D02*
X105990000Y-73859420D01*
X107010000Y-74140580D02*
X107010000Y-73859420D01*
%TO.C,C509*%
X63015000Y-41761252D02*
X63015000Y-41238748D01*
X64485000Y-41761252D02*
X64485000Y-41238748D01*
%TO.C,C301*%
X16740000Y-63140580D02*
X16740000Y-62859420D01*
X17760000Y-63140580D02*
X17760000Y-62859420D01*
%TO.C,C302*%
X32859420Y-59240000D02*
X33140580Y-59240000D01*
X32859420Y-60260000D02*
X33140580Y-60260000D01*
%TO.C,C715*%
X99859420Y-37740000D02*
X100140580Y-37740000D01*
X99859420Y-38760000D02*
X100140580Y-38760000D01*
%TO.C,R504*%
X75977500Y-57737258D02*
X75977500Y-57262742D01*
X77022500Y-57737258D02*
X77022500Y-57262742D01*
%TO.C,C501*%
X77238748Y-53515000D02*
X77761252Y-53515000D01*
X77238748Y-54985000D02*
X77761252Y-54985000D01*
%TO.C,R207*%
X37977500Y-18237258D02*
X37977500Y-17762742D01*
X39022500Y-18237258D02*
X39022500Y-17762742D01*
%TO.C,C208*%
X28490000Y-23640580D02*
X28490000Y-23359420D01*
X29510000Y-23640580D02*
X29510000Y-23359420D01*
%TO.C,C514*%
X88109420Y-53490000D02*
X88390580Y-53490000D01*
X88109420Y-54510000D02*
X88390580Y-54510000D01*
%TO.C,C607*%
X71359420Y-60240000D02*
X71640580Y-60240000D01*
X71359420Y-61260000D02*
X71640580Y-61260000D01*
%TO.C,F701*%
X95590000Y-46602064D02*
X95590000Y-45397936D01*
X97410000Y-46602064D02*
X97410000Y-45397936D01*
%TO.C,C308*%
X28490000Y-64640580D02*
X28490000Y-64359420D01*
X29510000Y-64640580D02*
X29510000Y-64359420D01*
%TO.C,R405*%
X55512742Y-34477500D02*
X55987258Y-34477500D01*
X55512742Y-35522500D02*
X55987258Y-35522500D01*
%TO.C,Y701*%
X107940000Y-18290000D02*
X107940000Y-21710000D01*
X107940000Y-21710000D02*
X112060000Y-21710000D01*
%TO.C,C204*%
X35490000Y-17890580D02*
X35490000Y-17609420D01*
X36510000Y-17890580D02*
X36510000Y-17609420D01*
%TO.C,R703*%
X91227500Y-14987258D02*
X91227500Y-14512742D01*
X92272500Y-14987258D02*
X92272500Y-14512742D01*
%TO.C,C506*%
X72109420Y-53490000D02*
X72390580Y-53490000D01*
X72109420Y-54510000D02*
X72390580Y-54510000D01*
%TO.C,R102*%
X23512742Y-37727500D02*
X23987258Y-37727500D01*
X23512742Y-38772500D02*
X23987258Y-38772500D01*
%TO.C,C105*%
X103359420Y-72740000D02*
X103640580Y-72740000D01*
X103359420Y-73760000D02*
X103640580Y-73760000D01*
%TO.C,RN401*%
X59000000Y-40320000D02*
X58000000Y-40320000D01*
X59000000Y-43680000D02*
X58000000Y-43680000D01*
%TO.C,R304*%
X40477500Y-62237258D02*
X40477500Y-61762742D01*
X41522500Y-62237258D02*
X41522500Y-61762742D01*
%TO.C,RN402*%
X59250000Y-44820000D02*
X58250000Y-44820000D01*
X59250000Y-48180000D02*
X58250000Y-48180000D01*
%TO.C,R203*%
X25262742Y-18727500D02*
X25737258Y-18727500D01*
X25262742Y-19772500D02*
X25737258Y-19772500D01*
%TO.C,C510*%
X63490000Y-35140580D02*
X63490000Y-34859420D01*
X64510000Y-35140580D02*
X64510000Y-34859420D01*
%TO.C,R502*%
X82477500Y-57487258D02*
X82477500Y-57012742D01*
X83522500Y-57487258D02*
X83522500Y-57012742D01*
%TO.C,C710*%
X98609420Y-35490000D02*
X98890580Y-35490000D01*
X98609420Y-36510000D02*
X98890580Y-36510000D01*
%TO.C,R406*%
X54977500Y-42987258D02*
X54977500Y-42512742D01*
X56022500Y-42987258D02*
X56022500Y-42512742D01*
%TO.C,C309*%
X39990000Y-46890580D02*
X39990000Y-46609420D01*
X41010000Y-46890580D02*
X41010000Y-46609420D01*
%TO.C,C107*%
X27490000Y-42609420D02*
X27490000Y-42890580D01*
X28510000Y-42609420D02*
X28510000Y-42890580D01*
%TO.C,C703*%
X109740000Y-26890580D02*
X109740000Y-26609420D01*
X110760000Y-26890580D02*
X110760000Y-26609420D01*
%TO.C,R302*%
X28477500Y-60987258D02*
X28477500Y-60512742D01*
X29522500Y-60987258D02*
X29522500Y-60512742D01*
%TO.C,C520*%
X63109420Y-31240000D02*
X63390580Y-31240000D01*
X63109420Y-32260000D02*
X63390580Y-32260000D01*
%TO.C,C511*%
X62859420Y-47990000D02*
X63140580Y-47990000D01*
X62859420Y-49010000D02*
X63140580Y-49010000D01*
%TO.C,C504*%
X73859420Y-25490000D02*
X74140580Y-25490000D01*
X73859420Y-26510000D02*
X74140580Y-26510000D01*
%TO.C,C402*%
X37490000Y-46890580D02*
X37490000Y-46609420D01*
X38510000Y-46890580D02*
X38510000Y-46609420D01*
%TO.C,C707*%
X103109420Y-35490000D02*
X103390580Y-35490000D01*
X103109420Y-36510000D02*
X103390580Y-36510000D01*
%TO.C,R303*%
X25262742Y-71727500D02*
X25737258Y-71727500D01*
X25262742Y-72772500D02*
X25737258Y-72772500D01*
%TO.C,R105*%
X102977500Y-63237258D02*
X102977500Y-62762742D01*
X104022500Y-63237258D02*
X104022500Y-62762742D01*
%TO.C,R201*%
X17512742Y-24477500D02*
X17987258Y-24477500D01*
X17512742Y-25522500D02*
X17987258Y-25522500D01*
%TO.C,C104*%
X107109420Y-65240000D02*
X107390580Y-65240000D01*
X107109420Y-66260000D02*
X107390580Y-66260000D01*
%TO.C,C206*%
X34359420Y-24990000D02*
X34640580Y-24990000D01*
X34359420Y-26010000D02*
X34640580Y-26010000D01*
%TO.C,R505*%
X81227500Y-25237258D02*
X81227500Y-24762742D01*
X82272500Y-25237258D02*
X82272500Y-24762742D01*
%TO.C,U601*%
X66700000Y-64700000D02*
X67100000Y-64700000D01*
X66700000Y-75300000D02*
X66700000Y-64700000D01*
X67100000Y-75300000D02*
X66700000Y-75300000D01*
X88900000Y-64700000D02*
X89300000Y-64700000D01*
X88900000Y-75300000D02*
X89300000Y-75300000D01*
X89300000Y-75300000D02*
X89300000Y-64700000D01*
X67100000Y-75700000D02*
X66770000Y-75940000D01*
X66770000Y-75460000D01*
X67100000Y-75700000D01*
G36*
X67100000Y-75700000D02*
G01*
X66770000Y-75940000D01*
X66770000Y-75460000D01*
X67100000Y-75700000D01*
G37*
%TO.C,U201*%
X25090000Y-14440000D02*
X26910000Y-14440000D01*
X25090000Y-14490000D02*
X25090000Y-14440000D01*
X25090000Y-17560000D02*
X25090000Y-17510000D01*
X26910000Y-14440000D02*
X26910000Y-14490000D01*
X26910000Y-15610000D02*
X26910000Y-16390000D01*
X26910000Y-17510000D02*
X26910000Y-17560000D01*
X26910000Y-17560000D02*
X25090000Y-17560000D01*
X24550000Y-14490000D02*
X24310000Y-14160000D01*
X24790000Y-14160000D01*
X24550000Y-14490000D01*
G36*
X24550000Y-14490000D02*
G01*
X24310000Y-14160000D01*
X24790000Y-14160000D01*
X24550000Y-14490000D01*
G37*
%TO.C,C714*%
X94859420Y-35740000D02*
X95140580Y-35740000D01*
X94859420Y-36760000D02*
X95140580Y-36760000D01*
%TO.C,C407*%
X51359420Y-34490000D02*
X51640580Y-34490000D01*
X51359420Y-35510000D02*
X51640580Y-35510000D01*
%TO.C,C716*%
X95859420Y-37990000D02*
X96140580Y-37990000D01*
X95859420Y-39010000D02*
X96140580Y-39010000D01*
%TO.C,R402*%
X36977500Y-34487258D02*
X36977500Y-34012742D01*
X38022500Y-34487258D02*
X38022500Y-34012742D01*
%TO.C,R208*%
X35012742Y-27227500D02*
X35487258Y-27227500D01*
X35012742Y-28272500D02*
X35487258Y-28272500D01*
%TO.C,C305*%
X38609420Y-65990000D02*
X38890580Y-65990000D01*
X38609420Y-67010000D02*
X38890580Y-67010000D01*
%TO.C,D101*%
X96765000Y-63765000D02*
X96765000Y-65235000D01*
X96765000Y-65235000D02*
X99050000Y-65235000D01*
X99050000Y-63765000D02*
X96765000Y-63765000D01*
%TO.C,X401*%
X39040000Y-31365000D02*
X39040000Y-34635000D01*
X39040000Y-34635000D02*
X42960000Y-34635000D01*
%TO.C,C604*%
X79859420Y-78740000D02*
X80140580Y-78740000D01*
X79859420Y-79760000D02*
X80140580Y-79760000D01*
%TO.C,RN406*%
X58750000Y-53070000D02*
X57750000Y-53070000D01*
X58750000Y-56430000D02*
X57750000Y-56430000D01*
%TO.C,D501*%
X60765000Y-27700000D02*
X60765000Y-29985000D01*
X60765000Y-29985000D02*
X62235000Y-29985000D01*
X62235000Y-29985000D02*
X62235000Y-27700000D01*
%TO.C,C512*%
X73359420Y-55740000D02*
X73640580Y-55740000D01*
X73359420Y-56760000D02*
X73640580Y-56760000D01*
%TO.C,C416*%
X43109420Y-29240000D02*
X43390580Y-29240000D01*
X43109420Y-30260000D02*
X43390580Y-30260000D01*
%TO.C,R103*%
X25262742Y-46227500D02*
X25737258Y-46227500D01*
X25262742Y-47272500D02*
X25737258Y-47272500D01*
%TO.C,R308*%
X35012742Y-68227500D02*
X35487258Y-68227500D01*
X35012742Y-69272500D02*
X35487258Y-69272500D01*
%TO.C,C306*%
X34359420Y-65990000D02*
X34640580Y-65990000D01*
X34359420Y-67010000D02*
X34640580Y-67010000D01*
%TO.C,C713*%
X95859420Y-17240000D02*
X96140580Y-17240000D01*
X95859420Y-18260000D02*
X96140580Y-18260000D01*
%TO.C,R309*%
X39262742Y-68727500D02*
X39737258Y-68727500D01*
X39262742Y-69772500D02*
X39737258Y-69772500D01*
%TO.C,RN403*%
X48250000Y-26070000D02*
X47250000Y-26070000D01*
X48250000Y-29430000D02*
X47250000Y-29430000D01*
%TO.C,C717*%
X102859420Y-15240000D02*
X103140580Y-15240000D01*
X102859420Y-16260000D02*
X103140580Y-16260000D01*
%TO.C,R702*%
X109262742Y-13727500D02*
X109737258Y-13727500D01*
X109262742Y-14772500D02*
X109737258Y-14772500D01*
%TO.C,C508*%
X84609420Y-25490000D02*
X84890580Y-25490000D01*
X84609420Y-26510000D02*
X84890580Y-26510000D01*
%TO.C,C406*%
X53109420Y-49740000D02*
X53390580Y-49740000D01*
X53109420Y-50760000D02*
X53390580Y-50760000D01*
%TO.C,R601*%
X80012742Y-60227500D02*
X80487258Y-60227500D01*
X80012742Y-61272500D02*
X80487258Y-61272500D01*
%TO.C,R104*%
X21977500Y-47737258D02*
X21977500Y-47262742D01*
X23022500Y-47737258D02*
X23022500Y-47262742D01*
%TO.C,C108*%
X19740000Y-44640580D02*
X19740000Y-44359420D01*
X20760000Y-44640580D02*
X20760000Y-44359420D01*
%TO.C,C412*%
X35240000Y-48140580D02*
X35240000Y-47859420D01*
X36260000Y-48140580D02*
X36260000Y-47859420D01*
%TO.C,D301*%
X35240000Y-53190000D02*
X36760000Y-53190000D01*
X35240000Y-53240000D02*
X35240000Y-53190000D01*
X35240000Y-55140000D02*
X35240000Y-54360000D01*
X35240000Y-56310000D02*
X35240000Y-56260000D01*
X36760000Y-53190000D02*
X36760000Y-54190000D01*
X36760000Y-55310000D02*
X36760000Y-56310000D01*
X36760000Y-56310000D02*
X35240000Y-56310000D01*
X34700000Y-54370000D02*
X34940000Y-54700000D01*
X34460000Y-54700000D01*
X34700000Y-54370000D01*
G36*
X34940000Y-54700000D02*
G01*
X34460000Y-54700000D01*
X34700000Y-54370000D01*
X34940000Y-54700000D01*
G37*
%TO.C,C522*%
X63490000Y-28890580D02*
X63490000Y-28609420D01*
X64510000Y-28890580D02*
X64510000Y-28609420D01*
%TO.C,C201*%
X16740000Y-22140580D02*
X16740000Y-21859420D01*
X17760000Y-22140580D02*
X17760000Y-21859420D01*
%TO.C,R204*%
X40477500Y-21237258D02*
X40477500Y-20762742D01*
X41522500Y-21237258D02*
X41522500Y-20762742D01*
%TO.C,C606*%
X76109420Y-60240000D02*
X76390580Y-60240000D01*
X76109420Y-61260000D02*
X76390580Y-61260000D01*
%TO.C,U103*%
X35090000Y-40940000D02*
X36910000Y-40940000D01*
X35090000Y-40990000D02*
X35090000Y-40940000D01*
X35090000Y-44060000D02*
X35090000Y-44010000D01*
X36910000Y-40940000D02*
X36910000Y-40990000D01*
X36910000Y-42110000D02*
X36910000Y-42890000D01*
X36910000Y-44010000D02*
X36910000Y-44060000D01*
X36910000Y-44060000D02*
X35090000Y-44060000D01*
X34550000Y-40990000D02*
X34310000Y-40660000D01*
X34790000Y-40660000D01*
X34550000Y-40990000D01*
G36*
X34550000Y-40990000D02*
G01*
X34310000Y-40660000D01*
X34790000Y-40660000D01*
X34550000Y-40990000D01*
G37*
%TO.C,C704*%
X112240000Y-29890580D02*
X112240000Y-29609420D01*
X113260000Y-29890580D02*
X113260000Y-29609420D01*
%TO.C,FB701*%
X96440000Y-51649622D02*
X96440000Y-50850378D01*
X97560000Y-51649622D02*
X97560000Y-50850378D01*
%TO.C,FB702*%
X111990000Y-14412779D02*
X111990000Y-14087221D01*
X113010000Y-14412779D02*
X113010000Y-14087221D01*
%TO.C,C602*%
X71859420Y-78740000D02*
X72140580Y-78740000D01*
X71859420Y-79760000D02*
X72140580Y-79760000D01*
%TO.C,C518*%
X77738748Y-22265000D02*
X78261252Y-22265000D01*
X77738748Y-23735000D02*
X78261252Y-23735000D01*
%TO.C,C605*%
X91490000Y-75890580D02*
X91490000Y-75609420D01*
X92510000Y-75890580D02*
X92510000Y-75609420D01*
%TO.C,C505*%
X63490000Y-45640580D02*
X63490000Y-45359420D01*
X64510000Y-45640580D02*
X64510000Y-45359420D01*
%TO.C,C517*%
X91490000Y-30640580D02*
X91490000Y-30359420D01*
X92510000Y-30640580D02*
X92510000Y-30359420D01*
%TO.C,C110*%
X96990000Y-70390580D02*
X96990000Y-70109420D01*
X98010000Y-70390580D02*
X98010000Y-70109420D01*
%TO.C,C413*%
X42109420Y-53240000D02*
X42390580Y-53240000D01*
X42109420Y-54260000D02*
X42390580Y-54260000D01*
%TO.C,C103*%
X99265000Y-70511252D02*
X99265000Y-69988748D01*
X100735000Y-70511252D02*
X100735000Y-69988748D01*
%TO.C,J501*%
X64620000Y-2080000D02*
X77540000Y-2080000D01*
X64620000Y-4730000D02*
X64620000Y-2080000D01*
X64620000Y-7380000D02*
X64620000Y-6000000D01*
X66000000Y-7380000D02*
X64620000Y-7380000D01*
X67270000Y-4730000D02*
X64620000Y-4730000D01*
X67270000Y-7380000D02*
X67270000Y-4730000D01*
X67270000Y-7380000D02*
X77540000Y-7380000D01*
X77540000Y-7380000D02*
X77540000Y-2080000D01*
%TO.C,R307*%
X37977500Y-59237258D02*
X37977500Y-58762742D01*
X39022500Y-59237258D02*
X39022500Y-58762742D01*
%TO.C,U501*%
X67890000Y-29890000D02*
X68840000Y-29890000D01*
X67890000Y-30840000D02*
X67890000Y-29890000D01*
X67890000Y-50110000D02*
X67890000Y-49160000D01*
X68840000Y-50110000D02*
X67890000Y-50110000D01*
X87160000Y-29890000D02*
X88110000Y-29890000D01*
X88110000Y-29890000D02*
X88110000Y-30840000D01*
X88110000Y-49160000D02*
X88110000Y-50110000D01*
X88110000Y-50110000D02*
X87160000Y-50110000D01*
X67250000Y-30840000D02*
X66910000Y-30370000D01*
X67590000Y-30370000D01*
X67250000Y-30840000D01*
G36*
X67250000Y-30840000D02*
G01*
X66910000Y-30370000D01*
X67590000Y-30370000D01*
X67250000Y-30840000D01*
G37*
%TO.C,C408*%
X45609420Y-34240000D02*
X45890580Y-34240000D01*
X45609420Y-35260000D02*
X45890580Y-35260000D01*
%TO.C,C503*%
X77738748Y-25015000D02*
X78261252Y-25015000D01*
X77738748Y-26485000D02*
X78261252Y-26485000D01*
%TO.C,C207*%
X30990000Y-26140580D02*
X30990000Y-25859420D01*
X32010000Y-26140580D02*
X32010000Y-25859420D01*
%TO.C,C404*%
X41490000Y-50890580D02*
X41490000Y-50609420D01*
X42510000Y-50890580D02*
X42510000Y-50609420D01*
%TO.C,C709*%
X91490000Y-20890580D02*
X91490000Y-20609420D01*
X92510000Y-20890580D02*
X92510000Y-20609420D01*
%TO.C,R506*%
X70012742Y-24977500D02*
X70487258Y-24977500D01*
X70012742Y-26022500D02*
X70487258Y-26022500D01*
%TO.C,R205*%
X32762742Y-15727500D02*
X33237258Y-15727500D01*
X32762742Y-16772500D02*
X33237258Y-16772500D01*
%TO.C,C502*%
X81609420Y-53740000D02*
X81890580Y-53740000D01*
X81609420Y-54760000D02*
X81890580Y-54760000D01*
%TO.C,C304*%
X35490000Y-58890580D02*
X35490000Y-58609420D01*
X36510000Y-58890580D02*
X36510000Y-58609420D01*
%TO.C,C603*%
X75859420Y-78740000D02*
X76140580Y-78740000D01*
X75859420Y-79760000D02*
X76140580Y-79760000D01*
%TO.C,C205*%
X38609420Y-24990000D02*
X38890580Y-24990000D01*
X38609420Y-26010000D02*
X38890580Y-26010000D01*
%TO.C,C411*%
X38740000Y-50640580D02*
X38740000Y-50359420D01*
X39760000Y-50640580D02*
X39760000Y-50359420D01*
%TO.C,C405*%
X46488748Y-51765000D02*
X47011252Y-51765000D01*
X46488748Y-53235000D02*
X47011252Y-53235000D01*
%TO.C,U104*%
X23000000Y-40860000D02*
X25000000Y-40860000D01*
X23000000Y-44140000D02*
X25000000Y-44140000D01*
X22630000Y-40930000D02*
X22350000Y-40930000D01*
X22630000Y-40650000D01*
X22630000Y-40930000D01*
G36*
X22630000Y-40930000D02*
G01*
X22350000Y-40930000D01*
X22630000Y-40650000D01*
X22630000Y-40930000D01*
G37*
%TO.C,C210*%
X39990000Y-43140580D02*
X39990000Y-42859420D01*
X41010000Y-43140580D02*
X41010000Y-42859420D01*
%TO.C,C701*%
X109515000Y-31011252D02*
X109515000Y-30488748D01*
X110985000Y-31011252D02*
X110985000Y-30488748D01*
%TO.C,C515*%
X91490000Y-43140580D02*
X91490000Y-42859420D01*
X92510000Y-43140580D02*
X92510000Y-42859420D01*
%TO.C,R206*%
X41477500Y-25487258D02*
X41477500Y-25012742D01*
X42522500Y-25487258D02*
X42522500Y-25012742D01*
%TO.C,U702*%
X95890000Y-21890000D02*
X96840000Y-21890000D01*
X95890000Y-22840000D02*
X95890000Y-21890000D01*
X95890000Y-32110000D02*
X95890000Y-31160000D01*
X96840000Y-32110000D02*
X95890000Y-32110000D01*
X105160000Y-21890000D02*
X106110000Y-21890000D01*
X106110000Y-21890000D02*
X106110000Y-22840000D01*
X106110000Y-31160000D02*
X106110000Y-32110000D01*
X106110000Y-32110000D02*
X105160000Y-32110000D01*
X106750000Y-31160000D02*
X107090000Y-31630000D01*
X106410000Y-31630000D01*
X106750000Y-31160000D01*
G36*
X107090000Y-31630000D02*
G01*
X106410000Y-31630000D01*
X106750000Y-31160000D01*
X107090000Y-31630000D01*
G37*
%TO.C,J201*%
X0Y-14500000D02*
X15000000Y-14500000D01*
X0Y-29500000D02*
X0Y-14500000D01*
X200000Y-22000000D02*
X1200000Y-21000000D01*
X200000Y-22000000D02*
X1200000Y-23000000D01*
X15000000Y-14500000D02*
X15000000Y-29500000D01*
X15000000Y-29500000D02*
X0Y-29500000D01*
%TO.C,C307*%
X30990000Y-67140580D02*
X30990000Y-66859420D01*
X32010000Y-67140580D02*
X32010000Y-66859420D01*
%TO.C,U301*%
X25090000Y-67440000D02*
X26910000Y-67440000D01*
X25090000Y-67490000D02*
X25090000Y-67440000D01*
X25090000Y-70560000D02*
X25090000Y-70510000D01*
X26910000Y-67440000D02*
X26910000Y-67490000D01*
X26910000Y-68610000D02*
X26910000Y-69390000D01*
X26910000Y-70510000D02*
X26910000Y-70560000D01*
X26910000Y-70560000D02*
X25090000Y-70560000D01*
X24550000Y-67490000D02*
X24310000Y-67160000D01*
X24790000Y-67160000D01*
X24550000Y-67490000D01*
G36*
X24550000Y-67490000D02*
G01*
X24310000Y-67160000D01*
X24790000Y-67160000D01*
X24550000Y-67490000D01*
G37*
%TO.C,R305*%
X31762742Y-56727500D02*
X32237258Y-56727500D01*
X31762742Y-57772500D02*
X32237258Y-57772500D01*
%TO.C,C102*%
X107015000Y-69261252D02*
X107015000Y-68738748D01*
X108485000Y-69261252D02*
X108485000Y-68738748D01*
%TD*%
M02*
