%TF.GenerationSoftware,KiCad,Pcbnew,10.0.4*%
%TF.CreationDate,2026-10-10T10:35:38-04:00*%
%TF.ProjectId,dual_adc_usb,6475616c-5f61-4646-935f-7573622e6b69,rev?*%
%TF.SameCoordinates,Original*%
%TF.FileFunction,Other,User*%
%FSLAX46Y46*%
G04 Gerber Fmt 4.6, Leading zero omitted, Abs format (unit mm)*
G04 Created by KiCad (PCBNEW 10.0.4) date 2026-10-10 10:35:38*
%MOMM*%
%LPD*%
G01*
G04 APERTURE LIST*
%ADD10C,0.050000*%
G04 APERTURE END LIST*
%TO.C,C521*%
D10*
X61020000Y-34270000D02*
X62480000Y-34270000D01*
X62480000Y-37230000D01*
X61020000Y-37230000D01*
X61020000Y-34270000D01*
%TO.C,C718*%
X105270000Y-13520000D02*
X106730000Y-13520000D01*
X106730000Y-16480000D01*
X105270000Y-16480000D01*
X105270000Y-13520000D01*
%TO.C,J301*%
X-21100000Y-55150000D02*
X-21100000Y-70850000D01*
X15400000Y-55150000D02*
X-21100000Y-55150000D01*
X15400000Y-70850000D02*
X-21100000Y-70850000D01*
X15400000Y-70850000D02*
X15400000Y-55150000D01*
%TO.C,C708*%
X103270000Y-17270000D02*
X106230000Y-17270000D01*
X106230000Y-18730000D01*
X103270000Y-18730000D01*
X103270000Y-17270000D01*
%TO.C,R301*%
X16270000Y-65270000D02*
X19230000Y-65270000D01*
X19230000Y-66730000D01*
X16270000Y-66730000D01*
X16270000Y-65270000D01*
%TO.C,C109*%
X98270000Y-72770000D02*
X101230000Y-72770000D01*
X101230000Y-74230000D01*
X98270000Y-74230000D01*
X98270000Y-72770000D01*
%TO.C,C401*%
X37270000Y-36770000D02*
X38730000Y-36770000D01*
X38730000Y-39730000D01*
X37270000Y-39730000D01*
X37270000Y-36770000D01*
%TO.C,X501*%
X87900000Y-23250000D02*
X92100000Y-23250000D01*
X92100000Y-26750000D01*
X87900000Y-26750000D01*
X87900000Y-23250000D01*
%TO.C,U101*%
X101950000Y-68500000D02*
X102950000Y-68500000D01*
X101950000Y-71500000D02*
X101950000Y-68500000D01*
X102950000Y-68300000D02*
X105050000Y-68300000D01*
X102950000Y-68500000D02*
X102950000Y-68300000D01*
X102950000Y-71500000D02*
X101950000Y-71500000D01*
X102950000Y-71700000D02*
X102950000Y-71500000D01*
X105050000Y-68300000D02*
X105050000Y-68500000D01*
X105050000Y-68500000D02*
X106050000Y-68500000D01*
X105050000Y-69610000D02*
X105050000Y-70390000D01*
X105050000Y-70390000D02*
X106050000Y-70390000D01*
X105050000Y-71500000D02*
X105050000Y-71700000D01*
X105050000Y-71700000D02*
X102950000Y-71700000D01*
X106050000Y-68500000D02*
X106050000Y-69610000D01*
X106050000Y-69610000D02*
X105050000Y-69610000D01*
X106050000Y-70390000D02*
X106050000Y-71500000D01*
X106050000Y-71500000D02*
X105050000Y-71500000D01*
%TO.C,R306*%
X41270000Y-64770000D02*
X42730000Y-64770000D01*
X42730000Y-67730000D01*
X41270000Y-67730000D01*
X41270000Y-64770000D01*
%TO.C,C601*%
X66770000Y-78520000D02*
X69730000Y-78520000D01*
X69730000Y-79980000D01*
X66770000Y-79980000D01*
X66770000Y-78520000D01*
%TO.C,C209*%
X39770000Y-37770000D02*
X41230000Y-37770000D01*
X41230000Y-40730000D01*
X39770000Y-40730000D01*
X39770000Y-37770000D01*
%TO.C,U202*%
X32820000Y-20520000D02*
X34250000Y-20520000D01*
X32820000Y-23480000D02*
X32820000Y-20520000D01*
X34250000Y-20250000D02*
X37750000Y-20250000D01*
X34250000Y-20520000D02*
X34250000Y-20250000D01*
X34250000Y-23480000D02*
X32820000Y-23480000D01*
X34250000Y-23750000D02*
X34250000Y-23480000D01*
X37750000Y-20250000D02*
X37750000Y-20520000D01*
X37750000Y-20520000D02*
X39180000Y-20520000D01*
X37750000Y-23480000D02*
X37750000Y-23750000D01*
X37750000Y-23750000D02*
X34250000Y-23750000D01*
X39180000Y-20520000D02*
X39180000Y-23480000D01*
X39180000Y-23480000D02*
X37750000Y-23480000D01*
%TO.C,R101*%
X19520000Y-39020000D02*
X20980000Y-39020000D01*
X20980000Y-41980000D01*
X19520000Y-41980000D01*
X19520000Y-39020000D01*
%TO.C,U402*%
X50950000Y-29500000D02*
X51950000Y-29500000D01*
X50950000Y-32500000D02*
X50950000Y-29500000D01*
X51950000Y-29300000D02*
X54050000Y-29300000D01*
X51950000Y-29500000D02*
X51950000Y-29300000D01*
X51950000Y-32500000D02*
X50950000Y-32500000D01*
X51950000Y-32700000D02*
X51950000Y-32500000D01*
X54050000Y-29300000D02*
X54050000Y-29500000D01*
X54050000Y-29500000D02*
X55050000Y-29500000D01*
X54050000Y-30610000D02*
X54050000Y-31390000D01*
X54050000Y-31390000D02*
X55050000Y-31390000D01*
X54050000Y-32500000D02*
X54050000Y-32700000D01*
X54050000Y-32700000D02*
X51950000Y-32700000D01*
X55050000Y-29500000D02*
X55050000Y-30610000D01*
X55050000Y-30610000D02*
X54050000Y-30610000D01*
X55050000Y-31390000D02*
X55050000Y-32500000D01*
X55050000Y-32500000D02*
X54050000Y-32500000D01*
%TO.C,C706*%
X109270000Y-23020000D02*
X112230000Y-23020000D01*
X112230000Y-24480000D01*
X109270000Y-24480000D01*
X109270000Y-23020000D01*
%TO.C,R501*%
X84520000Y-53520000D02*
X85980000Y-53520000D01*
X85980000Y-56480000D01*
X84520000Y-56480000D01*
X84520000Y-53520000D01*
%TO.C,R404*%
X56020000Y-30520000D02*
X57480000Y-30520000D01*
X57480000Y-33480000D01*
X56020000Y-33480000D01*
X56020000Y-30520000D01*
%TO.C,C409*%
X44020000Y-31770000D02*
X46980000Y-31770000D01*
X46980000Y-33230000D01*
X44020000Y-33230000D01*
X44020000Y-31770000D01*
%TO.C,C712*%
X98770000Y-17270000D02*
X101730000Y-17270000D01*
X101730000Y-18730000D01*
X98770000Y-18730000D01*
X98770000Y-17270000D01*
%TO.C,R202*%
X29020000Y-16770000D02*
X30480000Y-16770000D01*
X30480000Y-19730000D01*
X29020000Y-19730000D01*
X29020000Y-16770000D01*
%TO.C,U703*%
X93300000Y-10540000D02*
X94800000Y-10540000D01*
X93300000Y-15460000D02*
X93300000Y-10540000D01*
X94800000Y-10300000D02*
X99200000Y-10300000D01*
X94800000Y-10540000D02*
X94800000Y-10300000D01*
X94800000Y-15460000D02*
X93300000Y-15460000D01*
X94800000Y-15700000D02*
X94800000Y-15460000D01*
X99200000Y-10300000D02*
X99200000Y-10540000D01*
X99200000Y-10540000D02*
X100700000Y-10540000D01*
X99200000Y-15460000D02*
X99200000Y-15700000D01*
X99200000Y-15700000D02*
X94800000Y-15700000D01*
X100700000Y-10540000D02*
X100700000Y-15460000D01*
X100700000Y-15460000D02*
X99200000Y-15460000D01*
%TO.C,RN404*%
X51900000Y-54800000D02*
X51900000Y-51700000D01*
X51900000Y-54800000D02*
X55600000Y-54800000D01*
X55600000Y-51700000D02*
X51900000Y-51700000D01*
X55600000Y-51700000D02*
X55600000Y-54800000D01*
%TO.C,J701*%
X98510000Y-39980000D02*
X98510000Y-56520000D01*
X98510000Y-56520000D02*
X116010000Y-56520000D01*
X116010000Y-39980000D02*
X98510000Y-39980000D01*
X116010000Y-56520000D02*
X116010000Y-39980000D01*
%TO.C,C519*%
X72520000Y-22770000D02*
X75480000Y-22770000D01*
X75480000Y-24230000D01*
X72520000Y-24230000D01*
X72520000Y-22770000D01*
%TO.C,RN405*%
X56400000Y-52300000D02*
X56400000Y-49200000D01*
X56400000Y-52300000D02*
X60100000Y-52300000D01*
X60100000Y-49200000D02*
X56400000Y-49200000D01*
X60100000Y-49200000D02*
X60100000Y-52300000D01*
%TO.C,R503*%
X91520000Y-49270000D02*
X92980000Y-49270000D01*
X92980000Y-52230000D01*
X91520000Y-52230000D01*
X91520000Y-49270000D01*
%TO.C,C310*%
X43520000Y-49270000D02*
X46480000Y-49270000D01*
X46480000Y-50730000D01*
X43520000Y-50730000D01*
X43520000Y-49270000D01*
%TO.C,C403*%
X47270000Y-49270000D02*
X50230000Y-49270000D01*
X50230000Y-50730000D01*
X47270000Y-50730000D01*
X47270000Y-49270000D01*
%TO.C,R507*%
X68520000Y-22520000D02*
X71480000Y-22520000D01*
X71480000Y-23980000D01*
X68520000Y-23980000D01*
X68520000Y-22520000D01*
%TO.C,R401*%
X55020000Y-36520000D02*
X56480000Y-36520000D01*
X56480000Y-39480000D01*
X55020000Y-39480000D01*
X55020000Y-36520000D01*
%TO.C,R701*%
X108020000Y-15770000D02*
X110980000Y-15770000D01*
X110980000Y-17230000D01*
X108020000Y-17230000D01*
X108020000Y-15770000D01*
%TO.C,C608*%
X63020000Y-74550000D02*
X64980000Y-74550000D01*
X64980000Y-77950000D01*
X63020000Y-77950000D01*
X63020000Y-74550000D01*
%TO.C,C203*%
X30520000Y-20770000D02*
X31980000Y-20770000D01*
X31980000Y-23730000D01*
X30520000Y-23730000D01*
X30520000Y-20770000D01*
%TO.C,R209*%
X38020000Y-27520000D02*
X40980000Y-27520000D01*
X40980000Y-28980000D01*
X38020000Y-28980000D01*
X38020000Y-27520000D01*
%TO.C,C415*%
X49270000Y-51770000D02*
X50730000Y-51770000D01*
X50730000Y-54730000D01*
X49270000Y-54730000D01*
X49270000Y-51770000D01*
%TO.C,D502*%
X61020000Y-24770000D02*
X63980000Y-24770000D01*
X63980000Y-26230000D01*
X61020000Y-26230000D01*
X61020000Y-24770000D01*
%TO.C,U401*%
X42870000Y-38370000D02*
X43250000Y-38370000D01*
X42870000Y-46630000D02*
X42870000Y-38370000D01*
X43250000Y-37750000D02*
X43870000Y-37750000D01*
X43250000Y-38370000D02*
X43250000Y-37750000D01*
X43250000Y-46630000D02*
X42870000Y-46630000D01*
X43250000Y-47250000D02*
X43250000Y-46630000D01*
X43870000Y-37370000D02*
X52130000Y-37370000D01*
X43870000Y-37750000D02*
X43870000Y-37370000D01*
X43870000Y-47250000D02*
X43250000Y-47250000D01*
X43870000Y-47630000D02*
X43870000Y-47250000D01*
X52130000Y-37370000D02*
X52130000Y-37750000D01*
X52130000Y-37750000D02*
X52750000Y-37750000D01*
X52130000Y-47250000D02*
X52130000Y-47630000D01*
X52130000Y-47630000D02*
X43870000Y-47630000D01*
X52750000Y-37750000D02*
X52750000Y-38370000D01*
X52750000Y-38370000D02*
X53130000Y-38370000D01*
X52750000Y-46630000D02*
X52750000Y-47250000D01*
X52750000Y-47250000D02*
X52130000Y-47250000D01*
X53130000Y-38370000D02*
X53130000Y-46630000D01*
X53130000Y-46630000D02*
X52750000Y-46630000D01*
%TO.C,C513*%
X78270000Y-56020000D02*
X81230000Y-56020000D01*
X81230000Y-57480000D01*
X78270000Y-57480000D01*
X78270000Y-56020000D01*
%TO.C,C702*%
X110770000Y-35770000D02*
X112230000Y-35770000D01*
X112230000Y-38730000D01*
X110770000Y-38730000D01*
X110770000Y-35770000D01*
%TO.C,R704*%
X96020000Y-40020000D02*
X97480000Y-40020000D01*
X97480000Y-42980000D01*
X96020000Y-42980000D01*
X96020000Y-40020000D01*
%TO.C,C414*%
X47770000Y-30270000D02*
X49230000Y-30270000D01*
X49230000Y-33230000D01*
X47770000Y-33230000D01*
X47770000Y-30270000D01*
%TO.C,C202*%
X31520000Y-18020000D02*
X34480000Y-18020000D01*
X34480000Y-19480000D01*
X31520000Y-19480000D01*
X31520000Y-18020000D01*
%TO.C,R508*%
X64770000Y-24770000D02*
X67730000Y-24770000D01*
X67730000Y-26230000D01*
X64770000Y-26230000D01*
X64770000Y-24770000D01*
%TO.C,C101*%
X101050000Y-65520000D02*
X104450000Y-65520000D01*
X104450000Y-67480000D01*
X101050000Y-67480000D01*
X101050000Y-65520000D01*
%TO.C,C507*%
X91520000Y-37770000D02*
X92980000Y-37770000D01*
X92980000Y-40730000D01*
X91520000Y-40730000D01*
X91520000Y-37770000D01*
%TO.C,U701*%
X105950000Y-36500000D02*
X106950000Y-36500000D01*
X105950000Y-39500000D02*
X105950000Y-36500000D01*
X106950000Y-36300000D02*
X109050000Y-36300000D01*
X106950000Y-36500000D02*
X106950000Y-36300000D01*
X106950000Y-39500000D02*
X105950000Y-39500000D01*
X106950000Y-39700000D02*
X106950000Y-39500000D01*
X109050000Y-36300000D02*
X109050000Y-36500000D01*
X109050000Y-36500000D02*
X110050000Y-36500000D01*
X109050000Y-39500000D02*
X109050000Y-39700000D01*
X109050000Y-39700000D02*
X106950000Y-39700000D01*
X110050000Y-36500000D02*
X110050000Y-39500000D01*
X110050000Y-39500000D02*
X109050000Y-39500000D01*
%TO.C,C711*%
X102270000Y-37770000D02*
X105230000Y-37770000D01*
X105230000Y-39230000D01*
X102270000Y-39230000D01*
X102270000Y-37770000D01*
%TO.C,C417*%
X55020000Y-45520000D02*
X56480000Y-45520000D01*
X56480000Y-48480000D01*
X55020000Y-48480000D01*
X55020000Y-45520000D01*
%TO.C,C106*%
X97270000Y-66270000D02*
X100230000Y-66270000D01*
X100230000Y-67730000D01*
X97270000Y-67730000D01*
X97270000Y-66270000D01*
%TO.C,U102*%
X101950000Y-76500000D02*
X102950000Y-76500000D01*
X101950000Y-79500000D02*
X101950000Y-76500000D01*
X102950000Y-76300000D02*
X105050000Y-76300000D01*
X102950000Y-76500000D02*
X102950000Y-76300000D01*
X102950000Y-79500000D02*
X101950000Y-79500000D01*
X102950000Y-79700000D02*
X102950000Y-79500000D01*
X105050000Y-76300000D02*
X105050000Y-76500000D01*
X105050000Y-76500000D02*
X106050000Y-76500000D01*
X105050000Y-77610000D02*
X105050000Y-78390000D01*
X105050000Y-78390000D02*
X106050000Y-78390000D01*
X105050000Y-79500000D02*
X105050000Y-79700000D01*
X105050000Y-79700000D02*
X102950000Y-79700000D01*
X106050000Y-76500000D02*
X106050000Y-77610000D01*
X106050000Y-77610000D02*
X105050000Y-77610000D01*
X106050000Y-78390000D02*
X106050000Y-79500000D01*
X106050000Y-79500000D02*
X105050000Y-79500000D01*
%TO.C,U302*%
X32820000Y-61520000D02*
X34250000Y-61520000D01*
X32820000Y-64480000D02*
X32820000Y-61520000D01*
X34250000Y-61250000D02*
X37750000Y-61250000D01*
X34250000Y-61520000D02*
X34250000Y-61250000D01*
X34250000Y-64480000D02*
X32820000Y-64480000D01*
X34250000Y-64750000D02*
X34250000Y-64480000D01*
X37750000Y-61250000D02*
X37750000Y-61520000D01*
X37750000Y-61520000D02*
X39180000Y-61520000D01*
X37750000Y-64480000D02*
X37750000Y-64750000D01*
X37750000Y-64750000D02*
X34250000Y-64750000D01*
X39180000Y-61520000D02*
X39180000Y-64480000D01*
X39180000Y-64480000D02*
X37750000Y-64480000D01*
%TO.C,R403*%
X32770000Y-45520000D02*
X34230000Y-45520000D01*
X34230000Y-48480000D01*
X32770000Y-48480000D01*
X32770000Y-45520000D01*
%TO.C,C410*%
X34770000Y-36770000D02*
X36230000Y-36770000D01*
X36230000Y-39730000D01*
X34770000Y-39730000D01*
X34770000Y-36770000D01*
%TO.C,C516*%
X91270000Y-33020000D02*
X92730000Y-33020000D01*
X92730000Y-35980000D01*
X91270000Y-35980000D01*
X91270000Y-33020000D01*
%TO.C,C705*%
X109520000Y-33520000D02*
X112480000Y-33520000D01*
X112480000Y-34980000D01*
X109520000Y-34980000D01*
X109520000Y-33520000D01*
%TO.C,D201*%
X30820000Y-11500000D02*
X31850000Y-11500000D01*
X30820000Y-12610000D02*
X30820000Y-11500000D01*
X30820000Y-13390000D02*
X31850000Y-13390000D01*
X30820000Y-14500000D02*
X30820000Y-13390000D01*
X31850000Y-11300000D02*
X33650000Y-11300000D01*
X31850000Y-11500000D02*
X31850000Y-11300000D01*
X31850000Y-12610000D02*
X30820000Y-12610000D01*
X31850000Y-13390000D02*
X31850000Y-12610000D01*
X31850000Y-14500000D02*
X30820000Y-14500000D01*
X31850000Y-14700000D02*
X31850000Y-14500000D01*
X33650000Y-11300000D02*
X33650000Y-12450000D01*
X33650000Y-12450000D02*
X34680000Y-12450000D01*
X33650000Y-13550000D02*
X33650000Y-14700000D01*
X33650000Y-14700000D02*
X31850000Y-14700000D01*
X34680000Y-12450000D02*
X34680000Y-13550000D01*
X34680000Y-13550000D02*
X33650000Y-13550000D01*
%TO.C,C303*%
X30520000Y-61770000D02*
X31980000Y-61770000D01*
X31980000Y-64730000D01*
X30520000Y-64730000D01*
X30520000Y-61770000D01*
%TO.C,U502*%
X92350000Y-57520000D02*
X94100000Y-57520000D01*
X92350000Y-62480000D02*
X92350000Y-57520000D01*
X94100000Y-57100000D02*
X99900000Y-57100000D01*
X94100000Y-57520000D02*
X94100000Y-57100000D01*
X94100000Y-62480000D02*
X92350000Y-62480000D01*
X94100000Y-62900000D02*
X94100000Y-62480000D01*
X99900000Y-57100000D02*
X99900000Y-57520000D01*
X99900000Y-57520000D02*
X101650000Y-57520000D01*
X99900000Y-62480000D02*
X99900000Y-62900000D01*
X99900000Y-62900000D02*
X94100000Y-62900000D01*
X101650000Y-57520000D02*
X101650000Y-62480000D01*
X101650000Y-62480000D02*
X99900000Y-62480000D01*
%TO.C,C111*%
X105770000Y-72520000D02*
X107230000Y-72520000D01*
X107230000Y-75480000D01*
X105770000Y-75480000D01*
X105770000Y-72520000D01*
%TO.C,C509*%
X62770000Y-39800000D02*
X64730000Y-39800000D01*
X64730000Y-43200000D01*
X62770000Y-43200000D01*
X62770000Y-39800000D01*
%TO.C,C301*%
X16520000Y-61520000D02*
X17980000Y-61520000D01*
X17980000Y-64480000D01*
X16520000Y-64480000D01*
X16520000Y-61520000D01*
%TO.C,C302*%
X31520000Y-59020000D02*
X34480000Y-59020000D01*
X34480000Y-60480000D01*
X31520000Y-60480000D01*
X31520000Y-59020000D01*
%TO.C,C715*%
X98520000Y-37520000D02*
X101480000Y-37520000D01*
X101480000Y-38980000D01*
X98520000Y-38980000D01*
X98520000Y-37520000D01*
%TO.C,R504*%
X75770000Y-56020000D02*
X77230000Y-56020000D01*
X77230000Y-58980000D01*
X75770000Y-58980000D01*
X75770000Y-56020000D01*
%TO.C,C501*%
X75800000Y-53270000D02*
X79200000Y-53270000D01*
X79200000Y-55230000D01*
X75800000Y-55230000D01*
X75800000Y-53270000D01*
%TO.C,R207*%
X37770000Y-16520000D02*
X39230000Y-16520000D01*
X39230000Y-19480000D01*
X37770000Y-19480000D01*
X37770000Y-16520000D01*
%TO.C,C208*%
X28270000Y-22020000D02*
X29730000Y-22020000D01*
X29730000Y-24980000D01*
X28270000Y-24980000D01*
X28270000Y-22020000D01*
%TO.C,C514*%
X86770000Y-53270000D02*
X89730000Y-53270000D01*
X89730000Y-54730000D01*
X86770000Y-54730000D01*
X86770000Y-53270000D01*
%TO.C,C607*%
X70020000Y-60020000D02*
X72980000Y-60020000D01*
X72980000Y-61480000D01*
X70020000Y-61480000D01*
X70020000Y-60020000D01*
%TO.C,F701*%
X95370000Y-43720000D02*
X97630000Y-43720000D01*
X97630000Y-48280000D01*
X95370000Y-48280000D01*
X95370000Y-43720000D01*
%TO.C,C308*%
X28270000Y-63020000D02*
X29730000Y-63020000D01*
X29730000Y-65980000D01*
X28270000Y-65980000D01*
X28270000Y-63020000D01*
%TO.C,R405*%
X54270000Y-34270000D02*
X57230000Y-34270000D01*
X57230000Y-35730000D01*
X54270000Y-35730000D01*
X54270000Y-34270000D01*
%TO.C,Y701*%
X107900000Y-18250000D02*
X112100000Y-18250000D01*
X112100000Y-21750000D01*
X107900000Y-21750000D01*
X107900000Y-18250000D01*
%TO.C,C204*%
X35270000Y-16270000D02*
X36730000Y-16270000D01*
X36730000Y-19230000D01*
X35270000Y-19230000D01*
X35270000Y-16270000D01*
%TO.C,R703*%
X91020000Y-13270000D02*
X92480000Y-13270000D01*
X92480000Y-16230000D01*
X91020000Y-16230000D01*
X91020000Y-13270000D01*
%TO.C,C506*%
X70770000Y-53270000D02*
X73730000Y-53270000D01*
X73730000Y-54730000D01*
X70770000Y-54730000D01*
X70770000Y-53270000D01*
%TO.C,R102*%
X22270000Y-37520000D02*
X25230000Y-37520000D01*
X25230000Y-38980000D01*
X22270000Y-38980000D01*
X22270000Y-37520000D01*
%TO.C,C105*%
X102020000Y-72520000D02*
X104980000Y-72520000D01*
X104980000Y-73980000D01*
X102020000Y-73980000D01*
X102020000Y-72520000D01*
%TO.C,RN401*%
X56950000Y-40150000D02*
X56950000Y-43850000D01*
X56950000Y-40150000D02*
X60050000Y-40150000D01*
X60050000Y-43850000D02*
X56950000Y-43850000D01*
X60050000Y-43850000D02*
X60050000Y-40150000D01*
%TO.C,R304*%
X40270000Y-60520000D02*
X41730000Y-60520000D01*
X41730000Y-63480000D01*
X40270000Y-63480000D01*
X40270000Y-60520000D01*
%TO.C,RN402*%
X57200000Y-44650000D02*
X57200000Y-48350000D01*
X57200000Y-44650000D02*
X60300000Y-44650000D01*
X60300000Y-48350000D02*
X57200000Y-48350000D01*
X60300000Y-48350000D02*
X60300000Y-44650000D01*
%TO.C,R203*%
X24020000Y-18520000D02*
X26980000Y-18520000D01*
X26980000Y-19980000D01*
X24020000Y-19980000D01*
X24020000Y-18520000D01*
%TO.C,C510*%
X63270000Y-33520000D02*
X64730000Y-33520000D01*
X64730000Y-36480000D01*
X63270000Y-36480000D01*
X63270000Y-33520000D01*
%TO.C,R502*%
X82270000Y-55770000D02*
X83730000Y-55770000D01*
X83730000Y-58730000D01*
X82270000Y-58730000D01*
X82270000Y-55770000D01*
%TO.C,C710*%
X97270000Y-35270000D02*
X100230000Y-35270000D01*
X100230000Y-36730000D01*
X97270000Y-36730000D01*
X97270000Y-35270000D01*
%TO.C,R406*%
X54770000Y-41270000D02*
X56230000Y-41270000D01*
X56230000Y-44230000D01*
X54770000Y-44230000D01*
X54770000Y-41270000D01*
%TO.C,C309*%
X39770000Y-45270000D02*
X41230000Y-45270000D01*
X41230000Y-48230000D01*
X39770000Y-48230000D01*
X39770000Y-45270000D01*
%TO.C,C107*%
X27270000Y-41270000D02*
X28730000Y-41270000D01*
X28730000Y-44230000D01*
X27270000Y-44230000D01*
X27270000Y-41270000D01*
%TO.C,C703*%
X109520000Y-25270000D02*
X110980000Y-25270000D01*
X110980000Y-28230000D01*
X109520000Y-28230000D01*
X109520000Y-25270000D01*
%TO.C,R302*%
X28270000Y-59270000D02*
X29730000Y-59270000D01*
X29730000Y-62230000D01*
X28270000Y-62230000D01*
X28270000Y-59270000D01*
%TO.C,C520*%
X61770000Y-31020000D02*
X64730000Y-31020000D01*
X64730000Y-32480000D01*
X61770000Y-32480000D01*
X61770000Y-31020000D01*
%TO.C,C511*%
X61520000Y-47770000D02*
X64480000Y-47770000D01*
X64480000Y-49230000D01*
X61520000Y-49230000D01*
X61520000Y-47770000D01*
%TO.C,C504*%
X72520000Y-25270000D02*
X75480000Y-25270000D01*
X75480000Y-26730000D01*
X72520000Y-26730000D01*
X72520000Y-25270000D01*
%TO.C,C402*%
X37270000Y-45270000D02*
X38730000Y-45270000D01*
X38730000Y-48230000D01*
X37270000Y-48230000D01*
X37270000Y-45270000D01*
%TO.C,C707*%
X101770000Y-35270000D02*
X104730000Y-35270000D01*
X104730000Y-36730000D01*
X101770000Y-36730000D01*
X101770000Y-35270000D01*
%TO.C,R303*%
X24020000Y-71520000D02*
X26980000Y-71520000D01*
X26980000Y-72980000D01*
X24020000Y-72980000D01*
X24020000Y-71520000D01*
%TO.C,R105*%
X102770000Y-61520000D02*
X104230000Y-61520000D01*
X104230000Y-64480000D01*
X102770000Y-64480000D01*
X102770000Y-61520000D01*
%TO.C,R201*%
X16270000Y-24270000D02*
X19230000Y-24270000D01*
X19230000Y-25730000D01*
X16270000Y-25730000D01*
X16270000Y-24270000D01*
%TO.C,C104*%
X105770000Y-65020000D02*
X108730000Y-65020000D01*
X108730000Y-66480000D01*
X105770000Y-66480000D01*
X105770000Y-65020000D01*
%TO.C,C206*%
X33020000Y-24770000D02*
X35980000Y-24770000D01*
X35980000Y-26230000D01*
X33020000Y-26230000D01*
X33020000Y-24770000D01*
%TO.C,R505*%
X81020000Y-23520000D02*
X82480000Y-23520000D01*
X82480000Y-26480000D01*
X81020000Y-26480000D01*
X81020000Y-23520000D01*
%TO.C,U601*%
X66640000Y-63240000D02*
X89360000Y-63240000D01*
X66640000Y-76760000D02*
X66640000Y-63240000D01*
X66640000Y-76760000D02*
X89360000Y-76760000D01*
X89360000Y-63240000D02*
X89360000Y-76760000D01*
%TO.C,U201*%
X23950000Y-14500000D02*
X24950000Y-14500000D01*
X23950000Y-17500000D02*
X23950000Y-14500000D01*
X24950000Y-14300000D02*
X27050000Y-14300000D01*
X24950000Y-14500000D02*
X24950000Y-14300000D01*
X24950000Y-17500000D02*
X23950000Y-17500000D01*
X24950000Y-17700000D02*
X24950000Y-17500000D01*
X27050000Y-14300000D02*
X27050000Y-14500000D01*
X27050000Y-14500000D02*
X28050000Y-14500000D01*
X27050000Y-15610000D02*
X27050000Y-16390000D01*
X27050000Y-16390000D02*
X28050000Y-16390000D01*
X27050000Y-17500000D02*
X27050000Y-17700000D01*
X27050000Y-17700000D02*
X24950000Y-17700000D01*
X28050000Y-14500000D02*
X28050000Y-15610000D01*
X28050000Y-15610000D02*
X27050000Y-15610000D01*
X28050000Y-16390000D02*
X28050000Y-17500000D01*
X28050000Y-17500000D02*
X27050000Y-17500000D01*
%TO.C,C714*%
X93520000Y-35520000D02*
X96480000Y-35520000D01*
X96480000Y-36980000D01*
X93520000Y-36980000D01*
X93520000Y-35520000D01*
%TO.C,C407*%
X50020000Y-34270000D02*
X52980000Y-34270000D01*
X52980000Y-35730000D01*
X50020000Y-35730000D01*
X50020000Y-34270000D01*
%TO.C,C716*%
X94520000Y-37770000D02*
X97480000Y-37770000D01*
X97480000Y-39230000D01*
X94520000Y-39230000D01*
X94520000Y-37770000D01*
%TO.C,R402*%
X36770000Y-32770000D02*
X38230000Y-32770000D01*
X38230000Y-35730000D01*
X36770000Y-35730000D01*
X36770000Y-32770000D01*
%TO.C,R208*%
X33770000Y-27020000D02*
X36730000Y-27020000D01*
X36730000Y-28480000D01*
X33770000Y-28480000D01*
X33770000Y-27020000D01*
%TO.C,C305*%
X37270000Y-65770000D02*
X40230000Y-65770000D01*
X40230000Y-67230000D01*
X37270000Y-67230000D01*
X37270000Y-65770000D01*
%TO.C,D101*%
X96770000Y-63770000D02*
X99730000Y-63770000D01*
X99730000Y-65230000D01*
X96770000Y-65230000D01*
X96770000Y-63770000D01*
%TO.C,X401*%
X38900000Y-31250000D02*
X43100000Y-31250000D01*
X43100000Y-34750000D01*
X38900000Y-34750000D01*
X38900000Y-31250000D01*
%TO.C,C604*%
X78520000Y-78520000D02*
X81480000Y-78520000D01*
X81480000Y-79980000D01*
X78520000Y-79980000D01*
X78520000Y-78520000D01*
%TO.C,RN406*%
X56700000Y-52900000D02*
X56700000Y-56600000D01*
X56700000Y-52900000D02*
X59800000Y-52900000D01*
X59800000Y-56600000D02*
X56700000Y-56600000D01*
X59800000Y-56600000D02*
X59800000Y-52900000D01*
%TO.C,D501*%
X60770000Y-27020000D02*
X62230000Y-27020000D01*
X62230000Y-29980000D01*
X60770000Y-29980000D01*
X60770000Y-27020000D01*
%TO.C,C512*%
X72020000Y-55520000D02*
X74980000Y-55520000D01*
X74980000Y-56980000D01*
X72020000Y-56980000D01*
X72020000Y-55520000D01*
%TO.C,C416*%
X41770000Y-29020000D02*
X44730000Y-29020000D01*
X44730000Y-30480000D01*
X41770000Y-30480000D01*
X41770000Y-29020000D01*
%TO.C,R103*%
X24020000Y-46020000D02*
X26980000Y-46020000D01*
X26980000Y-47480000D01*
X24020000Y-47480000D01*
X24020000Y-46020000D01*
%TO.C,R308*%
X33770000Y-68020000D02*
X36730000Y-68020000D01*
X36730000Y-69480000D01*
X33770000Y-69480000D01*
X33770000Y-68020000D01*
%TO.C,C306*%
X33020000Y-65770000D02*
X35980000Y-65770000D01*
X35980000Y-67230000D01*
X33020000Y-67230000D01*
X33020000Y-65770000D01*
%TO.C,C713*%
X94520000Y-17020000D02*
X97480000Y-17020000D01*
X97480000Y-18480000D01*
X94520000Y-18480000D01*
X94520000Y-17020000D01*
%TO.C,R309*%
X38020000Y-68520000D02*
X40980000Y-68520000D01*
X40980000Y-69980000D01*
X38020000Y-69980000D01*
X38020000Y-68520000D01*
%TO.C,RN403*%
X46200000Y-25900000D02*
X46200000Y-29600000D01*
X46200000Y-25900000D02*
X49300000Y-25900000D01*
X49300000Y-29600000D02*
X46200000Y-29600000D01*
X49300000Y-29600000D02*
X49300000Y-25900000D01*
%TO.C,C717*%
X101520000Y-15020000D02*
X104480000Y-15020000D01*
X104480000Y-16480000D01*
X101520000Y-16480000D01*
X101520000Y-15020000D01*
%TO.C,R702*%
X108020000Y-13520000D02*
X110980000Y-13520000D01*
X110980000Y-14980000D01*
X108020000Y-14980000D01*
X108020000Y-13520000D01*
%TO.C,C508*%
X83270000Y-25270000D02*
X86230000Y-25270000D01*
X86230000Y-26730000D01*
X83270000Y-26730000D01*
X83270000Y-25270000D01*
%TO.C,C406*%
X51770000Y-49520000D02*
X54730000Y-49520000D01*
X54730000Y-50980000D01*
X51770000Y-50980000D01*
X51770000Y-49520000D01*
%TO.C,R601*%
X78770000Y-60020000D02*
X81730000Y-60020000D01*
X81730000Y-61480000D01*
X78770000Y-61480000D01*
X78770000Y-60020000D01*
%TO.C,R104*%
X21770000Y-46020000D02*
X23230000Y-46020000D01*
X23230000Y-48980000D01*
X21770000Y-48980000D01*
X21770000Y-46020000D01*
%TO.C,C108*%
X19520000Y-43020000D02*
X20980000Y-43020000D01*
X20980000Y-45980000D01*
X19520000Y-45980000D01*
X19520000Y-43020000D01*
%TO.C,C412*%
X35020000Y-46520000D02*
X36480000Y-46520000D01*
X36480000Y-49480000D01*
X35020000Y-49480000D01*
X35020000Y-46520000D01*
%TO.C,D301*%
X34070000Y-53250000D02*
X35100000Y-53250000D01*
X34070000Y-54360000D02*
X34070000Y-53250000D01*
X34070000Y-55140000D02*
X35100000Y-55140000D01*
X34070000Y-56250000D02*
X34070000Y-55140000D01*
X35100000Y-53050000D02*
X36900000Y-53050000D01*
X35100000Y-53250000D02*
X35100000Y-53050000D01*
X35100000Y-54360000D02*
X34070000Y-54360000D01*
X35100000Y-55140000D02*
X35100000Y-54360000D01*
X35100000Y-56250000D02*
X34070000Y-56250000D01*
X35100000Y-56450000D02*
X35100000Y-56250000D01*
X36900000Y-53050000D02*
X36900000Y-54200000D01*
X36900000Y-54200000D02*
X37930000Y-54200000D01*
X36900000Y-55300000D02*
X36900000Y-56450000D01*
X36900000Y-56450000D02*
X35100000Y-56450000D01*
X37930000Y-54200000D02*
X37930000Y-55300000D01*
X37930000Y-55300000D02*
X36900000Y-55300000D01*
%TO.C,C522*%
X63270000Y-27270000D02*
X64730000Y-27270000D01*
X64730000Y-30230000D01*
X63270000Y-30230000D01*
X63270000Y-27270000D01*
%TO.C,C201*%
X16520000Y-20520000D02*
X17980000Y-20520000D01*
X17980000Y-23480000D01*
X16520000Y-23480000D01*
X16520000Y-20520000D01*
%TO.C,R204*%
X40270000Y-19520000D02*
X41730000Y-19520000D01*
X41730000Y-22480000D01*
X40270000Y-22480000D01*
X40270000Y-19520000D01*
%TO.C,C606*%
X74770000Y-60020000D02*
X77730000Y-60020000D01*
X77730000Y-61480000D01*
X74770000Y-61480000D01*
X74770000Y-60020000D01*
%TO.C,U103*%
X33950000Y-41000000D02*
X34950000Y-41000000D01*
X33950000Y-44000000D02*
X33950000Y-41000000D01*
X34950000Y-40800000D02*
X37050000Y-40800000D01*
X34950000Y-41000000D02*
X34950000Y-40800000D01*
X34950000Y-44000000D02*
X33950000Y-44000000D01*
X34950000Y-44200000D02*
X34950000Y-44000000D01*
X37050000Y-40800000D02*
X37050000Y-41000000D01*
X37050000Y-41000000D02*
X38050000Y-41000000D01*
X37050000Y-42110000D02*
X37050000Y-42890000D01*
X37050000Y-42890000D02*
X38050000Y-42890000D01*
X37050000Y-44000000D02*
X37050000Y-44200000D01*
X37050000Y-44200000D02*
X34950000Y-44200000D01*
X38050000Y-41000000D02*
X38050000Y-42110000D01*
X38050000Y-42110000D02*
X37050000Y-42110000D01*
X38050000Y-42890000D02*
X38050000Y-44000000D01*
X38050000Y-44000000D02*
X37050000Y-44000000D01*
%TO.C,C704*%
X112020000Y-28270000D02*
X113480000Y-28270000D01*
X113480000Y-31230000D01*
X112020000Y-31230000D01*
X112020000Y-28270000D01*
%TO.C,FB701*%
X96150000Y-49500000D02*
X97850000Y-49500000D01*
X97850000Y-53000000D01*
X96150000Y-53000000D01*
X96150000Y-49500000D01*
%TO.C,FB702*%
X111770000Y-12770000D02*
X113230000Y-12770000D01*
X113230000Y-15730000D01*
X111770000Y-15730000D01*
X111770000Y-12770000D01*
%TO.C,C602*%
X70520000Y-78520000D02*
X73480000Y-78520000D01*
X73480000Y-79980000D01*
X70520000Y-79980000D01*
X70520000Y-78520000D01*
%TO.C,C518*%
X76300000Y-22020000D02*
X79700000Y-22020000D01*
X79700000Y-23980000D01*
X76300000Y-23980000D01*
X76300000Y-22020000D01*
%TO.C,C605*%
X91270000Y-74270000D02*
X92730000Y-74270000D01*
X92730000Y-77230000D01*
X91270000Y-77230000D01*
X91270000Y-74270000D01*
%TO.C,C505*%
X63270000Y-44020000D02*
X64730000Y-44020000D01*
X64730000Y-46980000D01*
X63270000Y-46980000D01*
X63270000Y-44020000D01*
%TO.C,C517*%
X91270000Y-29020000D02*
X92730000Y-29020000D01*
X92730000Y-31980000D01*
X91270000Y-31980000D01*
X91270000Y-29020000D01*
%TO.C,C110*%
X96770000Y-68770000D02*
X98230000Y-68770000D01*
X98230000Y-71730000D01*
X96770000Y-71730000D01*
X96770000Y-68770000D01*
%TO.C,C413*%
X40770000Y-53020000D02*
X43730000Y-53020000D01*
X43730000Y-54480000D01*
X40770000Y-54480000D01*
X40770000Y-53020000D01*
%TO.C,C103*%
X99020000Y-68550000D02*
X100980000Y-68550000D01*
X100980000Y-71950000D01*
X99020000Y-71950000D01*
X99020000Y-68550000D01*
%TO.C,J501*%
X64230000Y-1680000D02*
X77930000Y-1680000D01*
X77930000Y-7770000D01*
X64230000Y-7770000D01*
X64230000Y-1680000D01*
%TO.C,R307*%
X37770000Y-57520000D02*
X39230000Y-57520000D01*
X39230000Y-60480000D01*
X37770000Y-60480000D01*
X37770000Y-57520000D01*
%TO.C,U501*%
X66350000Y-30850000D02*
X67750000Y-30850000D01*
X66350000Y-49150000D02*
X66350000Y-30850000D01*
X67750000Y-29750000D02*
X68850000Y-29750000D01*
X67750000Y-30850000D02*
X67750000Y-29750000D01*
X67750000Y-49150000D02*
X66350000Y-49150000D01*
X67750000Y-50250000D02*
X67750000Y-49150000D01*
X68850000Y-28350000D02*
X87150000Y-28350000D01*
X68850000Y-29750000D02*
X68850000Y-28350000D01*
X68850000Y-50250000D02*
X67750000Y-50250000D01*
X68850000Y-51650000D02*
X68850000Y-50250000D01*
X87150000Y-28350000D02*
X87150000Y-29750000D01*
X87150000Y-29750000D02*
X88250000Y-29750000D01*
X87150000Y-50250000D02*
X87150000Y-51650000D01*
X87150000Y-51650000D02*
X68850000Y-51650000D01*
X88250000Y-29750000D02*
X88250000Y-30850000D01*
X88250000Y-30850000D02*
X89650000Y-30850000D01*
X88250000Y-49150000D02*
X88250000Y-50250000D01*
X88250000Y-50250000D02*
X87150000Y-50250000D01*
X89650000Y-30850000D02*
X89650000Y-49150000D01*
X89650000Y-49150000D02*
X88250000Y-49150000D01*
%TO.C,C408*%
X44270000Y-34020000D02*
X47230000Y-34020000D01*
X47230000Y-35480000D01*
X44270000Y-35480000D01*
X44270000Y-34020000D01*
%TO.C,C503*%
X76300000Y-24770000D02*
X79700000Y-24770000D01*
X79700000Y-26730000D01*
X76300000Y-26730000D01*
X76300000Y-24770000D01*
%TO.C,C207*%
X30770000Y-24520000D02*
X32230000Y-24520000D01*
X32230000Y-27480000D01*
X30770000Y-27480000D01*
X30770000Y-24520000D01*
%TO.C,C404*%
X41270000Y-49270000D02*
X42730000Y-49270000D01*
X42730000Y-52230000D01*
X41270000Y-52230000D01*
X41270000Y-49270000D01*
%TO.C,C709*%
X91270000Y-19270000D02*
X92730000Y-19270000D01*
X92730000Y-22230000D01*
X91270000Y-22230000D01*
X91270000Y-19270000D01*
%TO.C,R506*%
X68770000Y-24770000D02*
X71730000Y-24770000D01*
X71730000Y-26230000D01*
X68770000Y-26230000D01*
X68770000Y-24770000D01*
%TO.C,R205*%
X31520000Y-15520000D02*
X34480000Y-15520000D01*
X34480000Y-16980000D01*
X31520000Y-16980000D01*
X31520000Y-15520000D01*
%TO.C,C502*%
X80270000Y-53520000D02*
X83230000Y-53520000D01*
X83230000Y-54980000D01*
X80270000Y-54980000D01*
X80270000Y-53520000D01*
%TO.C,C304*%
X35270000Y-57270000D02*
X36730000Y-57270000D01*
X36730000Y-60230000D01*
X35270000Y-60230000D01*
X35270000Y-57270000D01*
%TO.C,C603*%
X74520000Y-78520000D02*
X77480000Y-78520000D01*
X77480000Y-79980000D01*
X74520000Y-79980000D01*
X74520000Y-78520000D01*
%TO.C,C205*%
X37270000Y-24770000D02*
X40230000Y-24770000D01*
X40230000Y-26230000D01*
X37270000Y-26230000D01*
X37270000Y-24770000D01*
%TO.C,C411*%
X38520000Y-49020000D02*
X39980000Y-49020000D01*
X39980000Y-51980000D01*
X38520000Y-51980000D01*
X38520000Y-49020000D01*
%TO.C,C405*%
X45050000Y-51520000D02*
X48450000Y-51520000D01*
X48450000Y-53480000D01*
X45050000Y-53480000D01*
X45050000Y-51520000D01*
%TO.C,U104*%
X22550000Y-40750000D02*
X25450000Y-40750000D01*
X22550000Y-44250000D02*
X22550000Y-40750000D01*
X25450000Y-40750000D02*
X25450000Y-44250000D01*
X25450000Y-44250000D02*
X22550000Y-44250000D01*
%TO.C,C210*%
X39770000Y-41520000D02*
X41230000Y-41520000D01*
X41230000Y-44480000D01*
X39770000Y-44480000D01*
X39770000Y-41520000D01*
%TO.C,C701*%
X109270000Y-29050000D02*
X111230000Y-29050000D01*
X111230000Y-32450000D01*
X109270000Y-32450000D01*
X109270000Y-29050000D01*
%TO.C,C515*%
X91270000Y-41520000D02*
X92730000Y-41520000D01*
X92730000Y-44480000D01*
X91270000Y-44480000D01*
X91270000Y-41520000D01*
%TO.C,R206*%
X41270000Y-23770000D02*
X42730000Y-23770000D01*
X42730000Y-26730000D01*
X41270000Y-26730000D01*
X41270000Y-23770000D01*
%TO.C,U702*%
X94300000Y-22850000D02*
X95750000Y-22850000D01*
X94300000Y-31150000D02*
X94300000Y-22850000D01*
X95750000Y-21750000D02*
X96850000Y-21750000D01*
X95750000Y-22850000D02*
X95750000Y-21750000D01*
X95750000Y-31150000D02*
X94300000Y-31150000D01*
X95750000Y-32250000D02*
X95750000Y-31150000D01*
X96850000Y-20300000D02*
X105150000Y-20300000D01*
X96850000Y-21750000D02*
X96850000Y-20300000D01*
X96850000Y-32250000D02*
X95750000Y-32250000D01*
X96850000Y-33700000D02*
X96850000Y-32250000D01*
X105150000Y-20300000D02*
X105150000Y-21750000D01*
X105150000Y-21750000D02*
X106250000Y-21750000D01*
X105150000Y-32250000D02*
X105150000Y-33700000D01*
X105150000Y-33700000D02*
X96850000Y-33700000D01*
X106250000Y-21750000D02*
X106250000Y-22850000D01*
X106250000Y-22850000D02*
X107700000Y-22850000D01*
X106250000Y-31150000D02*
X106250000Y-32250000D01*
X106250000Y-32250000D02*
X105150000Y-32250000D01*
X107700000Y-22850000D02*
X107700000Y-31150000D01*
X107700000Y-31150000D02*
X106250000Y-31150000D01*
%TO.C,J201*%
X-21100000Y-14150000D02*
X-21100000Y-29850000D01*
X15400000Y-14150000D02*
X-21100000Y-14150000D01*
X15400000Y-29850000D02*
X-21100000Y-29850000D01*
X15400000Y-29850000D02*
X15400000Y-14150000D01*
%TO.C,C307*%
X30770000Y-65520000D02*
X32230000Y-65520000D01*
X32230000Y-68480000D01*
X30770000Y-68480000D01*
X30770000Y-65520000D01*
%TO.C,U301*%
X23950000Y-67500000D02*
X24950000Y-67500000D01*
X23950000Y-70500000D02*
X23950000Y-67500000D01*
X24950000Y-67300000D02*
X27050000Y-67300000D01*
X24950000Y-67500000D02*
X24950000Y-67300000D01*
X24950000Y-70500000D02*
X23950000Y-70500000D01*
X24950000Y-70700000D02*
X24950000Y-70500000D01*
X27050000Y-67300000D02*
X27050000Y-67500000D01*
X27050000Y-67500000D02*
X28050000Y-67500000D01*
X27050000Y-68610000D02*
X27050000Y-69390000D01*
X27050000Y-69390000D02*
X28050000Y-69390000D01*
X27050000Y-70500000D02*
X27050000Y-70700000D01*
X27050000Y-70700000D02*
X24950000Y-70700000D01*
X28050000Y-67500000D02*
X28050000Y-68610000D01*
X28050000Y-68610000D02*
X27050000Y-68610000D01*
X28050000Y-69390000D02*
X28050000Y-70500000D01*
X28050000Y-70500000D02*
X27050000Y-70500000D01*
%TO.C,R305*%
X30520000Y-56520000D02*
X33480000Y-56520000D01*
X33480000Y-57980000D01*
X30520000Y-57980000D01*
X30520000Y-56520000D01*
%TO.C,C102*%
X106770000Y-67300000D02*
X108730000Y-67300000D01*
X108730000Y-70700000D01*
X106770000Y-70700000D01*
X106770000Y-67300000D01*
%TD*%
M02*
