M48
; DRILL file KiCad 10.0.4 date 2026-10-10T10:35:38
; FORMAT={-:-/ absolute / metric / decimal}
; #@! TF.CreationDate,2026-10-10T10:35:38-04:00
; #@! TF.GenerationSoftware,Kicad,Pcbnew,10.0.4
; #@! TF.FileFunction,MixedPlating,1,4
FMAT,2
METRIC
; #@! TA.AperFunction,Plated,PTH,ViaDrill
T1C0.200
; #@! TA.AperFunction,Plated,PTH,ViaDrill
T2C0.300
; #@! TA.AperFunction,Plated,PTH,ComponentDrill
T3C0.300
; #@! TA.AperFunction,Plated,PTH,ComponentDrill
T4C0.890
; #@! TA.AperFunction,Plated,PTH,ComponentDrill
T5C0.920
; #@! TA.AperFunction,Plated,PTH,ComponentDrill
T6C1.000
; #@! TA.AperFunction,Plated,PTH,ComponentDrill
T7C2.010
; #@! TA.AperFunction,Plated,PTH,ComponentDrill
T8C2.330
%
G90
G05
T1
X20.25Y-42.9
X21.15Y-41.175
X22.425Y-42.75
X22.5Y-45.9
X23.912Y-71.337
X23.95Y-40.175
X24.0Y-44.2
X25.35Y-38.25
X25.35Y-41.725
X25.5Y-19.388
X28.318Y-17.27
X29.0Y-21.9
X29.0Y-59.15
X29.0Y-62.9
X29.667Y-18.25
X29.75Y-16.65
X30.4Y-57.25
X31.25Y-20.65
X31.25Y-61.65
X31.4Y-16.25
X31.5Y-24.4
X31.5Y-65.4
X31.528Y-69.95
X32.639Y-47.825
X32.687Y-62.025
X33.75Y-65.63
X33.795Y-57.475
X33.825Y-42.5
X34.089Y-24.54
X34.6Y-18.75
X34.6Y-59.75
X34.911Y-58.823
X34.928Y-46.492
X35.123Y-21.787
X35.352Y-23.232
X35.5Y-36.65
X35.75Y-46.4
X36.0Y-19.35
X36.0Y-60.35
X36.23Y-63.975
X36.75Y-48.775
X36.861Y-27.75
X37.149Y-68.665
X37.27Y-55.435
X37.393Y-20.388
X37.5Y-32.65
X37.616Y-58.434
X38.0Y-36.65
X38.0Y-45.15
X38.862Y-38.041
X39.082Y-70.174
X39.3Y-22.325
X39.3Y-63.325
X39.379Y-47.525
X39.45Y-42.938
X39.462Y-21.703
X39.853Y-44.698
X39.892Y-29.123
X40.19Y-68.379
X40.231Y-62.286
X40.328Y-50.783
X40.5Y-37.65
X40.5Y-41.4
X40.5Y-45.15
X40.94Y-32.854
X41.354Y-43.775
X41.402Y-39.929
X41.806Y-40.735
X42.0Y-49.15
X42.347Y-39.25
X42.619Y-44.222
X42.73Y-45.75
X42.74Y-40.39
X43.075Y-33.825
X43.232Y-50.346
X43.85Y-53.75
X44.142Y-35.075
X44.25Y-37.25
X44.25Y-47.75
X44.265Y-35.715
X44.85Y-29.75
X45.592Y-48.443
X45.915Y-37.241
X45.957Y-40.457
X45.957Y-42.5
X45.957Y-44.543
X46.054Y-27.35
X46.064Y-28.95
X46.549Y-25.916
X46.6Y-50.0
X46.75Y-36.8
X46.75Y-47.75
X47.1Y-32.5
X47.25Y-37.25
X47.25Y-48.2
X47.63Y-28.15
X48.0Y-40.457
X48.0Y-42.5
X48.0Y-44.543
X48.25Y-37.223
X48.384Y-36.618
X48.5Y-30.15
X48.575Y-52.5
X49.149Y-47.773
X49.25Y-37.235
X49.401Y-53.284
X49.75Y-36.857
X49.75Y-48.112
X50.0Y-51.65
X50.043Y-40.457
X50.043Y-42.5
X50.043Y-44.543
X50.25Y-36.501
X50.25Y-47.759
X50.35Y-50.0
X50.358Y-48.597
X50.656Y-53.224
X50.75Y-36.875
X50.825Y-31.95
X50.989Y-36.033
X51.25Y-37.25
X51.25Y-47.75
X51.341Y-48.637
X51.472Y-52.61
X52.005Y-53.507
X52.285Y-27.813
X52.359Y-54.927
X52.399Y-46.933
X53.1Y-35.0
X53.201Y-51.123
X53.506Y-43.19
X53.562Y-37.653
X53.592Y-39.891
X53.635Y-43.792
X53.682Y-38.809
X54.036Y-44.865
X54.036Y-46.321
X54.102Y-40.398
X54.255Y-43.961
X54.265Y-35.66
X54.338Y-48.326
X54.365Y-51.311
X54.575Y-45.402
X54.638Y-44.781
X54.644Y-41.88
X54.768Y-40.858
X54.85Y-50.25
X54.903Y-55.095
X55.077Y-28.95
X55.094Y-47.077
X55.312Y-48.784
X55.389Y-49.882
X55.431Y-53.067
X55.506Y-51.723
X55.576Y-26.55
X55.595Y-50.973
X55.617Y-27.35
X55.75Y-45.4
X56.093Y-48.737
X56.27Y-55.15
X56.287Y-44.12
X56.33Y-42.4
X56.355Y-43.2
X56.374Y-51.654
X56.429Y-55.95
X56.47Y-41.453
X56.573Y-54.35
X56.832Y-52.588
X57.05Y-49.062
X57.068Y-46.9
X57.223Y-44.735
X57.353Y-31.884
X58.187Y-49.069
X58.37Y-54.35
X58.873Y-46.1
X59.827Y-35.994
X59.933Y-55.95
X60.189Y-43.2
X60.217Y-49.689
X60.295Y-50.477
X60.428Y-51.45
X60.482Y-45.095
X60.549Y-55.15
X60.63Y-47.511
X60.741Y-49.223
X60.9Y-25.5
X61.192Y-44.616
X61.238Y-40.303
X61.5Y-30.1
X61.75Y-34.15
X62.373Y-27.712
X62.566Y-35.75
X62.791Y-43.13
X63.262Y-38.212
X63.417Y-52.98
X63.75Y-39.675
X64.0Y-27.15
X64.0Y-33.4
X64.0Y-43.9
X64.0Y-74.425
X64.376Y-39.314
X64.6Y-48.5
X64.805Y-38.678
X64.85Y-31.75
X64.988Y-37.446
X65.017Y-36.75
X65.032Y-36.126
X65.047Y-39.312
X65.176Y-41.686
X65.216Y-47.22
X65.404Y-46.25
X65.444Y-39.767
X65.548Y-22.545
X65.608Y-45.163
X65.775Y-37.75
X65.862Y-32.75
X65.961Y-31.25
X66.093Y-46.75
X66.152Y-39.081
X66.199Y-41.683
X66.205Y-35.25
X66.208Y-34.389
X66.213Y-45.25
X66.215Y-43.75
X66.218Y-32.25
X66.225Y-33.25
X66.225Y-37.25
X66.996Y-64.25
X68.104Y-49.58
X68.283Y-29.404
X68.4Y-74.602
X68.453Y-42.228
X68.459Y-41.318
X68.46Y-31.75
X68.468Y-43.25
X68.539Y-62.79
X68.544Y-35.75
X68.718Y-50.131
X69.2Y-63.12
X69.35Y-28.217
X69.528Y-47.25
X69.766Y-46.345
X69.85Y-79.25
X70.0Y-63.107
X70.012Y-41.246
X70.017Y-76.887
X70.025Y-28.218
X70.318Y-26.495
X70.75Y-30.466
X70.8Y-63.113
X70.8Y-74.602
X70.861Y-24.621
X71.087Y-49.519
X71.25Y-28.225
X71.405Y-27.613
X71.537Y-52.177
X71.6Y-74.62
X71.75Y-30.453
X72.25Y-51.808
X72.4Y-63.096
X72.4Y-74.606
X72.424Y-30.462
X72.827Y-49.508
X73.1Y-60.75
X73.196Y-27.419
X73.2Y-74.609
X73.245Y-52.576
X73.25Y-28.218
X73.296Y-63.107
X73.6Y-79.25
X73.85Y-54.0
X73.904Y-59.644
X73.968Y-28.206
X74.0Y-63.12
X74.533Y-53.186
X74.8Y-63.111
X74.8Y-74.617
X74.862Y-48.864
X74.893Y-51.782
X75.1Y-56.25
X75.25Y-28.225
X75.295Y-59.192
X75.469Y-62.49
X75.6Y-23.5
X75.6Y-26.0
X75.6Y-63.103
X76.043Y-51.787
X76.044Y-71.453
X76.223Y-70.364
X76.4Y-76.88
X76.75Y-30.473
X76.87Y-28.22
X77.25Y-51.775
X77.315Y-63.113
X77.6Y-79.25
X77.75Y-28.225
X77.85Y-60.75
X78.0Y-63.12
X78.649Y-51.779
X78.663Y-48.909
X78.75Y-28.198
X79.103Y-74.37
X79.283Y-76.883
X79.325Y-54.25
X79.367Y-59.893
X79.825Y-23.0
X79.825Y-25.75
X79.838Y-65.384
X80.25Y-51.775
X80.347Y-52.396
X80.4Y-76.883
X80.451Y-30.46
X80.607Y-74.435
X80.643Y-73.19
X80.739Y-55.329
X80.798Y-23.357
X80.97Y-49.141
X81.042Y-28.091
X81.051Y-48.282
X81.101Y-30.462
X81.108Y-76.887
X81.112Y-72.239
X81.2Y-63.109
X81.35Y-56.75
X81.593Y-62.061
X81.6Y-79.25
X81.617Y-53.176
X81.641Y-70.88
X81.651Y-28.22
X81.75Y-30.457
X82.0Y-74.609
X82.202Y-71.633
X82.218Y-49.522
X82.415Y-69.912
X82.75Y-30.456
X82.8Y-74.61
X82.848Y-49.544
X82.886Y-61.941
X83.141Y-68.108
X83.184Y-27.831
X83.206Y-49.014
X83.219Y-43.628
X83.247Y-42.991
X83.328Y-52.55
X83.35Y-54.25
X83.6Y-74.61
X83.629Y-57.411
X83.763Y-67.7
X83.765Y-49.545
X83.767Y-44.393
X83.787Y-41.377
X83.791Y-42.013
X83.967Y-63.104
X84.137Y-27.925
X84.226Y-22.722
X84.265Y-36.75
X84.288Y-37.365
X84.495Y-70.971
X84.519Y-51.784
X84.628Y-70.364
X84.788Y-30.469
X85.046Y-74.615
X85.173Y-30.962
X85.25Y-51.775
X85.325Y-37.75
X85.439Y-61.362
X85.533Y-61.964
X85.563Y-55.031
X85.641Y-23.492
X85.879Y-45.782
X86.022Y-49.543
X86.065Y-23.927
X86.35Y-26.0
X86.494Y-45.83
X86.524Y-25.177
X86.566Y-63.11
X86.8Y-74.606
X86.883Y-27.773
X86.971Y-27.167
X86.974Y-30.925
X87.167Y-62.952
X87.456Y-23.476
X87.539Y-45.837
X87.546Y-45.185
X87.6Y-74.616
X88.128Y-49.284
X88.765Y-52.527
X89.004Y-64.25
X89.348Y-49.281
X89.775Y-33.75
X89.775Y-42.25
X89.782Y-44.814
X89.785Y-43.25
X89.85Y-54.0
X90.924Y-49.917
X92.0Y-19.15
X92.0Y-28.9
X92.0Y-32.9
X92.0Y-41.4
X92.0Y-74.15
X92.075Y-25.825
X92.22Y-59.315
X92.225Y-61.905
X92.25Y-37.65
X92.609Y-22.286
X93.118Y-51.573
X93.443Y-29.25
X93.489Y-55.513
X93.814Y-29.75
X94.159Y-26.752
X94.17Y-28.25
X94.175Y-24.25
X94.175Y-30.25
X94.645Y-21.325
X95.075Y-19.062
X95.818Y-10.402
X96.6Y-36.25
X96.65Y-64.5
X96.759Y-26.292
X96.837Y-27.195
X96.981Y-12.228
X97.5Y-68.65
X97.6Y-17.75
X97.6Y-38.5
X97.869Y-14.894
X98.25Y-22.805
X98.25Y-33.825
X98.484Y-61.555
X98.485Y-41.377
X98.75Y-20.164
X99.25Y-22.486
X99.378Y-23.793
X99.383Y-60.903
X100.0Y-68.425
X100.25Y-22.49
X100.35Y-36.0
X100.35Y-67.0
X100.75Y-20.175
X100.825Y-14.905
X101.141Y-22.994
X101.35Y-73.5
X101.6Y-38.25
X101.691Y-22.494
X101.802Y-23.61
X101.825Y-70.0
X101.825Y-78.0
X101.85Y-18.0
X102.067Y-19.793
X103.035Y-23.25
X103.053Y-33.831
X103.23Y-22.48
X103.331Y-37.473
X103.331Y-39.641
X103.75Y-31.142
X103.962Y-19.904
X104.25Y-31.5
X104.575Y-66.5
X104.6Y-15.75
X104.85Y-36.0
X105.054Y-27.956
X105.1Y-73.25
X105.293Y-21.325
X105.3Y-27.283
X105.35Y-38.5
X105.512Y-24.25
X105.825Y-38.0
X106.0Y-13.4
X106.35Y-18.0
X106.5Y-72.4
X107.484Y-14.225
X107.75Y-67.175
X107.825Y-19.15
X107.825Y-23.75
X107.825Y-24.75
X107.825Y-26.25
X107.825Y-28.75
X107.825Y-30.75
X107.84Y-29.525
X108.223Y-28.287
X108.275Y-25.75
X108.636Y-17.365
X108.85Y-65.75
X109.577Y-28.383
X110.25Y-25.15
X110.25Y-28.925
X111.1Y-16.5
X111.5Y-35.65
X112.175Y-20.85
X112.35Y-23.75
X112.6Y-34.25
X112.75Y-28.15
T2
X21.342Y-41.84
X23.591Y-45.504
X23.791Y-17.395
X25.846Y-40.949
X26.228Y-43.043
X26.993Y-31.835
X29.966Y-23.809
X32.211Y-62.845
X32.447Y-55.516
X36.12Y-23.538
X39.746Y-37.229
X42.63Y-43.225
X44.711Y-36.705
X54.613Y-38.825
X68.775Y-51.8
X69.541Y-32.116
X70.142Y-45.393
X76.484Y-26.94
X77.357Y-55.442
X77.752Y-21.933
X78.155Y-49.442
X78.25Y-30.563
X85.75Y-31.378
X86.695Y-40.675
X88.149Y-29.199
X90.602Y-39.394
X96.978Y-24.089
X97.306Y-51.084
X99.402Y-24.588
X101.21Y-71.2
X102.916Y-67.988
X104.201Y-23.001
X105.112Y-25.364
X105.137Y-77.828
X105.418Y-26.543
X109.107Y-27.709
X109.199Y-32.408
X109.251Y-24.474
X111.729Y-14.152
T3
X24.0Y-41.5
X24.0Y-42.5
X24.0Y-43.5
T4
X12.7Y-22.0
X12.7Y-24.54
X12.7Y-63.0
X12.7Y-65.54
T5
X100.5Y-47.0
X100.5Y-49.5
X102.5Y-47.0
X102.5Y-49.5
T6
X66.0Y-3.46
X66.0Y-6.0
X68.54Y-3.46
X68.54Y-6.0
X71.08Y-3.46
X71.08Y-6.0
X73.62Y-3.46
X73.62Y-6.0
X76.16Y-3.46
X76.16Y-6.0
T7
X7.62Y-16.92
X7.62Y-27.08
X7.62Y-57.92
X7.62Y-68.08
T8
X105.21Y-42.23
X105.21Y-54.27
M30
