M48
; DRILL file KiCad 10.0.4 date 2026-10-09T08:21:26
; FORMAT={-:-/ absolute / metric / decimal}
; #@! TF.CreationDate,2026-10-09T08:21:26-04:00
; #@! TF.GenerationSoftware,Kicad,Pcbnew,10.0.4
; #@! TF.FileFunction,Plated,1,4,PTH
FMAT,2
METRIC
; #@! TA.AperFunction,Plated,PTH,ViaDrill
T1C0.300
; #@! TA.AperFunction,Plated,PTH,ComponentDrill
T2C0.300
; #@! TA.AperFunction,Plated,PTH,ComponentDrill
T3C0.890
; #@! TA.AperFunction,Plated,PTH,ComponentDrill
T4C0.920
; #@! TA.AperFunction,Plated,PTH,ComponentDrill
T5C1.000
; #@! TA.AperFunction,Plated,PTH,ComponentDrill
T6C2.010
; #@! TA.AperFunction,Plated,PTH,ComponentDrill
T7C2.330
%
G90
G05
T1
X77.0Y-71.075
X77.0Y-113.075
X79.0Y-71.075
X79.0Y-113.075
X80.5Y-87.075
X81.04Y-115.038
X82.925Y-93.225
X83.2Y-78.0
X83.2Y-120.0
X83.244Y-94.197
X83.292Y-91.25
X83.306Y-97.5
X83.443Y-112.635
X84.295Y-94.775
X84.741Y-88.838
X84.839Y-105.853
X85.121Y-111.365
X86.072Y-69.365
X86.66Y-92.254
X86.925Y-97.5
X87.691Y-91.902
X88.207Y-74.366
X88.646Y-115.623
X88.959Y-91.316
X88.96Y-76.5
X88.96Y-118.5
X88.972Y-110.026
X89.062Y-68.044
X89.078Y-97.923
X89.112Y-73.157
X89.885Y-88.4
X89.96Y-66.5
X89.96Y-108.5
X90.04Y-115.87
X90.98Y-89.3
X90.98Y-96.5
X93.425Y-65.5
X93.425Y-76.5
X93.425Y-107.5
X93.425Y-118.5
X93.5Y-86.075
X93.5Y-93.075
X93.92Y-69.174
X95.075Y-71.5
X95.075Y-113.5
X96.297Y-115.676
X97.5Y-88.0
X98.925Y-84.5
X99.526Y-69.675
X100.598Y-112.975
X101.92Y-71.686
X101.925Y-76.5
X101.925Y-118.5
X101.96Y-64.0
X101.96Y-106.0
X102.482Y-109.438
X102.797Y-86.679
X103.18Y-111.163
X103.227Y-66.954
X103.301Y-98.376
X104.425Y-84.5
X106.725Y-99.1
X106.752Y-93.192
X107.625Y-70.325
X107.625Y-112.325
X109.526Y-90.1
X109.76Y-91.9
X109.76Y-93.7
X109.76Y-100.1
X110.225Y-86.5
X110.404Y-97.775
X110.422Y-101.308
X110.483Y-85.241
X110.586Y-91.096
X110.664Y-90.25
X110.669Y-87.75
X110.929Y-72.449
X111.022Y-69.926
X111.051Y-109.558
X111.498Y-96.121
X111.521Y-95.359
X111.76Y-98.6
X112.25Y-85.425
X112.25Y-96.575
X112.5Y-110.307
X113.1Y-96.328
X113.46Y-82.0
X113.617Y-88.617
X113.617Y-91.0
X113.617Y-93.383
X113.75Y-85.041
X114.01Y-98.278
X114.358Y-85.664
X114.48Y-101.3
X114.913Y-83.294
X115.0Y-54.075
X115.231Y-96.965
X115.46Y-82.0
X115.478Y-85.649
X115.763Y-98.044
X116.0Y-57.575
X116.0Y-88.617
X116.0Y-91.0
X116.0Y-93.383
X116.761Y-96.329
X117.06Y-83.55
X117.248Y-97.229
X117.46Y-82.0
X118.326Y-96.733
X118.383Y-88.617
X118.383Y-91.0
X118.383Y-93.383
X118.483Y-83.678
X118.553Y-97.634
X118.77Y-85.664
X119.004Y-96.346
X119.46Y-82.0
X119.5Y-101.95
X120.276Y-85.861
X121.0Y-99.04
X121.298Y-95.213
X121.46Y-82.0
X121.48Y-89.402
X121.578Y-102.723
X122.052Y-88.838
X122.284Y-82.208
X122.557Y-84.015
X122.771Y-90.175
X122.904Y-94.382
X122.983Y-89.182
X123.46Y-82.5
X123.579Y-84.198
X123.85Y-108.5
X123.961Y-85.794
X124.724Y-85.212
X124.804Y-94.012
X125.15Y-96.629
X125.625Y-91.75
X125.639Y-88.304
X126.273Y-92.361
X126.661Y-97.188
X126.8Y-84.75
X126.95Y-81.0
X127.46Y-71.0
X127.681Y-86.303
X127.779Y-91.188
X128.127Y-88.142
X128.15Y-109.0
X128.2Y-83.835
X128.222Y-79.293
X128.54Y-108.0
X128.737Y-87.59
X129.201Y-86.302
X129.322Y-93.749
X129.46Y-78.5
X129.46Y-106.0
X129.6Y-66.6
X129.638Y-87.754
X129.9Y-96.186
X129.9Y-85.75
X129.9Y-89.25
X129.9Y-90.25
X129.9Y-97.75
X129.983Y-91.082
X130.018Y-99.434
X130.059Y-98.682
X130.115Y-93.265
X130.54Y-107.0
X131.075Y-110.0
X131.075Y-112.5
X131.46Y-109.0
X132.532Y-84.75
X132.534Y-87.25
X132.538Y-91.25
X132.548Y-88.227
X132.552Y-93.747
X132.65Y-98.183
X132.786Y-96.716
X132.799Y-94.917
X132.809Y-92.812
X132.923Y-85.93
X133.15Y-76.5
X133.177Y-103.853
X133.203Y-101.453
X133.328Y-94.248
X133.46Y-108.0
X134.075Y-98.75
X134.093Y-103.871
X134.371Y-104.739
X134.57Y-108.123
X134.599Y-101.461
X135.25Y-79.9
X135.5Y-66.0
X135.75Y-105.567
X136.227Y-111.718
X136.685Y-82.528
X136.75Y-101.454
X136.844Y-103.86
X137.3Y-57.46
X137.75Y-104.1
X137.787Y-80.121
X138.0Y-66.0
X138.0Y-68.445
X138.5Y-56.15
X139.0Y-73.45
X139.2Y-106.85
X139.25Y-79.9
X139.25Y-103.853
X140.25Y-76.8
X140.628Y-80.028
X141.05Y-64.25
X141.25Y-104.1
X141.75Y-79.9
X142.273Y-105.532
X142.786Y-95.569
X142.906Y-80.068
X143.25Y-104.1
X143.5Y-57.85
X143.5Y-60.82
X143.5Y-72.48
X143.75Y-95.114
X143.75Y-79.9
X144.25Y-104.1
X144.3Y-107.54
X144.34Y-58.4
X144.7Y-57.46
X144.85Y-63.25
X144.85Y-65.25
X144.85Y-67.25
X144.85Y-68.25
X144.85Y-69.25
X144.85Y-70.25
X144.85Y-71.25
X144.9Y-112.635
X144.9Y-113.905
X145.039Y-83.103
X145.186Y-62.42
X145.5Y-74.14
X145.952Y-72.721
X146.11Y-89.728
X146.439Y-75.39
X146.729Y-72.429
X146.845Y-84.728
X146.94Y-57.4
X146.969Y-79.915
X146.997Y-101.464
X147.26Y-59.4
X147.322Y-71.868
X147.531Y-82.551
X147.721Y-83.765
X147.75Y-101.466
X147.791Y-79.907
X147.834Y-109.347
X147.897Y-97.482
X147.937Y-67.888
X147.976Y-92.09
X147.989Y-71.263
X148.161Y-69.615
X148.25Y-103.882
X148.255Y-74.312
X148.405Y-86.629
X148.472Y-78.707
X148.502Y-77.841
X148.509Y-75.125
X148.54Y-105.5
X148.54Y-117.0
X148.543Y-60.08
X148.777Y-79.914
X148.784Y-101.466
X148.931Y-73.926
X149.001Y-86.005
X149.187Y-87.931
X149.25Y-104.1
X149.273Y-75.924
X149.275Y-70.785
X149.54Y-57.4
X149.615Y-77.29
X149.75Y-74.15
X149.838Y-71.436
X149.86Y-59.4
X150.398Y-95.683
X150.508Y-73.91
X150.54Y-76.5
X150.54Y-108.0
X150.599Y-90.838
X150.75Y-104.1
X150.821Y-99.25
X150.958Y-60.084
X150.977Y-94.669
X151.165Y-97.25
X151.25Y-71.444
X151.369Y-95.344
X151.395Y-102.391
X151.408Y-88.752
X151.441Y-96.25
X151.46Y-105.5
X151.46Y-117.0
X151.464Y-92.563
X151.471Y-84.729
X151.471Y-99.961
X151.599Y-52.495
X151.64Y-74.62
X151.688Y-79.301
X151.75Y-59.85
X152.14Y-57.4
X152.25Y-74.15
X152.402Y-70.38
X152.46Y-59.4
X152.54Y-75.5
X152.54Y-109.2
X152.544Y-78.444
X153.25Y-74.741
X153.46Y-77.5
X153.46Y-107.0
X153.751Y-101.146
X153.868Y-97.384
X153.87Y-89.813
X153.926Y-78.116
X154.007Y-103.271
X154.04Y-81.5
X154.1Y-83.25
X154.1Y-85.75
X154.1Y-87.25
X154.1Y-92.75
X154.1Y-94.25
X154.25Y-71.445
X154.339Y-107.339
X154.457Y-73.906
X154.474Y-97.972
X154.53Y-90.861
X154.554Y-84.019
X154.68Y-105.222
X154.709Y-104.445
X154.75Y-59.85
X154.794Y-93.227
X154.887Y-87.621
X154.903Y-88.386
X155.06Y-58.4
X155.1Y-110.095
X155.1Y-111.365
X155.101Y-112.559
X155.22Y-133.191
X155.25Y-74.15
X155.274Y-71.343
X155.284Y-90.557
X155.339Y-95.418
X155.46Y-76.5
X155.46Y-108.2
X155.493Y-100.579
X155.575Y-98.85
X155.753Y-88.534
X155.796Y-54.152
X156.0Y-135.48
X156.04Y-59.2
X156.098Y-93.17
X156.303Y-107.736
X156.36Y-62.387
X156.419Y-66.425
X156.437Y-64.25
X156.445Y-67.25
X156.549Y-98.328
X156.96Y-78.5
X156.96Y-81.5
X156.96Y-106.0
X157.0Y-111.48
X157.776Y-108.814
X157.856Y-91.317
X157.863Y-107.032
X158.208Y-86.956
X158.208Y-90.401
X158.208Y-82.692
X158.403Y-81.54
X158.821Y-101.086
X158.905Y-68.159
X158.908Y-97.376
X158.924Y-64.75
X158.96Y-59.2
X159.0Y-111.48
X159.024Y-83.4
X159.062Y-135.95
X159.15Y-63.75
X159.15Y-66.25
X159.15Y-69.75
X159.738Y-100.0
X159.752Y-94.599
X159.753Y-85.585
X159.776Y-66.706
X159.832Y-91.899
X160.043Y-90.042
X160.15Y-52.495
X160.15Y-55.035
X160.15Y-56.305
X160.415Y-91.329
X160.424Y-97.898
X160.477Y-94.153
X160.487Y-93.383
X160.742Y-100.509
X161.0Y-111.48
X161.075Y-69.5
X161.139Y-85.218
X161.203Y-99.4
X161.232Y-88.2
X161.272Y-86.244
X161.376Y-102.6
X161.504Y-100.2
X161.538Y-94.722
X161.54Y-71.5
X161.644Y-96.028
X161.787Y-110.229
X161.795Y-89.0
X161.795Y-91.4
X161.795Y-93.0
X161.913Y-86.818
X161.94Y-85.254
X162.0Y-119.85
X162.025Y-95.325
X162.026Y-103.271
X162.5Y-127.075
X162.5Y-130.925
X163.02Y-53.0
X163.02Y-55.0
X163.02Y-57.0
X163.082Y-122.162
X163.25Y-81.671
X163.25Y-104.329
X163.375Y-121.025
X163.375Y-122.975
X164.0Y-135.48
X164.187Y-80.383
X164.46Y-63.5
X164.46Y-65.5
X164.46Y-67.5
X164.46Y-71.5
X164.463Y-95.4
X164.467Y-92.2
X164.473Y-100.273
X164.475Y-91.228
X164.5Y-128.05
X164.5Y-129.0
X164.5Y-129.95
X164.925Y-61.5
X164.925Y-69.5
X165.493Y-88.013
X165.644Y-91.127
X165.75Y-83.271
X165.75Y-85.671
X166.532Y-104.714
X166.646Y-99.86
X167.094Y-88.91
X167.244Y-99.286
X167.591Y-97.8
X168.155Y-96.186
X168.18Y-87.847
X168.711Y-95.137
X170.405Y-92.16
X170.5Y-96.2
X170.625Y-122.325
X170.852Y-94.346
X170.852Y-95.108
X171.5Y-128.075
X172.321Y-89.506
X173.513Y-92.2
X173.528Y-101.724
X174.52Y-126.5
X174.52Y-131.0
X174.75Y-81.671
X174.75Y-104.329
X176.2Y-122.0
X176.205Y-89.0
X176.205Y-91.4
X176.205Y-93.0
X177.25Y-83.271
X177.25Y-85.671
X177.48Y-128.3
X177.54Y-84.0
X177.54Y-86.5
X177.54Y-88.0
X177.54Y-90.0
X177.54Y-92.0
X177.54Y-94.0
X177.54Y-96.0
X178.075Y-131.0
X178.5Y-119.85
X178.5Y-124.15
X179.0Y-97.35
X179.0Y-101.65
X180.46Y-84.0
X180.46Y-86.0
X180.46Y-88.0
X180.46Y-90.0
X180.46Y-92.0
X180.46Y-94.0
X180.46Y-96.0
T2
X85.0Y-91.0
X85.0Y-92.0
X85.0Y-93.0
T3
X62.7Y-70.0
X62.7Y-72.54
X62.7Y-112.0
X62.7Y-114.54
T4
X125.0Y-63.6
X125.0Y-65.6
X127.5Y-63.6
X127.5Y-65.6
T5
X120.0Y-133.46
X120.0Y-136.0
X122.54Y-133.46
X122.54Y-136.0
X125.08Y-133.46
X125.08Y-136.0
X127.62Y-133.46
X127.62Y-136.0
X130.16Y-133.46
X130.16Y-136.0
T6
X57.62Y-64.92
X57.62Y-75.08
X57.62Y-106.92
X57.62Y-117.08
T7
X120.23Y-60.89
X132.27Y-60.89
M30
