G04 #@! TF.GenerationSoftware,KiCad,Pcbnew,10.0.4*
G04 #@! TF.CreationDate,2026-10-09T08:21:26-04:00*
G04 #@! TF.ProjectId,dual_adc_usb,6475616c-5f61-4646-935f-7573622e6b69,rev?*
G04 #@! TF.SameCoordinates,Original*
G04 #@! TF.FileFunction,Soldermask,Top*
G04 #@! TF.FilePolarity,Negative*
%FSLAX46Y46*%
G04 Gerber Fmt 4.6, Leading zero omitted, Abs format (unit mm)*
G04 Created by KiCad (PCBNEW 10.0.4) date 2026-10-09 08:21:26*
%MOMM*%
%LPD*%
G01*
G04 APERTURE LIST*
G04 Aperture macros list*
%AMRoundRect*
0 Rectangle with rounded corners*
0 $1 Rounding radius*
0 $2 $3 $4 $5 $6 $7 $8 $9 X,Y pos of 4 corners*
0 Add a 4 corners polygon primitive as box body*
4,1,4,$2,$3,$4,$5,$6,$7,$8,$9,$2,$3,0*
0 Add four circle primitives for the rounded corners*
1,1,$1+$1,$2,$3*
1,1,$1+$1,$4,$5*
1,1,$1+$1,$6,$7*
1,1,$1+$1,$8,$9*
0 Add four rect primitives between the rounded corners*
20,1,$1+$1,$2,$3,$4,$5,0*
20,1,$1+$1,$4,$5,$6,$7,0*
20,1,$1+$1,$6,$7,$8,$9,0*
20,1,$1+$1,$8,$9,$2,$3,0*%
G04 Aperture macros list end*
%ADD10RoundRect,0.190000X-0.140000X-0.170000X0.140000X-0.170000X0.140000X0.170000X-0.140000X0.170000X0*%
%ADD11RoundRect,0.300000X-0.450000X-0.350000X0.450000X-0.350000X0.450000X0.350000X-0.450000X0.350000X0*%
%ADD12RoundRect,0.150000X-0.562500X-0.100000X0.562500X-0.100000X0.562500X0.100000X-0.562500X0.100000X0*%
%ADD13RoundRect,0.050000X-1.150000X-0.800000X1.150000X-0.800000X1.150000X0.800000X-1.150000X0.800000X0*%
%ADD14RoundRect,0.300000X0.475000X-0.250000X0.475000X0.250000X-0.475000X0.250000X-0.475000X-0.250000X0*%
%ADD15RoundRect,0.190000X0.170000X-0.140000X0.170000X0.140000X-0.170000X0.140000X-0.170000X-0.140000X0*%
%ADD16RoundRect,0.275000X0.250000X-0.225000X0.250000X0.225000X-0.250000X0.225000X-0.250000X-0.225000X0*%
%ADD17RoundRect,0.250000X-0.200000X-0.275000X0.200000X-0.275000X0.200000X0.275000X-0.200000X0.275000X0*%
%ADD18RoundRect,0.185000X-0.135000X-0.185000X0.135000X-0.185000X0.135000X0.185000X-0.135000X0.185000X0*%
%ADD19RoundRect,0.275000X-0.225000X-0.250000X0.225000X-0.250000X0.225000X0.250000X-0.225000X0.250000X0*%
%ADD20RoundRect,0.185000X0.185000X-0.135000X0.185000X0.135000X-0.185000X0.135000X-0.185000X-0.135000X0*%
%ADD21RoundRect,0.112500X-0.187500X-0.062500X0.187500X-0.062500X0.187500X0.062500X-0.187500X0.062500X0*%
%ADD22RoundRect,0.050000X-0.500000X-1.325000X0.500000X-1.325000X0.500000X1.325000X-0.500000X1.325000X0*%
%ADD23RoundRect,0.268750X-0.218750X-0.381250X0.218750X-0.381250X0.218750X0.381250X-0.218750X0.381250X0*%
%ADD24RoundRect,0.200000X-0.512500X-0.150000X0.512500X-0.150000X0.512500X0.150000X-0.512500X0.150000X0*%
%ADD25C,3.300000*%
%ADD26RoundRect,0.200000X-0.825000X-0.150000X0.825000X-0.150000X0.825000X0.150000X-0.825000X0.150000X0*%
%ADD27RoundRect,0.050000X-1.145000X-1.500000X1.145000X-1.500000X1.145000X1.500000X-1.145000X1.500000X0*%
%ADD28RoundRect,0.300000X-0.250000X-0.475000X0.250000X-0.475000X0.250000X0.475000X-0.250000X0.475000X0*%
%ADD29RoundRect,0.050000X-0.755000X-0.229000X0.755000X-0.229000X0.755000X0.229000X-0.755000X0.229000X0*%
%ADD30RoundRect,0.268750X-0.218750X-0.256250X0.218750X-0.256250X0.218750X0.256250X-0.218750X0.256250X0*%
%ADD31RoundRect,0.300000X-0.312500X-0.625000X0.312500X-0.625000X0.312500X0.625000X-0.312500X0.625000X0*%
%ADD32RoundRect,0.150000X-0.712500X-0.100000X0.712500X-0.100000X0.712500X0.100000X-0.712500X0.100000X0*%
%ADD33RoundRect,0.050000X0.850000X-0.850000X0.850000X0.850000X-0.850000X0.850000X-0.850000X-0.850000X0*%
%ADD34C,1.800000*%
%ADD35RoundRect,0.250000X0.275000X-0.200000X0.275000X0.200000X-0.275000X0.200000X-0.275000X-0.200000X0*%
%ADD36RoundRect,0.200000X-0.587500X-0.150000X0.587500X-0.150000X0.587500X0.150000X-0.587500X0.150000X0*%
%ADD37C,3.600000*%
%ADD38RoundRect,0.112500X-0.375000X-0.062500X0.375000X-0.062500X0.375000X0.062500X-0.375000X0.062500X0*%
%ADD39RoundRect,0.112500X-0.062500X-0.375000X0.062500X-0.375000X0.062500X0.375000X-0.062500X0.375000X0*%
%ADD40RoundRect,0.050000X-3.575000X-3.575000X3.575000X-3.575000X3.575000X3.575000X-3.575000X3.575000X0*%
%ADD41RoundRect,0.175000X-0.687500X-0.125000X0.687500X-0.125000X0.687500X0.125000X-0.687500X0.125000X0*%
%ADD42RoundRect,0.125000X-0.662500X-0.075000X0.662500X-0.075000X0.662500X0.075000X-0.662500X0.075000X0*%
%ADD43RoundRect,0.125000X-0.075000X-0.662500X0.075000X-0.662500X0.075000X0.662500X-0.075000X0.662500X0*%
%ADD44RoundRect,0.050000X-0.400000X-1.350000X0.400000X-1.350000X0.400000X1.350000X-0.400000X1.350000X0*%
%ADD45O,2.600000X1.700000*%
%ADD46O,7.100000X3.600000*%
%ADD47RoundRect,0.212500X-0.650000X-0.162500X0.650000X-0.162500X0.650000X0.162500X-0.650000X0.162500X0*%
%ADD48RoundRect,0.125000X-0.700000X-0.075000X0.700000X-0.075000X0.700000X0.075000X-0.700000X0.075000X0*%
%ADD49RoundRect,0.125000X-0.075000X-0.700000X0.075000X-0.700000X0.075000X0.700000X-0.075000X0.700000X0*%
G04 APERTURE END LIST*
D10*
X149520000Y-105500000D03*
X150480000Y-105500000D03*
X153120000Y-58400000D03*
X154080000Y-58400000D03*
D11*
X115900000Y-101950000D03*
X118099999Y-101950000D03*
X118099999Y-100050000D03*
X115900000Y-100050000D03*
D12*
X82112500Y-64349999D03*
X82112500Y-65000000D03*
X82112500Y-65650000D03*
X83887500Y-65650000D03*
X83887500Y-65000000D03*
X83887500Y-64349999D03*
D13*
X76650000Y-120000000D03*
X81350000Y-120000000D03*
D10*
X119520000Y-81000000D03*
X120480000Y-81000000D03*
X178520000Y-94000000D03*
X179480000Y-94000000D03*
D14*
X139200000Y-109950000D03*
X139200000Y-108050000D03*
D15*
X144700000Y-56480000D03*
X144700000Y-55520000D03*
D10*
X149520000Y-117000000D03*
X150480000Y-117000000D03*
D16*
X79000000Y-115775000D03*
X79000000Y-114225000D03*
D17*
X103175000Y-66000000D03*
X104825000Y-66000000D03*
D10*
X151520000Y-108000000D03*
X152480000Y-108000000D03*
D17*
X96175000Y-71500000D03*
X97825000Y-71500000D03*
D16*
X112500000Y-112775000D03*
X112500000Y-111225000D03*
X115000000Y-60275000D03*
X115000000Y-58725000D03*
D14*
X179000000Y-100450000D03*
X179000000Y-98550000D03*
D18*
X157990000Y-100000000D03*
X159009999Y-100000000D03*
D10*
X153520000Y-76500000D03*
X154480000Y-76500000D03*
D19*
X101725000Y-84500000D03*
X103275000Y-84500000D03*
D20*
X164000000Y-134510000D03*
X164000000Y-133490001D03*
D17*
X103175000Y-116000000D03*
X104825000Y-116000000D03*
D14*
X139000000Y-76550000D03*
X139000000Y-74650000D03*
D16*
X93500000Y-88775000D03*
X93500000Y-87225000D03*
D10*
X162520000Y-63500000D03*
X163480000Y-63500000D03*
D14*
X162000000Y-122950000D03*
X162000000Y-121050000D03*
D19*
X103225000Y-76000000D03*
X104775000Y-76000000D03*
D10*
X178520000Y-84000000D03*
X179480000Y-84000000D03*
D21*
X84050000Y-90750000D03*
X84050000Y-91250000D03*
X84050000Y-91750000D03*
X84050000Y-92250000D03*
X84050000Y-92750000D03*
X84050000Y-93250000D03*
X85950000Y-93250000D03*
X85950000Y-92750000D03*
X85950000Y-92250000D03*
X85950000Y-91750000D03*
X85950000Y-91250000D03*
X85950000Y-90750000D03*
D22*
X85000000Y-92000000D03*
D10*
X111520000Y-81000000D03*
X112480000Y-81000000D03*
X121520000Y-81000000D03*
X122480000Y-81000000D03*
X178520000Y-88000000D03*
X179480000Y-88000000D03*
D16*
X79000000Y-73775000D03*
X79000000Y-72225000D03*
D10*
X107820000Y-97300000D03*
X108780000Y-97300000D03*
X88020000Y-107500000D03*
X88980000Y-107500000D03*
X107820000Y-99100000D03*
X108780000Y-99100000D03*
D19*
X71225000Y-106000000D03*
X72775000Y-106000000D03*
D10*
X157020000Y-59200000D03*
X157980000Y-59200000D03*
X107820000Y-93700000D03*
X108780000Y-93700000D03*
D19*
X107525000Y-86500000D03*
X109075000Y-86500000D03*
D12*
X82112500Y-106350000D03*
X82112500Y-107000000D03*
X82112500Y-107650000D03*
X83887500Y-107650000D03*
X83887500Y-107000000D03*
X83887500Y-106350000D03*
D17*
X103175000Y-74000000D03*
X104825000Y-74000000D03*
D18*
X88990000Y-89300000D03*
X90009999Y-89300000D03*
D20*
X157000000Y-110510000D03*
X157000000Y-109490001D03*
D23*
X120937500Y-71000000D03*
X123062500Y-71000000D03*
D16*
X162500000Y-129775000D03*
X162500000Y-128225000D03*
D10*
X162520000Y-65500000D03*
X163480000Y-65500000D03*
D18*
X141490000Y-108500000D03*
X142509999Y-108500000D03*
D19*
X84225000Y-97500000D03*
X85775000Y-97500000D03*
X103225000Y-118000000D03*
X104775000Y-118000000D03*
D10*
X87020000Y-118500000D03*
X87980000Y-118500000D03*
D24*
X165862500Y-128050000D03*
X165862500Y-129000000D03*
X165862500Y-129950000D03*
X168137500Y-129950000D03*
X168137500Y-128050000D03*
D19*
X107525000Y-95500000D03*
X109075000Y-95500000D03*
D25*
X186000000Y-136000000D03*
D17*
X96175000Y-68500000D03*
X97825000Y-68500000D03*
D18*
X88990000Y-87500000D03*
X90009999Y-87500000D03*
D15*
X121000000Y-100980000D03*
X121000000Y-100020000D03*
D18*
X175490000Y-126500000D03*
X176509999Y-126500000D03*
D25*
X54000000Y-54000000D03*
D10*
X155020000Y-81500000D03*
X155980000Y-81500000D03*
X127520000Y-78500000D03*
X128480000Y-78500000D03*
D26*
X87525000Y-110095000D03*
X87525000Y-111365000D03*
X87525000Y-112635000D03*
X87525000Y-113905000D03*
X92474999Y-113905000D03*
X92474999Y-112635000D03*
X92474999Y-111365000D03*
X92474999Y-110095000D03*
D27*
X90000000Y-112000000D03*
D19*
X104025000Y-99100000D03*
X105575000Y-99100000D03*
D18*
X141490000Y-75500000D03*
X142509999Y-75500000D03*
D28*
X123850000Y-81000000D03*
X125750000Y-81000000D03*
D24*
X98862500Y-87050000D03*
X98862500Y-88000000D03*
X98862500Y-88950000D03*
X101137500Y-88950000D03*
X101137500Y-87050000D03*
D29*
X163250000Y-82600000D03*
X163250000Y-83400000D03*
X163250000Y-84200000D03*
X163250000Y-85000000D03*
X163250000Y-85800000D03*
X163250000Y-86600000D03*
X163250000Y-87400000D03*
X163250000Y-88200000D03*
X163250000Y-89000000D03*
X163250000Y-89800000D03*
X163250000Y-90600000D03*
X163250000Y-91400000D03*
X163250000Y-92200000D03*
X163250000Y-93000000D03*
X163250000Y-93800000D03*
X163250000Y-94600000D03*
X163250000Y-95400000D03*
X163250000Y-96200000D03*
X163250000Y-97000000D03*
X163250000Y-97800000D03*
X163250000Y-98600000D03*
X163250000Y-99400000D03*
X163250000Y-100200000D03*
X163250000Y-101000000D03*
X163250000Y-101800000D03*
X163250000Y-102600000D03*
X163250000Y-103400000D03*
X174749999Y-103400000D03*
X174749999Y-102600000D03*
X174749999Y-101800000D03*
X174749999Y-101000000D03*
X174749999Y-100200000D03*
X174749999Y-99400000D03*
X174749999Y-98600000D03*
X174749999Y-97800000D03*
X174749999Y-97000000D03*
X174749999Y-96200000D03*
X174749999Y-95400000D03*
X174749999Y-94600000D03*
X174749999Y-93800000D03*
X174749999Y-93000000D03*
X174749999Y-92200000D03*
X174749999Y-91400000D03*
X174749999Y-90600000D03*
X174749999Y-89800000D03*
X174749999Y-89000000D03*
X174749999Y-88200000D03*
X174749999Y-87400000D03*
X174749999Y-86600000D03*
X174749999Y-85800000D03*
X174749999Y-85000000D03*
X174749999Y-84200000D03*
X174749999Y-83400000D03*
X174749999Y-82600000D03*
D19*
X99225000Y-76500000D03*
X100775000Y-76500000D03*
D18*
X175490000Y-128300000D03*
X176509999Y-128300000D03*
D10*
X178520000Y-90000000D03*
X179480000Y-90000000D03*
D18*
X175490000Y-131000000D03*
X176509999Y-131000000D03*
D10*
X109820000Y-99100000D03*
X110780000Y-99100000D03*
D19*
X90725000Y-107500000D03*
X92275000Y-107500000D03*
D24*
X136862500Y-65050000D03*
X136862500Y-66000000D03*
X136862500Y-66950000D03*
X139137500Y-66950000D03*
X139137500Y-66000000D03*
X139137500Y-65050000D03*
D18*
X167490000Y-55000000D03*
X168509999Y-55000000D03*
D10*
X115520000Y-81000000D03*
X116480000Y-81000000D03*
D17*
X96175000Y-113500000D03*
X97825000Y-113500000D03*
D10*
X117520000Y-81000000D03*
X118480000Y-81000000D03*
D17*
X89175000Y-116500000D03*
X90825000Y-116500000D03*
D30*
X179212500Y-131000000D03*
X180787500Y-131000000D03*
D10*
X129520000Y-108000000D03*
X130480000Y-108000000D03*
D31*
X70537500Y-67000000D03*
X73462501Y-67000000D03*
D32*
X164887500Y-121025000D03*
X164887500Y-121675000D03*
X164887500Y-122325000D03*
X164887500Y-122975000D03*
X169112500Y-122975000D03*
X169112500Y-122325000D03*
X169112500Y-121675000D03*
X169112500Y-121025000D03*
D10*
X100020000Y-64000000D03*
X100980000Y-64000000D03*
D19*
X90725000Y-76500000D03*
X92275000Y-76500000D03*
X107525000Y-88300000D03*
X109075000Y-88300000D03*
D20*
X156000000Y-134510000D03*
X156000000Y-133490001D03*
D10*
X178520000Y-92000000D03*
X179480000Y-92000000D03*
D33*
X120000000Y-136000000D03*
D34*
X120000000Y-133460000D03*
X122540000Y-136000000D03*
X122540000Y-133460000D03*
X125080000Y-136000000D03*
X125080000Y-133460000D03*
X127620000Y-136000000D03*
X127620000Y-133460000D03*
X130160000Y-136000000D03*
X130160000Y-133460000D03*
D16*
X112500000Y-70775000D03*
X112500000Y-69225000D03*
D10*
X178520000Y-96000000D03*
X179480000Y-96000000D03*
D35*
X77000000Y-73825000D03*
X77000000Y-72175000D03*
X115000000Y-56825000D03*
X115000000Y-55175000D03*
D18*
X88990000Y-96500000D03*
X90009999Y-96500000D03*
D20*
X159000000Y-110510000D03*
X159000000Y-109490001D03*
D17*
X96175000Y-110500000D03*
X97825000Y-110500000D03*
D26*
X153525000Y-52495000D03*
X153525000Y-53765000D03*
X153525000Y-55035000D03*
X153525000Y-56305000D03*
X158474999Y-56305000D03*
X158474999Y-55035000D03*
X158474999Y-53765000D03*
X158474999Y-52495000D03*
D15*
X144300000Y-109480000D03*
X144300000Y-108520000D03*
D28*
X130050000Y-76500000D03*
X131950000Y-76500000D03*
D36*
X159062500Y-133050000D03*
X159062500Y-134950000D03*
X160937500Y-134000000D03*
D14*
X178500000Y-122950000D03*
X178500000Y-121050000D03*
D31*
X70537500Y-109000000D03*
X73462501Y-109000000D03*
D17*
X109175000Y-68500000D03*
X110825000Y-68500000D03*
D25*
X186000000Y-54000000D03*
D15*
X137300000Y-56480000D03*
X137300000Y-55520000D03*
D18*
X120490000Y-103500000D03*
X121509999Y-103500000D03*
D35*
X77000000Y-115825000D03*
X77000000Y-114175000D03*
D33*
X125000000Y-65600000D03*
D34*
X127500000Y-65600000D03*
X127500000Y-63600000D03*
X125000000Y-63600000D03*
D37*
X120230000Y-60890000D03*
X132270000Y-60890000D03*
D28*
X125050000Y-108500000D03*
X126950000Y-108500000D03*
D38*
X111562500Y-87250000D03*
X111562500Y-87750000D03*
X111562500Y-88250000D03*
X111562500Y-88750000D03*
X111562500Y-89250000D03*
X111562500Y-89750000D03*
X111562500Y-90250000D03*
X111562500Y-90750000D03*
X111562500Y-91250000D03*
X111562500Y-91750000D03*
X111562500Y-92250000D03*
X111562500Y-92750000D03*
X111562500Y-93250000D03*
X111562500Y-93750000D03*
X111562500Y-94250000D03*
X111562500Y-94750000D03*
D39*
X112250000Y-95437500D03*
X112750000Y-95437500D03*
X113250000Y-95437500D03*
X113750000Y-95437500D03*
X114250000Y-95437500D03*
X114750000Y-95437500D03*
X115250000Y-95437500D03*
X115750000Y-95437500D03*
X116250000Y-95437500D03*
X116750000Y-95437500D03*
X117250000Y-95437500D03*
X117750000Y-95437500D03*
X118250000Y-95437500D03*
X118750000Y-95437500D03*
X119250000Y-95437500D03*
X119750000Y-95437500D03*
D38*
X120437500Y-94750000D03*
X120437500Y-94250000D03*
X120437500Y-93750000D03*
X120437500Y-93250000D03*
X120437500Y-92750000D03*
X120437500Y-92250000D03*
X120437500Y-91750000D03*
X120437500Y-91250000D03*
X120437500Y-90750000D03*
X120437500Y-90250000D03*
X120437500Y-89750000D03*
X120437500Y-89250000D03*
X120437500Y-88750000D03*
X120437500Y-88250000D03*
X120437500Y-87750000D03*
X120437500Y-87250000D03*
D39*
X119750000Y-86562500D03*
X119250000Y-86562500D03*
X118750000Y-86562500D03*
X118250000Y-86562500D03*
X117750000Y-86562500D03*
X117250000Y-86562500D03*
X116750000Y-86562500D03*
X116250000Y-86562500D03*
X115750000Y-86562500D03*
X115250000Y-86562500D03*
X114750000Y-86562500D03*
X114250000Y-86562500D03*
X113750000Y-86562500D03*
X113250000Y-86562500D03*
X112750000Y-86562500D03*
X112250000Y-86562500D03*
D40*
X116000000Y-91000000D03*
D18*
X112490000Y-101300000D03*
X113509999Y-101300000D03*
X135990000Y-110000000D03*
X137009999Y-110000000D03*
X135990000Y-112500000D03*
X137009999Y-112500000D03*
D41*
X101887500Y-111025000D03*
X101887500Y-111675000D03*
X101887500Y-112325000D03*
X101887500Y-112975000D03*
X106112500Y-112975000D03*
X106112500Y-112325000D03*
X106112500Y-111675000D03*
X106112500Y-111025000D03*
D10*
X125520000Y-71000000D03*
X126480000Y-71000000D03*
D18*
X163990000Y-53000000D03*
X165009999Y-53000000D03*
D42*
X131337500Y-83250000D03*
X131337500Y-83750000D03*
X131337500Y-84250000D03*
X131337500Y-84750000D03*
X131337500Y-85250000D03*
X131337500Y-85750000D03*
X131337500Y-86250000D03*
X131337500Y-86750000D03*
X131337500Y-87250000D03*
X131337500Y-87750000D03*
X131337500Y-88250000D03*
X131337500Y-88750000D03*
X131337500Y-89250000D03*
X131337500Y-89750000D03*
X131337500Y-90250000D03*
X131337500Y-90750000D03*
X131337500Y-91250000D03*
X131337500Y-91750000D03*
X131337500Y-92250000D03*
X131337500Y-92750000D03*
X131337500Y-93250000D03*
X131337500Y-93750000D03*
X131337500Y-94250000D03*
X131337500Y-94750000D03*
X131337500Y-95250000D03*
X131337500Y-95750000D03*
X131337500Y-96250000D03*
X131337500Y-96750000D03*
X131337500Y-97250000D03*
X131337500Y-97750000D03*
X131337500Y-98250000D03*
X131337500Y-98750000D03*
X131337500Y-99250000D03*
X131337500Y-99750000D03*
X131337500Y-100250000D03*
X131337500Y-100750000D03*
D43*
X133250000Y-102662500D03*
X133750000Y-102662500D03*
X134250000Y-102662500D03*
X134750000Y-102662500D03*
X135250000Y-102662500D03*
X135750000Y-102662500D03*
X136250000Y-102662500D03*
X136750000Y-102662500D03*
X137250000Y-102662500D03*
X137750000Y-102662500D03*
X138250000Y-102662500D03*
X138750000Y-102662500D03*
X139250000Y-102662500D03*
X139750000Y-102662500D03*
X140250000Y-102662500D03*
X140750000Y-102662500D03*
X141250000Y-102662500D03*
X141750000Y-102662500D03*
X142250001Y-102662500D03*
X142750001Y-102662500D03*
X143250001Y-102662500D03*
X143750001Y-102662500D03*
X144250001Y-102662500D03*
X144750001Y-102662500D03*
X145250001Y-102662500D03*
X145750001Y-102662500D03*
X146250001Y-102662500D03*
X146750001Y-102662500D03*
X147250001Y-102662500D03*
X147750001Y-102662500D03*
X148250001Y-102662500D03*
X148750001Y-102662500D03*
X149250001Y-102662500D03*
X149750001Y-102662500D03*
X150250001Y-102662500D03*
X150750001Y-102662500D03*
D42*
X152662501Y-100750000D03*
X152662501Y-100250000D03*
X152662501Y-99750000D03*
X152662501Y-99250000D03*
X152662501Y-98750000D03*
X152662501Y-98250000D03*
X152662501Y-97750000D03*
X152662501Y-97250000D03*
X152662501Y-96750000D03*
X152662501Y-96250000D03*
X152662501Y-95750000D03*
X152662501Y-95250000D03*
X152662501Y-94750000D03*
X152662501Y-94250000D03*
X152662501Y-93750000D03*
X152662501Y-93250000D03*
X152662501Y-92750000D03*
X152662501Y-92250000D03*
X152662501Y-91750000D03*
X152662501Y-91250000D03*
X152662501Y-90750000D03*
X152662501Y-90250000D03*
X152662501Y-89750000D03*
X152662501Y-89250000D03*
X152662501Y-88750000D03*
X152662501Y-88250000D03*
X152662501Y-87750000D03*
X152662501Y-87250000D03*
X152662501Y-86750000D03*
X152662501Y-86250000D03*
X152662501Y-85750000D03*
X152662501Y-85250000D03*
X152662501Y-84750000D03*
X152662501Y-84250000D03*
X152662501Y-83750000D03*
X152662501Y-83250000D03*
D43*
X150750001Y-81337500D03*
X150250001Y-81337500D03*
X149750001Y-81337500D03*
X149250001Y-81337500D03*
X148750001Y-81337500D03*
X148250001Y-81337500D03*
X147750001Y-81337500D03*
X147250001Y-81337500D03*
X146750001Y-81337500D03*
X146250001Y-81337500D03*
X145750001Y-81337500D03*
X145250001Y-81337500D03*
X144750001Y-81337500D03*
X144250001Y-81337500D03*
X143750001Y-81337500D03*
X143250001Y-81337500D03*
X142750001Y-81337500D03*
X142250001Y-81337500D03*
X141750000Y-81337500D03*
X141250000Y-81337500D03*
X140750000Y-81337500D03*
X140250000Y-81337500D03*
X139750000Y-81337500D03*
X139250000Y-81337500D03*
X138750000Y-81337500D03*
X138250000Y-81337500D03*
X137750000Y-81337500D03*
X137250000Y-81337500D03*
X136750000Y-81337500D03*
X136250000Y-81337500D03*
X135750000Y-81337500D03*
X135250000Y-81337500D03*
X134750000Y-81337500D03*
X134250000Y-81337500D03*
X133750000Y-81337500D03*
X133250000Y-81337500D03*
D19*
X90725000Y-65500000D03*
X92275000Y-65500000D03*
D17*
X109175000Y-110500000D03*
X110825000Y-110500000D03*
X103175000Y-108000000D03*
X104825000Y-108000000D03*
D16*
X80500000Y-94775000D03*
X80500000Y-93225000D03*
D20*
X161000000Y-110510000D03*
X161000000Y-109490001D03*
D30*
X132212500Y-110000000D03*
X133787500Y-110000000D03*
D17*
X109175000Y-71500000D03*
X110825000Y-71500000D03*
D19*
X99225000Y-118500000D03*
X100775000Y-118500000D03*
D30*
X132212500Y-112500000D03*
X133787500Y-112500000D03*
D15*
X145500000Y-76080000D03*
X145500000Y-75120000D03*
D10*
X100020000Y-106000000D03*
X100980000Y-106000000D03*
D16*
X171500000Y-130775000D03*
X171500000Y-129225000D03*
D17*
X109175000Y-113500000D03*
X110825000Y-113500000D03*
D10*
X88020000Y-65500000D03*
X88980000Y-65500000D03*
D13*
X76650000Y-78000000D03*
X81350000Y-78000000D03*
D18*
X88990000Y-94700000D03*
X90009999Y-94700000D03*
D10*
X107820000Y-90100000D03*
X108780000Y-90100000D03*
D11*
X139900000Y-57850000D03*
X142099999Y-57850000D03*
X142099999Y-56150000D03*
X139900000Y-56150000D03*
D16*
X80500000Y-89775000D03*
X80500000Y-88225000D03*
D10*
X151520000Y-76500000D03*
X152480000Y-76500000D03*
X87020000Y-76500000D03*
X87980000Y-76500000D03*
D19*
X103225000Y-106000000D03*
X104775000Y-106000000D03*
D10*
X113520000Y-81000000D03*
X114480000Y-81000000D03*
X153520000Y-108200000D03*
X154480000Y-108200000D03*
D18*
X112490000Y-99500000D03*
X113509999Y-99500000D03*
D10*
X162520000Y-67500000D03*
X163480000Y-67500000D03*
D20*
X143500000Y-71510000D03*
X143500000Y-70490001D03*
D19*
X71225000Y-64000000D03*
X72775000Y-64000000D03*
D26*
X87525000Y-68095000D03*
X87525000Y-69365000D03*
X87525000Y-70635000D03*
X87525000Y-71905000D03*
X92474999Y-71905000D03*
X92474999Y-70635000D03*
X92474999Y-69365000D03*
X92474999Y-68095000D03*
D27*
X90000000Y-70000000D03*
D44*
X172899999Y-122000000D03*
X175100000Y-122000000D03*
D45*
X62700000Y-70000000D03*
D46*
X57620000Y-75080000D03*
D45*
X62700000Y-72540001D03*
D46*
X57620000Y-64920000D03*
D16*
X93500000Y-95775000D03*
X93500000Y-94225000D03*
D47*
X146412500Y-110095000D03*
X146412500Y-111365000D03*
X146412500Y-112635000D03*
X146412500Y-113905000D03*
X153587500Y-113905000D03*
X153587500Y-112635000D03*
X153587500Y-111365000D03*
X153587500Y-110095000D03*
D10*
X162520000Y-71500000D03*
X163480000Y-71500000D03*
D18*
X112990000Y-97500000D03*
X114009999Y-97500000D03*
D10*
X107820000Y-91900000D03*
X108780000Y-91900000D03*
D19*
X162225000Y-61500000D03*
X163775000Y-61500000D03*
D10*
X150520000Y-58400000D03*
X151480000Y-58400000D03*
X155020000Y-106000000D03*
X155980000Y-106000000D03*
D19*
X162225000Y-69500000D03*
X163775000Y-69500000D03*
D10*
X178520000Y-86000000D03*
X179480000Y-86000000D03*
D19*
X96225000Y-84500000D03*
X97775000Y-84500000D03*
D10*
X147920000Y-58400000D03*
X148880000Y-58400000D03*
D18*
X163990000Y-57000000D03*
X165009999Y-57000000D03*
D19*
X103225000Y-64000000D03*
X104775000Y-64000000D03*
D18*
X163990000Y-55000000D03*
X165009999Y-55000000D03*
D19*
X90725000Y-118500000D03*
X92275000Y-118500000D03*
D10*
X155020000Y-78500000D03*
X155980000Y-78500000D03*
D17*
X89175000Y-74500000D03*
X90825000Y-74500000D03*
D41*
X101887500Y-69025000D03*
X101887500Y-69675000D03*
X101887500Y-70325000D03*
X101887500Y-70975000D03*
X106112500Y-70975000D03*
X106112500Y-70325000D03*
X106112500Y-69675000D03*
X106112500Y-69025000D03*
D10*
X131520000Y-108000000D03*
X132480000Y-108000000D03*
D25*
X54000000Y-136000000D03*
D10*
X145320000Y-58400000D03*
X146280000Y-58400000D03*
D20*
X143500000Y-62810000D03*
X143500000Y-61790001D03*
D10*
X127520000Y-106000000D03*
X128480000Y-106000000D03*
D45*
X62700000Y-112000000D03*
D46*
X57620000Y-117080000D03*
D45*
X62700000Y-114540001D03*
D46*
X57620000Y-106920000D03*
D48*
X146324999Y-63250000D03*
X146324999Y-63750000D03*
X146324999Y-64250000D03*
X146324999Y-64750000D03*
X146324999Y-65250000D03*
X146324999Y-65750000D03*
X146324999Y-66250000D03*
X146324999Y-66750000D03*
X146324999Y-67250000D03*
X146324999Y-67750000D03*
X146324999Y-68250000D03*
X146324999Y-68750000D03*
X146324999Y-69250000D03*
X146324999Y-69750000D03*
X146324999Y-70250000D03*
X146324999Y-70750000D03*
D49*
X148249999Y-72675000D03*
X148750000Y-72675000D03*
X149250000Y-72675000D03*
X149750000Y-72675000D03*
X150250000Y-72675000D03*
X150750000Y-72675000D03*
X151250000Y-72675000D03*
X151750000Y-72675000D03*
X152250000Y-72675000D03*
X152750000Y-72675000D03*
X153250000Y-72675000D03*
X153750000Y-72675000D03*
X154250000Y-72675000D03*
X154750000Y-72675000D03*
X155250000Y-72675000D03*
X155750000Y-72675000D03*
D48*
X157675000Y-70750000D03*
X157675000Y-70250000D03*
X157675000Y-69750000D03*
X157675000Y-69250000D03*
X157675000Y-68750000D03*
X157675000Y-68250000D03*
X157675000Y-67750000D03*
X157675000Y-67250000D03*
X157675000Y-66750000D03*
X157675000Y-66250000D03*
X157675000Y-65750000D03*
X157675000Y-65250000D03*
X157675000Y-64750000D03*
X157675000Y-64250000D03*
X157675000Y-63750000D03*
X157675000Y-63250000D03*
D49*
X155750000Y-61325000D03*
X155250000Y-61325000D03*
X154750000Y-61325000D03*
X154250000Y-61325000D03*
X153750000Y-61325000D03*
X153250000Y-61325000D03*
X152750000Y-61325000D03*
X152250000Y-61325000D03*
X151750000Y-61325000D03*
X151250000Y-61325000D03*
X150750000Y-61325000D03*
X150250000Y-61325000D03*
X149750000Y-61325000D03*
X149250000Y-61325000D03*
X148750000Y-61325000D03*
X148249999Y-61325000D03*
M02*
