%TF.GenerationSoftware,KiCad,Pcbnew,10.0.4*%
%TF.CreationDate,2026-10-09T08:21:26-04:00*%
%TF.ProjectId,dual_adc_usb,6475616c-5f61-4646-935f-7573622e6b69,rev?*%
%TF.SameCoordinates,Original*%
%TF.FileFunction,Drillmap*%
%TF.FilePolarity,Positive*%
%FSLAX45Y45*%
G04 Gerber Fmt 4.5, Leading zero omitted, Abs format (unit mm)*
G04 Created by KiCad (PCBNEW 10.0.4) date 2026-10-09 08:21:26*
%MOMM*%
%LPD*%
G01*
G04 APERTURE LIST*
%ADD10C,0.050000*%
%ADD11C,0.200000*%
%ADD12C,0.320000*%
G04 APERTURE END LIST*
D10*
X5000000Y-5200000D02*
G75*
G02*
X5200000Y-5000000I200000J0D01*
G01*
X5000000Y-13800000D02*
X5000000Y-5200000D01*
X5200000Y-5000000D02*
X18800000Y-5000000D01*
X5200000Y-14000000D02*
G75*
G02*
X5000000Y-13800000I0J200000D01*
G01*
X18800000Y-5000000D02*
G75*
G02*
X19000000Y-5200000I0J-200000D01*
G01*
X18800000Y-14000000D02*
X5200000Y-14000000D01*
X19000000Y-5200000D02*
X19000000Y-13800000D01*
X19000000Y-13800000D02*
G75*
G02*
X18800000Y-14000000I-200000J0D01*
G01*
D11*
D12*
X5240000Y-5240000D02*
X5560000Y-5560000D01*
X5560000Y-5240000D02*
X5240000Y-5560000D01*
X5240000Y-13440000D02*
X5560000Y-13760000D01*
X5560000Y-13440000D02*
X5240000Y-13760000D01*
X18440000Y-5240000D02*
X18760000Y-5560000D01*
X18760000Y-5240000D02*
X18440000Y-5560000D01*
X18440000Y-13440000D02*
X18760000Y-13760000D01*
X18760000Y-13440000D02*
X18440000Y-13760000D01*
D11*
X5258277Y-14313984D02*
X5258277Y-14113984D01*
X5258277Y-14113984D02*
X5305896Y-14113984D01*
X5305896Y-14113984D02*
X5334467Y-14123508D01*
X5334467Y-14123508D02*
X5353515Y-14142555D01*
X5353515Y-14142555D02*
X5363039Y-14161603D01*
X5363039Y-14161603D02*
X5372563Y-14199698D01*
X5372563Y-14199698D02*
X5372563Y-14228269D01*
X5372563Y-14228269D02*
X5363039Y-14266365D01*
X5363039Y-14266365D02*
X5353515Y-14285412D01*
X5353515Y-14285412D02*
X5334467Y-14304460D01*
X5334467Y-14304460D02*
X5305896Y-14313984D01*
X5305896Y-14313984D02*
X5258277Y-14313984D01*
X5458277Y-14313984D02*
X5458277Y-14180650D01*
X5458277Y-14218746D02*
X5467801Y-14199698D01*
X5467801Y-14199698D02*
X5477324Y-14190174D01*
X5477324Y-14190174D02*
X5496372Y-14180650D01*
X5496372Y-14180650D02*
X5515420Y-14180650D01*
X5582086Y-14313984D02*
X5582086Y-14180650D01*
X5582086Y-14113984D02*
X5572563Y-14123508D01*
X5572563Y-14123508D02*
X5582086Y-14133031D01*
X5582086Y-14133031D02*
X5591610Y-14123508D01*
X5591610Y-14123508D02*
X5582086Y-14113984D01*
X5582086Y-14113984D02*
X5582086Y-14133031D01*
X5705896Y-14313984D02*
X5686848Y-14304460D01*
X5686848Y-14304460D02*
X5677324Y-14285412D01*
X5677324Y-14285412D02*
X5677324Y-14113984D01*
X5810658Y-14313984D02*
X5791610Y-14304460D01*
X5791610Y-14304460D02*
X5782086Y-14285412D01*
X5782086Y-14285412D02*
X5782086Y-14113984D01*
X6039229Y-14313984D02*
X6039229Y-14113984D01*
X6039229Y-14113984D02*
X6105896Y-14256841D01*
X6105896Y-14256841D02*
X6172562Y-14113984D01*
X6172562Y-14113984D02*
X6172562Y-14313984D01*
X6353515Y-14313984D02*
X6353515Y-14209222D01*
X6353515Y-14209222D02*
X6343991Y-14190174D01*
X6343991Y-14190174D02*
X6324943Y-14180650D01*
X6324943Y-14180650D02*
X6286848Y-14180650D01*
X6286848Y-14180650D02*
X6267801Y-14190174D01*
X6353515Y-14304460D02*
X6334467Y-14313984D01*
X6334467Y-14313984D02*
X6286848Y-14313984D01*
X6286848Y-14313984D02*
X6267801Y-14304460D01*
X6267801Y-14304460D02*
X6258277Y-14285412D01*
X6258277Y-14285412D02*
X6258277Y-14266365D01*
X6258277Y-14266365D02*
X6267801Y-14247317D01*
X6267801Y-14247317D02*
X6286848Y-14237793D01*
X6286848Y-14237793D02*
X6334467Y-14237793D01*
X6334467Y-14237793D02*
X6353515Y-14228269D01*
X6448753Y-14180650D02*
X6448753Y-14380650D01*
X6448753Y-14190174D02*
X6467801Y-14180650D01*
X6467801Y-14180650D02*
X6505896Y-14180650D01*
X6505896Y-14180650D02*
X6524943Y-14190174D01*
X6524943Y-14190174D02*
X6534467Y-14199698D01*
X6534467Y-14199698D02*
X6543991Y-14218746D01*
X6543991Y-14218746D02*
X6543991Y-14275888D01*
X6543991Y-14275888D02*
X6534467Y-14294936D01*
X6534467Y-14294936D02*
X6524943Y-14304460D01*
X6524943Y-14304460D02*
X6505896Y-14313984D01*
X6505896Y-14313984D02*
X6467801Y-14313984D01*
X6467801Y-14313984D02*
X6448753Y-14304460D01*
X6629705Y-14294936D02*
X6639229Y-14304460D01*
X6639229Y-14304460D02*
X6629705Y-14313984D01*
X6629705Y-14313984D02*
X6620182Y-14304460D01*
X6620182Y-14304460D02*
X6629705Y-14294936D01*
X6629705Y-14294936D02*
X6629705Y-14313984D01*
X6629705Y-14190174D02*
X6639229Y-14199698D01*
X6639229Y-14199698D02*
X6629705Y-14209222D01*
X6629705Y-14209222D02*
X6620182Y-14199698D01*
X6620182Y-14199698D02*
X6629705Y-14190174D01*
X6629705Y-14190174D02*
X6629705Y-14209222D01*
X4797500Y-14542500D02*
X4997500Y-14742500D01*
X4997500Y-14542500D02*
X4797500Y-14742500D01*
X5239229Y-14533984D02*
X5363039Y-14533984D01*
X5363039Y-14533984D02*
X5296372Y-14610174D01*
X5296372Y-14610174D02*
X5324944Y-14610174D01*
X5324944Y-14610174D02*
X5343991Y-14619698D01*
X5343991Y-14619698D02*
X5353515Y-14629222D01*
X5353515Y-14629222D02*
X5363039Y-14648269D01*
X5363039Y-14648269D02*
X5363039Y-14695888D01*
X5363039Y-14695888D02*
X5353515Y-14714936D01*
X5353515Y-14714936D02*
X5343991Y-14724460D01*
X5343991Y-14724460D02*
X5324944Y-14733984D01*
X5324944Y-14733984D02*
X5267801Y-14733984D01*
X5267801Y-14733984D02*
X5248753Y-14724460D01*
X5248753Y-14724460D02*
X5239229Y-14714936D01*
X5448753Y-14714936D02*
X5458277Y-14724460D01*
X5458277Y-14724460D02*
X5448753Y-14733984D01*
X5448753Y-14733984D02*
X5439229Y-14724460D01*
X5439229Y-14724460D02*
X5448753Y-14714936D01*
X5448753Y-14714936D02*
X5448753Y-14733984D01*
X5534467Y-14553031D02*
X5543991Y-14543508D01*
X5543991Y-14543508D02*
X5563039Y-14533984D01*
X5563039Y-14533984D02*
X5610658Y-14533984D01*
X5610658Y-14533984D02*
X5629705Y-14543508D01*
X5629705Y-14543508D02*
X5639229Y-14553031D01*
X5639229Y-14553031D02*
X5648753Y-14572079D01*
X5648753Y-14572079D02*
X5648753Y-14591127D01*
X5648753Y-14591127D02*
X5639229Y-14619698D01*
X5639229Y-14619698D02*
X5524944Y-14733984D01*
X5524944Y-14733984D02*
X5648753Y-14733984D01*
X5772562Y-14533984D02*
X5791610Y-14533984D01*
X5791610Y-14533984D02*
X5810658Y-14543508D01*
X5810658Y-14543508D02*
X5820182Y-14553031D01*
X5820182Y-14553031D02*
X5829705Y-14572079D01*
X5829705Y-14572079D02*
X5839229Y-14610174D01*
X5839229Y-14610174D02*
X5839229Y-14657793D01*
X5839229Y-14657793D02*
X5829705Y-14695888D01*
X5829705Y-14695888D02*
X5820182Y-14714936D01*
X5820182Y-14714936D02*
X5810658Y-14724460D01*
X5810658Y-14724460D02*
X5791610Y-14733984D01*
X5791610Y-14733984D02*
X5772562Y-14733984D01*
X5772562Y-14733984D02*
X5753515Y-14724460D01*
X5753515Y-14724460D02*
X5743991Y-14714936D01*
X5743991Y-14714936D02*
X5734467Y-14695888D01*
X5734467Y-14695888D02*
X5724943Y-14657793D01*
X5724943Y-14657793D02*
X5724943Y-14610174D01*
X5724943Y-14610174D02*
X5734467Y-14572079D01*
X5734467Y-14572079D02*
X5743991Y-14553031D01*
X5743991Y-14553031D02*
X5753515Y-14543508D01*
X5753515Y-14543508D02*
X5772562Y-14533984D01*
X5963039Y-14533984D02*
X5982086Y-14533984D01*
X5982086Y-14533984D02*
X6001134Y-14543508D01*
X6001134Y-14543508D02*
X6010658Y-14553031D01*
X6010658Y-14553031D02*
X6020182Y-14572079D01*
X6020182Y-14572079D02*
X6029705Y-14610174D01*
X6029705Y-14610174D02*
X6029705Y-14657793D01*
X6029705Y-14657793D02*
X6020182Y-14695888D01*
X6020182Y-14695888D02*
X6010658Y-14714936D01*
X6010658Y-14714936D02*
X6001134Y-14724460D01*
X6001134Y-14724460D02*
X5982086Y-14733984D01*
X5982086Y-14733984D02*
X5963039Y-14733984D01*
X5963039Y-14733984D02*
X5943991Y-14724460D01*
X5943991Y-14724460D02*
X5934467Y-14714936D01*
X5934467Y-14714936D02*
X5924943Y-14695888D01*
X5924943Y-14695888D02*
X5915420Y-14657793D01*
X5915420Y-14657793D02*
X5915420Y-14610174D01*
X5915420Y-14610174D02*
X5924943Y-14572079D01*
X5924943Y-14572079D02*
X5934467Y-14553031D01*
X5934467Y-14553031D02*
X5943991Y-14543508D01*
X5943991Y-14543508D02*
X5963039Y-14533984D01*
X6115420Y-14733984D02*
X6115420Y-14600650D01*
X6115420Y-14619698D02*
X6124943Y-14610174D01*
X6124943Y-14610174D02*
X6143991Y-14600650D01*
X6143991Y-14600650D02*
X6172563Y-14600650D01*
X6172563Y-14600650D02*
X6191610Y-14610174D01*
X6191610Y-14610174D02*
X6201134Y-14629222D01*
X6201134Y-14629222D02*
X6201134Y-14733984D01*
X6201134Y-14629222D02*
X6210658Y-14610174D01*
X6210658Y-14610174D02*
X6229705Y-14600650D01*
X6229705Y-14600650D02*
X6258277Y-14600650D01*
X6258277Y-14600650D02*
X6277324Y-14610174D01*
X6277324Y-14610174D02*
X6286848Y-14629222D01*
X6286848Y-14629222D02*
X6286848Y-14733984D01*
X6382086Y-14733984D02*
X6382086Y-14600650D01*
X6382086Y-14619698D02*
X6391610Y-14610174D01*
X6391610Y-14610174D02*
X6410658Y-14600650D01*
X6410658Y-14600650D02*
X6439229Y-14600650D01*
X6439229Y-14600650D02*
X6458277Y-14610174D01*
X6458277Y-14610174D02*
X6467801Y-14629222D01*
X6467801Y-14629222D02*
X6467801Y-14733984D01*
X6467801Y-14629222D02*
X6477324Y-14610174D01*
X6477324Y-14610174D02*
X6496372Y-14600650D01*
X6496372Y-14600650D02*
X6524943Y-14600650D01*
X6524943Y-14600650D02*
X6543991Y-14610174D01*
X6543991Y-14610174D02*
X6553515Y-14629222D01*
X6553515Y-14629222D02*
X6553515Y-14733984D01*
X6943991Y-14524460D02*
X6772563Y-14781603D01*
X7201134Y-14533984D02*
X7220182Y-14533984D01*
X7220182Y-14533984D02*
X7239229Y-14543508D01*
X7239229Y-14543508D02*
X7248753Y-14553031D01*
X7248753Y-14553031D02*
X7258277Y-14572079D01*
X7258277Y-14572079D02*
X7267801Y-14610174D01*
X7267801Y-14610174D02*
X7267801Y-14657793D01*
X7267801Y-14657793D02*
X7258277Y-14695888D01*
X7258277Y-14695888D02*
X7248753Y-14714936D01*
X7248753Y-14714936D02*
X7239229Y-14724460D01*
X7239229Y-14724460D02*
X7220182Y-14733984D01*
X7220182Y-14733984D02*
X7201134Y-14733984D01*
X7201134Y-14733984D02*
X7182086Y-14724460D01*
X7182086Y-14724460D02*
X7172563Y-14714936D01*
X7172563Y-14714936D02*
X7163039Y-14695888D01*
X7163039Y-14695888D02*
X7153515Y-14657793D01*
X7153515Y-14657793D02*
X7153515Y-14610174D01*
X7153515Y-14610174D02*
X7163039Y-14572079D01*
X7163039Y-14572079D02*
X7172563Y-14553031D01*
X7172563Y-14553031D02*
X7182086Y-14543508D01*
X7182086Y-14543508D02*
X7201134Y-14533984D01*
X7353515Y-14714936D02*
X7363039Y-14724460D01*
X7363039Y-14724460D02*
X7353515Y-14733984D01*
X7353515Y-14733984D02*
X7343991Y-14724460D01*
X7343991Y-14724460D02*
X7353515Y-14714936D01*
X7353515Y-14714936D02*
X7353515Y-14733984D01*
X7553515Y-14733984D02*
X7439229Y-14733984D01*
X7496372Y-14733984D02*
X7496372Y-14533984D01*
X7496372Y-14533984D02*
X7477325Y-14562555D01*
X7477325Y-14562555D02*
X7458277Y-14581603D01*
X7458277Y-14581603D02*
X7439229Y-14591127D01*
X7629706Y-14553031D02*
X7639229Y-14543508D01*
X7639229Y-14543508D02*
X7658277Y-14533984D01*
X7658277Y-14533984D02*
X7705896Y-14533984D01*
X7705896Y-14533984D02*
X7724944Y-14543508D01*
X7724944Y-14543508D02*
X7734467Y-14553031D01*
X7734467Y-14553031D02*
X7743991Y-14572079D01*
X7743991Y-14572079D02*
X7743991Y-14591127D01*
X7743991Y-14591127D02*
X7734467Y-14619698D01*
X7734467Y-14619698D02*
X7620182Y-14733984D01*
X7620182Y-14733984D02*
X7743991Y-14733984D01*
X7915420Y-14533984D02*
X7877325Y-14533984D01*
X7877325Y-14533984D02*
X7858277Y-14543508D01*
X7858277Y-14543508D02*
X7848753Y-14553031D01*
X7848753Y-14553031D02*
X7829706Y-14581603D01*
X7829706Y-14581603D02*
X7820182Y-14619698D01*
X7820182Y-14619698D02*
X7820182Y-14695888D01*
X7820182Y-14695888D02*
X7829706Y-14714936D01*
X7829706Y-14714936D02*
X7839229Y-14724460D01*
X7839229Y-14724460D02*
X7858277Y-14733984D01*
X7858277Y-14733984D02*
X7896372Y-14733984D01*
X7896372Y-14733984D02*
X7915420Y-14724460D01*
X7915420Y-14724460D02*
X7924944Y-14714936D01*
X7924944Y-14714936D02*
X7934467Y-14695888D01*
X7934467Y-14695888D02*
X7934467Y-14648269D01*
X7934467Y-14648269D02*
X7924944Y-14629222D01*
X7924944Y-14629222D02*
X7915420Y-14619698D01*
X7915420Y-14619698D02*
X7896372Y-14610174D01*
X7896372Y-14610174D02*
X7858277Y-14610174D01*
X7858277Y-14610174D02*
X7839229Y-14619698D01*
X7839229Y-14619698D02*
X7829706Y-14629222D01*
X7829706Y-14629222D02*
X7820182Y-14648269D01*
X8058277Y-14533984D02*
X8077325Y-14533984D01*
X8077325Y-14533984D02*
X8096372Y-14543508D01*
X8096372Y-14543508D02*
X8105896Y-14553031D01*
X8105896Y-14553031D02*
X8115420Y-14572079D01*
X8115420Y-14572079D02*
X8124944Y-14610174D01*
X8124944Y-14610174D02*
X8124944Y-14657793D01*
X8124944Y-14657793D02*
X8115420Y-14695888D01*
X8115420Y-14695888D02*
X8105896Y-14714936D01*
X8105896Y-14714936D02*
X8096372Y-14724460D01*
X8096372Y-14724460D02*
X8077325Y-14733984D01*
X8077325Y-14733984D02*
X8058277Y-14733984D01*
X8058277Y-14733984D02*
X8039229Y-14724460D01*
X8039229Y-14724460D02*
X8029706Y-14714936D01*
X8029706Y-14714936D02*
X8020182Y-14695888D01*
X8020182Y-14695888D02*
X8010658Y-14657793D01*
X8010658Y-14657793D02*
X8010658Y-14610174D01*
X8010658Y-14610174D02*
X8020182Y-14572079D01*
X8020182Y-14572079D02*
X8029706Y-14553031D01*
X8029706Y-14553031D02*
X8039229Y-14543508D01*
X8039229Y-14543508D02*
X8058277Y-14533984D01*
X8201134Y-14533984D02*
X8201134Y-14572079D01*
X8277325Y-14533984D02*
X8277325Y-14572079D01*
X8572563Y-14810174D02*
X8563039Y-14800650D01*
X8563039Y-14800650D02*
X8543991Y-14772079D01*
X8543991Y-14772079D02*
X8534468Y-14753031D01*
X8534468Y-14753031D02*
X8524944Y-14724460D01*
X8524944Y-14724460D02*
X8515420Y-14676841D01*
X8515420Y-14676841D02*
X8515420Y-14638746D01*
X8515420Y-14638746D02*
X8524944Y-14591127D01*
X8524944Y-14591127D02*
X8534468Y-14562555D01*
X8534468Y-14562555D02*
X8543991Y-14543508D01*
X8543991Y-14543508D02*
X8563039Y-14514936D01*
X8563039Y-14514936D02*
X8572563Y-14505412D01*
X8734468Y-14600650D02*
X8734468Y-14733984D01*
X8686849Y-14524460D02*
X8639230Y-14667317D01*
X8639230Y-14667317D02*
X8763039Y-14667317D01*
X8991611Y-14733984D02*
X8991611Y-14533984D01*
X9077325Y-14733984D02*
X9077325Y-14629222D01*
X9077325Y-14629222D02*
X9067801Y-14610174D01*
X9067801Y-14610174D02*
X9048753Y-14600650D01*
X9048753Y-14600650D02*
X9020182Y-14600650D01*
X9020182Y-14600650D02*
X9001134Y-14610174D01*
X9001134Y-14610174D02*
X8991611Y-14619698D01*
X9201134Y-14733984D02*
X9182087Y-14724460D01*
X9182087Y-14724460D02*
X9172563Y-14714936D01*
X9172563Y-14714936D02*
X9163039Y-14695888D01*
X9163039Y-14695888D02*
X9163039Y-14638746D01*
X9163039Y-14638746D02*
X9172563Y-14619698D01*
X9172563Y-14619698D02*
X9182087Y-14610174D01*
X9182087Y-14610174D02*
X9201134Y-14600650D01*
X9201134Y-14600650D02*
X9229706Y-14600650D01*
X9229706Y-14600650D02*
X9248753Y-14610174D01*
X9248753Y-14610174D02*
X9258277Y-14619698D01*
X9258277Y-14619698D02*
X9267801Y-14638746D01*
X9267801Y-14638746D02*
X9267801Y-14695888D01*
X9267801Y-14695888D02*
X9258277Y-14714936D01*
X9258277Y-14714936D02*
X9248753Y-14724460D01*
X9248753Y-14724460D02*
X9229706Y-14733984D01*
X9229706Y-14733984D02*
X9201134Y-14733984D01*
X9382087Y-14733984D02*
X9363039Y-14724460D01*
X9363039Y-14724460D02*
X9353515Y-14705412D01*
X9353515Y-14705412D02*
X9353515Y-14533984D01*
X9534468Y-14724460D02*
X9515420Y-14733984D01*
X9515420Y-14733984D02*
X9477325Y-14733984D01*
X9477325Y-14733984D02*
X9458277Y-14724460D01*
X9458277Y-14724460D02*
X9448753Y-14705412D01*
X9448753Y-14705412D02*
X9448753Y-14629222D01*
X9448753Y-14629222D02*
X9458277Y-14610174D01*
X9458277Y-14610174D02*
X9477325Y-14600650D01*
X9477325Y-14600650D02*
X9515420Y-14600650D01*
X9515420Y-14600650D02*
X9534468Y-14610174D01*
X9534468Y-14610174D02*
X9543992Y-14629222D01*
X9543992Y-14629222D02*
X9543992Y-14648269D01*
X9543992Y-14648269D02*
X9448753Y-14667317D01*
X9620182Y-14724460D02*
X9639230Y-14733984D01*
X9639230Y-14733984D02*
X9677325Y-14733984D01*
X9677325Y-14733984D02*
X9696373Y-14724460D01*
X9696373Y-14724460D02*
X9705896Y-14705412D01*
X9705896Y-14705412D02*
X9705896Y-14695888D01*
X9705896Y-14695888D02*
X9696373Y-14676841D01*
X9696373Y-14676841D02*
X9677325Y-14667317D01*
X9677325Y-14667317D02*
X9648753Y-14667317D01*
X9648753Y-14667317D02*
X9629706Y-14657793D01*
X9629706Y-14657793D02*
X9620182Y-14638746D01*
X9620182Y-14638746D02*
X9620182Y-14629222D01*
X9620182Y-14629222D02*
X9629706Y-14610174D01*
X9629706Y-14610174D02*
X9648753Y-14600650D01*
X9648753Y-14600650D02*
X9677325Y-14600650D01*
X9677325Y-14600650D02*
X9696373Y-14610174D01*
X9772563Y-14810174D02*
X9782087Y-14800650D01*
X9782087Y-14800650D02*
X9801134Y-14772079D01*
X9801134Y-14772079D02*
X9810658Y-14753031D01*
X9810658Y-14753031D02*
X9820182Y-14724460D01*
X9820182Y-14724460D02*
X9829706Y-14676841D01*
X9829706Y-14676841D02*
X9829706Y-14638746D01*
X9829706Y-14638746D02*
X9820182Y-14591127D01*
X9820182Y-14591127D02*
X9810658Y-14562555D01*
X9810658Y-14562555D02*
X9801134Y-14543508D01*
X9801134Y-14543508D02*
X9782087Y-14514936D01*
X9782087Y-14514936D02*
X9772563Y-14505412D01*
X10134468Y-14810174D02*
X10124944Y-14800650D01*
X10124944Y-14800650D02*
X10105896Y-14772079D01*
X10105896Y-14772079D02*
X10096373Y-14753031D01*
X10096373Y-14753031D02*
X10086849Y-14724460D01*
X10086849Y-14724460D02*
X10077325Y-14676841D01*
X10077325Y-14676841D02*
X10077325Y-14638746D01*
X10077325Y-14638746D02*
X10086849Y-14591127D01*
X10086849Y-14591127D02*
X10096373Y-14562555D01*
X10096373Y-14562555D02*
X10105896Y-14543508D01*
X10105896Y-14543508D02*
X10124944Y-14514936D01*
X10124944Y-14514936D02*
X10134468Y-14505412D01*
X10210658Y-14600650D02*
X10210658Y-14733984D01*
X10210658Y-14619698D02*
X10220182Y-14610174D01*
X10220182Y-14610174D02*
X10239230Y-14600650D01*
X10239230Y-14600650D02*
X10267801Y-14600650D01*
X10267801Y-14600650D02*
X10286849Y-14610174D01*
X10286849Y-14610174D02*
X10296373Y-14629222D01*
X10296373Y-14629222D02*
X10296373Y-14733984D01*
X10420182Y-14733984D02*
X10401134Y-14724460D01*
X10401134Y-14724460D02*
X10391611Y-14714936D01*
X10391611Y-14714936D02*
X10382087Y-14695888D01*
X10382087Y-14695888D02*
X10382087Y-14638746D01*
X10382087Y-14638746D02*
X10391611Y-14619698D01*
X10391611Y-14619698D02*
X10401134Y-14610174D01*
X10401134Y-14610174D02*
X10420182Y-14600650D01*
X10420182Y-14600650D02*
X10448754Y-14600650D01*
X10448754Y-14600650D02*
X10467801Y-14610174D01*
X10467801Y-14610174D02*
X10477325Y-14619698D01*
X10477325Y-14619698D02*
X10486849Y-14638746D01*
X10486849Y-14638746D02*
X10486849Y-14695888D01*
X10486849Y-14695888D02*
X10477325Y-14714936D01*
X10477325Y-14714936D02*
X10467801Y-14724460D01*
X10467801Y-14724460D02*
X10448754Y-14733984D01*
X10448754Y-14733984D02*
X10420182Y-14733984D01*
X10543992Y-14600650D02*
X10620182Y-14600650D01*
X10572563Y-14533984D02*
X10572563Y-14705412D01*
X10572563Y-14705412D02*
X10582087Y-14724460D01*
X10582087Y-14724460D02*
X10601134Y-14733984D01*
X10601134Y-14733984D02*
X10620182Y-14733984D01*
X10839230Y-14600650D02*
X10839230Y-14800650D01*
X10839230Y-14610174D02*
X10858277Y-14600650D01*
X10858277Y-14600650D02*
X10896373Y-14600650D01*
X10896373Y-14600650D02*
X10915420Y-14610174D01*
X10915420Y-14610174D02*
X10924944Y-14619698D01*
X10924944Y-14619698D02*
X10934468Y-14638746D01*
X10934468Y-14638746D02*
X10934468Y-14695888D01*
X10934468Y-14695888D02*
X10924944Y-14714936D01*
X10924944Y-14714936D02*
X10915420Y-14724460D01*
X10915420Y-14724460D02*
X10896373Y-14733984D01*
X10896373Y-14733984D02*
X10858277Y-14733984D01*
X10858277Y-14733984D02*
X10839230Y-14724460D01*
X11048754Y-14733984D02*
X11029706Y-14724460D01*
X11029706Y-14724460D02*
X11020182Y-14705412D01*
X11020182Y-14705412D02*
X11020182Y-14533984D01*
X11210658Y-14733984D02*
X11210658Y-14629222D01*
X11210658Y-14629222D02*
X11201134Y-14610174D01*
X11201134Y-14610174D02*
X11182087Y-14600650D01*
X11182087Y-14600650D02*
X11143992Y-14600650D01*
X11143992Y-14600650D02*
X11124944Y-14610174D01*
X11210658Y-14724460D02*
X11191611Y-14733984D01*
X11191611Y-14733984D02*
X11143992Y-14733984D01*
X11143992Y-14733984D02*
X11124944Y-14724460D01*
X11124944Y-14724460D02*
X11115420Y-14705412D01*
X11115420Y-14705412D02*
X11115420Y-14686365D01*
X11115420Y-14686365D02*
X11124944Y-14667317D01*
X11124944Y-14667317D02*
X11143992Y-14657793D01*
X11143992Y-14657793D02*
X11191611Y-14657793D01*
X11191611Y-14657793D02*
X11210658Y-14648269D01*
X11277325Y-14600650D02*
X11353515Y-14600650D01*
X11305896Y-14533984D02*
X11305896Y-14705412D01*
X11305896Y-14705412D02*
X11315420Y-14724460D01*
X11315420Y-14724460D02*
X11334468Y-14733984D01*
X11334468Y-14733984D02*
X11353515Y-14733984D01*
X11496373Y-14724460D02*
X11477325Y-14733984D01*
X11477325Y-14733984D02*
X11439230Y-14733984D01*
X11439230Y-14733984D02*
X11420182Y-14724460D01*
X11420182Y-14724460D02*
X11410658Y-14705412D01*
X11410658Y-14705412D02*
X11410658Y-14629222D01*
X11410658Y-14629222D02*
X11420182Y-14610174D01*
X11420182Y-14610174D02*
X11439230Y-14600650D01*
X11439230Y-14600650D02*
X11477325Y-14600650D01*
X11477325Y-14600650D02*
X11496373Y-14610174D01*
X11496373Y-14610174D02*
X11505896Y-14629222D01*
X11505896Y-14629222D02*
X11505896Y-14648269D01*
X11505896Y-14648269D02*
X11410658Y-14667317D01*
X11677325Y-14733984D02*
X11677325Y-14533984D01*
X11677325Y-14724460D02*
X11658277Y-14733984D01*
X11658277Y-14733984D02*
X11620182Y-14733984D01*
X11620182Y-14733984D02*
X11601134Y-14724460D01*
X11601134Y-14724460D02*
X11591611Y-14714936D01*
X11591611Y-14714936D02*
X11582087Y-14695888D01*
X11582087Y-14695888D02*
X11582087Y-14638746D01*
X11582087Y-14638746D02*
X11591611Y-14619698D01*
X11591611Y-14619698D02*
X11601134Y-14610174D01*
X11601134Y-14610174D02*
X11620182Y-14600650D01*
X11620182Y-14600650D02*
X11658277Y-14600650D01*
X11658277Y-14600650D02*
X11677325Y-14610174D01*
X11753515Y-14810174D02*
X11763039Y-14800650D01*
X11763039Y-14800650D02*
X11782087Y-14772079D01*
X11782087Y-14772079D02*
X11791611Y-14753031D01*
X11791611Y-14753031D02*
X11801134Y-14724460D01*
X11801134Y-14724460D02*
X11810658Y-14676841D01*
X11810658Y-14676841D02*
X11810658Y-14638746D01*
X11810658Y-14638746D02*
X11801134Y-14591127D01*
X11801134Y-14591127D02*
X11791611Y-14562555D01*
X11791611Y-14562555D02*
X11782087Y-14543508D01*
X11782087Y-14543508D02*
X11763039Y-14514936D01*
X11763039Y-14514936D02*
X11753515Y-14505412D01*
M02*
