G04 #@! TF.GenerationSoftware,KiCad,Pcbnew,10.0.4*
G04 #@! TF.CreationDate,2026-10-09T08:21:26-04:00*
G04 #@! TF.ProjectId,dual_adc_usb,6475616c-5f61-4646-935f-7573622e6b69,rev?*
G04 #@! TF.SameCoordinates,Original*
G04 #@! TF.FileFunction,Copper,L4,Bot*
G04 #@! TF.FilePolarity,Positive*
%FSLAX46Y46*%
G04 Gerber Fmt 4.6, Leading zero omitted, Abs format (unit mm)*
G04 Created by KiCad (PCBNEW 10.0.4) date 2026-10-09 08:21:26*
%MOMM*%
%LPD*%
G01*
G04 APERTURE LIST*
G04 #@! TA.AperFunction,ComponentPad*
%ADD10C,0.600000*%
G04 #@! TD*
G04 #@! TA.AperFunction,SMDPad,CuDef*
%ADD11R,1.000000X2.650000*%
G04 #@! TD*
G04 #@! TA.AperFunction,ComponentPad*
%ADD12R,1.700000X1.700000*%
G04 #@! TD*
G04 #@! TA.AperFunction,ComponentPad*
%ADD13C,1.700000*%
G04 #@! TD*
G04 #@! TA.AperFunction,ComponentPad*
%ADD14C,3.500000*%
G04 #@! TD*
G04 #@! TA.AperFunction,ComponentPad*
%ADD15O,2.500000X1.600000*%
G04 #@! TD*
G04 #@! TA.AperFunction,ComponentPad*
%ADD16O,7.000000X3.500000*%
G04 #@! TD*
G04 #@! TA.AperFunction,ViaPad*
%ADD17C,0.600000*%
G04 #@! TD*
G04 #@! TA.AperFunction,Conductor*
%ADD18C,0.400000*%
G04 #@! TD*
G04 #@! TA.AperFunction,Conductor*
%ADD19C,0.200000*%
G04 #@! TD*
G04 #@! TA.AperFunction,Conductor*
%ADD20C,0.280000*%
G04 #@! TD*
G04 APERTURE END LIST*
D10*
X85000000Y-91000000D03*
X85000000Y-92000000D03*
D11*
X85000000Y-92000000D03*
D10*
X85000000Y-93000000D03*
D12*
X120000000Y-136000000D03*
D13*
X120000000Y-133460000D03*
X122540000Y-136000000D03*
X122540000Y-133460000D03*
X125080000Y-136000000D03*
X125080000Y-133460000D03*
X127620000Y-136000000D03*
X127620000Y-133460000D03*
X130160000Y-136000000D03*
X130160000Y-133460000D03*
D12*
X125000000Y-65600000D03*
D13*
X127500000Y-65600000D03*
X127500000Y-63600000D03*
X125000000Y-63600000D03*
D14*
X120230000Y-60890000D03*
X132270000Y-60890000D03*
D15*
X62700000Y-70000000D03*
D16*
X57620000Y-75080000D03*
D15*
X62700000Y-72540001D03*
D16*
X57620000Y-64920000D03*
D15*
X62700000Y-112000000D03*
D16*
X57620000Y-117080000D03*
D15*
X62700000Y-114540001D03*
D16*
X57620000Y-106920000D03*
D17*
X129900000Y-97750000D03*
X162500000Y-130925000D03*
X155100000Y-110095000D03*
X129900000Y-85750000D03*
X163250000Y-81670999D03*
X144849999Y-67250000D03*
X141049999Y-64250000D03*
X163020000Y-55000000D03*
X177540000Y-94000000D03*
X154100001Y-83250000D03*
X161000000Y-111480000D03*
X176200000Y-122000000D03*
X159150000Y-66250000D03*
X154040000Y-81500000D03*
X157000000Y-111480000D03*
X146940000Y-57400000D03*
X177540000Y-84000000D03*
X174520000Y-126500000D03*
X177540000Y-86500000D03*
X177540000Y-88000000D03*
X176204999Y-91400000D03*
X155250000Y-74149999D03*
X148540000Y-117000000D03*
X177540000Y-90000000D03*
X177540000Y-92000000D03*
X164500000Y-129949999D03*
X154100001Y-87250000D03*
X165750000Y-83271000D03*
X155100000Y-111365000D03*
X177540000Y-96000000D03*
X161075000Y-69500000D03*
X163020000Y-57000000D03*
X164500000Y-128050000D03*
X178500000Y-124150000D03*
X152140000Y-57400000D03*
X156000000Y-135480000D03*
X154100001Y-92750000D03*
X149540000Y-57400000D03*
X159000000Y-111480000D03*
X130540000Y-107000000D03*
X152540000Y-109200000D03*
X160149998Y-52495000D03*
X163020000Y-53000000D03*
X163250000Y-104329000D03*
X128540000Y-108000000D03*
X143500000Y-72480000D03*
X144900000Y-112635000D03*
X161795000Y-89000000D03*
X123850000Y-108500000D03*
X144340000Y-58400000D03*
X137750000Y-104100000D03*
X161795000Y-93000000D03*
X160149998Y-55035000D03*
X143750001Y-79900000D03*
X179000000Y-101650000D03*
X140250000Y-76800000D03*
X143250001Y-104100000D03*
X161540000Y-71500000D03*
X151750000Y-59850000D03*
X148540000Y-105500000D03*
X150540000Y-108000000D03*
X149750000Y-74149999D03*
X164000000Y-135480000D03*
X170625000Y-122325000D03*
X177249999Y-85670999D03*
X174520000Y-131000000D03*
X150540000Y-76500000D03*
X150750001Y-104100000D03*
X156040000Y-59200000D03*
X152540000Y-75500000D03*
X118383333Y-88616666D03*
X133459999Y-108000000D03*
X180459999Y-90000000D03*
X141250000Y-104100000D03*
X144849999Y-63250000D03*
X149860000Y-59400000D03*
X90979998Y-89300000D03*
X144250001Y-104100000D03*
X80500000Y-87075000D03*
X107625000Y-70325000D03*
X93425000Y-76500000D03*
X101960000Y-106000000D03*
X129900000Y-90250000D03*
X164459999Y-65500000D03*
X159150000Y-63750000D03*
X163375000Y-121025000D03*
X165750000Y-85670999D03*
X79000000Y-71075000D03*
X123460000Y-82500000D03*
X129459999Y-78500000D03*
X177249999Y-83271000D03*
X115460000Y-82000000D03*
X112250000Y-85425000D03*
X109760000Y-93700000D03*
X178500000Y-119850000D03*
X131459999Y-109000000D03*
X116000000Y-88616666D03*
X138500000Y-56150000D03*
X93425000Y-65500000D03*
X139000000Y-73450000D03*
X174749999Y-104329000D03*
X110225000Y-86500000D03*
X180459999Y-92000000D03*
X126950000Y-81000000D03*
X93425000Y-107500000D03*
X119499999Y-101950000D03*
X111760000Y-98600000D03*
X180459999Y-84000000D03*
X95075000Y-113500000D03*
X144300000Y-107539999D03*
X179000000Y-97350000D03*
X164500000Y-129000000D03*
X116000000Y-57575000D03*
X154100001Y-85750000D03*
X156959999Y-106000000D03*
X156959999Y-81500000D03*
X137300000Y-57459999D03*
X174749999Y-81670999D03*
X131075000Y-112500000D03*
X93500000Y-86075000D03*
X90979998Y-96500000D03*
X180459999Y-86000000D03*
X135500000Y-66000000D03*
X144849999Y-71250000D03*
X89960000Y-66500000D03*
X160149998Y-56305000D03*
X155060000Y-58400000D03*
X109760000Y-91900000D03*
X144700000Y-57459999D03*
X151459999Y-117000000D03*
X126800000Y-84750000D03*
X77000000Y-71075000D03*
X159062500Y-135950000D03*
X149250001Y-104100000D03*
X121460000Y-82000000D03*
X119460000Y-82000000D03*
X139200000Y-106850000D03*
X151459999Y-105500000D03*
X155459999Y-108200000D03*
X144849999Y-70250000D03*
X141750000Y-79900000D03*
X79000000Y-113075000D03*
X153459999Y-107000000D03*
X116000000Y-91000000D03*
X164459999Y-67500000D03*
X145500000Y-74140000D03*
X152250000Y-74149999D03*
X143499999Y-57850000D03*
X144849999Y-68250000D03*
X144849999Y-69250000D03*
X114479998Y-101300000D03*
X180459999Y-88000000D03*
X176204999Y-89000000D03*
X176204999Y-93000000D03*
X93425000Y-118500000D03*
X164925000Y-61500000D03*
X109760000Y-100100000D03*
X162000000Y-119850000D03*
X164459999Y-71500000D03*
X163375000Y-122975000D03*
X88960000Y-118500000D03*
X89960000Y-108500000D03*
X135250000Y-79900000D03*
X154100001Y-94250000D03*
X133149999Y-76500000D03*
X101960000Y-64000000D03*
X112250000Y-96575000D03*
X106725000Y-99100000D03*
X171500000Y-128074999D03*
X113616666Y-91000000D03*
X118383333Y-93383333D03*
X154750000Y-59850000D03*
X178075000Y-131000000D03*
X129900000Y-89250000D03*
X101925000Y-118500000D03*
X139250000Y-79900000D03*
X128150000Y-109000000D03*
X164925000Y-69500000D03*
X117460000Y-82000000D03*
X98925000Y-84500000D03*
X152459999Y-59400000D03*
X164459999Y-63500000D03*
X113616666Y-88616666D03*
X177479999Y-128300000D03*
X95075000Y-71500000D03*
X88960000Y-76500000D03*
X144849999Y-65250000D03*
X143500000Y-60820001D03*
X153459999Y-77500000D03*
X93500000Y-93075000D03*
X101925000Y-76500000D03*
X113460000Y-82000000D03*
X162500000Y-127074999D03*
X115000000Y-54074999D03*
X86925000Y-97500000D03*
X156959999Y-78500000D03*
X131075000Y-110000000D03*
X180459999Y-94000000D03*
X97500000Y-88000000D03*
X161795000Y-91400000D03*
X144900000Y-113905000D03*
X121000000Y-99039999D03*
X147260000Y-59400000D03*
X83199999Y-120000000D03*
X77000000Y-113075000D03*
X118383333Y-91000000D03*
X113616666Y-93383333D03*
X116000000Y-93383333D03*
X159150000Y-69750000D03*
X129459999Y-106000000D03*
X107625000Y-112325000D03*
X155459999Y-76500000D03*
X104425000Y-84500000D03*
X83199999Y-78000000D03*
X127460000Y-71000000D03*
X158959999Y-59200000D03*
X180459999Y-96000000D03*
X114912700Y-83294100D03*
X110664000Y-90250000D03*
X113100000Y-96328300D03*
X120276400Y-85860900D03*
X115230800Y-96965500D03*
X89884900Y-88399900D03*
X96296700Y-115675700D03*
X93920200Y-69174500D03*
X88958800Y-91316300D03*
X89077600Y-97923400D03*
X84839300Y-105853100D03*
X83443200Y-112635000D03*
X81040500Y-115037700D03*
X103227400Y-66954100D03*
X101920400Y-71686200D03*
X111051500Y-109557700D03*
X111520900Y-95359500D03*
X111498300Y-96120600D03*
X112500000Y-110307000D03*
X150977000Y-94668700D03*
X155492800Y-100578900D03*
X170851600Y-95107500D03*
X159738000Y-100000000D03*
X163082400Y-122162200D03*
X128222400Y-79293100D03*
X84740800Y-88838100D03*
X83292200Y-91250000D03*
X83244000Y-94197500D03*
X83306200Y-97500000D03*
X82925400Y-93225000D03*
X86659900Y-92253500D03*
X87691200Y-91901800D03*
X84294800Y-94775000D03*
X106751900Y-93192000D03*
X109525600Y-90100000D03*
X99526300Y-69675000D03*
X102797000Y-86679500D03*
X113750000Y-85041100D03*
X159775800Y-66706400D03*
X157775800Y-108813900D03*
X138000000Y-68445000D03*
X138000000Y-66000000D03*
X142272700Y-105532400D03*
X132798900Y-94917500D03*
X154530300Y-90861400D03*
X157863200Y-107031900D03*
X146439000Y-75390300D03*
X152544300Y-78444300D03*
X143749700Y-95114500D03*
X129899900Y-96186500D03*
X146845100Y-84727700D03*
X88972400Y-110026500D03*
X90040000Y-115870100D03*
X88646500Y-115623200D03*
X85121300Y-111365000D03*
X115763300Y-98043800D03*
X103301300Y-98376300D03*
X103179800Y-111162700D03*
X159024100Y-83400000D03*
X153751100Y-101145700D03*
X160742400Y-100509100D03*
X161940100Y-85253500D03*
X162024900Y-95325000D03*
X161271600Y-86244300D03*
X150821200Y-99250000D03*
X154887500Y-87621200D03*
X161231600Y-88200000D03*
X154473500Y-97972200D03*
X155338600Y-95417900D03*
X160487500Y-93383300D03*
X153868500Y-97384100D03*
X155753000Y-88534500D03*
X151165000Y-97250000D03*
X154903100Y-88385700D03*
X164467300Y-92200000D03*
X161538200Y-94722200D03*
X160477000Y-94153000D03*
X158208200Y-82692500D03*
X170404600Y-92159900D03*
X137787400Y-80121400D03*
X136685100Y-82528200D03*
X156303500Y-107736500D03*
X147897100Y-97481900D03*
X142786300Y-95569200D03*
X161644300Y-96028400D03*
X156549100Y-98327700D03*
X164463200Y-95400000D03*
X154339200Y-107338800D03*
X149001000Y-86005500D03*
X168710600Y-95136800D03*
X158907700Y-97375900D03*
X149187400Y-87931000D03*
X160424400Y-97898000D03*
X154553900Y-84018500D03*
X150398000Y-95683000D03*
X155574900Y-98849600D03*
X161203400Y-99400000D03*
X151470900Y-84729400D03*
X161503800Y-100200000D03*
X151464000Y-92563200D03*
X153869900Y-89812600D03*
X158821500Y-101085700D03*
X154794200Y-93226800D03*
X156097700Y-93169600D03*
X150598500Y-90838300D03*
X151471400Y-99961400D03*
X161376200Y-102600000D03*
X155284200Y-90557000D03*
X151407800Y-88751600D03*
X154680300Y-105221800D03*
X146109700Y-89727600D03*
X173528500Y-101724400D03*
X158207900Y-90401000D03*
X164473400Y-100272600D03*
X158207900Y-86956000D03*
X166645600Y-99860400D03*
X167244000Y-99285900D03*
X161912900Y-86818000D03*
X168154600Y-96185600D03*
X159752900Y-85585000D03*
X167591400Y-97800000D03*
X161138800Y-85218100D03*
X148405500Y-86629300D03*
X170499900Y-96200000D03*
X164187000Y-80382700D03*
X170851600Y-94346100D03*
X173513100Y-92200000D03*
X154709100Y-104444700D03*
X166531600Y-104714300D03*
X151441000Y-96250000D03*
X165643700Y-91127100D03*
X159752500Y-94598600D03*
X151368800Y-95344300D03*
X172321300Y-89506400D03*
X162026100Y-103271200D03*
X154007100Y-103271200D03*
X159832200Y-91898700D03*
X167094400Y-88909600D03*
X168180200Y-87846600D03*
X147976400Y-92089900D03*
X164475200Y-91228200D03*
X160415500Y-91329200D03*
X165493100Y-88012500D03*
X160042600Y-90041700D03*
X157856200Y-91316800D03*
X158403500Y-81540200D03*
X129600000Y-66599999D03*
X150958000Y-60084400D03*
X155219700Y-133190700D03*
X139250000Y-103852700D03*
X133203000Y-101452800D03*
X134599400Y-101460900D03*
X135750000Y-105566800D03*
X134371400Y-104739500D03*
X136750000Y-101454400D03*
X136844000Y-103859900D03*
X111021700Y-69926100D03*
X110483100Y-85241100D03*
X110668800Y-87750000D03*
X110929300Y-72449200D03*
X147750100Y-101465900D03*
X156437400Y-64250000D03*
X148543000Y-60079900D03*
X151599300Y-52495000D03*
X155796500Y-54152000D03*
X156360200Y-62387000D03*
X121577500Y-102723400D03*
X132808600Y-92811600D03*
X110585700Y-91096200D03*
X114010000Y-98278100D03*
X116760700Y-96328600D03*
X122983500Y-89181800D03*
X132552000Y-93747300D03*
X117247800Y-97229400D03*
X133328000Y-94248200D03*
X118553200Y-97633600D03*
X121297800Y-95213100D03*
X118325800Y-96732600D03*
X132786500Y-96716400D03*
X119004200Y-96346200D03*
X122904500Y-94381700D03*
X125150500Y-96629300D03*
X124804000Y-94012100D03*
X126661400Y-97188200D03*
X129322100Y-93748700D03*
X132649900Y-98183500D03*
X134074800Y-98750000D03*
X130115000Y-93264700D03*
X126273000Y-92361200D03*
X130058800Y-98682400D03*
X130018500Y-99434200D03*
X125625000Y-91750000D03*
X127779200Y-91188400D03*
X129983100Y-91082200D03*
X122771200Y-90175200D03*
X128199900Y-83835000D03*
X122556900Y-84014900D03*
X121479500Y-89401600D03*
X122051900Y-88838000D03*
X123578900Y-84198300D03*
X125639500Y-88304000D03*
X132532500Y-84750000D03*
X129201500Y-86301700D03*
X128737300Y-87590300D03*
X118770300Y-85663600D03*
X132534400Y-87250000D03*
X127681300Y-86303400D03*
X132547900Y-88227400D03*
X129638500Y-87753800D03*
X123960800Y-85794400D03*
X124724300Y-85211700D03*
X128126800Y-88142000D03*
X132923000Y-85930200D03*
X117059600Y-83550300D03*
X122284200Y-82207700D03*
X118483200Y-83678500D03*
X115478500Y-85649100D03*
X132538200Y-91250000D03*
X110404500Y-97774800D03*
X110421900Y-101308300D03*
X114357900Y-85664300D03*
X134569600Y-108122700D03*
X133176700Y-103853500D03*
X134092700Y-103871400D03*
X136227500Y-111717500D03*
X100597900Y-112975000D03*
X102482400Y-109437900D03*
X146997100Y-101464400D03*
X158923900Y-64750000D03*
X161787100Y-110229200D03*
X148250000Y-103882200D03*
X156419200Y-66425100D03*
X148784500Y-101465600D03*
X147834000Y-109347100D03*
X156445200Y-67250000D03*
X158905500Y-68159400D03*
X155101400Y-112559000D03*
X151394700Y-102390800D03*
X153925700Y-78116300D03*
X152402400Y-70380300D03*
X148254600Y-74312100D03*
X148472400Y-78706900D03*
X145039300Y-83102900D03*
X147989000Y-71262800D03*
X148931300Y-73925600D03*
X148777300Y-79914500D03*
X147791400Y-79907300D03*
X150508500Y-73910400D03*
X146969300Y-79915000D03*
X149837500Y-71436100D03*
X148509200Y-75124700D03*
X148501700Y-77841500D03*
X151250000Y-71444100D03*
X147321800Y-71867600D03*
X151639800Y-74620000D03*
X149615300Y-77289800D03*
X153250000Y-74740800D03*
X149272600Y-75924300D03*
X147531100Y-82551100D03*
X151688000Y-79300600D03*
X146729100Y-72429200D03*
X154250000Y-71445100D03*
X147720900Y-83765000D03*
X154456800Y-73905700D03*
X142906300Y-80068400D03*
X149275000Y-70784800D03*
X140628300Y-80027700D03*
X155273600Y-71343100D03*
X145951700Y-72720900D03*
X148161500Y-69615300D03*
X89112500Y-73157100D03*
X89061900Y-68044300D03*
X88206700Y-74366100D03*
X86071500Y-69365000D03*
X145185600Y-62420200D03*
X147936800Y-67888500D03*
D18*
X115230800Y-91700400D02*
X115230800Y-90818900D01*
X114281000Y-98929900D02*
X113732600Y-98929900D01*
X112114400Y-91700400D02*
X115230800Y-91700400D01*
X118834200Y-87215500D02*
X120188800Y-85860900D01*
X110664000Y-90250000D02*
X112114400Y-91700400D01*
X115111500Y-98099400D02*
X114281000Y-98929900D01*
X115230800Y-96965500D02*
X115230800Y-91700400D01*
X120188800Y-85860900D02*
X120276400Y-85860900D01*
X113732600Y-98929900D02*
X113100000Y-98297300D01*
X115230800Y-90818900D02*
X118834200Y-87215500D01*
X113100000Y-98297300D02*
X113100000Y-96328300D01*
X115111500Y-97084800D02*
X115111500Y-98099400D01*
X115230800Y-96965500D02*
X115111500Y-97084800D01*
X118834200Y-87215500D02*
X114912700Y-83294100D01*
X89077600Y-97923400D02*
X96296700Y-105142500D01*
X89884900Y-73209800D02*
X93920200Y-69174500D01*
X96296700Y-105142500D02*
X96296700Y-115675700D01*
X89884900Y-88399900D02*
X88958800Y-89326000D01*
X89884900Y-88399900D02*
X89884900Y-73209800D01*
X89077600Y-91435000D02*
X89077600Y-97923400D01*
X88958800Y-89326000D02*
X88958800Y-91316300D01*
X89077500Y-91435000D02*
X89077600Y-91435000D01*
X88958800Y-91316300D02*
X89077500Y-91435000D01*
D19*
X83443200Y-112635000D02*
X81040500Y-115037700D01*
X84839300Y-105853100D02*
X83443200Y-107249200D01*
X83443200Y-107249200D02*
X83443200Y-112635000D01*
X103227400Y-66954100D02*
X103227400Y-70379200D01*
X103227400Y-70379200D02*
X101920400Y-71686200D01*
X110919600Y-95919200D02*
X111479300Y-95359500D01*
X111051500Y-109557700D02*
X111051500Y-97641600D01*
X111051500Y-97641600D02*
X110919600Y-97509700D01*
X110919600Y-97509700D02*
X110919600Y-95919200D01*
X111479300Y-95359500D02*
X111520900Y-95359500D01*
X112500000Y-97709500D02*
X112500000Y-110307000D01*
X111498300Y-96120600D02*
X111498300Y-96707800D01*
X111498300Y-96707800D02*
X112500000Y-97709500D01*
X150977000Y-94668700D02*
X151473500Y-94668700D01*
X151473500Y-94668700D02*
X152756700Y-95951900D01*
X152756700Y-97842800D02*
X155492800Y-100578900D01*
X152756700Y-95951900D02*
X152756700Y-97842800D01*
X166626000Y-101207500D02*
X171051700Y-96781800D01*
X171051700Y-96781800D02*
X171051700Y-95307600D01*
X159738000Y-100344800D02*
X160600700Y-101207500D01*
X159738000Y-100000000D02*
X159738000Y-100344800D01*
X171051700Y-95307600D02*
X170851600Y-95107500D01*
X160600700Y-101207500D02*
X166626000Y-101207500D01*
D18*
X141621000Y-105262600D02*
X141621000Y-105842000D01*
X141935300Y-104948300D02*
X141621000Y-105262600D01*
X141935300Y-93006000D02*
X141935300Y-104948300D01*
X163082400Y-122162100D02*
X163082400Y-122162200D01*
X157941100Y-122162100D02*
X163082400Y-122162100D01*
X128222400Y-79293100D02*
X141935300Y-93006000D01*
X141621000Y-105842000D02*
X157941100Y-122162100D01*
D19*
X84740800Y-88838100D02*
X83292200Y-90286700D01*
X83292200Y-90286700D02*
X83292200Y-91250000D01*
X83244000Y-97437800D02*
X83306200Y-97500000D01*
X83244000Y-94197500D02*
X83244000Y-97437800D01*
X82925400Y-93225000D02*
X83320500Y-93620100D01*
X83320500Y-93620100D02*
X85593800Y-93620100D01*
X85593800Y-93620100D02*
X86659900Y-92554000D01*
X86659900Y-92554000D02*
X86659900Y-92253500D01*
X84937800Y-94775000D02*
X84294800Y-94775000D01*
X87691200Y-92021600D02*
X84937800Y-94775000D01*
X87691200Y-91901800D02*
X87691200Y-92021600D01*
X106751900Y-93192000D02*
X106751900Y-92873700D01*
X106751900Y-92873700D02*
X109525600Y-90100000D01*
X104436700Y-88319200D02*
X110924900Y-88319200D01*
X99526300Y-83408800D02*
X102797000Y-86679500D01*
X113750000Y-85494100D02*
X113750000Y-85041100D01*
X102797000Y-86679500D02*
X104436700Y-88319200D01*
X99526300Y-69675000D02*
X99526300Y-83408800D01*
X110924900Y-88319200D02*
X113750000Y-85494100D01*
X173255200Y-87060600D02*
X160479200Y-74284600D01*
X172458500Y-96939700D02*
X172458500Y-90998600D01*
X157775800Y-108813900D02*
X160584400Y-108813900D01*
X160479200Y-67409800D02*
X159775800Y-66706400D01*
X172458500Y-90998600D02*
X173255200Y-90201900D01*
X160584400Y-108813800D02*
X172458500Y-96939700D01*
X160479200Y-74284600D02*
X160479200Y-67409800D01*
X160584400Y-108813900D02*
X160584400Y-108813800D01*
X173255200Y-90201900D02*
X173255200Y-87060600D01*
D18*
X138000000Y-66000000D02*
X138000000Y-68445000D01*
X152544300Y-78444300D02*
X151296900Y-78444300D01*
X142492700Y-105312400D02*
X142492700Y-96784400D01*
X146297500Y-80205400D02*
X146297500Y-75531800D01*
X149173000Y-80568200D02*
X146845100Y-80568200D01*
X146845100Y-80568200D02*
X146660300Y-80568200D01*
X154530300Y-90861400D02*
X154530300Y-91479700D01*
X143749700Y-95527400D02*
X143749700Y-95114500D01*
X128617500Y-93513000D02*
X129519100Y-92611400D01*
X155446000Y-92395400D02*
X155446000Y-93465700D01*
X157863200Y-98744800D02*
X157863200Y-107031900D01*
X155446000Y-93465700D02*
X155990500Y-94010200D01*
X154530300Y-91479700D02*
X155446000Y-92395400D01*
X143749700Y-87823100D02*
X146845100Y-84727700D01*
X146845100Y-84727700D02*
X146845100Y-80568200D01*
X143749700Y-95114500D02*
X143749700Y-87823100D01*
X129899900Y-96186500D02*
X128617500Y-94904100D01*
X130492800Y-92611400D02*
X132798900Y-94917500D01*
X142492700Y-96784400D02*
X143749700Y-95527400D01*
X155990500Y-96821900D02*
X157200900Y-98032300D01*
X146297500Y-75531800D02*
X146439000Y-75390300D01*
X155990500Y-94010200D02*
X155990500Y-96821900D01*
X146660300Y-80568200D02*
X146297500Y-80205400D01*
X157200900Y-98082500D02*
X157863200Y-98744800D01*
X129519100Y-92611400D02*
X130492800Y-92611400D01*
X157200900Y-98032300D02*
X157200900Y-98082500D01*
X142272700Y-105532400D02*
X142492700Y-105312400D01*
X151296900Y-78444300D02*
X149173000Y-80568200D01*
X128617500Y-94904100D02*
X128617500Y-93513000D01*
D19*
X90040000Y-115870100D02*
X88972400Y-114802500D01*
X88972400Y-114802500D02*
X88972400Y-110026500D01*
X85121300Y-112098000D02*
X85121300Y-111365000D01*
X88646500Y-115623200D02*
X85121300Y-112098000D01*
X115763300Y-107832000D02*
X115763300Y-98043800D01*
X103179800Y-98497800D02*
X103179800Y-111162700D01*
X103179800Y-111162700D02*
X112432600Y-111162700D01*
X112432600Y-111162700D02*
X115763300Y-107832000D01*
X103301300Y-98376300D02*
X103179800Y-98497800D01*
X159024100Y-81351300D02*
X159024100Y-83400000D01*
X151946400Y-101713900D02*
X148448800Y-98216300D01*
X148448800Y-97253400D02*
X148369500Y-97174100D01*
X148369500Y-92477000D02*
X148528100Y-92318400D01*
X155326400Y-105434500D02*
X154970200Y-105790700D01*
X154469000Y-105790700D02*
X151946400Y-103268100D01*
X155326400Y-102721000D02*
X155326400Y-105434500D01*
X148528100Y-87809900D02*
X149904400Y-86433600D01*
X148448800Y-98216300D02*
X148448800Y-97253400D01*
X153751100Y-101145700D02*
X155326400Y-102721000D01*
X149904400Y-86433600D02*
X149904400Y-85515500D01*
X156668800Y-80897600D02*
X158570400Y-80897600D01*
X153055600Y-82364300D02*
X155202100Y-82364300D01*
X154970200Y-105790700D02*
X154469000Y-105790700D01*
X149904400Y-85515500D02*
X153055600Y-82364300D01*
X155202100Y-82364300D02*
X156668800Y-80897600D01*
X148528100Y-92318400D02*
X148528100Y-87809900D01*
X148369500Y-97174100D02*
X148369500Y-92477000D01*
X158570400Y-80897600D02*
X159024100Y-81351300D01*
X151946400Y-103268100D02*
X151946400Y-101713900D01*
X161940100Y-85253500D02*
X167591500Y-90904900D01*
X167591500Y-96723700D02*
X168143300Y-97275500D01*
X167591500Y-90904900D02*
X167591500Y-96723700D01*
X168143300Y-97275500D02*
X168143300Y-99173900D01*
X166491000Y-100826200D02*
X161059500Y-100826200D01*
X161059500Y-100826200D02*
X160742400Y-100509100D01*
X168143300Y-99173900D02*
X166491000Y-100826200D01*
X162219600Y-95325000D02*
X165080000Y-92464600D01*
X161271600Y-86956800D02*
X161271600Y-86244300D01*
X162024900Y-95325000D02*
X162219600Y-95325000D01*
X165080000Y-92464600D02*
X165080000Y-90765200D01*
X165080000Y-90765200D02*
X161271600Y-86956800D01*
X149266100Y-91390600D02*
X150370100Y-90286600D01*
X150857400Y-90286600D02*
X152953700Y-88190300D01*
X149266100Y-92575000D02*
X149266100Y-91390600D01*
X150370100Y-90286600D02*
X150857400Y-90286600D01*
X152953700Y-88190300D02*
X154318500Y-88190300D01*
X150821200Y-99250000D02*
X150821200Y-98631200D01*
X149127900Y-92713200D02*
X149266100Y-92575000D01*
X149127900Y-96937900D02*
X149127900Y-92713200D01*
X154318500Y-88190200D02*
X154887500Y-87621200D01*
X150821200Y-98631200D02*
X149127900Y-96937900D01*
X154318500Y-88190300D02*
X154318500Y-88190200D01*
X161231600Y-92639200D02*
X160487500Y-93383300D01*
X154473500Y-97972200D02*
X155338600Y-97107100D01*
X161231600Y-88200000D02*
X161231600Y-92639200D01*
X155338600Y-97107100D02*
X155338600Y-95417900D01*
X155753000Y-88534500D02*
X155250400Y-89037100D01*
X153677300Y-89037100D02*
X150474600Y-92239800D01*
X150474600Y-92947800D02*
X151177100Y-93650300D01*
X150474600Y-92239800D02*
X150474600Y-92947800D01*
X155250400Y-89037100D02*
X153677300Y-89037100D01*
X153868500Y-96062000D02*
X153868500Y-97384100D01*
X151456800Y-93650300D02*
X153868500Y-96062000D01*
X151177100Y-93650300D02*
X151456800Y-93650300D01*
X151165000Y-97250000D02*
X149831300Y-95916300D01*
X149969500Y-92866200D02*
X149969500Y-92247600D01*
X149831300Y-95916300D02*
X149831300Y-93004400D01*
X149969500Y-92247600D02*
X153531700Y-88685400D01*
X153531700Y-88685400D02*
X154603400Y-88685400D01*
X149831300Y-93004400D02*
X149969500Y-92866200D01*
X154603400Y-88685400D02*
X154903100Y-88385700D01*
X161538200Y-94722200D02*
X161945100Y-94722200D01*
X161945100Y-94722200D02*
X164467300Y-92200000D01*
X159644400Y-92507000D02*
X159644400Y-93320400D01*
X158208200Y-85691000D02*
X159111400Y-86594200D01*
X159111400Y-91974000D02*
X159644400Y-92507000D01*
X159644400Y-93320400D02*
X160477000Y-94153000D01*
X158208200Y-82692500D02*
X158208200Y-85691000D01*
X159111400Y-86594200D02*
X159111400Y-91974000D01*
X153003400Y-63675800D02*
X148210700Y-68468500D01*
X170404600Y-92159900D02*
X170404600Y-87136000D01*
X170404600Y-87136000D02*
X164976600Y-81708000D01*
X144621500Y-66698300D02*
X137787400Y-73532400D01*
X157361800Y-64378500D02*
X156659100Y-63675800D01*
X157361800Y-74337900D02*
X157361800Y-64378500D01*
X145078600Y-66698300D02*
X144621500Y-66698300D01*
X164731900Y-81708000D02*
X157361800Y-74337900D01*
X148210700Y-68468500D02*
X146848800Y-68468500D01*
X164976600Y-81708000D02*
X164731900Y-81708000D01*
X137787400Y-73532400D02*
X137787400Y-80121400D01*
X156659100Y-63675800D02*
X153003400Y-63675800D01*
X146848800Y-68468500D02*
X145078600Y-66698300D01*
X156303500Y-98573300D02*
X156549100Y-98327700D01*
X147897100Y-98409600D02*
X147897100Y-97481900D01*
X142786300Y-95569200D02*
X142786300Y-88629400D01*
X156303500Y-107736500D02*
X156303500Y-98573300D01*
X154339200Y-107099000D02*
X152548900Y-105308700D01*
X152548900Y-105079000D02*
X150216300Y-102746400D01*
X150216300Y-100728800D02*
X147897100Y-98409600D01*
X163834800Y-96028400D02*
X161644300Y-96028400D01*
X164463200Y-95400000D02*
X163834800Y-96028400D01*
X154339200Y-107338800D02*
X154339200Y-107099000D01*
X142786300Y-88629400D02*
X136685100Y-82528200D01*
X150216300Y-102746400D02*
X150216300Y-100728800D01*
X152548900Y-105308700D02*
X152548900Y-105079000D01*
X168792800Y-87646400D02*
X168792800Y-95054600D01*
X164885200Y-84886100D02*
X166032500Y-84886100D01*
X160172400Y-80173300D02*
X164885200Y-84886100D01*
X149001000Y-85254400D02*
X153680600Y-80574800D01*
X153680600Y-80574800D02*
X155689000Y-80574800D01*
X166032500Y-84886100D02*
X168792800Y-87646400D01*
X168792800Y-95054600D02*
X168710600Y-95136800D01*
X155689000Y-80574800D02*
X156090500Y-80173300D01*
X156090500Y-80173300D02*
X160172400Y-80173300D01*
X149001000Y-86005500D02*
X149001000Y-85254400D01*
X150431200Y-86687200D02*
X154835100Y-86687200D01*
X156601100Y-91836400D02*
X157352900Y-92588200D01*
X149187400Y-87931000D02*
X150431200Y-86687200D01*
X156601100Y-88453200D02*
X156601100Y-91836400D01*
X157352900Y-92588200D02*
X157352900Y-92723600D01*
X154835100Y-86687200D02*
X156601100Y-88453200D01*
X157352900Y-92723600D02*
X157497300Y-92868000D01*
X157497300Y-95965500D02*
X158907700Y-97375900D01*
X157497300Y-92868000D02*
X157497300Y-95965500D01*
X157304500Y-86769100D02*
X157304500Y-91545200D01*
X154553900Y-84018500D02*
X157304500Y-86769100D01*
X158200700Y-95391200D02*
X160424400Y-97614900D01*
X158056300Y-92432400D02*
X158200700Y-92576800D01*
X158056300Y-92297000D02*
X158056300Y-92432400D01*
X157304500Y-91545200D02*
X158056300Y-92297000D01*
X160424400Y-97614900D02*
X160424400Y-97898000D01*
X158200700Y-92576800D02*
X158200700Y-95391200D01*
X150398000Y-94449300D02*
X150761200Y-94086100D01*
X150761200Y-94086100D02*
X151388200Y-94086100D01*
X151388200Y-94086100D02*
X153254000Y-95951900D01*
X153254000Y-97566000D02*
X154537600Y-98849600D01*
X150398000Y-95683000D02*
X150398000Y-94449300D01*
X154537600Y-98849600D02*
X155574900Y-98849600D01*
X153254000Y-95951900D02*
X153254000Y-97566000D01*
X159872700Y-98126400D02*
X161146300Y-99400000D01*
X156952800Y-88284400D02*
X156952800Y-91690800D01*
X156952800Y-91690800D02*
X157704600Y-92442600D01*
X157849000Y-92722400D02*
X157849000Y-95536800D01*
X153043200Y-86301700D02*
X154970100Y-86301700D01*
X157849000Y-95536800D02*
X159872700Y-97560500D01*
X159872700Y-97560500D02*
X159872700Y-98126400D01*
X157704600Y-92578000D02*
X157849000Y-92722400D01*
X157704600Y-92442600D02*
X157704600Y-92578000D01*
X161146300Y-99400000D02*
X161203400Y-99400000D01*
X151470900Y-84729400D02*
X153043200Y-86301700D01*
X154970100Y-86301700D02*
X156952800Y-88284400D01*
X154567800Y-90003800D02*
X155561300Y-90003800D01*
X157001200Y-92733800D02*
X157001200Y-92869200D01*
X161216800Y-100200000D02*
X161503800Y-100200000D01*
X152008400Y-92563200D02*
X154567800Y-90003800D01*
X158356000Y-97510100D02*
X158356000Y-97604300D01*
X160745000Y-99728200D02*
X161216800Y-100200000D01*
X158356000Y-97604300D02*
X160479900Y-99728200D01*
X157145600Y-96299700D02*
X158356000Y-97510100D01*
X157001200Y-92869200D02*
X157145600Y-93013600D01*
X151464000Y-92563200D02*
X152008400Y-92563200D01*
X155561300Y-90003800D02*
X156249400Y-90691900D01*
X160479900Y-99728200D02*
X160745000Y-99728200D01*
X156249400Y-91982000D02*
X157001200Y-92733800D01*
X156249400Y-90691900D02*
X156249400Y-91982000D01*
X157145600Y-93013600D02*
X157145600Y-96299700D01*
X154794200Y-92644400D02*
X154794200Y-93226800D01*
X156442200Y-93514100D02*
X156442200Y-96591000D01*
X153399100Y-89812600D02*
X150876700Y-92335000D01*
X150876700Y-92822100D02*
X151229300Y-93174700D01*
X153871500Y-92198300D02*
X154348100Y-92198300D01*
X150876700Y-92335000D02*
X150876700Y-92822100D01*
X152895100Y-93174700D02*
X153871500Y-92198300D01*
X156442200Y-96591000D02*
X157652600Y-97801400D01*
X157652600Y-97895500D02*
X158446600Y-98689500D01*
X151229300Y-93174700D02*
X152895100Y-93174700D01*
X157652600Y-97801400D02*
X157652600Y-97895500D01*
X153869900Y-89812600D02*
X153399100Y-89812600D01*
X158446600Y-100710800D02*
X158821500Y-101085700D01*
X156097700Y-93169600D02*
X156442200Y-93514100D01*
X154348100Y-92198300D02*
X154794200Y-92644400D01*
X158446600Y-98689500D02*
X158446600Y-100710800D01*
X149617800Y-91819000D02*
X149617800Y-92720600D01*
X151471400Y-98364500D02*
X151471400Y-99961400D01*
X150598500Y-90838300D02*
X149617800Y-91819000D01*
X149479600Y-96372700D02*
X151471400Y-98364500D01*
X149617800Y-92720600D02*
X149479600Y-92858800D01*
X149479600Y-92858800D02*
X149479600Y-96372700D01*
X155553700Y-91783600D02*
X156649500Y-92879400D01*
X158944000Y-98689600D02*
X158944000Y-100167800D01*
X158004300Y-97655800D02*
X158004300Y-97749900D01*
X155553700Y-90826400D02*
X155553700Y-91783600D01*
X158944000Y-100167800D02*
X161376200Y-102600000D01*
X156649500Y-92879400D02*
X156649500Y-93014800D01*
X155553600Y-90826400D02*
X155553700Y-90826400D01*
X156793900Y-93159200D02*
X156793900Y-96445400D01*
X158004300Y-97749900D02*
X158944000Y-98689600D01*
X156793900Y-96445400D02*
X158004300Y-97655800D01*
X155284200Y-90557000D02*
X155553600Y-90826400D01*
X156649500Y-93014800D02*
X156793900Y-93159200D01*
X154680300Y-105221800D02*
X152298100Y-102839600D01*
X148914400Y-92429400D02*
X148914400Y-91245000D01*
X148800500Y-98070700D02*
X148800500Y-97107800D01*
X148776200Y-97083500D02*
X148776200Y-92567600D01*
X148800500Y-97107800D02*
X148776200Y-97083500D01*
X152298100Y-101568300D02*
X148800500Y-98070700D01*
X152298100Y-102839600D02*
X152298100Y-101568300D01*
X148914400Y-91245000D02*
X151407800Y-88751600D01*
X148776200Y-92567600D02*
X148914400Y-92429400D01*
X161779000Y-113473900D02*
X173528500Y-101724400D01*
X150618400Y-113473900D02*
X161779000Y-113473900D01*
X146109700Y-108965200D02*
X150618400Y-113473900D01*
X146109700Y-89727600D02*
X146109700Y-108965200D01*
X163579300Y-100272600D02*
X164473400Y-100272600D01*
X161092800Y-97786000D02*
X161092800Y-97786100D01*
X158552400Y-92431200D02*
X158552400Y-95245600D01*
X158207900Y-90401000D02*
X158408000Y-90601100D01*
X158408000Y-90601100D02*
X158408000Y-92286800D01*
X161092800Y-97786100D02*
X163579300Y-100272600D01*
X158408000Y-92286800D02*
X158552400Y-92431200D01*
X158552400Y-95245600D02*
X161092800Y-97786000D01*
X158904100Y-92285600D02*
X158904100Y-95100000D01*
X161650600Y-97846600D02*
X164631800Y-97846600D01*
X158904100Y-95100000D02*
X161650600Y-97846500D01*
X158207900Y-86956000D02*
X158759700Y-87507800D01*
X164631800Y-97846600D02*
X166645600Y-99860400D01*
X158759700Y-92141200D02*
X158904100Y-92285600D01*
X158759700Y-87507800D02*
X158759700Y-92141200D01*
X161650600Y-97846500D02*
X161650600Y-97846600D01*
X166195400Y-98237300D02*
X166195400Y-90898600D01*
X162114800Y-86818000D02*
X161912900Y-86818000D01*
X167244000Y-99285900D02*
X166195400Y-98237300D01*
X166195400Y-90898600D02*
X162114800Y-86818000D01*
X159752900Y-85585000D02*
X159752900Y-85301900D01*
X160802500Y-84252300D02*
X162531300Y-84252300D01*
X166315500Y-88036500D02*
X166315500Y-89021300D01*
X159752900Y-85301900D02*
X160802500Y-84252300D01*
X168154600Y-90860400D02*
X168154600Y-96185600D01*
X166315500Y-89021300D02*
X168154600Y-90860400D01*
X162531300Y-84252300D02*
X166315500Y-88036500D01*
X161138800Y-85263600D02*
X167219300Y-91344100D01*
X167219300Y-91344100D02*
X167219300Y-97427900D01*
X161138800Y-85218100D02*
X161138800Y-85263600D01*
X167219300Y-97427900D02*
X167591400Y-97800000D01*
X169852800Y-95552900D02*
X170499900Y-96200000D01*
X155543400Y-80223100D02*
X155944900Y-79821600D01*
X148480800Y-85277300D02*
X153535000Y-80223100D01*
X169852800Y-88209100D02*
X169852800Y-95552900D01*
X148480800Y-85745600D02*
X148480800Y-85277300D01*
X153535000Y-80223100D02*
X155543400Y-80223100D01*
X165081800Y-84410500D02*
X166054200Y-84410500D01*
X148405500Y-86629300D02*
X148405500Y-85820900D01*
X155944900Y-79821600D02*
X160492900Y-79821600D01*
X148405500Y-85820900D02*
X148480800Y-85745600D01*
X166054200Y-84410500D02*
X169852800Y-88209100D01*
X160492900Y-79821600D02*
X165081800Y-84410500D01*
X171004000Y-94193700D02*
X171004000Y-87199700D01*
X170851600Y-94346100D02*
X171004000Y-94193700D01*
X171004000Y-87199700D02*
X164187000Y-80382700D01*
X152649800Y-102694000D02*
X152649800Y-98905900D01*
X151906300Y-96715300D02*
X151441000Y-96250000D01*
X173513100Y-97732800D02*
X173513100Y-92200000D01*
X154400500Y-104444700D02*
X152649800Y-102694000D01*
X151906300Y-98162400D02*
X151906300Y-96715300D01*
X152649800Y-98905900D02*
X151906300Y-98162400D01*
X154709100Y-104444700D02*
X154400500Y-104444700D01*
X166531600Y-104714300D02*
X173513100Y-97732800D01*
X164021000Y-96623900D02*
X165643700Y-95001200D01*
X161458100Y-96623900D02*
X164021000Y-96623900D01*
X165643700Y-95001200D02*
X165643700Y-91127100D01*
X159752500Y-94598600D02*
X159752500Y-94918300D01*
X159752500Y-94918300D02*
X161458100Y-96623900D01*
X165097200Y-103271200D02*
X171404800Y-96963600D01*
X154007100Y-103271200D02*
X153093900Y-102358000D01*
X153093900Y-98852700D02*
X152403600Y-98162400D01*
X153093900Y-102358000D02*
X153093900Y-98852700D01*
X171404800Y-96963600D02*
X171404800Y-90422900D01*
X152403600Y-96379100D02*
X151368800Y-95344300D01*
X171404800Y-90422900D02*
X172321300Y-89506400D01*
X152403600Y-98162400D02*
X152403600Y-96379100D01*
X162026100Y-103271200D02*
X165097200Y-103271200D01*
X167094400Y-88318100D02*
X162676900Y-83900600D01*
X159201200Y-85351900D02*
X159201200Y-86186700D01*
X159463100Y-86448600D02*
X159463100Y-91529600D01*
X159463100Y-91529600D02*
X159832200Y-91898700D01*
X159201200Y-86186700D02*
X159463100Y-86448600D01*
X167094400Y-88909600D02*
X167094400Y-88318100D01*
X162676900Y-83900600D02*
X160652500Y-83900600D01*
X160652500Y-83900600D02*
X159201200Y-85351900D01*
X147976400Y-92089900D02*
X147976400Y-87864300D01*
X153826200Y-80926600D02*
X156142500Y-80926600D01*
X156142500Y-80926600D02*
X156523200Y-80545900D01*
X149552700Y-85200100D02*
X153826200Y-80926600D01*
X159819500Y-80545900D02*
X167120200Y-87846600D01*
X149552700Y-86288000D02*
X149552700Y-85200100D01*
X147976400Y-87864300D02*
X149552700Y-86288000D01*
X167120200Y-87846600D02*
X168180200Y-87846600D01*
X156523200Y-80545900D02*
X159819500Y-80545900D01*
X160635400Y-91109300D02*
X160635400Y-87999700D01*
X164475200Y-90657700D02*
X164475200Y-91228200D01*
X160635400Y-87999700D02*
X160987000Y-87648100D01*
X160415500Y-91329200D02*
X160635400Y-91109300D01*
X161465600Y-87648100D02*
X164475200Y-90657700D01*
X160987000Y-87648100D02*
X161465600Y-87648100D01*
X162100900Y-84620300D02*
X165493100Y-88012500D01*
X160940700Y-84620300D02*
X162100900Y-84620300D01*
X160042600Y-90041700D02*
X160042600Y-86455600D01*
X160042600Y-86455600D02*
X160479200Y-86019000D01*
X160479200Y-85081800D02*
X160940700Y-84620300D01*
X160479200Y-86019000D02*
X160479200Y-85081800D01*
X158403500Y-81540200D02*
X157656200Y-82287500D01*
X157656200Y-91116800D02*
X157856200Y-91316800D01*
X157656200Y-82287500D02*
X157656200Y-91116800D01*
D20*
X127500000Y-63600000D02*
X128600000Y-63600000D01*
X129600000Y-64599999D02*
X129600000Y-66599999D01*
X128600000Y-63600000D02*
X129600000Y-64599999D01*
D19*
X163844000Y-72757500D02*
X163844000Y-67621200D01*
X174114100Y-114296300D02*
X174114100Y-83027600D01*
X155219700Y-133190700D02*
X174114100Y-114296300D01*
X163844000Y-67621200D02*
X159208800Y-62986000D01*
X159208800Y-62986000D02*
X153859600Y-62986000D01*
X174114100Y-83027600D02*
X163844000Y-72757500D01*
X153859600Y-62986000D02*
X150958000Y-60084400D01*
X139250000Y-105738900D02*
X139250000Y-103852700D01*
X138513900Y-106475000D02*
X139250000Y-105738900D01*
X129865200Y-134730000D02*
X130475500Y-134730000D01*
X128125100Y-137135700D02*
X128890000Y-136370800D01*
X120000000Y-136000000D02*
X121101700Y-136000000D01*
X128890000Y-135705200D02*
X129865200Y-134730000D01*
X122099700Y-137135700D02*
X128125100Y-137135700D01*
X121101700Y-136137700D02*
X122099700Y-137135700D01*
X130475500Y-134730000D02*
X138513900Y-126691600D01*
X138513900Y-126691600D02*
X138513900Y-106475000D01*
X121101700Y-136000000D02*
X121101700Y-136137700D01*
X128890000Y-136370800D02*
X128890000Y-135705200D01*
X121428700Y-134888700D02*
X122540000Y-136000000D01*
X121428700Y-113227100D02*
X121428700Y-134888700D01*
X133203000Y-101452800D02*
X121428700Y-113227100D01*
X132329300Y-103731000D02*
X132329300Y-123670700D01*
X134599400Y-101460900D02*
X132329300Y-103731000D01*
X132329300Y-123670700D02*
X122540000Y-133460000D01*
X125080000Y-136000000D02*
X126350000Y-134730000D01*
X135536000Y-123568500D02*
X135536000Y-105780800D01*
X126350000Y-134730000D02*
X126350000Y-132754500D01*
X135536000Y-105780800D02*
X135750000Y-105566800D01*
X126350000Y-132754500D02*
X135536000Y-123568500D01*
X135152100Y-105520200D02*
X135152100Y-123387900D01*
X135152100Y-123387900D02*
X125080000Y-133460000D01*
X134371400Y-104739500D02*
X135152100Y-105520200D01*
X137987300Y-106329100D02*
X137987300Y-123972000D01*
X138338900Y-105977500D02*
X137987300Y-106329100D01*
X128766100Y-134853900D02*
X127620000Y-136000000D01*
X137987300Y-123972000D02*
X128766100Y-133193200D01*
X138338900Y-103043300D02*
X138338900Y-105977500D01*
X136750000Y-101454400D02*
X138338900Y-103043300D01*
X128766100Y-133193200D02*
X128766100Y-134853900D01*
X136844000Y-103859900D02*
X136844000Y-124236000D01*
X136844000Y-124236000D02*
X127620000Y-133460000D01*
X110347000Y-85105000D02*
X110483100Y-85241100D01*
X111021700Y-69926100D02*
X110347000Y-70600800D01*
X110347000Y-70600800D02*
X110347000Y-85105000D01*
X111059800Y-72579700D02*
X111059800Y-87359000D01*
X111059800Y-87359000D02*
X110668800Y-87750000D01*
X110929300Y-72449200D02*
X111059800Y-72579700D01*
X147750100Y-100103100D02*
X146642000Y-98995000D01*
X156013700Y-77310100D02*
X156013700Y-71430400D01*
X155838700Y-64848700D02*
X156437400Y-64250000D01*
X155838700Y-71255400D02*
X155838700Y-64848700D01*
X147425700Y-84840500D02*
X153098200Y-79168000D01*
X146642000Y-96962300D02*
X146721300Y-96883000D01*
X154155800Y-79168000D02*
X156013700Y-77310100D01*
X146721300Y-96883000D02*
X146721300Y-86013200D01*
X156013700Y-71430400D02*
X155838700Y-71255400D01*
X146721300Y-86013200D02*
X147425700Y-85308800D01*
X147425700Y-85308800D02*
X147425700Y-84840500D01*
X147750100Y-101465900D02*
X147750100Y-100103100D01*
X153098200Y-79168000D02*
X154155800Y-79168000D01*
X146642000Y-98995000D02*
X146642000Y-96962300D01*
X148543000Y-55551300D02*
X148543000Y-60079900D01*
X151599300Y-52495000D02*
X148543000Y-55551300D01*
X156606500Y-54962000D02*
X156606500Y-62140700D01*
X155796500Y-54152000D02*
X156606500Y-54962000D01*
X156606500Y-62140700D02*
X156360200Y-62387000D01*
X134981900Y-99123200D02*
X134981900Y-94984900D01*
X133855600Y-100249500D02*
X134981900Y-99123200D01*
X121577500Y-102723400D02*
X130886400Y-102723400D01*
X133360300Y-100249500D02*
X133855600Y-100249500D01*
X130886400Y-102723400D02*
X133360300Y-100249500D01*
X134981900Y-94984900D02*
X132808600Y-92811600D01*
X114010000Y-94566600D02*
X110585700Y-91142300D01*
X114010000Y-98278100D02*
X114010000Y-94566600D01*
X110585700Y-91142300D02*
X110585700Y-91096200D01*
X122135500Y-90029800D02*
X122135500Y-90953800D01*
X122983500Y-89181800D02*
X122135500Y-90029800D01*
X122135500Y-90953800D02*
X116760700Y-96328600D01*
X130846600Y-92041900D02*
X126817000Y-92041900D01*
X125968700Y-91193600D02*
X122871900Y-91193600D01*
X117247800Y-96817700D02*
X117247800Y-97229400D01*
X122871900Y-91193600D02*
X117247800Y-96817700D01*
X126817000Y-92041900D02*
X125968700Y-91193600D01*
X132552000Y-93747300D02*
X130846600Y-92041900D01*
X132737100Y-100375400D02*
X121295000Y-100375400D01*
X134627700Y-98980100D02*
X133833900Y-99773900D01*
X134627700Y-95547900D02*
X134627700Y-98980100D01*
X121295000Y-100375400D02*
X118553200Y-97633600D01*
X133328000Y-94248200D02*
X134627700Y-95547900D01*
X133833900Y-99773900D02*
X133338600Y-99773900D01*
X133338600Y-99773900D02*
X132737100Y-100375400D01*
X118325800Y-96243200D02*
X118325800Y-96732600D01*
X119355900Y-95213100D02*
X118325800Y-96243200D01*
X121297800Y-95213100D02*
X119355900Y-95213100D01*
X132786500Y-96716400D02*
X133211900Y-97141800D01*
X133211900Y-98401900D02*
X131627700Y-99986100D01*
X120210800Y-96346300D02*
X119004200Y-96346300D01*
X131627700Y-99986100D02*
X123850600Y-99986100D01*
X123850600Y-99986100D02*
X120210800Y-96346300D01*
X133211900Y-97141800D02*
X133211900Y-98401900D01*
X119004200Y-96346300D02*
X119004200Y-96346200D01*
X122904500Y-94381700D02*
X125150500Y-96627700D01*
X125150500Y-96627700D02*
X125150500Y-96629300D01*
X124804000Y-95330800D02*
X124804000Y-94012100D01*
X126661400Y-97188200D02*
X124804000Y-95330800D01*
X132649900Y-97359900D02*
X132649900Y-98183500D01*
X129322100Y-93748700D02*
X129322100Y-94032100D01*
X129322100Y-94032100D02*
X132649900Y-97359900D01*
X134074800Y-98750000D02*
X134074800Y-97224500D01*
X134074800Y-97224500D02*
X130115000Y-93264700D01*
X126273000Y-92361200D02*
X126273000Y-94968200D01*
X126273000Y-94968200D02*
X129987200Y-98682400D01*
X129987200Y-98682400D02*
X130058800Y-98682400D01*
X130018500Y-99434200D02*
X125625000Y-95040700D01*
X125625000Y-95040700D02*
X125625000Y-91750000D01*
X127885400Y-91082200D02*
X127779200Y-91188400D01*
X129983100Y-91082200D02*
X127885400Y-91082200D01*
X123370500Y-85597600D02*
X125133100Y-83835000D01*
X125133100Y-83835000D02*
X128199900Y-83835000D01*
X123535600Y-89410800D02*
X123535600Y-86947700D01*
X123535600Y-86947700D02*
X123370500Y-86782600D01*
X122771200Y-90175200D02*
X123535600Y-89410800D01*
X123370500Y-86782600D02*
X123370500Y-85597600D01*
X121479500Y-85092300D02*
X122556900Y-84014900D01*
X121479500Y-89401600D02*
X121479500Y-85092300D01*
X122051900Y-85725300D02*
X123578900Y-84198300D01*
X122051900Y-88838000D02*
X122051900Y-85725300D01*
X131054300Y-90626100D02*
X132234800Y-91806600D01*
X133493300Y-85710800D02*
X132532500Y-84750000D01*
X125639500Y-88304000D02*
X126413600Y-89078100D01*
X126413600Y-89078100D02*
X128811500Y-89078100D01*
X130126000Y-88651000D02*
X131054300Y-89579300D01*
X132768300Y-91806600D02*
X133493300Y-91081600D01*
X128811500Y-89078100D02*
X129238600Y-88651000D01*
X129238600Y-88651000D02*
X130126000Y-88651000D01*
X132234800Y-91806600D02*
X132768300Y-91806600D01*
X133493300Y-91081600D02*
X133493300Y-85710800D01*
X131054300Y-89579300D02*
X131054300Y-90626100D01*
X129201500Y-87126100D02*
X128737300Y-87590300D01*
X129201500Y-86301700D02*
X129201500Y-87126100D01*
X120988900Y-83445000D02*
X118770300Y-85663600D01*
X127975400Y-83279400D02*
X127809800Y-83445000D01*
X132534400Y-87250000D02*
X132534400Y-86970300D01*
X128843500Y-83279400D02*
X127975400Y-83279400D01*
X132534400Y-86970300D02*
X128843500Y-83279400D01*
X127809800Y-83445000D02*
X120988900Y-83445000D01*
X127681300Y-86303400D02*
X128815400Y-85169300D01*
X128815400Y-85169300D02*
X130103500Y-85169300D01*
X130876200Y-85942000D02*
X130876200Y-86555700D01*
X130876200Y-86555700D02*
X132547900Y-88227400D01*
X130103500Y-85169300D02*
X130876200Y-85942000D01*
X126860300Y-88693900D02*
X123960800Y-85794400D01*
X128698400Y-88693900D02*
X126860300Y-88693900D01*
X129638500Y-87753800D02*
X128698400Y-88693900D01*
X127654600Y-88142000D02*
X124724300Y-85211700D01*
X128126800Y-88142000D02*
X127654600Y-88142000D01*
X118483200Y-83678500D02*
X117187800Y-83678500D01*
X128934800Y-81942000D02*
X132923000Y-85930200D01*
X122549900Y-81942000D02*
X128934800Y-81942000D01*
X122284200Y-82207700D02*
X122549900Y-81942000D01*
X117187800Y-83678500D02*
X117059600Y-83550300D01*
X127691500Y-83066000D02*
X127829800Y-82927700D01*
X133105600Y-90682600D02*
X132538200Y-91250000D01*
X115478500Y-85649100D02*
X114350600Y-84521200D01*
X122362400Y-83066000D02*
X127691500Y-83066000D01*
X133105600Y-87034100D02*
X133105600Y-90682600D01*
X127829800Y-82927700D02*
X128999200Y-82927700D01*
X114350600Y-83037500D02*
X114703600Y-82684500D01*
X121980900Y-82684500D02*
X122362400Y-83066000D01*
X114703600Y-82684500D02*
X121980900Y-82684500D01*
X128999200Y-82927700D02*
X133105600Y-87034100D01*
X114350600Y-84521200D02*
X114350600Y-83037500D01*
X109156900Y-96527200D02*
X109156900Y-91384300D01*
X110404500Y-101290900D02*
X110421900Y-101308300D01*
X110404500Y-97774800D02*
X110404500Y-101290900D01*
X109156900Y-91384300D02*
X110077300Y-90463900D01*
X110404500Y-97774800D02*
X109156900Y-96527200D01*
X110077300Y-90463900D02*
X110077300Y-89944900D01*
X110077300Y-89944900D02*
X114357900Y-85664300D01*
X133176700Y-103853500D02*
X133176700Y-106729800D01*
X133176700Y-106729800D02*
X134569600Y-108122700D01*
X136307400Y-105313900D02*
X134864900Y-103871400D01*
X134864900Y-103871400D02*
X134092700Y-103871400D01*
X136307400Y-111637600D02*
X136307400Y-105313900D01*
X136227500Y-111717500D02*
X136307400Y-111637600D01*
X102482400Y-109437900D02*
X102482400Y-111090500D01*
X102482400Y-111090500D02*
X100597900Y-112975000D01*
X146997100Y-109331900D02*
X146997100Y-101464400D01*
X158587500Y-113112300D02*
X150777500Y-113112300D01*
X163253000Y-76561100D02*
X173627600Y-86935700D01*
X158923900Y-64750000D02*
X163253000Y-69079100D01*
X161787100Y-110229200D02*
X161787100Y-110229300D01*
X173627600Y-90552400D02*
X172852400Y-91327600D01*
X173627600Y-86935700D02*
X173627600Y-90552400D01*
X161470500Y-110229300D02*
X158587500Y-113112300D01*
X161787100Y-110229300D02*
X161470500Y-110229300D01*
X172852400Y-91327600D02*
X172852400Y-97043100D01*
X161787100Y-108108400D02*
X161787100Y-110229200D01*
X150777500Y-113112300D02*
X146997100Y-109331900D01*
X172852400Y-97043100D02*
X161787100Y-108108400D01*
X163253000Y-69079100D02*
X163253000Y-76561100D01*
X147345400Y-97253500D02*
X147345400Y-98502500D01*
X148129100Y-85600000D02*
X147424700Y-86304400D01*
X156419200Y-66425100D02*
X157010100Y-67016000D01*
X149380700Y-102751500D02*
X148250000Y-103882200D01*
X149380700Y-100537800D02*
X149380700Y-102751500D01*
X147345400Y-98502500D02*
X149380700Y-100537800D01*
X157010100Y-67016000D02*
X157010100Y-77308300D01*
X148129100Y-85131700D02*
X148129100Y-85600000D01*
X147424700Y-97174200D02*
X147345400Y-97253500D01*
X154447000Y-79871400D02*
X153389400Y-79871400D01*
X147424700Y-86304400D02*
X147424700Y-97174200D01*
X153389400Y-79871400D02*
X148129100Y-85131700D01*
X157010100Y-77308300D02*
X154447000Y-79871400D01*
X156445200Y-67250000D02*
X156445200Y-77375900D01*
X148784500Y-100640200D02*
X148784500Y-101465600D01*
X147689100Y-109202200D02*
X147834000Y-109347100D01*
X146993700Y-97107900D02*
X146993700Y-98849400D01*
X147073000Y-97028600D02*
X146993700Y-97107900D01*
X147777400Y-84986100D02*
X147777400Y-85454400D01*
X156445200Y-77375900D02*
X154301400Y-79519700D01*
X147073000Y-86158800D02*
X147073000Y-97028600D01*
X154301400Y-79519700D02*
X153243800Y-79519700D01*
X147777400Y-85454400D02*
X147073000Y-86158800D01*
X146993700Y-98849400D02*
X148784500Y-100640200D01*
X148784500Y-101465600D02*
X147689100Y-102561000D01*
X153243800Y-79519700D02*
X147777400Y-84986100D01*
X147689100Y-102561000D02*
X147689100Y-109202200D01*
X155674700Y-110646700D02*
X155674700Y-111985700D01*
X154548300Y-107909900D02*
X154890900Y-107567300D01*
X172873100Y-88288600D02*
X160127500Y-75543000D01*
X154890900Y-107567300D02*
X154890900Y-107110300D01*
X160127500Y-75543000D02*
X160127500Y-69381400D01*
X151394700Y-103289800D02*
X151394700Y-102390800D01*
X154548400Y-106767800D02*
X154548300Y-106767800D01*
X172105300Y-90854500D02*
X172873100Y-90086700D01*
X155674700Y-110646700D02*
X155674700Y-110069500D01*
X154548300Y-110323500D02*
X154548300Y-107909900D01*
X154890900Y-107110300D02*
X154548400Y-106767800D01*
X154548300Y-106767800D02*
X154548300Y-106443400D01*
X155674700Y-111985700D02*
X155101400Y-112559000D01*
X172873100Y-90086700D02*
X172873100Y-88288600D01*
X160127500Y-69381400D02*
X158905500Y-68159400D01*
X155674700Y-110646700D02*
X154871500Y-110646700D01*
X163343700Y-105526100D02*
X172105300Y-96764500D01*
X155674700Y-110069500D02*
X160218100Y-105526100D01*
X160218100Y-105526100D02*
X163343700Y-105526100D01*
X172105300Y-96764500D02*
X172105300Y-90854500D01*
X154548300Y-106443400D02*
X151394700Y-103289800D01*
X154871500Y-110646700D02*
X154548300Y-110323500D01*
X154089600Y-77952400D02*
X154089600Y-74535300D01*
X152402400Y-72848100D02*
X152402400Y-70380300D01*
X153925700Y-78116300D02*
X154089600Y-77952400D01*
X154089600Y-74535300D02*
X152402400Y-72848100D01*
X147950000Y-78184500D02*
X148472400Y-78706900D01*
X147950000Y-74616700D02*
X147950000Y-78184500D01*
X148254600Y-74312100D02*
X147950000Y-74616700D01*
X146290900Y-74196300D02*
X146290900Y-73678700D01*
X147989000Y-71980600D02*
X147989000Y-71262800D01*
X146290900Y-73678700D02*
X147989000Y-71980600D01*
X145039300Y-83102900D02*
X144171600Y-83102900D01*
X141193800Y-80125100D02*
X141193800Y-79293400D01*
X144171600Y-83102900D02*
X141193800Y-80125100D01*
X141193800Y-79293400D02*
X146290900Y-74196300D01*
X148777300Y-79914500D02*
X149053400Y-79638400D01*
X148720900Y-75693300D02*
X149084800Y-75329400D01*
X149053400Y-79638400D02*
X149053400Y-76485200D01*
X148720900Y-76152700D02*
X148720900Y-75693300D01*
X149084800Y-74079100D02*
X148931300Y-73925600D01*
X149053400Y-76485200D02*
X148720900Y-76152700D01*
X149084800Y-75329400D02*
X149084800Y-74079100D01*
X148461600Y-73318800D02*
X147551200Y-74229200D01*
X147551200Y-79667100D02*
X147791400Y-79907300D01*
X147551200Y-74229200D02*
X147551200Y-79667100D01*
X150508500Y-73910400D02*
X149916900Y-73318800D01*
X149916900Y-73318800D02*
X148461600Y-73318800D01*
X146994300Y-79890000D02*
X146969300Y-79915000D01*
X146994300Y-74279300D02*
X146994300Y-79890000D01*
X149837500Y-71436100D02*
X146994300Y-74279300D01*
X148501700Y-77841500D02*
X148342100Y-77681900D01*
X148715400Y-70518700D02*
X149041900Y-70192200D01*
X147953000Y-70518700D02*
X148715400Y-70518700D01*
X147321800Y-71149900D02*
X147953000Y-70518700D01*
X148342100Y-75291800D02*
X148509200Y-75124700D01*
X149998100Y-70192200D02*
X151250000Y-71444100D01*
X148342100Y-77681900D02*
X148342100Y-75291800D01*
X147321800Y-71867600D02*
X147321800Y-71149900D01*
X149041900Y-70192200D02*
X149998100Y-70192200D01*
X149615300Y-76644500D02*
X149615300Y-77289800D01*
X151639800Y-74620000D02*
X149615300Y-76644500D01*
X149349100Y-75924300D02*
X151705000Y-73568400D01*
X153250000Y-74319500D02*
X153250000Y-74740800D01*
X149272600Y-75924300D02*
X149349100Y-75924300D01*
X151705000Y-73568400D02*
X152498900Y-73568400D01*
X152498900Y-73568400D02*
X153250000Y-74319500D01*
X148437500Y-82551100D02*
X147531100Y-82551100D01*
X151688000Y-79300600D02*
X148437500Y-82551100D01*
X148569800Y-70167000D02*
X148930800Y-69806000D01*
X146729100Y-71245300D02*
X147807400Y-70167000D01*
X146729100Y-72429200D02*
X146729100Y-71245300D01*
X148930800Y-69806000D02*
X152610900Y-69806000D01*
X147807400Y-70167000D02*
X148569800Y-70167000D01*
X152610900Y-69806000D02*
X154250000Y-71445100D01*
X154520600Y-73969500D02*
X154456800Y-73905700D01*
X152952600Y-78816300D02*
X154010200Y-78816300D01*
X148003900Y-83765000D02*
X152952600Y-78816300D01*
X154520600Y-78305900D02*
X154520600Y-73969500D01*
X154010200Y-78816300D02*
X154520600Y-78305900D01*
X147720900Y-83765000D02*
X148003900Y-83765000D01*
X149275000Y-71191900D02*
X149275000Y-70784800D01*
X146642600Y-73824300D02*
X149275000Y-71191900D01*
X142906300Y-80068400D02*
X142906300Y-78078300D01*
X146642600Y-74342000D02*
X146642600Y-73824300D01*
X142906300Y-78078300D02*
X146642600Y-74342000D01*
X155273600Y-71343100D02*
X152994100Y-69063600D01*
X145374200Y-71605600D02*
X145374200Y-73189800D01*
X140628300Y-77935700D02*
X140628300Y-80027700D01*
X145374200Y-73189800D02*
X140628300Y-77935700D01*
X152994100Y-69063600D02*
X147916200Y-69063600D01*
X147916200Y-69063600D02*
X145374200Y-71605600D01*
X147861800Y-69615300D02*
X145951700Y-71525400D01*
X148161500Y-69615300D02*
X147861800Y-69615300D01*
X145951700Y-71525400D02*
X145951700Y-72720900D01*
X89112500Y-68094900D02*
X89061900Y-68044300D01*
X89112500Y-73157100D02*
X89112500Y-68094900D01*
X86071500Y-69365000D02*
X88206700Y-71500200D01*
X88206700Y-71500200D02*
X88206700Y-74366100D01*
X145185600Y-62420200D02*
X148164900Y-65399500D01*
X148164900Y-67660400D02*
X147936800Y-67888500D01*
X148164900Y-65399500D02*
X148164900Y-67660400D01*
M02*
