%TF.GenerationSoftware,KiCad,Pcbnew,10.0.4*%
%TF.CreationDate,2026-10-09T08:21:26-04:00*%
%TF.ProjectId,dual_adc_usb,6475616c-5f61-4646-935f-7573622e6b69,rev?*%
%TF.SameCoordinates,Original*%
%TF.FileFunction,Drillmap*%
%TF.FilePolarity,Positive*%
%FSLAX45Y45*%
G04 Gerber Fmt 4.5, Leading zero omitted, Abs format (unit mm)*
G04 Created by KiCad (PCBNEW 10.0.4) date 2026-10-09 08:21:26*
%MOMM*%
%LPD*%
G01*
G04 APERTURE LIST*
%ADD10C,0.050000*%
%ADD11C,0.200000*%
%ADD12C,0.100000*%
%ADD13C,0.200999*%
%ADD14C,0.233000*%
G04 APERTURE END LIST*
D10*
X5000000Y-5200000D02*
G75*
G02*
X5200000Y-5000000I200000J0D01*
G01*
X5000000Y-13800000D02*
X5000000Y-5200000D01*
X5200000Y-5000000D02*
X18800000Y-5000000D01*
X5200000Y-14000000D02*
G75*
G02*
X5000000Y-13800000I0J200000D01*
G01*
X18800000Y-5000000D02*
G75*
G02*
X19000000Y-5200000I0J-200000D01*
G01*
X18800000Y-14000000D02*
X5200000Y-14000000D01*
X19000000Y-5200000D02*
X19000000Y-13800000D01*
X19000000Y-13800000D02*
G75*
G02*
X18800000Y-14000000I-200000J0D01*
G01*
D11*
D12*
X7685000Y-7092500D02*
X7715000Y-7122500D01*
X7715000Y-7092500D02*
X7685000Y-7122500D01*
X7685000Y-11292500D02*
X7715000Y-11322500D01*
X7715000Y-11292500D02*
X7685000Y-11322500D01*
X7885000Y-7092500D02*
X7915000Y-7122500D01*
X7915000Y-7092500D02*
X7885000Y-7122500D01*
X7885000Y-11292500D02*
X7915000Y-11322500D01*
X7915000Y-11292500D02*
X7885000Y-11322500D01*
X8035000Y-8692500D02*
X8065000Y-8722500D01*
X8065000Y-8692500D02*
X8035000Y-8722500D01*
X8089050Y-11488770D02*
X8119050Y-11518770D01*
X8119050Y-11488770D02*
X8089050Y-11518770D01*
X8277540Y-9307500D02*
X8307540Y-9337500D01*
X8307540Y-9307500D02*
X8277540Y-9337500D01*
X8305000Y-7785000D02*
X8335000Y-7815000D01*
X8335000Y-7785000D02*
X8305000Y-7815000D01*
X8305000Y-11985000D02*
X8335000Y-12015000D01*
X8335000Y-11985000D02*
X8305000Y-12015000D01*
X8309400Y-9404750D02*
X8339400Y-9434750D01*
X8339400Y-9404750D02*
X8309400Y-9434750D01*
X8314220Y-9110000D02*
X8344220Y-9140000D01*
X8344220Y-9110000D02*
X8314220Y-9140000D01*
X8315620Y-9735000D02*
X8345620Y-9765000D01*
X8345620Y-9735000D02*
X8315620Y-9765000D01*
X8329320Y-11248500D02*
X8359320Y-11278500D01*
X8359320Y-11248500D02*
X8329320Y-11278500D01*
X8414480Y-9462500D02*
X8444480Y-9492500D01*
X8444480Y-9462500D02*
X8414480Y-9492500D01*
X8459080Y-8868810D02*
X8489080Y-8898810D01*
X8489080Y-8868810D02*
X8459080Y-8898810D01*
X8468930Y-10570310D02*
X8498930Y-10600310D01*
X8498930Y-10570310D02*
X8468930Y-10600310D01*
X8497130Y-11121500D02*
X8527130Y-11151500D01*
X8527130Y-11121500D02*
X8497130Y-11151500D01*
X8592150Y-6921500D02*
X8622150Y-6951500D01*
X8622150Y-6921500D02*
X8592150Y-6951500D01*
X8650990Y-9210350D02*
X8680990Y-9240350D01*
X8680990Y-9210350D02*
X8650990Y-9240350D01*
X8677500Y-9735000D02*
X8707500Y-9765000D01*
X8707500Y-9735000D02*
X8677500Y-9765000D01*
X8754120Y-9175180D02*
X8784120Y-9205180D01*
X8784120Y-9175180D02*
X8754120Y-9205180D01*
X8805670Y-7421610D02*
X8835670Y-7451610D01*
X8835670Y-7421610D02*
X8805670Y-7451610D01*
X8849650Y-11547320D02*
X8879650Y-11577320D01*
X8879650Y-11547320D02*
X8849650Y-11577320D01*
X8880880Y-9116630D02*
X8910880Y-9146630D01*
X8910880Y-9116630D02*
X8880880Y-9146630D01*
X8881000Y-7635000D02*
X8911000Y-7665000D01*
X8911000Y-7635000D02*
X8881000Y-7665000D01*
X8881000Y-11835000D02*
X8911000Y-11865000D01*
X8911000Y-11835000D02*
X8881000Y-11865000D01*
X8882240Y-10987650D02*
X8912240Y-11017650D01*
X8912240Y-10987650D02*
X8882240Y-11017650D01*
X8891190Y-6789430D02*
X8921190Y-6819430D01*
X8921190Y-6789430D02*
X8891190Y-6819430D01*
X8892760Y-9777340D02*
X8922760Y-9807340D01*
X8922760Y-9777340D02*
X8892760Y-9807340D01*
X8896250Y-7300710D02*
X8926250Y-7330710D01*
X8926250Y-7300710D02*
X8896250Y-7330710D01*
X8973490Y-8824990D02*
X9003490Y-8854990D01*
X9003490Y-8824990D02*
X8973490Y-8854990D01*
X8981000Y-6635000D02*
X9011000Y-6665000D01*
X9011000Y-6635000D02*
X8981000Y-6665000D01*
X8981000Y-10835000D02*
X9011000Y-10865000D01*
X9011000Y-10835000D02*
X8981000Y-10865000D01*
X8989000Y-11572010D02*
X9019000Y-11602010D01*
X9019000Y-11572010D02*
X8989000Y-11602010D01*
X9083000Y-8915000D02*
X9113000Y-8945000D01*
X9113000Y-8915000D02*
X9083000Y-8945000D01*
X9083000Y-9635000D02*
X9113000Y-9665000D01*
X9113000Y-9635000D02*
X9083000Y-9665000D01*
X9327500Y-6535000D02*
X9357500Y-6565000D01*
X9357500Y-6535000D02*
X9327500Y-6565000D01*
X9327500Y-7635000D02*
X9357500Y-7665000D01*
X9357500Y-7635000D02*
X9327500Y-7665000D01*
X9327500Y-10735000D02*
X9357500Y-10765000D01*
X9357500Y-10735000D02*
X9327500Y-10765000D01*
X9327500Y-11835000D02*
X9357500Y-11865000D01*
X9357500Y-11835000D02*
X9327500Y-11865000D01*
X9335000Y-8592500D02*
X9365000Y-8622500D01*
X9365000Y-8592500D02*
X9335000Y-8622500D01*
X9335000Y-9292500D02*
X9365000Y-9322500D01*
X9365000Y-9292500D02*
X9335000Y-9322500D01*
X9377020Y-6902450D02*
X9407020Y-6932450D01*
X9407020Y-6902450D02*
X9377020Y-6932450D01*
X9492500Y-7135000D02*
X9522500Y-7165000D01*
X9522500Y-7135000D02*
X9492500Y-7165000D01*
X9492500Y-11335000D02*
X9522500Y-11365000D01*
X9522500Y-11335000D02*
X9492500Y-11365000D01*
X9614670Y-11552570D02*
X9644670Y-11582570D01*
X9644670Y-11552570D02*
X9614670Y-11582570D01*
X9735000Y-8785000D02*
X9765000Y-8815000D01*
X9765000Y-8785000D02*
X9735000Y-8815000D01*
X9877500Y-8435000D02*
X9907500Y-8465000D01*
X9907500Y-8435000D02*
X9877500Y-8465000D01*
X9937630Y-6952500D02*
X9967630Y-6982500D01*
X9967630Y-6952500D02*
X9937630Y-6982500D01*
X10044790Y-11282500D02*
X10074790Y-11312500D01*
X10074790Y-11282500D02*
X10044790Y-11312500D01*
X10177040Y-7153620D02*
X10207040Y-7183620D01*
X10207040Y-7153620D02*
X10177040Y-7183620D01*
X10177500Y-7635000D02*
X10207500Y-7665000D01*
X10207500Y-7635000D02*
X10177500Y-7665000D01*
X10177500Y-11835000D02*
X10207500Y-11865000D01*
X10207500Y-11835000D02*
X10177500Y-11865000D01*
X10181000Y-6385000D02*
X10211000Y-6415000D01*
X10211000Y-6385000D02*
X10181000Y-6415000D01*
X10181000Y-10585000D02*
X10211000Y-10615000D01*
X10211000Y-10585000D02*
X10181000Y-10615000D01*
X10233240Y-10928790D02*
X10263240Y-10958790D01*
X10263240Y-10928790D02*
X10233240Y-10958790D01*
X10264700Y-8652950D02*
X10294700Y-8682950D01*
X10294700Y-8652950D02*
X10264700Y-8682950D01*
X10302980Y-11101270D02*
X10332980Y-11131270D01*
X10332980Y-11101270D02*
X10302980Y-11131270D01*
X10307740Y-6680410D02*
X10337740Y-6710410D01*
X10337740Y-6680410D02*
X10307740Y-6710410D01*
X10315130Y-9822630D02*
X10345130Y-9852630D01*
X10345130Y-9822630D02*
X10315130Y-9852630D01*
X10427500Y-8435000D02*
X10457500Y-8465000D01*
X10457500Y-8435000D02*
X10427500Y-8465000D01*
X10657500Y-9895000D02*
X10687500Y-9925000D01*
X10687500Y-9895000D02*
X10657500Y-9925000D01*
X10660190Y-9304200D02*
X10690190Y-9334200D01*
X10690190Y-9304200D02*
X10660190Y-9334200D01*
X10747500Y-7017500D02*
X10777500Y-7047500D01*
X10777500Y-7017500D02*
X10747500Y-7047500D01*
X10747500Y-11217500D02*
X10777500Y-11247500D01*
X10777500Y-11217500D02*
X10747500Y-11247500D01*
X10937560Y-8995000D02*
X10967560Y-9025000D01*
X10967560Y-8995000D02*
X10937560Y-9025000D01*
X10961000Y-9175000D02*
X10991000Y-9205000D01*
X10991000Y-9175000D02*
X10961000Y-9205000D01*
X10961000Y-9355000D02*
X10991000Y-9385000D01*
X10991000Y-9355000D02*
X10961000Y-9385000D01*
X10961000Y-9995000D02*
X10991000Y-10025000D01*
X10991000Y-9995000D02*
X10961000Y-10025000D01*
X11007500Y-8635000D02*
X11037500Y-8665000D01*
X11037500Y-8635000D02*
X11007500Y-8665000D01*
X11025450Y-9762480D02*
X11055450Y-9792480D01*
X11055450Y-9762480D02*
X11025450Y-9792480D01*
X11027190Y-10115830D02*
X11057190Y-10145830D01*
X11057190Y-10115830D02*
X11027190Y-10145830D01*
X11033310Y-8509110D02*
X11063310Y-8539110D01*
X11063310Y-8509110D02*
X11033310Y-8539110D01*
X11043570Y-9094620D02*
X11073570Y-9124620D01*
X11073570Y-9094620D02*
X11043570Y-9124620D01*
X11051400Y-9010000D02*
X11081400Y-9040000D01*
X11081400Y-9010000D02*
X11051400Y-9040000D01*
X11051880Y-8760000D02*
X11081880Y-8790000D01*
X11081880Y-8760000D02*
X11051880Y-8790000D01*
X11077930Y-7229920D02*
X11107930Y-7259920D01*
X11107930Y-7229920D02*
X11077930Y-7259920D01*
X11087170Y-6977610D02*
X11117170Y-7007610D01*
X11117170Y-6977610D02*
X11087170Y-7007610D01*
X11090150Y-10940770D02*
X11120150Y-10970770D01*
X11120150Y-10940770D02*
X11090150Y-10970770D01*
X11134830Y-9597060D02*
X11164830Y-9627060D01*
X11164830Y-9597060D02*
X11134830Y-9627060D01*
X11137090Y-9520950D02*
X11167090Y-9550950D01*
X11167090Y-9520950D02*
X11137090Y-9550950D01*
X11161000Y-9845000D02*
X11191000Y-9875000D01*
X11191000Y-9845000D02*
X11161000Y-9875000D01*
X11210000Y-8527500D02*
X11240000Y-8557500D01*
X11240000Y-8527500D02*
X11210000Y-8557500D01*
X11210000Y-9642500D02*
X11240000Y-9672500D01*
X11240000Y-9642500D02*
X11210000Y-9672500D01*
X11235000Y-11015700D02*
X11265000Y-11045700D01*
X11265000Y-11015700D02*
X11235000Y-11045700D01*
X11295000Y-9617830D02*
X11325000Y-9647830D01*
X11325000Y-9617830D02*
X11295000Y-9647830D01*
X11331000Y-8185000D02*
X11361000Y-8215000D01*
X11361000Y-8185000D02*
X11331000Y-8215000D01*
X11346667Y-8846667D02*
X11376667Y-8876667D01*
X11376667Y-8846667D02*
X11346667Y-8876667D01*
X11346667Y-9085000D02*
X11376667Y-9115000D01*
X11376667Y-9085000D02*
X11346667Y-9115000D01*
X11346667Y-9323333D02*
X11376667Y-9353333D01*
X11376667Y-9323333D02*
X11346667Y-9353333D01*
X11360000Y-8489110D02*
X11390000Y-8519110D01*
X11390000Y-8489110D02*
X11360000Y-8519110D01*
X11386000Y-9812810D02*
X11416000Y-9842810D01*
X11416000Y-9812810D02*
X11386000Y-9842810D01*
X11420790Y-8551430D02*
X11450790Y-8581430D01*
X11450790Y-8551430D02*
X11420790Y-8581430D01*
X11433000Y-10115000D02*
X11463000Y-10145000D01*
X11463000Y-10115000D02*
X11433000Y-10145000D01*
X11476270Y-8314410D02*
X11506270Y-8344410D01*
X11506270Y-8314410D02*
X11476270Y-8344410D01*
X11485000Y-5392500D02*
X11515000Y-5422500D01*
X11515000Y-5392500D02*
X11485000Y-5422500D01*
X11508080Y-9681550D02*
X11538080Y-9711550D01*
X11538080Y-9681550D02*
X11508080Y-9711550D01*
X11531000Y-8185000D02*
X11561000Y-8215000D01*
X11561000Y-8185000D02*
X11531000Y-8215000D01*
X11532850Y-8549910D02*
X11562850Y-8579910D01*
X11562850Y-8549910D02*
X11532850Y-8579910D01*
X11561330Y-9789380D02*
X11591330Y-9819380D01*
X11591330Y-9789380D02*
X11561330Y-9819380D01*
X11585000Y-5742500D02*
X11615000Y-5772500D01*
X11615000Y-5742500D02*
X11585000Y-5772500D01*
X11585000Y-8846667D02*
X11615000Y-8876667D01*
X11615000Y-8846667D02*
X11585000Y-8876667D01*
X11585000Y-9085000D02*
X11615000Y-9115000D01*
X11615000Y-9085000D02*
X11585000Y-9115000D01*
X11585000Y-9323333D02*
X11615000Y-9353333D01*
X11615000Y-9323333D02*
X11585000Y-9353333D01*
X11661070Y-9617860D02*
X11691070Y-9647860D01*
X11691070Y-9617860D02*
X11661070Y-9647860D01*
X11690960Y-8340030D02*
X11720960Y-8370030D01*
X11720960Y-8340030D02*
X11690960Y-8370030D01*
X11709780Y-9707940D02*
X11739780Y-9737940D01*
X11739780Y-9707940D02*
X11709780Y-9737940D01*
X11731000Y-8185000D02*
X11761000Y-8215000D01*
X11761000Y-8185000D02*
X11731000Y-8215000D01*
X11817580Y-9658260D02*
X11847580Y-9688260D01*
X11847580Y-9658260D02*
X11817580Y-9688260D01*
X11823333Y-8846667D02*
X11853333Y-8876667D01*
X11853333Y-8846667D02*
X11823333Y-8876667D01*
X11823333Y-9085000D02*
X11853333Y-9115000D01*
X11853333Y-9085000D02*
X11823333Y-9115000D01*
X11823333Y-9323333D02*
X11853333Y-9353333D01*
X11853333Y-9323333D02*
X11823333Y-9353333D01*
X11833320Y-8352850D02*
X11863320Y-8382850D01*
X11863320Y-8352850D02*
X11833320Y-8382850D01*
X11840320Y-9748360D02*
X11870320Y-9778360D01*
X11870320Y-9748360D02*
X11840320Y-9778360D01*
X11862030Y-8551360D02*
X11892030Y-8581360D01*
X11892030Y-8551360D02*
X11862030Y-8581360D01*
X11885420Y-9619620D02*
X11915420Y-9649620D01*
X11915420Y-9619620D02*
X11885420Y-9649620D01*
X11931000Y-8185000D02*
X11961000Y-8215000D01*
X11961000Y-8185000D02*
X11931000Y-8215000D01*
X11935000Y-10180000D02*
X11965000Y-10210000D01*
X11965000Y-10180000D02*
X11935000Y-10210000D01*
X12012640Y-8571090D02*
X12042640Y-8601090D01*
X12042640Y-8571090D02*
X12012640Y-8601090D01*
X12085000Y-9889000D02*
X12115000Y-9919000D01*
X12115000Y-9889000D02*
X12085000Y-9919000D01*
X12114780Y-9506310D02*
X12144780Y-9536310D01*
X12144780Y-9506310D02*
X12114780Y-9536310D01*
X12131000Y-8185000D02*
X12161000Y-8215000D01*
X12161000Y-8185000D02*
X12131000Y-8215000D01*
X12132950Y-8925160D02*
X12162950Y-8955160D01*
X12162950Y-8925160D02*
X12132950Y-8955160D01*
X12142750Y-10257340D02*
X12172750Y-10287340D01*
X12172750Y-10257340D02*
X12142750Y-10287340D01*
X12190190Y-8868800D02*
X12220190Y-8898800D01*
X12220190Y-8868800D02*
X12190190Y-8898800D01*
X12213420Y-8205770D02*
X12243420Y-8235770D01*
X12243420Y-8205770D02*
X12213420Y-8235770D01*
X12240690Y-8386490D02*
X12270690Y-8416490D01*
X12270690Y-8386490D02*
X12240690Y-8416490D01*
X12262120Y-9002520D02*
X12292120Y-9032520D01*
X12292120Y-9002520D02*
X12262120Y-9032520D01*
X12275450Y-9423170D02*
X12305450Y-9453170D01*
X12305450Y-9423170D02*
X12275450Y-9453170D01*
X12283350Y-8903180D02*
X12313350Y-8933180D01*
X12313350Y-8903180D02*
X12283350Y-8933180D01*
X12331000Y-8235000D02*
X12361000Y-8265000D01*
X12361000Y-8235000D02*
X12331000Y-8265000D01*
X12342890Y-8404830D02*
X12372890Y-8434830D01*
X12372890Y-8404830D02*
X12342890Y-8434830D01*
X12370000Y-10835000D02*
X12400000Y-10865000D01*
X12400000Y-10835000D02*
X12370000Y-10865000D01*
X12381080Y-8564440D02*
X12411080Y-8594440D01*
X12411080Y-8564440D02*
X12381080Y-8594440D01*
X12457430Y-8506170D02*
X12487430Y-8536170D01*
X12487430Y-8506170D02*
X12457430Y-8536170D01*
X12465400Y-9386210D02*
X12495400Y-9416210D01*
X12495400Y-9386210D02*
X12465400Y-9416210D01*
X12500050Y-9647930D02*
X12530050Y-9677930D01*
X12530050Y-9647930D02*
X12500050Y-9677930D01*
X12547500Y-9160000D02*
X12577500Y-9190000D01*
X12577500Y-9160000D02*
X12547500Y-9190000D01*
X12548950Y-8815400D02*
X12578950Y-8845400D01*
X12578950Y-8815400D02*
X12548950Y-8845400D01*
X12612300Y-9221120D02*
X12642300Y-9251120D01*
X12642300Y-9221120D02*
X12612300Y-9251120D01*
X12651140Y-9703820D02*
X12681140Y-9733820D01*
X12681140Y-9703820D02*
X12651140Y-9733820D01*
X12665000Y-8460000D02*
X12695000Y-8490000D01*
X12695000Y-8460000D02*
X12665000Y-8490000D01*
X12680000Y-8085000D02*
X12710000Y-8115000D01*
X12710000Y-8085000D02*
X12680000Y-8115000D01*
X12731000Y-7085000D02*
X12761000Y-7115000D01*
X12761000Y-7085000D02*
X12731000Y-7115000D01*
X12753130Y-8615340D02*
X12783130Y-8645340D01*
X12783130Y-8615340D02*
X12753130Y-8645340D01*
X12762920Y-9103840D02*
X12792920Y-9133840D01*
X12792920Y-9103840D02*
X12762920Y-9133840D01*
X12797680Y-8799200D02*
X12827680Y-8829200D01*
X12827680Y-8799200D02*
X12797680Y-8829200D01*
X12800000Y-10885000D02*
X12830000Y-10915000D01*
X12830000Y-10885000D02*
X12800000Y-10915000D01*
X12804990Y-8368500D02*
X12834990Y-8398500D01*
X12834990Y-8368500D02*
X12804990Y-8398500D01*
X12807240Y-7914310D02*
X12837240Y-7944310D01*
X12837240Y-7914310D02*
X12807240Y-7944310D01*
X12839000Y-10785000D02*
X12869000Y-10815000D01*
X12869000Y-10785000D02*
X12839000Y-10815000D01*
X12858730Y-8744030D02*
X12888730Y-8774030D01*
X12888730Y-8744030D02*
X12858730Y-8774030D01*
X12905150Y-8615170D02*
X12935150Y-8645170D01*
X12935150Y-8615170D02*
X12905150Y-8645170D01*
X12917210Y-9359870D02*
X12947210Y-9389870D01*
X12947210Y-9359870D02*
X12917210Y-9389870D01*
X12931000Y-7835000D02*
X12961000Y-7865000D01*
X12961000Y-7835000D02*
X12931000Y-7865000D01*
X12931000Y-10585000D02*
X12961000Y-10615000D01*
X12961000Y-10585000D02*
X12931000Y-10615000D01*
X12945000Y-6645000D02*
X12975000Y-6675000D01*
X12975000Y-6645000D02*
X12945000Y-6675000D01*
X12948850Y-8760380D02*
X12978850Y-8790380D01*
X12978850Y-8760380D02*
X12948850Y-8790380D01*
X12974990Y-9603650D02*
X13004990Y-9633650D01*
X13004990Y-9603650D02*
X12974990Y-9633650D01*
X12975000Y-8560000D02*
X13005000Y-8590000D01*
X13005000Y-8560000D02*
X12975000Y-8590000D01*
X12975000Y-8910000D02*
X13005000Y-8940000D01*
X13005000Y-8910000D02*
X12975000Y-8940000D01*
X12975000Y-9010000D02*
X13005000Y-9040000D01*
X13005000Y-9010000D02*
X12975000Y-9040000D01*
X12975000Y-9760000D02*
X13005000Y-9790000D01*
X13005000Y-9760000D02*
X12975000Y-9790000D01*
X12983310Y-9093220D02*
X13013310Y-9123220D01*
X13013310Y-9093220D02*
X12983310Y-9123220D01*
X12986850Y-9928420D02*
X13016850Y-9958420D01*
X13016850Y-9928420D02*
X12986850Y-9958420D01*
X12990880Y-9853240D02*
X13020880Y-9883240D01*
X13020880Y-9853240D02*
X12990880Y-9883240D01*
X12996500Y-9311470D02*
X13026500Y-9341470D01*
X13026500Y-9311470D02*
X12996500Y-9341470D01*
X13039000Y-10685000D02*
X13069000Y-10715000D01*
X13069000Y-10685000D02*
X13039000Y-10715000D01*
X13092500Y-10985000D02*
X13122500Y-11015000D01*
X13122500Y-10985000D02*
X13092500Y-11015000D01*
X13092500Y-11235000D02*
X13122500Y-11265000D01*
X13122500Y-11235000D02*
X13092500Y-11265000D01*
X13131000Y-10885000D02*
X13161000Y-10915000D01*
X13161000Y-10885000D02*
X13131000Y-10915000D01*
X13238250Y-8460000D02*
X13268250Y-8490000D01*
X13268250Y-8460000D02*
X13238250Y-8490000D01*
X13238440Y-8710000D02*
X13268440Y-8740000D01*
X13268440Y-8710000D02*
X13238440Y-8740000D01*
X13238820Y-9110000D02*
X13268820Y-9140000D01*
X13268820Y-9110000D02*
X13238820Y-9140000D01*
X13239790Y-8807740D02*
X13269790Y-8837740D01*
X13269790Y-8807740D02*
X13239790Y-8837740D01*
X13240200Y-9359730D02*
X13270200Y-9389730D01*
X13270200Y-9359730D02*
X13240200Y-9389730D01*
X13249990Y-9803350D02*
X13279990Y-9833350D01*
X13279990Y-9803350D02*
X13249990Y-9833350D01*
X13263650Y-9656640D02*
X13293650Y-9686640D01*
X13293650Y-9656640D02*
X13263650Y-9686640D01*
X13264890Y-9476750D02*
X13294890Y-9506750D01*
X13294890Y-9476750D02*
X13264890Y-9506750D01*
X13265860Y-9266160D02*
X13295860Y-9296160D01*
X13295860Y-9266160D02*
X13265860Y-9296160D01*
X13277300Y-8578020D02*
X13307300Y-8608020D01*
X13307300Y-8578020D02*
X13277300Y-8608020D01*
X13300000Y-7635000D02*
X13330000Y-7665000D01*
X13330000Y-7635000D02*
X13300000Y-7665000D01*
X13302670Y-10370350D02*
X13332670Y-10400350D01*
X13332670Y-10370350D02*
X13302670Y-10400350D01*
X13305300Y-10130280D02*
X13335300Y-10160280D01*
X13335300Y-10130280D02*
X13305300Y-10160280D01*
X13317800Y-9409820D02*
X13347800Y-9439820D01*
X13347800Y-9409820D02*
X13317800Y-9439820D01*
X13331000Y-10785000D02*
X13361000Y-10815000D01*
X13361000Y-10785000D02*
X13331000Y-10815000D01*
X13392480Y-9860000D02*
X13422480Y-9890000D01*
X13422480Y-9860000D02*
X13392480Y-9890000D01*
X13394270Y-10372140D02*
X13424270Y-10402140D01*
X13424270Y-10372140D02*
X13394270Y-10402140D01*
X13422140Y-10458950D02*
X13452140Y-10488950D01*
X13452140Y-10458950D02*
X13422140Y-10488950D01*
X13441960Y-10797270D02*
X13471960Y-10827270D01*
X13471960Y-10797270D02*
X13441960Y-10827270D01*
X13444940Y-10131090D02*
X13474940Y-10161090D01*
X13474940Y-10131090D02*
X13444940Y-10161090D01*
X13510000Y-7975000D02*
X13540000Y-8005000D01*
X13540000Y-7975000D02*
X13510000Y-8005000D01*
X13535000Y-6585000D02*
X13565000Y-6615000D01*
X13565000Y-6585000D02*
X13535000Y-6615000D01*
X13560000Y-10541680D02*
X13590000Y-10571680D01*
X13590000Y-10541680D02*
X13560000Y-10571680D01*
X13607750Y-11156750D02*
X13637750Y-11186750D01*
X13637750Y-11156750D02*
X13607750Y-11186750D01*
X13653510Y-8237820D02*
X13683510Y-8267820D01*
X13683510Y-8237820D02*
X13653510Y-8267820D01*
X13660000Y-10130440D02*
X13690000Y-10160440D01*
X13690000Y-10130440D02*
X13660000Y-10160440D01*
X13669400Y-10370990D02*
X13699400Y-10400990D01*
X13699400Y-10370990D02*
X13669400Y-10400990D01*
X13715000Y-5731000D02*
X13745000Y-5761000D01*
X13745000Y-5731000D02*
X13715000Y-5761000D01*
X13760000Y-10395000D02*
X13790000Y-10425000D01*
X13790000Y-10395000D02*
X13760000Y-10425000D01*
X13763740Y-7997140D02*
X13793740Y-8027140D01*
X13793740Y-7997140D02*
X13763740Y-8027140D01*
X13785000Y-6585000D02*
X13815000Y-6615000D01*
X13815000Y-6585000D02*
X13785000Y-6615000D01*
X13785000Y-6829500D02*
X13815000Y-6859500D01*
X13815000Y-6829500D02*
X13785000Y-6859500D01*
X13835000Y-5600000D02*
X13865000Y-5630000D01*
X13865000Y-5600000D02*
X13835000Y-5630000D01*
X13885000Y-7330000D02*
X13915000Y-7360000D01*
X13915000Y-7330000D02*
X13885000Y-7360000D01*
X13905000Y-10670000D02*
X13935000Y-10700000D01*
X13935000Y-10670000D02*
X13905000Y-10700000D01*
X13910000Y-7975000D02*
X13940000Y-8005000D01*
X13940000Y-7975000D02*
X13910000Y-8005000D01*
X13910000Y-10370270D02*
X13940000Y-10400270D01*
X13940000Y-10370270D02*
X13910000Y-10400270D01*
X14010000Y-7665000D02*
X14040000Y-7695000D01*
X14040000Y-7665000D02*
X14010000Y-7695000D01*
X14047830Y-7987770D02*
X14077830Y-8017770D01*
X14077830Y-7987770D02*
X14047830Y-8017770D01*
X14090000Y-6410000D02*
X14120000Y-6440000D01*
X14120000Y-6410000D02*
X14090000Y-6440000D01*
X14110000Y-10395000D02*
X14140000Y-10425000D01*
X14140000Y-10395000D02*
X14110000Y-10425000D01*
X14160000Y-7975000D02*
X14190000Y-8005000D01*
X14190000Y-7975000D02*
X14160000Y-8005000D01*
X14212270Y-10538240D02*
X14242270Y-10568240D01*
X14242270Y-10538240D02*
X14212270Y-10568240D01*
X14263630Y-9541920D02*
X14293630Y-9571920D01*
X14293630Y-9541920D02*
X14263630Y-9571920D01*
X14275630Y-7991840D02*
X14305630Y-8021840D01*
X14305630Y-7991840D02*
X14275630Y-8021840D01*
X14310000Y-10395000D02*
X14340000Y-10425000D01*
X14340000Y-10395000D02*
X14310000Y-10425000D01*
X14335000Y-5770000D02*
X14365000Y-5800000D01*
X14365000Y-5770000D02*
X14335000Y-5800000D01*
X14335000Y-6067000D02*
X14365000Y-6097000D01*
X14365000Y-6067000D02*
X14335000Y-6097000D01*
X14335000Y-7233000D02*
X14365000Y-7263000D01*
X14365000Y-7233000D02*
X14335000Y-7263000D01*
X14359970Y-9496450D02*
X14389970Y-9526450D01*
X14389970Y-9496450D02*
X14359970Y-9526450D01*
X14360000Y-7975000D02*
X14390000Y-8005000D01*
X14390000Y-7975000D02*
X14360000Y-8005000D01*
X14410000Y-10395000D02*
X14440000Y-10425000D01*
X14440000Y-10395000D02*
X14410000Y-10425000D01*
X14415000Y-10739000D02*
X14445000Y-10769000D01*
X14445000Y-10739000D02*
X14415000Y-10769000D01*
X14419000Y-5825000D02*
X14449000Y-5855000D01*
X14449000Y-5825000D02*
X14419000Y-5855000D01*
X14455000Y-5731000D02*
X14485000Y-5761000D01*
X14485000Y-5731000D02*
X14455000Y-5761000D01*
X14470000Y-6310000D02*
X14500000Y-6340000D01*
X14500000Y-6310000D02*
X14470000Y-6340000D01*
X14470000Y-6510000D02*
X14500000Y-6540000D01*
X14500000Y-6510000D02*
X14470000Y-6540000D01*
X14470000Y-6710000D02*
X14500000Y-6740000D01*
X14500000Y-6710000D02*
X14470000Y-6740000D01*
X14470000Y-6810000D02*
X14500000Y-6840000D01*
X14500000Y-6810000D02*
X14470000Y-6840000D01*
X14470000Y-6910000D02*
X14500000Y-6940000D01*
X14500000Y-6910000D02*
X14470000Y-6940000D01*
X14470000Y-7010000D02*
X14500000Y-7040000D01*
X14500000Y-7010000D02*
X14470000Y-7040000D01*
X14470000Y-7110000D02*
X14500000Y-7140000D01*
X14500000Y-7110000D02*
X14470000Y-7140000D01*
X14475000Y-11248500D02*
X14505000Y-11278500D01*
X14505000Y-11248500D02*
X14475000Y-11278500D01*
X14475000Y-11375500D02*
X14505000Y-11405500D01*
X14505000Y-11375500D02*
X14475000Y-11405500D01*
X14488930Y-8295290D02*
X14518930Y-8325290D01*
X14518930Y-8295290D02*
X14488930Y-8325290D01*
X14503560Y-6227020D02*
X14533560Y-6257020D01*
X14533560Y-6227020D02*
X14503560Y-6257020D01*
X14535000Y-7399000D02*
X14565000Y-7429000D01*
X14565000Y-7399000D02*
X14535000Y-7429000D01*
X14580170Y-7257090D02*
X14610170Y-7287090D01*
X14610170Y-7257090D02*
X14580170Y-7287090D01*
X14595970Y-8957760D02*
X14625970Y-8987760D01*
X14625970Y-8957760D02*
X14595970Y-8987760D01*
X14628900Y-7524030D02*
X14658900Y-7554030D01*
X14658900Y-7524030D02*
X14628900Y-7554030D01*
X14657910Y-7227920D02*
X14687910Y-7257920D01*
X14687910Y-7227920D02*
X14657910Y-7257920D01*
X14669510Y-8457770D02*
X14699510Y-8487770D01*
X14699510Y-8457770D02*
X14669510Y-8487770D01*
X14679000Y-5725000D02*
X14709000Y-5755000D01*
X14709000Y-5725000D02*
X14679000Y-5755000D01*
X14681930Y-7976500D02*
X14711930Y-8006500D01*
X14711930Y-7976500D02*
X14681930Y-8006500D01*
X14684710Y-10131440D02*
X14714710Y-10161440D01*
X14714710Y-10131440D02*
X14684710Y-10161440D01*
X14711000Y-5925000D02*
X14741000Y-5955000D01*
X14741000Y-5925000D02*
X14711000Y-5955000D01*
X14717180Y-7171760D02*
X14747180Y-7201760D01*
X14747180Y-7171760D02*
X14717180Y-7201760D01*
X14738110Y-8240110D02*
X14768110Y-8270110D01*
X14768110Y-8240110D02*
X14738110Y-8270110D01*
X14757090Y-8361500D02*
X14787090Y-8391500D01*
X14787090Y-8361500D02*
X14757090Y-8391500D01*
X14760010Y-10131590D02*
X14790010Y-10161590D01*
X14790010Y-10131590D02*
X14760010Y-10161590D01*
X14764140Y-7975730D02*
X14794140Y-8005730D01*
X14794140Y-7975730D02*
X14764140Y-8005730D01*
X14768400Y-10919710D02*
X14798400Y-10949710D01*
X14798400Y-10919710D02*
X14768400Y-10949710D01*
X14774710Y-9733190D02*
X14804710Y-9763190D01*
X14804710Y-9733190D02*
X14774710Y-9763190D01*
X14778680Y-6773850D02*
X14808680Y-6803850D01*
X14808680Y-6773850D02*
X14778680Y-6803850D01*
X14782640Y-9193990D02*
X14812640Y-9223990D01*
X14812640Y-9193990D02*
X14782640Y-9223990D01*
X14783900Y-7111280D02*
X14813900Y-7141280D01*
X14813900Y-7111280D02*
X14783900Y-7141280D01*
X14801150Y-6946530D02*
X14831150Y-6976530D01*
X14831150Y-6946530D02*
X14801150Y-6976530D01*
X14810000Y-10373220D02*
X14840000Y-10403220D01*
X14840000Y-10373220D02*
X14810000Y-10403220D01*
X14810460Y-7416210D02*
X14840460Y-7446210D01*
X14840460Y-7416210D02*
X14810460Y-7446210D01*
X14825550Y-8647930D02*
X14855550Y-8677930D01*
X14855550Y-8647930D02*
X14825550Y-8677930D01*
X14832240Y-7855690D02*
X14862240Y-7885690D01*
X14862240Y-7855690D02*
X14832240Y-7885690D01*
X14835170Y-7769150D02*
X14865170Y-7799150D01*
X14865170Y-7769150D02*
X14835170Y-7799150D01*
X14835920Y-7497470D02*
X14865920Y-7527470D01*
X14865920Y-7497470D02*
X14835920Y-7527470D01*
X14839000Y-10535000D02*
X14869000Y-10565000D01*
X14869000Y-10535000D02*
X14839000Y-10565000D01*
X14839000Y-11685000D02*
X14869000Y-11715000D01*
X14869000Y-11685000D02*
X14839000Y-11715000D01*
X14839300Y-5992990D02*
X14869300Y-6022990D01*
X14869300Y-5992990D02*
X14839300Y-6022990D01*
X14862730Y-7976450D02*
X14892730Y-8006450D01*
X14892730Y-7976450D02*
X14862730Y-8006450D01*
X14863450Y-10131560D02*
X14893450Y-10161560D01*
X14893450Y-10131560D02*
X14863450Y-10161560D01*
X14878130Y-7377560D02*
X14908130Y-7407560D01*
X14908130Y-7377560D02*
X14878130Y-7407560D01*
X14885100Y-8585550D02*
X14915100Y-8615550D01*
X14915100Y-8585550D02*
X14885100Y-8615550D01*
X14903740Y-8778100D02*
X14933740Y-8808100D01*
X14933740Y-8778100D02*
X14903740Y-8808100D01*
X14910000Y-10395000D02*
X14940000Y-10425000D01*
X14940000Y-10395000D02*
X14910000Y-10425000D01*
X14912260Y-7577430D02*
X14942260Y-7607430D01*
X14942260Y-7577430D02*
X14912260Y-7607430D01*
X14912500Y-7063480D02*
X14942500Y-7093480D01*
X14942500Y-7063480D02*
X14912500Y-7093480D01*
X14939000Y-5725000D02*
X14969000Y-5755000D01*
X14969000Y-5725000D02*
X14939000Y-5755000D01*
X14946530Y-7713980D02*
X14976530Y-7743980D01*
X14976530Y-7713980D02*
X14946530Y-7743980D01*
X14960000Y-7400000D02*
X14990000Y-7430000D01*
X14990000Y-7400000D02*
X14960000Y-7430000D01*
X14968750Y-7128610D02*
X14998750Y-7158610D01*
X14998750Y-7128610D02*
X14968750Y-7158610D01*
X14971000Y-5925000D02*
X15001000Y-5955000D01*
X15001000Y-5925000D02*
X14971000Y-5955000D01*
X15024800Y-9553300D02*
X15054800Y-9583300D01*
X15054800Y-9553300D02*
X15024800Y-9583300D01*
X15035850Y-7376040D02*
X15065850Y-7406040D01*
X15065850Y-7376040D02*
X15035850Y-7406040D01*
X15039000Y-7635000D02*
X15069000Y-7665000D01*
X15069000Y-7635000D02*
X15039000Y-7665000D01*
X15039000Y-10785000D02*
X15069000Y-10815000D01*
X15069000Y-10785000D02*
X15039000Y-10815000D01*
X15044850Y-9068830D02*
X15074850Y-9098830D01*
X15074850Y-9068830D02*
X15044850Y-9098830D01*
X15060000Y-10395000D02*
X15090000Y-10425000D01*
X15090000Y-10395000D02*
X15060000Y-10425000D01*
X15067120Y-9910000D02*
X15097120Y-9940000D01*
X15097120Y-9910000D02*
X15067120Y-9940000D01*
X15080800Y-5993440D02*
X15110800Y-6023440D01*
X15110800Y-5993440D02*
X15080800Y-6023440D01*
X15082700Y-9451870D02*
X15112700Y-9481870D01*
X15112700Y-9451870D02*
X15082700Y-9481870D01*
X15101500Y-9710000D02*
X15131500Y-9740000D01*
X15131500Y-9710000D02*
X15101500Y-9740000D01*
X15110000Y-7129410D02*
X15140000Y-7159410D01*
X15140000Y-7129410D02*
X15110000Y-7159410D01*
X15121880Y-9519430D02*
X15151880Y-9549430D01*
X15151880Y-9519430D02*
X15121880Y-9549430D01*
X15124470Y-10224080D02*
X15154470Y-10254080D01*
X15154470Y-10224080D02*
X15124470Y-10254080D01*
X15125780Y-8860160D02*
X15155780Y-8890160D01*
X15155780Y-8860160D02*
X15125780Y-8890160D01*
X15129100Y-9610000D02*
X15159100Y-9640000D01*
X15159100Y-9610000D02*
X15129100Y-9640000D01*
X15131000Y-10535000D02*
X15161000Y-10565000D01*
X15161000Y-10535000D02*
X15131000Y-10565000D01*
X15131000Y-11685000D02*
X15161000Y-11715000D01*
X15161000Y-11685000D02*
X15131000Y-11715000D01*
X15131400Y-9241320D02*
X15161400Y-9271320D01*
X15161400Y-9241320D02*
X15131400Y-9271320D01*
X15132090Y-8457940D02*
X15162090Y-8487940D01*
X15162090Y-8457940D02*
X15132090Y-8487940D01*
X15132140Y-9981140D02*
X15162140Y-10011140D01*
X15162140Y-9981140D02*
X15132140Y-10011140D01*
X15144930Y-5234500D02*
X15174930Y-5264500D01*
X15174930Y-5234500D02*
X15144930Y-5264500D01*
X15148980Y-7447000D02*
X15178980Y-7477000D01*
X15178980Y-7447000D02*
X15148980Y-7477000D01*
X15153800Y-7915060D02*
X15183800Y-7945060D01*
X15183800Y-7915060D02*
X15153800Y-7945060D01*
X15160000Y-5970000D02*
X15190000Y-6000000D01*
X15190000Y-5970000D02*
X15160000Y-6000000D01*
X15199000Y-5725000D02*
X15229000Y-5755000D01*
X15229000Y-5725000D02*
X15199000Y-5755000D01*
X15210000Y-7400000D02*
X15240000Y-7430000D01*
X15240000Y-7400000D02*
X15210000Y-7430000D01*
X15225240Y-7023030D02*
X15255240Y-7053030D01*
X15255240Y-7023030D02*
X15225240Y-7053030D01*
X15231000Y-5925000D02*
X15261000Y-5955000D01*
X15261000Y-5925000D02*
X15231000Y-5955000D01*
X15239000Y-7535000D02*
X15269000Y-7565000D01*
X15269000Y-7535000D02*
X15239000Y-7565000D01*
X15239000Y-10905000D02*
X15269000Y-10935000D01*
X15269000Y-10905000D02*
X15239000Y-10935000D01*
X15239430Y-7829430D02*
X15269430Y-7859430D01*
X15269430Y-7829430D02*
X15239430Y-7859430D01*
X15310000Y-7459080D02*
X15340000Y-7489080D01*
X15340000Y-7459080D02*
X15310000Y-7489080D01*
X15331000Y-7735000D02*
X15361000Y-7765000D01*
X15361000Y-7735000D02*
X15331000Y-7765000D01*
X15331000Y-10685000D02*
X15361000Y-10715000D01*
X15361000Y-10685000D02*
X15331000Y-10715000D01*
X15360110Y-10099570D02*
X15390110Y-10129570D01*
X15390110Y-10099570D02*
X15360110Y-10129570D01*
X15371850Y-9723410D02*
X15401850Y-9753410D01*
X15401850Y-9723410D02*
X15371850Y-9753410D01*
X15371990Y-8966260D02*
X15401990Y-8996260D01*
X15401990Y-8966260D02*
X15371990Y-8996260D01*
X15377570Y-7796630D02*
X15407570Y-7826630D01*
X15407570Y-7796630D02*
X15377570Y-7826630D01*
X15385710Y-10312120D02*
X15415710Y-10342120D01*
X15415710Y-10312120D02*
X15385710Y-10342120D01*
X15389000Y-8135000D02*
X15419000Y-8165000D01*
X15419000Y-8135000D02*
X15389000Y-8165000D01*
X15395000Y-8310000D02*
X15425000Y-8340000D01*
X15425000Y-8310000D02*
X15395000Y-8340000D01*
X15395000Y-8560000D02*
X15425000Y-8590000D01*
X15425000Y-8560000D02*
X15395000Y-8590000D01*
X15395000Y-8710000D02*
X15425000Y-8740000D01*
X15425000Y-8710000D02*
X15395000Y-8740000D01*
X15395000Y-9260000D02*
X15425000Y-9290000D01*
X15425000Y-9260000D02*
X15395000Y-9290000D01*
X15395000Y-9410000D02*
X15425000Y-9440000D01*
X15425000Y-9410000D02*
X15395000Y-9440000D01*
X15410000Y-7129510D02*
X15440000Y-7159510D01*
X15440000Y-7129510D02*
X15410000Y-7159510D01*
X15418920Y-10718880D02*
X15448920Y-10748880D01*
X15448920Y-10718880D02*
X15418920Y-10748880D01*
X15430680Y-7375570D02*
X15460680Y-7405570D01*
X15460680Y-7375570D02*
X15430680Y-7405570D01*
X15432350Y-9782220D02*
X15462350Y-9812220D01*
X15462350Y-9782220D02*
X15432350Y-9812220D01*
X15438030Y-9071140D02*
X15468030Y-9101140D01*
X15468030Y-9071140D02*
X15438030Y-9101140D01*
X15440390Y-8386850D02*
X15470390Y-8416850D01*
X15470390Y-8386850D02*
X15440390Y-8416850D01*
X15453030Y-10507180D02*
X15483030Y-10537180D01*
X15483030Y-10507180D02*
X15453030Y-10537180D01*
X15455910Y-10429470D02*
X15485910Y-10459470D01*
X15485910Y-10429470D02*
X15455910Y-10459470D01*
X15460000Y-5970000D02*
X15490000Y-6000000D01*
X15490000Y-5970000D02*
X15460000Y-6000000D01*
X15464420Y-9307680D02*
X15494420Y-9337680D01*
X15494420Y-9307680D02*
X15464420Y-9337680D01*
X15473750Y-8747120D02*
X15503750Y-8777120D01*
X15503750Y-8747120D02*
X15473750Y-8777120D01*
X15475310Y-8823570D02*
X15505310Y-8853570D01*
X15505310Y-8823570D02*
X15475310Y-8853570D01*
X15491000Y-5825000D02*
X15521000Y-5855000D01*
X15521000Y-5825000D02*
X15491000Y-5855000D01*
X15495000Y-10994500D02*
X15525000Y-11024500D01*
X15525000Y-10994500D02*
X15495000Y-11024500D01*
X15495000Y-11121500D02*
X15525000Y-11151500D01*
X15525000Y-11121500D02*
X15495000Y-11151500D01*
X15495140Y-11240900D02*
X15525140Y-11270900D01*
X15525140Y-11240900D02*
X15495140Y-11270900D01*
X15506970Y-13304070D02*
X15536970Y-13334070D01*
X15536970Y-13304070D02*
X15506970Y-13334070D01*
X15510000Y-7400000D02*
X15540000Y-7430000D01*
X15540000Y-7400000D02*
X15510000Y-7430000D01*
X15512360Y-7119310D02*
X15542360Y-7149310D01*
X15542360Y-7119310D02*
X15512360Y-7149310D01*
X15513420Y-9040700D02*
X15543420Y-9070700D01*
X15543420Y-9040700D02*
X15513420Y-9070700D01*
X15518860Y-9526790D02*
X15548860Y-9556790D01*
X15548860Y-9526790D02*
X15518860Y-9556790D01*
X15531000Y-7635000D02*
X15561000Y-7665000D01*
X15561000Y-7635000D02*
X15531000Y-7665000D01*
X15531000Y-10805000D02*
X15561000Y-10835000D01*
X15561000Y-10805000D02*
X15531000Y-10835000D01*
X15534280Y-10042890D02*
X15564280Y-10072890D01*
X15564280Y-10042890D02*
X15534280Y-10072890D01*
X15542490Y-9869960D02*
X15572490Y-9899960D01*
X15572490Y-9869960D02*
X15542490Y-9899960D01*
X15560300Y-8838450D02*
X15590300Y-8868450D01*
X15590300Y-8838450D02*
X15560300Y-8868450D01*
X15564650Y-5400200D02*
X15594650Y-5430200D01*
X15594650Y-5400200D02*
X15564650Y-5430200D01*
X15585000Y-13533000D02*
X15615000Y-13563000D01*
X15615000Y-13533000D02*
X15585000Y-13563000D01*
X15589000Y-5905000D02*
X15619000Y-5935000D01*
X15619000Y-5905000D02*
X15589000Y-5935000D01*
X15594770Y-9301960D02*
X15624770Y-9331960D01*
X15624770Y-9301960D02*
X15594770Y-9331960D01*
X15615350Y-10758650D02*
X15645350Y-10788650D01*
X15645350Y-10758650D02*
X15615350Y-10788650D01*
X15621020Y-6223700D02*
X15651020Y-6253700D01*
X15651020Y-6223700D02*
X15621020Y-6253700D01*
X15626920Y-6627510D02*
X15656920Y-6657510D01*
X15656920Y-6627510D02*
X15626920Y-6657510D01*
X15628740Y-6410000D02*
X15658740Y-6440000D01*
X15658740Y-6410000D02*
X15628740Y-6440000D01*
X15629520Y-6710000D02*
X15659520Y-6740000D01*
X15659520Y-6710000D02*
X15629520Y-6740000D01*
X15639910Y-9817770D02*
X15669910Y-9847770D01*
X15669910Y-9817770D02*
X15639910Y-9847770D01*
X15681000Y-7835000D02*
X15711000Y-7865000D01*
X15711000Y-7835000D02*
X15681000Y-7865000D01*
X15681000Y-8135000D02*
X15711000Y-8165000D01*
X15711000Y-8135000D02*
X15681000Y-8165000D01*
X15681000Y-10585000D02*
X15711000Y-10615000D01*
X15711000Y-10585000D02*
X15681000Y-10615000D01*
X15685000Y-11133000D02*
X15715000Y-11163000D01*
X15715000Y-11133000D02*
X15685000Y-11163000D01*
X15762580Y-10866390D02*
X15792580Y-10896390D01*
X15792580Y-10866390D02*
X15762580Y-10896390D01*
X15770620Y-9116680D02*
X15800620Y-9146680D01*
X15800620Y-9116680D02*
X15770620Y-9146680D01*
X15771320Y-10688190D02*
X15801320Y-10718190D01*
X15801320Y-10688190D02*
X15771320Y-10718190D01*
X15805790Y-8680600D02*
X15835790Y-8710600D01*
X15835790Y-8680600D02*
X15805790Y-8710600D01*
X15805790Y-9025100D02*
X15835790Y-9055100D01*
X15835790Y-9025100D02*
X15805790Y-9055100D01*
X15805820Y-8254250D02*
X15835820Y-8284250D01*
X15835820Y-8254250D02*
X15805820Y-8284250D01*
X15825350Y-8139020D02*
X15855350Y-8169020D01*
X15855350Y-8139020D02*
X15825350Y-8169020D01*
X15867150Y-10093570D02*
X15897150Y-10123570D01*
X15897150Y-10093570D02*
X15867150Y-10123570D01*
X15875550Y-6800940D02*
X15905550Y-6830940D01*
X15905550Y-6800940D02*
X15875550Y-6830940D01*
X15875770Y-9722590D02*
X15905770Y-9752590D01*
X15905770Y-9722590D02*
X15875770Y-9752590D01*
X15877390Y-6460000D02*
X15907390Y-6490000D01*
X15907390Y-6460000D02*
X15877390Y-6490000D01*
X15881000Y-5905000D02*
X15911000Y-5935000D01*
X15911000Y-5905000D02*
X15881000Y-5935000D01*
X15885000Y-11133000D02*
X15915000Y-11163000D01*
X15915000Y-11133000D02*
X15885000Y-11163000D01*
X15887410Y-8325000D02*
X15917410Y-8355000D01*
X15917410Y-8325000D02*
X15887410Y-8355000D01*
X15891250Y-13580000D02*
X15921250Y-13610000D01*
X15921250Y-13580000D02*
X15891250Y-13610000D01*
X15900000Y-6360000D02*
X15930000Y-6390000D01*
X15930000Y-6360000D02*
X15900000Y-6390000D01*
X15900000Y-6610000D02*
X15930000Y-6640000D01*
X15930000Y-6610000D02*
X15900000Y-6640000D01*
X15900000Y-6960000D02*
X15930000Y-6990000D01*
X15930000Y-6960000D02*
X15900000Y-6990000D01*
X15958800Y-9985000D02*
X15988800Y-10015000D01*
X15988800Y-9985000D02*
X15958800Y-10015000D01*
X15960250Y-9444860D02*
X15990250Y-9474860D01*
X15990250Y-9444860D02*
X15960250Y-9474860D01*
X15960290Y-8543500D02*
X15990290Y-8573500D01*
X15990290Y-8543500D02*
X15960290Y-8573500D01*
X15962580Y-6655640D02*
X15992580Y-6685640D01*
X15992580Y-6655640D02*
X15962580Y-6685640D01*
X15968220Y-9174870D02*
X15998220Y-9204870D01*
X15998220Y-9174870D02*
X15968220Y-9204870D01*
X15989260Y-8989170D02*
X16019260Y-9019170D01*
X16019260Y-8989170D02*
X15989260Y-9019170D01*
X16000000Y-5234500D02*
X16030000Y-5264500D01*
X16030000Y-5234500D02*
X16000000Y-5264500D01*
X16000000Y-5488500D02*
X16030000Y-5518500D01*
X16030000Y-5488500D02*
X16000000Y-5518500D01*
X16000000Y-5615500D02*
X16030000Y-5645500D01*
X16030000Y-5615500D02*
X16000000Y-5645500D01*
X16026550Y-9117920D02*
X16056550Y-9147920D01*
X16056550Y-9117920D02*
X16026550Y-9147920D01*
X16027440Y-9774800D02*
X16057440Y-9804800D01*
X16057440Y-9774800D02*
X16027440Y-9804800D01*
X16032700Y-9400300D02*
X16062700Y-9430300D01*
X16062700Y-9400300D02*
X16032700Y-9430300D01*
X16033750Y-9323330D02*
X16063750Y-9353330D01*
X16063750Y-9323330D02*
X16033750Y-9353330D01*
X16059240Y-10035910D02*
X16089240Y-10065910D01*
X16089240Y-10035910D02*
X16059240Y-10065910D01*
X16085000Y-11133000D02*
X16115000Y-11163000D01*
X16115000Y-11133000D02*
X16085000Y-11163000D01*
X16092500Y-6935000D02*
X16122500Y-6965000D01*
X16122500Y-6935000D02*
X16092500Y-6965000D01*
X16098880Y-8506810D02*
X16128880Y-8536810D01*
X16128880Y-8506810D02*
X16098880Y-8536810D01*
X16105340Y-9925000D02*
X16135340Y-9955000D01*
X16135340Y-9925000D02*
X16105340Y-9955000D01*
X16108160Y-8805000D02*
X16138160Y-8835000D01*
X16138160Y-8805000D02*
X16108160Y-8835000D01*
X16112160Y-8609430D02*
X16142160Y-8639430D01*
X16142160Y-8609430D02*
X16112160Y-8639430D01*
X16122620Y-10245000D02*
X16152620Y-10275000D01*
X16152620Y-10245000D02*
X16122620Y-10275000D01*
X16135380Y-10005000D02*
X16165380Y-10035000D01*
X16165380Y-10005000D02*
X16135380Y-10035000D01*
X16138820Y-9457220D02*
X16168820Y-9487220D01*
X16168820Y-9457220D02*
X16138820Y-9487220D01*
X16139000Y-7135000D02*
X16169000Y-7165000D01*
X16169000Y-7135000D02*
X16139000Y-7165000D01*
X16149430Y-9587840D02*
X16179430Y-9617840D01*
X16179430Y-9587840D02*
X16149430Y-9617840D01*
X16163710Y-11007920D02*
X16193710Y-11037920D01*
X16193710Y-11007920D02*
X16163710Y-11037920D01*
X16164500Y-8885000D02*
X16194500Y-8915000D01*
X16194500Y-8885000D02*
X16164500Y-8915000D01*
X16164500Y-9125000D02*
X16194500Y-9155000D01*
X16194500Y-9125000D02*
X16164500Y-9155000D01*
X16164500Y-9285000D02*
X16194500Y-9315000D01*
X16194500Y-9285000D02*
X16164500Y-9315000D01*
X16176290Y-8666800D02*
X16206290Y-8696800D01*
X16206290Y-8666800D02*
X16176290Y-8696800D01*
X16179010Y-8510350D02*
X16209010Y-8540350D01*
X16209010Y-8510350D02*
X16179010Y-8540350D01*
X16185000Y-11970000D02*
X16215000Y-12000000D01*
X16215000Y-11970000D02*
X16185000Y-12000000D01*
X16187490Y-9517500D02*
X16217490Y-9547500D01*
X16217490Y-9517500D02*
X16187490Y-9547500D01*
X16187610Y-10312120D02*
X16217610Y-10342120D01*
X16217610Y-10312120D02*
X16187610Y-10342120D01*
X16235000Y-12692500D02*
X16265000Y-12722500D01*
X16265000Y-12692500D02*
X16235000Y-12722500D01*
X16235000Y-13077500D02*
X16265000Y-13107500D01*
X16265000Y-13077500D02*
X16235000Y-13107500D01*
X16287000Y-5285000D02*
X16317000Y-5315000D01*
X16317000Y-5285000D02*
X16287000Y-5315000D01*
X16287000Y-5485000D02*
X16317000Y-5515000D01*
X16317000Y-5485000D02*
X16287000Y-5515000D01*
X16287000Y-5685000D02*
X16317000Y-5715000D01*
X16317000Y-5685000D02*
X16287000Y-5715000D01*
X16293240Y-12201220D02*
X16323240Y-12231220D01*
X16323240Y-12201220D02*
X16293240Y-12231220D01*
X16310000Y-8152100D02*
X16340000Y-8182100D01*
X16340000Y-8152100D02*
X16310000Y-8182100D01*
X16310000Y-10417900D02*
X16340000Y-10447900D01*
X16340000Y-10417900D02*
X16310000Y-10447900D01*
X16322500Y-12087500D02*
X16352500Y-12117500D01*
X16352500Y-12087500D02*
X16322500Y-12117500D01*
X16322500Y-12282500D02*
X16352500Y-12312500D01*
X16352500Y-12282500D02*
X16322500Y-12312500D01*
X16385000Y-13533000D02*
X16415000Y-13563000D01*
X16415000Y-13533000D02*
X16385000Y-13563000D01*
X16403700Y-8023270D02*
X16433700Y-8053270D01*
X16433700Y-8023270D02*
X16403700Y-8053270D01*
X16431000Y-6335000D02*
X16461000Y-6365000D01*
X16461000Y-6335000D02*
X16431000Y-6365000D01*
X16431000Y-6535000D02*
X16461000Y-6565000D01*
X16461000Y-6535000D02*
X16431000Y-6565000D01*
X16431000Y-6735000D02*
X16461000Y-6765000D01*
X16461000Y-6735000D02*
X16431000Y-6765000D01*
X16431000Y-7135000D02*
X16461000Y-7165000D01*
X16461000Y-7135000D02*
X16431000Y-7165000D01*
X16431320Y-9525000D02*
X16461320Y-9555000D01*
X16461320Y-9525000D02*
X16431320Y-9555000D01*
X16431730Y-9205000D02*
X16461730Y-9235000D01*
X16461730Y-9205000D02*
X16431730Y-9235000D01*
X16432340Y-10012260D02*
X16462340Y-10042260D01*
X16462340Y-10012260D02*
X16432340Y-10042260D01*
X16432520Y-9107820D02*
X16462520Y-9137820D01*
X16462520Y-9107820D02*
X16432520Y-9137820D01*
X16435000Y-12790000D02*
X16465000Y-12820000D01*
X16465000Y-12790000D02*
X16435000Y-12820000D01*
X16435000Y-12885000D02*
X16465000Y-12915000D01*
X16465000Y-12885000D02*
X16435000Y-12915000D01*
X16435000Y-12980000D02*
X16465000Y-13010000D01*
X16465000Y-12980000D02*
X16435000Y-13010000D01*
X16477500Y-6135000D02*
X16507500Y-6165000D01*
X16507500Y-6135000D02*
X16477500Y-6165000D01*
X16477500Y-6935000D02*
X16507500Y-6965000D01*
X16507500Y-6935000D02*
X16477500Y-6965000D01*
X16534310Y-8786250D02*
X16564310Y-8816250D01*
X16564310Y-8786250D02*
X16534310Y-8816250D01*
X16549370Y-9097710D02*
X16579370Y-9127710D01*
X16579370Y-9097710D02*
X16549370Y-9127710D01*
X16560000Y-8312100D02*
X16590000Y-8342100D01*
X16590000Y-8312100D02*
X16560000Y-8342100D01*
X16560000Y-8552100D02*
X16590000Y-8582100D01*
X16590000Y-8552100D02*
X16560000Y-8582100D01*
X16638160Y-10456430D02*
X16668160Y-10486430D01*
X16668160Y-10456430D02*
X16638160Y-10486430D01*
X16649560Y-9971040D02*
X16679560Y-10001040D01*
X16679560Y-9971040D02*
X16649560Y-10001040D01*
X16694440Y-8875960D02*
X16724440Y-8905960D01*
X16724440Y-8875960D02*
X16694440Y-8905960D01*
X16709400Y-9913590D02*
X16739400Y-9943590D01*
X16739400Y-9913590D02*
X16709400Y-9943590D01*
X16744140Y-9765000D02*
X16774140Y-9795000D01*
X16774140Y-9765000D02*
X16744140Y-9795000D01*
X16800460Y-9603560D02*
X16830460Y-9633560D01*
X16830460Y-9603560D02*
X16800460Y-9633560D01*
X16803020Y-8769660D02*
X16833020Y-8799660D01*
X16833020Y-8769660D02*
X16803020Y-8799660D01*
X16856060Y-9498680D02*
X16886060Y-9528680D01*
X16886060Y-9498680D02*
X16856060Y-9528680D01*
X17025460Y-9200990D02*
X17055460Y-9230990D01*
X17055460Y-9200990D02*
X17025460Y-9230990D01*
X17034990Y-9605000D02*
X17064990Y-9635000D01*
X17064990Y-9605000D02*
X17034990Y-9635000D01*
X17047500Y-12217500D02*
X17077500Y-12247500D01*
X17077500Y-12217500D02*
X17047500Y-12247500D01*
X17070160Y-9419610D02*
X17100160Y-9449610D01*
X17100160Y-9419610D02*
X17070160Y-9449610D01*
X17070160Y-9495750D02*
X17100160Y-9525750D01*
X17100160Y-9495750D02*
X17070160Y-9525750D01*
X17135000Y-12792500D02*
X17165000Y-12822500D01*
X17165000Y-12792500D02*
X17135000Y-12822500D01*
X17217130Y-8935640D02*
X17247130Y-8965640D01*
X17247130Y-8935640D02*
X17217130Y-8965640D01*
X17336310Y-9205000D02*
X17366310Y-9235000D01*
X17366310Y-9205000D02*
X17336310Y-9235000D01*
X17337850Y-10157440D02*
X17367850Y-10187440D01*
X17367850Y-10157440D02*
X17337850Y-10187440D01*
X17437000Y-12635000D02*
X17467000Y-12665000D01*
X17467000Y-12635000D02*
X17437000Y-12665000D01*
X17437000Y-13085000D02*
X17467000Y-13115000D01*
X17467000Y-13085000D02*
X17437000Y-13115000D01*
X17460000Y-8152100D02*
X17490000Y-8182100D01*
X17490000Y-8152100D02*
X17460000Y-8182100D01*
X17460000Y-10417900D02*
X17490000Y-10447900D01*
X17490000Y-10417900D02*
X17460000Y-10447900D01*
X17605000Y-12185000D02*
X17635000Y-12215000D01*
X17635000Y-12185000D02*
X17605000Y-12215000D01*
X17605500Y-8885000D02*
X17635500Y-8915000D01*
X17635500Y-8885000D02*
X17605500Y-8915000D01*
X17605500Y-9125000D02*
X17635500Y-9155000D01*
X17635500Y-9125000D02*
X17605500Y-9155000D01*
X17605500Y-9285000D02*
X17635500Y-9315000D01*
X17635500Y-9285000D02*
X17605500Y-9315000D01*
X17710000Y-8312100D02*
X17740000Y-8342100D01*
X17740000Y-8312100D02*
X17710000Y-8342100D01*
X17710000Y-8552100D02*
X17740000Y-8582100D01*
X17740000Y-8552100D02*
X17710000Y-8582100D01*
X17733000Y-12815000D02*
X17763000Y-12845000D01*
X17763000Y-12815000D02*
X17733000Y-12845000D01*
X17739000Y-8385000D02*
X17769000Y-8415000D01*
X17769000Y-8385000D02*
X17739000Y-8415000D01*
X17739000Y-8635000D02*
X17769000Y-8665000D01*
X17769000Y-8635000D02*
X17739000Y-8665000D01*
X17739000Y-8785000D02*
X17769000Y-8815000D01*
X17769000Y-8785000D02*
X17739000Y-8815000D01*
X17739000Y-8985000D02*
X17769000Y-9015000D01*
X17769000Y-8985000D02*
X17739000Y-9015000D01*
X17739000Y-9185000D02*
X17769000Y-9215000D01*
X17769000Y-9185000D02*
X17739000Y-9215000D01*
X17739000Y-9385000D02*
X17769000Y-9415000D01*
X17769000Y-9385000D02*
X17739000Y-9415000D01*
X17739000Y-9585000D02*
X17769000Y-9615000D01*
X17769000Y-9585000D02*
X17739000Y-9615000D01*
X17792500Y-13085000D02*
X17822500Y-13115000D01*
X17822500Y-13085000D02*
X17792500Y-13115000D01*
X17835000Y-11970000D02*
X17865000Y-12000000D01*
X17865000Y-11970000D02*
X17835000Y-12000000D01*
X17835000Y-12400000D02*
X17865000Y-12430000D01*
X17865000Y-12400000D02*
X17835000Y-12430000D01*
X17885000Y-9720000D02*
X17915000Y-9750000D01*
X17915000Y-9720000D02*
X17885000Y-9750000D01*
X17885000Y-10150000D02*
X17915000Y-10180000D01*
X17915000Y-10150000D02*
X17885000Y-10180000D01*
X18031000Y-8385000D02*
X18061000Y-8415000D01*
X18061000Y-8385000D02*
X18031000Y-8415000D01*
X18031000Y-8585000D02*
X18061000Y-8615000D01*
X18061000Y-8585000D02*
X18031000Y-8615000D01*
X18031000Y-8785000D02*
X18061000Y-8815000D01*
X18061000Y-8785000D02*
X18031000Y-8815000D01*
X18031000Y-8985000D02*
X18061000Y-9015000D01*
X18061000Y-8985000D02*
X18031000Y-9015000D01*
X18031000Y-9185000D02*
X18061000Y-9215000D01*
X18061000Y-9185000D02*
X18031000Y-9215000D01*
X18031000Y-9385000D02*
X18061000Y-9415000D01*
X18061000Y-9385000D02*
X18031000Y-9415000D01*
X18031000Y-9585000D02*
X18061000Y-9615000D01*
X18061000Y-9585000D02*
X18031000Y-9615000D01*
X8515000Y-9100000D02*
G75*
G02*
X8485000Y-9100000I-15000J0D01*
G01*
X8485000Y-9100000D02*
G75*
G02*
X8515000Y-9100000I15000J0D01*
G01*
X8515000Y-9200000D02*
G75*
G02*
X8485000Y-9200000I-15000J0D01*
G01*
X8485000Y-9200000D02*
G75*
G02*
X8515000Y-9200000I15000J0D01*
G01*
X8515000Y-9300000D02*
G75*
G02*
X8485000Y-9300000I-15000J0D01*
G01*
X8485000Y-9300000D02*
G75*
G02*
X8515000Y-9300000I15000J0D01*
G01*
X6270000Y-6955500D02*
X6270000Y-7044500D01*
X6225500Y-7000000D02*
X6314500Y-7000000D01*
X6270000Y-7209500D02*
X6270000Y-7298500D01*
X6225500Y-7254000D02*
X6314500Y-7254000D01*
X6270000Y-11155500D02*
X6270000Y-11244500D01*
X6225500Y-11200000D02*
X6314500Y-11200000D01*
X6270000Y-11409500D02*
X6270000Y-11498500D01*
X6225500Y-11454000D02*
X6314500Y-11454000D01*
X12532527Y-6392527D02*
X12532527Y-6327473D01*
X12467473Y-6327473D01*
X12467473Y-6392527D01*
X12532527Y-6392527D01*
X12532527Y-6592527D02*
X12532527Y-6527473D01*
X12467473Y-6527473D01*
X12467473Y-6592527D01*
X12532527Y-6592527D01*
X12782527Y-6392527D02*
X12782527Y-6327473D01*
X12717473Y-6327473D01*
X12717473Y-6392527D01*
X12782527Y-6392527D01*
X12782527Y-6592527D02*
X12782527Y-6527473D01*
X12717473Y-6527473D01*
X12717473Y-6592527D01*
X12782527Y-6592527D01*
X12000000Y-13396000D02*
X12050000Y-13346000D01*
X12000000Y-13296000D01*
X11950000Y-13346000D01*
X12000000Y-13396000D01*
X12000000Y-13650000D02*
X12050000Y-13600000D01*
X12000000Y-13550000D01*
X11950000Y-13600000D01*
X12000000Y-13650000D01*
X12254000Y-13396000D02*
X12304000Y-13346000D01*
X12254000Y-13296000D01*
X12204000Y-13346000D01*
X12254000Y-13396000D01*
X12254000Y-13650000D02*
X12304000Y-13600000D01*
X12254000Y-13550000D01*
X12204000Y-13600000D01*
X12254000Y-13650000D01*
X12508000Y-13396000D02*
X12558000Y-13346000D01*
X12508000Y-13296000D01*
X12458000Y-13346000D01*
X12508000Y-13396000D01*
X12508000Y-13650000D02*
X12558000Y-13600000D01*
X12508000Y-13550000D01*
X12458000Y-13600000D01*
X12508000Y-13650000D01*
X12762000Y-13396000D02*
X12812000Y-13346000D01*
X12762000Y-13296000D01*
X12712000Y-13346000D01*
X12762000Y-13396000D01*
X12762000Y-13650000D02*
X12812000Y-13600000D01*
X12762000Y-13550000D01*
X12712000Y-13600000D01*
X12762000Y-13650000D01*
X13016000Y-13396000D02*
X13066000Y-13346000D01*
X13016000Y-13296000D01*
X12966000Y-13346000D01*
X13016000Y-13396000D01*
X13016000Y-13650000D02*
X13066000Y-13600000D01*
X13016000Y-13550000D01*
X12966000Y-13600000D01*
X13016000Y-13650000D01*
D13*
X5661500Y-6391500D02*
X5862500Y-6592500D01*
X5862500Y-6391500D02*
X5661500Y-6592500D01*
X5862500Y-6492000D02*
G75*
G02*
X5661500Y-6492000I-100500J0D01*
G01*
X5661500Y-6492000D02*
G75*
G02*
X5862500Y-6492000I100500J0D01*
G01*
X5661500Y-7407500D02*
X5862500Y-7608500D01*
X5862500Y-7407500D02*
X5661500Y-7608500D01*
X5862500Y-7508000D02*
G75*
G02*
X5661500Y-7508000I-100500J0D01*
G01*
X5661500Y-7508000D02*
G75*
G02*
X5862500Y-7508000I100500J0D01*
G01*
X5661500Y-10591500D02*
X5862500Y-10792500D01*
X5862500Y-10591500D02*
X5661500Y-10792500D01*
X5862500Y-10692000D02*
G75*
G02*
X5661500Y-10692000I-100500J0D01*
G01*
X5661500Y-10692000D02*
G75*
G02*
X5862500Y-10692000I100500J0D01*
G01*
X5661500Y-11607500D02*
X5862500Y-11808500D01*
X5862500Y-11607500D02*
X5661500Y-11808500D01*
X5862500Y-11708000D02*
G75*
G02*
X5661500Y-11708000I-100500J0D01*
G01*
X5661500Y-11708000D02*
G75*
G02*
X5862500Y-11708000I100500J0D01*
G01*
D14*
X11906500Y-5972500D02*
X12139500Y-6205500D01*
X12139500Y-5972500D02*
X11906500Y-6205500D01*
X12023000Y-5972500D02*
X12023000Y-6205500D01*
X11906500Y-6089000D02*
X12139500Y-6089000D01*
X13110500Y-5972500D02*
X13343500Y-6205500D01*
X13343500Y-5972500D02*
X13110500Y-6205500D01*
X13227000Y-5972500D02*
X13227000Y-6205500D01*
X13110500Y-6089000D02*
X13343500Y-6089000D01*
D11*
X5258277Y-14313984D02*
X5258277Y-14113984D01*
X5258277Y-14113984D02*
X5305896Y-14113984D01*
X5305896Y-14113984D02*
X5334467Y-14123508D01*
X5334467Y-14123508D02*
X5353515Y-14142555D01*
X5353515Y-14142555D02*
X5363039Y-14161603D01*
X5363039Y-14161603D02*
X5372563Y-14199698D01*
X5372563Y-14199698D02*
X5372563Y-14228269D01*
X5372563Y-14228269D02*
X5363039Y-14266365D01*
X5363039Y-14266365D02*
X5353515Y-14285412D01*
X5353515Y-14285412D02*
X5334467Y-14304460D01*
X5334467Y-14304460D02*
X5305896Y-14313984D01*
X5305896Y-14313984D02*
X5258277Y-14313984D01*
X5458277Y-14313984D02*
X5458277Y-14180650D01*
X5458277Y-14218746D02*
X5467801Y-14199698D01*
X5467801Y-14199698D02*
X5477324Y-14190174D01*
X5477324Y-14190174D02*
X5496372Y-14180650D01*
X5496372Y-14180650D02*
X5515420Y-14180650D01*
X5582086Y-14313984D02*
X5582086Y-14180650D01*
X5582086Y-14113984D02*
X5572563Y-14123508D01*
X5572563Y-14123508D02*
X5582086Y-14133031D01*
X5582086Y-14133031D02*
X5591610Y-14123508D01*
X5591610Y-14123508D02*
X5582086Y-14113984D01*
X5582086Y-14113984D02*
X5582086Y-14133031D01*
X5705896Y-14313984D02*
X5686848Y-14304460D01*
X5686848Y-14304460D02*
X5677324Y-14285412D01*
X5677324Y-14285412D02*
X5677324Y-14113984D01*
X5810658Y-14313984D02*
X5791610Y-14304460D01*
X5791610Y-14304460D02*
X5782086Y-14285412D01*
X5782086Y-14285412D02*
X5782086Y-14113984D01*
X6039229Y-14313984D02*
X6039229Y-14113984D01*
X6039229Y-14113984D02*
X6105896Y-14256841D01*
X6105896Y-14256841D02*
X6172562Y-14113984D01*
X6172562Y-14113984D02*
X6172562Y-14313984D01*
X6353515Y-14313984D02*
X6353515Y-14209222D01*
X6353515Y-14209222D02*
X6343991Y-14190174D01*
X6343991Y-14190174D02*
X6324943Y-14180650D01*
X6324943Y-14180650D02*
X6286848Y-14180650D01*
X6286848Y-14180650D02*
X6267801Y-14190174D01*
X6353515Y-14304460D02*
X6334467Y-14313984D01*
X6334467Y-14313984D02*
X6286848Y-14313984D01*
X6286848Y-14313984D02*
X6267801Y-14304460D01*
X6267801Y-14304460D02*
X6258277Y-14285412D01*
X6258277Y-14285412D02*
X6258277Y-14266365D01*
X6258277Y-14266365D02*
X6267801Y-14247317D01*
X6267801Y-14247317D02*
X6286848Y-14237793D01*
X6286848Y-14237793D02*
X6334467Y-14237793D01*
X6334467Y-14237793D02*
X6353515Y-14228269D01*
X6448753Y-14180650D02*
X6448753Y-14380650D01*
X6448753Y-14190174D02*
X6467801Y-14180650D01*
X6467801Y-14180650D02*
X6505896Y-14180650D01*
X6505896Y-14180650D02*
X6524943Y-14190174D01*
X6524943Y-14190174D02*
X6534467Y-14199698D01*
X6534467Y-14199698D02*
X6543991Y-14218746D01*
X6543991Y-14218746D02*
X6543991Y-14275888D01*
X6543991Y-14275888D02*
X6534467Y-14294936D01*
X6534467Y-14294936D02*
X6524943Y-14304460D01*
X6524943Y-14304460D02*
X6505896Y-14313984D01*
X6505896Y-14313984D02*
X6467801Y-14313984D01*
X6467801Y-14313984D02*
X6448753Y-14304460D01*
X6629705Y-14294936D02*
X6639229Y-14304460D01*
X6639229Y-14304460D02*
X6629705Y-14313984D01*
X6629705Y-14313984D02*
X6620182Y-14304460D01*
X6620182Y-14304460D02*
X6629705Y-14294936D01*
X6629705Y-14294936D02*
X6629705Y-14313984D01*
X6629705Y-14190174D02*
X6639229Y-14199698D01*
X6639229Y-14199698D02*
X6629705Y-14209222D01*
X6629705Y-14209222D02*
X6620182Y-14199698D01*
X6620182Y-14199698D02*
X6629705Y-14190174D01*
X6629705Y-14190174D02*
X6629705Y-14209222D01*
D12*
X4967500Y-14627500D02*
X4997500Y-14657500D01*
X4997500Y-14627500D02*
X4967500Y-14657500D01*
D11*
X5296372Y-14533984D02*
X5315420Y-14533984D01*
X5315420Y-14533984D02*
X5334467Y-14543508D01*
X5334467Y-14543508D02*
X5343991Y-14553031D01*
X5343991Y-14553031D02*
X5353515Y-14572079D01*
X5353515Y-14572079D02*
X5363039Y-14610174D01*
X5363039Y-14610174D02*
X5363039Y-14657793D01*
X5363039Y-14657793D02*
X5353515Y-14695888D01*
X5353515Y-14695888D02*
X5343991Y-14714936D01*
X5343991Y-14714936D02*
X5334467Y-14724460D01*
X5334467Y-14724460D02*
X5315420Y-14733984D01*
X5315420Y-14733984D02*
X5296372Y-14733984D01*
X5296372Y-14733984D02*
X5277324Y-14724460D01*
X5277324Y-14724460D02*
X5267801Y-14714936D01*
X5267801Y-14714936D02*
X5258277Y-14695888D01*
X5258277Y-14695888D02*
X5248753Y-14657793D01*
X5248753Y-14657793D02*
X5248753Y-14610174D01*
X5248753Y-14610174D02*
X5258277Y-14572079D01*
X5258277Y-14572079D02*
X5267801Y-14553031D01*
X5267801Y-14553031D02*
X5277324Y-14543508D01*
X5277324Y-14543508D02*
X5296372Y-14533984D01*
X5448753Y-14714936D02*
X5458277Y-14724460D01*
X5458277Y-14724460D02*
X5448753Y-14733984D01*
X5448753Y-14733984D02*
X5439229Y-14724460D01*
X5439229Y-14724460D02*
X5448753Y-14714936D01*
X5448753Y-14714936D02*
X5448753Y-14733984D01*
X5524944Y-14533984D02*
X5648753Y-14533984D01*
X5648753Y-14533984D02*
X5582086Y-14610174D01*
X5582086Y-14610174D02*
X5610658Y-14610174D01*
X5610658Y-14610174D02*
X5629705Y-14619698D01*
X5629705Y-14619698D02*
X5639229Y-14629222D01*
X5639229Y-14629222D02*
X5648753Y-14648269D01*
X5648753Y-14648269D02*
X5648753Y-14695888D01*
X5648753Y-14695888D02*
X5639229Y-14714936D01*
X5639229Y-14714936D02*
X5629705Y-14724460D01*
X5629705Y-14724460D02*
X5610658Y-14733984D01*
X5610658Y-14733984D02*
X5553515Y-14733984D01*
X5553515Y-14733984D02*
X5534467Y-14724460D01*
X5534467Y-14724460D02*
X5524944Y-14714936D01*
X5772562Y-14533984D02*
X5791610Y-14533984D01*
X5791610Y-14533984D02*
X5810658Y-14543508D01*
X5810658Y-14543508D02*
X5820182Y-14553031D01*
X5820182Y-14553031D02*
X5829705Y-14572079D01*
X5829705Y-14572079D02*
X5839229Y-14610174D01*
X5839229Y-14610174D02*
X5839229Y-14657793D01*
X5839229Y-14657793D02*
X5829705Y-14695888D01*
X5829705Y-14695888D02*
X5820182Y-14714936D01*
X5820182Y-14714936D02*
X5810658Y-14724460D01*
X5810658Y-14724460D02*
X5791610Y-14733984D01*
X5791610Y-14733984D02*
X5772562Y-14733984D01*
X5772562Y-14733984D02*
X5753515Y-14724460D01*
X5753515Y-14724460D02*
X5743991Y-14714936D01*
X5743991Y-14714936D02*
X5734467Y-14695888D01*
X5734467Y-14695888D02*
X5724943Y-14657793D01*
X5724943Y-14657793D02*
X5724943Y-14610174D01*
X5724943Y-14610174D02*
X5734467Y-14572079D01*
X5734467Y-14572079D02*
X5743991Y-14553031D01*
X5743991Y-14553031D02*
X5753515Y-14543508D01*
X5753515Y-14543508D02*
X5772562Y-14533984D01*
X5963039Y-14533984D02*
X5982086Y-14533984D01*
X5982086Y-14533984D02*
X6001134Y-14543508D01*
X6001134Y-14543508D02*
X6010658Y-14553031D01*
X6010658Y-14553031D02*
X6020182Y-14572079D01*
X6020182Y-14572079D02*
X6029705Y-14610174D01*
X6029705Y-14610174D02*
X6029705Y-14657793D01*
X6029705Y-14657793D02*
X6020182Y-14695888D01*
X6020182Y-14695888D02*
X6010658Y-14714936D01*
X6010658Y-14714936D02*
X6001134Y-14724460D01*
X6001134Y-14724460D02*
X5982086Y-14733984D01*
X5982086Y-14733984D02*
X5963039Y-14733984D01*
X5963039Y-14733984D02*
X5943991Y-14724460D01*
X5943991Y-14724460D02*
X5934467Y-14714936D01*
X5934467Y-14714936D02*
X5924943Y-14695888D01*
X5924943Y-14695888D02*
X5915420Y-14657793D01*
X5915420Y-14657793D02*
X5915420Y-14610174D01*
X5915420Y-14610174D02*
X5924943Y-14572079D01*
X5924943Y-14572079D02*
X5934467Y-14553031D01*
X5934467Y-14553031D02*
X5943991Y-14543508D01*
X5943991Y-14543508D02*
X5963039Y-14533984D01*
X6115420Y-14733984D02*
X6115420Y-14600650D01*
X6115420Y-14619698D02*
X6124943Y-14610174D01*
X6124943Y-14610174D02*
X6143991Y-14600650D01*
X6143991Y-14600650D02*
X6172563Y-14600650D01*
X6172563Y-14600650D02*
X6191610Y-14610174D01*
X6191610Y-14610174D02*
X6201134Y-14629222D01*
X6201134Y-14629222D02*
X6201134Y-14733984D01*
X6201134Y-14629222D02*
X6210658Y-14610174D01*
X6210658Y-14610174D02*
X6229705Y-14600650D01*
X6229705Y-14600650D02*
X6258277Y-14600650D01*
X6258277Y-14600650D02*
X6277324Y-14610174D01*
X6277324Y-14610174D02*
X6286848Y-14629222D01*
X6286848Y-14629222D02*
X6286848Y-14733984D01*
X6382086Y-14733984D02*
X6382086Y-14600650D01*
X6382086Y-14619698D02*
X6391610Y-14610174D01*
X6391610Y-14610174D02*
X6410658Y-14600650D01*
X6410658Y-14600650D02*
X6439229Y-14600650D01*
X6439229Y-14600650D02*
X6458277Y-14610174D01*
X6458277Y-14610174D02*
X6467801Y-14629222D01*
X6467801Y-14629222D02*
X6467801Y-14733984D01*
X6467801Y-14629222D02*
X6477324Y-14610174D01*
X6477324Y-14610174D02*
X6496372Y-14600650D01*
X6496372Y-14600650D02*
X6524943Y-14600650D01*
X6524943Y-14600650D02*
X6543991Y-14610174D01*
X6543991Y-14610174D02*
X6553515Y-14629222D01*
X6553515Y-14629222D02*
X6553515Y-14733984D01*
X6943991Y-14524460D02*
X6772563Y-14781603D01*
X7201134Y-14533984D02*
X7220182Y-14533984D01*
X7220182Y-14533984D02*
X7239229Y-14543508D01*
X7239229Y-14543508D02*
X7248753Y-14553031D01*
X7248753Y-14553031D02*
X7258277Y-14572079D01*
X7258277Y-14572079D02*
X7267801Y-14610174D01*
X7267801Y-14610174D02*
X7267801Y-14657793D01*
X7267801Y-14657793D02*
X7258277Y-14695888D01*
X7258277Y-14695888D02*
X7248753Y-14714936D01*
X7248753Y-14714936D02*
X7239229Y-14724460D01*
X7239229Y-14724460D02*
X7220182Y-14733984D01*
X7220182Y-14733984D02*
X7201134Y-14733984D01*
X7201134Y-14733984D02*
X7182086Y-14724460D01*
X7182086Y-14724460D02*
X7172563Y-14714936D01*
X7172563Y-14714936D02*
X7163039Y-14695888D01*
X7163039Y-14695888D02*
X7153515Y-14657793D01*
X7153515Y-14657793D02*
X7153515Y-14610174D01*
X7153515Y-14610174D02*
X7163039Y-14572079D01*
X7163039Y-14572079D02*
X7172563Y-14553031D01*
X7172563Y-14553031D02*
X7182086Y-14543508D01*
X7182086Y-14543508D02*
X7201134Y-14533984D01*
X7353515Y-14714936D02*
X7363039Y-14724460D01*
X7363039Y-14724460D02*
X7353515Y-14733984D01*
X7353515Y-14733984D02*
X7343991Y-14724460D01*
X7343991Y-14724460D02*
X7353515Y-14714936D01*
X7353515Y-14714936D02*
X7353515Y-14733984D01*
X7486848Y-14533984D02*
X7505896Y-14533984D01*
X7505896Y-14533984D02*
X7524944Y-14543508D01*
X7524944Y-14543508D02*
X7534467Y-14553031D01*
X7534467Y-14553031D02*
X7543991Y-14572079D01*
X7543991Y-14572079D02*
X7553515Y-14610174D01*
X7553515Y-14610174D02*
X7553515Y-14657793D01*
X7553515Y-14657793D02*
X7543991Y-14695888D01*
X7543991Y-14695888D02*
X7534467Y-14714936D01*
X7534467Y-14714936D02*
X7524944Y-14724460D01*
X7524944Y-14724460D02*
X7505896Y-14733984D01*
X7505896Y-14733984D02*
X7486848Y-14733984D01*
X7486848Y-14733984D02*
X7467801Y-14724460D01*
X7467801Y-14724460D02*
X7458277Y-14714936D01*
X7458277Y-14714936D02*
X7448753Y-14695888D01*
X7448753Y-14695888D02*
X7439229Y-14657793D01*
X7439229Y-14657793D02*
X7439229Y-14610174D01*
X7439229Y-14610174D02*
X7448753Y-14572079D01*
X7448753Y-14572079D02*
X7458277Y-14553031D01*
X7458277Y-14553031D02*
X7467801Y-14543508D01*
X7467801Y-14543508D02*
X7486848Y-14533984D01*
X7743991Y-14733984D02*
X7629706Y-14733984D01*
X7686848Y-14733984D02*
X7686848Y-14533984D01*
X7686848Y-14533984D02*
X7667801Y-14562555D01*
X7667801Y-14562555D02*
X7648753Y-14581603D01*
X7648753Y-14581603D02*
X7629706Y-14591127D01*
X7934467Y-14733984D02*
X7820182Y-14733984D01*
X7877325Y-14733984D02*
X7877325Y-14533984D01*
X7877325Y-14533984D02*
X7858277Y-14562555D01*
X7858277Y-14562555D02*
X7839229Y-14581603D01*
X7839229Y-14581603D02*
X7820182Y-14591127D01*
X8048753Y-14619698D02*
X8029706Y-14610174D01*
X8029706Y-14610174D02*
X8020182Y-14600650D01*
X8020182Y-14600650D02*
X8010658Y-14581603D01*
X8010658Y-14581603D02*
X8010658Y-14572079D01*
X8010658Y-14572079D02*
X8020182Y-14553031D01*
X8020182Y-14553031D02*
X8029706Y-14543508D01*
X8029706Y-14543508D02*
X8048753Y-14533984D01*
X8048753Y-14533984D02*
X8086848Y-14533984D01*
X8086848Y-14533984D02*
X8105896Y-14543508D01*
X8105896Y-14543508D02*
X8115420Y-14553031D01*
X8115420Y-14553031D02*
X8124944Y-14572079D01*
X8124944Y-14572079D02*
X8124944Y-14581603D01*
X8124944Y-14581603D02*
X8115420Y-14600650D01*
X8115420Y-14600650D02*
X8105896Y-14610174D01*
X8105896Y-14610174D02*
X8086848Y-14619698D01*
X8086848Y-14619698D02*
X8048753Y-14619698D01*
X8048753Y-14619698D02*
X8029706Y-14629222D01*
X8029706Y-14629222D02*
X8020182Y-14638746D01*
X8020182Y-14638746D02*
X8010658Y-14657793D01*
X8010658Y-14657793D02*
X8010658Y-14695888D01*
X8010658Y-14695888D02*
X8020182Y-14714936D01*
X8020182Y-14714936D02*
X8029706Y-14724460D01*
X8029706Y-14724460D02*
X8048753Y-14733984D01*
X8048753Y-14733984D02*
X8086848Y-14733984D01*
X8086848Y-14733984D02*
X8105896Y-14724460D01*
X8105896Y-14724460D02*
X8115420Y-14714936D01*
X8115420Y-14714936D02*
X8124944Y-14695888D01*
X8124944Y-14695888D02*
X8124944Y-14657793D01*
X8124944Y-14657793D02*
X8115420Y-14638746D01*
X8115420Y-14638746D02*
X8105896Y-14629222D01*
X8105896Y-14629222D02*
X8086848Y-14619698D01*
X8201134Y-14533984D02*
X8201134Y-14572079D01*
X8277325Y-14533984D02*
X8277325Y-14572079D01*
X8572563Y-14810174D02*
X8563039Y-14800650D01*
X8563039Y-14800650D02*
X8543991Y-14772079D01*
X8543991Y-14772079D02*
X8534468Y-14753031D01*
X8534468Y-14753031D02*
X8524944Y-14724460D01*
X8524944Y-14724460D02*
X8515420Y-14676841D01*
X8515420Y-14676841D02*
X8515420Y-14638746D01*
X8515420Y-14638746D02*
X8524944Y-14591127D01*
X8524944Y-14591127D02*
X8534468Y-14562555D01*
X8534468Y-14562555D02*
X8543991Y-14543508D01*
X8543991Y-14543508D02*
X8563039Y-14514936D01*
X8563039Y-14514936D02*
X8572563Y-14505412D01*
X8734468Y-14600650D02*
X8734468Y-14733984D01*
X8686849Y-14524460D02*
X8639230Y-14667317D01*
X8639230Y-14667317D02*
X8763039Y-14667317D01*
X8848753Y-14733984D02*
X8886849Y-14733984D01*
X8886849Y-14733984D02*
X8905896Y-14724460D01*
X8905896Y-14724460D02*
X8915420Y-14714936D01*
X8915420Y-14714936D02*
X8934468Y-14686365D01*
X8934468Y-14686365D02*
X8943991Y-14648269D01*
X8943991Y-14648269D02*
X8943991Y-14572079D01*
X8943991Y-14572079D02*
X8934468Y-14553031D01*
X8934468Y-14553031D02*
X8924944Y-14543508D01*
X8924944Y-14543508D02*
X8905896Y-14533984D01*
X8905896Y-14533984D02*
X8867801Y-14533984D01*
X8867801Y-14533984D02*
X8848753Y-14543508D01*
X8848753Y-14543508D02*
X8839230Y-14553031D01*
X8839230Y-14553031D02*
X8829706Y-14572079D01*
X8829706Y-14572079D02*
X8829706Y-14619698D01*
X8829706Y-14619698D02*
X8839230Y-14638746D01*
X8839230Y-14638746D02*
X8848753Y-14648269D01*
X8848753Y-14648269D02*
X8867801Y-14657793D01*
X8867801Y-14657793D02*
X8905896Y-14657793D01*
X8905896Y-14657793D02*
X8924944Y-14648269D01*
X8924944Y-14648269D02*
X8934468Y-14638746D01*
X8934468Y-14638746D02*
X8943991Y-14619698D01*
X9010658Y-14533984D02*
X9134468Y-14533984D01*
X9134468Y-14533984D02*
X9067801Y-14610174D01*
X9067801Y-14610174D02*
X9096372Y-14610174D01*
X9096372Y-14610174D02*
X9115420Y-14619698D01*
X9115420Y-14619698D02*
X9124944Y-14629222D01*
X9124944Y-14629222D02*
X9134468Y-14648269D01*
X9134468Y-14648269D02*
X9134468Y-14695888D01*
X9134468Y-14695888D02*
X9124944Y-14714936D01*
X9124944Y-14714936D02*
X9115420Y-14724460D01*
X9115420Y-14724460D02*
X9096372Y-14733984D01*
X9096372Y-14733984D02*
X9039230Y-14733984D01*
X9039230Y-14733984D02*
X9020182Y-14724460D01*
X9020182Y-14724460D02*
X9010658Y-14714936D01*
X9372563Y-14733984D02*
X9372563Y-14533984D01*
X9458277Y-14733984D02*
X9458277Y-14629222D01*
X9458277Y-14629222D02*
X9448753Y-14610174D01*
X9448753Y-14610174D02*
X9429706Y-14600650D01*
X9429706Y-14600650D02*
X9401134Y-14600650D01*
X9401134Y-14600650D02*
X9382087Y-14610174D01*
X9382087Y-14610174D02*
X9372563Y-14619698D01*
X9582087Y-14733984D02*
X9563039Y-14724460D01*
X9563039Y-14724460D02*
X9553515Y-14714936D01*
X9553515Y-14714936D02*
X9543992Y-14695888D01*
X9543992Y-14695888D02*
X9543992Y-14638746D01*
X9543992Y-14638746D02*
X9553515Y-14619698D01*
X9553515Y-14619698D02*
X9563039Y-14610174D01*
X9563039Y-14610174D02*
X9582087Y-14600650D01*
X9582087Y-14600650D02*
X9610658Y-14600650D01*
X9610658Y-14600650D02*
X9629706Y-14610174D01*
X9629706Y-14610174D02*
X9639230Y-14619698D01*
X9639230Y-14619698D02*
X9648753Y-14638746D01*
X9648753Y-14638746D02*
X9648753Y-14695888D01*
X9648753Y-14695888D02*
X9639230Y-14714936D01*
X9639230Y-14714936D02*
X9629706Y-14724460D01*
X9629706Y-14724460D02*
X9610658Y-14733984D01*
X9610658Y-14733984D02*
X9582087Y-14733984D01*
X9763039Y-14733984D02*
X9743992Y-14724460D01*
X9743992Y-14724460D02*
X9734468Y-14705412D01*
X9734468Y-14705412D02*
X9734468Y-14533984D01*
X9915420Y-14724460D02*
X9896373Y-14733984D01*
X9896373Y-14733984D02*
X9858277Y-14733984D01*
X9858277Y-14733984D02*
X9839230Y-14724460D01*
X9839230Y-14724460D02*
X9829706Y-14705412D01*
X9829706Y-14705412D02*
X9829706Y-14629222D01*
X9829706Y-14629222D02*
X9839230Y-14610174D01*
X9839230Y-14610174D02*
X9858277Y-14600650D01*
X9858277Y-14600650D02*
X9896373Y-14600650D01*
X9896373Y-14600650D02*
X9915420Y-14610174D01*
X9915420Y-14610174D02*
X9924944Y-14629222D01*
X9924944Y-14629222D02*
X9924944Y-14648269D01*
X9924944Y-14648269D02*
X9829706Y-14667317D01*
X10001134Y-14724460D02*
X10020182Y-14733984D01*
X10020182Y-14733984D02*
X10058277Y-14733984D01*
X10058277Y-14733984D02*
X10077325Y-14724460D01*
X10077325Y-14724460D02*
X10086849Y-14705412D01*
X10086849Y-14705412D02*
X10086849Y-14695888D01*
X10086849Y-14695888D02*
X10077325Y-14676841D01*
X10077325Y-14676841D02*
X10058277Y-14667317D01*
X10058277Y-14667317D02*
X10029706Y-14667317D01*
X10029706Y-14667317D02*
X10010658Y-14657793D01*
X10010658Y-14657793D02*
X10001134Y-14638746D01*
X10001134Y-14638746D02*
X10001134Y-14629222D01*
X10001134Y-14629222D02*
X10010658Y-14610174D01*
X10010658Y-14610174D02*
X10029706Y-14600650D01*
X10029706Y-14600650D02*
X10058277Y-14600650D01*
X10058277Y-14600650D02*
X10077325Y-14610174D01*
X10153515Y-14810174D02*
X10163039Y-14800650D01*
X10163039Y-14800650D02*
X10182087Y-14772079D01*
X10182087Y-14772079D02*
X10191611Y-14753031D01*
X10191611Y-14753031D02*
X10201134Y-14724460D01*
X10201134Y-14724460D02*
X10210658Y-14676841D01*
X10210658Y-14676841D02*
X10210658Y-14638746D01*
X10210658Y-14638746D02*
X10201134Y-14591127D01*
X10201134Y-14591127D02*
X10191611Y-14562555D01*
X10191611Y-14562555D02*
X10182087Y-14543508D01*
X10182087Y-14543508D02*
X10163039Y-14514936D01*
X10163039Y-14514936D02*
X10153515Y-14505412D01*
D12*
X4997500Y-14906500D02*
G75*
G02*
X4967500Y-14906500I-15000J0D01*
G01*
X4967500Y-14906500D02*
G75*
G02*
X4997500Y-14906500I15000J0D01*
G01*
D11*
X5296372Y-14797984D02*
X5315420Y-14797984D01*
X5315420Y-14797984D02*
X5334467Y-14807508D01*
X5334467Y-14807508D02*
X5343991Y-14817031D01*
X5343991Y-14817031D02*
X5353515Y-14836079D01*
X5353515Y-14836079D02*
X5363039Y-14874174D01*
X5363039Y-14874174D02*
X5363039Y-14921793D01*
X5363039Y-14921793D02*
X5353515Y-14959888D01*
X5353515Y-14959888D02*
X5343991Y-14978936D01*
X5343991Y-14978936D02*
X5334467Y-14988460D01*
X5334467Y-14988460D02*
X5315420Y-14997984D01*
X5315420Y-14997984D02*
X5296372Y-14997984D01*
X5296372Y-14997984D02*
X5277324Y-14988460D01*
X5277324Y-14988460D02*
X5267801Y-14978936D01*
X5267801Y-14978936D02*
X5258277Y-14959888D01*
X5258277Y-14959888D02*
X5248753Y-14921793D01*
X5248753Y-14921793D02*
X5248753Y-14874174D01*
X5248753Y-14874174D02*
X5258277Y-14836079D01*
X5258277Y-14836079D02*
X5267801Y-14817031D01*
X5267801Y-14817031D02*
X5277324Y-14807508D01*
X5277324Y-14807508D02*
X5296372Y-14797984D01*
X5448753Y-14978936D02*
X5458277Y-14988460D01*
X5458277Y-14988460D02*
X5448753Y-14997984D01*
X5448753Y-14997984D02*
X5439229Y-14988460D01*
X5439229Y-14988460D02*
X5448753Y-14978936D01*
X5448753Y-14978936D02*
X5448753Y-14997984D01*
X5524944Y-14797984D02*
X5648753Y-14797984D01*
X5648753Y-14797984D02*
X5582086Y-14874174D01*
X5582086Y-14874174D02*
X5610658Y-14874174D01*
X5610658Y-14874174D02*
X5629705Y-14883698D01*
X5629705Y-14883698D02*
X5639229Y-14893222D01*
X5639229Y-14893222D02*
X5648753Y-14912269D01*
X5648753Y-14912269D02*
X5648753Y-14959888D01*
X5648753Y-14959888D02*
X5639229Y-14978936D01*
X5639229Y-14978936D02*
X5629705Y-14988460D01*
X5629705Y-14988460D02*
X5610658Y-14997984D01*
X5610658Y-14997984D02*
X5553515Y-14997984D01*
X5553515Y-14997984D02*
X5534467Y-14988460D01*
X5534467Y-14988460D02*
X5524944Y-14978936D01*
X5772562Y-14797984D02*
X5791610Y-14797984D01*
X5791610Y-14797984D02*
X5810658Y-14807508D01*
X5810658Y-14807508D02*
X5820182Y-14817031D01*
X5820182Y-14817031D02*
X5829705Y-14836079D01*
X5829705Y-14836079D02*
X5839229Y-14874174D01*
X5839229Y-14874174D02*
X5839229Y-14921793D01*
X5839229Y-14921793D02*
X5829705Y-14959888D01*
X5829705Y-14959888D02*
X5820182Y-14978936D01*
X5820182Y-14978936D02*
X5810658Y-14988460D01*
X5810658Y-14988460D02*
X5791610Y-14997984D01*
X5791610Y-14997984D02*
X5772562Y-14997984D01*
X5772562Y-14997984D02*
X5753515Y-14988460D01*
X5753515Y-14988460D02*
X5743991Y-14978936D01*
X5743991Y-14978936D02*
X5734467Y-14959888D01*
X5734467Y-14959888D02*
X5724943Y-14921793D01*
X5724943Y-14921793D02*
X5724943Y-14874174D01*
X5724943Y-14874174D02*
X5734467Y-14836079D01*
X5734467Y-14836079D02*
X5743991Y-14817031D01*
X5743991Y-14817031D02*
X5753515Y-14807508D01*
X5753515Y-14807508D02*
X5772562Y-14797984D01*
X5963039Y-14797984D02*
X5982086Y-14797984D01*
X5982086Y-14797984D02*
X6001134Y-14807508D01*
X6001134Y-14807508D02*
X6010658Y-14817031D01*
X6010658Y-14817031D02*
X6020182Y-14836079D01*
X6020182Y-14836079D02*
X6029705Y-14874174D01*
X6029705Y-14874174D02*
X6029705Y-14921793D01*
X6029705Y-14921793D02*
X6020182Y-14959888D01*
X6020182Y-14959888D02*
X6010658Y-14978936D01*
X6010658Y-14978936D02*
X6001134Y-14988460D01*
X6001134Y-14988460D02*
X5982086Y-14997984D01*
X5982086Y-14997984D02*
X5963039Y-14997984D01*
X5963039Y-14997984D02*
X5943991Y-14988460D01*
X5943991Y-14988460D02*
X5934467Y-14978936D01*
X5934467Y-14978936D02*
X5924943Y-14959888D01*
X5924943Y-14959888D02*
X5915420Y-14921793D01*
X5915420Y-14921793D02*
X5915420Y-14874174D01*
X5915420Y-14874174D02*
X5924943Y-14836079D01*
X5924943Y-14836079D02*
X5934467Y-14817031D01*
X5934467Y-14817031D02*
X5943991Y-14807508D01*
X5943991Y-14807508D02*
X5963039Y-14797984D01*
X6115420Y-14997984D02*
X6115420Y-14864650D01*
X6115420Y-14883698D02*
X6124943Y-14874174D01*
X6124943Y-14874174D02*
X6143991Y-14864650D01*
X6143991Y-14864650D02*
X6172563Y-14864650D01*
X6172563Y-14864650D02*
X6191610Y-14874174D01*
X6191610Y-14874174D02*
X6201134Y-14893222D01*
X6201134Y-14893222D02*
X6201134Y-14997984D01*
X6201134Y-14893222D02*
X6210658Y-14874174D01*
X6210658Y-14874174D02*
X6229705Y-14864650D01*
X6229705Y-14864650D02*
X6258277Y-14864650D01*
X6258277Y-14864650D02*
X6277324Y-14874174D01*
X6277324Y-14874174D02*
X6286848Y-14893222D01*
X6286848Y-14893222D02*
X6286848Y-14997984D01*
X6382086Y-14997984D02*
X6382086Y-14864650D01*
X6382086Y-14883698D02*
X6391610Y-14874174D01*
X6391610Y-14874174D02*
X6410658Y-14864650D01*
X6410658Y-14864650D02*
X6439229Y-14864650D01*
X6439229Y-14864650D02*
X6458277Y-14874174D01*
X6458277Y-14874174D02*
X6467801Y-14893222D01*
X6467801Y-14893222D02*
X6467801Y-14997984D01*
X6467801Y-14893222D02*
X6477324Y-14874174D01*
X6477324Y-14874174D02*
X6496372Y-14864650D01*
X6496372Y-14864650D02*
X6524943Y-14864650D01*
X6524943Y-14864650D02*
X6543991Y-14874174D01*
X6543991Y-14874174D02*
X6553515Y-14893222D01*
X6553515Y-14893222D02*
X6553515Y-14997984D01*
X6943991Y-14788460D02*
X6772563Y-15045603D01*
X7201134Y-14797984D02*
X7220182Y-14797984D01*
X7220182Y-14797984D02*
X7239229Y-14807508D01*
X7239229Y-14807508D02*
X7248753Y-14817031D01*
X7248753Y-14817031D02*
X7258277Y-14836079D01*
X7258277Y-14836079D02*
X7267801Y-14874174D01*
X7267801Y-14874174D02*
X7267801Y-14921793D01*
X7267801Y-14921793D02*
X7258277Y-14959888D01*
X7258277Y-14959888D02*
X7248753Y-14978936D01*
X7248753Y-14978936D02*
X7239229Y-14988460D01*
X7239229Y-14988460D02*
X7220182Y-14997984D01*
X7220182Y-14997984D02*
X7201134Y-14997984D01*
X7201134Y-14997984D02*
X7182086Y-14988460D01*
X7182086Y-14988460D02*
X7172563Y-14978936D01*
X7172563Y-14978936D02*
X7163039Y-14959888D01*
X7163039Y-14959888D02*
X7153515Y-14921793D01*
X7153515Y-14921793D02*
X7153515Y-14874174D01*
X7153515Y-14874174D02*
X7163039Y-14836079D01*
X7163039Y-14836079D02*
X7172563Y-14817031D01*
X7172563Y-14817031D02*
X7182086Y-14807508D01*
X7182086Y-14807508D02*
X7201134Y-14797984D01*
X7353515Y-14978936D02*
X7363039Y-14988460D01*
X7363039Y-14988460D02*
X7353515Y-14997984D01*
X7353515Y-14997984D02*
X7343991Y-14988460D01*
X7343991Y-14988460D02*
X7353515Y-14978936D01*
X7353515Y-14978936D02*
X7353515Y-14997984D01*
X7486848Y-14797984D02*
X7505896Y-14797984D01*
X7505896Y-14797984D02*
X7524944Y-14807508D01*
X7524944Y-14807508D02*
X7534467Y-14817031D01*
X7534467Y-14817031D02*
X7543991Y-14836079D01*
X7543991Y-14836079D02*
X7553515Y-14874174D01*
X7553515Y-14874174D02*
X7553515Y-14921793D01*
X7553515Y-14921793D02*
X7543991Y-14959888D01*
X7543991Y-14959888D02*
X7534467Y-14978936D01*
X7534467Y-14978936D02*
X7524944Y-14988460D01*
X7524944Y-14988460D02*
X7505896Y-14997984D01*
X7505896Y-14997984D02*
X7486848Y-14997984D01*
X7486848Y-14997984D02*
X7467801Y-14988460D01*
X7467801Y-14988460D02*
X7458277Y-14978936D01*
X7458277Y-14978936D02*
X7448753Y-14959888D01*
X7448753Y-14959888D02*
X7439229Y-14921793D01*
X7439229Y-14921793D02*
X7439229Y-14874174D01*
X7439229Y-14874174D02*
X7448753Y-14836079D01*
X7448753Y-14836079D02*
X7458277Y-14817031D01*
X7458277Y-14817031D02*
X7467801Y-14807508D01*
X7467801Y-14807508D02*
X7486848Y-14797984D01*
X7743991Y-14997984D02*
X7629706Y-14997984D01*
X7686848Y-14997984D02*
X7686848Y-14797984D01*
X7686848Y-14797984D02*
X7667801Y-14826555D01*
X7667801Y-14826555D02*
X7648753Y-14845603D01*
X7648753Y-14845603D02*
X7629706Y-14855127D01*
X7934467Y-14997984D02*
X7820182Y-14997984D01*
X7877325Y-14997984D02*
X7877325Y-14797984D01*
X7877325Y-14797984D02*
X7858277Y-14826555D01*
X7858277Y-14826555D02*
X7839229Y-14845603D01*
X7839229Y-14845603D02*
X7820182Y-14855127D01*
X8048753Y-14883698D02*
X8029706Y-14874174D01*
X8029706Y-14874174D02*
X8020182Y-14864650D01*
X8020182Y-14864650D02*
X8010658Y-14845603D01*
X8010658Y-14845603D02*
X8010658Y-14836079D01*
X8010658Y-14836079D02*
X8020182Y-14817031D01*
X8020182Y-14817031D02*
X8029706Y-14807508D01*
X8029706Y-14807508D02*
X8048753Y-14797984D01*
X8048753Y-14797984D02*
X8086848Y-14797984D01*
X8086848Y-14797984D02*
X8105896Y-14807508D01*
X8105896Y-14807508D02*
X8115420Y-14817031D01*
X8115420Y-14817031D02*
X8124944Y-14836079D01*
X8124944Y-14836079D02*
X8124944Y-14845603D01*
X8124944Y-14845603D02*
X8115420Y-14864650D01*
X8115420Y-14864650D02*
X8105896Y-14874174D01*
X8105896Y-14874174D02*
X8086848Y-14883698D01*
X8086848Y-14883698D02*
X8048753Y-14883698D01*
X8048753Y-14883698D02*
X8029706Y-14893222D01*
X8029706Y-14893222D02*
X8020182Y-14902746D01*
X8020182Y-14902746D02*
X8010658Y-14921793D01*
X8010658Y-14921793D02*
X8010658Y-14959888D01*
X8010658Y-14959888D02*
X8020182Y-14978936D01*
X8020182Y-14978936D02*
X8029706Y-14988460D01*
X8029706Y-14988460D02*
X8048753Y-14997984D01*
X8048753Y-14997984D02*
X8086848Y-14997984D01*
X8086848Y-14997984D02*
X8105896Y-14988460D01*
X8105896Y-14988460D02*
X8115420Y-14978936D01*
X8115420Y-14978936D02*
X8124944Y-14959888D01*
X8124944Y-14959888D02*
X8124944Y-14921793D01*
X8124944Y-14921793D02*
X8115420Y-14902746D01*
X8115420Y-14902746D02*
X8105896Y-14893222D01*
X8105896Y-14893222D02*
X8086848Y-14883698D01*
X8201134Y-14797984D02*
X8201134Y-14836079D01*
X8277325Y-14797984D02*
X8277325Y-14836079D01*
X8572563Y-15074174D02*
X8563039Y-15064650D01*
X8563039Y-15064650D02*
X8543991Y-15036079D01*
X8543991Y-15036079D02*
X8534468Y-15017031D01*
X8534468Y-15017031D02*
X8524944Y-14988460D01*
X8524944Y-14988460D02*
X8515420Y-14940841D01*
X8515420Y-14940841D02*
X8515420Y-14902746D01*
X8515420Y-14902746D02*
X8524944Y-14855127D01*
X8524944Y-14855127D02*
X8534468Y-14826555D01*
X8534468Y-14826555D02*
X8543991Y-14807508D01*
X8543991Y-14807508D02*
X8563039Y-14778936D01*
X8563039Y-14778936D02*
X8572563Y-14769412D01*
X8629706Y-14797984D02*
X8753515Y-14797984D01*
X8753515Y-14797984D02*
X8686849Y-14874174D01*
X8686849Y-14874174D02*
X8715420Y-14874174D01*
X8715420Y-14874174D02*
X8734468Y-14883698D01*
X8734468Y-14883698D02*
X8743991Y-14893222D01*
X8743991Y-14893222D02*
X8753515Y-14912269D01*
X8753515Y-14912269D02*
X8753515Y-14959888D01*
X8753515Y-14959888D02*
X8743991Y-14978936D01*
X8743991Y-14978936D02*
X8734468Y-14988460D01*
X8734468Y-14988460D02*
X8715420Y-14997984D01*
X8715420Y-14997984D02*
X8658277Y-14997984D01*
X8658277Y-14997984D02*
X8639230Y-14988460D01*
X8639230Y-14988460D02*
X8629706Y-14978936D01*
X8991611Y-14997984D02*
X8991611Y-14797984D01*
X9077325Y-14997984D02*
X9077325Y-14893222D01*
X9077325Y-14893222D02*
X9067801Y-14874174D01*
X9067801Y-14874174D02*
X9048753Y-14864650D01*
X9048753Y-14864650D02*
X9020182Y-14864650D01*
X9020182Y-14864650D02*
X9001134Y-14874174D01*
X9001134Y-14874174D02*
X8991611Y-14883698D01*
X9201134Y-14997984D02*
X9182087Y-14988460D01*
X9182087Y-14988460D02*
X9172563Y-14978936D01*
X9172563Y-14978936D02*
X9163039Y-14959888D01*
X9163039Y-14959888D02*
X9163039Y-14902746D01*
X9163039Y-14902746D02*
X9172563Y-14883698D01*
X9172563Y-14883698D02*
X9182087Y-14874174D01*
X9182087Y-14874174D02*
X9201134Y-14864650D01*
X9201134Y-14864650D02*
X9229706Y-14864650D01*
X9229706Y-14864650D02*
X9248753Y-14874174D01*
X9248753Y-14874174D02*
X9258277Y-14883698D01*
X9258277Y-14883698D02*
X9267801Y-14902746D01*
X9267801Y-14902746D02*
X9267801Y-14959888D01*
X9267801Y-14959888D02*
X9258277Y-14978936D01*
X9258277Y-14978936D02*
X9248753Y-14988460D01*
X9248753Y-14988460D02*
X9229706Y-14997984D01*
X9229706Y-14997984D02*
X9201134Y-14997984D01*
X9382087Y-14997984D02*
X9363039Y-14988460D01*
X9363039Y-14988460D02*
X9353515Y-14969412D01*
X9353515Y-14969412D02*
X9353515Y-14797984D01*
X9534468Y-14988460D02*
X9515420Y-14997984D01*
X9515420Y-14997984D02*
X9477325Y-14997984D01*
X9477325Y-14997984D02*
X9458277Y-14988460D01*
X9458277Y-14988460D02*
X9448753Y-14969412D01*
X9448753Y-14969412D02*
X9448753Y-14893222D01*
X9448753Y-14893222D02*
X9458277Y-14874174D01*
X9458277Y-14874174D02*
X9477325Y-14864650D01*
X9477325Y-14864650D02*
X9515420Y-14864650D01*
X9515420Y-14864650D02*
X9534468Y-14874174D01*
X9534468Y-14874174D02*
X9543992Y-14893222D01*
X9543992Y-14893222D02*
X9543992Y-14912269D01*
X9543992Y-14912269D02*
X9448753Y-14931317D01*
X9620182Y-14988460D02*
X9639230Y-14997984D01*
X9639230Y-14997984D02*
X9677325Y-14997984D01*
X9677325Y-14997984D02*
X9696373Y-14988460D01*
X9696373Y-14988460D02*
X9705896Y-14969412D01*
X9705896Y-14969412D02*
X9705896Y-14959888D01*
X9705896Y-14959888D02*
X9696373Y-14940841D01*
X9696373Y-14940841D02*
X9677325Y-14931317D01*
X9677325Y-14931317D02*
X9648753Y-14931317D01*
X9648753Y-14931317D02*
X9629706Y-14921793D01*
X9629706Y-14921793D02*
X9620182Y-14902746D01*
X9620182Y-14902746D02*
X9620182Y-14893222D01*
X9620182Y-14893222D02*
X9629706Y-14874174D01*
X9629706Y-14874174D02*
X9648753Y-14864650D01*
X9648753Y-14864650D02*
X9677325Y-14864650D01*
X9677325Y-14864650D02*
X9696373Y-14874174D01*
X9772563Y-15074174D02*
X9782087Y-15064650D01*
X9782087Y-15064650D02*
X9801134Y-15036079D01*
X9801134Y-15036079D02*
X9810658Y-15017031D01*
X9810658Y-15017031D02*
X9820182Y-14988460D01*
X9820182Y-14988460D02*
X9829706Y-14940841D01*
X9829706Y-14940841D02*
X9829706Y-14902746D01*
X9829706Y-14902746D02*
X9820182Y-14855127D01*
X9820182Y-14855127D02*
X9810658Y-14826555D01*
X9810658Y-14826555D02*
X9801134Y-14807508D01*
X9801134Y-14807508D02*
X9782087Y-14778936D01*
X9782087Y-14778936D02*
X9772563Y-14769412D01*
D12*
X4953000Y-15126000D02*
X4953000Y-15215000D01*
X4908500Y-15170500D02*
X4997500Y-15170500D01*
D11*
X5296372Y-15061984D02*
X5315420Y-15061984D01*
X5315420Y-15061984D02*
X5334467Y-15071508D01*
X5334467Y-15071508D02*
X5343991Y-15081031D01*
X5343991Y-15081031D02*
X5353515Y-15100079D01*
X5353515Y-15100079D02*
X5363039Y-15138174D01*
X5363039Y-15138174D02*
X5363039Y-15185793D01*
X5363039Y-15185793D02*
X5353515Y-15223888D01*
X5353515Y-15223888D02*
X5343991Y-15242936D01*
X5343991Y-15242936D02*
X5334467Y-15252460D01*
X5334467Y-15252460D02*
X5315420Y-15261984D01*
X5315420Y-15261984D02*
X5296372Y-15261984D01*
X5296372Y-15261984D02*
X5277324Y-15252460D01*
X5277324Y-15252460D02*
X5267801Y-15242936D01*
X5267801Y-15242936D02*
X5258277Y-15223888D01*
X5258277Y-15223888D02*
X5248753Y-15185793D01*
X5248753Y-15185793D02*
X5248753Y-15138174D01*
X5248753Y-15138174D02*
X5258277Y-15100079D01*
X5258277Y-15100079D02*
X5267801Y-15081031D01*
X5267801Y-15081031D02*
X5277324Y-15071508D01*
X5277324Y-15071508D02*
X5296372Y-15061984D01*
X5448753Y-15242936D02*
X5458277Y-15252460D01*
X5458277Y-15252460D02*
X5448753Y-15261984D01*
X5448753Y-15261984D02*
X5439229Y-15252460D01*
X5439229Y-15252460D02*
X5448753Y-15242936D01*
X5448753Y-15242936D02*
X5448753Y-15261984D01*
X5572563Y-15147698D02*
X5553515Y-15138174D01*
X5553515Y-15138174D02*
X5543991Y-15128650D01*
X5543991Y-15128650D02*
X5534467Y-15109603D01*
X5534467Y-15109603D02*
X5534467Y-15100079D01*
X5534467Y-15100079D02*
X5543991Y-15081031D01*
X5543991Y-15081031D02*
X5553515Y-15071508D01*
X5553515Y-15071508D02*
X5572563Y-15061984D01*
X5572563Y-15061984D02*
X5610658Y-15061984D01*
X5610658Y-15061984D02*
X5629705Y-15071508D01*
X5629705Y-15071508D02*
X5639229Y-15081031D01*
X5639229Y-15081031D02*
X5648753Y-15100079D01*
X5648753Y-15100079D02*
X5648753Y-15109603D01*
X5648753Y-15109603D02*
X5639229Y-15128650D01*
X5639229Y-15128650D02*
X5629705Y-15138174D01*
X5629705Y-15138174D02*
X5610658Y-15147698D01*
X5610658Y-15147698D02*
X5572563Y-15147698D01*
X5572563Y-15147698D02*
X5553515Y-15157222D01*
X5553515Y-15157222D02*
X5543991Y-15166746D01*
X5543991Y-15166746D02*
X5534467Y-15185793D01*
X5534467Y-15185793D02*
X5534467Y-15223888D01*
X5534467Y-15223888D02*
X5543991Y-15242936D01*
X5543991Y-15242936D02*
X5553515Y-15252460D01*
X5553515Y-15252460D02*
X5572563Y-15261984D01*
X5572563Y-15261984D02*
X5610658Y-15261984D01*
X5610658Y-15261984D02*
X5629705Y-15252460D01*
X5629705Y-15252460D02*
X5639229Y-15242936D01*
X5639229Y-15242936D02*
X5648753Y-15223888D01*
X5648753Y-15223888D02*
X5648753Y-15185793D01*
X5648753Y-15185793D02*
X5639229Y-15166746D01*
X5639229Y-15166746D02*
X5629705Y-15157222D01*
X5629705Y-15157222D02*
X5610658Y-15147698D01*
X5743991Y-15261984D02*
X5782086Y-15261984D01*
X5782086Y-15261984D02*
X5801134Y-15252460D01*
X5801134Y-15252460D02*
X5810658Y-15242936D01*
X5810658Y-15242936D02*
X5829705Y-15214365D01*
X5829705Y-15214365D02*
X5839229Y-15176269D01*
X5839229Y-15176269D02*
X5839229Y-15100079D01*
X5839229Y-15100079D02*
X5829705Y-15081031D01*
X5829705Y-15081031D02*
X5820182Y-15071508D01*
X5820182Y-15071508D02*
X5801134Y-15061984D01*
X5801134Y-15061984D02*
X5763039Y-15061984D01*
X5763039Y-15061984D02*
X5743991Y-15071508D01*
X5743991Y-15071508D02*
X5734467Y-15081031D01*
X5734467Y-15081031D02*
X5724943Y-15100079D01*
X5724943Y-15100079D02*
X5724943Y-15147698D01*
X5724943Y-15147698D02*
X5734467Y-15166746D01*
X5734467Y-15166746D02*
X5743991Y-15176269D01*
X5743991Y-15176269D02*
X5763039Y-15185793D01*
X5763039Y-15185793D02*
X5801134Y-15185793D01*
X5801134Y-15185793D02*
X5820182Y-15176269D01*
X5820182Y-15176269D02*
X5829705Y-15166746D01*
X5829705Y-15166746D02*
X5839229Y-15147698D01*
X5963039Y-15061984D02*
X5982086Y-15061984D01*
X5982086Y-15061984D02*
X6001134Y-15071508D01*
X6001134Y-15071508D02*
X6010658Y-15081031D01*
X6010658Y-15081031D02*
X6020182Y-15100079D01*
X6020182Y-15100079D02*
X6029705Y-15138174D01*
X6029705Y-15138174D02*
X6029705Y-15185793D01*
X6029705Y-15185793D02*
X6020182Y-15223888D01*
X6020182Y-15223888D02*
X6010658Y-15242936D01*
X6010658Y-15242936D02*
X6001134Y-15252460D01*
X6001134Y-15252460D02*
X5982086Y-15261984D01*
X5982086Y-15261984D02*
X5963039Y-15261984D01*
X5963039Y-15261984D02*
X5943991Y-15252460D01*
X5943991Y-15252460D02*
X5934467Y-15242936D01*
X5934467Y-15242936D02*
X5924943Y-15223888D01*
X5924943Y-15223888D02*
X5915420Y-15185793D01*
X5915420Y-15185793D02*
X5915420Y-15138174D01*
X5915420Y-15138174D02*
X5924943Y-15100079D01*
X5924943Y-15100079D02*
X5934467Y-15081031D01*
X5934467Y-15081031D02*
X5943991Y-15071508D01*
X5943991Y-15071508D02*
X5963039Y-15061984D01*
X6115420Y-15261984D02*
X6115420Y-15128650D01*
X6115420Y-15147698D02*
X6124943Y-15138174D01*
X6124943Y-15138174D02*
X6143991Y-15128650D01*
X6143991Y-15128650D02*
X6172563Y-15128650D01*
X6172563Y-15128650D02*
X6191610Y-15138174D01*
X6191610Y-15138174D02*
X6201134Y-15157222D01*
X6201134Y-15157222D02*
X6201134Y-15261984D01*
X6201134Y-15157222D02*
X6210658Y-15138174D01*
X6210658Y-15138174D02*
X6229705Y-15128650D01*
X6229705Y-15128650D02*
X6258277Y-15128650D01*
X6258277Y-15128650D02*
X6277324Y-15138174D01*
X6277324Y-15138174D02*
X6286848Y-15157222D01*
X6286848Y-15157222D02*
X6286848Y-15261984D01*
X6382086Y-15261984D02*
X6382086Y-15128650D01*
X6382086Y-15147698D02*
X6391610Y-15138174D01*
X6391610Y-15138174D02*
X6410658Y-15128650D01*
X6410658Y-15128650D02*
X6439229Y-15128650D01*
X6439229Y-15128650D02*
X6458277Y-15138174D01*
X6458277Y-15138174D02*
X6467801Y-15157222D01*
X6467801Y-15157222D02*
X6467801Y-15261984D01*
X6467801Y-15157222D02*
X6477324Y-15138174D01*
X6477324Y-15138174D02*
X6496372Y-15128650D01*
X6496372Y-15128650D02*
X6524943Y-15128650D01*
X6524943Y-15128650D02*
X6543991Y-15138174D01*
X6543991Y-15138174D02*
X6553515Y-15157222D01*
X6553515Y-15157222D02*
X6553515Y-15261984D01*
X6943991Y-15052460D02*
X6772563Y-15309603D01*
X7201134Y-15061984D02*
X7220182Y-15061984D01*
X7220182Y-15061984D02*
X7239229Y-15071508D01*
X7239229Y-15071508D02*
X7248753Y-15081031D01*
X7248753Y-15081031D02*
X7258277Y-15100079D01*
X7258277Y-15100079D02*
X7267801Y-15138174D01*
X7267801Y-15138174D02*
X7267801Y-15185793D01*
X7267801Y-15185793D02*
X7258277Y-15223888D01*
X7258277Y-15223888D02*
X7248753Y-15242936D01*
X7248753Y-15242936D02*
X7239229Y-15252460D01*
X7239229Y-15252460D02*
X7220182Y-15261984D01*
X7220182Y-15261984D02*
X7201134Y-15261984D01*
X7201134Y-15261984D02*
X7182086Y-15252460D01*
X7182086Y-15252460D02*
X7172563Y-15242936D01*
X7172563Y-15242936D02*
X7163039Y-15223888D01*
X7163039Y-15223888D02*
X7153515Y-15185793D01*
X7153515Y-15185793D02*
X7153515Y-15138174D01*
X7153515Y-15138174D02*
X7163039Y-15100079D01*
X7163039Y-15100079D02*
X7172563Y-15081031D01*
X7172563Y-15081031D02*
X7182086Y-15071508D01*
X7182086Y-15071508D02*
X7201134Y-15061984D01*
X7353515Y-15242936D02*
X7363039Y-15252460D01*
X7363039Y-15252460D02*
X7353515Y-15261984D01*
X7353515Y-15261984D02*
X7343991Y-15252460D01*
X7343991Y-15252460D02*
X7353515Y-15242936D01*
X7353515Y-15242936D02*
X7353515Y-15261984D01*
X7486848Y-15061984D02*
X7505896Y-15061984D01*
X7505896Y-15061984D02*
X7524944Y-15071508D01*
X7524944Y-15071508D02*
X7534467Y-15081031D01*
X7534467Y-15081031D02*
X7543991Y-15100079D01*
X7543991Y-15100079D02*
X7553515Y-15138174D01*
X7553515Y-15138174D02*
X7553515Y-15185793D01*
X7553515Y-15185793D02*
X7543991Y-15223888D01*
X7543991Y-15223888D02*
X7534467Y-15242936D01*
X7534467Y-15242936D02*
X7524944Y-15252460D01*
X7524944Y-15252460D02*
X7505896Y-15261984D01*
X7505896Y-15261984D02*
X7486848Y-15261984D01*
X7486848Y-15261984D02*
X7467801Y-15252460D01*
X7467801Y-15252460D02*
X7458277Y-15242936D01*
X7458277Y-15242936D02*
X7448753Y-15223888D01*
X7448753Y-15223888D02*
X7439229Y-15185793D01*
X7439229Y-15185793D02*
X7439229Y-15138174D01*
X7439229Y-15138174D02*
X7448753Y-15100079D01*
X7448753Y-15100079D02*
X7458277Y-15081031D01*
X7458277Y-15081031D02*
X7467801Y-15071508D01*
X7467801Y-15071508D02*
X7486848Y-15061984D01*
X7620182Y-15061984D02*
X7743991Y-15061984D01*
X7743991Y-15061984D02*
X7677325Y-15138174D01*
X7677325Y-15138174D02*
X7705896Y-15138174D01*
X7705896Y-15138174D02*
X7724944Y-15147698D01*
X7724944Y-15147698D02*
X7734467Y-15157222D01*
X7734467Y-15157222D02*
X7743991Y-15176269D01*
X7743991Y-15176269D02*
X7743991Y-15223888D01*
X7743991Y-15223888D02*
X7734467Y-15242936D01*
X7734467Y-15242936D02*
X7724944Y-15252460D01*
X7724944Y-15252460D02*
X7705896Y-15261984D01*
X7705896Y-15261984D02*
X7648753Y-15261984D01*
X7648753Y-15261984D02*
X7629706Y-15252460D01*
X7629706Y-15252460D02*
X7620182Y-15242936D01*
X7924944Y-15061984D02*
X7829706Y-15061984D01*
X7829706Y-15061984D02*
X7820182Y-15157222D01*
X7820182Y-15157222D02*
X7829706Y-15147698D01*
X7829706Y-15147698D02*
X7848753Y-15138174D01*
X7848753Y-15138174D02*
X7896372Y-15138174D01*
X7896372Y-15138174D02*
X7915420Y-15147698D01*
X7915420Y-15147698D02*
X7924944Y-15157222D01*
X7924944Y-15157222D02*
X7934467Y-15176269D01*
X7934467Y-15176269D02*
X7934467Y-15223888D01*
X7934467Y-15223888D02*
X7924944Y-15242936D01*
X7924944Y-15242936D02*
X7915420Y-15252460D01*
X7915420Y-15252460D02*
X7896372Y-15261984D01*
X7896372Y-15261984D02*
X7848753Y-15261984D01*
X7848753Y-15261984D02*
X7829706Y-15252460D01*
X7829706Y-15252460D02*
X7820182Y-15242936D01*
X8058277Y-15061984D02*
X8077325Y-15061984D01*
X8077325Y-15061984D02*
X8096372Y-15071508D01*
X8096372Y-15071508D02*
X8105896Y-15081031D01*
X8105896Y-15081031D02*
X8115420Y-15100079D01*
X8115420Y-15100079D02*
X8124944Y-15138174D01*
X8124944Y-15138174D02*
X8124944Y-15185793D01*
X8124944Y-15185793D02*
X8115420Y-15223888D01*
X8115420Y-15223888D02*
X8105896Y-15242936D01*
X8105896Y-15242936D02*
X8096372Y-15252460D01*
X8096372Y-15252460D02*
X8077325Y-15261984D01*
X8077325Y-15261984D02*
X8058277Y-15261984D01*
X8058277Y-15261984D02*
X8039229Y-15252460D01*
X8039229Y-15252460D02*
X8029706Y-15242936D01*
X8029706Y-15242936D02*
X8020182Y-15223888D01*
X8020182Y-15223888D02*
X8010658Y-15185793D01*
X8010658Y-15185793D02*
X8010658Y-15138174D01*
X8010658Y-15138174D02*
X8020182Y-15100079D01*
X8020182Y-15100079D02*
X8029706Y-15081031D01*
X8029706Y-15081031D02*
X8039229Y-15071508D01*
X8039229Y-15071508D02*
X8058277Y-15061984D01*
X8201134Y-15061984D02*
X8201134Y-15100079D01*
X8277325Y-15061984D02*
X8277325Y-15100079D01*
X8572563Y-15338174D02*
X8563039Y-15328650D01*
X8563039Y-15328650D02*
X8543991Y-15300079D01*
X8543991Y-15300079D02*
X8534468Y-15281031D01*
X8534468Y-15281031D02*
X8524944Y-15252460D01*
X8524944Y-15252460D02*
X8515420Y-15204841D01*
X8515420Y-15204841D02*
X8515420Y-15166746D01*
X8515420Y-15166746D02*
X8524944Y-15119127D01*
X8524944Y-15119127D02*
X8534468Y-15090555D01*
X8534468Y-15090555D02*
X8543991Y-15071508D01*
X8543991Y-15071508D02*
X8563039Y-15042936D01*
X8563039Y-15042936D02*
X8572563Y-15033412D01*
X8734468Y-15128650D02*
X8734468Y-15261984D01*
X8686849Y-15052460D02*
X8639230Y-15195317D01*
X8639230Y-15195317D02*
X8763039Y-15195317D01*
X8991611Y-15261984D02*
X8991611Y-15061984D01*
X9077325Y-15261984D02*
X9077325Y-15157222D01*
X9077325Y-15157222D02*
X9067801Y-15138174D01*
X9067801Y-15138174D02*
X9048753Y-15128650D01*
X9048753Y-15128650D02*
X9020182Y-15128650D01*
X9020182Y-15128650D02*
X9001134Y-15138174D01*
X9001134Y-15138174D02*
X8991611Y-15147698D01*
X9201134Y-15261984D02*
X9182087Y-15252460D01*
X9182087Y-15252460D02*
X9172563Y-15242936D01*
X9172563Y-15242936D02*
X9163039Y-15223888D01*
X9163039Y-15223888D02*
X9163039Y-15166746D01*
X9163039Y-15166746D02*
X9172563Y-15147698D01*
X9172563Y-15147698D02*
X9182087Y-15138174D01*
X9182087Y-15138174D02*
X9201134Y-15128650D01*
X9201134Y-15128650D02*
X9229706Y-15128650D01*
X9229706Y-15128650D02*
X9248753Y-15138174D01*
X9248753Y-15138174D02*
X9258277Y-15147698D01*
X9258277Y-15147698D02*
X9267801Y-15166746D01*
X9267801Y-15166746D02*
X9267801Y-15223888D01*
X9267801Y-15223888D02*
X9258277Y-15242936D01*
X9258277Y-15242936D02*
X9248753Y-15252460D01*
X9248753Y-15252460D02*
X9229706Y-15261984D01*
X9229706Y-15261984D02*
X9201134Y-15261984D01*
X9382087Y-15261984D02*
X9363039Y-15252460D01*
X9363039Y-15252460D02*
X9353515Y-15233412D01*
X9353515Y-15233412D02*
X9353515Y-15061984D01*
X9534468Y-15252460D02*
X9515420Y-15261984D01*
X9515420Y-15261984D02*
X9477325Y-15261984D01*
X9477325Y-15261984D02*
X9458277Y-15252460D01*
X9458277Y-15252460D02*
X9448753Y-15233412D01*
X9448753Y-15233412D02*
X9448753Y-15157222D01*
X9448753Y-15157222D02*
X9458277Y-15138174D01*
X9458277Y-15138174D02*
X9477325Y-15128650D01*
X9477325Y-15128650D02*
X9515420Y-15128650D01*
X9515420Y-15128650D02*
X9534468Y-15138174D01*
X9534468Y-15138174D02*
X9543992Y-15157222D01*
X9543992Y-15157222D02*
X9543992Y-15176269D01*
X9543992Y-15176269D02*
X9448753Y-15195317D01*
X9620182Y-15252460D02*
X9639230Y-15261984D01*
X9639230Y-15261984D02*
X9677325Y-15261984D01*
X9677325Y-15261984D02*
X9696373Y-15252460D01*
X9696373Y-15252460D02*
X9705896Y-15233412D01*
X9705896Y-15233412D02*
X9705896Y-15223888D01*
X9705896Y-15223888D02*
X9696373Y-15204841D01*
X9696373Y-15204841D02*
X9677325Y-15195317D01*
X9677325Y-15195317D02*
X9648753Y-15195317D01*
X9648753Y-15195317D02*
X9629706Y-15185793D01*
X9629706Y-15185793D02*
X9620182Y-15166746D01*
X9620182Y-15166746D02*
X9620182Y-15157222D01*
X9620182Y-15157222D02*
X9629706Y-15138174D01*
X9629706Y-15138174D02*
X9648753Y-15128650D01*
X9648753Y-15128650D02*
X9677325Y-15128650D01*
X9677325Y-15128650D02*
X9696373Y-15138174D01*
X9772563Y-15338174D02*
X9782087Y-15328650D01*
X9782087Y-15328650D02*
X9801134Y-15300079D01*
X9801134Y-15300079D02*
X9810658Y-15281031D01*
X9810658Y-15281031D02*
X9820182Y-15252460D01*
X9820182Y-15252460D02*
X9829706Y-15204841D01*
X9829706Y-15204841D02*
X9829706Y-15166746D01*
X9829706Y-15166746D02*
X9820182Y-15119127D01*
X9820182Y-15119127D02*
X9810658Y-15090555D01*
X9810658Y-15090555D02*
X9801134Y-15071508D01*
X9801134Y-15071508D02*
X9782087Y-15042936D01*
X9782087Y-15042936D02*
X9772563Y-15033412D01*
D12*
X4984027Y-15467027D02*
X4984027Y-15401973D01*
X4918973Y-15401973D01*
X4918973Y-15467027D01*
X4984027Y-15467027D01*
D11*
X5296372Y-15325984D02*
X5315420Y-15325984D01*
X5315420Y-15325984D02*
X5334467Y-15335508D01*
X5334467Y-15335508D02*
X5343991Y-15345031D01*
X5343991Y-15345031D02*
X5353515Y-15364079D01*
X5353515Y-15364079D02*
X5363039Y-15402174D01*
X5363039Y-15402174D02*
X5363039Y-15449793D01*
X5363039Y-15449793D02*
X5353515Y-15487888D01*
X5353515Y-15487888D02*
X5343991Y-15506936D01*
X5343991Y-15506936D02*
X5334467Y-15516460D01*
X5334467Y-15516460D02*
X5315420Y-15525984D01*
X5315420Y-15525984D02*
X5296372Y-15525984D01*
X5296372Y-15525984D02*
X5277324Y-15516460D01*
X5277324Y-15516460D02*
X5267801Y-15506936D01*
X5267801Y-15506936D02*
X5258277Y-15487888D01*
X5258277Y-15487888D02*
X5248753Y-15449793D01*
X5248753Y-15449793D02*
X5248753Y-15402174D01*
X5248753Y-15402174D02*
X5258277Y-15364079D01*
X5258277Y-15364079D02*
X5267801Y-15345031D01*
X5267801Y-15345031D02*
X5277324Y-15335508D01*
X5277324Y-15335508D02*
X5296372Y-15325984D01*
X5448753Y-15506936D02*
X5458277Y-15516460D01*
X5458277Y-15516460D02*
X5448753Y-15525984D01*
X5448753Y-15525984D02*
X5439229Y-15516460D01*
X5439229Y-15516460D02*
X5448753Y-15506936D01*
X5448753Y-15506936D02*
X5448753Y-15525984D01*
X5553515Y-15525984D02*
X5591610Y-15525984D01*
X5591610Y-15525984D02*
X5610658Y-15516460D01*
X5610658Y-15516460D02*
X5620182Y-15506936D01*
X5620182Y-15506936D02*
X5639229Y-15478365D01*
X5639229Y-15478365D02*
X5648753Y-15440269D01*
X5648753Y-15440269D02*
X5648753Y-15364079D01*
X5648753Y-15364079D02*
X5639229Y-15345031D01*
X5639229Y-15345031D02*
X5629705Y-15335508D01*
X5629705Y-15335508D02*
X5610658Y-15325984D01*
X5610658Y-15325984D02*
X5572563Y-15325984D01*
X5572563Y-15325984D02*
X5553515Y-15335508D01*
X5553515Y-15335508D02*
X5543991Y-15345031D01*
X5543991Y-15345031D02*
X5534467Y-15364079D01*
X5534467Y-15364079D02*
X5534467Y-15411698D01*
X5534467Y-15411698D02*
X5543991Y-15430746D01*
X5543991Y-15430746D02*
X5553515Y-15440269D01*
X5553515Y-15440269D02*
X5572563Y-15449793D01*
X5572563Y-15449793D02*
X5610658Y-15449793D01*
X5610658Y-15449793D02*
X5629705Y-15440269D01*
X5629705Y-15440269D02*
X5639229Y-15430746D01*
X5639229Y-15430746D02*
X5648753Y-15411698D01*
X5724943Y-15345031D02*
X5734467Y-15335508D01*
X5734467Y-15335508D02*
X5753515Y-15325984D01*
X5753515Y-15325984D02*
X5801134Y-15325984D01*
X5801134Y-15325984D02*
X5820182Y-15335508D01*
X5820182Y-15335508D02*
X5829705Y-15345031D01*
X5829705Y-15345031D02*
X5839229Y-15364079D01*
X5839229Y-15364079D02*
X5839229Y-15383127D01*
X5839229Y-15383127D02*
X5829705Y-15411698D01*
X5829705Y-15411698D02*
X5715420Y-15525984D01*
X5715420Y-15525984D02*
X5839229Y-15525984D01*
X5963039Y-15325984D02*
X5982086Y-15325984D01*
X5982086Y-15325984D02*
X6001134Y-15335508D01*
X6001134Y-15335508D02*
X6010658Y-15345031D01*
X6010658Y-15345031D02*
X6020182Y-15364079D01*
X6020182Y-15364079D02*
X6029705Y-15402174D01*
X6029705Y-15402174D02*
X6029705Y-15449793D01*
X6029705Y-15449793D02*
X6020182Y-15487888D01*
X6020182Y-15487888D02*
X6010658Y-15506936D01*
X6010658Y-15506936D02*
X6001134Y-15516460D01*
X6001134Y-15516460D02*
X5982086Y-15525984D01*
X5982086Y-15525984D02*
X5963039Y-15525984D01*
X5963039Y-15525984D02*
X5943991Y-15516460D01*
X5943991Y-15516460D02*
X5934467Y-15506936D01*
X5934467Y-15506936D02*
X5924943Y-15487888D01*
X5924943Y-15487888D02*
X5915420Y-15449793D01*
X5915420Y-15449793D02*
X5915420Y-15402174D01*
X5915420Y-15402174D02*
X5924943Y-15364079D01*
X5924943Y-15364079D02*
X5934467Y-15345031D01*
X5934467Y-15345031D02*
X5943991Y-15335508D01*
X5943991Y-15335508D02*
X5963039Y-15325984D01*
X6115420Y-15525984D02*
X6115420Y-15392650D01*
X6115420Y-15411698D02*
X6124943Y-15402174D01*
X6124943Y-15402174D02*
X6143991Y-15392650D01*
X6143991Y-15392650D02*
X6172563Y-15392650D01*
X6172563Y-15392650D02*
X6191610Y-15402174D01*
X6191610Y-15402174D02*
X6201134Y-15421222D01*
X6201134Y-15421222D02*
X6201134Y-15525984D01*
X6201134Y-15421222D02*
X6210658Y-15402174D01*
X6210658Y-15402174D02*
X6229705Y-15392650D01*
X6229705Y-15392650D02*
X6258277Y-15392650D01*
X6258277Y-15392650D02*
X6277324Y-15402174D01*
X6277324Y-15402174D02*
X6286848Y-15421222D01*
X6286848Y-15421222D02*
X6286848Y-15525984D01*
X6382086Y-15525984D02*
X6382086Y-15392650D01*
X6382086Y-15411698D02*
X6391610Y-15402174D01*
X6391610Y-15402174D02*
X6410658Y-15392650D01*
X6410658Y-15392650D02*
X6439229Y-15392650D01*
X6439229Y-15392650D02*
X6458277Y-15402174D01*
X6458277Y-15402174D02*
X6467801Y-15421222D01*
X6467801Y-15421222D02*
X6467801Y-15525984D01*
X6467801Y-15421222D02*
X6477324Y-15402174D01*
X6477324Y-15402174D02*
X6496372Y-15392650D01*
X6496372Y-15392650D02*
X6524943Y-15392650D01*
X6524943Y-15392650D02*
X6543991Y-15402174D01*
X6543991Y-15402174D02*
X6553515Y-15421222D01*
X6553515Y-15421222D02*
X6553515Y-15525984D01*
X6943991Y-15316460D02*
X6772563Y-15573603D01*
X7201134Y-15325984D02*
X7220182Y-15325984D01*
X7220182Y-15325984D02*
X7239229Y-15335508D01*
X7239229Y-15335508D02*
X7248753Y-15345031D01*
X7248753Y-15345031D02*
X7258277Y-15364079D01*
X7258277Y-15364079D02*
X7267801Y-15402174D01*
X7267801Y-15402174D02*
X7267801Y-15449793D01*
X7267801Y-15449793D02*
X7258277Y-15487888D01*
X7258277Y-15487888D02*
X7248753Y-15506936D01*
X7248753Y-15506936D02*
X7239229Y-15516460D01*
X7239229Y-15516460D02*
X7220182Y-15525984D01*
X7220182Y-15525984D02*
X7201134Y-15525984D01*
X7201134Y-15525984D02*
X7182086Y-15516460D01*
X7182086Y-15516460D02*
X7172563Y-15506936D01*
X7172563Y-15506936D02*
X7163039Y-15487888D01*
X7163039Y-15487888D02*
X7153515Y-15449793D01*
X7153515Y-15449793D02*
X7153515Y-15402174D01*
X7153515Y-15402174D02*
X7163039Y-15364079D01*
X7163039Y-15364079D02*
X7172563Y-15345031D01*
X7172563Y-15345031D02*
X7182086Y-15335508D01*
X7182086Y-15335508D02*
X7201134Y-15325984D01*
X7353515Y-15506936D02*
X7363039Y-15516460D01*
X7363039Y-15516460D02*
X7353515Y-15525984D01*
X7353515Y-15525984D02*
X7343991Y-15516460D01*
X7343991Y-15516460D02*
X7353515Y-15506936D01*
X7353515Y-15506936D02*
X7353515Y-15525984D01*
X7486848Y-15325984D02*
X7505896Y-15325984D01*
X7505896Y-15325984D02*
X7524944Y-15335508D01*
X7524944Y-15335508D02*
X7534467Y-15345031D01*
X7534467Y-15345031D02*
X7543991Y-15364079D01*
X7543991Y-15364079D02*
X7553515Y-15402174D01*
X7553515Y-15402174D02*
X7553515Y-15449793D01*
X7553515Y-15449793D02*
X7543991Y-15487888D01*
X7543991Y-15487888D02*
X7534467Y-15506936D01*
X7534467Y-15506936D02*
X7524944Y-15516460D01*
X7524944Y-15516460D02*
X7505896Y-15525984D01*
X7505896Y-15525984D02*
X7486848Y-15525984D01*
X7486848Y-15525984D02*
X7467801Y-15516460D01*
X7467801Y-15516460D02*
X7458277Y-15506936D01*
X7458277Y-15506936D02*
X7448753Y-15487888D01*
X7448753Y-15487888D02*
X7439229Y-15449793D01*
X7439229Y-15449793D02*
X7439229Y-15402174D01*
X7439229Y-15402174D02*
X7448753Y-15364079D01*
X7448753Y-15364079D02*
X7458277Y-15345031D01*
X7458277Y-15345031D02*
X7467801Y-15335508D01*
X7467801Y-15335508D02*
X7486848Y-15325984D01*
X7620182Y-15325984D02*
X7743991Y-15325984D01*
X7743991Y-15325984D02*
X7677325Y-15402174D01*
X7677325Y-15402174D02*
X7705896Y-15402174D01*
X7705896Y-15402174D02*
X7724944Y-15411698D01*
X7724944Y-15411698D02*
X7734467Y-15421222D01*
X7734467Y-15421222D02*
X7743991Y-15440269D01*
X7743991Y-15440269D02*
X7743991Y-15487888D01*
X7743991Y-15487888D02*
X7734467Y-15506936D01*
X7734467Y-15506936D02*
X7724944Y-15516460D01*
X7724944Y-15516460D02*
X7705896Y-15525984D01*
X7705896Y-15525984D02*
X7648753Y-15525984D01*
X7648753Y-15525984D02*
X7629706Y-15516460D01*
X7629706Y-15516460D02*
X7620182Y-15506936D01*
X7915420Y-15325984D02*
X7877325Y-15325984D01*
X7877325Y-15325984D02*
X7858277Y-15335508D01*
X7858277Y-15335508D02*
X7848753Y-15345031D01*
X7848753Y-15345031D02*
X7829706Y-15373603D01*
X7829706Y-15373603D02*
X7820182Y-15411698D01*
X7820182Y-15411698D02*
X7820182Y-15487888D01*
X7820182Y-15487888D02*
X7829706Y-15506936D01*
X7829706Y-15506936D02*
X7839229Y-15516460D01*
X7839229Y-15516460D02*
X7858277Y-15525984D01*
X7858277Y-15525984D02*
X7896372Y-15525984D01*
X7896372Y-15525984D02*
X7915420Y-15516460D01*
X7915420Y-15516460D02*
X7924944Y-15506936D01*
X7924944Y-15506936D02*
X7934467Y-15487888D01*
X7934467Y-15487888D02*
X7934467Y-15440269D01*
X7934467Y-15440269D02*
X7924944Y-15421222D01*
X7924944Y-15421222D02*
X7915420Y-15411698D01*
X7915420Y-15411698D02*
X7896372Y-15402174D01*
X7896372Y-15402174D02*
X7858277Y-15402174D01*
X7858277Y-15402174D02*
X7839229Y-15411698D01*
X7839229Y-15411698D02*
X7829706Y-15421222D01*
X7829706Y-15421222D02*
X7820182Y-15440269D01*
X8010658Y-15345031D02*
X8020182Y-15335508D01*
X8020182Y-15335508D02*
X8039229Y-15325984D01*
X8039229Y-15325984D02*
X8086848Y-15325984D01*
X8086848Y-15325984D02*
X8105896Y-15335508D01*
X8105896Y-15335508D02*
X8115420Y-15345031D01*
X8115420Y-15345031D02*
X8124944Y-15364079D01*
X8124944Y-15364079D02*
X8124944Y-15383127D01*
X8124944Y-15383127D02*
X8115420Y-15411698D01*
X8115420Y-15411698D02*
X8001134Y-15525984D01*
X8001134Y-15525984D02*
X8124944Y-15525984D01*
X8201134Y-15325984D02*
X8201134Y-15364079D01*
X8277325Y-15325984D02*
X8277325Y-15364079D01*
X8572563Y-15602174D02*
X8563039Y-15592650D01*
X8563039Y-15592650D02*
X8543991Y-15564079D01*
X8543991Y-15564079D02*
X8534468Y-15545031D01*
X8534468Y-15545031D02*
X8524944Y-15516460D01*
X8524944Y-15516460D02*
X8515420Y-15468841D01*
X8515420Y-15468841D02*
X8515420Y-15430746D01*
X8515420Y-15430746D02*
X8524944Y-15383127D01*
X8524944Y-15383127D02*
X8534468Y-15354555D01*
X8534468Y-15354555D02*
X8543991Y-15335508D01*
X8543991Y-15335508D02*
X8563039Y-15306936D01*
X8563039Y-15306936D02*
X8572563Y-15297412D01*
X8734468Y-15392650D02*
X8734468Y-15525984D01*
X8686849Y-15316460D02*
X8639230Y-15459317D01*
X8639230Y-15459317D02*
X8763039Y-15459317D01*
X8991611Y-15525984D02*
X8991611Y-15325984D01*
X9077325Y-15525984D02*
X9077325Y-15421222D01*
X9077325Y-15421222D02*
X9067801Y-15402174D01*
X9067801Y-15402174D02*
X9048753Y-15392650D01*
X9048753Y-15392650D02*
X9020182Y-15392650D01*
X9020182Y-15392650D02*
X9001134Y-15402174D01*
X9001134Y-15402174D02*
X8991611Y-15411698D01*
X9201134Y-15525984D02*
X9182087Y-15516460D01*
X9182087Y-15516460D02*
X9172563Y-15506936D01*
X9172563Y-15506936D02*
X9163039Y-15487888D01*
X9163039Y-15487888D02*
X9163039Y-15430746D01*
X9163039Y-15430746D02*
X9172563Y-15411698D01*
X9172563Y-15411698D02*
X9182087Y-15402174D01*
X9182087Y-15402174D02*
X9201134Y-15392650D01*
X9201134Y-15392650D02*
X9229706Y-15392650D01*
X9229706Y-15392650D02*
X9248753Y-15402174D01*
X9248753Y-15402174D02*
X9258277Y-15411698D01*
X9258277Y-15411698D02*
X9267801Y-15430746D01*
X9267801Y-15430746D02*
X9267801Y-15487888D01*
X9267801Y-15487888D02*
X9258277Y-15506936D01*
X9258277Y-15506936D02*
X9248753Y-15516460D01*
X9248753Y-15516460D02*
X9229706Y-15525984D01*
X9229706Y-15525984D02*
X9201134Y-15525984D01*
X9382087Y-15525984D02*
X9363039Y-15516460D01*
X9363039Y-15516460D02*
X9353515Y-15497412D01*
X9353515Y-15497412D02*
X9353515Y-15325984D01*
X9534468Y-15516460D02*
X9515420Y-15525984D01*
X9515420Y-15525984D02*
X9477325Y-15525984D01*
X9477325Y-15525984D02*
X9458277Y-15516460D01*
X9458277Y-15516460D02*
X9448753Y-15497412D01*
X9448753Y-15497412D02*
X9448753Y-15421222D01*
X9448753Y-15421222D02*
X9458277Y-15402174D01*
X9458277Y-15402174D02*
X9477325Y-15392650D01*
X9477325Y-15392650D02*
X9515420Y-15392650D01*
X9515420Y-15392650D02*
X9534468Y-15402174D01*
X9534468Y-15402174D02*
X9543992Y-15421222D01*
X9543992Y-15421222D02*
X9543992Y-15440269D01*
X9543992Y-15440269D02*
X9448753Y-15459317D01*
X9620182Y-15516460D02*
X9639230Y-15525984D01*
X9639230Y-15525984D02*
X9677325Y-15525984D01*
X9677325Y-15525984D02*
X9696373Y-15516460D01*
X9696373Y-15516460D02*
X9705896Y-15497412D01*
X9705896Y-15497412D02*
X9705896Y-15487888D01*
X9705896Y-15487888D02*
X9696373Y-15468841D01*
X9696373Y-15468841D02*
X9677325Y-15459317D01*
X9677325Y-15459317D02*
X9648753Y-15459317D01*
X9648753Y-15459317D02*
X9629706Y-15449793D01*
X9629706Y-15449793D02*
X9620182Y-15430746D01*
X9620182Y-15430746D02*
X9620182Y-15421222D01*
X9620182Y-15421222D02*
X9629706Y-15402174D01*
X9629706Y-15402174D02*
X9648753Y-15392650D01*
X9648753Y-15392650D02*
X9677325Y-15392650D01*
X9677325Y-15392650D02*
X9696373Y-15402174D01*
X9772563Y-15602174D02*
X9782087Y-15592650D01*
X9782087Y-15592650D02*
X9801134Y-15564079D01*
X9801134Y-15564079D02*
X9810658Y-15545031D01*
X9810658Y-15545031D02*
X9820182Y-15516460D01*
X9820182Y-15516460D02*
X9829706Y-15468841D01*
X9829706Y-15468841D02*
X9829706Y-15430746D01*
X9829706Y-15430746D02*
X9820182Y-15383127D01*
X9820182Y-15383127D02*
X9810658Y-15354555D01*
X9810658Y-15354555D02*
X9801134Y-15335508D01*
X9801134Y-15335508D02*
X9782087Y-15306936D01*
X9782087Y-15306936D02*
X9772563Y-15297412D01*
D12*
X4947500Y-15748500D02*
X4997500Y-15698500D01*
X4947500Y-15648500D01*
X4897500Y-15698500D01*
X4947500Y-15748500D01*
D11*
X5363039Y-15789984D02*
X5248753Y-15789984D01*
X5305896Y-15789984D02*
X5305896Y-15589984D01*
X5305896Y-15589984D02*
X5286848Y-15618555D01*
X5286848Y-15618555D02*
X5267801Y-15637603D01*
X5267801Y-15637603D02*
X5248753Y-15647127D01*
X5448753Y-15770936D02*
X5458277Y-15780460D01*
X5458277Y-15780460D02*
X5448753Y-15789984D01*
X5448753Y-15789984D02*
X5439229Y-15780460D01*
X5439229Y-15780460D02*
X5448753Y-15770936D01*
X5448753Y-15770936D02*
X5448753Y-15789984D01*
X5582086Y-15589984D02*
X5601134Y-15589984D01*
X5601134Y-15589984D02*
X5620182Y-15599508D01*
X5620182Y-15599508D02*
X5629705Y-15609031D01*
X5629705Y-15609031D02*
X5639229Y-15628079D01*
X5639229Y-15628079D02*
X5648753Y-15666174D01*
X5648753Y-15666174D02*
X5648753Y-15713793D01*
X5648753Y-15713793D02*
X5639229Y-15751888D01*
X5639229Y-15751888D02*
X5629705Y-15770936D01*
X5629705Y-15770936D02*
X5620182Y-15780460D01*
X5620182Y-15780460D02*
X5601134Y-15789984D01*
X5601134Y-15789984D02*
X5582086Y-15789984D01*
X5582086Y-15789984D02*
X5563039Y-15780460D01*
X5563039Y-15780460D02*
X5553515Y-15770936D01*
X5553515Y-15770936D02*
X5543991Y-15751888D01*
X5543991Y-15751888D02*
X5534467Y-15713793D01*
X5534467Y-15713793D02*
X5534467Y-15666174D01*
X5534467Y-15666174D02*
X5543991Y-15628079D01*
X5543991Y-15628079D02*
X5553515Y-15609031D01*
X5553515Y-15609031D02*
X5563039Y-15599508D01*
X5563039Y-15599508D02*
X5582086Y-15589984D01*
X5772562Y-15589984D02*
X5791610Y-15589984D01*
X5791610Y-15589984D02*
X5810658Y-15599508D01*
X5810658Y-15599508D02*
X5820182Y-15609031D01*
X5820182Y-15609031D02*
X5829705Y-15628079D01*
X5829705Y-15628079D02*
X5839229Y-15666174D01*
X5839229Y-15666174D02*
X5839229Y-15713793D01*
X5839229Y-15713793D02*
X5829705Y-15751888D01*
X5829705Y-15751888D02*
X5820182Y-15770936D01*
X5820182Y-15770936D02*
X5810658Y-15780460D01*
X5810658Y-15780460D02*
X5791610Y-15789984D01*
X5791610Y-15789984D02*
X5772562Y-15789984D01*
X5772562Y-15789984D02*
X5753515Y-15780460D01*
X5753515Y-15780460D02*
X5743991Y-15770936D01*
X5743991Y-15770936D02*
X5734467Y-15751888D01*
X5734467Y-15751888D02*
X5724943Y-15713793D01*
X5724943Y-15713793D02*
X5724943Y-15666174D01*
X5724943Y-15666174D02*
X5734467Y-15628079D01*
X5734467Y-15628079D02*
X5743991Y-15609031D01*
X5743991Y-15609031D02*
X5753515Y-15599508D01*
X5753515Y-15599508D02*
X5772562Y-15589984D01*
X5963039Y-15589984D02*
X5982086Y-15589984D01*
X5982086Y-15589984D02*
X6001134Y-15599508D01*
X6001134Y-15599508D02*
X6010658Y-15609031D01*
X6010658Y-15609031D02*
X6020182Y-15628079D01*
X6020182Y-15628079D02*
X6029705Y-15666174D01*
X6029705Y-15666174D02*
X6029705Y-15713793D01*
X6029705Y-15713793D02*
X6020182Y-15751888D01*
X6020182Y-15751888D02*
X6010658Y-15770936D01*
X6010658Y-15770936D02*
X6001134Y-15780460D01*
X6001134Y-15780460D02*
X5982086Y-15789984D01*
X5982086Y-15789984D02*
X5963039Y-15789984D01*
X5963039Y-15789984D02*
X5943991Y-15780460D01*
X5943991Y-15780460D02*
X5934467Y-15770936D01*
X5934467Y-15770936D02*
X5924943Y-15751888D01*
X5924943Y-15751888D02*
X5915420Y-15713793D01*
X5915420Y-15713793D02*
X5915420Y-15666174D01*
X5915420Y-15666174D02*
X5924943Y-15628079D01*
X5924943Y-15628079D02*
X5934467Y-15609031D01*
X5934467Y-15609031D02*
X5943991Y-15599508D01*
X5943991Y-15599508D02*
X5963039Y-15589984D01*
X6115420Y-15789984D02*
X6115420Y-15656650D01*
X6115420Y-15675698D02*
X6124943Y-15666174D01*
X6124943Y-15666174D02*
X6143991Y-15656650D01*
X6143991Y-15656650D02*
X6172563Y-15656650D01*
X6172563Y-15656650D02*
X6191610Y-15666174D01*
X6191610Y-15666174D02*
X6201134Y-15685222D01*
X6201134Y-15685222D02*
X6201134Y-15789984D01*
X6201134Y-15685222D02*
X6210658Y-15666174D01*
X6210658Y-15666174D02*
X6229705Y-15656650D01*
X6229705Y-15656650D02*
X6258277Y-15656650D01*
X6258277Y-15656650D02*
X6277324Y-15666174D01*
X6277324Y-15666174D02*
X6286848Y-15685222D01*
X6286848Y-15685222D02*
X6286848Y-15789984D01*
X6382086Y-15789984D02*
X6382086Y-15656650D01*
X6382086Y-15675698D02*
X6391610Y-15666174D01*
X6391610Y-15666174D02*
X6410658Y-15656650D01*
X6410658Y-15656650D02*
X6439229Y-15656650D01*
X6439229Y-15656650D02*
X6458277Y-15666174D01*
X6458277Y-15666174D02*
X6467801Y-15685222D01*
X6467801Y-15685222D02*
X6467801Y-15789984D01*
X6467801Y-15685222D02*
X6477324Y-15666174D01*
X6477324Y-15666174D02*
X6496372Y-15656650D01*
X6496372Y-15656650D02*
X6524943Y-15656650D01*
X6524943Y-15656650D02*
X6543991Y-15666174D01*
X6543991Y-15666174D02*
X6553515Y-15685222D01*
X6553515Y-15685222D02*
X6553515Y-15789984D01*
X6943991Y-15580460D02*
X6772563Y-15837603D01*
X7201134Y-15589984D02*
X7220182Y-15589984D01*
X7220182Y-15589984D02*
X7239229Y-15599508D01*
X7239229Y-15599508D02*
X7248753Y-15609031D01*
X7248753Y-15609031D02*
X7258277Y-15628079D01*
X7258277Y-15628079D02*
X7267801Y-15666174D01*
X7267801Y-15666174D02*
X7267801Y-15713793D01*
X7267801Y-15713793D02*
X7258277Y-15751888D01*
X7258277Y-15751888D02*
X7248753Y-15770936D01*
X7248753Y-15770936D02*
X7239229Y-15780460D01*
X7239229Y-15780460D02*
X7220182Y-15789984D01*
X7220182Y-15789984D02*
X7201134Y-15789984D01*
X7201134Y-15789984D02*
X7182086Y-15780460D01*
X7182086Y-15780460D02*
X7172563Y-15770936D01*
X7172563Y-15770936D02*
X7163039Y-15751888D01*
X7163039Y-15751888D02*
X7153515Y-15713793D01*
X7153515Y-15713793D02*
X7153515Y-15666174D01*
X7153515Y-15666174D02*
X7163039Y-15628079D01*
X7163039Y-15628079D02*
X7172563Y-15609031D01*
X7172563Y-15609031D02*
X7182086Y-15599508D01*
X7182086Y-15599508D02*
X7201134Y-15589984D01*
X7353515Y-15770936D02*
X7363039Y-15780460D01*
X7363039Y-15780460D02*
X7353515Y-15789984D01*
X7353515Y-15789984D02*
X7343991Y-15780460D01*
X7343991Y-15780460D02*
X7353515Y-15770936D01*
X7353515Y-15770936D02*
X7353515Y-15789984D01*
X7486848Y-15589984D02*
X7505896Y-15589984D01*
X7505896Y-15589984D02*
X7524944Y-15599508D01*
X7524944Y-15599508D02*
X7534467Y-15609031D01*
X7534467Y-15609031D02*
X7543991Y-15628079D01*
X7543991Y-15628079D02*
X7553515Y-15666174D01*
X7553515Y-15666174D02*
X7553515Y-15713793D01*
X7553515Y-15713793D02*
X7543991Y-15751888D01*
X7543991Y-15751888D02*
X7534467Y-15770936D01*
X7534467Y-15770936D02*
X7524944Y-15780460D01*
X7524944Y-15780460D02*
X7505896Y-15789984D01*
X7505896Y-15789984D02*
X7486848Y-15789984D01*
X7486848Y-15789984D02*
X7467801Y-15780460D01*
X7467801Y-15780460D02*
X7458277Y-15770936D01*
X7458277Y-15770936D02*
X7448753Y-15751888D01*
X7448753Y-15751888D02*
X7439229Y-15713793D01*
X7439229Y-15713793D02*
X7439229Y-15666174D01*
X7439229Y-15666174D02*
X7448753Y-15628079D01*
X7448753Y-15628079D02*
X7458277Y-15609031D01*
X7458277Y-15609031D02*
X7467801Y-15599508D01*
X7467801Y-15599508D02*
X7486848Y-15589984D01*
X7620182Y-15589984D02*
X7743991Y-15589984D01*
X7743991Y-15589984D02*
X7677325Y-15666174D01*
X7677325Y-15666174D02*
X7705896Y-15666174D01*
X7705896Y-15666174D02*
X7724944Y-15675698D01*
X7724944Y-15675698D02*
X7734467Y-15685222D01*
X7734467Y-15685222D02*
X7743991Y-15704269D01*
X7743991Y-15704269D02*
X7743991Y-15751888D01*
X7743991Y-15751888D02*
X7734467Y-15770936D01*
X7734467Y-15770936D02*
X7724944Y-15780460D01*
X7724944Y-15780460D02*
X7705896Y-15789984D01*
X7705896Y-15789984D02*
X7648753Y-15789984D01*
X7648753Y-15789984D02*
X7629706Y-15780460D01*
X7629706Y-15780460D02*
X7620182Y-15770936D01*
X7839229Y-15789984D02*
X7877325Y-15789984D01*
X7877325Y-15789984D02*
X7896372Y-15780460D01*
X7896372Y-15780460D02*
X7905896Y-15770936D01*
X7905896Y-15770936D02*
X7924944Y-15742365D01*
X7924944Y-15742365D02*
X7934467Y-15704269D01*
X7934467Y-15704269D02*
X7934467Y-15628079D01*
X7934467Y-15628079D02*
X7924944Y-15609031D01*
X7924944Y-15609031D02*
X7915420Y-15599508D01*
X7915420Y-15599508D02*
X7896372Y-15589984D01*
X7896372Y-15589984D02*
X7858277Y-15589984D01*
X7858277Y-15589984D02*
X7839229Y-15599508D01*
X7839229Y-15599508D02*
X7829706Y-15609031D01*
X7829706Y-15609031D02*
X7820182Y-15628079D01*
X7820182Y-15628079D02*
X7820182Y-15675698D01*
X7820182Y-15675698D02*
X7829706Y-15694746D01*
X7829706Y-15694746D02*
X7839229Y-15704269D01*
X7839229Y-15704269D02*
X7858277Y-15713793D01*
X7858277Y-15713793D02*
X7896372Y-15713793D01*
X7896372Y-15713793D02*
X7915420Y-15704269D01*
X7915420Y-15704269D02*
X7924944Y-15694746D01*
X7924944Y-15694746D02*
X7934467Y-15675698D01*
X8105896Y-15656650D02*
X8105896Y-15789984D01*
X8058277Y-15580460D02*
X8010658Y-15723317D01*
X8010658Y-15723317D02*
X8134467Y-15723317D01*
X8201134Y-15589984D02*
X8201134Y-15628079D01*
X8277325Y-15589984D02*
X8277325Y-15628079D01*
X8572563Y-15866174D02*
X8563039Y-15856650D01*
X8563039Y-15856650D02*
X8543991Y-15828079D01*
X8543991Y-15828079D02*
X8534468Y-15809031D01*
X8534468Y-15809031D02*
X8524944Y-15780460D01*
X8524944Y-15780460D02*
X8515420Y-15732841D01*
X8515420Y-15732841D02*
X8515420Y-15694746D01*
X8515420Y-15694746D02*
X8524944Y-15647127D01*
X8524944Y-15647127D02*
X8534468Y-15618555D01*
X8534468Y-15618555D02*
X8543991Y-15599508D01*
X8543991Y-15599508D02*
X8563039Y-15570936D01*
X8563039Y-15570936D02*
X8572563Y-15561412D01*
X8753515Y-15789984D02*
X8639230Y-15789984D01*
X8696372Y-15789984D02*
X8696372Y-15589984D01*
X8696372Y-15589984D02*
X8677325Y-15618555D01*
X8677325Y-15618555D02*
X8658277Y-15637603D01*
X8658277Y-15637603D02*
X8639230Y-15647127D01*
X8877325Y-15589984D02*
X8896372Y-15589984D01*
X8896372Y-15589984D02*
X8915420Y-15599508D01*
X8915420Y-15599508D02*
X8924944Y-15609031D01*
X8924944Y-15609031D02*
X8934468Y-15628079D01*
X8934468Y-15628079D02*
X8943991Y-15666174D01*
X8943991Y-15666174D02*
X8943991Y-15713793D01*
X8943991Y-15713793D02*
X8934468Y-15751888D01*
X8934468Y-15751888D02*
X8924944Y-15770936D01*
X8924944Y-15770936D02*
X8915420Y-15780460D01*
X8915420Y-15780460D02*
X8896372Y-15789984D01*
X8896372Y-15789984D02*
X8877325Y-15789984D01*
X8877325Y-15789984D02*
X8858277Y-15780460D01*
X8858277Y-15780460D02*
X8848753Y-15770936D01*
X8848753Y-15770936D02*
X8839230Y-15751888D01*
X8839230Y-15751888D02*
X8829706Y-15713793D01*
X8829706Y-15713793D02*
X8829706Y-15666174D01*
X8829706Y-15666174D02*
X8839230Y-15628079D01*
X8839230Y-15628079D02*
X8848753Y-15609031D01*
X8848753Y-15609031D02*
X8858277Y-15599508D01*
X8858277Y-15599508D02*
X8877325Y-15589984D01*
X9182087Y-15789984D02*
X9182087Y-15589984D01*
X9267801Y-15789984D02*
X9267801Y-15685222D01*
X9267801Y-15685222D02*
X9258277Y-15666174D01*
X9258277Y-15666174D02*
X9239230Y-15656650D01*
X9239230Y-15656650D02*
X9210658Y-15656650D01*
X9210658Y-15656650D02*
X9191611Y-15666174D01*
X9191611Y-15666174D02*
X9182087Y-15675698D01*
X9391611Y-15789984D02*
X9372563Y-15780460D01*
X9372563Y-15780460D02*
X9363039Y-15770936D01*
X9363039Y-15770936D02*
X9353515Y-15751888D01*
X9353515Y-15751888D02*
X9353515Y-15694746D01*
X9353515Y-15694746D02*
X9363039Y-15675698D01*
X9363039Y-15675698D02*
X9372563Y-15666174D01*
X9372563Y-15666174D02*
X9391611Y-15656650D01*
X9391611Y-15656650D02*
X9420182Y-15656650D01*
X9420182Y-15656650D02*
X9439230Y-15666174D01*
X9439230Y-15666174D02*
X9448753Y-15675698D01*
X9448753Y-15675698D02*
X9458277Y-15694746D01*
X9458277Y-15694746D02*
X9458277Y-15751888D01*
X9458277Y-15751888D02*
X9448753Y-15770936D01*
X9448753Y-15770936D02*
X9439230Y-15780460D01*
X9439230Y-15780460D02*
X9420182Y-15789984D01*
X9420182Y-15789984D02*
X9391611Y-15789984D01*
X9572563Y-15789984D02*
X9553515Y-15780460D01*
X9553515Y-15780460D02*
X9543992Y-15761412D01*
X9543992Y-15761412D02*
X9543992Y-15589984D01*
X9724944Y-15780460D02*
X9705896Y-15789984D01*
X9705896Y-15789984D02*
X9667801Y-15789984D01*
X9667801Y-15789984D02*
X9648753Y-15780460D01*
X9648753Y-15780460D02*
X9639230Y-15761412D01*
X9639230Y-15761412D02*
X9639230Y-15685222D01*
X9639230Y-15685222D02*
X9648753Y-15666174D01*
X9648753Y-15666174D02*
X9667801Y-15656650D01*
X9667801Y-15656650D02*
X9705896Y-15656650D01*
X9705896Y-15656650D02*
X9724944Y-15666174D01*
X9724944Y-15666174D02*
X9734468Y-15685222D01*
X9734468Y-15685222D02*
X9734468Y-15704269D01*
X9734468Y-15704269D02*
X9639230Y-15723317D01*
X9810658Y-15780460D02*
X9829706Y-15789984D01*
X9829706Y-15789984D02*
X9867801Y-15789984D01*
X9867801Y-15789984D02*
X9886849Y-15780460D01*
X9886849Y-15780460D02*
X9896373Y-15761412D01*
X9896373Y-15761412D02*
X9896373Y-15751888D01*
X9896373Y-15751888D02*
X9886849Y-15732841D01*
X9886849Y-15732841D02*
X9867801Y-15723317D01*
X9867801Y-15723317D02*
X9839230Y-15723317D01*
X9839230Y-15723317D02*
X9820182Y-15713793D01*
X9820182Y-15713793D02*
X9810658Y-15694746D01*
X9810658Y-15694746D02*
X9810658Y-15685222D01*
X9810658Y-15685222D02*
X9820182Y-15666174D01*
X9820182Y-15666174D02*
X9839230Y-15656650D01*
X9839230Y-15656650D02*
X9867801Y-15656650D01*
X9867801Y-15656650D02*
X9886849Y-15666174D01*
X9963039Y-15866174D02*
X9972563Y-15856650D01*
X9972563Y-15856650D02*
X9991611Y-15828079D01*
X9991611Y-15828079D02*
X10001134Y-15809031D01*
X10001134Y-15809031D02*
X10010658Y-15780460D01*
X10010658Y-15780460D02*
X10020182Y-15732841D01*
X10020182Y-15732841D02*
X10020182Y-15694746D01*
X10020182Y-15694746D02*
X10010658Y-15647127D01*
X10010658Y-15647127D02*
X10001134Y-15618555D01*
X10001134Y-15618555D02*
X9991611Y-15599508D01*
X9991611Y-15599508D02*
X9972563Y-15570936D01*
X9972563Y-15570936D02*
X9963039Y-15561412D01*
X4797500Y-15862500D02*
X4997500Y-16062500D01*
X4997500Y-15862500D02*
X4797500Y-16062500D01*
X4997500Y-15962500D02*
G75*
G02*
X4797500Y-15962500I-100000J0D01*
G01*
X4797500Y-15962500D02*
G75*
G02*
X4997500Y-15962500I100000J0D01*
G01*
X5248753Y-15873031D02*
X5258277Y-15863508D01*
X5258277Y-15863508D02*
X5277324Y-15853984D01*
X5277324Y-15853984D02*
X5324944Y-15853984D01*
X5324944Y-15853984D02*
X5343991Y-15863508D01*
X5343991Y-15863508D02*
X5353515Y-15873031D01*
X5353515Y-15873031D02*
X5363039Y-15892079D01*
X5363039Y-15892079D02*
X5363039Y-15911127D01*
X5363039Y-15911127D02*
X5353515Y-15939698D01*
X5353515Y-15939698D02*
X5239229Y-16053984D01*
X5239229Y-16053984D02*
X5363039Y-16053984D01*
X5448753Y-16034936D02*
X5458277Y-16044460D01*
X5458277Y-16044460D02*
X5448753Y-16053984D01*
X5448753Y-16053984D02*
X5439229Y-16044460D01*
X5439229Y-16044460D02*
X5448753Y-16034936D01*
X5448753Y-16034936D02*
X5448753Y-16053984D01*
X5582086Y-15853984D02*
X5601134Y-15853984D01*
X5601134Y-15853984D02*
X5620182Y-15863508D01*
X5620182Y-15863508D02*
X5629705Y-15873031D01*
X5629705Y-15873031D02*
X5639229Y-15892079D01*
X5639229Y-15892079D02*
X5648753Y-15930174D01*
X5648753Y-15930174D02*
X5648753Y-15977793D01*
X5648753Y-15977793D02*
X5639229Y-16015888D01*
X5639229Y-16015888D02*
X5629705Y-16034936D01*
X5629705Y-16034936D02*
X5620182Y-16044460D01*
X5620182Y-16044460D02*
X5601134Y-16053984D01*
X5601134Y-16053984D02*
X5582086Y-16053984D01*
X5582086Y-16053984D02*
X5563039Y-16044460D01*
X5563039Y-16044460D02*
X5553515Y-16034936D01*
X5553515Y-16034936D02*
X5543991Y-16015888D01*
X5543991Y-16015888D02*
X5534467Y-15977793D01*
X5534467Y-15977793D02*
X5534467Y-15930174D01*
X5534467Y-15930174D02*
X5543991Y-15892079D01*
X5543991Y-15892079D02*
X5553515Y-15873031D01*
X5553515Y-15873031D02*
X5563039Y-15863508D01*
X5563039Y-15863508D02*
X5582086Y-15853984D01*
X5839229Y-16053984D02*
X5724943Y-16053984D01*
X5782086Y-16053984D02*
X5782086Y-15853984D01*
X5782086Y-15853984D02*
X5763039Y-15882555D01*
X5763039Y-15882555D02*
X5743991Y-15901603D01*
X5743991Y-15901603D02*
X5724943Y-15911127D01*
X5963039Y-15853984D02*
X5982086Y-15853984D01*
X5982086Y-15853984D02*
X6001134Y-15863508D01*
X6001134Y-15863508D02*
X6010658Y-15873031D01*
X6010658Y-15873031D02*
X6020182Y-15892079D01*
X6020182Y-15892079D02*
X6029705Y-15930174D01*
X6029705Y-15930174D02*
X6029705Y-15977793D01*
X6029705Y-15977793D02*
X6020182Y-16015888D01*
X6020182Y-16015888D02*
X6010658Y-16034936D01*
X6010658Y-16034936D02*
X6001134Y-16044460D01*
X6001134Y-16044460D02*
X5982086Y-16053984D01*
X5982086Y-16053984D02*
X5963039Y-16053984D01*
X5963039Y-16053984D02*
X5943991Y-16044460D01*
X5943991Y-16044460D02*
X5934467Y-16034936D01*
X5934467Y-16034936D02*
X5924943Y-16015888D01*
X5924943Y-16015888D02*
X5915420Y-15977793D01*
X5915420Y-15977793D02*
X5915420Y-15930174D01*
X5915420Y-15930174D02*
X5924943Y-15892079D01*
X5924943Y-15892079D02*
X5934467Y-15873031D01*
X5934467Y-15873031D02*
X5943991Y-15863508D01*
X5943991Y-15863508D02*
X5963039Y-15853984D01*
X6115420Y-16053984D02*
X6115420Y-15920650D01*
X6115420Y-15939698D02*
X6124943Y-15930174D01*
X6124943Y-15930174D02*
X6143991Y-15920650D01*
X6143991Y-15920650D02*
X6172563Y-15920650D01*
X6172563Y-15920650D02*
X6191610Y-15930174D01*
X6191610Y-15930174D02*
X6201134Y-15949222D01*
X6201134Y-15949222D02*
X6201134Y-16053984D01*
X6201134Y-15949222D02*
X6210658Y-15930174D01*
X6210658Y-15930174D02*
X6229705Y-15920650D01*
X6229705Y-15920650D02*
X6258277Y-15920650D01*
X6258277Y-15920650D02*
X6277324Y-15930174D01*
X6277324Y-15930174D02*
X6286848Y-15949222D01*
X6286848Y-15949222D02*
X6286848Y-16053984D01*
X6382086Y-16053984D02*
X6382086Y-15920650D01*
X6382086Y-15939698D02*
X6391610Y-15930174D01*
X6391610Y-15930174D02*
X6410658Y-15920650D01*
X6410658Y-15920650D02*
X6439229Y-15920650D01*
X6439229Y-15920650D02*
X6458277Y-15930174D01*
X6458277Y-15930174D02*
X6467801Y-15949222D01*
X6467801Y-15949222D02*
X6467801Y-16053984D01*
X6467801Y-15949222D02*
X6477324Y-15930174D01*
X6477324Y-15930174D02*
X6496372Y-15920650D01*
X6496372Y-15920650D02*
X6524943Y-15920650D01*
X6524943Y-15920650D02*
X6543991Y-15930174D01*
X6543991Y-15930174D02*
X6553515Y-15949222D01*
X6553515Y-15949222D02*
X6553515Y-16053984D01*
X6943991Y-15844460D02*
X6772563Y-16101603D01*
X7201134Y-15853984D02*
X7220182Y-15853984D01*
X7220182Y-15853984D02*
X7239229Y-15863508D01*
X7239229Y-15863508D02*
X7248753Y-15873031D01*
X7248753Y-15873031D02*
X7258277Y-15892079D01*
X7258277Y-15892079D02*
X7267801Y-15930174D01*
X7267801Y-15930174D02*
X7267801Y-15977793D01*
X7267801Y-15977793D02*
X7258277Y-16015888D01*
X7258277Y-16015888D02*
X7248753Y-16034936D01*
X7248753Y-16034936D02*
X7239229Y-16044460D01*
X7239229Y-16044460D02*
X7220182Y-16053984D01*
X7220182Y-16053984D02*
X7201134Y-16053984D01*
X7201134Y-16053984D02*
X7182086Y-16044460D01*
X7182086Y-16044460D02*
X7172563Y-16034936D01*
X7172563Y-16034936D02*
X7163039Y-16015888D01*
X7163039Y-16015888D02*
X7153515Y-15977793D01*
X7153515Y-15977793D02*
X7153515Y-15930174D01*
X7153515Y-15930174D02*
X7163039Y-15892079D01*
X7163039Y-15892079D02*
X7172563Y-15873031D01*
X7172563Y-15873031D02*
X7182086Y-15863508D01*
X7182086Y-15863508D02*
X7201134Y-15853984D01*
X7353515Y-16034936D02*
X7363039Y-16044460D01*
X7363039Y-16044460D02*
X7353515Y-16053984D01*
X7353515Y-16053984D02*
X7343991Y-16044460D01*
X7343991Y-16044460D02*
X7353515Y-16034936D01*
X7353515Y-16034936D02*
X7353515Y-16053984D01*
X7486848Y-15853984D02*
X7505896Y-15853984D01*
X7505896Y-15853984D02*
X7524944Y-15863508D01*
X7524944Y-15863508D02*
X7534467Y-15873031D01*
X7534467Y-15873031D02*
X7543991Y-15892079D01*
X7543991Y-15892079D02*
X7553515Y-15930174D01*
X7553515Y-15930174D02*
X7553515Y-15977793D01*
X7553515Y-15977793D02*
X7543991Y-16015888D01*
X7543991Y-16015888D02*
X7534467Y-16034936D01*
X7534467Y-16034936D02*
X7524944Y-16044460D01*
X7524944Y-16044460D02*
X7505896Y-16053984D01*
X7505896Y-16053984D02*
X7486848Y-16053984D01*
X7486848Y-16053984D02*
X7467801Y-16044460D01*
X7467801Y-16044460D02*
X7458277Y-16034936D01*
X7458277Y-16034936D02*
X7448753Y-16015888D01*
X7448753Y-16015888D02*
X7439229Y-15977793D01*
X7439229Y-15977793D02*
X7439229Y-15930174D01*
X7439229Y-15930174D02*
X7448753Y-15892079D01*
X7448753Y-15892079D02*
X7458277Y-15873031D01*
X7458277Y-15873031D02*
X7467801Y-15863508D01*
X7467801Y-15863508D02*
X7486848Y-15853984D01*
X7620182Y-15853984D02*
X7753515Y-15853984D01*
X7753515Y-15853984D02*
X7667801Y-16053984D01*
X7839229Y-16053984D02*
X7877325Y-16053984D01*
X7877325Y-16053984D02*
X7896372Y-16044460D01*
X7896372Y-16044460D02*
X7905896Y-16034936D01*
X7905896Y-16034936D02*
X7924944Y-16006365D01*
X7924944Y-16006365D02*
X7934467Y-15968269D01*
X7934467Y-15968269D02*
X7934467Y-15892079D01*
X7934467Y-15892079D02*
X7924944Y-15873031D01*
X7924944Y-15873031D02*
X7915420Y-15863508D01*
X7915420Y-15863508D02*
X7896372Y-15853984D01*
X7896372Y-15853984D02*
X7858277Y-15853984D01*
X7858277Y-15853984D02*
X7839229Y-15863508D01*
X7839229Y-15863508D02*
X7829706Y-15873031D01*
X7829706Y-15873031D02*
X7820182Y-15892079D01*
X7820182Y-15892079D02*
X7820182Y-15939698D01*
X7820182Y-15939698D02*
X7829706Y-15958746D01*
X7829706Y-15958746D02*
X7839229Y-15968269D01*
X7839229Y-15968269D02*
X7858277Y-15977793D01*
X7858277Y-15977793D02*
X7896372Y-15977793D01*
X7896372Y-15977793D02*
X7915420Y-15968269D01*
X7915420Y-15968269D02*
X7924944Y-15958746D01*
X7924944Y-15958746D02*
X7934467Y-15939698D01*
X8124944Y-16053984D02*
X8010658Y-16053984D01*
X8067801Y-16053984D02*
X8067801Y-15853984D01*
X8067801Y-15853984D02*
X8048753Y-15882555D01*
X8048753Y-15882555D02*
X8029706Y-15901603D01*
X8029706Y-15901603D02*
X8010658Y-15911127D01*
X8201134Y-15853984D02*
X8201134Y-15892079D01*
X8277325Y-15853984D02*
X8277325Y-15892079D01*
X8572563Y-16130174D02*
X8563039Y-16120650D01*
X8563039Y-16120650D02*
X8543991Y-16092079D01*
X8543991Y-16092079D02*
X8534468Y-16073031D01*
X8534468Y-16073031D02*
X8524944Y-16044460D01*
X8524944Y-16044460D02*
X8515420Y-15996841D01*
X8515420Y-15996841D02*
X8515420Y-15958746D01*
X8515420Y-15958746D02*
X8524944Y-15911127D01*
X8524944Y-15911127D02*
X8534468Y-15882555D01*
X8534468Y-15882555D02*
X8543991Y-15863508D01*
X8543991Y-15863508D02*
X8563039Y-15834936D01*
X8563039Y-15834936D02*
X8572563Y-15825412D01*
X8734468Y-15920650D02*
X8734468Y-16053984D01*
X8686849Y-15844460D02*
X8639230Y-15987317D01*
X8639230Y-15987317D02*
X8763039Y-15987317D01*
X8991611Y-16053984D02*
X8991611Y-15853984D01*
X9077325Y-16053984D02*
X9077325Y-15949222D01*
X9077325Y-15949222D02*
X9067801Y-15930174D01*
X9067801Y-15930174D02*
X9048753Y-15920650D01*
X9048753Y-15920650D02*
X9020182Y-15920650D01*
X9020182Y-15920650D02*
X9001134Y-15930174D01*
X9001134Y-15930174D02*
X8991611Y-15939698D01*
X9201134Y-16053984D02*
X9182087Y-16044460D01*
X9182087Y-16044460D02*
X9172563Y-16034936D01*
X9172563Y-16034936D02*
X9163039Y-16015888D01*
X9163039Y-16015888D02*
X9163039Y-15958746D01*
X9163039Y-15958746D02*
X9172563Y-15939698D01*
X9172563Y-15939698D02*
X9182087Y-15930174D01*
X9182087Y-15930174D02*
X9201134Y-15920650D01*
X9201134Y-15920650D02*
X9229706Y-15920650D01*
X9229706Y-15920650D02*
X9248753Y-15930174D01*
X9248753Y-15930174D02*
X9258277Y-15939698D01*
X9258277Y-15939698D02*
X9267801Y-15958746D01*
X9267801Y-15958746D02*
X9267801Y-16015888D01*
X9267801Y-16015888D02*
X9258277Y-16034936D01*
X9258277Y-16034936D02*
X9248753Y-16044460D01*
X9248753Y-16044460D02*
X9229706Y-16053984D01*
X9229706Y-16053984D02*
X9201134Y-16053984D01*
X9382087Y-16053984D02*
X9363039Y-16044460D01*
X9363039Y-16044460D02*
X9353515Y-16025412D01*
X9353515Y-16025412D02*
X9353515Y-15853984D01*
X9534468Y-16044460D02*
X9515420Y-16053984D01*
X9515420Y-16053984D02*
X9477325Y-16053984D01*
X9477325Y-16053984D02*
X9458277Y-16044460D01*
X9458277Y-16044460D02*
X9448753Y-16025412D01*
X9448753Y-16025412D02*
X9448753Y-15949222D01*
X9448753Y-15949222D02*
X9458277Y-15930174D01*
X9458277Y-15930174D02*
X9477325Y-15920650D01*
X9477325Y-15920650D02*
X9515420Y-15920650D01*
X9515420Y-15920650D02*
X9534468Y-15930174D01*
X9534468Y-15930174D02*
X9543992Y-15949222D01*
X9543992Y-15949222D02*
X9543992Y-15968269D01*
X9543992Y-15968269D02*
X9448753Y-15987317D01*
X9620182Y-16044460D02*
X9639230Y-16053984D01*
X9639230Y-16053984D02*
X9677325Y-16053984D01*
X9677325Y-16053984D02*
X9696373Y-16044460D01*
X9696373Y-16044460D02*
X9705896Y-16025412D01*
X9705896Y-16025412D02*
X9705896Y-16015888D01*
X9705896Y-16015888D02*
X9696373Y-15996841D01*
X9696373Y-15996841D02*
X9677325Y-15987317D01*
X9677325Y-15987317D02*
X9648753Y-15987317D01*
X9648753Y-15987317D02*
X9629706Y-15977793D01*
X9629706Y-15977793D02*
X9620182Y-15958746D01*
X9620182Y-15958746D02*
X9620182Y-15949222D01*
X9620182Y-15949222D02*
X9629706Y-15930174D01*
X9629706Y-15930174D02*
X9648753Y-15920650D01*
X9648753Y-15920650D02*
X9677325Y-15920650D01*
X9677325Y-15920650D02*
X9696373Y-15930174D01*
X9772563Y-16130174D02*
X9782087Y-16120650D01*
X9782087Y-16120650D02*
X9801134Y-16092079D01*
X9801134Y-16092079D02*
X9810658Y-16073031D01*
X9810658Y-16073031D02*
X9820182Y-16044460D01*
X9820182Y-16044460D02*
X9829706Y-15996841D01*
X9829706Y-15996841D02*
X9829706Y-15958746D01*
X9829706Y-15958746D02*
X9820182Y-15911127D01*
X9820182Y-15911127D02*
X9810658Y-15882555D01*
X9810658Y-15882555D02*
X9801134Y-15863508D01*
X9801134Y-15863508D02*
X9782087Y-15834936D01*
X9782087Y-15834936D02*
X9772563Y-15825412D01*
X4797500Y-16182500D02*
X4997500Y-16382500D01*
X4997500Y-16182500D02*
X4797500Y-16382500D01*
X4897500Y-16182500D02*
X4897500Y-16382500D01*
X4797500Y-16282500D02*
X4997500Y-16282500D01*
X5248753Y-16193031D02*
X5258277Y-16183508D01*
X5258277Y-16183508D02*
X5277324Y-16173984D01*
X5277324Y-16173984D02*
X5324944Y-16173984D01*
X5324944Y-16173984D02*
X5343991Y-16183508D01*
X5343991Y-16183508D02*
X5353515Y-16193031D01*
X5353515Y-16193031D02*
X5363039Y-16212079D01*
X5363039Y-16212079D02*
X5363039Y-16231127D01*
X5363039Y-16231127D02*
X5353515Y-16259698D01*
X5353515Y-16259698D02*
X5239229Y-16373984D01*
X5239229Y-16373984D02*
X5363039Y-16373984D01*
X5448753Y-16354936D02*
X5458277Y-16364460D01*
X5458277Y-16364460D02*
X5448753Y-16373984D01*
X5448753Y-16373984D02*
X5439229Y-16364460D01*
X5439229Y-16364460D02*
X5448753Y-16354936D01*
X5448753Y-16354936D02*
X5448753Y-16373984D01*
X5524944Y-16173984D02*
X5648753Y-16173984D01*
X5648753Y-16173984D02*
X5582086Y-16250174D01*
X5582086Y-16250174D02*
X5610658Y-16250174D01*
X5610658Y-16250174D02*
X5629705Y-16259698D01*
X5629705Y-16259698D02*
X5639229Y-16269222D01*
X5639229Y-16269222D02*
X5648753Y-16288269D01*
X5648753Y-16288269D02*
X5648753Y-16335888D01*
X5648753Y-16335888D02*
X5639229Y-16354936D01*
X5639229Y-16354936D02*
X5629705Y-16364460D01*
X5629705Y-16364460D02*
X5610658Y-16373984D01*
X5610658Y-16373984D02*
X5553515Y-16373984D01*
X5553515Y-16373984D02*
X5534467Y-16364460D01*
X5534467Y-16364460D02*
X5524944Y-16354936D01*
X5715420Y-16173984D02*
X5839229Y-16173984D01*
X5839229Y-16173984D02*
X5772562Y-16250174D01*
X5772562Y-16250174D02*
X5801134Y-16250174D01*
X5801134Y-16250174D02*
X5820182Y-16259698D01*
X5820182Y-16259698D02*
X5829705Y-16269222D01*
X5829705Y-16269222D02*
X5839229Y-16288269D01*
X5839229Y-16288269D02*
X5839229Y-16335888D01*
X5839229Y-16335888D02*
X5829705Y-16354936D01*
X5829705Y-16354936D02*
X5820182Y-16364460D01*
X5820182Y-16364460D02*
X5801134Y-16373984D01*
X5801134Y-16373984D02*
X5743991Y-16373984D01*
X5743991Y-16373984D02*
X5724943Y-16364460D01*
X5724943Y-16364460D02*
X5715420Y-16354936D01*
X5963039Y-16173984D02*
X5982086Y-16173984D01*
X5982086Y-16173984D02*
X6001134Y-16183508D01*
X6001134Y-16183508D02*
X6010658Y-16193031D01*
X6010658Y-16193031D02*
X6020182Y-16212079D01*
X6020182Y-16212079D02*
X6029705Y-16250174D01*
X6029705Y-16250174D02*
X6029705Y-16297793D01*
X6029705Y-16297793D02*
X6020182Y-16335888D01*
X6020182Y-16335888D02*
X6010658Y-16354936D01*
X6010658Y-16354936D02*
X6001134Y-16364460D01*
X6001134Y-16364460D02*
X5982086Y-16373984D01*
X5982086Y-16373984D02*
X5963039Y-16373984D01*
X5963039Y-16373984D02*
X5943991Y-16364460D01*
X5943991Y-16364460D02*
X5934467Y-16354936D01*
X5934467Y-16354936D02*
X5924943Y-16335888D01*
X5924943Y-16335888D02*
X5915420Y-16297793D01*
X5915420Y-16297793D02*
X5915420Y-16250174D01*
X5915420Y-16250174D02*
X5924943Y-16212079D01*
X5924943Y-16212079D02*
X5934467Y-16193031D01*
X5934467Y-16193031D02*
X5943991Y-16183508D01*
X5943991Y-16183508D02*
X5963039Y-16173984D01*
X6115420Y-16373984D02*
X6115420Y-16240650D01*
X6115420Y-16259698D02*
X6124943Y-16250174D01*
X6124943Y-16250174D02*
X6143991Y-16240650D01*
X6143991Y-16240650D02*
X6172563Y-16240650D01*
X6172563Y-16240650D02*
X6191610Y-16250174D01*
X6191610Y-16250174D02*
X6201134Y-16269222D01*
X6201134Y-16269222D02*
X6201134Y-16373984D01*
X6201134Y-16269222D02*
X6210658Y-16250174D01*
X6210658Y-16250174D02*
X6229705Y-16240650D01*
X6229705Y-16240650D02*
X6258277Y-16240650D01*
X6258277Y-16240650D02*
X6277324Y-16250174D01*
X6277324Y-16250174D02*
X6286848Y-16269222D01*
X6286848Y-16269222D02*
X6286848Y-16373984D01*
X6382086Y-16373984D02*
X6382086Y-16240650D01*
X6382086Y-16259698D02*
X6391610Y-16250174D01*
X6391610Y-16250174D02*
X6410658Y-16240650D01*
X6410658Y-16240650D02*
X6439229Y-16240650D01*
X6439229Y-16240650D02*
X6458277Y-16250174D01*
X6458277Y-16250174D02*
X6467801Y-16269222D01*
X6467801Y-16269222D02*
X6467801Y-16373984D01*
X6467801Y-16269222D02*
X6477324Y-16250174D01*
X6477324Y-16250174D02*
X6496372Y-16240650D01*
X6496372Y-16240650D02*
X6524943Y-16240650D01*
X6524943Y-16240650D02*
X6543991Y-16250174D01*
X6543991Y-16250174D02*
X6553515Y-16269222D01*
X6553515Y-16269222D02*
X6553515Y-16373984D01*
X6943991Y-16164460D02*
X6772563Y-16421603D01*
X7201134Y-16173984D02*
X7220182Y-16173984D01*
X7220182Y-16173984D02*
X7239229Y-16183508D01*
X7239229Y-16183508D02*
X7248753Y-16193031D01*
X7248753Y-16193031D02*
X7258277Y-16212079D01*
X7258277Y-16212079D02*
X7267801Y-16250174D01*
X7267801Y-16250174D02*
X7267801Y-16297793D01*
X7267801Y-16297793D02*
X7258277Y-16335888D01*
X7258277Y-16335888D02*
X7248753Y-16354936D01*
X7248753Y-16354936D02*
X7239229Y-16364460D01*
X7239229Y-16364460D02*
X7220182Y-16373984D01*
X7220182Y-16373984D02*
X7201134Y-16373984D01*
X7201134Y-16373984D02*
X7182086Y-16364460D01*
X7182086Y-16364460D02*
X7172563Y-16354936D01*
X7172563Y-16354936D02*
X7163039Y-16335888D01*
X7163039Y-16335888D02*
X7153515Y-16297793D01*
X7153515Y-16297793D02*
X7153515Y-16250174D01*
X7153515Y-16250174D02*
X7163039Y-16212079D01*
X7163039Y-16212079D02*
X7172563Y-16193031D01*
X7172563Y-16193031D02*
X7182086Y-16183508D01*
X7182086Y-16183508D02*
X7201134Y-16173984D01*
X7353515Y-16354936D02*
X7363039Y-16364460D01*
X7363039Y-16364460D02*
X7353515Y-16373984D01*
X7353515Y-16373984D02*
X7343991Y-16364460D01*
X7343991Y-16364460D02*
X7353515Y-16354936D01*
X7353515Y-16354936D02*
X7353515Y-16373984D01*
X7486848Y-16173984D02*
X7505896Y-16173984D01*
X7505896Y-16173984D02*
X7524944Y-16183508D01*
X7524944Y-16183508D02*
X7534467Y-16193031D01*
X7534467Y-16193031D02*
X7543991Y-16212079D01*
X7543991Y-16212079D02*
X7553515Y-16250174D01*
X7553515Y-16250174D02*
X7553515Y-16297793D01*
X7553515Y-16297793D02*
X7543991Y-16335888D01*
X7543991Y-16335888D02*
X7534467Y-16354936D01*
X7534467Y-16354936D02*
X7524944Y-16364460D01*
X7524944Y-16364460D02*
X7505896Y-16373984D01*
X7505896Y-16373984D02*
X7486848Y-16373984D01*
X7486848Y-16373984D02*
X7467801Y-16364460D01*
X7467801Y-16364460D02*
X7458277Y-16354936D01*
X7458277Y-16354936D02*
X7448753Y-16335888D01*
X7448753Y-16335888D02*
X7439229Y-16297793D01*
X7439229Y-16297793D02*
X7439229Y-16250174D01*
X7439229Y-16250174D02*
X7448753Y-16212079D01*
X7448753Y-16212079D02*
X7458277Y-16193031D01*
X7458277Y-16193031D02*
X7467801Y-16183508D01*
X7467801Y-16183508D02*
X7486848Y-16173984D01*
X7648753Y-16373984D02*
X7686848Y-16373984D01*
X7686848Y-16373984D02*
X7705896Y-16364460D01*
X7705896Y-16364460D02*
X7715420Y-16354936D01*
X7715420Y-16354936D02*
X7734467Y-16326365D01*
X7734467Y-16326365D02*
X7743991Y-16288269D01*
X7743991Y-16288269D02*
X7743991Y-16212079D01*
X7743991Y-16212079D02*
X7734467Y-16193031D01*
X7734467Y-16193031D02*
X7724944Y-16183508D01*
X7724944Y-16183508D02*
X7705896Y-16173984D01*
X7705896Y-16173984D02*
X7667801Y-16173984D01*
X7667801Y-16173984D02*
X7648753Y-16183508D01*
X7648753Y-16183508D02*
X7639229Y-16193031D01*
X7639229Y-16193031D02*
X7629706Y-16212079D01*
X7629706Y-16212079D02*
X7629706Y-16259698D01*
X7629706Y-16259698D02*
X7639229Y-16278746D01*
X7639229Y-16278746D02*
X7648753Y-16288269D01*
X7648753Y-16288269D02*
X7667801Y-16297793D01*
X7667801Y-16297793D02*
X7705896Y-16297793D01*
X7705896Y-16297793D02*
X7724944Y-16288269D01*
X7724944Y-16288269D02*
X7734467Y-16278746D01*
X7734467Y-16278746D02*
X7743991Y-16259698D01*
X7934467Y-16373984D02*
X7820182Y-16373984D01*
X7877325Y-16373984D02*
X7877325Y-16173984D01*
X7877325Y-16173984D02*
X7858277Y-16202555D01*
X7858277Y-16202555D02*
X7839229Y-16221603D01*
X7839229Y-16221603D02*
X7820182Y-16231127D01*
X8001134Y-16173984D02*
X8134467Y-16173984D01*
X8134467Y-16173984D02*
X8048753Y-16373984D01*
X8201134Y-16173984D02*
X8201134Y-16212079D01*
X8277325Y-16173984D02*
X8277325Y-16212079D01*
X8572563Y-16450174D02*
X8563039Y-16440650D01*
X8563039Y-16440650D02*
X8543991Y-16412079D01*
X8543991Y-16412079D02*
X8534468Y-16393031D01*
X8534468Y-16393031D02*
X8524944Y-16364460D01*
X8524944Y-16364460D02*
X8515420Y-16316841D01*
X8515420Y-16316841D02*
X8515420Y-16278746D01*
X8515420Y-16278746D02*
X8524944Y-16231127D01*
X8524944Y-16231127D02*
X8534468Y-16202555D01*
X8534468Y-16202555D02*
X8543991Y-16183508D01*
X8543991Y-16183508D02*
X8563039Y-16154936D01*
X8563039Y-16154936D02*
X8572563Y-16145412D01*
X8639230Y-16193031D02*
X8648753Y-16183508D01*
X8648753Y-16183508D02*
X8667801Y-16173984D01*
X8667801Y-16173984D02*
X8715420Y-16173984D01*
X8715420Y-16173984D02*
X8734468Y-16183508D01*
X8734468Y-16183508D02*
X8743991Y-16193031D01*
X8743991Y-16193031D02*
X8753515Y-16212079D01*
X8753515Y-16212079D02*
X8753515Y-16231127D01*
X8753515Y-16231127D02*
X8743991Y-16259698D01*
X8743991Y-16259698D02*
X8629706Y-16373984D01*
X8629706Y-16373984D02*
X8753515Y-16373984D01*
X8991611Y-16373984D02*
X8991611Y-16173984D01*
X9077325Y-16373984D02*
X9077325Y-16269222D01*
X9077325Y-16269222D02*
X9067801Y-16250174D01*
X9067801Y-16250174D02*
X9048753Y-16240650D01*
X9048753Y-16240650D02*
X9020182Y-16240650D01*
X9020182Y-16240650D02*
X9001134Y-16250174D01*
X9001134Y-16250174D02*
X8991611Y-16259698D01*
X9201134Y-16373984D02*
X9182087Y-16364460D01*
X9182087Y-16364460D02*
X9172563Y-16354936D01*
X9172563Y-16354936D02*
X9163039Y-16335888D01*
X9163039Y-16335888D02*
X9163039Y-16278746D01*
X9163039Y-16278746D02*
X9172563Y-16259698D01*
X9172563Y-16259698D02*
X9182087Y-16250174D01*
X9182087Y-16250174D02*
X9201134Y-16240650D01*
X9201134Y-16240650D02*
X9229706Y-16240650D01*
X9229706Y-16240650D02*
X9248753Y-16250174D01*
X9248753Y-16250174D02*
X9258277Y-16259698D01*
X9258277Y-16259698D02*
X9267801Y-16278746D01*
X9267801Y-16278746D02*
X9267801Y-16335888D01*
X9267801Y-16335888D02*
X9258277Y-16354936D01*
X9258277Y-16354936D02*
X9248753Y-16364460D01*
X9248753Y-16364460D02*
X9229706Y-16373984D01*
X9229706Y-16373984D02*
X9201134Y-16373984D01*
X9382087Y-16373984D02*
X9363039Y-16364460D01*
X9363039Y-16364460D02*
X9353515Y-16345412D01*
X9353515Y-16345412D02*
X9353515Y-16173984D01*
X9534468Y-16364460D02*
X9515420Y-16373984D01*
X9515420Y-16373984D02*
X9477325Y-16373984D01*
X9477325Y-16373984D02*
X9458277Y-16364460D01*
X9458277Y-16364460D02*
X9448753Y-16345412D01*
X9448753Y-16345412D02*
X9448753Y-16269222D01*
X9448753Y-16269222D02*
X9458277Y-16250174D01*
X9458277Y-16250174D02*
X9477325Y-16240650D01*
X9477325Y-16240650D02*
X9515420Y-16240650D01*
X9515420Y-16240650D02*
X9534468Y-16250174D01*
X9534468Y-16250174D02*
X9543992Y-16269222D01*
X9543992Y-16269222D02*
X9543992Y-16288269D01*
X9543992Y-16288269D02*
X9448753Y-16307317D01*
X9620182Y-16364460D02*
X9639230Y-16373984D01*
X9639230Y-16373984D02*
X9677325Y-16373984D01*
X9677325Y-16373984D02*
X9696373Y-16364460D01*
X9696373Y-16364460D02*
X9705896Y-16345412D01*
X9705896Y-16345412D02*
X9705896Y-16335888D01*
X9705896Y-16335888D02*
X9696373Y-16316841D01*
X9696373Y-16316841D02*
X9677325Y-16307317D01*
X9677325Y-16307317D02*
X9648753Y-16307317D01*
X9648753Y-16307317D02*
X9629706Y-16297793D01*
X9629706Y-16297793D02*
X9620182Y-16278746D01*
X9620182Y-16278746D02*
X9620182Y-16269222D01*
X9620182Y-16269222D02*
X9629706Y-16250174D01*
X9629706Y-16250174D02*
X9648753Y-16240650D01*
X9648753Y-16240650D02*
X9677325Y-16240650D01*
X9677325Y-16240650D02*
X9696373Y-16250174D01*
X9772563Y-16450174D02*
X9782087Y-16440650D01*
X9782087Y-16440650D02*
X9801134Y-16412079D01*
X9801134Y-16412079D02*
X9810658Y-16393031D01*
X9810658Y-16393031D02*
X9820182Y-16364460D01*
X9820182Y-16364460D02*
X9829706Y-16316841D01*
X9829706Y-16316841D02*
X9829706Y-16278746D01*
X9829706Y-16278746D02*
X9820182Y-16231127D01*
X9820182Y-16231127D02*
X9810658Y-16202555D01*
X9810658Y-16202555D02*
X9801134Y-16183508D01*
X9801134Y-16183508D02*
X9782087Y-16154936D01*
X9782087Y-16154936D02*
X9772563Y-16145412D01*
M02*
