%TF.GenerationSoftware,KiCad,Pcbnew,10.0.4*%
%TF.CreationDate,2026-10-10T08:59:33-04:00*%
%TF.ProjectId,dual_adc_usb,6475616c-5f61-4646-935f-7573622e6b69,rev?*%
%TF.SameCoordinates,Original*%
%TF.FileFunction,Other,User*%
%FSLAX46Y46*%
G04 Gerber Fmt 4.6, Leading zero omitted, Abs format (unit mm)*
G04 Created by KiCad (PCBNEW 10.0.4) date 2026-10-10 08:59:33*
%MOMM*%
%LPD*%
G01*
G04 APERTURE LIST*
%ADD10C,0.050000*%
G04 APERTURE END LIST*
%TO.C,C613*%
D10*
X149090000Y-105040000D02*
X150910000Y-105040000D01*
X150910000Y-105960000D01*
X149090000Y-105960000D01*
X149090000Y-105040000D01*
%TO.C,C514*%
X152690000Y-57940000D02*
X154510000Y-57940000D01*
X154510000Y-58860000D01*
X152690000Y-58860000D01*
X152690000Y-57940000D01*
%TO.C,X301*%
X114900000Y-99200000D02*
X119100000Y-99200000D01*
X119100000Y-102800000D01*
X114900000Y-102800000D01*
X114900000Y-99200000D01*
%TO.C,D101*%
X81200000Y-63900000D02*
X82120000Y-63900000D01*
X81200000Y-66099999D02*
X81200000Y-63900000D01*
X82120000Y-63750000D02*
X83880000Y-63750000D01*
X82120000Y-63900000D02*
X82120000Y-63750000D01*
X82120000Y-66099999D02*
X81200000Y-66099999D01*
X82120000Y-66250000D02*
X82120000Y-66099999D01*
X83880000Y-63750000D02*
X83880000Y-63900000D01*
X83880000Y-63900000D02*
X84800000Y-63900000D01*
X83880000Y-66099999D02*
X83880000Y-66250000D01*
X83880000Y-66250000D02*
X82120000Y-66250000D01*
X84800000Y-63900000D02*
X84800000Y-66099999D01*
X84800000Y-66099999D02*
X83880000Y-66099999D01*
%TO.C,C203*%
X75250000Y-117750000D02*
X82750000Y-117750000D01*
X82750000Y-122250000D01*
X75250000Y-122250000D01*
X75250000Y-117750000D01*
%TO.C,C316*%
X119090000Y-80540000D02*
X120910000Y-80540000D01*
X120910000Y-81460000D01*
X119090000Y-81460000D01*
X119090000Y-80540000D01*
%TO.C,C620*%
X178090000Y-93540000D02*
X179910000Y-93540000D01*
X179910000Y-94460000D01*
X178090000Y-94460000D01*
X178090000Y-93540000D01*
%TO.C,C624*%
X138220000Y-107300000D02*
X140180000Y-107300000D01*
X140180000Y-110700000D01*
X138220000Y-110700000D01*
X138220000Y-107300000D01*
%TO.C,C503*%
X144240000Y-55090000D02*
X145160000Y-55090000D01*
X145160000Y-56910000D01*
X144240000Y-56910000D01*
X144240000Y-55090000D01*
%TO.C,C623*%
X149090000Y-116540000D02*
X150910000Y-116540000D01*
X150910000Y-117460000D01*
X149090000Y-117460000D01*
X149090000Y-116540000D01*
%TO.C,C202*%
X78270000Y-113520000D02*
X79730000Y-113520000D01*
X79730000Y-116480000D01*
X78270000Y-116480000D01*
X78270000Y-113520000D01*
%TO.C,R106*%
X102520000Y-65270000D02*
X105480000Y-65270000D01*
X105480000Y-66730000D01*
X102520000Y-66730000D01*
X102520000Y-65270000D01*
%TO.C,C608*%
X151090000Y-107540000D02*
X152910000Y-107540000D01*
X152910000Y-108460000D01*
X151090000Y-108460000D01*
X151090000Y-107540000D01*
%TO.C,R105*%
X95520000Y-70770000D02*
X98480000Y-70770000D01*
X98480000Y-72230000D01*
X95520000Y-72230000D01*
X95520000Y-70770000D01*
%TO.C,C206*%
X111770000Y-110520000D02*
X113230000Y-110520000D01*
X113230000Y-113480000D01*
X111770000Y-113480000D01*
X111770000Y-110520000D01*
%TO.C,C501*%
X114270000Y-58020000D02*
X115730000Y-58020000D01*
X115730000Y-60980000D01*
X114270000Y-60980000D01*
X114270000Y-58020000D01*
%TO.C,C622*%
X178020000Y-97800000D02*
X179980000Y-97800000D01*
X179980000Y-101200000D01*
X178020000Y-101200000D01*
X178020000Y-97800000D01*
%TO.C,R601*%
X157570000Y-99530000D02*
X159429999Y-99530000D01*
X159429999Y-100470000D01*
X157570000Y-100470000D01*
X157570000Y-99530000D01*
%TO.C,C611*%
X153090000Y-76040000D02*
X154910000Y-76040000D01*
X154910000Y-76960000D01*
X153090000Y-76960000D01*
X153090000Y-76040000D01*
%TO.C,C411*%
X101020000Y-83770000D02*
X103980000Y-83770000D01*
X103980000Y-85230000D01*
X101020000Y-85230000D01*
X101020000Y-83770000D01*
%TO.C,R409*%
X163530000Y-133070001D02*
X164470000Y-133070001D01*
X164470000Y-134930000D01*
X163530000Y-134930000D01*
X163530000Y-133070001D01*
%TO.C,R207*%
X102520000Y-115269999D02*
X105480000Y-115269999D01*
X105480000Y-116730000D01*
X102520000Y-116730000D01*
X102520000Y-115269999D01*
%TO.C,C626*%
X138020000Y-73900000D02*
X139980000Y-73900000D01*
X139980000Y-77300000D01*
X138020000Y-77300000D01*
X138020000Y-73900000D01*
%TO.C,C408*%
X92770000Y-86520000D02*
X94230000Y-86520000D01*
X94230000Y-89480000D01*
X92770000Y-89480000D01*
X92770000Y-86520000D01*
%TO.C,C506*%
X162090000Y-63040000D02*
X163910000Y-63040000D01*
X163910000Y-63960000D01*
X162090000Y-63960000D01*
X162090000Y-63040000D01*
%TO.C,C401*%
X161020000Y-120300000D02*
X162980000Y-120300000D01*
X162980000Y-123700000D01*
X161020000Y-123700000D01*
X161020000Y-120300000D01*
%TO.C,C105*%
X102520000Y-75270000D02*
X105480000Y-75270000D01*
X105480000Y-76730000D01*
X102520000Y-76730000D01*
X102520000Y-75270000D01*
%TO.C,C615*%
X178090000Y-83540000D02*
X179910000Y-83540000D01*
X179910000Y-84460000D01*
X178090000Y-84460000D01*
X178090000Y-83540000D01*
%TO.C,U404*%
X83550000Y-90250000D02*
X86450000Y-90250000D01*
X83550000Y-93750000D02*
X83550000Y-90250000D01*
X86450000Y-90250000D02*
X86450000Y-93750000D01*
X86450000Y-93750000D02*
X83550000Y-93750000D01*
%TO.C,C311*%
X111090000Y-80540000D02*
X112910000Y-80540000D01*
X112910000Y-81460000D01*
X111090000Y-81460000D01*
X111090000Y-80540000D01*
%TO.C,C317*%
X121090000Y-80540000D02*
X122910000Y-80540000D01*
X122910000Y-81460000D01*
X121090000Y-81460000D01*
X121090000Y-80540000D01*
%TO.C,C617*%
X178090000Y-87540000D02*
X179910000Y-87540000D01*
X179910000Y-88460000D01*
X178090000Y-88460000D01*
X178090000Y-87540000D01*
%TO.C,C102*%
X78270000Y-71520000D02*
X79730001Y-71520000D01*
X79730001Y-74480000D01*
X78270000Y-74480000D01*
X78270000Y-71520000D01*
%TO.C,C308*%
X107390000Y-96840000D02*
X109210000Y-96840000D01*
X109210000Y-97760000D01*
X107390000Y-97760000D01*
X107390000Y-96840000D01*
%TO.C,C207*%
X87590000Y-107040000D02*
X89410000Y-107040000D01*
X89410000Y-107960000D01*
X87590000Y-107960000D01*
X87590000Y-107040000D01*
%TO.C,C310*%
X107390000Y-98640000D02*
X109210000Y-98640000D01*
X109210000Y-99560000D01*
X107390000Y-99560000D01*
X107390000Y-98640000D01*
%TO.C,C201*%
X70520000Y-105270000D02*
X73480000Y-105270000D01*
X73480000Y-106730000D01*
X70520000Y-106730000D01*
X70520000Y-105270000D01*
%TO.C,C504*%
X156590000Y-58740000D02*
X158410000Y-58740000D01*
X158410000Y-59660000D01*
X156590000Y-59660000D01*
X156590000Y-58740000D01*
%TO.C,C306*%
X107390000Y-93240000D02*
X109210000Y-93240000D01*
X109210000Y-94160000D01*
X107390000Y-94160000D01*
X107390000Y-93240000D01*
%TO.C,C301*%
X106820000Y-85770000D02*
X109780000Y-85770000D01*
X109780000Y-87230000D01*
X106820000Y-87230000D01*
X106820000Y-85770000D01*
%TO.C,D201*%
X81200000Y-105900000D02*
X82120000Y-105900000D01*
X81200000Y-108100000D02*
X81200000Y-105900000D01*
X82120000Y-105750000D02*
X83880000Y-105750000D01*
X82120000Y-105900000D02*
X82120000Y-105750000D01*
X82120000Y-108100000D02*
X81200000Y-108100000D01*
X82120000Y-108250000D02*
X82120000Y-108100000D01*
X83880000Y-105750000D02*
X83880000Y-105900000D01*
X83880000Y-105900000D02*
X84800000Y-105900000D01*
X83880000Y-108100000D02*
X83880000Y-108250000D01*
X83880000Y-108250000D02*
X82120000Y-108250000D01*
X84800000Y-105900000D02*
X84800000Y-108100000D01*
X84800000Y-108100000D02*
X83880000Y-108100000D01*
%TO.C,R107*%
X102520000Y-73270000D02*
X105480000Y-73270000D01*
X105480000Y-74730000D01*
X102520000Y-74730000D01*
X102520000Y-73270000D01*
%TO.C,R406*%
X88570000Y-88830000D02*
X90429999Y-88830000D01*
X90429999Y-89770000D01*
X88570000Y-89770000D01*
X88570000Y-88830000D01*
%TO.C,R602*%
X156530000Y-109070001D02*
X157470000Y-109070001D01*
X157470000Y-110930000D01*
X156530000Y-110930000D01*
X156530000Y-109070001D01*
%TO.C,FB501*%
X120250000Y-70150000D02*
X123750000Y-70150000D01*
X123750000Y-71850000D01*
X120250000Y-71850000D01*
X120250000Y-70150000D01*
%TO.C,C403*%
X161770000Y-127520000D02*
X163230000Y-127520000D01*
X163230000Y-130480000D01*
X161770000Y-130480000D01*
X161770000Y-127520000D01*
%TO.C,C507*%
X162090000Y-65040000D02*
X163910000Y-65040000D01*
X163910000Y-65960000D01*
X162090000Y-65960000D01*
X162090000Y-65040000D01*
%TO.C,R605*%
X141070000Y-108030000D02*
X142929999Y-108030000D01*
X142929999Y-108970000D01*
X141070000Y-108970000D01*
X141070000Y-108030000D01*
%TO.C,C407*%
X83520000Y-96770000D02*
X86480000Y-96770000D01*
X86480000Y-98230000D01*
X83520000Y-98230000D01*
X83520000Y-96770000D01*
%TO.C,C205*%
X102520000Y-117270000D02*
X105480000Y-117270000D01*
X105480000Y-118730000D01*
X102520000Y-118730000D01*
X102520000Y-117270000D01*
%TO.C,C209*%
X86590000Y-118040000D02*
X88410000Y-118040000D01*
X88410000Y-118960000D01*
X86590000Y-118960000D01*
X86590000Y-118040000D01*
%TO.C,U402*%
X164950000Y-127500000D02*
X165950000Y-127500000D01*
X164950000Y-130500000D02*
X164950000Y-127500000D01*
X165950000Y-127300000D02*
X168050000Y-127300000D01*
X165950000Y-127500000D02*
X165950000Y-127300000D01*
X165950000Y-130500000D02*
X164950000Y-130500000D01*
X165950000Y-130700000D02*
X165950000Y-130500000D01*
X168050000Y-127300000D02*
X168050000Y-127500000D01*
X168050000Y-127500000D02*
X169050000Y-127500000D01*
X168050000Y-128610000D02*
X168050000Y-129390000D01*
X168050000Y-129390000D02*
X169050000Y-129390000D01*
X168050000Y-130500000D02*
X168050000Y-130700000D01*
X168050000Y-130700000D02*
X165950000Y-130700000D01*
X169050000Y-127500000D02*
X169050000Y-128610000D01*
X169050000Y-128610000D02*
X168050000Y-128610000D01*
X169050000Y-129390000D02*
X169050000Y-130500000D01*
X169050000Y-130500000D02*
X168050000Y-130500000D01*
%TO.C,C307*%
X106820000Y-94770000D02*
X109780000Y-94770000D01*
X109780000Y-96230000D01*
X106820000Y-96230000D01*
X106820000Y-94770000D01*
%TO.C,H4*%
X189450000Y-136000000D02*
G75*
G02*
X182550000Y-136000000I-3450000J0D01*
G01*
X182550000Y-136000000D02*
G75*
G02*
X189450000Y-136000000I3450000J0D01*
G01*
%TO.C,R104*%
X95520000Y-67770000D02*
X98480000Y-67770000D01*
X98480000Y-69230000D01*
X95520000Y-69230000D01*
X95520000Y-67770000D01*
%TO.C,R405*%
X88570000Y-87030000D02*
X90429999Y-87030000D01*
X90429999Y-87970000D01*
X88570000Y-87970000D01*
X88570000Y-87030000D01*
%TO.C,C318*%
X120540000Y-99590000D02*
X121460000Y-99590000D01*
X121460000Y-101410000D01*
X120540000Y-101410000D01*
X120540000Y-99590000D01*
%TO.C,R401*%
X175070000Y-126030000D02*
X176929999Y-126030000D01*
X176929999Y-126970000D01*
X175070000Y-126970000D01*
X175070000Y-126030000D01*
%TO.C,H1*%
X57450000Y-54000000D02*
G75*
G02*
X50550000Y-54000000I-3450000J0D01*
G01*
X50550000Y-54000000D02*
G75*
G02*
X57450000Y-54000000I3450000J0D01*
G01*
%TO.C,C614*%
X154590000Y-81040000D02*
X156410000Y-81040000D01*
X156410000Y-81960000D01*
X154590000Y-81960000D01*
X154590000Y-81040000D01*
%TO.C,C604*%
X127090000Y-78040000D02*
X128910000Y-78040000D01*
X128910000Y-78960000D01*
X127090000Y-78960000D01*
X127090000Y-78040000D01*
%TO.C,U201*%
X86299999Y-109540000D02*
X87799999Y-109540000D01*
X86299999Y-114460000D02*
X86299999Y-109540000D01*
X87799999Y-109300000D02*
X92199999Y-109300000D01*
X87799999Y-109540000D02*
X87799999Y-109300000D01*
X87799999Y-114460000D02*
X86299999Y-114460000D01*
X87799999Y-114700000D02*
X87799999Y-114460000D01*
X92199999Y-109300000D02*
X92199999Y-109540000D01*
X92199999Y-109540000D02*
X93699999Y-109540000D01*
X92199999Y-114460000D02*
X92199999Y-114700000D01*
X92199999Y-114700000D02*
X87799999Y-114700000D01*
X93699999Y-109540000D02*
X93699999Y-114460000D01*
X93699999Y-114460000D02*
X92199999Y-114460000D01*
%TO.C,C302*%
X103320000Y-98370000D02*
X106280000Y-98370000D01*
X106280000Y-99830000D01*
X103320000Y-99830000D01*
X103320000Y-98370000D01*
%TO.C,R606*%
X141070000Y-75030000D02*
X142929999Y-75030000D01*
X142929999Y-75970000D01*
X141070000Y-75970000D01*
X141070000Y-75030000D01*
%TO.C,C315*%
X123100000Y-80020000D02*
X126500000Y-80020000D01*
X126500000Y-81980000D01*
X123100000Y-81980000D01*
X123100000Y-80020000D01*
%TO.C,U403*%
X97950000Y-86500000D02*
X98950000Y-86500000D01*
X97950000Y-89500000D02*
X97950000Y-86500000D01*
X98950000Y-86300000D02*
X101050000Y-86300000D01*
X98950000Y-86500000D02*
X98950000Y-86300000D01*
X98950000Y-89500000D02*
X97950000Y-89500000D01*
X98950000Y-89700000D02*
X98950000Y-89500000D01*
X101050000Y-86300000D02*
X101050000Y-86500000D01*
X101050000Y-86500000D02*
X102050000Y-86500000D01*
X101050000Y-87610000D02*
X101050000Y-88390000D01*
X101050000Y-88390000D02*
X102050000Y-88390000D01*
X101050000Y-89500000D02*
X101050000Y-89700000D01*
X101050000Y-89700000D02*
X98950000Y-89700000D01*
X102050000Y-86500000D02*
X102050000Y-87610000D01*
X102050000Y-87610000D02*
X101050000Y-87610000D01*
X102050000Y-88390000D02*
X102050000Y-89500000D01*
X102050000Y-89500000D02*
X101050000Y-89500000D01*
%TO.C,U602*%
X162240000Y-81640000D02*
X162240000Y-104360000D01*
X162240000Y-81640000D02*
X175760000Y-81640000D01*
X175760000Y-81640000D02*
X175760000Y-104360000D01*
X175760000Y-104360000D02*
X162240000Y-104360000D01*
%TO.C,C112*%
X98520000Y-75770000D02*
X101480000Y-75770000D01*
X101480000Y-77230000D01*
X98520000Y-77230000D01*
X98520000Y-75770000D01*
%TO.C,R402*%
X175070000Y-127830000D02*
X176929999Y-127830000D01*
X176929999Y-128770000D01*
X175070000Y-128770000D01*
X175070000Y-127830000D01*
%TO.C,C618*%
X178090000Y-89540000D02*
X179910000Y-89540000D01*
X179910000Y-90460000D01*
X178090000Y-90460000D01*
X178090000Y-89540000D01*
%TO.C,R411*%
X175070000Y-130530000D02*
X176929999Y-130530000D01*
X176929999Y-131470000D01*
X175070000Y-131470000D01*
X175070000Y-130530000D01*
%TO.C,C309*%
X109390000Y-98640000D02*
X111210000Y-98640000D01*
X111210000Y-99560000D01*
X109390000Y-99560000D01*
X109390000Y-98640000D01*
%TO.C,C208*%
X90020000Y-106770000D02*
X92980000Y-106770000D01*
X92980000Y-108230000D01*
X90020000Y-108230000D01*
X90020000Y-106770000D01*
%TO.C,U501*%
X135950000Y-64500000D02*
X136950000Y-64500000D01*
X135950000Y-67500000D02*
X135950000Y-64500000D01*
X136950000Y-64300000D02*
X139050000Y-64300000D01*
X136950000Y-64500000D02*
X136950000Y-64300000D01*
X136950000Y-67500000D02*
X135950000Y-67500000D01*
X136950000Y-67700000D02*
X136950000Y-67500000D01*
X139050000Y-64300000D02*
X139050000Y-64500000D01*
X139050000Y-64500000D02*
X140050000Y-64500000D01*
X139050000Y-67500000D02*
X139050000Y-67700000D01*
X139050000Y-67700000D02*
X136950000Y-67700000D01*
X140050000Y-64500000D02*
X140050000Y-67500000D01*
X140050000Y-67500000D02*
X139050000Y-67500000D01*
%TO.C,R504*%
X167070000Y-54530000D02*
X168929999Y-54530000D01*
X168929999Y-55470000D01*
X167070000Y-55470000D01*
X167070000Y-54530000D01*
%TO.C,C313*%
X115090000Y-80540000D02*
X116910000Y-80540000D01*
X116910000Y-81460000D01*
X115090000Y-81460000D01*
X115090000Y-80540000D01*
%TO.C,R205*%
X95520000Y-112770000D02*
X98480000Y-112770000D01*
X98480000Y-114230000D01*
X95520000Y-114230000D01*
X95520000Y-112770000D01*
%TO.C,C314*%
X117090000Y-80540000D02*
X118910000Y-80540000D01*
X118910000Y-81460000D01*
X117090000Y-81460000D01*
X117090000Y-80540000D01*
%TO.C,R203*%
X88520000Y-115770000D02*
X91480000Y-115770000D01*
X91480000Y-117230000D01*
X88520000Y-117230000D01*
X88520000Y-115770000D01*
%TO.C,D401*%
X178519999Y-130270000D02*
X181480000Y-130270000D01*
X181480000Y-131730000D01*
X178519999Y-131730000D01*
X178519999Y-130270000D01*
%TO.C,C606*%
X129090000Y-107540000D02*
X130910000Y-107540000D01*
X130910000Y-108460000D01*
X129090000Y-108460000D01*
X129090000Y-107540000D01*
%TO.C,R101*%
X69720001Y-65870000D02*
X74280000Y-65870000D01*
X74280000Y-68130000D01*
X69720001Y-68130000D01*
X69720001Y-65870000D01*
%TO.C,U401*%
X163820000Y-120570000D02*
X165250000Y-120570000D01*
X163820000Y-123430000D02*
X163820000Y-120570000D01*
X165250000Y-120250000D02*
X168750000Y-120250000D01*
X165250000Y-120570000D02*
X165250000Y-120250000D01*
X165250000Y-123430000D02*
X163820000Y-123430000D01*
X165250000Y-123750000D02*
X165250000Y-123430000D01*
X168750000Y-120250000D02*
X168750000Y-120570000D01*
X168750000Y-120570000D02*
X170180000Y-120570000D01*
X168750000Y-123430000D02*
X168750000Y-123750000D01*
X168750000Y-123750000D02*
X165250000Y-123750000D01*
X170180000Y-120570000D02*
X170180000Y-123430000D01*
X170180000Y-123430000D02*
X168750000Y-123430000D01*
%TO.C,C111*%
X99590000Y-63540000D02*
X101410000Y-63540000D01*
X101410000Y-64460000D01*
X99590000Y-64460000D01*
X99590000Y-63540000D01*
%TO.C,C110*%
X90020000Y-75770000D02*
X92980000Y-75770000D01*
X92980000Y-77230000D01*
X90020000Y-77230000D01*
X90020000Y-75770000D01*
%TO.C,C303*%
X106820000Y-87570000D02*
X109780000Y-87570000D01*
X109780000Y-89030000D01*
X106820000Y-89030000D01*
X106820000Y-87570000D01*
%TO.C,R410*%
X155530000Y-133070001D02*
X156470000Y-133070001D01*
X156470000Y-134930000D01*
X155530000Y-134930000D01*
X155530000Y-133070001D01*
%TO.C,C619*%
X178090000Y-91540000D02*
X179910000Y-91540000D01*
X179910000Y-92460000D01*
X178090000Y-92460000D01*
X178090000Y-91540000D01*
%TO.C,J601*%
X118230000Y-131680000D02*
X131930000Y-131680000D01*
X131930000Y-137770000D01*
X118230000Y-137770000D01*
X118230000Y-131680000D01*
%TO.C,C106*%
X111770000Y-68520000D02*
X113230000Y-68520000D01*
X113230000Y-71480000D01*
X111770000Y-71480000D01*
X111770000Y-68520000D01*
%TO.C,C621*%
X178090000Y-95540000D02*
X179910000Y-95540000D01*
X179910000Y-96460000D01*
X178090000Y-96460000D01*
X178090000Y-95540000D01*
%TO.C,R102*%
X76270000Y-71520000D02*
X77729999Y-71520000D01*
X77729999Y-74480000D01*
X76270000Y-74480000D01*
X76270000Y-71520000D01*
%TO.C,R501*%
X114270000Y-54520000D02*
X115730000Y-54520000D01*
X115730000Y-57480000D01*
X114270000Y-57480000D01*
X114270000Y-54520000D01*
%TO.C,R408*%
X88570000Y-96030000D02*
X90429999Y-96030000D01*
X90429999Y-96970000D01*
X88570000Y-96970000D01*
X88570000Y-96030000D01*
%TO.C,R603*%
X158530000Y-109070001D02*
X159470000Y-109070001D01*
X159470000Y-110930000D01*
X158530000Y-110930000D01*
X158530000Y-109070001D01*
%TO.C,R204*%
X95520000Y-109770000D02*
X98480000Y-109770000D01*
X98480000Y-111230000D01*
X95520000Y-111230000D01*
X95520000Y-109770000D01*
%TO.C,U503*%
X152299999Y-51940000D02*
X153799999Y-51940000D01*
X152299999Y-56860000D02*
X152299999Y-51940000D01*
X153799999Y-51700000D02*
X158199999Y-51700000D01*
X153799999Y-51940000D02*
X153799999Y-51700000D01*
X153799999Y-56860000D02*
X152299999Y-56860000D01*
X153799999Y-57100000D02*
X153799999Y-56860000D01*
X158199999Y-51700000D02*
X158199999Y-51940000D01*
X158199999Y-51940000D02*
X159699999Y-51940000D01*
X158199999Y-56860000D02*
X158199999Y-57100000D01*
X158199999Y-57100000D02*
X153799999Y-57100000D01*
X159699999Y-51940000D02*
X159699999Y-56860000D01*
X159699999Y-56860000D02*
X158199999Y-56860000D01*
%TO.C,C625*%
X143840000Y-108090000D02*
X144760000Y-108090000D01*
X144760000Y-109910000D01*
X143840000Y-109910000D01*
X143840000Y-108090000D01*
%TO.C,C605*%
X129300000Y-75520000D02*
X132700000Y-75520000D01*
X132700000Y-77480000D01*
X129300000Y-77480000D01*
X129300000Y-75520000D01*
%TO.C,Q401*%
X158070000Y-132500000D02*
X159099999Y-132500000D01*
X158070000Y-133610000D02*
X158070000Y-132500000D01*
X158070000Y-134390000D02*
X159099999Y-134390000D01*
X158070000Y-135500000D02*
X158070000Y-134390000D01*
X159099999Y-132300000D02*
X160900000Y-132300000D01*
X159099999Y-132500000D02*
X159099999Y-132300000D01*
X159099999Y-133610000D02*
X158070000Y-133610000D01*
X159099999Y-134390000D02*
X159099999Y-133610000D01*
X159099999Y-135500000D02*
X158070000Y-135500000D01*
X159099999Y-135700000D02*
X159099999Y-135500000D01*
X160900000Y-132300000D02*
X160900000Y-133450000D01*
X160900000Y-133450000D02*
X161930000Y-133450000D01*
X160900000Y-134550000D02*
X160900000Y-135700000D01*
X160900000Y-135700000D02*
X159099999Y-135700000D01*
X161930000Y-133450000D02*
X161930000Y-134550000D01*
X161930000Y-134550000D02*
X160900000Y-134550000D01*
%TO.C,C402*%
X177520000Y-120300000D02*
X179480000Y-120300000D01*
X179480000Y-123700000D01*
X177520000Y-123700000D01*
X177520000Y-120300000D01*
%TO.C,R201*%
X69720001Y-107870000D02*
X74280000Y-107870000D01*
X74280000Y-110130000D01*
X69720001Y-110130000D01*
X69720001Y-107870000D01*
%TO.C,R108*%
X108520000Y-67770000D02*
X111480000Y-67770000D01*
X111480000Y-69230000D01*
X108520000Y-69230000D01*
X108520000Y-67770000D01*
%TO.C,H2*%
X189450000Y-54000000D02*
G75*
G02*
X182550000Y-54000000I-3450000J0D01*
G01*
X182550000Y-54000000D02*
G75*
G02*
X189450000Y-54000000I3450000J0D01*
G01*
%TO.C,C502*%
X136840000Y-55090000D02*
X137760000Y-55090000D01*
X137760000Y-56910000D01*
X136840000Y-56910000D01*
X136840000Y-55090000D01*
%TO.C,R304*%
X120070000Y-103030000D02*
X121929999Y-103030000D01*
X121929999Y-103970000D01*
X120070000Y-103970000D01*
X120070000Y-103030000D01*
%TO.C,R202*%
X76270000Y-113520000D02*
X77730000Y-113520000D01*
X77730000Y-116480000D01*
X76270000Y-116480000D01*
X76270000Y-113520000D01*
%TO.C,J501*%
X117980000Y-50090001D02*
X117980000Y-67590001D01*
X117980000Y-67590001D02*
X134520000Y-67590001D01*
X134520000Y-50090001D02*
X117980000Y-50090001D01*
X134520000Y-67590001D02*
X134520000Y-50090001D01*
%TO.C,C612*%
X124300000Y-107520000D02*
X127700000Y-107520000D01*
X127700000Y-109480000D01*
X124300000Y-109480000D01*
X124300000Y-107520000D01*
%TO.C,U301*%
X110870000Y-86870000D02*
X111250000Y-86870000D01*
X110870000Y-95130000D02*
X110870000Y-86870000D01*
X111250000Y-86250000D02*
X111870000Y-86250000D01*
X111250000Y-86870000D02*
X111250000Y-86250000D01*
X111250000Y-95130000D02*
X110870000Y-95130000D01*
X111250000Y-95750000D02*
X111250000Y-95130000D01*
X111870000Y-85870000D02*
X120130000Y-85870000D01*
X111870000Y-86250000D02*
X111870000Y-85870000D01*
X111870000Y-95750000D02*
X111250000Y-95750000D01*
X111870000Y-96130000D02*
X111870000Y-95750000D01*
X120130000Y-85870000D02*
X120130000Y-86250000D01*
X120130000Y-86250000D02*
X120750000Y-86250000D01*
X120130000Y-95750000D02*
X120130000Y-96130000D01*
X120130000Y-96130000D02*
X111870000Y-96130000D01*
X120750000Y-86250000D02*
X120750000Y-86870000D01*
X120750000Y-86870000D02*
X121130000Y-86870000D01*
X120750000Y-95130000D02*
X120750000Y-95750000D01*
X120750000Y-95750000D02*
X120130000Y-95750000D01*
X121130000Y-86870000D02*
X121130000Y-95130000D01*
X121130000Y-95130000D02*
X120750000Y-95130000D01*
%TO.C,R302*%
X112070000Y-100830000D02*
X113929999Y-100830000D01*
X113929999Y-101770000D01*
X112070000Y-101770000D01*
X112070000Y-100830000D01*
%TO.C,R607*%
X135570000Y-109530000D02*
X137429999Y-109530000D01*
X137429999Y-110470000D01*
X135570000Y-110470000D01*
X135570000Y-109530000D01*
%TO.C,R608*%
X135570000Y-112030000D02*
X137429999Y-112030000D01*
X137429999Y-112970000D01*
X135570000Y-112970000D01*
X135570000Y-112030000D01*
%TO.C,U202*%
X100820000Y-110520000D02*
X102250000Y-110520000D01*
X100820000Y-113480000D02*
X100820000Y-110520000D01*
X102250000Y-110250000D02*
X105750000Y-110250000D01*
X102250000Y-110520000D02*
X102250000Y-110250000D01*
X102250000Y-113480000D02*
X100820000Y-113480000D01*
X102250000Y-113750000D02*
X102250000Y-113480000D01*
X105750000Y-110250000D02*
X105750000Y-110520000D01*
X105750000Y-110520000D02*
X107180000Y-110520000D01*
X105750000Y-113480000D02*
X105750000Y-113750000D01*
X105750000Y-113750000D02*
X102250000Y-113750000D01*
X107180000Y-110520000D02*
X107180000Y-113480000D01*
X107180000Y-113480000D02*
X105750000Y-113480000D01*
%TO.C,C515*%
X125090000Y-70540000D02*
X126910000Y-70540000D01*
X126910000Y-71460000D01*
X125090000Y-71460000D01*
X125090000Y-70540000D01*
%TO.C,R505*%
X163570000Y-52530000D02*
X165429999Y-52530000D01*
X165429999Y-53470000D01*
X163570000Y-53470000D01*
X163570000Y-52530000D01*
%TO.C,U601*%
X130350000Y-82850000D02*
X131750000Y-82850000D01*
X130350000Y-101150000D02*
X130350000Y-82850000D01*
X131750000Y-81750000D02*
X132850000Y-81750000D01*
X131750000Y-82850000D02*
X131750000Y-81750000D01*
X131750000Y-101150000D02*
X130350000Y-101150000D01*
X131750000Y-102250000D02*
X131750000Y-101150000D01*
X132850000Y-80350000D02*
X151150000Y-80350000D01*
X132850000Y-81750000D02*
X132850000Y-80350000D01*
X132850000Y-102250000D02*
X131750000Y-102250000D01*
X132850000Y-103650000D02*
X132850000Y-102250000D01*
X151150000Y-80350000D02*
X151150000Y-81750000D01*
X151150000Y-81750000D02*
X152250001Y-81750000D01*
X151150000Y-102250000D02*
X151150000Y-103650000D01*
X151150000Y-103650000D02*
X132850000Y-103650000D01*
X152250001Y-81750000D02*
X152250001Y-82850000D01*
X152250001Y-82850000D02*
X153650000Y-82850000D01*
X152250001Y-101150000D02*
X152250001Y-102250000D01*
X152250001Y-102250000D02*
X151150000Y-102250000D01*
X153650000Y-82850000D02*
X153650000Y-101150000D01*
X153650000Y-101150000D02*
X152250001Y-101150000D01*
%TO.C,C108*%
X90020000Y-64770000D02*
X92980000Y-64770000D01*
X92980000Y-66230000D01*
X90020000Y-66230000D01*
X90020000Y-64770000D01*
%TO.C,R208*%
X108520000Y-109770000D02*
X111480000Y-109770000D01*
X111480000Y-111230001D01*
X108520000Y-111230001D01*
X108520000Y-109770000D01*
%TO.C,R206*%
X102520000Y-107270000D02*
X105480000Y-107270000D01*
X105480000Y-108730000D01*
X102520000Y-108730000D01*
X102520000Y-107270000D01*
%TO.C,C406*%
X79770000Y-92520000D02*
X81230001Y-92520000D01*
X81230001Y-95480000D01*
X79770000Y-95480000D01*
X79770000Y-92520000D01*
%TO.C,R604*%
X160530000Y-109070001D02*
X161470000Y-109070001D01*
X161470000Y-110930000D01*
X160530000Y-110930000D01*
X160530000Y-109070001D01*
%TO.C,D601*%
X131519999Y-109270000D02*
X134480000Y-109270000D01*
X134480000Y-110730000D01*
X131519999Y-110730000D01*
X131519999Y-109270000D01*
%TO.C,R109*%
X108520000Y-70770000D02*
X111480000Y-70770000D01*
X111480000Y-72230000D01*
X108520000Y-72230000D01*
X108520000Y-70770000D01*
%TO.C,C212*%
X98520000Y-117770000D02*
X101480000Y-117770000D01*
X101480000Y-119230000D01*
X98520000Y-119230000D01*
X98520000Y-117770000D01*
%TO.C,D602*%
X131519999Y-111770000D02*
X134480000Y-111770000D01*
X134480000Y-113230000D01*
X131519999Y-113230000D01*
X131519999Y-111770000D01*
%TO.C,C627*%
X145040000Y-74690000D02*
X145960000Y-74690000D01*
X145960000Y-76510000D01*
X145040000Y-76510000D01*
X145040000Y-74690000D01*
%TO.C,C211*%
X99590000Y-105540000D02*
X101410000Y-105540000D01*
X101410000Y-106460000D01*
X99590000Y-106460000D01*
X99590000Y-105540000D01*
%TO.C,C404*%
X170770000Y-128520000D02*
X172230000Y-128520000D01*
X172230000Y-131480000D01*
X170770000Y-131480000D01*
X170770000Y-128520000D01*
%TO.C,R209*%
X108520000Y-112770000D02*
X111480000Y-112770000D01*
X111480000Y-114230000D01*
X108520000Y-114230000D01*
X108520000Y-112770000D01*
%TO.C,C107*%
X87590000Y-65040000D02*
X89410000Y-65040000D01*
X89410000Y-65960000D01*
X87590000Y-65960000D01*
X87590000Y-65040000D01*
%TO.C,C103*%
X75250000Y-75750000D02*
X82750000Y-75750000D01*
X82750000Y-80250000D01*
X75250000Y-80250000D01*
X75250000Y-75750000D01*
%TO.C,R407*%
X88570000Y-94230000D02*
X90429999Y-94230000D01*
X90429999Y-95170000D01*
X88570000Y-95170000D01*
X88570000Y-94230000D01*
%TO.C,C304*%
X107390000Y-89640000D02*
X109210000Y-89640000D01*
X109210000Y-90560000D01*
X107390000Y-90560000D01*
X107390000Y-89640000D01*
%TO.C,Y501*%
X138900000Y-55250000D02*
X143100000Y-55250000D01*
X143100000Y-58750000D01*
X138900000Y-58750000D01*
X138900000Y-55250000D01*
%TO.C,C405*%
X79770000Y-87520000D02*
X81230000Y-87520000D01*
X81230000Y-90480000D01*
X79770000Y-90480000D01*
X79770000Y-87520000D01*
%TO.C,C610*%
X151090000Y-76040000D02*
X152910000Y-76040000D01*
X152910000Y-76960000D01*
X151090000Y-76960000D01*
X151090000Y-76040000D01*
%TO.C,C109*%
X86590000Y-76040000D02*
X88410000Y-76040000D01*
X88410000Y-76960000D01*
X86590000Y-76960000D01*
X86590000Y-76040000D01*
%TO.C,C204*%
X102520000Y-105270000D02*
X105480000Y-105270000D01*
X105480000Y-106730000D01*
X102520000Y-106730000D01*
X102520000Y-105270000D01*
%TO.C,C312*%
X113090000Y-80540000D02*
X114910000Y-80540000D01*
X114910000Y-81460000D01*
X113090000Y-81460000D01*
X113090000Y-80540000D01*
%TO.C,C609*%
X153090000Y-107740000D02*
X154910000Y-107740000D01*
X154910000Y-108660000D01*
X153090000Y-108660000D01*
X153090000Y-107740000D01*
%TO.C,R301*%
X112070000Y-99030000D02*
X113929999Y-99030000D01*
X113929999Y-99970000D01*
X112070000Y-99970000D01*
X112070000Y-99030000D01*
%TO.C,C508*%
X162090000Y-67040000D02*
X163910000Y-67040000D01*
X163910000Y-67960000D01*
X162090000Y-67960000D01*
X162090000Y-67040000D01*
%TO.C,R503*%
X143030000Y-70070001D02*
X143970000Y-70070001D01*
X143970000Y-71930000D01*
X143030000Y-71930000D01*
X143030000Y-70070001D01*
%TO.C,C101*%
X70520000Y-63270000D02*
X73480000Y-63270000D01*
X73480000Y-64730000D01*
X70520000Y-64730000D01*
X70520000Y-63270000D01*
%TO.C,U101*%
X86299999Y-67540000D02*
X87799999Y-67540000D01*
X86299999Y-72460000D02*
X86299999Y-67540000D01*
X87799999Y-67300000D02*
X92199999Y-67300000D01*
X87799999Y-67540000D02*
X87799999Y-67300000D01*
X87799999Y-72460000D02*
X86299999Y-72460000D01*
X87799999Y-72700000D02*
X87799999Y-72460000D01*
X92199999Y-67300000D02*
X92199999Y-67540000D01*
X92199999Y-67540000D02*
X93699999Y-67540000D01*
X92199999Y-72460000D02*
X92199999Y-72700000D01*
X92199999Y-72700000D02*
X87799999Y-72700000D01*
X93699999Y-67540000D02*
X93699999Y-72460000D01*
X93699999Y-72460000D02*
X92199999Y-72460000D01*
%TO.C,L401*%
X172200000Y-120200000D02*
X172200000Y-123800000D01*
X172200000Y-123800000D02*
X175800000Y-123800000D01*
X175800000Y-120200000D02*
X172200000Y-120200000D01*
X175800000Y-123800000D02*
X175800000Y-120200000D01*
%TO.C,J101*%
X28900000Y-62150000D02*
X28900000Y-77850000D01*
X65400000Y-62150000D02*
X28900000Y-62150000D01*
X65400000Y-77850000D02*
X28900000Y-77850000D01*
X65400000Y-77850000D02*
X65400000Y-62150000D01*
%TO.C,C409*%
X92770000Y-93520000D02*
X94230000Y-93520000D01*
X94230000Y-96480000D01*
X92770000Y-96480000D01*
X92770000Y-93520000D01*
%TO.C,U603*%
X145350000Y-109520000D02*
X147100000Y-109520000D01*
X145350000Y-114480000D02*
X145350000Y-109520000D01*
X147100000Y-109100000D02*
X152900000Y-109100000D01*
X147100000Y-109520000D02*
X147100000Y-109100000D01*
X147100000Y-114480000D02*
X145350000Y-114480000D01*
X147100000Y-114900000D02*
X147100000Y-114480000D01*
X152900000Y-109100000D02*
X152900000Y-109520000D01*
X152900000Y-109520000D02*
X154650000Y-109520000D01*
X152900000Y-114480000D02*
X152900000Y-114900000D01*
X152900000Y-114900000D02*
X147100000Y-114900000D01*
X154650000Y-109520000D02*
X154650000Y-114480000D01*
X154650000Y-114480000D02*
X152900000Y-114480000D01*
%TO.C,C510*%
X162090000Y-71040000D02*
X163910000Y-71040000D01*
X163910000Y-71960000D01*
X162090000Y-71960000D01*
X162090000Y-71040000D01*
%TO.C,R303*%
X112570000Y-97030000D02*
X114429999Y-97030000D01*
X114429999Y-97970000D01*
X112570000Y-97970000D01*
X112570000Y-97030000D01*
%TO.C,C305*%
X107390000Y-91440000D02*
X109210000Y-91440000D01*
X109210000Y-92360000D01*
X107390000Y-92360000D01*
X107390000Y-91440000D01*
%TO.C,C505*%
X161520000Y-60770000D02*
X164480000Y-60770000D01*
X164480000Y-62230000D01*
X161520000Y-62230000D01*
X161520000Y-60770000D01*
%TO.C,C513*%
X150090000Y-57940000D02*
X151910000Y-57940000D01*
X151910000Y-58860000D01*
X150090000Y-58860000D01*
X150090000Y-57940000D01*
%TO.C,C602*%
X154590000Y-105540000D02*
X156410000Y-105540000D01*
X156410000Y-106460000D01*
X154590000Y-106460000D01*
X154590000Y-105540000D01*
%TO.C,C509*%
X161520000Y-68770000D02*
X164480000Y-68770000D01*
X164480000Y-70230000D01*
X161520000Y-70230000D01*
X161520000Y-68770000D01*
%TO.C,C616*%
X178090000Y-85540000D02*
X179910000Y-85540000D01*
X179910000Y-86460000D01*
X178090000Y-86460000D01*
X178090000Y-85540000D01*
%TO.C,C410*%
X95520000Y-83770000D02*
X98480000Y-83770000D01*
X98480000Y-85230000D01*
X95520000Y-85230000D01*
X95520000Y-83770000D01*
%TO.C,C512*%
X147490000Y-57940000D02*
X149310000Y-57940000D01*
X149310000Y-58860000D01*
X147490000Y-58860000D01*
X147490000Y-57940000D01*
%TO.C,R507*%
X163570000Y-56530000D02*
X165429999Y-56530000D01*
X165429999Y-57470000D01*
X163570000Y-57470000D01*
X163570000Y-56530000D01*
%TO.C,C104*%
X102520000Y-63270000D02*
X105480000Y-63270000D01*
X105480000Y-64730000D01*
X102520000Y-64730000D01*
X102520000Y-63270000D01*
%TO.C,R506*%
X163570000Y-54530000D02*
X165429999Y-54530000D01*
X165429999Y-55470000D01*
X163570000Y-55470000D01*
X163570000Y-54530000D01*
%TO.C,C210*%
X90020000Y-117770000D02*
X92980000Y-117770000D01*
X92980000Y-119230000D01*
X90020000Y-119230000D01*
X90020000Y-117770000D01*
%TO.C,C603*%
X154590000Y-78040000D02*
X156410000Y-78040000D01*
X156410000Y-78960000D01*
X154590000Y-78960000D01*
X154590000Y-78040000D01*
%TO.C,R103*%
X88520000Y-73770000D02*
X91480000Y-73770000D01*
X91480000Y-75230000D01*
X88520000Y-75230000D01*
X88520000Y-73770000D01*
%TO.C,U102*%
X100820000Y-68520000D02*
X102250000Y-68520000D01*
X100820000Y-71480000D02*
X100820000Y-68520000D01*
X102250000Y-68250000D02*
X105750000Y-68250000D01*
X102250000Y-68520000D02*
X102250000Y-68250000D01*
X102250000Y-71480000D02*
X100820000Y-71480000D01*
X102250000Y-71750000D02*
X102250000Y-71480000D01*
X105750000Y-68250000D02*
X105750000Y-68520000D01*
X105750000Y-68520000D02*
X107180000Y-68520000D01*
X105750000Y-71480000D02*
X105750000Y-71750000D01*
X105750000Y-71750000D02*
X102250000Y-71750000D01*
X107180000Y-68520000D02*
X107180000Y-71480000D01*
X107180000Y-71480000D02*
X105750000Y-71480000D01*
%TO.C,C607*%
X131090000Y-107540000D02*
X132910000Y-107540000D01*
X132910000Y-108460000D01*
X131090000Y-108460000D01*
X131090000Y-107540000D01*
%TO.C,H3*%
X57450000Y-136000000D02*
G75*
G02*
X50550000Y-136000000I-3450000J0D01*
G01*
X50550000Y-136000000D02*
G75*
G02*
X57450000Y-136000000I3450000J0D01*
G01*
%TO.C,C511*%
X144890000Y-57940000D02*
X146710000Y-57940000D01*
X146710000Y-58860000D01*
X144890000Y-58860000D01*
X144890000Y-57940000D01*
%TO.C,R502*%
X143030000Y-61370001D02*
X143970000Y-61370001D01*
X143970000Y-63230000D01*
X143030000Y-63230000D01*
X143030000Y-61370001D01*
%TO.C,C601*%
X127090000Y-105540000D02*
X128910000Y-105540000D01*
X128910000Y-106460000D01*
X127090000Y-106460000D01*
X127090000Y-105540000D01*
%TO.C,J201*%
X28900000Y-104150000D02*
X28900000Y-119850000D01*
X65400000Y-104150000D02*
X28900000Y-104150000D01*
X65400000Y-119850000D02*
X28900000Y-119850000D01*
X65400000Y-119850000D02*
X65400000Y-104150000D01*
%TO.C,U502*%
X145299999Y-62850000D02*
X146749999Y-62850000D01*
X145299999Y-71150000D02*
X145299999Y-62850000D01*
X146749999Y-61750000D02*
X147849999Y-61750000D01*
X146749999Y-62850000D02*
X146749999Y-61750000D01*
X146749999Y-71150000D02*
X145299999Y-71150000D01*
X146749999Y-72250000D02*
X146749999Y-71150000D01*
X147849999Y-60300000D02*
X156150000Y-60300000D01*
X147849999Y-61750000D02*
X147849999Y-60300000D01*
X147849999Y-72250000D02*
X146749999Y-72250000D01*
X147849999Y-73700000D02*
X147849999Y-72250000D01*
X156150000Y-60300000D02*
X156150000Y-61750000D01*
X156150000Y-61750000D02*
X157250000Y-61750000D01*
X156150000Y-72250000D02*
X156150000Y-73700000D01*
X156150000Y-73700000D02*
X147849999Y-73700000D01*
X157250000Y-61750000D02*
X157250000Y-62850000D01*
X157250000Y-62850000D02*
X158700000Y-62850000D01*
X157250000Y-71150000D02*
X157250000Y-72250000D01*
X157250000Y-72250000D02*
X156150000Y-72250000D01*
X158700000Y-62850000D02*
X158700000Y-71150000D01*
X158700000Y-71150000D02*
X157250000Y-71150000D01*
%TD*%
M02*
