%TF.GenerationSoftware,KiCad,Pcbnew,10.0.4*%
%TF.CreationDate,2026-10-10T08:59:33-04:00*%
%TF.ProjectId,dual_adc_usb,6475616c-5f61-4646-935f-7573622e6b69,rev?*%
%TF.SameCoordinates,Original*%
%TF.FileFunction,Copper,L1,Top*%
%TF.FilePolarity,Positive*%
%FSLAX46Y46*%
G04 Gerber Fmt 4.6, Leading zero omitted, Abs format (unit mm)*
G04 Created by KiCad (PCBNEW 10.0.4) date 2026-10-10 08:59:33*
%MOMM*%
%LPD*%
G01*
G04 APERTURE LIST*
G04 Aperture macros list*
%AMRoundRect*
0 Rectangle with rounded corners*
0 $1 Rounding radius*
0 $2 $3 $4 $5 $6 $7 $8 $9 X,Y pos of 4 corners*
0 Add a 4 corners polygon primitive as box body*
4,1,4,$2,$3,$4,$5,$6,$7,$8,$9,$2,$3,0*
0 Add four circle primitives for the rounded corners*
1,1,$1+$1,$2,$3*
1,1,$1+$1,$4,$5*
1,1,$1+$1,$6,$7*
1,1,$1+$1,$8,$9*
0 Add four rect primitives between the rounded corners*
20,1,$1+$1,$2,$3,$4,$5,0*
20,1,$1+$1,$4,$5,$6,$7,0*
20,1,$1+$1,$6,$7,$8,$9,0*
20,1,$1+$1,$8,$9,$2,$3,0*%
G04 Aperture macros list end*
%TA.AperFunction,SMDPad,CuDef*%
%ADD10RoundRect,0.140000X-0.140000X-0.170000X0.140000X-0.170000X0.140000X0.170000X-0.140000X0.170000X0*%
%TD*%
%TA.AperFunction,SMDPad,CuDef*%
%ADD11RoundRect,0.250000X-0.450000X-0.350000X0.450000X-0.350000X0.450000X0.350000X-0.450000X0.350000X0*%
%TD*%
%TA.AperFunction,SMDPad,CuDef*%
%ADD12RoundRect,0.100000X-0.562500X-0.100000X0.562500X-0.100000X0.562500X0.100000X-0.562500X0.100000X0*%
%TD*%
%TA.AperFunction,SMDPad,CuDef*%
%ADD13R,2.300000X1.600000*%
%TD*%
%TA.AperFunction,SMDPad,CuDef*%
%ADD14RoundRect,0.250000X0.475000X-0.250000X0.475000X0.250000X-0.475000X0.250000X-0.475000X-0.250000X0*%
%TD*%
%TA.AperFunction,SMDPad,CuDef*%
%ADD15RoundRect,0.140000X0.170000X-0.140000X0.170000X0.140000X-0.170000X0.140000X-0.170000X-0.140000X0*%
%TD*%
%TA.AperFunction,SMDPad,CuDef*%
%ADD16RoundRect,0.225000X0.250000X-0.225000X0.250000X0.225000X-0.250000X0.225000X-0.250000X-0.225000X0*%
%TD*%
%TA.AperFunction,SMDPad,CuDef*%
%ADD17RoundRect,0.200000X-0.200000X-0.275000X0.200000X-0.275000X0.200000X0.275000X-0.200000X0.275000X0*%
%TD*%
%TA.AperFunction,SMDPad,CuDef*%
%ADD18RoundRect,0.135000X-0.135000X-0.185000X0.135000X-0.185000X0.135000X0.185000X-0.135000X0.185000X0*%
%TD*%
%TA.AperFunction,SMDPad,CuDef*%
%ADD19RoundRect,0.225000X-0.225000X-0.250000X0.225000X-0.250000X0.225000X0.250000X-0.225000X0.250000X0*%
%TD*%
%TA.AperFunction,SMDPad,CuDef*%
%ADD20RoundRect,0.135000X0.185000X-0.135000X0.185000X0.135000X-0.185000X0.135000X-0.185000X-0.135000X0*%
%TD*%
%TA.AperFunction,SMDPad,CuDef*%
%ADD21RoundRect,0.062500X-0.187500X-0.062500X0.187500X-0.062500X0.187500X0.062500X-0.187500X0.062500X0*%
%TD*%
%TA.AperFunction,ComponentPad*%
%ADD22C,0.600000*%
%TD*%
%TA.AperFunction,SMDPad,CuDef*%
%ADD23R,1.000000X2.650000*%
%TD*%
%TA.AperFunction,SMDPad,CuDef*%
%ADD24RoundRect,0.218750X-0.218750X-0.381250X0.218750X-0.381250X0.218750X0.381250X-0.218750X0.381250X0*%
%TD*%
%TA.AperFunction,SMDPad,CuDef*%
%ADD25RoundRect,0.150000X-0.512500X-0.150000X0.512500X-0.150000X0.512500X0.150000X-0.512500X0.150000X0*%
%TD*%
%TA.AperFunction,SMDPad,CuDef*%
%ADD26RoundRect,0.150000X-0.825000X-0.150000X0.825000X-0.150000X0.825000X0.150000X-0.825000X0.150000X0*%
%TD*%
%TA.AperFunction,SMDPad,CuDef*%
%ADD27R,2.290000X3.000000*%
%TD*%
%TA.AperFunction,SMDPad,CuDef*%
%ADD28RoundRect,0.250000X-0.250000X-0.475000X0.250000X-0.475000X0.250000X0.475000X-0.250000X0.475000X0*%
%TD*%
%TA.AperFunction,SMDPad,CuDef*%
%ADD29R,1.510000X0.458000*%
%TD*%
%TA.AperFunction,SMDPad,CuDef*%
%ADD30RoundRect,0.218750X-0.218750X-0.256250X0.218750X-0.256250X0.218750X0.256250X-0.218750X0.256250X0*%
%TD*%
%TA.AperFunction,SMDPad,CuDef*%
%ADD31RoundRect,0.250000X-0.312500X-0.625000X0.312500X-0.625000X0.312500X0.625000X-0.312500X0.625000X0*%
%TD*%
%TA.AperFunction,SMDPad,CuDef*%
%ADD32RoundRect,0.100000X-0.712500X-0.100000X0.712500X-0.100000X0.712500X0.100000X-0.712500X0.100000X0*%
%TD*%
%TA.AperFunction,ComponentPad*%
%ADD33R,1.700000X1.700000*%
%TD*%
%TA.AperFunction,ComponentPad*%
%ADD34C,1.700000*%
%TD*%
%TA.AperFunction,SMDPad,CuDef*%
%ADD35RoundRect,0.200000X0.275000X-0.200000X0.275000X0.200000X-0.275000X0.200000X-0.275000X-0.200000X0*%
%TD*%
%TA.AperFunction,SMDPad,CuDef*%
%ADD36RoundRect,0.150000X-0.587500X-0.150000X0.587500X-0.150000X0.587500X0.150000X-0.587500X0.150000X0*%
%TD*%
%TA.AperFunction,ComponentPad*%
%ADD37C,3.500000*%
%TD*%
%TA.AperFunction,SMDPad,CuDef*%
%ADD38RoundRect,0.062500X-0.375000X-0.062500X0.375000X-0.062500X0.375000X0.062500X-0.375000X0.062500X0*%
%TD*%
%TA.AperFunction,SMDPad,CuDef*%
%ADD39RoundRect,0.062500X-0.062500X-0.375000X0.062500X-0.375000X0.062500X0.375000X-0.062500X0.375000X0*%
%TD*%
%TA.AperFunction,SMDPad,CuDef*%
%ADD40R,7.150000X7.150000*%
%TD*%
%TA.AperFunction,SMDPad,CuDef*%
%ADD41RoundRect,0.125000X-0.687500X-0.125000X0.687500X-0.125000X0.687500X0.125000X-0.687500X0.125000X0*%
%TD*%
%TA.AperFunction,SMDPad,CuDef*%
%ADD42RoundRect,0.075000X-0.662500X-0.075000X0.662500X-0.075000X0.662500X0.075000X-0.662500X0.075000X0*%
%TD*%
%TA.AperFunction,SMDPad,CuDef*%
%ADD43RoundRect,0.075000X-0.075000X-0.662500X0.075000X-0.662500X0.075000X0.662500X-0.075000X0.662500X0*%
%TD*%
%TA.AperFunction,SMDPad,CuDef*%
%ADD44R,0.800000X2.700000*%
%TD*%
%TA.AperFunction,ComponentPad*%
%ADD45O,2.500000X1.600000*%
%TD*%
%TA.AperFunction,ComponentPad*%
%ADD46O,7.000000X3.500000*%
%TD*%
%TA.AperFunction,SMDPad,CuDef*%
%ADD47RoundRect,0.162500X-0.650000X-0.162500X0.650000X-0.162500X0.650000X0.162500X-0.650000X0.162500X0*%
%TD*%
%TA.AperFunction,SMDPad,CuDef*%
%ADD48RoundRect,0.075000X-0.700000X-0.075000X0.700000X-0.075000X0.700000X0.075000X-0.700000X0.075000X0*%
%TD*%
%TA.AperFunction,SMDPad,CuDef*%
%ADD49RoundRect,0.075000X-0.075000X-0.700000X0.075000X-0.700000X0.075000X0.700000X-0.075000X0.700000X0*%
%TD*%
%TA.AperFunction,ViaPad*%
%ADD50C,0.600000*%
%TD*%
%TA.AperFunction,Conductor*%
%ADD51C,0.200000*%
%TD*%
%TA.AperFunction,Conductor*%
%ADD52C,0.400000*%
%TD*%
%TA.AperFunction,Conductor*%
%ADD53C,0.300000*%
%TD*%
%TA.AperFunction,Conductor*%
%ADD54C,0.250200*%
%TD*%
%TA.AperFunction,Conductor*%
%ADD55C,0.150000*%
%TD*%
%TA.AperFunction,Conductor*%
%ADD56C,0.250000*%
%TD*%
%TA.AperFunction,Conductor*%
%ADD57C,0.300400*%
%TD*%
%TA.AperFunction,Conductor*%
%ADD58C,0.280000*%
%TD*%
G04 APERTURE END LIST*
D10*
%TO.P,C613,1*%
%TO.N,+3V3*%
X149520000Y-105500000D03*
%TO.P,C613,2*%
%TO.N,GND*%
X150480000Y-105500000D03*
%TD*%
%TO.P,C514,1*%
%TO.N,+3V3*%
X153120000Y-58400000D03*
%TO.P,C514,2*%
%TO.N,GND*%
X154080000Y-58400000D03*
%TD*%
D11*
%TO.P,X301,1*%
%TO.N,+3V0*%
X115900000Y-101950000D03*
%TO.P,X301,2*%
%TO.N,GND*%
X118099999Y-101950000D03*
%TO.P,X301,3*%
%TO.N,/ADC/OSC_OUT*%
X118099999Y-100050000D03*
%TO.P,X301,4*%
%TO.N,+3V0*%
X115900000Y-100050000D03*
%TD*%
D12*
%TO.P,D101,1*%
%TO.N,VEE*%
X82112500Y-64349999D03*
%TO.P,D101,2*%
%TO.N,+4V*%
X82112500Y-65000000D03*
%TO.P,D101,3*%
%TO.N,unconnected-(D101B-K1A2-Pad3)*%
X82112500Y-65650000D03*
%TO.P,D101,4*%
%TO.N,unconnected-(D101B-A3-Pad4)*%
X83887500Y-65650000D03*
%TO.P,D101,5*%
%TO.N,unconnected-(D101B-K4-Pad5)*%
X83887500Y-65000000D03*
%TO.P,D101,6*%
%TO.N,/AFE_A/DIV*%
X83887500Y-64349999D03*
%TD*%
D13*
%TO.P,C203,1*%
%TO.N,/AFE_B/DIV*%
X76650000Y-120000000D03*
%TO.P,C203,2*%
%TO.N,GND*%
X81350000Y-120000000D03*
%TD*%
D10*
%TO.P,C316,1*%
%TO.N,+3V0*%
X119520000Y-81000000D03*
%TO.P,C316,2*%
%TO.N,GND*%
X120480000Y-81000000D03*
%TD*%
%TO.P,C620,1*%
%TO.N,+3V3*%
X178520000Y-94000000D03*
%TO.P,C620,2*%
%TO.N,GND*%
X179480000Y-94000000D03*
%TD*%
D14*
%TO.P,C624,1*%
%TO.N,/FPGA_SDRAM/VCCPLL0*%
X139200000Y-109950000D03*
%TO.P,C624,2*%
%TO.N,GND*%
X139200000Y-108050000D03*
%TD*%
D15*
%TO.P,C503,1*%
%TO.N,GND*%
X144700000Y-56480000D03*
%TO.P,C503,2*%
%TO.N,/USB/OSCO*%
X144700000Y-55520000D03*
%TD*%
D10*
%TO.P,C623,1*%
%TO.N,+3V3*%
X149520000Y-117000000D03*
%TO.P,C623,2*%
%TO.N,GND*%
X150480000Y-117000000D03*
%TD*%
D16*
%TO.P,C202,1*%
%TO.N,/AFE_B/DIV*%
X79000000Y-115775000D03*
%TO.P,C202,2*%
%TO.N,GND*%
X79000000Y-114225000D03*
%TD*%
D17*
%TO.P,R106,1*%
%TO.N,/AFE_A/FDA_INN*%
X103175000Y-66000000D03*
%TO.P,R106,2*%
%TO.N,/AFE_A/FDA_OUTP*%
X104825000Y-66000000D03*
%TD*%
D10*
%TO.P,C608,1*%
%TO.N,+3V3*%
X151520000Y-108000000D03*
%TO.P,C608,2*%
%TO.N,GND*%
X152480000Y-108000000D03*
%TD*%
D17*
%TO.P,R105,1*%
%TO.N,GND*%
X96175000Y-71500000D03*
%TO.P,R105,2*%
%TO.N,/AFE_A/FDA_INN*%
X97825000Y-71500000D03*
%TD*%
D16*
%TO.P,C206,1*%
%TO.N,/ADC/AINB_P*%
X112500000Y-112775000D03*
%TO.P,C206,2*%
%TO.N,/ADC/AINB_N*%
X112500000Y-111225000D03*
%TD*%
%TO.P,C501,1*%
%TO.N,/USB/SHIELD*%
X115000000Y-60275000D03*
%TO.P,C501,2*%
%TO.N,GND*%
X115000000Y-58725000D03*
%TD*%
D14*
%TO.P,C622,1*%
%TO.N,+3V3*%
X179000000Y-100450000D03*
%TO.P,C622,2*%
%TO.N,GND*%
X179000000Y-98550000D03*
%TD*%
D18*
%TO.P,R601,1*%
%TO.N,/FPGA_SDRAM/SD_CLK_SRC*%
X157990000Y-100000000D03*
%TO.P,R601,2*%
%TO.N,/FPGA_SDRAM/SD_CLK*%
X159009999Y-100000000D03*
%TD*%
D10*
%TO.P,C611,1*%
%TO.N,+3V3*%
X153520000Y-76500000D03*
%TO.P,C611,2*%
%TO.N,GND*%
X154480000Y-76500000D03*
%TD*%
D19*
%TO.P,C411,1*%
%TO.N,+3V0*%
X101725000Y-84500000D03*
%TO.P,C411,2*%
%TO.N,GND*%
X103275000Y-84500000D03*
%TD*%
D20*
%TO.P,R409,1*%
%TO.N,+3V3*%
X164000000Y-134510000D03*
%TO.P,R409,2*%
%TO.N,/Power/AN_EN*%
X164000000Y-133490001D03*
%TD*%
D17*
%TO.P,R207,1*%
%TO.N,/AFE_B/FDA_INP*%
X103175000Y-116000000D03*
%TO.P,R207,2*%
%TO.N,/AFE_B/FDA_OUTN*%
X104825000Y-116000000D03*
%TD*%
D14*
%TO.P,C626,1*%
%TO.N,/FPGA_SDRAM/VCCPLL1*%
X139000000Y-76550000D03*
%TO.P,C626,2*%
%TO.N,GND*%
X139000000Y-74650000D03*
%TD*%
D16*
%TO.P,C408,1*%
%TO.N,+4V*%
X93500000Y-88775000D03*
%TO.P,C408,2*%
%TO.N,GND*%
X93500000Y-87225000D03*
%TD*%
D10*
%TO.P,C506,1*%
%TO.N,/USB/V1V8_FT*%
X162520000Y-63500000D03*
%TO.P,C506,2*%
%TO.N,GND*%
X163480000Y-63500000D03*
%TD*%
D14*
%TO.P,C401,1*%
%TO.N,+5V*%
X162000000Y-122950000D03*
%TO.P,C401,2*%
%TO.N,GND*%
X162000000Y-121050000D03*
%TD*%
D19*
%TO.P,C105,1*%
%TO.N,/AFE_A/FDA_INP*%
X103225000Y-76000000D03*
%TO.P,C105,2*%
%TO.N,/AFE_A/FDA_OUTN*%
X104775000Y-76000000D03*
%TD*%
D10*
%TO.P,C615,1*%
%TO.N,+3V3*%
X178520000Y-84000000D03*
%TO.P,C615,2*%
%TO.N,GND*%
X179480000Y-84000000D03*
%TD*%
D21*
%TO.P,U404,1*%
%TO.N,unconnected-(U404-PGOOD-Pad1)*%
X84050000Y-90750000D03*
%TO.P,U404,2*%
%TO.N,/Power/FB_POS*%
X84050000Y-91250000D03*
%TO.P,U404,3*%
%TO.N,+5V*%
X84050000Y-91750000D03*
%TO.P,U404,4*%
%TO.N,GND*%
X84050000Y-92250000D03*
%TO.P,U404,5*%
%TO.N,/Power/CP_NEG*%
X84050000Y-92750000D03*
%TO.P,U404,6*%
%TO.N,VEE*%
X84050000Y-93250000D03*
%TO.P,U404,7*%
%TO.N,/Power/FB_NEG*%
X85950000Y-93250000D03*
%TO.P,U404,8*%
%TO.N,/Power/AN_EN*%
X85950000Y-92750000D03*
%TO.P,U404,9*%
%TO.N,/Power/CFLY_N*%
X85950000Y-92250000D03*
%TO.P,U404,10*%
%TO.N,/Power/CFLY_P*%
X85950000Y-91750000D03*
%TO.P,U404,11*%
%TO.N,+4V*%
X85950000Y-91250000D03*
%TO.P,U404,12*%
%TO.N,/Power/AN_EN*%
X85950000Y-90750000D03*
D22*
%TO.P,U404,13*%
%TO.N,GND*%
X85000000Y-91000000D03*
X85000000Y-92000000D03*
D23*
X85000000Y-92000000D03*
D22*
X85000000Y-93000000D03*
%TD*%
D10*
%TO.P,C311,1*%
%TO.N,+3V0*%
X111520000Y-81000000D03*
%TO.P,C311,2*%
%TO.N,GND*%
X112480000Y-81000000D03*
%TD*%
%TO.P,C317,1*%
%TO.N,+3V0*%
X121520000Y-81000000D03*
%TO.P,C317,2*%
%TO.N,GND*%
X122480000Y-81000000D03*
%TD*%
%TO.P,C617,1*%
%TO.N,+3V3*%
X178520000Y-88000000D03*
%TO.P,C617,2*%
%TO.N,GND*%
X179480000Y-88000000D03*
%TD*%
D16*
%TO.P,C102,1*%
%TO.N,/AFE_A/DIV*%
X79000000Y-73775000D03*
%TO.P,C102,2*%
%TO.N,GND*%
X79000000Y-72225000D03*
%TD*%
D10*
%TO.P,C308,1*%
%TO.N,/ADC/REFHB*%
X107820000Y-97300000D03*
%TO.P,C308,2*%
%TO.N,/ADC/REFLB*%
X108780000Y-97300000D03*
%TD*%
%TO.P,C207,1*%
%TO.N,+4V*%
X88020000Y-107500000D03*
%TO.P,C207,2*%
%TO.N,GND*%
X88980000Y-107500000D03*
%TD*%
%TO.P,C310,1*%
%TO.N,/ADC/REFLB*%
X107820000Y-99100000D03*
%TO.P,C310,2*%
%TO.N,GND*%
X108780000Y-99100000D03*
%TD*%
D19*
%TO.P,C201,1*%
%TO.N,/AFE_B/IN*%
X71225000Y-106000000D03*
%TO.P,C201,2*%
%TO.N,/AFE_B/DIV*%
X72775000Y-106000000D03*
%TD*%
D10*
%TO.P,C504,1*%
%TO.N,+3V3*%
X157020000Y-59200000D03*
%TO.P,C504,2*%
%TO.N,GND*%
X157980000Y-59200000D03*
%TD*%
%TO.P,C306,1*%
%TO.N,/ADC/REFLA*%
X107820000Y-93700000D03*
%TO.P,C306,2*%
%TO.N,GND*%
X108780000Y-93700000D03*
%TD*%
D19*
%TO.P,C301,1*%
%TO.N,/ADC/VCMA*%
X107525000Y-86500000D03*
%TO.P,C301,2*%
%TO.N,GND*%
X109075000Y-86500000D03*
%TD*%
D12*
%TO.P,D201,1*%
%TO.N,VEE*%
X82112500Y-106350000D03*
%TO.P,D201,2*%
%TO.N,+4V*%
X82112500Y-107000000D03*
%TO.P,D201,3*%
%TO.N,unconnected-(D201B-K1A2-Pad3)*%
X82112500Y-107650000D03*
%TO.P,D201,4*%
%TO.N,unconnected-(D201B-A3-Pad4)*%
X83887500Y-107650000D03*
%TO.P,D201,5*%
%TO.N,unconnected-(D201B-K4-Pad5)*%
X83887500Y-107000000D03*
%TO.P,D201,6*%
%TO.N,/AFE_B/DIV*%
X83887500Y-106350000D03*
%TD*%
D17*
%TO.P,R107,1*%
%TO.N,/AFE_A/FDA_INP*%
X103175000Y-74000000D03*
%TO.P,R107,2*%
%TO.N,/AFE_A/FDA_OUTN*%
X104825000Y-74000000D03*
%TD*%
D18*
%TO.P,R406,1*%
%TO.N,/Power/FB_POS*%
X88990000Y-89300000D03*
%TO.P,R406,2*%
%TO.N,GND*%
X90009999Y-89300000D03*
%TD*%
D20*
%TO.P,R602,1*%
%TO.N,+3V3*%
X157000000Y-110510000D03*
%TO.P,R602,2*%
%TO.N,SPI_SS_N*%
X157000000Y-109490001D03*
%TD*%
D24*
%TO.P,FB501,1*%
%TO.N,/USB/VBUS*%
X120937500Y-71000000D03*
%TO.P,FB501,2*%
%TO.N,+5V*%
X123062500Y-71000000D03*
%TD*%
D16*
%TO.P,C403,1*%
%TO.N,+3V3*%
X162500000Y-129775000D03*
%TO.P,C403,2*%
%TO.N,GND*%
X162500000Y-128225000D03*
%TD*%
D10*
%TO.P,C507,1*%
%TO.N,/USB/V1V8_FT*%
X162520000Y-65500000D03*
%TO.P,C507,2*%
%TO.N,GND*%
X163480000Y-65500000D03*
%TD*%
D18*
%TO.P,R605,1*%
%TO.N,+1V2*%
X141490000Y-108500000D03*
%TO.P,R605,2*%
%TO.N,/FPGA_SDRAM/VCCPLL0*%
X142509999Y-108500000D03*
%TD*%
D19*
%TO.P,C407,1*%
%TO.N,/Power/CP_NEG*%
X84225000Y-97500000D03*
%TO.P,C407,2*%
%TO.N,GND*%
X85775000Y-97500000D03*
%TD*%
%TO.P,C205,1*%
%TO.N,/AFE_B/FDA_INP*%
X103225000Y-118000000D03*
%TO.P,C205,2*%
%TO.N,/AFE_B/FDA_OUTN*%
X104775000Y-118000000D03*
%TD*%
D10*
%TO.P,C209,1*%
%TO.N,VEE*%
X87020000Y-118500000D03*
%TO.P,C209,2*%
%TO.N,GND*%
X87980000Y-118500000D03*
%TD*%
D25*
%TO.P,U402,1*%
%TO.N,+3V3*%
X165862500Y-128050000D03*
%TO.P,U402,2*%
%TO.N,GND*%
X165862500Y-129000000D03*
%TO.P,U402,3*%
%TO.N,+3V3*%
X165862500Y-129950000D03*
%TO.P,U402,4*%
%TO.N,unconnected-(U402-NC-Pad4)*%
X168137500Y-129950000D03*
%TO.P,U402,5*%
%TO.N,+1V2*%
X168137500Y-128050000D03*
%TD*%
D19*
%TO.P,C307,1*%
%TO.N,/ADC/REFHB*%
X107525000Y-95500000D03*
%TO.P,C307,2*%
%TO.N,/ADC/REFLB*%
X109075000Y-95500000D03*
%TD*%
D17*
%TO.P,R104,1*%
%TO.N,/AFE_A/BUF_OUT*%
X96175000Y-68500000D03*
%TO.P,R104,2*%
%TO.N,/AFE_A/FDA_INP*%
X97825000Y-68500000D03*
%TD*%
D18*
%TO.P,R405,1*%
%TO.N,+4V*%
X88990000Y-87500000D03*
%TO.P,R405,2*%
%TO.N,/Power/FB_POS*%
X90009999Y-87500000D03*
%TD*%
D15*
%TO.P,C318,1*%
%TO.N,+3V0*%
X121000000Y-100980000D03*
%TO.P,C318,2*%
%TO.N,GND*%
X121000000Y-100020000D03*
%TD*%
D18*
%TO.P,R401,1*%
%TO.N,+3V3*%
X175490000Y-126500000D03*
%TO.P,R401,2*%
%TO.N,/Power/FB_3V3*%
X176509999Y-126500000D03*
%TD*%
D10*
%TO.P,C614,1*%
%TO.N,+3V3*%
X155020000Y-81500000D03*
%TO.P,C614,2*%
%TO.N,GND*%
X155980000Y-81500000D03*
%TD*%
%TO.P,C604,1*%
%TO.N,+1V2*%
X127520000Y-78500000D03*
%TO.P,C604,2*%
%TO.N,GND*%
X128480000Y-78500000D03*
%TD*%
D26*
%TO.P,U201,1*%
%TO.N,/AFE_B/BUF_FB*%
X87525000Y-110095000D03*
%TO.P,U201,2*%
%TO.N,/AFE_B/BUF_INN*%
X87525000Y-111365000D03*
%TO.P,U201,3*%
%TO.N,/AFE_B/DIV*%
X87525000Y-112635000D03*
%TO.P,U201,4*%
%TO.N,VEE*%
X87525000Y-113905000D03*
%TO.P,U201,5*%
%TO.N,unconnected-(U201-Pad5)*%
X92474999Y-113905000D03*
%TO.P,U201,6*%
%TO.N,/AFE_B/BUF_OUT*%
X92474999Y-112635000D03*
%TO.P,U201,7*%
%TO.N,+4V*%
X92474999Y-111365000D03*
%TO.P,U201,8*%
X92474999Y-110095000D03*
D27*
%TO.P,U201,9*%
%TO.N,VEE*%
X90000000Y-112000000D03*
%TD*%
D19*
%TO.P,C302,1*%
%TO.N,/ADC/VCMB*%
X104025000Y-99100000D03*
%TO.P,C302,2*%
%TO.N,GND*%
X105575000Y-99100000D03*
%TD*%
D18*
%TO.P,R606,1*%
%TO.N,+1V2*%
X141490000Y-75500000D03*
%TO.P,R606,2*%
%TO.N,/FPGA_SDRAM/VCCPLL1*%
X142509999Y-75500000D03*
%TD*%
D28*
%TO.P,C315,1*%
%TO.N,+3V0*%
X123850000Y-81000000D03*
%TO.P,C315,2*%
%TO.N,GND*%
X125750000Y-81000000D03*
%TD*%
D25*
%TO.P,U403,1*%
%TO.N,+5V*%
X98862500Y-87050000D03*
%TO.P,U403,2*%
%TO.N,GND*%
X98862500Y-88000000D03*
%TO.P,U403,3*%
%TO.N,/Power/AN_EN*%
X98862500Y-88950000D03*
%TO.P,U403,4*%
%TO.N,unconnected-(U403-NC-Pad4)*%
X101137500Y-88950000D03*
%TO.P,U403,5*%
%TO.N,+3V0*%
X101137500Y-87050000D03*
%TD*%
D29*
%TO.P,U602,1*%
%TO.N,+3V3*%
X163250000Y-82600000D03*
%TO.P,U602,2*%
%TO.N,/FPGA_SDRAM/SD_DQ0*%
X163250000Y-83400000D03*
%TO.P,U602,3*%
%TO.N,+3V3*%
X163250000Y-84200000D03*
%TO.P,U602,4*%
%TO.N,/FPGA_SDRAM/SD_DQ1*%
X163250000Y-85000000D03*
%TO.P,U602,5*%
%TO.N,/FPGA_SDRAM/SD_DQ2*%
X163250000Y-85800000D03*
%TO.P,U602,6*%
%TO.N,GND*%
X163250000Y-86600000D03*
%TO.P,U602,7*%
%TO.N,/FPGA_SDRAM/SD_DQ3*%
X163250000Y-87400000D03*
%TO.P,U602,8*%
%TO.N,/FPGA_SDRAM/SD_DQ4*%
X163250000Y-88200000D03*
%TO.P,U602,9*%
%TO.N,+3V3*%
X163250000Y-89000000D03*
%TO.P,U602,10*%
%TO.N,/FPGA_SDRAM/SD_DQ5*%
X163250000Y-89800000D03*
%TO.P,U602,11*%
%TO.N,/FPGA_SDRAM/SD_DQ6*%
X163250000Y-90600000D03*
%TO.P,U602,12*%
%TO.N,GND*%
X163250000Y-91400000D03*
%TO.P,U602,13*%
%TO.N,/FPGA_SDRAM/SD_DQ7*%
X163250000Y-92200000D03*
%TO.P,U602,14*%
%TO.N,+3V3*%
X163250000Y-93000000D03*
%TO.P,U602,15*%
%TO.N,/FPGA_SDRAM/SD_LDQM*%
X163250000Y-93800000D03*
%TO.P,U602,16*%
%TO.N,/FPGA_SDRAM/SD_WE_N*%
X163250000Y-94600000D03*
%TO.P,U602,17*%
%TO.N,/FPGA_SDRAM/SD_CAS_N*%
X163250000Y-95400000D03*
%TO.P,U602,18*%
%TO.N,/FPGA_SDRAM/SD_RAS_N*%
X163250000Y-96200000D03*
%TO.P,U602,19*%
%TO.N,/FPGA_SDRAM/SD_CS_N*%
X163250000Y-97000000D03*
%TO.P,U602,20*%
%TO.N,/FPGA_SDRAM/SD_BA0*%
X163250000Y-97800000D03*
%TO.P,U602,21*%
%TO.N,/FPGA_SDRAM/SD_BA1*%
X163250000Y-98600000D03*
%TO.P,U602,22*%
%TO.N,/FPGA_SDRAM/SD_A10*%
X163250000Y-99400000D03*
%TO.P,U602,23*%
%TO.N,/FPGA_SDRAM/SD_A0*%
X163250000Y-100200000D03*
%TO.P,U602,24*%
%TO.N,/FPGA_SDRAM/SD_A1*%
X163250000Y-101000000D03*
%TO.P,U602,25*%
%TO.N,/FPGA_SDRAM/SD_A2*%
X163250000Y-101800000D03*
%TO.P,U602,26*%
%TO.N,/FPGA_SDRAM/SD_A3*%
X163250000Y-102600000D03*
%TO.P,U602,27*%
%TO.N,+3V3*%
X163250000Y-103400000D03*
%TO.P,U602,28*%
%TO.N,GND*%
X174749999Y-103400000D03*
%TO.P,U602,29*%
%TO.N,/FPGA_SDRAM/SD_A4*%
X174749999Y-102600000D03*
%TO.P,U602,30*%
%TO.N,/FPGA_SDRAM/SD_A5*%
X174749999Y-101800000D03*
%TO.P,U602,31*%
%TO.N,/FPGA_SDRAM/SD_A6*%
X174749999Y-101000000D03*
%TO.P,U602,32*%
%TO.N,/FPGA_SDRAM/SD_A7*%
X174749999Y-100200000D03*
%TO.P,U602,33*%
%TO.N,/FPGA_SDRAM/SD_A8*%
X174749999Y-99400000D03*
%TO.P,U602,34*%
%TO.N,/FPGA_SDRAM/SD_A9*%
X174749999Y-98600000D03*
%TO.P,U602,35*%
%TO.N,/FPGA_SDRAM/SD_A11*%
X174749999Y-97800000D03*
%TO.P,U602,36*%
%TO.N,unconnected-(U602-NC-Pad36)*%
X174749999Y-97000000D03*
%TO.P,U602,37*%
%TO.N,/FPGA_SDRAM/SD_CKE*%
X174749999Y-96200000D03*
%TO.P,U602,38*%
%TO.N,/FPGA_SDRAM/SD_CLK*%
X174749999Y-95400000D03*
%TO.P,U602,39*%
%TO.N,/FPGA_SDRAM/SD_UDQM*%
X174749999Y-94600000D03*
%TO.P,U602,40*%
%TO.N,unconnected-(U602-NC-Pad40)*%
X174749999Y-93800000D03*
%TO.P,U602,41*%
%TO.N,GND*%
X174749999Y-93000000D03*
%TO.P,U602,42*%
%TO.N,/FPGA_SDRAM/SD_DQ8*%
X174749999Y-92200000D03*
%TO.P,U602,43*%
%TO.N,+3V3*%
X174749999Y-91400000D03*
%TO.P,U602,44*%
%TO.N,/FPGA_SDRAM/SD_DQ9*%
X174749999Y-90600000D03*
%TO.P,U602,45*%
%TO.N,/FPGA_SDRAM/SD_DQ10*%
X174749999Y-89800000D03*
%TO.P,U602,46*%
%TO.N,GND*%
X174749999Y-89000000D03*
%TO.P,U602,47*%
%TO.N,/FPGA_SDRAM/SD_DQ11*%
X174749999Y-88200000D03*
%TO.P,U602,48*%
%TO.N,/FPGA_SDRAM/SD_DQ12*%
X174749999Y-87400000D03*
%TO.P,U602,49*%
%TO.N,+3V3*%
X174749999Y-86600000D03*
%TO.P,U602,50*%
%TO.N,/FPGA_SDRAM/SD_DQ13*%
X174749999Y-85800000D03*
%TO.P,U602,51*%
%TO.N,/FPGA_SDRAM/SD_DQ14*%
X174749999Y-85000000D03*
%TO.P,U602,52*%
%TO.N,GND*%
X174749999Y-84200000D03*
%TO.P,U602,53*%
%TO.N,/FPGA_SDRAM/SD_DQ15*%
X174749999Y-83400000D03*
%TO.P,U602,54*%
%TO.N,GND*%
X174749999Y-82600000D03*
%TD*%
D19*
%TO.P,C112,1*%
%TO.N,+4V*%
X99225000Y-76500000D03*
%TO.P,C112,2*%
%TO.N,GND*%
X100775000Y-76500000D03*
%TD*%
D18*
%TO.P,R402,1*%
%TO.N,/Power/FB_3V3*%
X175490000Y-128300000D03*
%TO.P,R402,2*%
%TO.N,GND*%
X176509999Y-128300000D03*
%TD*%
D10*
%TO.P,C618,1*%
%TO.N,+3V3*%
X178520000Y-90000000D03*
%TO.P,C618,2*%
%TO.N,GND*%
X179480000Y-90000000D03*
%TD*%
D18*
%TO.P,R411,1*%
%TO.N,+3V3*%
X175490000Y-131000000D03*
%TO.P,R411,2*%
%TO.N,/Power/LED_PWR*%
X176509999Y-131000000D03*
%TD*%
D10*
%TO.P,C309,1*%
%TO.N,/ADC/REFHB*%
X109820000Y-99100000D03*
%TO.P,C309,2*%
%TO.N,GND*%
X110780000Y-99100000D03*
%TD*%
D19*
%TO.P,C208,1*%
%TO.N,+4V*%
X90725000Y-107500000D03*
%TO.P,C208,2*%
%TO.N,GND*%
X92275000Y-107500000D03*
%TD*%
D25*
%TO.P,U501,1*%
%TO.N,/USB/USB_DM*%
X136862500Y-65050000D03*
%TO.P,U501,2*%
%TO.N,GND*%
X136862500Y-66000000D03*
%TO.P,U501,3*%
%TO.N,/USB/USB_DP*%
X136862500Y-66950000D03*
%TO.P,U501,4*%
X139137500Y-66950000D03*
%TO.P,U501,5*%
%TO.N,/USB/VBUS*%
X139137500Y-66000000D03*
%TO.P,U501,6*%
%TO.N,/USB/USB_DM*%
X139137500Y-65050000D03*
%TD*%
D18*
%TO.P,R504,1*%
%TO.N,/USB/EEDATA*%
X167490000Y-55000000D03*
%TO.P,R504,2*%
%TO.N,/USB/EE_DO*%
X168509999Y-55000000D03*
%TD*%
D10*
%TO.P,C313,1*%
%TO.N,+3V0*%
X115520000Y-81000000D03*
%TO.P,C313,2*%
%TO.N,GND*%
X116480000Y-81000000D03*
%TD*%
D17*
%TO.P,R205,1*%
%TO.N,GND*%
X96175000Y-113500000D03*
%TO.P,R205,2*%
%TO.N,/AFE_B/FDA_INN*%
X97825000Y-113500000D03*
%TD*%
D10*
%TO.P,C314,1*%
%TO.N,+3V0*%
X117520000Y-81000000D03*
%TO.P,C314,2*%
%TO.N,GND*%
X118480000Y-81000000D03*
%TD*%
D17*
%TO.P,R203,1*%
%TO.N,/AFE_B/BUF_INN*%
X89175000Y-116500000D03*
%TO.P,R203,2*%
%TO.N,/AFE_B/BUF_FB*%
X90825000Y-116500000D03*
%TD*%
D30*
%TO.P,D401,1*%
%TO.N,GND*%
X179212500Y-131000000D03*
%TO.P,D401,2*%
%TO.N,/Power/LED_PWR*%
X180787500Y-131000000D03*
%TD*%
D10*
%TO.P,C606,1*%
%TO.N,+3V3*%
X129520000Y-108000000D03*
%TO.P,C606,2*%
%TO.N,GND*%
X130480000Y-108000000D03*
%TD*%
D31*
%TO.P,R101,1*%
%TO.N,/AFE_A/IN*%
X70537500Y-67000000D03*
%TO.P,R101,2*%
%TO.N,/AFE_A/DIV*%
X73462501Y-67000000D03*
%TD*%
D32*
%TO.P,U401,1*%
%TO.N,GND*%
X164887500Y-121025000D03*
%TO.P,U401,2*%
%TO.N,+5V*%
X164887500Y-121675000D03*
%TO.P,U401,3*%
X164887500Y-122325000D03*
%TO.P,U401,4*%
%TO.N,GND*%
X164887500Y-122975000D03*
%TO.P,U401,5*%
%TO.N,/Power/FB_3V3*%
X169112500Y-122975000D03*
%TO.P,U401,6*%
%TO.N,+3V3*%
X169112500Y-122325000D03*
%TO.P,U401,7*%
%TO.N,/Power/SW*%
X169112500Y-121675000D03*
%TO.P,U401,8*%
%TO.N,unconnected-(U401-PG-Pad8)*%
X169112500Y-121025000D03*
%TD*%
D10*
%TO.P,C111,1*%
%TO.N,+4V*%
X100020000Y-64000000D03*
%TO.P,C111,2*%
%TO.N,GND*%
X100980000Y-64000000D03*
%TD*%
D19*
%TO.P,C110,1*%
%TO.N,VEE*%
X90725000Y-76500000D03*
%TO.P,C110,2*%
%TO.N,GND*%
X92275000Y-76500000D03*
%TD*%
%TO.P,C303,1*%
%TO.N,/ADC/REFHA*%
X107525000Y-88300000D03*
%TO.P,C303,2*%
%TO.N,/ADC/REFLA*%
X109075000Y-88300000D03*
%TD*%
D20*
%TO.P,R410,1*%
%TO.N,+3V3*%
X156000000Y-134510000D03*
%TO.P,R410,2*%
%TO.N,PWREN_N*%
X156000000Y-133490001D03*
%TD*%
D10*
%TO.P,C619,1*%
%TO.N,+3V3*%
X178520000Y-92000000D03*
%TO.P,C619,2*%
%TO.N,GND*%
X179480000Y-92000000D03*
%TD*%
D33*
%TO.P,J601,1*%
%TO.N,/FPGA_SDRAM/TRIG_IN*%
X120000000Y-136000000D03*
D34*
%TO.P,J601,2*%
%TO.N,GND*%
X120000000Y-133460000D03*
%TO.P,J601,3*%
%TO.N,/FPGA_SDRAM/GPIO0*%
X122540000Y-136000000D03*
%TO.P,J601,4*%
%TO.N,/FPGA_SDRAM/GPIO1*%
X122540000Y-133460000D03*
%TO.P,J601,5*%
%TO.N,/FPGA_SDRAM/GPIO2*%
X125080000Y-136000000D03*
%TO.P,J601,6*%
%TO.N,/FPGA_SDRAM/GPIO3*%
X125080000Y-133460000D03*
%TO.P,J601,7*%
%TO.N,/FPGA_SDRAM/GPIO4*%
X127620000Y-136000000D03*
%TO.P,J601,8*%
%TO.N,/FPGA_SDRAM/GPIO5*%
X127620000Y-133460000D03*
%TO.P,J601,9*%
%TO.N,+3V3*%
X130160000Y-136000000D03*
%TO.P,J601,10*%
%TO.N,GND*%
X130160000Y-133460000D03*
%TD*%
D16*
%TO.P,C106,1*%
%TO.N,/ADC/AINA_P*%
X112500000Y-70775000D03*
%TO.P,C106,2*%
%TO.N,/ADC/AINA_N*%
X112500000Y-69225000D03*
%TD*%
D10*
%TO.P,C621,1*%
%TO.N,+3V3*%
X178520000Y-96000000D03*
%TO.P,C621,2*%
%TO.N,GND*%
X179480000Y-96000000D03*
%TD*%
D35*
%TO.P,R102,1*%
%TO.N,/AFE_A/DIV*%
X77000000Y-73825000D03*
%TO.P,R102,2*%
%TO.N,GND*%
X77000000Y-72175000D03*
%TD*%
%TO.P,R501,1*%
%TO.N,/USB/SHIELD*%
X115000000Y-56825000D03*
%TO.P,R501,2*%
%TO.N,GND*%
X115000000Y-55175000D03*
%TD*%
D18*
%TO.P,R408,1*%
%TO.N,/Power/FB_NEG*%
X88990000Y-96500000D03*
%TO.P,R408,2*%
%TO.N,GND*%
X90009999Y-96500000D03*
%TD*%
D20*
%TO.P,R603,1*%
%TO.N,+3V3*%
X159000000Y-110510000D03*
%TO.P,R603,2*%
%TO.N,FPGA_CRESET_N*%
X159000000Y-109490001D03*
%TD*%
D17*
%TO.P,R204,1*%
%TO.N,/AFE_B/BUF_OUT*%
X96175000Y-110500000D03*
%TO.P,R204,2*%
%TO.N,/AFE_B/FDA_INP*%
X97825000Y-110500000D03*
%TD*%
D26*
%TO.P,U503,1*%
%TO.N,/USB/EECS*%
X153525000Y-52495000D03*
%TO.P,U503,2*%
%TO.N,/USB/EECLK*%
X153525000Y-53765000D03*
%TO.P,U503,3*%
%TO.N,/USB/EEDATA*%
X153525000Y-55035000D03*
%TO.P,U503,4*%
%TO.N,/USB/EE_DO*%
X153525000Y-56305000D03*
%TO.P,U503,5*%
%TO.N,GND*%
X158474999Y-56305000D03*
%TO.P,U503,6*%
%TO.N,+3V3*%
X158474999Y-55035000D03*
%TO.P,U503,7*%
%TO.N,unconnected-(U503-NC-Pad7)*%
X158474999Y-53765000D03*
%TO.P,U503,8*%
%TO.N,+3V3*%
X158474999Y-52495000D03*
%TD*%
D15*
%TO.P,C625,1*%
%TO.N,/FPGA_SDRAM/VCCPLL0*%
X144300000Y-109480000D03*
%TO.P,C625,2*%
%TO.N,GND*%
X144300000Y-108520000D03*
%TD*%
D28*
%TO.P,C605,1*%
%TO.N,+1V2*%
X130050000Y-76500000D03*
%TO.P,C605,2*%
%TO.N,GND*%
X131950000Y-76500000D03*
%TD*%
D36*
%TO.P,Q401,1*%
%TO.N,PWREN_N*%
X159062500Y-133050000D03*
%TO.P,Q401,2*%
%TO.N,GND*%
X159062500Y-134950000D03*
%TO.P,Q401,3*%
%TO.N,/Power/AN_EN*%
X160937500Y-134000000D03*
%TD*%
D14*
%TO.P,C402,1*%
%TO.N,+3V3*%
X178500000Y-122950000D03*
%TO.P,C402,2*%
%TO.N,GND*%
X178500000Y-121050000D03*
%TD*%
D31*
%TO.P,R201,1*%
%TO.N,/AFE_B/IN*%
X70537500Y-109000000D03*
%TO.P,R201,2*%
%TO.N,/AFE_B/DIV*%
X73462501Y-109000000D03*
%TD*%
D17*
%TO.P,R108,1*%
%TO.N,/AFE_A/FDA_OUTP*%
X109175000Y-68500000D03*
%TO.P,R108,2*%
%TO.N,/ADC/AINA_P*%
X110825000Y-68500000D03*
%TD*%
D15*
%TO.P,C502,1*%
%TO.N,GND*%
X137300000Y-56480000D03*
%TO.P,C502,2*%
%TO.N,/USB/OSCI*%
X137300000Y-55520000D03*
%TD*%
D18*
%TO.P,R304,1*%
%TO.N,/ADC/OSC_OUT*%
X120490000Y-103500000D03*
%TO.P,R304,2*%
%TO.N,CLK_10M*%
X121509999Y-103500000D03*
%TD*%
D35*
%TO.P,R202,1*%
%TO.N,/AFE_B/DIV*%
X77000000Y-115825000D03*
%TO.P,R202,2*%
%TO.N,GND*%
X77000000Y-114175000D03*
%TD*%
D33*
%TO.P,J501,1*%
%TO.N,/USB/VBUS*%
X125000000Y-65600000D03*
D34*
%TO.P,J501,2*%
%TO.N,/USB/USB_DM*%
X127500000Y-65600000D03*
%TO.P,J501,3*%
%TO.N,/USB/USB_DP*%
X127500000Y-63600000D03*
%TO.P,J501,4*%
%TO.N,GND*%
X125000000Y-63600000D03*
D37*
%TO.P,J501,5*%
%TO.N,/USB/SHIELD*%
X120230000Y-60890000D03*
X132270000Y-60890000D03*
%TD*%
D28*
%TO.P,C612,1*%
%TO.N,+3V3*%
X125050000Y-108500000D03*
%TO.P,C612,2*%
%TO.N,GND*%
X126950000Y-108500000D03*
%TD*%
D38*
%TO.P,U301,1*%
%TO.N,/ADC/AINA_P*%
X111562500Y-87250000D03*
%TO.P,U301,2*%
%TO.N,/ADC/AINA_N*%
X111562500Y-87750000D03*
%TO.P,U301,3*%
%TO.N,/ADC/REFHA*%
X111562500Y-88250000D03*
%TO.P,U301,4*%
X111562500Y-88750000D03*
%TO.P,U301,5*%
%TO.N,/ADC/REFLA*%
X111562500Y-89250000D03*
%TO.P,U301,6*%
X111562500Y-89750000D03*
%TO.P,U301,7*%
%TO.N,+3V0*%
X111562500Y-90250000D03*
%TO.P,U301,8*%
%TO.N,/ADC/ADC_CLK*%
X111562500Y-90750000D03*
%TO.P,U301,9*%
X111562500Y-91250000D03*
%TO.P,U301,10*%
%TO.N,+3V0*%
X111562500Y-91750000D03*
%TO.P,U301,11*%
%TO.N,/ADC/REFLB*%
X111562500Y-92250000D03*
%TO.P,U301,12*%
X111562500Y-92750000D03*
%TO.P,U301,13*%
%TO.N,/ADC/REFHB*%
X111562500Y-93250000D03*
%TO.P,U301,14*%
X111562500Y-93750000D03*
%TO.P,U301,15*%
%TO.N,/ADC/AINB_N*%
X111562500Y-94250000D03*
%TO.P,U301,16*%
%TO.N,/ADC/AINB_P*%
X111562500Y-94750000D03*
D39*
%TO.P,U301,17*%
%TO.N,GND*%
X112250000Y-95437500D03*
%TO.P,U301,18*%
%TO.N,+3V0*%
X112750000Y-95437500D03*
%TO.P,U301,19*%
X113250000Y-95437500D03*
%TO.P,U301,20*%
%TO.N,/ADC/VCMB*%
X113750000Y-95437500D03*
%TO.P,U301,21*%
%TO.N,+3V0*%
X114250000Y-95437500D03*
%TO.P,U301,22*%
%TO.N,GND*%
X114750000Y-95437500D03*
%TO.P,U301,23*%
X115250000Y-95437500D03*
%TO.P,U301,24*%
%TO.N,unconnected-(U301-NC-Pad24)*%
X115750000Y-95437500D03*
%TO.P,U301,25*%
%TO.N,unconnected-(U301-NC-Pad25)*%
X116250000Y-95437500D03*
%TO.P,U301,26*%
%TO.N,ADC_B0*%
X116750000Y-95437500D03*
%TO.P,U301,27*%
%TO.N,ADC_B1*%
X117250000Y-95437500D03*
%TO.P,U301,28*%
%TO.N,ADC_B2*%
X117750000Y-95437500D03*
%TO.P,U301,29*%
%TO.N,ADC_B3*%
X118250000Y-95437500D03*
%TO.P,U301,30*%
%TO.N,ADC_B4*%
X118750000Y-95437500D03*
%TO.P,U301,31*%
%TO.N,GND*%
X119250000Y-95437500D03*
%TO.P,U301,32*%
%TO.N,+3V0*%
X119750000Y-95437500D03*
D38*
%TO.P,U301,33*%
%TO.N,ADC_B5*%
X120437500Y-94750000D03*
%TO.P,U301,34*%
%TO.N,ADC_B6*%
X120437500Y-94250000D03*
%TO.P,U301,35*%
%TO.N,ADC_B7*%
X120437500Y-93750000D03*
%TO.P,U301,36*%
%TO.N,ADC_B8*%
X120437500Y-93250000D03*
%TO.P,U301,37*%
%TO.N,ADC_B9*%
X120437500Y-92750000D03*
%TO.P,U301,38*%
%TO.N,ADC_B10*%
X120437500Y-92250000D03*
%TO.P,U301,39*%
%TO.N,ADC_B11*%
X120437500Y-91750000D03*
%TO.P,U301,40*%
%TO.N,ADC_OFB*%
X120437500Y-91250000D03*
%TO.P,U301,41*%
%TO.N,unconnected-(U301-NC-Pad41)*%
X120437500Y-90750000D03*
%TO.P,U301,42*%
%TO.N,unconnected-(U301-NC-Pad42)*%
X120437500Y-90250000D03*
%TO.P,U301,43*%
%TO.N,ADC_A0*%
X120437500Y-89750000D03*
%TO.P,U301,44*%
%TO.N,ADC_A1*%
X120437500Y-89250000D03*
%TO.P,U301,45*%
%TO.N,ADC_A2*%
X120437500Y-88750000D03*
%TO.P,U301,46*%
%TO.N,ADC_A3*%
X120437500Y-88250000D03*
%TO.P,U301,47*%
%TO.N,ADC_A4*%
X120437500Y-87750000D03*
%TO.P,U301,48*%
%TO.N,ADC_A5*%
X120437500Y-87250000D03*
D39*
%TO.P,U301,49*%
%TO.N,+3V0*%
X119750000Y-86562500D03*
%TO.P,U301,50*%
%TO.N,GND*%
X119250000Y-86562500D03*
%TO.P,U301,51*%
%TO.N,ADC_A6*%
X118750000Y-86562500D03*
%TO.P,U301,52*%
%TO.N,ADC_A7*%
X118250000Y-86562500D03*
%TO.P,U301,53*%
%TO.N,ADC_A8*%
X117750000Y-86562500D03*
%TO.P,U301,54*%
%TO.N,ADC_A9*%
X117250000Y-86562500D03*
%TO.P,U301,55*%
%TO.N,ADC_A10*%
X116750000Y-86562500D03*
%TO.P,U301,56*%
%TO.N,ADC_A11*%
X116250000Y-86562500D03*
%TO.P,U301,57*%
%TO.N,ADC_OFA*%
X115750000Y-86562500D03*
%TO.P,U301,58*%
%TO.N,GND*%
X115250000Y-86562500D03*
%TO.P,U301,59*%
X114750000Y-86562500D03*
%TO.P,U301,60*%
%TO.N,/ADC/MODE*%
X114250000Y-86562500D03*
%TO.P,U301,61*%
%TO.N,/ADC/VCMA*%
X113750000Y-86562500D03*
%TO.P,U301,62*%
%TO.N,+3V0*%
X113250000Y-86562500D03*
%TO.P,U301,63*%
X112750000Y-86562500D03*
%TO.P,U301,64*%
%TO.N,GND*%
X112250000Y-86562500D03*
D40*
%TO.P,U301,65*%
X116000000Y-91000000D03*
%TD*%
D18*
%TO.P,R302,1*%
%TO.N,/ADC/MODE*%
X112490000Y-101300000D03*
%TO.P,R302,2*%
%TO.N,GND*%
X113509999Y-101300000D03*
%TD*%
%TO.P,R607,1*%
%TO.N,/FPGA_SDRAM/LED0_A*%
X135990000Y-110000000D03*
%TO.P,R607,2*%
%TO.N,/FPGA_SDRAM/LED0*%
X137009999Y-110000000D03*
%TD*%
%TO.P,R608,1*%
%TO.N,/FPGA_SDRAM/LED1_A*%
X135990000Y-112500000D03*
%TO.P,R608,2*%
%TO.N,/FPGA_SDRAM/LED1*%
X137009999Y-112500000D03*
%TD*%
D41*
%TO.P,U202,1*%
%TO.N,/AFE_B/FDA_INN*%
X101887500Y-111025000D03*
%TO.P,U202,2*%
%TO.N,/ADC/VCMB*%
X101887500Y-111675000D03*
%TO.P,U202,3*%
%TO.N,+4V*%
X101887500Y-112325000D03*
%TO.P,U202,4*%
%TO.N,/AFE_B/FDA_OUTP*%
X101887500Y-112975000D03*
%TO.P,U202,5*%
%TO.N,/AFE_B/FDA_OUTN*%
X106112500Y-112975000D03*
%TO.P,U202,6*%
%TO.N,GND*%
X106112500Y-112325000D03*
%TO.P,U202,7*%
%TO.N,+4V*%
X106112500Y-111675000D03*
%TO.P,U202,8*%
%TO.N,/AFE_B/FDA_INP*%
X106112500Y-111025000D03*
%TD*%
D10*
%TO.P,C515,1*%
%TO.N,+5V*%
X125520000Y-71000000D03*
%TO.P,C515,2*%
%TO.N,GND*%
X126480000Y-71000000D03*
%TD*%
D18*
%TO.P,R505,1*%
%TO.N,+3V3*%
X163990000Y-53000000D03*
%TO.P,R505,2*%
%TO.N,/USB/EECS*%
X165009999Y-53000000D03*
%TD*%
D42*
%TO.P,U601,1*%
%TO.N,ADC_A0*%
X131337500Y-83250000D03*
%TO.P,U601,2*%
%TO.N,ADC_A1*%
X131337500Y-83750000D03*
%TO.P,U601,3*%
%TO.N,ADC_A2*%
X131337500Y-84250000D03*
%TO.P,U601,4*%
%TO.N,ADC_A3*%
X131337500Y-84750000D03*
%TO.P,U601,5*%
%TO.N,GND*%
X131337500Y-85250000D03*
%TO.P,U601,6*%
%TO.N,+3V3*%
X131337500Y-85750000D03*
%TO.P,U601,7*%
%TO.N,ADC_A4*%
X131337500Y-86250000D03*
%TO.P,U601,8*%
%TO.N,ADC_A5*%
X131337500Y-86750000D03*
%TO.P,U601,9*%
%TO.N,ADC_A6*%
X131337500Y-87250000D03*
%TO.P,U601,10*%
%TO.N,ADC_A7*%
X131337500Y-87750000D03*
%TO.P,U601,11*%
%TO.N,ADC_A8*%
X131337500Y-88250000D03*
%TO.P,U601,12*%
%TO.N,ADC_A9*%
X131337500Y-88750000D03*
%TO.P,U601,13*%
%TO.N,GND*%
X131337500Y-89250000D03*
%TO.P,U601,14*%
X131337500Y-89750000D03*
%TO.P,U601,15*%
%TO.N,ADC_A10*%
X131337500Y-90250000D03*
%TO.P,U601,16*%
%TO.N,ADC_A11*%
X131337500Y-90750000D03*
%TO.P,U601,17*%
%TO.N,ADC_OFA*%
X131337500Y-91250000D03*
%TO.P,U601,18*%
%TO.N,ADC_OFB*%
X131337500Y-91750000D03*
%TO.P,U601,19*%
%TO.N,ADC_B0*%
X131337500Y-92250000D03*
%TO.P,U601,20*%
%TO.N,unconnected-(U601D-IOL_13B_GBIN7-Pad20)*%
X131337500Y-92750000D03*
%TO.P,U601,21*%
%TO.N,CLK_10M*%
X131337500Y-93250000D03*
%TO.P,U601,22*%
%TO.N,ADC_B1*%
X131337500Y-93750000D03*
%TO.P,U601,23*%
%TO.N,ADC_B2*%
X131337500Y-94250000D03*
%TO.P,U601,24*%
%TO.N,ADC_B3*%
X131337500Y-94750000D03*
%TO.P,U601,25*%
%TO.N,ADC_B4*%
X131337500Y-95250000D03*
%TO.P,U601,26*%
%TO.N,ADC_B5*%
X131337500Y-95750000D03*
%TO.P,U601,27*%
%TO.N,+1V2*%
X131337500Y-96250000D03*
%TO.P,U601,28*%
%TO.N,ADC_B6*%
X131337500Y-96750000D03*
%TO.P,U601,29*%
%TO.N,ADC_B7*%
X131337500Y-97250000D03*
%TO.P,U601,30*%
%TO.N,+3V3*%
X131337500Y-97750000D03*
%TO.P,U601,31*%
%TO.N,ADC_B8*%
X131337500Y-98250000D03*
%TO.P,U601,32*%
%TO.N,ADC_B9*%
X131337500Y-98750000D03*
%TO.P,U601,33*%
%TO.N,ADC_B10*%
X131337500Y-99250000D03*
%TO.P,U601,34*%
%TO.N,ADC_B11*%
X131337500Y-99750000D03*
%TO.P,U601,35*%
%TO.N,unconnected-(U601E-NC-Pad35)*%
X131337500Y-100250000D03*
%TO.P,U601,36*%
%TO.N,unconnected-(U601E-NC-Pad36)*%
X131337500Y-100750000D03*
D43*
%TO.P,U601,37*%
%TO.N,/FPGA_SDRAM/LED0*%
X133250000Y-102662500D03*
%TO.P,U601,38*%
%TO.N,/FPGA_SDRAM/LED1*%
X133750000Y-102662500D03*
%TO.P,U601,39*%
%TO.N,/FPGA_SDRAM/GPIO0*%
X134250000Y-102662500D03*
%TO.P,U601,40*%
%TO.N,+1V2*%
X134750000Y-102662500D03*
%TO.P,U601,41*%
%TO.N,/FPGA_SDRAM/GPIO1*%
X135250000Y-102662500D03*
%TO.P,U601,42*%
%TO.N,/FPGA_SDRAM/GPIO2*%
X135750000Y-102662500D03*
%TO.P,U601,43*%
%TO.N,/FPGA_SDRAM/GPIO3*%
X136250000Y-102662500D03*
%TO.P,U601,44*%
%TO.N,/FPGA_SDRAM/GPIO4*%
X136750000Y-102662500D03*
%TO.P,U601,45*%
%TO.N,/FPGA_SDRAM/GPIO5*%
X137250000Y-102662500D03*
%TO.P,U601,46*%
%TO.N,+3V3*%
X137750000Y-102662500D03*
%TO.P,U601,47*%
%TO.N,unconnected-(U601C-IOB_79-Pad47)*%
X138250000Y-102662500D03*
%TO.P,U601,48*%
%TO.N,unconnected-(U601C-IOB_80-Pad48)*%
X138750000Y-102662500D03*
%TO.P,U601,49*%
%TO.N,/FPGA_SDRAM/TRIG_IN*%
X139250000Y-102662500D03*
%TO.P,U601,50*%
%TO.N,unconnected-(U601E-NC-Pad50)*%
X139750000Y-102662500D03*
%TO.P,U601,51*%
%TO.N,unconnected-(U601E-NC-Pad51)*%
X140250000Y-102662500D03*
%TO.P,U601,52*%
%TO.N,unconnected-(U601C-IOB_82_GBIN4-Pad52)*%
X140750000Y-102662500D03*
%TO.P,U601,53*%
%TO.N,GND*%
X141250000Y-102662500D03*
%TO.P,U601,54*%
%TO.N,/FPGA_SDRAM/VCCPLL0*%
X141750000Y-102662500D03*
%TO.P,U601,55*%
%TO.N,unconnected-(U601C-IOB_91-Pad55)*%
X142250001Y-102662500D03*
%TO.P,U601,56*%
%TO.N,unconnected-(U601C-IOB_94-Pad56)*%
X142750001Y-102662500D03*
%TO.P,U601,57*%
%TO.N,+3V3*%
X143250001Y-102662500D03*
%TO.P,U601,58*%
%TO.N,unconnected-(U601E-NC-Pad58)*%
X143750001Y-102662500D03*
%TO.P,U601,59*%
%TO.N,GND*%
X144250001Y-102662500D03*
%TO.P,U601,60*%
%TO.N,unconnected-(U601C-IOB_95-Pad60)*%
X144750001Y-102662500D03*
%TO.P,U601,61*%
%TO.N,unconnected-(U601C-IOB_96-Pad61)*%
X145250001Y-102662500D03*
%TO.P,U601,62*%
%TO.N,unconnected-(U601C-IOB_102-Pad62)*%
X145750001Y-102662500D03*
%TO.P,U601,63*%
%TO.N,unconnected-(U601C-IOB_103_CBSEL0-Pad63)*%
X146250001Y-102662500D03*
%TO.P,U601,64*%
%TO.N,unconnected-(U601C-IOB_104_CBSEL1-Pad64)*%
X146750001Y-102662500D03*
%TO.P,U601,65*%
%TO.N,FPGA_CDONE*%
X147250001Y-102662500D03*
%TO.P,U601,66*%
%TO.N,FPGA_CRESET_N*%
X147750001Y-102662500D03*
%TO.P,U601,67*%
%TO.N,SPI_MOSI*%
X148250001Y-102662500D03*
%TO.P,U601,68*%
%TO.N,SPI_MISO*%
X148750001Y-102662500D03*
%TO.P,U601,69*%
%TO.N,GND*%
X149250001Y-102662500D03*
%TO.P,U601,70*%
%TO.N,SPI_SCK*%
X149750001Y-102662500D03*
%TO.P,U601,71*%
%TO.N,SPI_SS_N*%
X150250001Y-102662500D03*
%TO.P,U601,72*%
%TO.N,+3V3*%
X150750001Y-102662500D03*
D42*
%TO.P,U601,73*%
%TO.N,/FPGA_SDRAM/SD_DQ0*%
X152662501Y-100750000D03*
%TO.P,U601,74*%
%TO.N,/FPGA_SDRAM/SD_DQ1*%
X152662501Y-100250000D03*
%TO.P,U601,75*%
%TO.N,/FPGA_SDRAM/SD_DQ2*%
X152662501Y-99750000D03*
%TO.P,U601,76*%
%TO.N,/FPGA_SDRAM/SD_DQ3*%
X152662501Y-99250000D03*
%TO.P,U601,77*%
%TO.N,unconnected-(U601E-NC-Pad77)*%
X152662501Y-98750000D03*
%TO.P,U601,78*%
%TO.N,/FPGA_SDRAM/SD_DQ4*%
X152662501Y-98250000D03*
%TO.P,U601,79*%
%TO.N,/FPGA_SDRAM/SD_DQ5*%
X152662501Y-97750000D03*
%TO.P,U601,80*%
%TO.N,/FPGA_SDRAM/SD_DQ6*%
X152662501Y-97250000D03*
%TO.P,U601,81*%
%TO.N,/FPGA_SDRAM/SD_DQ7*%
X152662501Y-96750000D03*
%TO.P,U601,82*%
%TO.N,/FPGA_SDRAM/SD_DQ8*%
X152662501Y-96250000D03*
%TO.P,U601,83*%
%TO.N,/FPGA_SDRAM/SD_DQ9*%
X152662501Y-95750000D03*
%TO.P,U601,84*%
%TO.N,/FPGA_SDRAM/SD_DQ10*%
X152662501Y-95250000D03*
%TO.P,U601,85*%
%TO.N,/FPGA_SDRAM/SD_DQ11*%
X152662501Y-94750000D03*
%TO.P,U601,86*%
%TO.N,GND*%
X152662501Y-94250000D03*
%TO.P,U601,87*%
%TO.N,/FPGA_SDRAM/SD_DQ12*%
X152662501Y-93750000D03*
%TO.P,U601,88*%
%TO.N,/FPGA_SDRAM/SD_DQ13*%
X152662501Y-93250000D03*
%TO.P,U601,89*%
%TO.N,+3V3*%
X152662501Y-92750000D03*
%TO.P,U601,90*%
%TO.N,/FPGA_SDRAM/SD_DQ14*%
X152662501Y-92250000D03*
%TO.P,U601,91*%
%TO.N,/FPGA_SDRAM/SD_DQ15*%
X152662501Y-91750000D03*
%TO.P,U601,92*%
%TO.N,+1V2*%
X152662501Y-91250000D03*
%TO.P,U601,93*%
%TO.N,/FPGA_SDRAM/SD_A0*%
X152662501Y-90750000D03*
%TO.P,U601,94*%
%TO.N,/FPGA_SDRAM/SD_A1*%
X152662501Y-90250000D03*
%TO.P,U601,95*%
%TO.N,/FPGA_SDRAM/SD_A2*%
X152662501Y-89750000D03*
%TO.P,U601,96*%
%TO.N,/FPGA_SDRAM/SD_A3*%
X152662501Y-89250000D03*
%TO.P,U601,97*%
%TO.N,/FPGA_SDRAM/SD_A4*%
X152662501Y-88750000D03*
%TO.P,U601,98*%
%TO.N,/FPGA_SDRAM/SD_A5*%
X152662501Y-88250000D03*
%TO.P,U601,99*%
%TO.N,/FPGA_SDRAM/SD_A6*%
X152662501Y-87750000D03*
%TO.P,U601,100*%
%TO.N,+3V3*%
X152662501Y-87250000D03*
%TO.P,U601,101*%
%TO.N,/FPGA_SDRAM/SD_A7*%
X152662501Y-86750000D03*
%TO.P,U601,102*%
%TO.N,/FPGA_SDRAM/SD_A8*%
X152662501Y-86250000D03*
%TO.P,U601,103*%
%TO.N,GND*%
X152662501Y-85750000D03*
%TO.P,U601,104*%
%TO.N,/FPGA_SDRAM/SD_A9*%
X152662501Y-85250000D03*
%TO.P,U601,105*%
%TO.N,/FPGA_SDRAM/SD_A10*%
X152662501Y-84750000D03*
%TO.P,U601,106*%
%TO.N,/FPGA_SDRAM/SD_A11*%
X152662501Y-84250000D03*
%TO.P,U601,107*%
%TO.N,/FPGA_SDRAM/SD_BA0*%
X152662501Y-83750000D03*
%TO.P,U601,108*%
%TO.N,+3V3*%
X152662501Y-83250000D03*
D43*
%TO.P,U601,109*%
%TO.N,unconnected-(U601E-VPP_FAST-Pad109)*%
X150750001Y-81337500D03*
%TO.P,U601,110*%
%TO.N,FT_D0*%
X150250001Y-81337500D03*
%TO.P,U601,111*%
%TO.N,+1V2*%
X149750001Y-81337500D03*
%TO.P,U601,112*%
%TO.N,FT_D1*%
X149250001Y-81337500D03*
%TO.P,U601,113*%
%TO.N,FT_D2*%
X148750001Y-81337500D03*
%TO.P,U601,114*%
%TO.N,FT_D3*%
X148250001Y-81337500D03*
%TO.P,U601,115*%
%TO.N,FT_D4*%
X147750001Y-81337500D03*
%TO.P,U601,116*%
%TO.N,FT_D5*%
X147250001Y-81337500D03*
%TO.P,U601,117*%
%TO.N,FT_D6*%
X146750001Y-81337500D03*
%TO.P,U601,118*%
%TO.N,FT_D7*%
X146250001Y-81337500D03*
%TO.P,U601,119*%
%TO.N,FT_RXF_N*%
X145750001Y-81337500D03*
%TO.P,U601,120*%
%TO.N,FT_TXE_N*%
X145250001Y-81337500D03*
%TO.P,U601,121*%
%TO.N,FT_RD_N*%
X144750001Y-81337500D03*
%TO.P,U601,122*%
%TO.N,FT_WR_N*%
X144250001Y-81337500D03*
%TO.P,U601,123*%
%TO.N,+3V3*%
X143750001Y-81337500D03*
%TO.P,U601,124*%
%TO.N,FT_SIWU_N*%
X143250001Y-81337500D03*
%TO.P,U601,125*%
%TO.N,FT_OE_N*%
X142750001Y-81337500D03*
%TO.P,U601,126*%
%TO.N,/FPGA_SDRAM/VCCPLL1*%
X142250001Y-81337500D03*
%TO.P,U601,127*%
%TO.N,GND*%
X141750000Y-81337500D03*
%TO.P,U601,128*%
%TO.N,unconnected-(U601A-IOT_197_GBIN1-Pad128)*%
X141250000Y-81337500D03*
%TO.P,U601,129*%
%TO.N,FT_CLK*%
X140750000Y-81337500D03*
%TO.P,U601,130*%
%TO.N,unconnected-(U601A-IOT_206-Pad130)*%
X140250000Y-81337500D03*
%TO.P,U601,131*%
%TO.N,+3V3*%
X139750000Y-81337500D03*
%TO.P,U601,132*%
%TO.N,GND*%
X139250000Y-81337500D03*
%TO.P,U601,133*%
%TO.N,unconnected-(U601E-NC-Pad133)*%
X138750000Y-81337500D03*
%TO.P,U601,134*%
%TO.N,unconnected-(U601A-IOT_212-Pad134)*%
X138250000Y-81337500D03*
%TO.P,U601,135*%
%TO.N,/FPGA_SDRAM/SD_UDQM*%
X137750000Y-81337500D03*
%TO.P,U601,136*%
%TO.N,/FPGA_SDRAM/SD_LDQM*%
X137250000Y-81337500D03*
%TO.P,U601,137*%
%TO.N,/FPGA_SDRAM/SD_WE_N*%
X136750000Y-81337500D03*
%TO.P,U601,138*%
%TO.N,/FPGA_SDRAM/SD_CAS_N*%
X136250000Y-81337500D03*
%TO.P,U601,139*%
%TO.N,/FPGA_SDRAM/SD_RAS_N*%
X135750000Y-81337500D03*
%TO.P,U601,140*%
%TO.N,GND*%
X135250000Y-81337500D03*
%TO.P,U601,141*%
%TO.N,/FPGA_SDRAM/SD_CS_N*%
X134750000Y-81337500D03*
%TO.P,U601,142*%
%TO.N,/FPGA_SDRAM/SD_CKE*%
X134250000Y-81337500D03*
%TO.P,U601,143*%
%TO.N,/FPGA_SDRAM/SD_CLK_SRC*%
X133750000Y-81337500D03*
%TO.P,U601,144*%
%TO.N,/FPGA_SDRAM/SD_BA1*%
X133250000Y-81337500D03*
%TD*%
D19*
%TO.P,C108,1*%
%TO.N,+4V*%
X90725000Y-65500000D03*
%TO.P,C108,2*%
%TO.N,GND*%
X92275000Y-65500000D03*
%TD*%
D17*
%TO.P,R208,1*%
%TO.N,/AFE_B/FDA_OUTP*%
X109175000Y-110500000D03*
%TO.P,R208,2*%
%TO.N,/ADC/AINB_P*%
X110825000Y-110500000D03*
%TD*%
%TO.P,R206,1*%
%TO.N,/AFE_B/FDA_INN*%
X103175000Y-108000000D03*
%TO.P,R206,2*%
%TO.N,/AFE_B/FDA_OUTP*%
X104825000Y-108000000D03*
%TD*%
D16*
%TO.P,C406,1*%
%TO.N,/Power/CFLY_P*%
X80500000Y-94775000D03*
%TO.P,C406,2*%
%TO.N,/Power/CFLY_N*%
X80500000Y-93225000D03*
%TD*%
D20*
%TO.P,R604,1*%
%TO.N,+3V3*%
X161000000Y-110510000D03*
%TO.P,R604,2*%
%TO.N,FPGA_CDONE*%
X161000000Y-109490001D03*
%TD*%
D30*
%TO.P,D601,1*%
%TO.N,GND*%
X132212500Y-110000000D03*
%TO.P,D601,2*%
%TO.N,/FPGA_SDRAM/LED0_A*%
X133787500Y-110000000D03*
%TD*%
D17*
%TO.P,R109,1*%
%TO.N,/AFE_A/FDA_OUTN*%
X109175000Y-71500000D03*
%TO.P,R109,2*%
%TO.N,/ADC/AINA_N*%
X110825000Y-71500000D03*
%TD*%
D19*
%TO.P,C212,1*%
%TO.N,+4V*%
X99225000Y-118500000D03*
%TO.P,C212,2*%
%TO.N,GND*%
X100775000Y-118500000D03*
%TD*%
D30*
%TO.P,D602,1*%
%TO.N,GND*%
X132212500Y-112500000D03*
%TO.P,D602,2*%
%TO.N,/FPGA_SDRAM/LED1_A*%
X133787500Y-112500000D03*
%TD*%
D15*
%TO.P,C627,1*%
%TO.N,/FPGA_SDRAM/VCCPLL1*%
X145500000Y-76080000D03*
%TO.P,C627,2*%
%TO.N,GND*%
X145500000Y-75120000D03*
%TD*%
D10*
%TO.P,C211,1*%
%TO.N,+4V*%
X100020000Y-106000000D03*
%TO.P,C211,2*%
%TO.N,GND*%
X100980000Y-106000000D03*
%TD*%
D16*
%TO.P,C404,1*%
%TO.N,+1V2*%
X171500000Y-130775000D03*
%TO.P,C404,2*%
%TO.N,GND*%
X171500000Y-129225000D03*
%TD*%
D17*
%TO.P,R209,1*%
%TO.N,/AFE_B/FDA_OUTN*%
X109175000Y-113500000D03*
%TO.P,R209,2*%
%TO.N,/ADC/AINB_N*%
X110825000Y-113500000D03*
%TD*%
D10*
%TO.P,C107,1*%
%TO.N,+4V*%
X88020000Y-65500000D03*
%TO.P,C107,2*%
%TO.N,GND*%
X88980000Y-65500000D03*
%TD*%
D13*
%TO.P,C103,1*%
%TO.N,/AFE_A/DIV*%
X76650000Y-78000000D03*
%TO.P,C103,2*%
%TO.N,GND*%
X81350000Y-78000000D03*
%TD*%
D18*
%TO.P,R407,1*%
%TO.N,VEE*%
X88990000Y-94700000D03*
%TO.P,R407,2*%
%TO.N,/Power/FB_NEG*%
X90009999Y-94700000D03*
%TD*%
D10*
%TO.P,C304,1*%
%TO.N,/ADC/REFHA*%
X107820000Y-90100000D03*
%TO.P,C304,2*%
%TO.N,/ADC/REFLA*%
X108780000Y-90100000D03*
%TD*%
D11*
%TO.P,Y501,1*%
%TO.N,/USB/OSCI*%
X139900000Y-57850000D03*
%TO.P,Y501,2*%
%TO.N,GND*%
X142099999Y-57850000D03*
%TO.P,Y501,3*%
%TO.N,/USB/OSCO*%
X142099999Y-56150000D03*
%TO.P,Y501,4*%
%TO.N,GND*%
X139900000Y-56150000D03*
%TD*%
D16*
%TO.P,C405,1*%
%TO.N,+5V*%
X80500000Y-89775000D03*
%TO.P,C405,2*%
%TO.N,GND*%
X80500000Y-88225000D03*
%TD*%
D10*
%TO.P,C610,1*%
%TO.N,+3V3*%
X151520000Y-76500000D03*
%TO.P,C610,2*%
%TO.N,GND*%
X152480000Y-76500000D03*
%TD*%
%TO.P,C109,1*%
%TO.N,VEE*%
X87020000Y-76500000D03*
%TO.P,C109,2*%
%TO.N,GND*%
X87980000Y-76500000D03*
%TD*%
D19*
%TO.P,C204,1*%
%TO.N,/AFE_B/FDA_INN*%
X103225000Y-106000000D03*
%TO.P,C204,2*%
%TO.N,/AFE_B/FDA_OUTP*%
X104775000Y-106000000D03*
%TD*%
D10*
%TO.P,C312,1*%
%TO.N,+3V0*%
X113520000Y-81000000D03*
%TO.P,C312,2*%
%TO.N,GND*%
X114480000Y-81000000D03*
%TD*%
%TO.P,C609,1*%
%TO.N,+3V3*%
X153520000Y-108200000D03*
%TO.P,C609,2*%
%TO.N,GND*%
X154480000Y-108200000D03*
%TD*%
D18*
%TO.P,R301,1*%
%TO.N,+3V0*%
X112490000Y-99500000D03*
%TO.P,R301,2*%
%TO.N,/ADC/MODE*%
X113509999Y-99500000D03*
%TD*%
D10*
%TO.P,C508,1*%
%TO.N,/USB/V1V8_FT*%
X162520000Y-67500000D03*
%TO.P,C508,2*%
%TO.N,GND*%
X163480000Y-67500000D03*
%TD*%
D20*
%TO.P,R503,1*%
%TO.N,+3V3*%
X143500000Y-71510000D03*
%TO.P,R503,2*%
%TO.N,/USB/FT_RESET_N*%
X143500000Y-70490001D03*
%TD*%
D19*
%TO.P,C101,1*%
%TO.N,/AFE_A/IN*%
X71225000Y-64000000D03*
%TO.P,C101,2*%
%TO.N,/AFE_A/DIV*%
X72775000Y-64000000D03*
%TD*%
D26*
%TO.P,U101,1*%
%TO.N,/AFE_A/BUF_FB*%
X87525000Y-68095000D03*
%TO.P,U101,2*%
%TO.N,/AFE_A/BUF_INN*%
X87525000Y-69365000D03*
%TO.P,U101,3*%
%TO.N,/AFE_A/DIV*%
X87525000Y-70635000D03*
%TO.P,U101,4*%
%TO.N,VEE*%
X87525000Y-71905000D03*
%TO.P,U101,5*%
%TO.N,unconnected-(U101-Pad5)*%
X92474999Y-71905000D03*
%TO.P,U101,6*%
%TO.N,/AFE_A/BUF_OUT*%
X92474999Y-70635000D03*
%TO.P,U101,7*%
%TO.N,+4V*%
X92474999Y-69365000D03*
%TO.P,U101,8*%
X92474999Y-68095000D03*
D27*
%TO.P,U101,9*%
%TO.N,VEE*%
X90000000Y-70000000D03*
%TD*%
D44*
%TO.P,L401,1*%
%TO.N,/Power/SW*%
X172899999Y-122000000D03*
%TO.P,L401,2*%
%TO.N,+3V3*%
X175100000Y-122000000D03*
%TD*%
D45*
%TO.P,J101,1*%
%TO.N,/AFE_A/IN*%
X62700000Y-70000000D03*
D46*
%TO.P,J101,2*%
%TO.N,GND*%
X57620000Y-75080000D03*
D45*
X62700000Y-72540001D03*
D46*
X57620000Y-64920000D03*
%TD*%
D16*
%TO.P,C409,1*%
%TO.N,VEE*%
X93500000Y-95775000D03*
%TO.P,C409,2*%
%TO.N,GND*%
X93500000Y-94225000D03*
%TD*%
D47*
%TO.P,U603,1*%
%TO.N,SPI_SS_N*%
X146412500Y-110095000D03*
%TO.P,U603,2*%
%TO.N,SPI_MISO*%
X146412500Y-111365000D03*
%TO.P,U603,3*%
%TO.N,+3V3*%
X146412500Y-112635000D03*
%TO.P,U603,4*%
%TO.N,GND*%
X146412500Y-113905000D03*
%TO.P,U603,5*%
%TO.N,SPI_MOSI*%
X153587500Y-113905000D03*
%TO.P,U603,6*%
%TO.N,SPI_SCK*%
X153587500Y-112635000D03*
%TO.P,U603,7*%
%TO.N,+3V3*%
X153587500Y-111365000D03*
%TO.P,U603,8*%
X153587500Y-110095000D03*
%TD*%
D10*
%TO.P,C510,1*%
%TO.N,+3V3*%
X162520000Y-71500000D03*
%TO.P,C510,2*%
%TO.N,GND*%
X163480000Y-71500000D03*
%TD*%
D18*
%TO.P,R303,1*%
%TO.N,/ADC/OSC_OUT*%
X112990000Y-97500000D03*
%TO.P,R303,2*%
%TO.N,/ADC/ADC_CLK*%
X114009999Y-97500000D03*
%TD*%
D10*
%TO.P,C305,1*%
%TO.N,/ADC/REFHA*%
X107820000Y-91900000D03*
%TO.P,C305,2*%
%TO.N,GND*%
X108780000Y-91900000D03*
%TD*%
D19*
%TO.P,C505,1*%
%TO.N,/USB/V1V8_FT*%
X162225000Y-61500000D03*
%TO.P,C505,2*%
%TO.N,GND*%
X163775000Y-61500000D03*
%TD*%
D10*
%TO.P,C513,1*%
%TO.N,+3V3*%
X150520000Y-58400000D03*
%TO.P,C513,2*%
%TO.N,GND*%
X151480000Y-58400000D03*
%TD*%
%TO.P,C602,1*%
%TO.N,+1V2*%
X155020000Y-106000000D03*
%TO.P,C602,2*%
%TO.N,GND*%
X155980000Y-106000000D03*
%TD*%
D19*
%TO.P,C509,1*%
%TO.N,+3V3*%
X162225000Y-69500000D03*
%TO.P,C509,2*%
%TO.N,GND*%
X163775000Y-69500000D03*
%TD*%
D10*
%TO.P,C616,1*%
%TO.N,+3V3*%
X178520000Y-86000000D03*
%TO.P,C616,2*%
%TO.N,GND*%
X179480000Y-86000000D03*
%TD*%
D19*
%TO.P,C410,1*%
%TO.N,+5V*%
X96225000Y-84500000D03*
%TO.P,C410,2*%
%TO.N,GND*%
X97775000Y-84500000D03*
%TD*%
D10*
%TO.P,C512,1*%
%TO.N,+3V3*%
X147920000Y-58400000D03*
%TO.P,C512,2*%
%TO.N,GND*%
X148880000Y-58400000D03*
%TD*%
D18*
%TO.P,R507,1*%
%TO.N,+3V3*%
X163990000Y-57000000D03*
%TO.P,R507,2*%
%TO.N,/USB/EEDATA*%
X165009999Y-57000000D03*
%TD*%
D19*
%TO.P,C104,1*%
%TO.N,/AFE_A/FDA_INN*%
X103225000Y-64000000D03*
%TO.P,C104,2*%
%TO.N,/AFE_A/FDA_OUTP*%
X104775000Y-64000000D03*
%TD*%
D18*
%TO.P,R506,1*%
%TO.N,+3V3*%
X163990000Y-55000000D03*
%TO.P,R506,2*%
%TO.N,/USB/EECLK*%
X165009999Y-55000000D03*
%TD*%
D19*
%TO.P,C210,1*%
%TO.N,VEE*%
X90725000Y-118500000D03*
%TO.P,C210,2*%
%TO.N,GND*%
X92275000Y-118500000D03*
%TD*%
D10*
%TO.P,C603,1*%
%TO.N,+1V2*%
X155020000Y-78500000D03*
%TO.P,C603,2*%
%TO.N,GND*%
X155980000Y-78500000D03*
%TD*%
D17*
%TO.P,R103,1*%
%TO.N,/AFE_A/BUF_INN*%
X89175000Y-74500000D03*
%TO.P,R103,2*%
%TO.N,/AFE_A/BUF_FB*%
X90825000Y-74500000D03*
%TD*%
D41*
%TO.P,U102,1*%
%TO.N,/AFE_A/FDA_INN*%
X101887500Y-69025000D03*
%TO.P,U102,2*%
%TO.N,/ADC/VCMA*%
X101887500Y-69675000D03*
%TO.P,U102,3*%
%TO.N,+4V*%
X101887500Y-70325000D03*
%TO.P,U102,4*%
%TO.N,/AFE_A/FDA_OUTP*%
X101887500Y-70975000D03*
%TO.P,U102,5*%
%TO.N,/AFE_A/FDA_OUTN*%
X106112500Y-70975000D03*
%TO.P,U102,6*%
%TO.N,GND*%
X106112500Y-70325000D03*
%TO.P,U102,7*%
%TO.N,+4V*%
X106112500Y-69675000D03*
%TO.P,U102,8*%
%TO.N,/AFE_A/FDA_INP*%
X106112500Y-69025000D03*
%TD*%
D10*
%TO.P,C607,1*%
%TO.N,+3V3*%
X131520000Y-108000000D03*
%TO.P,C607,2*%
%TO.N,GND*%
X132480000Y-108000000D03*
%TD*%
%TO.P,C511,1*%
%TO.N,+3V3*%
X145320000Y-58400000D03*
%TO.P,C511,2*%
%TO.N,GND*%
X146280000Y-58400000D03*
%TD*%
D20*
%TO.P,R502,1*%
%TO.N,/USB/FT_REF*%
X143500000Y-62810000D03*
%TO.P,R502,2*%
%TO.N,GND*%
X143500000Y-61790001D03*
%TD*%
D10*
%TO.P,C601,1*%
%TO.N,+1V2*%
X127520000Y-106000000D03*
%TO.P,C601,2*%
%TO.N,GND*%
X128480000Y-106000000D03*
%TD*%
D45*
%TO.P,J201,1*%
%TO.N,/AFE_B/IN*%
X62700000Y-112000000D03*
D46*
%TO.P,J201,2*%
%TO.N,GND*%
X57620000Y-117080000D03*
D45*
X62700000Y-114540001D03*
D46*
X57620000Y-106920000D03*
%TD*%
D48*
%TO.P,U502,1*%
%TO.N,GND*%
X146324999Y-63250000D03*
%TO.P,U502,2*%
%TO.N,/USB/OSCI*%
X146324999Y-63750000D03*
%TO.P,U502,3*%
%TO.N,/USB/OSCO*%
X146324999Y-64250000D03*
%TO.P,U502,4*%
%TO.N,+3V3*%
X146324999Y-64750000D03*
%TO.P,U502,5*%
%TO.N,GND*%
X146324999Y-65250000D03*
%TO.P,U502,6*%
%TO.N,/USB/FT_REF*%
X146324999Y-65750000D03*
%TO.P,U502,7*%
%TO.N,/USB/USB_DM*%
X146324999Y-66250000D03*
%TO.P,U502,8*%
%TO.N,/USB/USB_DP*%
X146324999Y-66750000D03*
%TO.P,U502,9*%
%TO.N,+3V3*%
X146324999Y-67250000D03*
%TO.P,U502,10*%
%TO.N,GND*%
X146324999Y-67750000D03*
%TO.P,U502,11*%
X146324999Y-68250000D03*
%TO.P,U502,12*%
%TO.N,/USB/V1V8_FT*%
X146324999Y-68750000D03*
%TO.P,U502,13*%
%TO.N,GND*%
X146324999Y-69250000D03*
%TO.P,U502,14*%
%TO.N,/USB/FT_RESET_N*%
X146324999Y-69750000D03*
%TO.P,U502,15*%
%TO.N,GND*%
X146324999Y-70250000D03*
%TO.P,U502,16*%
%TO.N,FT_D0*%
X146324999Y-70750000D03*
D49*
%TO.P,U502,17*%
%TO.N,FT_D1*%
X148249999Y-72675000D03*
%TO.P,U502,18*%
%TO.N,FT_D2*%
X148750000Y-72675000D03*
%TO.P,U502,19*%
%TO.N,FT_D3*%
X149250000Y-72675000D03*
%TO.P,U502,20*%
%TO.N,+3V3*%
X149750000Y-72675000D03*
%TO.P,U502,21*%
%TO.N,FT_D4*%
X150250000Y-72675000D03*
%TO.P,U502,22*%
%TO.N,FT_D5*%
X150750000Y-72675000D03*
%TO.P,U502,23*%
%TO.N,FT_D6*%
X151250000Y-72675000D03*
%TO.P,U502,24*%
%TO.N,FT_D7*%
X151750000Y-72675000D03*
%TO.P,U502,25*%
%TO.N,GND*%
X152250000Y-72675000D03*
%TO.P,U502,26*%
%TO.N,FT_RXF_N*%
X152750000Y-72675000D03*
%TO.P,U502,27*%
%TO.N,FT_TXE_N*%
X153250000Y-72675000D03*
%TO.P,U502,28*%
%TO.N,FT_RD_N*%
X153750000Y-72675000D03*
%TO.P,U502,29*%
%TO.N,FT_WR_N*%
X154250000Y-72675000D03*
%TO.P,U502,30*%
%TO.N,FT_SIWU_N*%
X154750000Y-72675000D03*
%TO.P,U502,31*%
%TO.N,+3V3*%
X155250000Y-72675000D03*
%TO.P,U502,32*%
%TO.N,FT_CLK*%
X155750000Y-72675000D03*
D48*
%TO.P,U502,33*%
%TO.N,FT_OE_N*%
X157675000Y-70750000D03*
%TO.P,U502,34*%
%TO.N,unconnected-(U502-ACBUS7-Pad34)*%
X157675000Y-70250000D03*
%TO.P,U502,35*%
%TO.N,GND*%
X157675000Y-69750000D03*
%TO.P,U502,36*%
%TO.N,unconnected-(U502-~{SUSPEND}-Pad36)*%
X157675000Y-69250000D03*
%TO.P,U502,37*%
%TO.N,/USB/V1V8_FT*%
X157675000Y-68750000D03*
%TO.P,U502,38*%
%TO.N,SPI_SCK*%
X157675000Y-68250000D03*
%TO.P,U502,39*%
%TO.N,SPI_MOSI*%
X157675000Y-67750000D03*
%TO.P,U502,40*%
%TO.N,SPI_MISO*%
X157675000Y-67250000D03*
%TO.P,U502,41*%
%TO.N,unconnected-(U502-BDBUS3-Pad41)*%
X157675000Y-66750000D03*
%TO.P,U502,42*%
%TO.N,+3V3*%
X157675000Y-66250000D03*
%TO.P,U502,43*%
%TO.N,SPI_SS_N*%
X157675000Y-65750000D03*
%TO.P,U502,44*%
%TO.N,unconnected-(U502-BDBUS5-Pad44)*%
X157675000Y-65250000D03*
%TO.P,U502,45*%
%TO.N,FPGA_CDONE*%
X157675000Y-64750000D03*
%TO.P,U502,46*%
%TO.N,FPGA_CRESET_N*%
X157675000Y-64250000D03*
%TO.P,U502,47*%
%TO.N,GND*%
X157675000Y-63750000D03*
%TO.P,U502,48*%
%TO.N,unconnected-(U502-BCBUS0-Pad48)*%
X157675000Y-63250000D03*
D49*
%TO.P,U502,49*%
%TO.N,/USB/V1V8_FT*%
X155750000Y-61325000D03*
%TO.P,U502,50*%
%TO.N,+3V3*%
X155250000Y-61325000D03*
%TO.P,U502,51*%
%TO.N,GND*%
X154750000Y-61325000D03*
%TO.P,U502,52*%
%TO.N,unconnected-(U502-BCBUS1-Pad52)*%
X154250000Y-61325000D03*
%TO.P,U502,53*%
%TO.N,unconnected-(U502-BCBUS2-Pad53)*%
X153750000Y-61325000D03*
%TO.P,U502,54*%
%TO.N,unconnected-(U502-BCBUS3-Pad54)*%
X153250000Y-61325000D03*
%TO.P,U502,55*%
%TO.N,unconnected-(U502-BCBUS4-Pad55)*%
X152750000Y-61325000D03*
%TO.P,U502,56*%
%TO.N,+3V3*%
X152250000Y-61325000D03*
%TO.P,U502,57*%
%TO.N,unconnected-(U502-BCBUS5-Pad57)*%
X151750000Y-61325000D03*
%TO.P,U502,58*%
%TO.N,unconnected-(U502-BCBUS6-Pad58)*%
X151250000Y-61325000D03*
%TO.P,U502,59*%
%TO.N,unconnected-(U502-BCBUS7-Pad59)*%
X150750000Y-61325000D03*
%TO.P,U502,60*%
%TO.N,PWREN_N*%
X150250000Y-61325000D03*
%TO.P,U502,61*%
%TO.N,/USB/EEDATA*%
X149750000Y-61325000D03*
%TO.P,U502,62*%
%TO.N,/USB/EECLK*%
X149250000Y-61325000D03*
%TO.P,U502,63*%
%TO.N,/USB/EECS*%
X148750000Y-61325000D03*
%TO.P,U502,64*%
%TO.N,/USB/V1V8_FT*%
X148249999Y-61325000D03*
%TD*%
D50*
%TO.N,+3V3*%
X129900000Y-97750000D03*
X162500000Y-130925000D03*
X155100000Y-110095000D03*
X129900000Y-85750000D03*
X163250000Y-81670999D03*
X144849999Y-67250000D03*
X141049999Y-64250000D03*
X163020000Y-55000000D03*
X177540000Y-94000000D03*
X154100001Y-83250000D03*
X161000000Y-111480000D03*
X176200000Y-122000000D03*
X159150000Y-66250000D03*
X154040000Y-81500000D03*
X157000000Y-111480000D03*
X146940000Y-57400000D03*
X177540000Y-84000000D03*
X174520000Y-126500000D03*
X177540000Y-86500000D03*
X177540000Y-88000000D03*
X176204999Y-91400000D03*
X155250000Y-74149999D03*
X148540000Y-117000000D03*
X177540000Y-90000000D03*
X177540000Y-92000000D03*
X164500000Y-129949999D03*
X154100001Y-87250000D03*
X165750000Y-83271000D03*
X155100000Y-111365000D03*
X177540000Y-96000000D03*
X161075000Y-69500000D03*
X163020000Y-57000000D03*
X164500000Y-128050000D03*
X178500000Y-124150000D03*
X152140000Y-57400000D03*
X156000000Y-135480000D03*
X154100001Y-92750000D03*
X149540000Y-57400000D03*
X159000000Y-111480000D03*
X130540000Y-107000000D03*
X152540000Y-109200000D03*
X160149998Y-52495000D03*
X163020000Y-53000000D03*
X163250000Y-104329000D03*
X128540000Y-108000000D03*
X143500000Y-72480000D03*
X144900000Y-112635000D03*
X161795000Y-89000000D03*
X123850000Y-108500000D03*
X144340000Y-58400000D03*
X137750000Y-104100000D03*
X161795000Y-93000000D03*
X160149998Y-55035000D03*
X143750001Y-79900000D03*
X179000000Y-101650000D03*
X140250000Y-76800000D03*
X143250001Y-104100000D03*
X161540000Y-71500000D03*
X151750000Y-59850000D03*
X148540000Y-105500000D03*
X150540000Y-108000000D03*
X149750000Y-74149999D03*
X164000000Y-135480000D03*
X170625000Y-122325000D03*
X177249999Y-85670999D03*
X174520000Y-131000000D03*
X150540000Y-76500000D03*
X150750001Y-104100000D03*
X156040000Y-59200000D03*
X152540000Y-75500000D03*
%TO.N,GND*%
X118383333Y-88616666D03*
X133459999Y-108000000D03*
X180459999Y-90000000D03*
X141250000Y-104100000D03*
X144849999Y-63250000D03*
X149860000Y-59400000D03*
X90979998Y-89300000D03*
X144250001Y-104100000D03*
X80500000Y-87075000D03*
X107625000Y-70325000D03*
X93425000Y-76500000D03*
X101960000Y-106000000D03*
X129900000Y-90250000D03*
X164459999Y-65500000D03*
X159150000Y-63750000D03*
X163375000Y-121025000D03*
X165750000Y-85670999D03*
X79000000Y-71075000D03*
X123460000Y-82500000D03*
X129459999Y-78500000D03*
X177249999Y-83271000D03*
X115460000Y-82000000D03*
X112250000Y-85425000D03*
X109760000Y-93700000D03*
X178500000Y-119850000D03*
X131459999Y-109000000D03*
X116000000Y-88616666D03*
X138500000Y-56150000D03*
X93425000Y-65500000D03*
X139000000Y-73450000D03*
X174749999Y-104329000D03*
X110225000Y-86500000D03*
X180459999Y-92000000D03*
X126950000Y-81000000D03*
X93425000Y-107500000D03*
X119499999Y-101950000D03*
X111760000Y-98600000D03*
X180459999Y-84000000D03*
X95075000Y-113500000D03*
X144300000Y-107539999D03*
X179000000Y-97350000D03*
X164500000Y-129000000D03*
X116000000Y-57575000D03*
X154100001Y-85750000D03*
X156959999Y-106000000D03*
X156959999Y-81500000D03*
X137300000Y-57459999D03*
X174749999Y-81670999D03*
X131075000Y-112500000D03*
X93500000Y-86075000D03*
X90979998Y-96500000D03*
X180459999Y-86000000D03*
X135500000Y-66000000D03*
X144849999Y-71250000D03*
X89960000Y-66500000D03*
X160149998Y-56305000D03*
X155060000Y-58400000D03*
X109760000Y-91900000D03*
X144700000Y-57459999D03*
X151459999Y-117000000D03*
X126800000Y-84750000D03*
X77000000Y-71075000D03*
X159062500Y-135950000D03*
X149250001Y-104100000D03*
X121460000Y-82000000D03*
X119460000Y-82000000D03*
X139200000Y-106850000D03*
X151459999Y-105500000D03*
X155459999Y-108200000D03*
X144849999Y-70250000D03*
X141750000Y-79900000D03*
X79000000Y-113075000D03*
X153459999Y-107000000D03*
X116000000Y-91000000D03*
X164459999Y-67500000D03*
X145500000Y-74140000D03*
X152250000Y-74149999D03*
X143499999Y-57850000D03*
X144849999Y-68250000D03*
X144849999Y-69250000D03*
X114479998Y-101300000D03*
X180459999Y-88000000D03*
X176204999Y-89000000D03*
X176204999Y-93000000D03*
X93425000Y-118500000D03*
X164925000Y-61500000D03*
X109760000Y-100100000D03*
X162000000Y-119850000D03*
X164459999Y-71500000D03*
X163375000Y-122975000D03*
X88960000Y-118500000D03*
X89960000Y-108500000D03*
X135250000Y-79900000D03*
X154100001Y-94250000D03*
X133149999Y-76500000D03*
X101960000Y-64000000D03*
X112250000Y-96575000D03*
X106725000Y-99100000D03*
X171500000Y-128074999D03*
X113616666Y-91000000D03*
X118383333Y-93383333D03*
X154750000Y-59850000D03*
X178075000Y-131000000D03*
X129900000Y-89250000D03*
X101925000Y-118500000D03*
X139250000Y-79900000D03*
X128150000Y-109000000D03*
X164925000Y-69500000D03*
X117460000Y-82000000D03*
X98925000Y-84500000D03*
X152459999Y-59400000D03*
X164459999Y-63500000D03*
X113616666Y-88616666D03*
X177479999Y-128300000D03*
X95075000Y-71500000D03*
X88960000Y-76500000D03*
X144849999Y-65250000D03*
X143500000Y-60820001D03*
X153459999Y-77500000D03*
X93500000Y-93075000D03*
X101925000Y-76500000D03*
X113460000Y-82000000D03*
X162500000Y-127074999D03*
X115000000Y-54074999D03*
X86925000Y-97500000D03*
X156959999Y-78500000D03*
X131075000Y-110000000D03*
X180459999Y-94000000D03*
X97500000Y-88000000D03*
X161795000Y-91400000D03*
X144900000Y-113905000D03*
X121000000Y-99039999D03*
X147260000Y-59400000D03*
X83199999Y-120000000D03*
X77000000Y-113075000D03*
X118383333Y-91000000D03*
X113616666Y-93383333D03*
X116000000Y-93383333D03*
X159150000Y-69750000D03*
X129459999Y-106000000D03*
X107625000Y-112325000D03*
X155459999Y-76500000D03*
X104425000Y-84500000D03*
X83199999Y-78000000D03*
X127460000Y-71000000D03*
X158959999Y-59200000D03*
X180459999Y-96000000D03*
%TO.N,+3V0*%
X114912700Y-83294100D03*
X110664000Y-90250000D03*
X113100000Y-96328300D03*
X120276400Y-85860900D03*
X115230800Y-96965500D03*
%TO.N,+4V*%
X89884900Y-88399900D03*
X96296700Y-115675700D03*
X93920200Y-69174500D03*
X88958800Y-91316300D03*
X89077600Y-97923400D03*
%TO.N,/AFE_B/DIV*%
X84839300Y-105853100D03*
X83443200Y-112635000D03*
X81040500Y-115037700D03*
%TO.N,/AFE_A/FDA_OUTP*%
X103227400Y-66954100D03*
X101920400Y-71686200D03*
%TO.N,/ADC/AINB_P*%
X111051500Y-109557700D03*
X111520900Y-95359500D03*
%TO.N,/ADC/AINB_N*%
X111498300Y-96120600D03*
X112500000Y-110307000D03*
%TO.N,/FPGA_SDRAM/SD_CLK_SRC*%
X150977000Y-94668700D03*
X155492800Y-100578900D03*
%TO.N,/FPGA_SDRAM/SD_CLK*%
X170851600Y-95107500D03*
X159738000Y-100000000D03*
%TO.N,+5V*%
X163082400Y-122162200D03*
X128222400Y-79293100D03*
%TO.N,/Power/FB_POS*%
X84740800Y-88838100D03*
X83292200Y-91250000D03*
%TO.N,/Power/CP_NEG*%
X83244000Y-94197500D03*
X83306200Y-97500000D03*
%TO.N,/Power/CFLY_N*%
X82925400Y-93225000D03*
X86659900Y-92253500D03*
%TO.N,/Power/CFLY_P*%
X87691200Y-91901800D03*
X84294800Y-94775000D03*
%TO.N,/ADC/REFLA*%
X106751900Y-93192000D03*
X109525600Y-90100000D03*
%TO.N,/ADC/VCMA*%
X99526300Y-69675000D03*
X102797000Y-86679500D03*
X113750000Y-85041100D03*
%TO.N,SPI_SS_N*%
X159775800Y-66706400D03*
X157775800Y-108813900D03*
%TO.N,/USB/VBUS*%
X138000000Y-68445000D03*
X138000000Y-66000000D03*
%TO.N,+1V2*%
X142272700Y-105532400D03*
X132798900Y-94917500D03*
X154530300Y-90861400D03*
X157863200Y-107031900D03*
X146439000Y-75390300D03*
X152544300Y-78444300D03*
X143749700Y-95114500D03*
X129899900Y-96186500D03*
X146845100Y-84727700D03*
%TO.N,/AFE_B/BUF_FB*%
X88972400Y-110026500D03*
X90040000Y-115870100D03*
%TO.N,/AFE_B/BUF_INN*%
X88646500Y-115623200D03*
X85121300Y-111365000D03*
%TO.N,/ADC/VCMB*%
X115763300Y-98043800D03*
X103301300Y-98376300D03*
X103179800Y-111162700D03*
%TO.N,/FPGA_SDRAM/SD_DQ0*%
X159024100Y-83400000D03*
X153751100Y-101145700D03*
%TO.N,/FPGA_SDRAM/SD_DQ1*%
X160742400Y-100509100D03*
X161940100Y-85253500D03*
%TO.N,/FPGA_SDRAM/SD_DQ2*%
X162024900Y-95325000D03*
X161271600Y-86244300D03*
%TO.N,/FPGA_SDRAM/SD_DQ3*%
X150821200Y-99250000D03*
X154887500Y-87621200D03*
%TO.N,/FPGA_SDRAM/SD_DQ4*%
X161231600Y-88200000D03*
X154473500Y-97972200D03*
X155338600Y-95417900D03*
X160487500Y-93383300D03*
%TO.N,/FPGA_SDRAM/SD_DQ5*%
X153868500Y-97384100D03*
X155753000Y-88534500D03*
%TO.N,/FPGA_SDRAM/SD_DQ6*%
X151165000Y-97250000D03*
X154903100Y-88385700D03*
%TO.N,/FPGA_SDRAM/SD_DQ7*%
X164467300Y-92200000D03*
X161538200Y-94722200D03*
%TO.N,/FPGA_SDRAM/SD_LDQM*%
X160477000Y-94153000D03*
X158208200Y-82692500D03*
%TO.N,/FPGA_SDRAM/SD_WE_N*%
X170404600Y-92159900D03*
X137787400Y-80121400D03*
%TO.N,/FPGA_SDRAM/SD_CAS_N*%
X136685100Y-82528200D03*
X156303500Y-107736500D03*
X147897100Y-97481900D03*
X142786300Y-95569200D03*
X161644300Y-96028400D03*
X156549100Y-98327700D03*
X164463200Y-95400000D03*
X154339200Y-107338800D03*
%TO.N,/FPGA_SDRAM/SD_RAS_N*%
X149001000Y-86005500D03*
X168710600Y-95136800D03*
%TO.N,/FPGA_SDRAM/SD_CS_N*%
X158907700Y-97375900D03*
X149187400Y-87931000D03*
%TO.N,/FPGA_SDRAM/SD_BA0*%
X160424400Y-97898000D03*
X154553900Y-84018500D03*
%TO.N,/FPGA_SDRAM/SD_BA1*%
X150398000Y-95683000D03*
X155574900Y-98849600D03*
%TO.N,/FPGA_SDRAM/SD_A10*%
X161203400Y-99400000D03*
X151470900Y-84729400D03*
%TO.N,/FPGA_SDRAM/SD_A0*%
X161503800Y-100200000D03*
X151464000Y-92563200D03*
%TO.N,/FPGA_SDRAM/SD_A1*%
X153869900Y-89812600D03*
X158821500Y-101085700D03*
X154794200Y-93226800D03*
X156097700Y-93169600D03*
%TO.N,/FPGA_SDRAM/SD_A2*%
X150598500Y-90838300D03*
X151471400Y-99961400D03*
%TO.N,/FPGA_SDRAM/SD_A3*%
X161376200Y-102600000D03*
X155284200Y-90557000D03*
%TO.N,/FPGA_SDRAM/SD_A4*%
X151407800Y-88751600D03*
X154680300Y-105221800D03*
%TO.N,/FPGA_SDRAM/SD_A5*%
X146109700Y-89727600D03*
X173528500Y-101724400D03*
%TO.N,/FPGA_SDRAM/SD_A6*%
X158207900Y-90401000D03*
X164473400Y-100272600D03*
%TO.N,/FPGA_SDRAM/SD_A7*%
X158207900Y-86956000D03*
X166645600Y-99860400D03*
%TO.N,/FPGA_SDRAM/SD_A8*%
X167244000Y-99285900D03*
X161912900Y-86818000D03*
%TO.N,/FPGA_SDRAM/SD_A9*%
X168154600Y-96185600D03*
X159752900Y-85585000D03*
%TO.N,/FPGA_SDRAM/SD_A11*%
X167591400Y-97800000D03*
X161138800Y-85218100D03*
%TO.N,/FPGA_SDRAM/SD_CKE*%
X148405500Y-86629300D03*
X170499900Y-96200000D03*
%TO.N,/FPGA_SDRAM/SD_UDQM*%
X164187000Y-80382700D03*
X170851600Y-94346100D03*
%TO.N,/FPGA_SDRAM/SD_DQ8*%
X173513100Y-92200000D03*
X154709100Y-104444700D03*
X166531600Y-104714300D03*
X151441000Y-96250000D03*
%TO.N,/FPGA_SDRAM/SD_DQ9*%
X165643700Y-91127100D03*
X159752500Y-94598600D03*
%TO.N,/FPGA_SDRAM/SD_DQ10*%
X151368800Y-95344300D03*
X172321300Y-89506400D03*
X162026100Y-103271200D03*
X154007100Y-103271200D03*
%TO.N,/FPGA_SDRAM/SD_DQ11*%
X159832200Y-91898700D03*
X167094400Y-88909600D03*
%TO.N,/FPGA_SDRAM/SD_DQ12*%
X168180200Y-87846600D03*
X147976400Y-92089900D03*
%TO.N,/FPGA_SDRAM/SD_DQ13*%
X164475200Y-91228200D03*
X160415500Y-91329200D03*
%TO.N,/FPGA_SDRAM/SD_DQ14*%
X165493100Y-88012500D03*
X160042600Y-90041700D03*
%TO.N,/FPGA_SDRAM/SD_DQ15*%
X157856200Y-91316800D03*
X158403500Y-81540200D03*
%TO.N,/USB/USB_DP*%
X129600000Y-66599999D03*
%TO.N,PWREN_N*%
X150958000Y-60084400D03*
X155219700Y-133190700D03*
%TO.N,/FPGA_SDRAM/TRIG_IN*%
X139250000Y-103852700D03*
%TO.N,/FPGA_SDRAM/GPIO0*%
X133203000Y-101452800D03*
%TO.N,/FPGA_SDRAM/GPIO1*%
X134599400Y-101460900D03*
%TO.N,/FPGA_SDRAM/GPIO2*%
X135750000Y-105566800D03*
%TO.N,/FPGA_SDRAM/GPIO3*%
X134371400Y-104739500D03*
%TO.N,/FPGA_SDRAM/GPIO4*%
X136750000Y-101454400D03*
%TO.N,/FPGA_SDRAM/GPIO5*%
X136844000Y-103859900D03*
%TO.N,/ADC/AINA_P*%
X111021700Y-69926100D03*
X110483100Y-85241100D03*
%TO.N,/ADC/AINA_N*%
X110668800Y-87750000D03*
X110929300Y-72449200D03*
%TO.N,FPGA_CRESET_N*%
X147750100Y-101465900D03*
X156437400Y-64250000D03*
%TO.N,/USB/EECS*%
X148543000Y-60079900D03*
X151599300Y-52495000D03*
%TO.N,/USB/EECLK*%
X155796500Y-54152000D03*
X156360200Y-62387000D03*
%TO.N,CLK_10M*%
X121577500Y-102723400D03*
X132808600Y-92811600D03*
%TO.N,/ADC/ADC_CLK*%
X110585700Y-91096200D03*
X114010000Y-98278100D03*
%TO.N,ADC_B0*%
X116760700Y-96328600D03*
X122983500Y-89181800D03*
%TO.N,ADC_B1*%
X132552000Y-93747300D03*
X117247800Y-97229400D03*
%TO.N,ADC_B2*%
X133328000Y-94248200D03*
X118553200Y-97633600D03*
%TO.N,ADC_B3*%
X121297800Y-95213100D03*
X118325800Y-96732600D03*
%TO.N,ADC_B4*%
X132786500Y-96716400D03*
X119004200Y-96346200D03*
%TO.N,ADC_B6*%
X122904500Y-94381700D03*
X125150500Y-96629300D03*
%TO.N,ADC_B7*%
X124804000Y-94012100D03*
X126661400Y-97188200D03*
%TO.N,ADC_B8*%
X129322100Y-93748700D03*
X132649900Y-98183500D03*
%TO.N,ADC_B9*%
X134074800Y-98750000D03*
X130115000Y-93264700D03*
%TO.N,ADC_B10*%
X126273000Y-92361200D03*
X130058800Y-98682400D03*
%TO.N,ADC_B11*%
X130018500Y-99434200D03*
X125625000Y-91750000D03*
%TO.N,ADC_OFB*%
X127779200Y-91188400D03*
X129983100Y-91082200D03*
%TO.N,ADC_A0*%
X122771200Y-90175200D03*
X128199900Y-83835000D03*
%TO.N,ADC_A1*%
X122556900Y-84014900D03*
X121479500Y-89401600D03*
%TO.N,ADC_A2*%
X122051900Y-88838000D03*
X123578900Y-84198300D03*
%TO.N,ADC_A3*%
X125639500Y-88304000D03*
X132532500Y-84750000D03*
%TO.N,ADC_A4*%
X129201500Y-86301700D03*
X128737300Y-87590300D03*
%TO.N,ADC_A6*%
X118770300Y-85663600D03*
X132534400Y-87250000D03*
%TO.N,ADC_A7*%
X127681300Y-86303400D03*
X132547900Y-88227400D03*
%TO.N,ADC_A8*%
X129638500Y-87753800D03*
X123960800Y-85794400D03*
%TO.N,ADC_A9*%
X124724300Y-85211700D03*
X128126800Y-88142000D03*
%TO.N,ADC_A10*%
X132923000Y-85930200D03*
X117059600Y-83550300D03*
X122284200Y-82207700D03*
X118483200Y-83678500D03*
%TO.N,ADC_OFA*%
X115478500Y-85649100D03*
X132538200Y-91250000D03*
%TO.N,/ADC/MODE*%
X110404500Y-97774800D03*
X110421900Y-101308300D03*
X114357900Y-85664300D03*
%TO.N,/FPGA_SDRAM/LED0*%
X134569600Y-108122700D03*
X133176700Y-103853500D03*
%TO.N,/FPGA_SDRAM/LED1*%
X134092700Y-103871400D03*
X136227500Y-111717500D03*
%TO.N,/AFE_B/FDA_OUTP*%
X100597900Y-112975000D03*
X102482400Y-109437900D03*
%TO.N,FPGA_CDONE*%
X146997100Y-101464400D03*
X158923900Y-64750000D03*
X161787100Y-110229200D03*
%TO.N,SPI_MOSI*%
X148250000Y-103882200D03*
X156419200Y-66425100D03*
%TO.N,SPI_MISO*%
X148784500Y-101465600D03*
X147834000Y-109347100D03*
X156445200Y-67250000D03*
%TO.N,SPI_SCK*%
X158905500Y-68159400D03*
X155101400Y-112559000D03*
X151394700Y-102390800D03*
%TO.N,FT_D0*%
X153925700Y-78116300D03*
X152402400Y-70380300D03*
%TO.N,FT_D1*%
X148254600Y-74312100D03*
X148472400Y-78706900D03*
%TO.N,FT_D2*%
X145039300Y-83102900D03*
X147989000Y-71262800D03*
%TO.N,FT_D3*%
X148931300Y-73925600D03*
X148777300Y-79914500D03*
%TO.N,FT_D4*%
X147791400Y-79907300D03*
X150508500Y-73910400D03*
%TO.N,FT_D5*%
X146969300Y-79915000D03*
X149837500Y-71436100D03*
%TO.N,FT_D6*%
X148509200Y-75124700D03*
X148501700Y-77841500D03*
X151250000Y-71444100D03*
X147321800Y-71867600D03*
%TO.N,FT_D7*%
X151639800Y-74620000D03*
X149615300Y-77289800D03*
%TO.N,FT_TXE_N*%
X153250000Y-74740800D03*
X149272600Y-75924300D03*
%TO.N,FT_RD_N*%
X147531100Y-82551100D03*
X151688000Y-79300600D03*
%TO.N,FT_WR_N*%
X146729100Y-72429200D03*
X154250000Y-71445100D03*
%TO.N,FT_SIWU_N*%
X147720900Y-83765000D03*
X154456800Y-73905700D03*
%TO.N,FT_OE_N*%
X142906300Y-80068400D03*
X149275000Y-70784800D03*
%TO.N,FT_CLK*%
X140628300Y-80027700D03*
X155273600Y-71343100D03*
%TO.N,/USB/FT_RESET_N*%
X145951700Y-72720900D03*
X148161500Y-69615300D03*
%TO.N,/AFE_A/BUF_FB*%
X89112500Y-73157100D03*
X89061900Y-68044300D03*
%TO.N,/AFE_A/BUF_INN*%
X88206700Y-74366100D03*
X86071500Y-69365000D03*
%TO.N,/USB/FT_REF*%
X145185600Y-62420200D03*
X147936800Y-67888500D03*
%TD*%
%TO.N,+3V3*%
D51*
X174750000Y-86600000D02*
X177250000Y-85671000D01*
X146412000Y-112635000D02*
X144900000Y-112635000D01*
X163990000Y-57000000D02*
X163020000Y-57000000D01*
X152662501Y-83250000D02*
X154100001Y-83250000D01*
X157675000Y-66250000D02*
X159150000Y-66250000D01*
X178520000Y-90000000D02*
X177540000Y-90000000D01*
X153520000Y-76500000D02*
X152540000Y-75500000D01*
X162500000Y-129775000D02*
X162500000Y-130925000D01*
X178520000Y-84000000D02*
X177540000Y-84000000D01*
X178520000Y-88000000D02*
X177540000Y-88000000D01*
X158474999Y-52495000D02*
X160149998Y-52495000D01*
X157000000Y-110510000D02*
X157000000Y-111480000D01*
X145320000Y-58400000D02*
X144340000Y-58400000D01*
X178500000Y-122950000D02*
X178500000Y-124150000D01*
X178520000Y-86000000D02*
X177540000Y-86500000D01*
X158475000Y-52495000D02*
X160150000Y-52495000D01*
X155250000Y-72675000D02*
X155250000Y-74149999D01*
X153520000Y-76500000D02*
X152540000Y-75500000D01*
X175490000Y-131000000D02*
X174520000Y-131000000D01*
X165862000Y-128050000D02*
X164500000Y-128050000D01*
X162225000Y-69500000D02*
X161075000Y-69500000D01*
X175490000Y-126500000D02*
X174520000Y-126500000D01*
X162520000Y-71500000D02*
X161540000Y-71500000D01*
X152250000Y-61325000D02*
X152250000Y-60100000D01*
X179000000Y-100450000D02*
X179000000Y-101650000D01*
X150520000Y-58400000D02*
X149540000Y-57400000D01*
X178520000Y-90000000D02*
X177540000Y-90000000D01*
X137750000Y-102662500D02*
X137750000Y-104100000D01*
X169112500Y-122325000D02*
X170625000Y-122325000D01*
X175100000Y-122000000D02*
X176200000Y-122000000D01*
X157675000Y-66250000D02*
X159150000Y-66250000D01*
X156050000Y-59500000D02*
X155750000Y-59800000D01*
X163250000Y-82600000D02*
X163250000Y-81671000D01*
X149520000Y-105500000D02*
X148540000Y-105500000D01*
X146325000Y-64750000D02*
X141050000Y-64250000D01*
X163990000Y-53000000D02*
X163020000Y-53000000D01*
X153120000Y-58400000D02*
X152140000Y-57400000D01*
X164000000Y-134510000D02*
X164000000Y-135480000D01*
X139750000Y-81337500D02*
X140250000Y-76800000D01*
X143250001Y-102662500D02*
X143250001Y-104100000D01*
X163250000Y-89000000D02*
X161795000Y-89000000D01*
X147920000Y-58400000D02*
X146940000Y-57400000D01*
X153520000Y-108200000D02*
X152540000Y-109200000D01*
X152250000Y-60100000D02*
X151750000Y-60100000D01*
X149750000Y-72675000D02*
X149750000Y-74150000D01*
X179000000Y-100450000D02*
X179000000Y-101650000D01*
X151520000Y-108000000D02*
X150540000Y-108000000D01*
X152663000Y-87250000D02*
X154100000Y-87250000D01*
X152663000Y-83250000D02*
X154100000Y-83250000D01*
X152662501Y-92750000D02*
X154100001Y-92750000D01*
X151520000Y-108000000D02*
X150540000Y-108000000D01*
X149750000Y-72675000D02*
X149750000Y-74149999D01*
X161000000Y-110510000D02*
X161000000Y-111480000D01*
X178520000Y-92000000D02*
X177540000Y-92000000D01*
X125050000Y-108500000D02*
X123850000Y-108500000D01*
X153588000Y-110095000D02*
X155100000Y-110095000D01*
X159000000Y-110510000D02*
X159000000Y-111480000D01*
X153520000Y-108200000D02*
X152540000Y-109200000D01*
X163250000Y-89000000D02*
X161795000Y-89000000D01*
X169112000Y-122325000D02*
X170625000Y-122325000D01*
X131337500Y-85750000D02*
X129900000Y-85750000D01*
X161000000Y-110510000D02*
X161000000Y-111480000D01*
X163990000Y-55000000D02*
X163020000Y-55000000D01*
X143750001Y-81337500D02*
X143750001Y-79900000D01*
X152663000Y-92750000D02*
X154100000Y-92750000D01*
X155020000Y-81500000D02*
X154040000Y-81500000D01*
X131520000Y-108000000D02*
X130540000Y-107000000D01*
X156040000Y-59200000D02*
X156050000Y-59500000D01*
X163990000Y-57000000D02*
X163020000Y-57000000D01*
X163250000Y-84200000D02*
X165750000Y-83271000D01*
X162225000Y-69500000D02*
X161075000Y-69500000D01*
X152250000Y-60100000D02*
X151750000Y-60100000D01*
X178520000Y-86000000D02*
X177540000Y-86500000D01*
X155020000Y-81500000D02*
X154040000Y-81500000D01*
X139750000Y-81337500D02*
X140250000Y-76800000D01*
X162520000Y-71500000D02*
X161540000Y-71500000D01*
X164000000Y-134510000D02*
X164000000Y-135480000D01*
X178520000Y-94000000D02*
X177540000Y-94000000D01*
X153587500Y-111365000D02*
X155100000Y-111365000D01*
X146324999Y-67250000D02*
X144849999Y-67250000D01*
X150750000Y-102662000D02*
X150750000Y-104100000D01*
X143500000Y-71510000D02*
X143500000Y-72480000D01*
X178520000Y-96000000D02*
X177540000Y-96000000D01*
X151520000Y-76500000D02*
X150540000Y-76500000D01*
X152250000Y-61325000D02*
X152250000Y-60100000D01*
X174749999Y-91400000D02*
X176204999Y-91400000D01*
X175100000Y-122000000D02*
X176200000Y-122000000D01*
X152662501Y-87250000D02*
X154100001Y-87250000D01*
X178520000Y-94000000D02*
X177540000Y-94000000D01*
X143250000Y-102662000D02*
X143250000Y-104100000D01*
X157020000Y-59200000D02*
X156040000Y-59200000D01*
X174749999Y-86600000D02*
X177249999Y-85670999D01*
X149520000Y-117000000D02*
X148540000Y-117000000D01*
X131337500Y-97750000D02*
X129900000Y-97750000D01*
X165862000Y-129950000D02*
X164500000Y-129950000D01*
X143500000Y-71510000D02*
X143500000Y-72480000D01*
X129520000Y-108000000D02*
X128540000Y-108000000D01*
X157020000Y-59200000D02*
X156040000Y-59200000D01*
X151750000Y-60100000D02*
X151750000Y-59850000D01*
X159000000Y-110510000D02*
X159000000Y-111480000D01*
X149520000Y-105500000D02*
X148540000Y-105500000D01*
X157000000Y-110510000D02*
X157000000Y-111480000D01*
X163250000Y-93000000D02*
X161795000Y-93000000D01*
X151520000Y-76500000D02*
X150540000Y-76500000D01*
X131338000Y-97750000D02*
X129900000Y-97750000D01*
X175490000Y-131000000D02*
X174520000Y-131000000D01*
X150520000Y-58400000D02*
X149540000Y-57400000D01*
X163250000Y-84200000D02*
X165750000Y-83271000D01*
X151750000Y-60100000D02*
X151750000Y-59850000D01*
X143750000Y-81337500D02*
X143750000Y-79900000D01*
X162500000Y-129775000D02*
X162500000Y-130925000D01*
X163990000Y-55000000D02*
X163020000Y-55000000D01*
X145320000Y-58400000D02*
X144340000Y-58400000D01*
X153120000Y-58400000D02*
X152140000Y-57400000D01*
X155250000Y-60500000D02*
X155250000Y-61325000D01*
X153588000Y-111365000D02*
X155100000Y-111365000D01*
X125050000Y-108500000D02*
X123850000Y-108500000D01*
X131520000Y-108000000D02*
X130540000Y-107000000D01*
X156000000Y-134510000D02*
X156000000Y-135480000D01*
X153587500Y-110095000D02*
X155100000Y-110095000D01*
X175490000Y-126500000D02*
X174520000Y-126500000D01*
X147920000Y-58400000D02*
X146940000Y-57400000D01*
X131338000Y-85750000D02*
X129900000Y-85750000D01*
X178520000Y-88000000D02*
X177540000Y-88000000D01*
X178520000Y-92000000D02*
X177540000Y-92000000D01*
X163250000Y-103400000D02*
X163250000Y-104329000D01*
X178500000Y-122950000D02*
X178500000Y-124150000D01*
X149520000Y-117000000D02*
X148540000Y-117000000D01*
X150750001Y-102662500D02*
X150750001Y-104100000D01*
X163250000Y-93000000D02*
X161795000Y-93000000D01*
X174750000Y-91400000D02*
X176205000Y-91400000D01*
X155750000Y-59800000D02*
X155750000Y-60000000D01*
X163250000Y-82600000D02*
X163250000Y-81670999D01*
X156000000Y-134510000D02*
X156000000Y-135480000D01*
X165862500Y-128050000D02*
X164500000Y-128050000D01*
X146324999Y-64750000D02*
X141049999Y-64250000D01*
X165862500Y-129949999D02*
X164500000Y-129949999D01*
X155750000Y-60000000D02*
X155250000Y-60500000D01*
X146325000Y-67250000D02*
X144850000Y-67250000D01*
X129520000Y-108000000D02*
X128540000Y-108000000D01*
X163990000Y-53000000D02*
X163020000Y-53000000D01*
X163250000Y-103400000D02*
X163250000Y-104329000D01*
X137750000Y-102662000D02*
X137750000Y-104100000D01*
X158474999Y-55035000D02*
X160149998Y-55035000D01*
X158475000Y-55035000D02*
X160150000Y-55035000D01*
X146412500Y-112635000D02*
X144900000Y-112635000D01*
X155250000Y-72675000D02*
X155250000Y-74150000D01*
X178520000Y-84000000D02*
X177540000Y-84000000D01*
X178520000Y-96000000D02*
X177540000Y-96000000D01*
%TO.N,GND*%
X174750000Y-93000000D02*
X176205000Y-93000000D01*
X154480000Y-76500000D02*
X155460000Y-76500000D01*
X152250000Y-72675000D02*
X152250000Y-74150000D01*
X155980000Y-106000000D02*
X156959999Y-106000000D01*
X96175000Y-71500000D02*
X95075000Y-71500000D01*
X152480000Y-108000000D02*
X153459999Y-107000000D01*
X131950000Y-76500000D02*
X133150000Y-76500000D01*
X105575000Y-99100000D02*
X106725000Y-99100000D01*
X92275000Y-107500000D02*
X93425000Y-107500000D01*
X90010000Y-89300000D02*
X90980000Y-89300000D01*
X163250000Y-91400000D02*
X161795000Y-91400000D01*
X97775000Y-84500000D02*
X98925000Y-84500000D01*
X163250000Y-86600000D02*
X165750000Y-85671000D01*
X145100000Y-68250000D02*
X145100000Y-69250000D01*
X100980000Y-64000000D02*
X101960000Y-64000000D01*
X92275000Y-65500000D02*
X93425000Y-65500000D01*
X152480000Y-76500000D02*
X153460000Y-77500000D01*
X108780000Y-91900000D02*
X109760000Y-91900000D01*
X146325000Y-68250000D02*
X145100000Y-68250000D01*
X139250000Y-81337500D02*
X139250000Y-79900000D01*
X142099999Y-57850000D02*
X143499999Y-57850000D01*
X131337500Y-89750000D02*
X130150000Y-89750000D01*
X92275000Y-118500000D02*
X93425000Y-118500000D01*
X174750000Y-84200000D02*
X177250000Y-83271000D01*
X146325000Y-65250000D02*
X144850000Y-65250000D01*
X130479999Y-108000000D02*
X131459999Y-109000000D01*
X157675000Y-63750000D02*
X159150000Y-63750000D01*
X152480000Y-76500000D02*
X153459999Y-77500000D01*
X110780000Y-99100000D02*
X111760000Y-98600000D01*
X115000000Y-58725000D02*
X116000000Y-57575000D01*
X130150000Y-89750000D02*
X130150000Y-90250000D01*
X126950000Y-108500000D02*
X128150000Y-109000000D01*
X164888000Y-122975000D02*
X163375000Y-122975000D01*
X116480000Y-81000000D02*
X117460000Y-82000000D01*
X81350000Y-120000000D02*
X83200000Y-120000000D01*
X90010000Y-96500000D02*
X90980000Y-96500000D01*
X152663000Y-94250000D02*
X154100000Y-94250000D01*
X131338000Y-89250000D02*
X129900000Y-89250000D01*
X146325000Y-70250000D02*
X145100000Y-70250000D01*
X108780000Y-91900000D02*
X109760000Y-91900000D01*
X163775000Y-69500000D02*
X164925000Y-69500000D01*
X92275000Y-76500000D02*
X93425000Y-76500000D01*
X146324999Y-65250000D02*
X144849999Y-65250000D01*
X81350000Y-78000000D02*
X83200000Y-78000000D01*
X122480000Y-81000000D02*
X123460000Y-82500000D01*
X145099999Y-69250000D02*
X144849999Y-69250000D01*
X130150000Y-90250000D02*
X129900000Y-90250000D01*
X112250000Y-86562500D02*
X112250000Y-85425000D01*
X145100000Y-71250000D02*
X144850000Y-71250000D01*
X145099999Y-70250000D02*
X145099999Y-71250000D01*
X81350000Y-120000000D02*
X83199999Y-120000000D01*
X139900000Y-56150000D02*
X138500000Y-56150000D01*
X174749999Y-103400000D02*
X174749999Y-104329000D01*
X162000000Y-121050000D02*
X162000000Y-119850000D01*
X132212500Y-112500000D02*
X131075000Y-112500000D01*
X121000000Y-100020000D02*
X121000000Y-99039999D01*
X81350000Y-78000000D02*
X83199999Y-78000000D01*
X85775000Y-97500000D02*
X86925000Y-97500000D01*
X106112000Y-70325000D02*
X107625000Y-70325000D01*
X128480000Y-106000000D02*
X129460000Y-106000000D01*
X139200000Y-108050000D02*
X139200000Y-106850000D01*
X92275000Y-118500000D02*
X93425000Y-118500000D01*
X100775000Y-118500000D02*
X101925000Y-118500000D01*
X148880000Y-58400000D02*
X149860000Y-59400000D01*
X128479999Y-78500000D02*
X129459999Y-78500000D01*
X179480000Y-96000000D02*
X180459999Y-96000000D01*
X150480000Y-117000000D02*
X151460000Y-117000000D01*
X163480000Y-65500000D02*
X164460000Y-65500000D01*
X146324999Y-69250000D02*
X145099999Y-69250000D01*
X163250000Y-91400000D02*
X161795000Y-91400000D01*
X179212500Y-131000000D02*
X178075000Y-131000000D01*
X163480000Y-63500000D02*
X164460000Y-63500000D01*
X179480000Y-86000000D02*
X180460000Y-86000000D01*
X115250000Y-95437500D02*
X115250000Y-94275000D01*
X115250000Y-86562500D02*
X115250000Y-87725000D01*
X174749999Y-89000000D02*
X176204999Y-89000000D01*
X174750000Y-82600000D02*
X174750000Y-81671000D01*
X154080000Y-58400000D02*
X155060000Y-58400000D01*
X146280000Y-58400000D02*
X147260000Y-59400000D01*
X113509999Y-101300000D02*
X114479998Y-101300000D01*
X144250000Y-102662000D02*
X144250000Y-104100000D01*
X103275000Y-84500000D02*
X104425000Y-84500000D01*
X150480000Y-105500000D02*
X151460000Y-105500000D01*
X162500000Y-128225000D02*
X162500000Y-127074999D01*
X100980000Y-106000000D02*
X101960000Y-106000000D01*
X105575000Y-99100000D02*
X106725000Y-99100000D01*
X151480000Y-58400000D02*
X152460000Y-59400000D01*
X114750000Y-95437500D02*
X114750000Y-94275000D01*
X146324999Y-68250000D02*
X145099999Y-68250000D01*
X114480000Y-81000000D02*
X115460000Y-82000000D01*
X165862500Y-129000000D02*
X164500000Y-129000000D01*
X152662501Y-94250000D02*
X154100001Y-94250000D01*
X132212500Y-110000000D02*
X131075000Y-110000000D01*
X146324999Y-70250000D02*
X145099999Y-70250000D01*
X92275000Y-76500000D02*
X93425000Y-76500000D01*
X145099999Y-69250000D02*
X145099999Y-70250000D01*
X163250000Y-86600000D02*
X165750000Y-85670999D01*
X176509999Y-128300000D02*
X177479999Y-128300000D01*
X157675000Y-63750000D02*
X159150000Y-63750000D01*
X144700000Y-56480000D02*
X144700000Y-57460000D01*
X155980000Y-106000000D02*
X156960000Y-106000000D01*
X171500000Y-129225000D02*
X171500000Y-128075000D01*
X118100000Y-101950000D02*
X119500000Y-101950000D01*
X126480000Y-71000000D02*
X127460000Y-71000000D01*
X179480000Y-94000000D02*
X180460000Y-94000000D01*
X110780000Y-99100000D02*
X111760000Y-98600000D01*
X139900000Y-56150000D02*
X138500000Y-56150000D01*
X125750000Y-81000000D02*
X126950000Y-81000000D01*
X163480000Y-71500000D02*
X164460000Y-71500000D01*
X106112000Y-112325000D02*
X107625000Y-112325000D01*
X126480000Y-71000000D02*
X127460000Y-71000000D01*
X131949999Y-76500000D02*
X133149999Y-76500000D01*
X179480000Y-88000000D02*
X180460000Y-88000000D01*
X164888000Y-121025000D02*
X163375000Y-121025000D01*
X87980000Y-118500000D02*
X88960000Y-118500000D01*
X113510000Y-101300000D02*
X114480000Y-101300000D01*
X146280000Y-58400000D02*
X147260000Y-59400000D01*
X149250001Y-102662500D02*
X149250001Y-104100000D01*
X100980000Y-106000000D02*
X101960000Y-106000000D01*
X108780000Y-93700000D02*
X109760000Y-93700000D01*
X126950000Y-108500000D02*
X128150000Y-109000000D01*
X179480000Y-90000000D02*
X180460000Y-90000000D01*
X121000000Y-100020000D02*
X121000000Y-99040000D01*
X136862000Y-66000000D02*
X135500000Y-66000000D01*
X150480000Y-105500000D02*
X151459999Y-105500000D01*
X115000000Y-55175000D02*
X115000000Y-54075000D01*
X146325000Y-67750000D02*
X144850000Y-68250000D01*
X114480000Y-81000000D02*
X115460000Y-82000000D01*
X119250000Y-86562500D02*
X119250000Y-87725000D01*
X108780000Y-99100000D02*
X109760000Y-100100000D01*
X145500000Y-75120000D02*
X145500000Y-74140000D01*
X179212000Y-131000000D02*
X178075000Y-131000000D01*
X130150000Y-90250000D02*
X129900000Y-90250000D01*
X100775000Y-118500000D02*
X101925000Y-118500000D01*
X96175000Y-113500000D02*
X95075000Y-113500000D01*
X100775000Y-76500000D02*
X101925000Y-76500000D01*
X152480000Y-108000000D02*
X153460000Y-107000000D01*
X112480000Y-81000000D02*
X113460000Y-82000000D01*
X145100000Y-69250000D02*
X144850000Y-69250000D01*
X103275000Y-84500000D02*
X104425000Y-84500000D01*
X162500000Y-128225000D02*
X162500000Y-127075000D01*
X106112500Y-112325000D02*
X107625000Y-112325000D01*
X148880000Y-58400000D02*
X149860000Y-59400000D01*
X90009999Y-96500000D02*
X90979998Y-96500000D01*
X93500000Y-94225000D02*
X93500000Y-93075000D01*
X115000000Y-58725000D02*
X116000000Y-57575000D01*
X165862000Y-129000000D02*
X164500000Y-129000000D01*
X77000000Y-72175000D02*
X77000000Y-71075000D01*
X158475000Y-56305000D02*
X160150000Y-56305000D01*
X93500000Y-87225000D02*
X93500000Y-86075000D01*
X93500000Y-87225000D02*
X93500000Y-86075000D01*
X145099999Y-71250000D02*
X144849999Y-71250000D01*
X92275000Y-107500000D02*
X93425000Y-107500000D01*
X159062000Y-134950000D02*
X159062000Y-135950000D01*
X79000000Y-72225000D02*
X79000000Y-71075000D01*
X141250000Y-102662500D02*
X141250000Y-104100000D01*
X132212000Y-112500000D02*
X131075000Y-112500000D01*
X120480000Y-81000000D02*
X121460000Y-82000000D01*
X88980000Y-107500000D02*
X89960000Y-108500000D01*
X143500000Y-61790000D02*
X143500000Y-60820000D01*
X88980000Y-65500000D02*
X89960000Y-66500000D01*
X146324999Y-67750000D02*
X144849999Y-68250000D01*
X115000000Y-55175000D02*
X115000000Y-54074999D01*
X141750000Y-81337500D02*
X141750000Y-79900000D01*
X179480000Y-96000000D02*
X180460000Y-96000000D01*
X84050000Y-92250000D02*
X84800000Y-92250000D01*
X90009999Y-89300000D02*
X90979998Y-89300000D01*
X157675000Y-69750000D02*
X159150000Y-69750000D01*
X114750000Y-86562500D02*
X114750000Y-87725000D01*
X139250000Y-81337500D02*
X139250000Y-79900000D01*
X112250000Y-95437500D02*
X112250000Y-96575000D01*
X146325000Y-69250000D02*
X145100000Y-69250000D01*
X145099999Y-68250000D02*
X145099999Y-69250000D01*
X112480000Y-81000000D02*
X113460000Y-82000000D01*
X114750000Y-95437500D02*
X114750000Y-94275000D01*
X135250000Y-81337500D02*
X135250000Y-79900000D01*
X115250000Y-86562500D02*
X115250000Y-87725000D01*
X146412000Y-113905000D02*
X144900000Y-113905000D01*
X116480000Y-81000000D02*
X117460000Y-82000000D01*
X178500000Y-121050000D02*
X178500000Y-119850000D01*
X163775000Y-61500000D02*
X164925000Y-61500000D01*
X154480000Y-108200000D02*
X155460000Y-108200000D01*
X139000000Y-74650000D02*
X139000000Y-73450000D01*
X163775000Y-61500000D02*
X164925000Y-61500000D01*
X174750000Y-103400000D02*
X174750000Y-104329000D01*
X179480000Y-86000000D02*
X180459999Y-86000000D01*
X174749999Y-93000000D02*
X176204999Y-93000000D01*
X84050000Y-92250000D02*
X84800000Y-92250000D01*
X79000000Y-72225000D02*
X79000000Y-71075000D01*
X145099999Y-70250000D02*
X144849999Y-70250000D01*
X96175000Y-113500000D02*
X95075000Y-113500000D01*
X118099999Y-101950000D02*
X119499999Y-101950000D01*
X146412500Y-113905000D02*
X144900000Y-113905000D01*
X159062500Y-134950000D02*
X159062500Y-135950000D01*
X145100000Y-69250000D02*
X145100000Y-70250000D01*
X179480000Y-84000000D02*
X180460000Y-84000000D01*
X179480000Y-84000000D02*
X180459999Y-84000000D01*
X108780000Y-93700000D02*
X109760000Y-93700000D01*
X131338000Y-89750000D02*
X130150000Y-89750000D01*
X139000000Y-74650000D02*
X139000000Y-73450000D01*
X132212000Y-110000000D02*
X131075000Y-110000000D01*
X164887500Y-122975000D02*
X163375000Y-122975000D01*
X114750000Y-86562500D02*
X114750000Y-87725000D01*
X85775000Y-97500000D02*
X86925000Y-97500000D01*
X137300000Y-56480000D02*
X137300000Y-57459999D01*
X137300000Y-56480000D02*
X137300000Y-57460000D01*
X179480000Y-92000000D02*
X180460000Y-92000000D01*
X164887500Y-121025000D02*
X163375000Y-121025000D01*
X97775000Y-84500000D02*
X98925000Y-84500000D01*
X80500000Y-88225000D02*
X80500000Y-87075000D01*
X157675000Y-69750000D02*
X159150000Y-69750000D01*
X149250000Y-102662000D02*
X149250000Y-104100000D01*
X152663000Y-85750000D02*
X154100000Y-85750000D01*
X154750000Y-61325000D02*
X154750000Y-59850000D01*
X141750000Y-81337500D02*
X141750000Y-79900000D01*
X171500000Y-129225000D02*
X171500000Y-128074999D01*
X115250000Y-95437500D02*
X115250000Y-94275000D01*
X112250000Y-86562500D02*
X112250000Y-85425000D01*
X158474999Y-56305000D02*
X160149998Y-56305000D01*
X150480000Y-117000000D02*
X151459999Y-117000000D01*
X154080000Y-58400000D02*
X155060000Y-58400000D01*
X179480000Y-94000000D02*
X180459999Y-94000000D01*
X93500000Y-94225000D02*
X93500000Y-93075000D01*
X128480000Y-78500000D02*
X129460000Y-78500000D01*
X152662501Y-85750000D02*
X154100001Y-85750000D01*
X141250000Y-102662000D02*
X141250000Y-104100000D01*
X98862500Y-88000000D02*
X97500000Y-88000000D01*
X152250000Y-72675000D02*
X152250000Y-74149999D01*
X151480000Y-58400000D02*
X152459999Y-59400000D01*
X163480000Y-71500000D02*
X164459999Y-71500000D01*
X87980000Y-76500000D02*
X88960000Y-76500000D01*
X178500000Y-121050000D02*
X178500000Y-119850000D01*
X157980000Y-59200000D02*
X158959999Y-59200000D01*
X163775000Y-69500000D02*
X164925000Y-69500000D01*
X131338000Y-85250000D02*
X126800000Y-84750000D01*
X176510000Y-128300000D02*
X177480000Y-128300000D01*
X130480000Y-108000000D02*
X131460000Y-109000000D01*
X155980000Y-81500000D02*
X156959999Y-81500000D01*
X128479999Y-106000000D02*
X129459999Y-106000000D01*
X87980000Y-118500000D02*
X88960000Y-118500000D01*
X132479999Y-108000000D02*
X133459999Y-108000000D01*
X135250000Y-81337500D02*
X135250000Y-79900000D01*
X119250000Y-95437500D02*
X119250000Y-94275000D01*
X162000000Y-121050000D02*
X162000000Y-119850000D01*
X163480000Y-67500000D02*
X164459999Y-67500000D01*
X163480000Y-65500000D02*
X164459999Y-65500000D01*
X122480000Y-81000000D02*
X123460000Y-82500000D01*
X131337500Y-89250000D02*
X129900000Y-89250000D01*
X179000000Y-98550000D02*
X179000000Y-97350000D01*
X139200000Y-108050000D02*
X139200000Y-106850000D01*
X179480000Y-90000000D02*
X180459999Y-90000000D01*
X119250000Y-86562500D02*
X119250000Y-87725000D01*
X145500000Y-75120000D02*
X145500000Y-74140000D01*
X142100000Y-57850000D02*
X143500000Y-57850000D01*
X146324999Y-63250000D02*
X144849999Y-63250000D01*
X92275000Y-65500000D02*
X93425000Y-65500000D01*
X88980000Y-107500000D02*
X89960000Y-108500000D01*
X120480000Y-81000000D02*
X121460000Y-82000000D01*
X77000000Y-72175000D02*
X77000000Y-71075000D01*
X155980000Y-78500000D02*
X156960000Y-78500000D01*
X79000000Y-114225000D02*
X79000000Y-113075000D01*
X145100000Y-70250000D02*
X145100000Y-71250000D01*
X163480000Y-67500000D02*
X164460000Y-67500000D01*
X146325000Y-63250000D02*
X144850000Y-63250000D01*
X174749999Y-84200000D02*
X177249999Y-83271000D01*
X154480000Y-76500000D02*
X155459999Y-76500000D01*
X155980000Y-81500000D02*
X156960000Y-81500000D01*
X118480000Y-81000000D02*
X119460000Y-82000000D01*
X154750000Y-61325000D02*
X154750000Y-59850000D01*
X80500000Y-88225000D02*
X80500000Y-87075000D01*
X100775000Y-76500000D02*
X101925000Y-76500000D01*
X174750000Y-89000000D02*
X176205000Y-89000000D01*
X136862500Y-66000000D02*
X135500000Y-66000000D01*
X79000000Y-114225000D02*
X79000000Y-113075000D01*
X118480000Y-81000000D02*
X119460000Y-82000000D01*
X88980000Y-65500000D02*
X89960000Y-66500000D01*
X163480000Y-63500000D02*
X164459999Y-63500000D01*
X131337500Y-85250000D02*
X126800000Y-84750000D01*
X77000000Y-114175000D02*
X77000000Y-113075000D01*
X130150000Y-89750000D02*
X130150000Y-90250000D01*
X112250000Y-95437500D02*
X112250000Y-96575000D01*
X96175000Y-71500000D02*
X95075000Y-71500000D01*
X108780000Y-99100000D02*
X109760000Y-100100000D01*
X179000000Y-98550000D02*
X179000000Y-97350000D01*
X174749999Y-82600000D02*
X174749999Y-81670999D01*
X155980000Y-78500000D02*
X156959999Y-78500000D01*
X144300000Y-108520000D02*
X144300000Y-107539999D01*
X109075000Y-86500000D02*
X110225000Y-86500000D01*
X125750000Y-81000000D02*
X126950000Y-81000000D01*
X145100000Y-70250000D02*
X144850000Y-70250000D01*
X179480000Y-88000000D02*
X180459999Y-88000000D01*
X179480000Y-92000000D02*
X180459999Y-92000000D01*
X132480000Y-108000000D02*
X133460000Y-108000000D01*
X100980000Y-64000000D02*
X101960000Y-64000000D01*
X143500000Y-61790001D02*
X143500000Y-60820001D01*
X109075000Y-86500000D02*
X110225000Y-86500000D01*
X157980000Y-59200000D02*
X158960000Y-59200000D01*
X77000000Y-114175000D02*
X77000000Y-113075000D01*
X106112500Y-70325000D02*
X107625000Y-70325000D01*
X87980000Y-76500000D02*
X88960000Y-76500000D01*
X144700000Y-56480000D02*
X144700000Y-57459999D01*
X144300000Y-108520000D02*
X144300000Y-107540000D01*
X119250000Y-95437500D02*
X119250000Y-94275000D01*
X98862500Y-88000000D02*
X97500000Y-88000000D01*
X154480000Y-108200000D02*
X155459999Y-108200000D01*
X144250001Y-102662500D02*
X144250001Y-104100000D01*
%TO.N,+3V0*%
D52*
X117520000Y-80878700D02*
X118060900Y-80337800D01*
X117520000Y-81000000D02*
X117520000Y-80878700D01*
D53*
X119385900Y-80889700D02*
X119495900Y-80889700D01*
D54*
X111537900Y-91774600D02*
X111562500Y-91750000D01*
D52*
X119204900Y-97903500D02*
X119204900Y-97400300D01*
X111520000Y-81000000D02*
X111520000Y-83294100D01*
X106497700Y-85338800D02*
X101725000Y-85338800D01*
X113520000Y-81000000D02*
X113520000Y-80323900D01*
X120121500Y-80312500D02*
X121520000Y-80312500D01*
X115900000Y-101950000D02*
X115900000Y-101971800D01*
X119271500Y-97333700D02*
X119271500Y-97253800D01*
X119495900Y-80889700D02*
X119520100Y-80913900D01*
X112087800Y-80323900D02*
X113520000Y-80323900D01*
X119520100Y-81000000D02*
X119520000Y-81000000D01*
X121520000Y-80312500D02*
X123162500Y-80312500D01*
X121520000Y-81000000D02*
X121520000Y-80312500D01*
D54*
X110808100Y-91774600D02*
X111537900Y-91774600D01*
D52*
X119750000Y-86562500D02*
X120276400Y-86036100D01*
X112490000Y-99500000D02*
X113218600Y-100228600D01*
X115230800Y-96965500D02*
X115657400Y-97392100D01*
X113250000Y-85463900D02*
X113250000Y-86562500D01*
X120276400Y-86036100D02*
X120276400Y-85860900D01*
X115900000Y-100050000D02*
X115900000Y-101950000D01*
X111520000Y-81000000D02*
X111520000Y-80891700D01*
X119750000Y-96328500D02*
X119750000Y-95437500D01*
X111520000Y-83294100D02*
X114912700Y-83294100D01*
X114250000Y-95437500D02*
X114250000Y-95984700D01*
X119204900Y-97400300D02*
X119271500Y-97333700D01*
X118542200Y-98566200D02*
X119151200Y-99175300D01*
D53*
X119151200Y-99175300D02*
X120955900Y-100980000D01*
D52*
X114250000Y-95984700D02*
X115230800Y-96965500D01*
X119271500Y-97253800D02*
X119672100Y-96853200D01*
X111520000Y-80891700D02*
X112087800Y-80323900D01*
X122231700Y-103862600D02*
X122231700Y-102211700D01*
X101725000Y-86462500D02*
X101137500Y-87050000D01*
X119520100Y-80913900D02*
X120121500Y-80312500D01*
X113520000Y-80323900D02*
X115520000Y-80323900D01*
X119672100Y-96853200D02*
X119672100Y-96406400D01*
X111520000Y-83733900D02*
X113250000Y-85463900D01*
X113250000Y-86562500D02*
X112750000Y-86562500D01*
X119520100Y-80913900D02*
X119520100Y-81000000D01*
X118834000Y-80337800D02*
X119110700Y-80614500D01*
X113100000Y-96328300D02*
X113100000Y-95437500D01*
X116033200Y-97392100D02*
X116645600Y-98004500D01*
X115657400Y-97392100D02*
X116033200Y-97392100D01*
X113100000Y-95437500D02*
X112750000Y-95437500D01*
D53*
X120955900Y-100980000D02*
X121000000Y-100980000D01*
D52*
X118542200Y-98566200D02*
X119204900Y-97903500D01*
X111562500Y-90250000D02*
X110664000Y-90250000D01*
X101725000Y-85338800D02*
X101725000Y-86462500D01*
X121905700Y-104188600D02*
X122231700Y-103862600D01*
X118427500Y-98451600D02*
X118542200Y-98566200D01*
X115520000Y-80323900D02*
X115520000Y-81000000D01*
D53*
X119110700Y-80614500D02*
X119385900Y-80889700D01*
D52*
X117752700Y-98451600D02*
X118427500Y-98451600D01*
X118060900Y-80337800D02*
X118834000Y-80337800D01*
X118116800Y-104188600D02*
X121905700Y-104188600D01*
X123162500Y-80312500D02*
X123850000Y-81000000D01*
X117305600Y-98004500D02*
X117752700Y-98451600D01*
X116965200Y-80323900D02*
X117520000Y-80878700D01*
X107045800Y-92564300D02*
X101531500Y-87050000D01*
X101531500Y-87050000D02*
X101137500Y-87050000D01*
X110018400Y-92564300D02*
X107045800Y-92564300D01*
X108102600Y-83733900D02*
X106497700Y-85338800D01*
X115900000Y-101971800D02*
X118116800Y-104188600D01*
X122231700Y-102211700D02*
X121000000Y-100980000D01*
X111520000Y-83733900D02*
X108102600Y-83733900D01*
X119672100Y-96406400D02*
X119750000Y-96328500D01*
X115520000Y-80323900D02*
X116965200Y-80323900D01*
X116645600Y-98004500D02*
X117305600Y-98004500D01*
X111520000Y-83294100D02*
X111520000Y-83733900D01*
X113250000Y-95437500D02*
X113100000Y-95437500D01*
X115721400Y-100228600D02*
X115900000Y-100050000D01*
X101725000Y-84500000D02*
X101725000Y-85338800D01*
X110808100Y-91774600D02*
X110018400Y-92564300D01*
X113218600Y-100228600D02*
X115721400Y-100228600D01*
%TO.N,/ADC/OSC_OUT*%
D55*
X114573800Y-98929300D02*
X113489300Y-98929300D01*
D51*
X117114600Y-101035400D02*
X118100000Y-100050000D01*
X118100000Y-100050000D02*
X116979300Y-98929300D01*
X112990000Y-98430000D02*
X112990000Y-97500000D01*
X120490000Y-103500000D02*
X118066900Y-103500000D01*
X117114600Y-102547700D02*
X117114600Y-101035400D01*
D55*
X113489300Y-98929300D02*
X112990000Y-98430000D01*
D51*
X116979300Y-98929300D02*
X114573800Y-98929300D01*
X118066900Y-103500000D02*
X117114600Y-102547700D01*
%TO.N,VEE*%
D54*
X84886100Y-94541500D02*
X84886100Y-95621200D01*
D52*
X90725000Y-118500000D02*
X90017600Y-117792600D01*
D53*
X88144200Y-71285800D02*
X87525000Y-71905000D01*
D52*
X90000000Y-70000000D02*
X90000000Y-68148300D01*
X90000000Y-112000000D02*
X88095000Y-113905000D01*
X80475000Y-66116400D02*
X80475000Y-65114100D01*
X87020000Y-76500000D02*
X79636300Y-83883700D01*
X89217100Y-67271100D02*
X81629700Y-67271100D01*
D54*
X86443100Y-96098500D02*
X87538400Y-97193800D01*
D52*
X83728400Y-113905000D02*
X87525000Y-113905000D01*
X84050000Y-93705400D02*
X84070000Y-93725400D01*
X87590300Y-75830400D02*
X87020000Y-76400700D01*
X93500000Y-95775000D02*
X90065000Y-95775000D01*
X90725000Y-76500000D02*
X90055400Y-75830400D01*
X90000000Y-68148300D02*
X90000000Y-68054000D01*
X87525000Y-75765100D02*
X87590300Y-75830400D01*
X84050000Y-93250000D02*
X84050000Y-93705400D01*
D54*
X87632700Y-97193800D02*
X88292800Y-97193800D01*
D52*
X88292800Y-97193800D02*
X92081200Y-97193800D01*
X79636300Y-95250000D02*
X80007500Y-95621200D01*
X87983900Y-117792600D02*
X87628000Y-117792600D01*
X81239100Y-64350000D02*
X82112500Y-64350000D01*
X87020000Y-118400600D02*
X87020000Y-118500000D01*
X90000000Y-70000000D02*
X90000000Y-71285800D01*
X87020000Y-76400700D02*
X87020000Y-76500000D01*
X87983900Y-113905000D02*
X87983900Y-117792600D01*
X92081200Y-97193800D02*
X93500000Y-95775000D01*
D54*
X87538400Y-97193800D02*
X87632700Y-97193800D01*
D52*
X90017600Y-117792600D02*
X87983900Y-117792600D01*
X88095000Y-113905000D02*
X87983900Y-113905000D01*
D53*
X90000000Y-71285800D02*
X88144200Y-71285800D01*
D52*
X87632700Y-100829800D02*
X82112500Y-106350000D01*
X79636300Y-83883700D02*
X79636300Y-95250000D01*
X90065000Y-95775000D02*
X88990000Y-94700000D01*
D54*
X84886100Y-95621200D02*
X84886100Y-96098500D01*
D52*
X81021200Y-106350000D02*
X80528300Y-106842900D01*
X87983900Y-113905000D02*
X87525000Y-113905000D01*
X90000000Y-68054000D02*
X89217100Y-67271100D01*
X81629700Y-67271100D02*
X80475000Y-66116400D01*
X84886100Y-96098500D02*
X86443100Y-96098500D01*
X80007500Y-95621200D02*
X84886100Y-95621200D01*
X87628000Y-117792600D02*
X87020000Y-118400600D01*
X80475000Y-65114100D02*
X81239100Y-64350000D01*
X87525000Y-71905000D02*
X87525000Y-75765100D01*
X82112500Y-106350000D02*
X81021200Y-106350000D01*
X90055400Y-75830400D02*
X87590300Y-75830400D01*
D54*
X84070000Y-93725400D02*
X84886100Y-94541500D01*
D52*
X87632700Y-97193800D02*
X87632700Y-100829800D01*
X80528300Y-110704900D02*
X83728400Y-113905000D01*
X80528300Y-106842900D02*
X80528300Y-110704900D01*
%TO.N,+4V*%
D53*
X106063200Y-69724300D02*
X106112500Y-69675000D01*
D52*
X99225000Y-76500000D02*
X103052200Y-72672800D01*
X95215200Y-80509800D02*
X95215200Y-87059800D01*
X99225000Y-76500000D02*
X95215200Y-80509800D01*
X90725000Y-65500000D02*
X90014000Y-64789000D01*
X88684700Y-64789000D02*
X88020000Y-65453700D01*
X92475000Y-111365000D02*
X92475000Y-110095000D01*
X100020000Y-106000000D02*
X97693900Y-108326100D01*
X91600000Y-109200400D02*
X89642000Y-109200400D01*
X93124900Y-88399900D02*
X89884900Y-88399900D01*
D53*
X94926700Y-66326100D02*
X92474300Y-66326100D01*
D52*
X103625700Y-70374300D02*
X104044100Y-69955900D01*
X92012700Y-66787700D02*
X90725000Y-65500000D01*
X92475000Y-69365000D02*
X92665500Y-69174500D01*
D53*
X102382800Y-112374300D02*
X103052200Y-112374300D01*
X94926700Y-108326100D02*
X92474300Y-108326100D01*
D52*
X101887500Y-112325000D02*
X102333500Y-112325000D01*
X99225000Y-115675700D02*
X96296700Y-115675700D01*
X90725000Y-108325400D02*
X90725000Y-107500000D01*
X97154200Y-106000000D02*
X89077600Y-97923400D01*
X89642000Y-109200400D02*
X87980800Y-107539200D01*
X100020000Y-106000000D02*
X97154200Y-106000000D01*
X104044100Y-69955900D02*
X104044100Y-69724300D01*
X103052200Y-72672800D02*
X103052200Y-70374300D01*
X91600000Y-109200400D02*
X90725000Y-108325400D01*
D53*
X82013100Y-107099400D02*
X82112500Y-107000000D01*
X81340000Y-65099400D02*
X82013100Y-65099400D01*
D52*
X88020000Y-65453700D02*
X88020000Y-65500000D01*
X87299500Y-66220500D02*
X81365200Y-66220500D01*
X92337500Y-66462900D02*
X92012700Y-66787700D01*
X88892500Y-91250000D02*
X88958800Y-91316300D01*
D53*
X104044100Y-69724300D02*
X106063200Y-69724300D01*
D52*
X93500000Y-88775000D02*
X93124900Y-88399900D01*
X90014000Y-64789000D02*
X88684700Y-64789000D01*
X103052200Y-112374300D02*
X103052200Y-113308100D01*
X100684600Y-115675700D02*
X99225000Y-115675700D01*
D53*
X82013100Y-65099400D02*
X82112500Y-65000000D01*
D52*
X81318200Y-108203500D02*
X81082200Y-107967500D01*
X92012700Y-67632700D02*
X92475000Y-68095000D01*
X103052200Y-113308100D02*
X100684600Y-115675700D01*
X87980800Y-107539200D02*
X87316500Y-108203500D01*
D53*
X102333500Y-112325000D02*
X102382800Y-112374300D01*
D52*
X101887500Y-70325000D02*
X102333500Y-70325000D01*
X92012700Y-66787700D02*
X92012700Y-67632700D01*
X81065000Y-65374400D02*
X81340000Y-65099400D01*
X91600000Y-109200400D02*
X91600000Y-109220000D01*
X88020000Y-107500000D02*
X87980800Y-107539200D01*
X106112500Y-111675000D02*
X103751500Y-111675000D01*
D53*
X103052200Y-70374300D02*
X103625700Y-70374300D01*
D52*
X81065000Y-65920300D02*
X81065000Y-65374400D01*
X81365200Y-66220500D02*
X81065000Y-65920300D01*
X81082200Y-107967500D02*
X81082200Y-107099400D01*
D53*
X92474300Y-108326100D02*
X92337500Y-108462900D01*
D52*
X89884900Y-88399900D02*
X89884900Y-88394900D01*
D53*
X81082200Y-107099400D02*
X82013100Y-107099400D01*
D52*
X100020000Y-64000000D02*
X97693900Y-66326100D01*
X103751500Y-111675000D02*
X103052200Y-112374300D01*
X85950000Y-91250000D02*
X88892500Y-91250000D01*
X95215200Y-87059800D02*
X93500000Y-88775000D01*
X97693900Y-108326100D02*
X94926700Y-108326100D01*
D53*
X92474300Y-66326100D02*
X92337500Y-66462900D01*
D52*
X92665500Y-69174500D02*
X93920200Y-69174500D01*
X92475000Y-69365000D02*
X92475000Y-68095000D01*
X87316500Y-108203500D02*
X81318200Y-108203500D01*
X92337500Y-108462900D02*
X91600000Y-109200400D01*
D53*
X102382800Y-70374300D02*
X103052200Y-70374300D01*
D52*
X99225000Y-115675700D02*
X99225000Y-118500000D01*
X89884900Y-88394900D02*
X88990000Y-87500000D01*
X91600000Y-109220000D02*
X92475000Y-110095000D01*
X88020000Y-65500000D02*
X87299500Y-66220500D01*
X97693900Y-66326100D02*
X94926700Y-66326100D01*
D53*
X102333500Y-70325000D02*
X102382800Y-70374300D01*
%TO.N,/AFE_A/DIV*%
D51*
X77000000Y-73825000D02*
X78950000Y-73825000D01*
X79000000Y-73775000D02*
X82140000Y-70635000D01*
X72775000Y-66312500D02*
X73462500Y-67000000D01*
X83430700Y-63893200D02*
X83887500Y-64350000D01*
X73462500Y-67000000D02*
X73462500Y-70287500D01*
X82140000Y-70635000D02*
X87525000Y-70635000D01*
X78950000Y-73825000D02*
X79000000Y-73775000D01*
X72775000Y-64000000D02*
X72881800Y-63893200D01*
X72775000Y-64000000D02*
X72775000Y-66312500D01*
X72881800Y-63893200D02*
X83430700Y-63893200D01*
X73462500Y-70287500D02*
X77000000Y-73825000D01*
X77000000Y-73825000D02*
X76650000Y-74175000D01*
X76650000Y-74175000D02*
X76650000Y-78000000D01*
%TO.N,/AFE_B/DIV*%
X77000000Y-115825000D02*
X78950000Y-115825000D01*
X76650000Y-116175000D02*
X76650000Y-120000000D01*
X73462500Y-112287500D02*
X77000000Y-115825000D01*
X73462500Y-109000000D02*
X72775000Y-108312500D01*
X72775000Y-108312500D02*
X72775000Y-106000000D01*
X77000000Y-115825000D02*
X76650000Y-116175000D01*
X73462500Y-109000000D02*
X73462500Y-112287500D01*
X84839300Y-105853100D02*
X84384400Y-105853100D01*
X79737300Y-115037700D02*
X81040500Y-115037700D01*
X78950000Y-115825000D02*
X79000000Y-115775000D01*
X84384400Y-105853100D02*
X83887500Y-106350000D01*
X83443200Y-112635000D02*
X87525000Y-112635000D01*
X79000000Y-115775000D02*
X79737300Y-115037700D01*
%TO.N,/FPGA_SDRAM/VCCPLL0*%
X142510000Y-108500000D02*
X142824400Y-108185600D01*
X143490000Y-109480000D02*
X142510000Y-108500000D01*
X141060000Y-109950000D02*
X142510000Y-108500000D01*
X139200000Y-109950000D02*
X141060000Y-109950000D01*
X142824400Y-108185600D02*
X142824400Y-104896200D01*
D55*
X141849500Y-103921300D02*
X141750000Y-103821800D01*
X141750000Y-103821800D02*
X141750000Y-102662500D01*
D51*
X142824400Y-104896200D02*
X141849500Y-103921300D01*
X144300000Y-109480000D02*
X143490000Y-109480000D01*
%TO.N,/USB/OSCO*%
X147720100Y-63692000D02*
X147720100Y-62889600D01*
X147162100Y-64250000D02*
X147720100Y-63692000D01*
X143775600Y-58945100D02*
X141661300Y-58945100D01*
X144700000Y-55520000D02*
X142730000Y-55520000D01*
X146325000Y-64250000D02*
X147162100Y-64250000D01*
X141125500Y-58409300D02*
X141125500Y-57124500D01*
X147720100Y-62889600D02*
X143775600Y-58945100D01*
X142730000Y-55520000D02*
X142100000Y-56150000D01*
X141661300Y-58945100D02*
X141125500Y-58409300D01*
X141125500Y-57124500D02*
X142100000Y-56150000D01*
%TO.N,/AFE_A/FDA_INN*%
X99208100Y-66000000D02*
X103175000Y-66000000D01*
X97825000Y-69825400D02*
X97928000Y-69722400D01*
X97171000Y-68965400D02*
X97171000Y-68037100D01*
X97825000Y-71500000D02*
X97825000Y-69825400D01*
X97928000Y-69722400D02*
X97171000Y-68965400D01*
X103225000Y-65950000D02*
X103175000Y-66000000D01*
X97171000Y-68037100D02*
X99208100Y-66000000D01*
X103225000Y-64000000D02*
X103225000Y-65950000D01*
X98625400Y-69025000D02*
X97928000Y-69722400D01*
X101887500Y-69025000D02*
X98625400Y-69025000D01*
%TO.N,/AFE_A/FDA_OUTP*%
X106675000Y-66000000D02*
X104825000Y-66000000D01*
X101887500Y-71653300D02*
X101920400Y-71686200D01*
X109175000Y-68500000D02*
X106675000Y-66000000D01*
X101887500Y-70975000D02*
X101887500Y-71653300D01*
X104825000Y-64050000D02*
X104825000Y-66000000D01*
X103870900Y-66954100D02*
X104825000Y-66000000D01*
X103227400Y-66954100D02*
X103870900Y-66954100D01*
X104775000Y-64000000D02*
X104825000Y-64050000D01*
%TO.N,/ADC/AINB_P*%
X111562500Y-95317900D02*
X111520900Y-95359500D01*
X110825000Y-111100000D02*
X112500000Y-112775000D01*
X111562500Y-94750000D02*
X111562500Y-95317900D01*
X110825000Y-110500000D02*
X111051500Y-110273500D01*
X110825000Y-110500000D02*
X110825000Y-111100000D01*
X111051500Y-110273500D02*
X111051500Y-109557700D01*
%TO.N,/ADC/AINB_N*%
X112500000Y-111225000D02*
X112500000Y-110307000D01*
X113244900Y-111969900D02*
X112500000Y-111225000D01*
X113244900Y-113188200D02*
X113244900Y-111969900D01*
X110825000Y-113500000D02*
X112933100Y-113500000D01*
X110870800Y-95493100D02*
X110870800Y-94536500D01*
X110870800Y-94536500D02*
X111157300Y-94250000D01*
X112933100Y-113500000D02*
X113244900Y-113188200D01*
X111498300Y-96120600D02*
X110870800Y-95493100D01*
X111157300Y-94250000D02*
X111562500Y-94250000D01*
%TO.N,/USB/SHIELD*%
X120230000Y-60890000D02*
X115615000Y-60890000D01*
X132270000Y-60890000D02*
X120230000Y-60890000D01*
X114257200Y-59532200D02*
X115000000Y-60275000D01*
X115615000Y-60890000D02*
X115000000Y-60275000D01*
X115000000Y-56825000D02*
X114257200Y-57567800D01*
X114257200Y-57567800D02*
X114257200Y-59532200D01*
%TO.N,/FPGA_SDRAM/SD_CLK_SRC*%
X133750000Y-82086900D02*
X146331800Y-94668700D01*
X146331800Y-94668700D02*
X150977000Y-94668700D01*
X157990000Y-100000000D02*
X157411100Y-100578900D01*
X157411100Y-100578900D02*
X155492800Y-100578900D01*
X133750000Y-81337500D02*
X133750000Y-82086900D01*
%TO.N,/FPGA_SDRAM/SD_CLK*%
X174750000Y-95400000D02*
X173743300Y-95400000D01*
X173450800Y-95107500D02*
X170851600Y-95107500D01*
X159010000Y-100000000D02*
X159738000Y-100000000D01*
X173743300Y-95400000D02*
X173450800Y-95107500D01*
%TO.N,/Power/AN_EN*%
X92530600Y-95000000D02*
X98044900Y-95000000D01*
X86011500Y-92811500D02*
X85950000Y-92750000D01*
X90342100Y-92811500D02*
X92530600Y-95000000D01*
X141646200Y-114326200D02*
X161128800Y-133808700D01*
X85950000Y-90750000D02*
X90342100Y-90750000D01*
X161128800Y-133808700D02*
X160937500Y-134000000D01*
X117371100Y-114326200D02*
X141646200Y-114326200D01*
X90342100Y-90750000D02*
X97062500Y-90750000D01*
X97062500Y-90750000D02*
X98862500Y-88950000D01*
X161447500Y-133490000D02*
X161128800Y-133808700D01*
X90342100Y-92811500D02*
X86011500Y-92811500D01*
X98044900Y-95000000D02*
X117371100Y-114326200D01*
X164000000Y-133490000D02*
X161447500Y-133490000D01*
X90342100Y-90750000D02*
X90342100Y-92811500D01*
%TO.N,/AFE_B/FDA_INP*%
X103995100Y-118770100D02*
X105162800Y-118770100D01*
X107898600Y-111025000D02*
X106112500Y-111025000D01*
X103225000Y-118000000D02*
X103995100Y-118770100D01*
X103175000Y-116000000D02*
X103225000Y-116050000D01*
X105162800Y-118770100D02*
X109879500Y-114053400D01*
X109879500Y-114053400D02*
X109879500Y-113005900D01*
X109879500Y-113005900D02*
X107898600Y-111025000D01*
X106112500Y-111025000D02*
X105587500Y-110500000D01*
X105587500Y-110500000D02*
X97825000Y-110500000D01*
X103225000Y-116050000D02*
X103225000Y-118000000D01*
%TO.N,/AFE_B/FDA_OUTN*%
X104775000Y-116050000D02*
X104775000Y-118000000D01*
X109175000Y-113500000D02*
X106637500Y-113500000D01*
X104825000Y-116000000D02*
X104775000Y-116050000D01*
X106637500Y-114187500D02*
X106637500Y-113500000D01*
X106637500Y-113500000D02*
X106112500Y-112975000D01*
X104825000Y-116000000D02*
X106637500Y-114187500D01*
%TO.N,/FPGA_SDRAM/VCCPLL1*%
D55*
X142349500Y-80078700D02*
X142250000Y-80178200D01*
D51*
X139470000Y-76080000D02*
X139000000Y-76550000D01*
D55*
X142250000Y-80178200D02*
X142250000Y-81337500D01*
D51*
X142510000Y-76080000D02*
X142510000Y-75500000D01*
X142510000Y-76080000D02*
X139470000Y-76080000D01*
X142349500Y-79230500D02*
X142349500Y-80078700D01*
X145500000Y-76080000D02*
X142510000Y-76080000D01*
X145500000Y-76080000D02*
X142349500Y-79230500D01*
%TO.N,/USB/V1V8_FT*%
X148250000Y-66308300D02*
X148250000Y-61325000D01*
X162050000Y-61325000D02*
X155750000Y-61325000D01*
X161270000Y-68750000D02*
X157675000Y-68750000D01*
X148516600Y-66574900D02*
X148250000Y-66308300D01*
X162520000Y-65500000D02*
X162520000Y-63500000D01*
X162520000Y-67500000D02*
X161270000Y-68750000D01*
X162520000Y-61795000D02*
X162520000Y-63500000D01*
X162225000Y-61500000D02*
X162050000Y-61325000D01*
X146385000Y-68690000D02*
X146325000Y-68750000D01*
X162520000Y-67500000D02*
X162520000Y-65500000D01*
X162225000Y-61500000D02*
X162520000Y-61795000D01*
X148516600Y-68690000D02*
X148516600Y-66574900D01*
X157675000Y-68750000D02*
X148576600Y-68750000D01*
X148576600Y-68750000D02*
X148516600Y-68690000D01*
X148516600Y-68690000D02*
X146385000Y-68690000D01*
%TO.N,+5V*%
D52*
X116331600Y-79186600D02*
X116331600Y-77730900D01*
X164887500Y-121675000D02*
X164887500Y-122243700D01*
X80726300Y-90001300D02*
X80500000Y-89775000D01*
X83713900Y-91750000D02*
X83556100Y-91907800D01*
X83016700Y-91907800D02*
X82632000Y-91523100D01*
X116331600Y-77730900D02*
X123062500Y-71000000D01*
X93745100Y-90001300D02*
X82632000Y-90001300D01*
X84050000Y-91750000D02*
X83713900Y-91750000D01*
X162706300Y-122243700D02*
X163082400Y-122243700D01*
X123062500Y-71000000D02*
X125520000Y-71000000D01*
X116331600Y-79186600D02*
X101538400Y-79186600D01*
X164887500Y-122243700D02*
X164887500Y-122325000D01*
X97246800Y-86499600D02*
X93745100Y-90001300D01*
X101538400Y-79186600D02*
X96225000Y-84500000D01*
X116438100Y-79293100D02*
X116331600Y-79186600D01*
X128222400Y-79293100D02*
X116438100Y-79293100D01*
X83556100Y-91907800D02*
X83016700Y-91907800D01*
X162000000Y-122950000D02*
X162706300Y-122243700D01*
X163082400Y-122243700D02*
X164887500Y-122243700D01*
X163082400Y-122162200D02*
X163082400Y-122243700D01*
X97246800Y-86499600D02*
X97246800Y-85521800D01*
X98862500Y-87050000D02*
X98312100Y-86499600D01*
X97246800Y-85521800D02*
X96225000Y-84500000D01*
X98312100Y-86499600D02*
X97246800Y-86499600D01*
X82632000Y-90001300D02*
X80726300Y-90001300D01*
X82632000Y-91523100D02*
X82632000Y-90001300D01*
%TO.N,/AFE_A/FDA_INP*%
D51*
X105211000Y-76735000D02*
X109848100Y-72097900D01*
X103225000Y-76000000D02*
X103960000Y-76735000D01*
X103960000Y-76735000D02*
X105211000Y-76735000D01*
X107834800Y-69025000D02*
X106112500Y-69025000D01*
X103225000Y-74050000D02*
X103175000Y-74000000D01*
X103225000Y-76000000D02*
X103225000Y-74050000D01*
X109848100Y-71038300D02*
X107834800Y-69025000D01*
X109848100Y-72097900D02*
X109848100Y-71038300D01*
X105587500Y-68500000D02*
X106112500Y-69025000D01*
X97825000Y-68500000D02*
X105587500Y-68500000D01*
%TO.N,/AFE_A/FDA_OUTN*%
X106112500Y-72712500D02*
X104825000Y-74000000D01*
X104825000Y-75950000D02*
X104825000Y-74000000D01*
X106112500Y-70975000D02*
X106112500Y-71500000D01*
X106112500Y-71500000D02*
X106112500Y-72712500D01*
X106112500Y-71500000D02*
X109175000Y-71500000D01*
X104775000Y-76000000D02*
X104825000Y-75950000D01*
%TO.N,/Power/FB_POS*%
X88528100Y-88838100D02*
X88411700Y-88838100D01*
X88411700Y-88838100D02*
X84740800Y-88838100D01*
X88990000Y-89300000D02*
X88528100Y-88838100D01*
X88660700Y-86897700D02*
X89407700Y-86897700D01*
X84050000Y-91250000D02*
X83292200Y-91250000D01*
X89407700Y-86897700D02*
X90010000Y-87500000D01*
X88411700Y-88838100D02*
X88411700Y-87146700D01*
X88411700Y-87146700D02*
X88660700Y-86897700D01*
%TO.N,/Power/CP_NEG*%
X84225000Y-97500000D02*
X83306200Y-97500000D01*
X83543000Y-93898500D02*
X83244000Y-94197500D01*
X83543000Y-93004100D02*
X83543000Y-93898500D01*
X84050000Y-92750000D02*
X83797100Y-92750000D01*
X83797100Y-92750000D02*
X83543000Y-93004100D01*
%TO.N,/Power/FB_NEG*%
X88467800Y-94241100D02*
X88613300Y-94095600D01*
X85950000Y-93250000D02*
X87476700Y-93250000D01*
X87476700Y-93250000D02*
X88467800Y-94241100D01*
X88990000Y-96500000D02*
X88467800Y-95977800D01*
X88467800Y-95977800D02*
X88467800Y-94241100D01*
X88613300Y-94095600D02*
X89405600Y-94095600D01*
X89405600Y-94095600D02*
X90010000Y-94700000D01*
%TO.N,/Power/CFLY_N*%
X85950000Y-92250000D02*
X86656400Y-92250000D01*
X80500000Y-93225000D02*
X82925400Y-93225000D01*
X86656400Y-92250000D02*
X86659900Y-92253500D01*
%TO.N,/Power/CFLY_P*%
X85950000Y-91750000D02*
X85998300Y-91701700D01*
X87491100Y-91701700D02*
X87691200Y-91901800D01*
X80500000Y-94775000D02*
X84294800Y-94775000D01*
X85998300Y-91701700D02*
X87491100Y-91701700D01*
%TO.N,/ADC/REFHB*%
X107525000Y-95500000D02*
X108300300Y-94724700D01*
X111159900Y-93750000D02*
X111562500Y-93750000D01*
X108920000Y-98115000D02*
X108920000Y-98200000D01*
X108920000Y-98200000D02*
X109820000Y-99100000D01*
X109809300Y-94724700D02*
X109809300Y-97225700D01*
X108300300Y-94724700D02*
X109809300Y-94724700D01*
X110185200Y-94724700D02*
X111159900Y-93750000D01*
X111562500Y-93250000D02*
X111562500Y-93750000D01*
X108920000Y-98115000D02*
X108635000Y-98115000D01*
X109809300Y-97225700D02*
X108920000Y-98115000D01*
X109809300Y-94724700D02*
X110185200Y-94724700D01*
X108635000Y-98115000D02*
X107820000Y-97300000D01*
%TO.N,/ADC/REFLB*%
X107598400Y-94262200D02*
X110024800Y-94262200D01*
X108780000Y-96409600D02*
X107245100Y-96409600D01*
X107245100Y-98525100D02*
X107820000Y-99100000D01*
X111562500Y-92250000D02*
X111562500Y-92750000D01*
X107245100Y-96409600D02*
X106797900Y-95962400D01*
X108780000Y-96409600D02*
X108780000Y-97300000D01*
X110818500Y-93091400D02*
X111159900Y-92750000D01*
X110024800Y-94262200D02*
X110818500Y-93468500D01*
X106797900Y-95962400D02*
X106797900Y-95062700D01*
X107245100Y-96409600D02*
X107245100Y-98525100D01*
X111159900Y-92750000D02*
X111562500Y-92750000D01*
X110818500Y-93468500D02*
X110818500Y-93091400D01*
X109075000Y-95500000D02*
X108780000Y-95795000D01*
X106797900Y-95062700D02*
X107598400Y-94262200D01*
X108780000Y-95795000D02*
X108780000Y-96409600D01*
%TO.N,/AFE_B/IN*%
X67537500Y-112000000D02*
X70537500Y-109000000D01*
X71225000Y-108312500D02*
X71225000Y-106000000D01*
X70537500Y-109000000D02*
X71225000Y-108312500D01*
X62700000Y-112000000D02*
X67537500Y-112000000D01*
%TO.N,/ADC/REFLA*%
X107312000Y-93192000D02*
X107820000Y-93700000D01*
X108780000Y-90100000D02*
X109827500Y-89052500D01*
X110025000Y-89250000D02*
X109827500Y-89052500D01*
X108780000Y-90100000D02*
X109525600Y-90100000D01*
X111562500Y-89750000D02*
X111562500Y-89250000D01*
X109827500Y-89052500D02*
X109075000Y-88300000D01*
X106751900Y-93192000D02*
X107312000Y-93192000D01*
X111562500Y-89250000D02*
X110025000Y-89250000D01*
%TO.N,/ADC/VCMA*%
X113750000Y-86562500D02*
X113750000Y-85041100D01*
X101887500Y-69675000D02*
X99526300Y-69675000D01*
X102797000Y-86679500D02*
X107345500Y-86679500D01*
X107345500Y-86679500D02*
X107525000Y-86500000D01*
%TO.N,SPI_SS_N*%
X151595100Y-104794800D02*
X150588200Y-104794800D01*
X157675000Y-65750000D02*
X157747800Y-65677200D01*
X149343100Y-108397300D02*
X152051600Y-105688800D01*
X159775700Y-66045000D02*
X159775700Y-66706400D01*
X157747800Y-65677200D02*
X159407900Y-65677200D01*
X159407900Y-65677200D02*
X159775700Y-66045000D01*
X157000000Y-109490000D02*
X155760000Y-110730000D01*
X149343100Y-108795400D02*
X147505200Y-108795400D01*
X157676100Y-108813900D02*
X157000000Y-109490000D01*
X147505200Y-108795400D02*
X146412500Y-109888100D01*
X152051600Y-105688800D02*
X152051600Y-105251300D01*
X150588200Y-104794800D02*
X150150500Y-104357100D01*
X150250000Y-103819800D02*
X150250000Y-102662500D01*
X150150500Y-104357100D02*
X150150500Y-103919300D01*
X152051600Y-105251300D02*
X151595100Y-104794800D01*
X151277700Y-110730000D02*
X149343100Y-108795400D01*
X159775700Y-66706400D02*
X159775800Y-66706400D01*
X149343100Y-108795400D02*
X149343100Y-108397300D01*
X150150500Y-103919300D02*
X150250000Y-103819800D01*
X157775800Y-108813900D02*
X157676100Y-108813900D01*
X155760000Y-110730000D02*
X151277700Y-110730000D01*
X146412500Y-109888100D02*
X146412500Y-110095000D01*
%TO.N,/USB/VBUS*%
D56*
X139137500Y-66000000D02*
X138000000Y-66000000D01*
D52*
X125000000Y-65600000D02*
X125000000Y-66801700D01*
X126643700Y-68445400D02*
X125000000Y-66801700D01*
X138000000Y-68445000D02*
X126644000Y-68445000D01*
X125000000Y-66801700D02*
X120937500Y-70864200D01*
X120937500Y-70864200D02*
X120937500Y-71000000D01*
%TO.N,+1V2*%
X135418000Y-106348300D02*
X135023100Y-106348300D01*
X149750000Y-82672000D02*
X147694300Y-84727700D01*
D53*
X169150800Y-128425800D02*
X170751100Y-130026100D01*
D52*
X141490000Y-106315100D02*
X142272700Y-105532400D01*
D57*
X153440000Y-91250000D02*
X152662500Y-91250000D01*
D52*
X155020000Y-78500000D02*
X154702200Y-78817800D01*
X155020000Y-106126500D02*
X155020000Y-106000000D01*
X133810800Y-72739200D02*
X139220600Y-72739200D01*
X135023100Y-103983000D02*
X134750000Y-103709900D01*
X156836200Y-114594800D02*
X159689900Y-111741100D01*
X167924300Y-127836800D02*
X167924300Y-115395800D01*
X170751100Y-130026100D02*
X171500000Y-130775000D01*
D57*
X130290100Y-96250000D02*
X131337500Y-96250000D01*
D52*
X141490000Y-75008600D02*
X143011400Y-73487200D01*
X155626600Y-106733100D02*
X155020000Y-106126500D01*
X129772900Y-106743000D02*
X128170000Y-106743000D01*
X143749700Y-95114500D02*
X143552700Y-94917500D01*
D53*
X169150800Y-128165500D02*
X169150800Y-128425800D01*
D52*
X167924300Y-115395800D02*
X161388700Y-108860200D01*
X143081600Y-113779600D02*
X143896800Y-114594800D01*
X168253000Y-128165500D02*
X169150800Y-128165500D01*
X154702200Y-78817800D02*
X152917800Y-78817800D01*
X157863200Y-107031900D02*
X157564400Y-106733100D01*
X153828600Y-90861400D02*
X154530300Y-90861400D01*
X157564400Y-106733100D02*
X155626600Y-106733100D01*
X159689900Y-108860200D02*
X157863200Y-107033500D01*
X143896800Y-114594800D02*
X156836200Y-114594800D01*
X147694300Y-84727700D02*
X146845100Y-84727700D01*
X145777500Y-73487200D02*
X146439000Y-74148700D01*
X143552700Y-94917500D02*
X132798900Y-94917500D01*
X130050000Y-76500000D02*
X129393000Y-76500000D01*
X130050000Y-76500000D02*
X133810800Y-72739200D01*
X129963400Y-96250000D02*
X129899900Y-96186500D01*
X146439000Y-74148700D02*
X146439000Y-75390300D01*
X138062300Y-108992600D02*
X138062300Y-110403500D01*
X149750000Y-82384900D02*
X149750000Y-82672000D01*
X135023100Y-106348300D02*
X130167600Y-106348300D01*
X159689900Y-111741100D02*
X159689900Y-108860200D01*
X168137500Y-128050000D02*
X167924300Y-127836800D01*
X127520000Y-106093000D02*
X127520000Y-106000000D01*
X138062300Y-108992600D02*
X135418000Y-106348300D01*
X140997400Y-108992600D02*
X138062300Y-108992600D01*
D57*
X149750000Y-82384900D02*
X149750000Y-81337500D01*
D52*
X138062300Y-110403500D02*
X141438400Y-113779600D01*
X143011400Y-73487200D02*
X145777500Y-73487200D01*
X130290100Y-96250000D02*
X129963400Y-96250000D01*
D57*
X153828600Y-90861400D02*
X153440000Y-91250000D01*
D52*
X141438400Y-113779600D02*
X143081600Y-113779600D01*
X157863200Y-107033500D02*
X157863200Y-107031900D01*
X152917800Y-78817800D02*
X152544300Y-78444300D01*
X130167600Y-106348300D02*
X129772900Y-106743000D01*
X161388700Y-108860200D02*
X159689900Y-108860200D01*
X141490000Y-75008600D02*
X141490000Y-75500000D01*
X128170000Y-106743000D02*
X127520000Y-106093000D01*
X168137500Y-128050000D02*
X168253000Y-128165500D01*
X135023100Y-106348300D02*
X135023100Y-103983000D01*
X141490000Y-108500000D02*
X141490000Y-106315100D01*
X141490000Y-108500000D02*
X140997400Y-108992600D01*
D57*
X134750000Y-103709900D02*
X134750000Y-102662500D01*
D52*
X139220600Y-72739200D02*
X141490000Y-75008600D01*
X127520000Y-78373000D02*
X127520000Y-78500000D01*
X129393000Y-76500000D02*
X127520000Y-78373000D01*
%TO.N,/AFE_A/BUF_OUT*%
D55*
X94524800Y-69915800D02*
X93194200Y-69915800D01*
D51*
X94759200Y-69915800D02*
X94524800Y-69915800D01*
D55*
X93194200Y-69915800D02*
X92475000Y-70635000D01*
D51*
X96175000Y-68500000D02*
X94759200Y-69915800D01*
%TO.N,/Power/FB_3V3*%
X172018000Y-125880500D02*
X175890500Y-125880500D01*
X175490000Y-128300000D02*
X175490000Y-127520000D01*
X175490000Y-127520000D02*
X176510000Y-126500000D01*
X175890500Y-125880500D02*
X176510000Y-126500000D01*
X169112500Y-122975000D02*
X172018000Y-125880500D01*
%TO.N,/AFE_B/BUF_FB*%
X90669900Y-116500000D02*
X90825000Y-116500000D01*
X88903900Y-110095000D02*
X88972400Y-110026500D01*
X87525000Y-110095000D02*
X88903900Y-110095000D01*
X90040000Y-115870100D02*
X90669900Y-116500000D01*
%TO.N,/AFE_B/BUF_INN*%
X89175000Y-116151700D02*
X89175000Y-116500000D01*
X87525000Y-111365000D02*
X85121300Y-111365000D01*
X88646500Y-115623200D02*
X89175000Y-116151700D01*
%TO.N,/AFE_B/BUF_OUT*%
D55*
X93194200Y-111915800D02*
X92475000Y-112635000D01*
D51*
X94759200Y-111915800D02*
X94524800Y-111915800D01*
D55*
X94524800Y-111915800D02*
X93194200Y-111915800D01*
D51*
X96175000Y-110500000D02*
X94759200Y-111915800D01*
%TO.N,/ADC/VCMB*%
X115519100Y-98043800D02*
X115763300Y-98043800D01*
X113750000Y-96274700D02*
X115519100Y-98043800D01*
X104025000Y-99100000D02*
X103301300Y-98376300D01*
X101887500Y-111675000D02*
X102667500Y-111675000D01*
X102667500Y-111675000D02*
X103179800Y-111162700D01*
X113750000Y-95437500D02*
X113750000Y-96274700D01*
%TO.N,/FPGA_SDRAM/SD_DQ0*%
X153058200Y-101145700D02*
X153751100Y-101145700D01*
X163250000Y-83400000D02*
X159024100Y-83400000D01*
X152662500Y-100750000D02*
X153058200Y-101145700D01*
%TO.N,/FPGA_SDRAM/SD_DQ1*%
X159986900Y-99420800D02*
X160742400Y-100176300D01*
X162193600Y-85000000D02*
X161940100Y-85253500D01*
X160742400Y-100176300D02*
X160742400Y-100509100D01*
X154440000Y-100250000D02*
X155269200Y-99420800D01*
X155269200Y-99420800D02*
X159986900Y-99420800D01*
X163250000Y-85000000D02*
X162193600Y-85000000D01*
X152662500Y-100250000D02*
X154440000Y-100250000D01*
%TO.N,/FPGA_SDRAM/SD_DQ2*%
X163250000Y-85800000D02*
X162243300Y-85800000D01*
X157307000Y-97271100D02*
X158901400Y-95676700D01*
X158901400Y-95676700D02*
X160356200Y-95676700D01*
X160707900Y-95325000D02*
X162024900Y-95325000D01*
X160356200Y-95676700D02*
X160707900Y-95325000D01*
X162243300Y-85800000D02*
X161799000Y-86244300D01*
X161799000Y-86244300D02*
X161271600Y-86244300D01*
X153874800Y-99750000D02*
X156353700Y-97271100D01*
X152662500Y-99750000D02*
X153874800Y-99750000D01*
X156353700Y-97271100D02*
X157307000Y-97271100D01*
%TO.N,/FPGA_SDRAM/SD_DQ3*%
X162243300Y-87400000D02*
X162022100Y-87621200D01*
X162022100Y-87621200D02*
X154887500Y-87621200D01*
X152662500Y-99250000D02*
X150821200Y-99250000D01*
X163250000Y-87400000D02*
X162243300Y-87400000D01*
%TO.N,/FPGA_SDRAM/SD_DQ4*%
X160487500Y-93383300D02*
X158767600Y-93383300D01*
X154473500Y-97972200D02*
X154195700Y-98250000D01*
X158767600Y-93383300D02*
X156733000Y-95417900D01*
X156733000Y-95417900D02*
X155338600Y-95417900D01*
X154195700Y-98250000D02*
X152662500Y-98250000D01*
X163250000Y-88200000D02*
X161231600Y-88200000D01*
%TO.N,/FPGA_SDRAM/SD_DQ5*%
X163250000Y-89800000D02*
X161160800Y-89800000D01*
X159895300Y-88534500D02*
X155753000Y-88534500D01*
X152662500Y-97750000D02*
X153502600Y-97750000D01*
X161160800Y-89800000D02*
X159895300Y-88534500D01*
X153502600Y-97750000D02*
X153868500Y-97384100D01*
%TO.N,/FPGA_SDRAM/SD_DQ6*%
X163250000Y-90600000D02*
X161463500Y-90600000D01*
X154903100Y-88518800D02*
X154903100Y-88385700D01*
X161463500Y-90600000D02*
X160312300Y-89448800D01*
X155833100Y-89448800D02*
X154903100Y-88518800D01*
X160312300Y-89448800D02*
X155833100Y-89448800D01*
X152662500Y-97250000D02*
X151165000Y-97250000D01*
%TO.N,/FPGA_SDRAM/SD_DQ7*%
X163250000Y-92200000D02*
X164256700Y-92200000D01*
X157330800Y-96750000D02*
X158755800Y-95325000D01*
X152662500Y-96750000D02*
X157330800Y-96750000D01*
X164256700Y-92200000D02*
X164467300Y-92200000D01*
X158755800Y-95325000D02*
X160210600Y-95325000D01*
X160813400Y-94722200D02*
X161538200Y-94722200D01*
X160210600Y-95325000D02*
X160813400Y-94722200D01*
%TO.N,/FPGA_SDRAM/SD_LDQM*%
X140799800Y-85631300D02*
X137250000Y-82081500D01*
X161890300Y-94153000D02*
X160477000Y-94153000D01*
X163250000Y-93800000D02*
X162243300Y-93800000D01*
X158208200Y-82692500D02*
X151533900Y-82692500D01*
X148595100Y-85631300D02*
X140799800Y-85631300D01*
X137250000Y-82081500D02*
X137250000Y-81337500D01*
X151533900Y-82692500D02*
X148595100Y-85631300D01*
X162243300Y-93800000D02*
X161890300Y-94153000D01*
%TO.N,/FPGA_SDRAM/SD_WE_N*%
X163250000Y-94600000D02*
X167964500Y-94600000D01*
X136750000Y-80591400D02*
X137220000Y-80121400D01*
X167964500Y-94600000D02*
X170404600Y-92159900D01*
X137220000Y-80121400D02*
X137787400Y-80121400D01*
X136750000Y-81337500D02*
X136750000Y-80591400D01*
%TO.N,/FPGA_SDRAM/SD_CAS_N*%
X136250000Y-82093100D02*
X136685100Y-82528200D01*
X156549100Y-98327700D02*
X156747700Y-98327700D01*
X144699000Y-97481900D02*
X142786300Y-95569200D01*
X154638200Y-107637800D02*
X154339200Y-107338800D01*
X159047000Y-96028400D02*
X161644300Y-96028400D01*
X147897100Y-97481900D02*
X144699000Y-97481900D01*
X156204800Y-107637800D02*
X154638200Y-107637800D01*
X156303500Y-107736500D02*
X156204800Y-107637800D01*
X136250000Y-81337500D02*
X136250000Y-82093100D01*
X163250000Y-95400000D02*
X164463200Y-95400000D01*
X156747700Y-98327700D02*
X159047000Y-96028400D01*
%TO.N,/FPGA_SDRAM/SD_RAS_N*%
X164474100Y-96200000D02*
X165537300Y-95136800D01*
X135750000Y-82399500D02*
X135750000Y-81337500D01*
X165537300Y-95136800D02*
X168710600Y-95136800D01*
X139356000Y-86005500D02*
X135750000Y-82399500D01*
X163250000Y-96200000D02*
X164474100Y-96200000D01*
X149001000Y-86005500D02*
X139356000Y-86005500D01*
%TO.N,/FPGA_SDRAM/SD_CS_N*%
X140636400Y-87931000D02*
X149187400Y-87931000D01*
X163250000Y-97000000D02*
X159283600Y-97000000D01*
X134750000Y-81337500D02*
X134750000Y-82044600D01*
X159283600Y-97000000D02*
X158907700Y-97375900D01*
X134750000Y-82044600D02*
X140636400Y-87931000D01*
%TO.N,/FPGA_SDRAM/SD_BA0*%
X160522400Y-97800000D02*
X160424400Y-97898000D01*
X153660600Y-83750000D02*
X153929100Y-84018500D01*
X153929100Y-84018500D02*
X154553900Y-84018500D01*
X163250000Y-97800000D02*
X160522400Y-97800000D01*
X152662500Y-83750000D02*
X153660600Y-83750000D01*
%TO.N,/FPGA_SDRAM/SD_BA1*%
X133250000Y-82085200D02*
X146847800Y-95683000D01*
X163250000Y-98600000D02*
X162243300Y-98600000D01*
X157082600Y-98600000D02*
X156803200Y-98879400D01*
X162243300Y-98600000D02*
X157082600Y-98600000D01*
X155604700Y-98879400D02*
X155574900Y-98849600D01*
X146847800Y-95683000D02*
X150398000Y-95683000D01*
X133250000Y-81337500D02*
X133250000Y-82085200D01*
X156803200Y-98879400D02*
X155604700Y-98879400D01*
%TO.N,/FPGA_SDRAM/SD_A10*%
X163250000Y-99400000D02*
X161203400Y-99400000D01*
X152641900Y-84729400D02*
X151470900Y-84729400D01*
X152662500Y-84750000D02*
X152641900Y-84729400D01*
%TO.N,/FPGA_SDRAM/SD_A0*%
X163250000Y-100200000D02*
X161503800Y-100200000D01*
X152662500Y-90750000D02*
X151870600Y-90750000D01*
X151870600Y-90750000D02*
X151464000Y-91156600D01*
X151464000Y-91156600D02*
X151464000Y-92563200D01*
%TO.N,/FPGA_SDRAM/SD_A1*%
X156040500Y-93226800D02*
X156097700Y-93169600D01*
X162157600Y-101085700D02*
X162243300Y-101000000D01*
X153432500Y-90250000D02*
X153869900Y-89812600D01*
X152662500Y-90250000D02*
X153432500Y-90250000D01*
X163250000Y-101000000D02*
X162243300Y-101000000D01*
X158821500Y-101085700D02*
X162157600Y-101085700D01*
X154794200Y-93226800D02*
X156040500Y-93226800D01*
%TO.N,/FPGA_SDRAM/SD_A2*%
X151471400Y-100830800D02*
X151471400Y-99961400D01*
X152662500Y-89750000D02*
X151686800Y-89750000D01*
X151686800Y-89750000D02*
X150598500Y-90838300D01*
X152440600Y-101800000D02*
X151471400Y-100830800D01*
X163250000Y-101800000D02*
X152440600Y-101800000D01*
%TO.N,/FPGA_SDRAM/SD_A3*%
X155284200Y-90557000D02*
X155284200Y-90338500D01*
X163250000Y-102600000D02*
X161376200Y-102600000D01*
X155284200Y-90338500D02*
X154195700Y-89250000D01*
X154195700Y-89250000D02*
X152662500Y-89250000D01*
%TO.N,/FPGA_SDRAM/SD_A4*%
X151409400Y-88750000D02*
X151407800Y-88751600D01*
X152662500Y-88750000D02*
X151409400Y-88750000D01*
X154746200Y-105287700D02*
X154680300Y-105221800D01*
X169796300Y-105287700D02*
X154746200Y-105287700D01*
X174750000Y-102600000D02*
X172484000Y-102600000D01*
X172484000Y-102600000D02*
X169796300Y-105287700D01*
%TO.N,/FPGA_SDRAM/SD_A5*%
X152612300Y-88199800D02*
X152662500Y-88250000D01*
X148668300Y-89727600D02*
X150196100Y-88199800D01*
X174750000Y-101800000D02*
X173743300Y-101800000D01*
X150196100Y-88199800D02*
X152612300Y-88199800D01*
X173667700Y-101724400D02*
X173743300Y-101800000D01*
X173528500Y-101724400D02*
X173667700Y-101724400D01*
X146109700Y-89727600D02*
X148668300Y-89727600D01*
%TO.N,/FPGA_SDRAM/SD_A6*%
X174750000Y-101000000D02*
X165200800Y-101000000D01*
X153462000Y-87750000D02*
X156113000Y-90401000D01*
X152662500Y-87750000D02*
X153462000Y-87750000D01*
X165200800Y-101000000D02*
X164473400Y-100272600D01*
X156113000Y-90401000D02*
X158207900Y-90401000D01*
%TO.N,/FPGA_SDRAM/SD_A7*%
X157941200Y-86689300D02*
X158207900Y-86956000D01*
X152723200Y-86689300D02*
X157941200Y-86689300D01*
X174750000Y-100200000D02*
X166985200Y-100200000D01*
X166985200Y-100200000D02*
X166645600Y-99860400D01*
X152662500Y-86750000D02*
X152723200Y-86689300D01*
%TO.N,/FPGA_SDRAM/SD_A8*%
X159349800Y-86335300D02*
X159832500Y-86818000D01*
X152662500Y-86250000D02*
X152747800Y-86335300D01*
X152747800Y-86335300D02*
X159349800Y-86335300D01*
X167358100Y-99400000D02*
X167244000Y-99285900D01*
X159832500Y-86818000D02*
X161912900Y-86818000D01*
X174750000Y-99400000D02*
X167358100Y-99400000D01*
%TO.N,/FPGA_SDRAM/SD_A9*%
X152662500Y-85250000D02*
X152714200Y-85198300D01*
X159366200Y-85198300D02*
X159752900Y-85585000D01*
X167600600Y-98600000D02*
X167039500Y-98038900D01*
X167039500Y-97300700D02*
X168154600Y-96185600D01*
X152714200Y-85198300D02*
X159366200Y-85198300D01*
X174750000Y-98600000D02*
X173743300Y-98600000D01*
X173743300Y-98600000D02*
X167600600Y-98600000D01*
X167039500Y-98038900D02*
X167039500Y-97300700D01*
%TO.N,/FPGA_SDRAM/SD_A11*%
X152662500Y-84250000D02*
X153378200Y-84250000D01*
X153378200Y-84250000D02*
X153967000Y-84838800D01*
X153967000Y-84838800D02*
X160759500Y-84838800D01*
X160759500Y-84838800D02*
X161138800Y-85218100D01*
X174750000Y-97800000D02*
X167591400Y-97800000D01*
%TO.N,/FPGA_SDRAM/SD_CKE*%
X140660500Y-88482700D02*
X149415900Y-88482700D01*
X134250000Y-81337500D02*
X134250000Y-82072200D01*
X149415900Y-88482700D02*
X149739100Y-88159500D01*
X134250000Y-82072200D02*
X140660500Y-88482700D01*
X149739100Y-87702500D02*
X148665900Y-86629300D01*
X173743300Y-96200000D02*
X170499900Y-96200000D01*
X174750000Y-96200000D02*
X173743300Y-96200000D01*
X149739100Y-88159500D02*
X149739100Y-87702500D01*
X148665900Y-86629300D02*
X148405500Y-86629300D01*
%TO.N,/FPGA_SDRAM/SD_UDQM*%
X173489400Y-94346100D02*
X170851600Y-94346100D01*
X174750000Y-94600000D02*
X173743300Y-94600000D01*
X137750000Y-81337500D02*
X137750000Y-82037400D01*
X137750000Y-82037400D02*
X140992100Y-85279500D01*
X173743300Y-94600000D02*
X173489400Y-94346100D01*
X148213300Y-85279500D02*
X153110100Y-80382700D01*
X153110100Y-80382700D02*
X164187000Y-80382700D01*
X140992100Y-85279500D02*
X148213300Y-85279500D01*
%TO.N,/FPGA_SDRAM/SD_DQ8*%
X152662500Y-96250000D02*
X151441000Y-96250000D01*
X166309900Y-104936000D02*
X155200400Y-104936000D01*
X166531600Y-104714300D02*
X166309900Y-104936000D01*
X155200400Y-104936000D02*
X154709100Y-104444700D01*
X174750000Y-92200000D02*
X173513100Y-92200000D01*
%TO.N,/FPGA_SDRAM/SD_DQ9*%
X158778700Y-94598600D02*
X159752500Y-94598600D01*
X157356100Y-96021200D02*
X158778700Y-94598600D01*
X166170800Y-90600000D02*
X174750000Y-90600000D01*
X165643700Y-91127100D02*
X166170800Y-90600000D01*
X154676200Y-96021200D02*
X157356100Y-96021200D01*
X154405000Y-95750000D02*
X154676200Y-96021200D01*
X152662500Y-95750000D02*
X154405000Y-95750000D01*
%TO.N,/FPGA_SDRAM/SD_DQ10*%
X154007100Y-103271200D02*
X162026100Y-103271200D01*
X151463100Y-95250000D02*
X151368800Y-95344300D01*
X173743300Y-89800000D02*
X173449700Y-89506400D01*
X173449700Y-89506400D02*
X172321300Y-89506400D01*
X174750000Y-89800000D02*
X173743300Y-89800000D01*
X152662500Y-95250000D02*
X151463100Y-95250000D01*
%TO.N,/FPGA_SDRAM/SD_DQ11*%
X156354600Y-94801700D02*
X159257600Y-91898700D01*
X152662500Y-94750000D02*
X152714200Y-94801700D01*
X168372200Y-88909600D02*
X169081800Y-88200000D01*
X169081800Y-88200000D02*
X174750000Y-88200000D01*
X167094400Y-88909600D02*
X168372200Y-88909600D01*
X152714200Y-94801700D02*
X156354600Y-94801700D01*
X159257600Y-91898700D02*
X159832200Y-91898700D01*
%TO.N,/FPGA_SDRAM/SD_DQ12*%
X173743300Y-87400000D02*
X173296700Y-87846600D01*
X149636500Y-93750000D02*
X147976400Y-92089900D01*
X173296700Y-87846600D02*
X168180200Y-87846600D01*
X152662500Y-93750000D02*
X149636500Y-93750000D01*
X174750000Y-87400000D02*
X173743300Y-87400000D01*
%TO.N,/FPGA_SDRAM/SD_DQ13*%
X164475200Y-91228200D02*
X164475300Y-91228200D01*
X164475300Y-91228200D02*
X164475300Y-90748600D01*
X153942300Y-93310200D02*
X154410600Y-93778500D01*
X154410600Y-93778500D02*
X156880400Y-93778500D01*
X152662500Y-93250000D02*
X152722700Y-93310200D01*
X152722700Y-93310200D02*
X153942300Y-93310200D01*
X169423900Y-85800000D02*
X174750000Y-85800000D01*
X164475300Y-90748600D02*
X169423900Y-85800000D01*
X156880400Y-93778500D02*
X159329700Y-91329200D01*
X159329700Y-91329200D02*
X160415500Y-91329200D01*
%TO.N,/FPGA_SDRAM/SD_DQ14*%
X157886000Y-92198300D02*
X160042600Y-90041700D01*
X168505600Y-85000000D02*
X165493100Y-88012500D01*
X152714200Y-92198300D02*
X157886000Y-92198300D01*
X152662500Y-92250000D02*
X152714200Y-92198300D01*
X174750000Y-85000000D02*
X173743300Y-85000000D01*
X173743300Y-85000000D02*
X168505600Y-85000000D01*
%TO.N,/FPGA_SDRAM/SD_DQ15*%
X157856200Y-91316800D02*
X157423000Y-91750000D01*
X158403500Y-81540200D02*
X158828800Y-81114900D01*
X168031700Y-81114900D02*
X170316800Y-83400000D01*
X158828800Y-81114900D02*
X168031700Y-81114900D01*
X170316800Y-83400000D02*
X174750000Y-83400000D01*
X157423000Y-91750000D02*
X152662500Y-91750000D01*
%TO.N,/Power/LED_PWR*%
X177274700Y-130235300D02*
X176510000Y-131000000D01*
X180022800Y-130235300D02*
X177274700Y-130235300D01*
X180787500Y-131000000D02*
X180022800Y-130235300D01*
%TO.N,/USB/USB_DM*%
D58*
X134400000Y-65599999D02*
X134950000Y-65050000D01*
X134950000Y-65050000D02*
X136862500Y-65050000D01*
D51*
X145200000Y-66170000D02*
X146325000Y-66170000D01*
D58*
X127500000Y-65599999D02*
X134400000Y-65599999D01*
D56*
X139137500Y-65050000D02*
X136862500Y-65050000D01*
D58*
X140000000Y-65050000D02*
X141120000Y-66170000D01*
X141120000Y-66170000D02*
X145200000Y-66170000D01*
X139137500Y-65050000D02*
X140000000Y-65050000D01*
%TO.N,/USB/USB_DP*%
X140000000Y-66950000D02*
X140320000Y-66629999D01*
X129600000Y-66599999D02*
X130139999Y-66060000D01*
X130139999Y-66060000D02*
X134400000Y-66060000D01*
X139137500Y-66950000D02*
X140000000Y-66950000D01*
D56*
X139137500Y-66950000D02*
X136862500Y-66950000D01*
D58*
X135290000Y-66950000D02*
X136862500Y-66950000D01*
D51*
X145120000Y-66750000D02*
X146325000Y-66750000D01*
X145000000Y-66629999D02*
X145120000Y-66750000D01*
D58*
X134400000Y-66060000D02*
X135290000Y-66950000D01*
X140320000Y-66629999D02*
X145000000Y-66629999D01*
%TO.N,/USB/EEDATA*%
D51*
X148973800Y-57117200D02*
X148973800Y-57621600D01*
X150680400Y-55410600D02*
X148973800Y-57117200D01*
X153525000Y-55410600D02*
X153784400Y-55670000D01*
X165010000Y-57000000D02*
X165010000Y-55670000D01*
X149750000Y-60329200D02*
X149750000Y-61325000D01*
X148973800Y-57621600D02*
X149987800Y-58635600D01*
X166820000Y-55670000D02*
X165010000Y-55670000D01*
X150419000Y-59660200D02*
X149750000Y-60329200D01*
X150419000Y-59178800D02*
X150419000Y-59660200D01*
X153525000Y-55410600D02*
X150680400Y-55410600D01*
X149987800Y-58635600D02*
X149987800Y-58747600D01*
X153784400Y-55670000D02*
X165010000Y-55670000D01*
X167490000Y-55000000D02*
X166820000Y-55670000D01*
X149987800Y-58747600D02*
X150419000Y-59178800D01*
X153525000Y-55410600D02*
X153525000Y-55035000D01*
%TO.N,/USB/EE_DO*%
X153525000Y-56305000D02*
X154849100Y-57629100D01*
X154849100Y-57629100D02*
X165880900Y-57629100D01*
X165880900Y-57629100D02*
X168510000Y-55000000D01*
%TO.N,/AFE_B/FDA_INN*%
X101887500Y-111025000D02*
X98846000Y-111025000D01*
X103225000Y-106000000D02*
X103225000Y-107950000D01*
X103225000Y-107950000D02*
X103175000Y-108000000D01*
X99169800Y-108000000D02*
X103175000Y-108000000D01*
X98846000Y-111025000D02*
X98029200Y-111841800D01*
X98029200Y-111841800D02*
X98029200Y-113295800D01*
X98029200Y-111841800D02*
X97172400Y-110985000D01*
X97172400Y-109997400D02*
X99169800Y-108000000D01*
X98029200Y-113295800D02*
X97825000Y-113500000D01*
X97172400Y-110985000D02*
X97172400Y-109997400D01*
%TO.N,/AFE_A/IN*%
X67537500Y-70000000D02*
X70537500Y-67000000D01*
X71225000Y-64000000D02*
X71225000Y-66312500D01*
X71225000Y-66312500D02*
X70537500Y-67000000D01*
X62700000Y-70000000D02*
X67537500Y-70000000D01*
%TO.N,/Power/SW*%
D53*
X170641900Y-121674800D02*
X170498800Y-121531700D01*
X172702700Y-121674800D02*
X170641900Y-121674800D01*
X170454900Y-121575600D02*
X169211900Y-121575600D01*
D52*
X172900000Y-122000000D02*
X172702700Y-121802700D01*
X170498800Y-121531700D02*
X170454900Y-121575600D01*
X172702700Y-121802700D02*
X172702700Y-121674800D01*
D53*
X169211900Y-121575600D02*
X169112500Y-121675000D01*
%TO.N,/ADC/REFHA*%
D51*
X110339500Y-88312500D02*
X109564700Y-87537700D01*
X111562500Y-88312500D02*
X111562500Y-88250000D01*
X109564700Y-87537700D02*
X108287300Y-87537700D01*
X107820000Y-91900000D02*
X107820000Y-90100000D01*
X108287300Y-87537700D02*
X107525000Y-88300000D01*
X111562500Y-88750000D02*
X111562500Y-88312500D01*
X111562500Y-88312500D02*
X110339500Y-88312500D01*
X107525000Y-88300000D02*
X107820000Y-88595000D01*
X107820000Y-88595000D02*
X107820000Y-90100000D01*
%TO.N,PWREN_N*%
X155700700Y-133190700D02*
X156000000Y-133490000D01*
X156000000Y-133490000D02*
X158622500Y-133490000D01*
X150250000Y-61325000D02*
X150250000Y-60578900D01*
X158622500Y-133490000D02*
X159062500Y-133050000D01*
X150250000Y-60578900D02*
X150744500Y-60084400D01*
X155219700Y-133190700D02*
X155700700Y-133190700D01*
X150744500Y-60084400D02*
X150958000Y-60084400D01*
%TO.N,/FPGA_SDRAM/TRIG_IN*%
X139250000Y-103852700D02*
X139250000Y-102662500D01*
%TO.N,/FPGA_SDRAM/GPIO0*%
X133775600Y-101452800D02*
X133203000Y-101452800D01*
X134250000Y-101927200D02*
X133775600Y-101452800D01*
X134250000Y-102662500D02*
X134250000Y-101927200D01*
%TO.N,/FPGA_SDRAM/GPIO1*%
X135250000Y-101948700D02*
X134762200Y-101460900D01*
X134762200Y-101460900D02*
X134599400Y-101460900D01*
X135250000Y-102662500D02*
X135250000Y-101948700D01*
%TO.N,/FPGA_SDRAM/GPIO2*%
X135750000Y-102662500D02*
X135750000Y-105566800D01*
%TO.N,/FPGA_SDRAM/GPIO3*%
X136250000Y-102662500D02*
X136250000Y-101960800D01*
X135160300Y-100871100D02*
X132924200Y-100871100D01*
X132586900Y-104060200D02*
X133266200Y-104739500D01*
X132586900Y-101208400D02*
X132586900Y-104060200D01*
X136250000Y-101960800D02*
X135160300Y-100871100D01*
X133266200Y-104739500D02*
X134371400Y-104739500D01*
X132924200Y-100871100D02*
X132586900Y-101208400D01*
%TO.N,/FPGA_SDRAM/GPIO4*%
X136750000Y-102662500D02*
X136750000Y-101454400D01*
%TO.N,/FPGA_SDRAM/GPIO5*%
X137250000Y-103453900D02*
X137250000Y-102662500D01*
X136844000Y-103859900D02*
X137250000Y-103453900D01*
%TO.N,/ADC/AINA_P*%
X111021700Y-69926100D02*
X111651100Y-69926100D01*
X111562500Y-87250000D02*
X111562500Y-86320500D01*
X110825000Y-68500000D02*
X110825000Y-69729400D01*
X110825000Y-69729400D02*
X111021700Y-69926100D01*
X111562500Y-86320500D02*
X110483100Y-85241100D01*
X111651100Y-69926100D02*
X112500000Y-70775000D01*
%TO.N,/ADC/AINA_N*%
X111562500Y-87750000D02*
X110668800Y-87750000D01*
X110929300Y-71500000D02*
X110929300Y-72449200D01*
X110825000Y-71500000D02*
X110929300Y-71500000D01*
X113245200Y-71186800D02*
X113245200Y-69970200D01*
X112932000Y-71500000D02*
X113245200Y-71186800D01*
X110929300Y-71500000D02*
X112932000Y-71500000D01*
X113245200Y-69970200D02*
X112500000Y-69225000D01*
%TO.N,FPGA_CRESET_N*%
X148341300Y-100874700D02*
X147750100Y-101465900D01*
X159000000Y-109490000D02*
X159000000Y-109257900D01*
X151946400Y-102148400D02*
X150672700Y-100874700D01*
X155314900Y-107184800D02*
X151946400Y-103816300D01*
X147750100Y-102662500D02*
X147750100Y-101465900D01*
X147750000Y-102662500D02*
X147750100Y-102662500D01*
X159000000Y-109257900D02*
X156926900Y-107184800D01*
X156926900Y-107184800D02*
X155314900Y-107184800D01*
X157675000Y-64250000D02*
X156437400Y-64250000D01*
X151946400Y-103816300D02*
X151946400Y-102148400D01*
X150672700Y-100874700D02*
X148341300Y-100874700D01*
%TO.N,/USB/EECS*%
X163943700Y-51933700D02*
X165010000Y-53000000D01*
X154086300Y-51933700D02*
X163943700Y-51933700D01*
X148750000Y-61325000D02*
X148750000Y-60286900D01*
X151599300Y-52495000D02*
X153525000Y-52495000D01*
X153525000Y-52495000D02*
X154086300Y-51933700D01*
X148750000Y-60286900D02*
X148543000Y-60079900D01*
%TO.N,/USB/EECLK*%
X155796500Y-54152000D02*
X156004400Y-54359900D01*
X164369900Y-54359900D02*
X165010000Y-55000000D01*
X153912000Y-54152000D02*
X153525000Y-53765000D01*
X149515300Y-62387000D02*
X156360200Y-62387000D01*
X149250000Y-61325000D02*
X149250000Y-62121700D01*
X156004400Y-54359900D02*
X164369900Y-54359900D01*
X155796500Y-54152000D02*
X153912000Y-54152000D01*
X149250000Y-62121700D02*
X149515300Y-62387000D01*
%TO.N,/USB/OSCI*%
X147368400Y-63504600D02*
X147368400Y-63035200D01*
X139247900Y-57850000D02*
X139900000Y-57850000D01*
X147368400Y-63035200D02*
X143805000Y-59471800D01*
X137300000Y-55520000D02*
X137860700Y-56080700D01*
X147123000Y-63750000D02*
X147368400Y-63504600D01*
X146325000Y-63750000D02*
X147123000Y-63750000D01*
D55*
X137860700Y-56462800D02*
X138015100Y-56617200D01*
D51*
X143805000Y-59471800D02*
X141521800Y-59471800D01*
X141521800Y-59471800D02*
X139900000Y-57850000D01*
D55*
X137860700Y-56137200D02*
X137860700Y-56462800D01*
D51*
X138015100Y-56617200D02*
X139247900Y-57850000D01*
X137860700Y-56080700D02*
X137860700Y-56137200D01*
%TO.N,CLK_10M*%
X121510000Y-103500000D02*
X121510000Y-102790900D01*
X132527300Y-92811600D02*
X132808600Y-92811600D01*
X132088900Y-93250000D02*
X132527300Y-92811600D01*
X121510000Y-102790900D02*
X121577500Y-102723400D01*
X131337500Y-93250000D02*
X132088900Y-93250000D01*
%TO.N,/ADC/ADC_CLK*%
X111562500Y-91096200D02*
X110585700Y-91096200D01*
X111562500Y-91250000D02*
X111562500Y-91096200D01*
X111562500Y-91096200D02*
X111562500Y-90750000D01*
X114010000Y-97500000D02*
X114010000Y-98278100D01*
%TO.N,ADC_B0*%
X130370800Y-92250000D02*
X127302600Y-89181800D01*
X116750000Y-95437500D02*
X116750000Y-96317900D01*
X127302600Y-89181800D02*
X122983500Y-89181800D01*
X131337500Y-92250000D02*
X130370800Y-92250000D01*
X116750000Y-96317900D02*
X116760700Y-96328600D01*
%TO.N,ADC_B1*%
X132549300Y-93750000D02*
X132552000Y-93747300D01*
X117247800Y-97229400D02*
X117374600Y-97102600D01*
X117250000Y-96037500D02*
X117250000Y-95437500D01*
X131337500Y-93750000D02*
X132549300Y-93750000D01*
X117374600Y-96162100D02*
X117250000Y-96037500D01*
X117374600Y-97102600D02*
X117374600Y-96162100D01*
%TO.N,ADC_B2*%
X118432200Y-97633600D02*
X117750000Y-96951400D01*
X118553200Y-97633600D02*
X118432200Y-97633600D01*
X117750000Y-96951400D02*
X117750000Y-95437500D01*
X131386600Y-94299100D02*
X133277100Y-94299100D01*
X131337500Y-94250000D02*
X131386600Y-94299100D01*
X133277100Y-94299100D02*
X133328000Y-94248200D01*
%TO.N,ADC_B3*%
X123420900Y-94750000D02*
X122957800Y-95213100D01*
X131337500Y-94750000D02*
X123420900Y-94750000D01*
X122957800Y-95213100D02*
X121297800Y-95213100D01*
X118250000Y-96656800D02*
X118325800Y-96732600D01*
X118250000Y-95437500D02*
X118250000Y-96656800D01*
%TO.N,ADC_B4*%
X132786500Y-95950500D02*
X132786500Y-96716400D01*
X118750000Y-96092000D02*
X119004200Y-96346200D01*
X118750000Y-95437500D02*
X118750000Y-96092000D01*
X132086000Y-95250000D02*
X132786500Y-95950500D01*
X131337500Y-95250000D02*
X132086000Y-95250000D01*
%TO.N,ADC_B5*%
X121863800Y-95596700D02*
X130310000Y-95596700D01*
X130463300Y-95750000D02*
X131337500Y-95750000D01*
X130310000Y-95596700D02*
X130463300Y-95750000D01*
X121067700Y-95774100D02*
X121686400Y-95774100D01*
X121686400Y-95774100D02*
X121863800Y-95596700D01*
X120437500Y-94750000D02*
X120437500Y-95143900D01*
X120437500Y-95143900D02*
X121067700Y-95774100D01*
%TO.N,ADC_B6*%
X127252200Y-96629300D02*
X125150500Y-96629300D01*
X122772800Y-94250000D02*
X120437500Y-94250000D01*
X127372900Y-96750000D02*
X127252200Y-96629300D01*
X122904500Y-94381700D02*
X122772800Y-94250000D01*
X131337500Y-96750000D02*
X127372900Y-96750000D01*
%TO.N,ADC_B7*%
X120507400Y-93819900D02*
X124611800Y-93819900D01*
X120437500Y-93750000D02*
X120507400Y-93819900D01*
X124611800Y-93819900D02*
X124804000Y-94012100D01*
X131337500Y-97250000D02*
X131275700Y-97188200D01*
X131275700Y-97188200D02*
X126661400Y-97188200D01*
%TO.N,ADC_B8*%
X132583400Y-98250000D02*
X132649900Y-98183500D01*
X129033400Y-93460000D02*
X129322100Y-93748700D01*
X121029800Y-93460000D02*
X129033400Y-93460000D01*
X131337500Y-98250000D02*
X132583400Y-98250000D01*
X120437500Y-93250000D02*
X120819800Y-93250000D01*
X120819800Y-93250000D02*
X121029800Y-93460000D01*
%TO.N,ADC_B9*%
X126152200Y-93025600D02*
X129875900Y-93025600D01*
X120437500Y-92750000D02*
X125876600Y-92750000D01*
X131337500Y-98750000D02*
X134074800Y-98750000D01*
X129875900Y-93025600D02*
X130115000Y-93264700D01*
X125876600Y-92750000D02*
X126152200Y-93025600D01*
%TO.N,ADC_B10*%
X130626400Y-99250000D02*
X130058800Y-98682400D01*
X120437500Y-92250000D02*
X120548700Y-92361200D01*
X120548700Y-92361200D02*
X126273000Y-92361200D01*
X131337500Y-99250000D02*
X130626400Y-99250000D01*
%TO.N,ADC_B11*%
X130334300Y-99750000D02*
X130018500Y-99434200D01*
X120437500Y-91750000D02*
X125625000Y-91750000D01*
X131337500Y-99750000D02*
X130334300Y-99750000D01*
%TO.N,ADC_OFB*%
X130621900Y-91750000D02*
X129983100Y-91111200D01*
X131337500Y-91750000D02*
X130621900Y-91750000D01*
X120499100Y-91188400D02*
X127779200Y-91188400D01*
X129983100Y-91111200D02*
X129983100Y-91082200D01*
X120437500Y-91250000D02*
X120499100Y-91188400D01*
%TO.N,ADC_A0*%
X131337500Y-83250000D02*
X128784900Y-83250000D01*
X121270200Y-90175200D02*
X122771200Y-90175200D01*
X120437500Y-89750000D02*
X120845000Y-89750000D01*
X120845000Y-89750000D02*
X121270200Y-90175200D01*
X128784900Y-83250000D02*
X128199900Y-83835000D01*
%TO.N,ADC_A1*%
X122556900Y-84014900D02*
X122935900Y-83635900D01*
X121327900Y-89250000D02*
X121479500Y-89401600D01*
X122935900Y-83635900D02*
X127618900Y-83635900D01*
X127618900Y-83635900D02*
X128413300Y-82841500D01*
X132331800Y-83012700D02*
X132331800Y-83494100D01*
X120437500Y-89250000D02*
X121327900Y-89250000D01*
X132331800Y-83494100D02*
X132075900Y-83750000D01*
X128413300Y-82841500D02*
X132160600Y-82841500D01*
X132075900Y-83750000D02*
X131337500Y-83750000D01*
X132160600Y-82841500D02*
X132331800Y-83012700D01*
%TO.N,ADC_A2*%
X128395200Y-84419900D02*
X128565100Y-84250000D01*
X127938300Y-84419900D02*
X128395200Y-84419900D01*
X120525500Y-88838000D02*
X122051900Y-88838000D01*
X128565100Y-84250000D02*
X131337500Y-84250000D01*
X120437500Y-88750000D02*
X120525500Y-88838000D01*
X123578900Y-84198300D02*
X127716700Y-84198300D01*
X127716700Y-84198300D02*
X127938300Y-84419900D01*
%TO.N,ADC_A3*%
X125585500Y-88250000D02*
X125639500Y-88304000D01*
X120437500Y-88250000D02*
X125585500Y-88250000D01*
X131337500Y-84750000D02*
X132532500Y-84750000D01*
%TO.N,ADC_A4*%
X127898400Y-87590300D02*
X127738700Y-87750000D01*
X127738700Y-87750000D02*
X120437500Y-87750000D01*
X128737300Y-87590300D02*
X127898400Y-87590300D01*
X131285800Y-86301700D02*
X129201500Y-86301700D01*
X131337500Y-86250000D02*
X131285800Y-86301700D01*
%TO.N,ADC_A5*%
X125277700Y-86849500D02*
X120838000Y-86849500D01*
D55*
X131238000Y-86849500D02*
X131337500Y-86750000D01*
X125277700Y-86849500D02*
X131238000Y-86849500D01*
D51*
X120838000Y-86849500D02*
X120437500Y-87250000D01*
%TO.N,ADC_A6*%
X118750000Y-86562500D02*
X118750000Y-85683900D01*
X118750000Y-85683900D02*
X118770300Y-85663600D01*
X131337500Y-87250000D02*
X132534400Y-87250000D01*
%TO.N,ADC_A7*%
X122574800Y-86383300D02*
X127601400Y-86383300D01*
X121278000Y-85086500D02*
X122574800Y-86383300D01*
X118188600Y-85465000D02*
X118567100Y-85086500D01*
X118188600Y-86501100D02*
X118188600Y-85465000D01*
X131337500Y-87750000D02*
X132070500Y-87750000D01*
X132070500Y-87750000D02*
X132547900Y-88227400D01*
X118567100Y-85086500D02*
X121278000Y-85086500D01*
X127601400Y-86383300D02*
X127681300Y-86303400D01*
X118250000Y-86562500D02*
X118188600Y-86501100D01*
%TO.N,ADC_A8*%
X117750000Y-86562500D02*
X117750000Y-85355800D01*
X131337500Y-88250000D02*
X130632000Y-88250000D01*
X130632000Y-88250000D02*
X130135800Y-87753800D01*
X118381300Y-84724500D02*
X121602500Y-84724500D01*
X117750000Y-85355800D02*
X118381300Y-84724500D01*
X121602500Y-84724500D02*
X122672400Y-85794400D01*
X122672400Y-85794400D02*
X123960800Y-85794400D01*
X130135800Y-87753800D02*
X129638500Y-87753800D01*
%TO.N,ADC_A9*%
X129944900Y-88473400D02*
X128458200Y-88473400D01*
X122587000Y-85211700D02*
X124724300Y-85211700D01*
X117250000Y-85358500D02*
X118235700Y-84372800D01*
X131337500Y-88750000D02*
X130221500Y-88750000D01*
X130221500Y-88750000D02*
X129944900Y-88473400D01*
X128458200Y-88473400D02*
X128126800Y-88142000D01*
X118235700Y-84372800D02*
X121748100Y-84372800D01*
X117250000Y-86562500D02*
X117250000Y-85358500D01*
X121748100Y-84372800D02*
X122587000Y-85211700D01*
%TO.N,ADC_A10*%
X131337500Y-90250000D02*
X132050700Y-90250000D01*
X116750000Y-85338600D02*
X116750000Y-86562500D01*
X121878500Y-82613400D02*
X117996500Y-82613400D01*
X133125200Y-89175500D02*
X133125200Y-86132400D01*
X132050700Y-90250000D02*
X133125200Y-89175500D01*
X122284200Y-82207700D02*
X121878500Y-82613400D01*
X133125200Y-86132400D02*
X132923000Y-85930200D01*
X117996500Y-82613400D02*
X117059600Y-83550300D01*
X118483200Y-83678500D02*
X118410100Y-83678500D01*
X118410100Y-83678500D02*
X116750000Y-85338600D01*
%TO.N,ADC_A11*%
X116250000Y-85144700D02*
X116250000Y-86562500D01*
X127516000Y-82443600D02*
X126836400Y-83123200D01*
X117613200Y-83768400D02*
X117613200Y-83781500D01*
X132116900Y-90750000D02*
X133476900Y-89390000D01*
X126836400Y-83123200D02*
X118258400Y-83123200D01*
X132275600Y-82443600D02*
X127516000Y-82443600D01*
X133476900Y-83644900D02*
X132275600Y-82443600D01*
X133476900Y-89390000D02*
X133476900Y-83644900D01*
X117613200Y-83781500D02*
X116250000Y-85144700D01*
X118258400Y-83123200D02*
X117613200Y-83768400D01*
X131337500Y-90750000D02*
X132116900Y-90750000D01*
%TO.N,ADC_OFA*%
X115750000Y-85920600D02*
X115750000Y-86562500D01*
X131337500Y-91250000D02*
X132538200Y-91250000D01*
X115478500Y-85649100D02*
X115750000Y-85920600D01*
%TO.N,/ADC/MODE*%
X114250000Y-85772200D02*
X114250000Y-86562500D01*
X113510000Y-99500000D02*
X111784800Y-97774800D01*
X111784800Y-97774800D02*
X110404500Y-97774800D01*
X114357900Y-85664300D02*
X114250000Y-85772200D01*
X112481700Y-101308300D02*
X112490000Y-101300000D01*
X110421900Y-101308300D02*
X112481700Y-101308300D01*
%TO.N,/FPGA_SDRAM/LED0_A*%
X133787500Y-110000000D02*
X135990000Y-110000000D01*
%TO.N,/FPGA_SDRAM/LED0*%
X133250000Y-102662500D02*
X133176700Y-102735800D01*
X137010000Y-110000000D02*
X135132700Y-108122700D01*
X135132700Y-108122700D02*
X134569600Y-108122700D01*
X133176700Y-102735800D02*
X133176700Y-103853500D01*
%TO.N,/FPGA_SDRAM/LED1_A*%
X133787500Y-112500000D02*
X135990000Y-112500000D01*
%TO.N,/FPGA_SDRAM/LED1*%
X137010000Y-112500000D02*
X136227500Y-111717500D01*
X133750000Y-102662500D02*
X133750000Y-103528700D01*
X133750000Y-103528700D02*
X134092700Y-103871400D01*
%TO.N,/AFE_B/FDA_OUTP*%
X106675000Y-108000000D02*
X109175000Y-110500000D01*
X104825000Y-108000000D02*
X103387100Y-109437900D01*
X104775000Y-106000000D02*
X104825000Y-106050000D01*
X104825000Y-108000000D02*
X106675000Y-108000000D01*
X100597900Y-112975000D02*
X101887500Y-112975000D01*
X103387100Y-109437900D02*
X102482400Y-109437900D01*
X104825000Y-106050000D02*
X104825000Y-108000000D01*
%TO.N,FPGA_CDONE*%
X147250000Y-102662500D02*
X147181200Y-102593700D01*
X157675000Y-64750000D02*
X158923900Y-64750000D01*
X161787100Y-110229200D02*
X161047900Y-109490000D01*
X147181200Y-101648500D02*
X146997100Y-101464400D01*
X161047900Y-109490000D02*
X161000000Y-109490000D01*
X147181200Y-102593700D02*
X147181200Y-101648500D01*
%TO.N,SPI_MOSI*%
X145328300Y-106803900D02*
X145328300Y-111701300D01*
X148250000Y-102662500D02*
X148250000Y-103882200D01*
X157675000Y-67750000D02*
X157618800Y-67806200D01*
X157618800Y-67806200D02*
X156159900Y-67806200D01*
X147290500Y-112049100D02*
X149146400Y-113905000D01*
X149146400Y-113905000D02*
X153587500Y-113905000D01*
X145328300Y-111701300D02*
X145676100Y-112049100D01*
X156159900Y-67806200D02*
X155893400Y-67539700D01*
X155893400Y-66950900D02*
X156419200Y-66425100D01*
X148250000Y-103882200D02*
X145328300Y-106803900D01*
X155893400Y-67539700D02*
X155893400Y-66950900D01*
X145676100Y-112049100D02*
X147290500Y-112049100D01*
%TO.N,SPI_MISO*%
X148750000Y-102662500D02*
X148750000Y-101500100D01*
X148750000Y-101500100D02*
X148784500Y-101465600D01*
X146412500Y-111365000D02*
X146545400Y-111365000D01*
X157675000Y-67250000D02*
X156445200Y-67250000D01*
X147834000Y-110076400D02*
X147834000Y-109347100D01*
X146545400Y-111365000D02*
X147834000Y-110076400D01*
%TO.N,SPI_SCK*%
X150966000Y-101665300D02*
X149970400Y-101665300D01*
X149750000Y-101885700D02*
X149750000Y-102662500D01*
X157675000Y-68250000D02*
X158814900Y-68250000D01*
X158814900Y-68250000D02*
X158905500Y-68159400D01*
X149970400Y-101665300D02*
X149750000Y-101885700D01*
X151394700Y-102390800D02*
X151394700Y-102094000D01*
X155025400Y-112635000D02*
X155101400Y-112559000D01*
X153587500Y-112635000D02*
X155025400Y-112635000D01*
X151394700Y-102094000D02*
X150966000Y-101665300D01*
%TO.N,FT_D0*%
X152996500Y-78116300D02*
X152772800Y-77892600D01*
X146325000Y-70750000D02*
X147675800Y-70750000D01*
X150250000Y-79958500D02*
X150250000Y-81337500D01*
X152772800Y-77892600D02*
X152315900Y-77892600D01*
X148213700Y-70212100D02*
X152234200Y-70212100D01*
X153925700Y-78116300D02*
X152996500Y-78116300D01*
X152315900Y-77892600D02*
X150250000Y-79958500D01*
X152234200Y-70212100D02*
X152402400Y-70380300D01*
X147675800Y-70750000D02*
X148213700Y-70212100D01*
%TO.N,FT_D1*%
X149250000Y-81337500D02*
X149347900Y-81239600D01*
X148250000Y-72675000D02*
X148250000Y-74307500D01*
X149347900Y-79582400D02*
X148472400Y-78706900D01*
X148250000Y-74307500D02*
X148254600Y-74312100D01*
X149347900Y-81239600D02*
X149347900Y-79582400D01*
%TO.N,FT_D2*%
X148749900Y-82125900D02*
X147772900Y-83102900D01*
X148749900Y-81337500D02*
X148749900Y-82125900D01*
X148750000Y-71911000D02*
X148101800Y-71262800D01*
X148101800Y-71262800D02*
X147989000Y-71262800D01*
X147772900Y-83102900D02*
X145039300Y-83102900D01*
X148750000Y-81337500D02*
X148749900Y-81337500D01*
X148750000Y-72675000D02*
X148750000Y-71911000D01*
%TO.N,FT_D3*%
X148250000Y-80441800D02*
X148777300Y-79914500D01*
X149250000Y-73606900D02*
X148931300Y-73925600D01*
X148250000Y-81337500D02*
X148250000Y-80441800D01*
X149250000Y-72675000D02*
X149250000Y-73606900D01*
%TO.N,FT_D4*%
X147750000Y-81337500D02*
X147791400Y-81296100D01*
X147791400Y-81296100D02*
X147791400Y-79907300D01*
X150250000Y-72675000D02*
X150250000Y-73651900D01*
X150250000Y-73651900D02*
X150508500Y-73910400D01*
%TO.N,FT_D5*%
X146969300Y-79915000D02*
X147250000Y-80195700D01*
X150750000Y-72675000D02*
X150750000Y-71876500D01*
X150750000Y-71876500D02*
X150309600Y-71436100D01*
X147250000Y-80195700D02*
X147250000Y-81337500D01*
X150309600Y-71436100D02*
X149837500Y-71436100D01*
%TO.N,FT_D6*%
X146404200Y-79662600D02*
X146404200Y-80210900D01*
X151250000Y-72675000D02*
X151250000Y-71444100D01*
X147548900Y-74397000D02*
X148276600Y-75124700D01*
X147548900Y-72094700D02*
X147548900Y-74397000D01*
X146750000Y-80556700D02*
X146750000Y-81337500D01*
X146404200Y-80210900D02*
X146750000Y-80556700D01*
X148501700Y-77841500D02*
X148225300Y-77841500D01*
X148276600Y-75124700D02*
X148509200Y-75124700D01*
X147321800Y-71867600D02*
X147548900Y-72094700D01*
X148225300Y-77841500D02*
X146404200Y-79662600D01*
%TO.N,FT_D7*%
X146052100Y-80356100D02*
X146052100Y-79511000D01*
X151698300Y-74561500D02*
X151639800Y-74620000D01*
X146052100Y-79511000D02*
X148273300Y-77289800D01*
X148273300Y-77289800D02*
X149615300Y-77289800D01*
X151698300Y-72726700D02*
X151698300Y-74561500D01*
X146250000Y-80554000D02*
X146052100Y-80356100D01*
X151750000Y-72675000D02*
X151698300Y-72726700D01*
X146250000Y-81337500D02*
X146250000Y-80554000D01*
%TO.N,FT_RXF_N*%
X152801700Y-74381900D02*
X151249200Y-75934400D01*
X148127700Y-76938100D02*
X145699100Y-79366700D01*
X150042600Y-75934400D02*
X150042600Y-75934500D01*
X151249200Y-75934400D02*
X150042600Y-75934400D01*
X152750000Y-72675000D02*
X152801700Y-72726700D01*
X145699100Y-79366700D02*
X145699100Y-81286600D01*
X145699100Y-81286600D02*
X145750000Y-81337500D01*
X150042600Y-75934500D02*
X149039000Y-76938100D01*
X149039000Y-76938100D02*
X148127700Y-76938100D01*
X152801700Y-72726700D02*
X152801700Y-74381900D01*
%TO.N,FT_TXE_N*%
X153250000Y-74740800D02*
X153250000Y-72675000D01*
X148644200Y-75924300D02*
X145250000Y-79318500D01*
X145250000Y-79318500D02*
X145250000Y-81337500D01*
X149272600Y-75924300D02*
X148644200Y-75924300D01*
%TO.N,FT_RD_N*%
X157516800Y-78747600D02*
X156963800Y-79300600D01*
X144750000Y-82085900D02*
X145215200Y-82551100D01*
X145215200Y-82551100D02*
X147531100Y-82551100D01*
X153750000Y-72675000D02*
X153750000Y-74002300D01*
X156963800Y-79300600D02*
X151688000Y-79300600D01*
X153750000Y-74002300D02*
X157516800Y-77769100D01*
X157516800Y-77769100D02*
X157516800Y-78747600D01*
X144750000Y-81337500D02*
X144750000Y-82085900D01*
%TO.N,FT_WR_N*%
X154250000Y-72675000D02*
X154250000Y-71445100D01*
X144843200Y-79228000D02*
X144843200Y-79587100D01*
X147000000Y-72700100D02*
X147000000Y-77071200D01*
X146729100Y-72429200D02*
X147000000Y-72700100D01*
X147000000Y-77071200D02*
X144843200Y-79228000D01*
X144843200Y-79587100D02*
X144250000Y-80180300D01*
X144250000Y-80180300D02*
X144250000Y-81337500D01*
%TO.N,FT_SIWU_N*%
X143250000Y-81337500D02*
X143250000Y-82101200D01*
X143250000Y-82101200D02*
X144913800Y-83765000D01*
X144913800Y-83765000D02*
X147720900Y-83765000D01*
X154750000Y-73612500D02*
X154456800Y-73905700D01*
X154750000Y-72675000D02*
X154750000Y-73612500D01*
%TO.N,FT_OE_N*%
X142750000Y-80224700D02*
X142906300Y-80068400D01*
X153014800Y-70750000D02*
X157675000Y-70750000D01*
X149275000Y-70784800D02*
X152026700Y-70784800D01*
X142750000Y-81337500D02*
X142750000Y-80224700D01*
X152793900Y-70970900D02*
X153014800Y-70750000D01*
X152026700Y-70784800D02*
X152212800Y-70970900D01*
X152212800Y-70970900D02*
X152793900Y-70970900D01*
%TO.N,FT_CLK*%
X155750000Y-71819500D02*
X155273600Y-71343100D01*
X155750000Y-72675000D02*
X155750000Y-71819500D01*
X140750000Y-80149400D02*
X140628300Y-80027700D01*
X140750000Y-81337500D02*
X140750000Y-80149400D01*
%TO.N,/USB/FT_RESET_N*%
X148026800Y-69750000D02*
X148161500Y-69615300D01*
X146325000Y-69750000D02*
X148026800Y-69750000D01*
X144297100Y-71502200D02*
X144297100Y-71287100D01*
X145951700Y-72720900D02*
X145515800Y-72720900D01*
X145515800Y-72720900D02*
X144297100Y-71502200D01*
X144297100Y-71287100D02*
X143500000Y-70490000D01*
%TO.N,/AFE_A/BUF_FB*%
X89482100Y-73157100D02*
X89112500Y-73157100D01*
X89011200Y-68095000D02*
X89061900Y-68044300D01*
X90825000Y-74500000D02*
X89482100Y-73157100D01*
X87525000Y-68095000D02*
X89011200Y-68095000D01*
%TO.N,/AFE_A/BUF_INN*%
X89175000Y-74500000D02*
X89041100Y-74366100D01*
X89041100Y-74366100D02*
X88206700Y-74366100D01*
X87525000Y-69365000D02*
X86071500Y-69365000D01*
%TO.N,/USB/FT_REF*%
X148164900Y-66720500D02*
X147194400Y-65750000D01*
X147936800Y-67888500D02*
X148164900Y-67660400D01*
X143889800Y-62420200D02*
X145185600Y-62420200D01*
X147194400Y-65750000D02*
X146325000Y-65750000D01*
X143500000Y-62810000D02*
X143889800Y-62420200D01*
X148164900Y-67660400D02*
X148164900Y-66720500D01*
%TD*%
M02*
