%TF.GenerationSoftware,KiCad,Pcbnew,10.0.4*%
%TF.CreationDate,2026-10-09T15:41:01-04:00*%
%TF.ProjectId,dual_adc_usb,6475616c-5f61-4646-935f-7573622e6b69,rev?*%
%TF.SameCoordinates,Original*%
%TF.FileFunction,Other,User*%
%FSLAX46Y46*%
G04 Gerber Fmt 4.6, Leading zero omitted, Abs format (unit mm)*
G04 Created by KiCad (PCBNEW 10.0.4) date 2026-10-09 15:41:01*
%MOMM*%
%LPD*%
G01*
G04 APERTURE LIST*
%ADD10C,0.050000*%
G04 APERTURE END LIST*
%TO.C,C1*%
D10*
X166136900Y-103220400D02*
X169096900Y-103220400D01*
X169096900Y-104680400D01*
X166136900Y-104680400D01*
X166136900Y-103220400D01*
%TO.C,F1*%
X159665300Y-113763200D02*
X161925300Y-113763200D01*
X161925300Y-118323200D01*
X159665300Y-118323200D01*
X159665300Y-113763200D01*
%TO.C,R43*%
X134116900Y-104563100D02*
X137076900Y-104563100D01*
X137076900Y-106023100D01*
X134116900Y-106023100D01*
X134116900Y-104563100D01*
%TO.C,D4*%
X137727200Y-72936200D02*
X139187200Y-72936200D01*
X139187200Y-75896200D01*
X137727200Y-75896200D01*
X137727200Y-72936200D01*
%TO.C,C6*%
X133302800Y-67164800D02*
X136702800Y-67164800D01*
X136702800Y-69124800D01*
X133302800Y-69124800D01*
X133302800Y-67164800D01*
%TO.C,R3*%
X74217100Y-96188800D02*
X77177100Y-96188800D01*
X77177100Y-97648800D01*
X74217100Y-97648800D01*
X74217100Y-96188800D01*
%TO.C,C86*%
X118287500Y-96629700D02*
X119747500Y-96629700D01*
X119747500Y-99589700D01*
X118287500Y-99589700D01*
X118287500Y-96629700D01*
%TO.C,D2*%
X68968700Y-67186800D02*
X70118700Y-67186800D01*
X68968700Y-68986800D02*
X68968700Y-67186800D01*
X69168700Y-68986800D02*
X68968700Y-68986800D01*
X69168700Y-70016800D02*
X69168700Y-68986800D01*
X70118700Y-66156800D02*
X71218700Y-66156800D01*
X70118700Y-67186800D02*
X70118700Y-66156800D01*
X70278700Y-68986800D02*
X70278700Y-70016800D01*
X70278700Y-70016800D02*
X69168700Y-70016800D01*
X71058700Y-68986800D02*
X70278700Y-68986800D01*
X71058700Y-70016800D02*
X71058700Y-68986800D01*
X71218700Y-66156800D02*
X71218700Y-67186800D01*
X71218700Y-67186800D02*
X72368700Y-67186800D01*
X72168700Y-68986800D02*
X72168700Y-70016800D01*
X72168700Y-70016800D02*
X71058700Y-70016800D01*
X72368700Y-67186800D02*
X72368700Y-68986800D01*
X72368700Y-68986800D02*
X72168700Y-68986800D01*
%TO.C,R29*%
X66033000Y-110041100D02*
X67493000Y-110041100D01*
X67493000Y-113001100D01*
X66033000Y-113001100D01*
X66033000Y-110041100D01*
%TO.C,C39*%
X73802300Y-76560600D02*
X76762300Y-76560600D01*
X76762300Y-78020600D01*
X73802300Y-78020600D01*
X73802300Y-76560600D01*
%TO.C,R32*%
X82486700Y-106155600D02*
X83946700Y-106155600D01*
X83946700Y-109115600D01*
X82486700Y-109115600D01*
X82486700Y-106155600D01*
%TO.C,C36*%
X81513400Y-68988900D02*
X84473400Y-68988900D01*
X84473400Y-70448900D01*
X81513400Y-70448900D01*
X81513400Y-68988900D01*
%TO.C,C21*%
X158488700Y-118936000D02*
X159948700Y-118936000D01*
X159948700Y-121896000D01*
X158488700Y-121896000D01*
X158488700Y-118936000D01*
%TO.C,R41*%
X97782700Y-76844800D02*
X100742700Y-76844800D01*
X100742700Y-78304800D01*
X97782700Y-78304800D01*
X97782700Y-76844800D01*
%TO.C,R9*%
X125801100Y-75633300D02*
X128761100Y-75633300D01*
X128761100Y-77093300D01*
X125801100Y-77093300D01*
X125801100Y-75633300D01*
%TO.C,C55*%
X79405200Y-109967800D02*
X82365200Y-109967800D01*
X82365200Y-111427800D01*
X79405200Y-111427800D01*
X79405200Y-109967800D01*
%TO.C,C70*%
X89387400Y-96431500D02*
X92347400Y-96431500D01*
X92347400Y-97891500D01*
X89387400Y-97891500D01*
X89387400Y-96431500D01*
%TO.C,J1*%
X163010000Y-113980000D02*
X163010000Y-130520000D01*
X163010000Y-130520000D02*
X180510000Y-130520000D01*
X180510000Y-113980000D02*
X163010000Y-113980000D01*
X180510000Y-130520000D02*
X180510000Y-113980000D01*
%TO.C,C56*%
X75635600Y-110095000D02*
X78595600Y-110095000D01*
X78595600Y-111555000D01*
X75635600Y-111555000D01*
X75635600Y-110095000D01*
%TO.C,R26*%
X93215500Y-86256100D02*
X94675500Y-86256100D01*
X94675500Y-89216100D01*
X93215500Y-89216100D01*
X93215500Y-86256100D01*
%TO.C,U11*%
X85300000Y-108540000D02*
X86800000Y-108540000D01*
X85300000Y-113460000D02*
X85300000Y-108540000D01*
X86800000Y-108300000D02*
X91200000Y-108300000D01*
X86800000Y-108540000D02*
X86800000Y-108300000D01*
X86800000Y-113460000D02*
X85300000Y-113460000D01*
X86800000Y-113700000D02*
X86800000Y-113460000D01*
X91200000Y-108300000D02*
X91200000Y-108540000D01*
X91200000Y-108540000D02*
X92700000Y-108540000D01*
X91200000Y-113460000D02*
X91200000Y-113700000D01*
X91200000Y-113700000D02*
X86800000Y-113700000D01*
X92700000Y-108540000D02*
X92700000Y-113460000D01*
X92700000Y-113460000D02*
X91200000Y-113460000D01*
%TO.C,C75*%
X92332600Y-84094700D02*
X95292600Y-84094700D01*
X95292600Y-85554700D01*
X92332600Y-85554700D01*
X92332600Y-84094700D01*
%TO.C,C57*%
X97672100Y-97632400D02*
X99132100Y-97632400D01*
X99132100Y-100592400D01*
X97672100Y-100592400D01*
X97672100Y-97632400D01*
%TO.C,C103*%
X129401700Y-75630100D02*
X132361700Y-75630100D01*
X132361700Y-77090100D01*
X129401700Y-77090100D01*
X129401700Y-75630100D01*
%TO.C,R19*%
X66320600Y-78190800D02*
X68580600Y-78190800D01*
X68580600Y-82750800D01*
X66320600Y-82750800D01*
X66320600Y-78190800D01*
%TO.C,C69*%
X88635600Y-90245800D02*
X91595600Y-90245800D01*
X91595600Y-91705800D01*
X88635600Y-91705800D01*
X88635600Y-90245800D01*
%TO.C,R22*%
X69837600Y-64036500D02*
X72797600Y-64036500D01*
X72797600Y-65496500D01*
X69837600Y-65496500D01*
X69837600Y-64036500D01*
%TO.C,R2*%
X175421200Y-105344100D02*
X178381200Y-105344100D01*
X178381200Y-106804100D01*
X175421200Y-106804100D01*
X175421200Y-105344100D01*
%TO.C,C53*%
X93445000Y-109520000D02*
X94905000Y-109520000D01*
X94905000Y-112480000D01*
X93445000Y-112480000D01*
X93445000Y-109520000D01*
%TO.C,C32*%
X66050000Y-67700000D02*
X68350000Y-67700000D01*
X68350000Y-72300000D01*
X66050000Y-72300000D01*
X66050000Y-67700000D01*
%TO.C,C2*%
X172403100Y-103220400D02*
X175363100Y-103220400D01*
X175363100Y-104680400D01*
X172403100Y-104680400D01*
X172403100Y-103220400D01*
%TO.C,R36*%
X102806900Y-99738800D02*
X104266900Y-99738800D01*
X104266900Y-102698800D01*
X102806900Y-102698800D01*
X102806900Y-99738800D01*
%TO.C,C34*%
X69221900Y-70755900D02*
X70681900Y-70755900D01*
X70681900Y-73715900D01*
X69221900Y-73715900D01*
X69221900Y-70755900D01*
%TO.C,R5*%
X70395000Y-90103500D02*
X73355000Y-90103500D01*
X73355000Y-91563500D01*
X70395000Y-91563500D01*
X70395000Y-90103500D01*
%TO.C,R46*%
X140181300Y-104263100D02*
X141641300Y-104263100D01*
X141641300Y-107223100D01*
X140181300Y-107223100D01*
X140181300Y-104263100D01*
%TO.C,C13*%
X74217100Y-90351200D02*
X77177100Y-90351200D01*
X77177100Y-91811200D01*
X74217100Y-91811200D01*
X74217100Y-90351200D01*
%TO.C,C33*%
X66301900Y-72910900D02*
X68601900Y-72910900D01*
X68601900Y-77510900D01*
X66301900Y-77510900D01*
X66301900Y-72910900D01*
%TO.C,R1*%
X176178100Y-103220400D02*
X179138100Y-103220400D01*
X179138100Y-104680400D01*
X176178100Y-104680400D01*
X176178100Y-103220400D01*
%TO.C,R38*%
X105154300Y-81367200D02*
X106614300Y-81367200D01*
X106614300Y-84327200D01*
X105154300Y-84327200D01*
X105154300Y-81367200D01*
%TO.C,C43*%
X78033200Y-79978600D02*
X80993200Y-79978600D01*
X80993200Y-81438600D01*
X78033200Y-81438600D01*
X78033200Y-79978600D01*
%TO.C,C47*%
X69221900Y-116755900D02*
X70681900Y-116755900D01*
X70681900Y-119715900D01*
X69221900Y-119715900D01*
X69221900Y-116755900D01*
%TO.C,R17*%
X148179400Y-132406700D02*
X149639400Y-132406700D01*
X149639400Y-135366700D01*
X148179400Y-135366700D01*
X148179400Y-132406700D01*
%TO.C,C29*%
X157343200Y-131841000D02*
X160303200Y-131841000D01*
X160303200Y-133301000D01*
X157343200Y-133301000D01*
X157343200Y-131841000D01*
%TO.C,R16*%
X129897000Y-136124000D02*
X131357000Y-136124000D01*
X131357000Y-139084000D01*
X129897000Y-139084000D01*
X129897000Y-136124000D01*
%TO.C,C71*%
X89010300Y-88191200D02*
X91970300Y-88191200D01*
X91970300Y-89651200D01*
X89010300Y-89651200D01*
X89010300Y-88191200D01*
%TO.C,U15*%
X137350000Y-109520000D02*
X139100000Y-109520000D01*
X137350000Y-114480000D02*
X137350000Y-109520000D01*
X139100000Y-109100000D02*
X144900000Y-109100000D01*
X139100000Y-109520000D02*
X139100000Y-109100000D01*
X139100000Y-114480000D02*
X137350000Y-114480000D01*
X139100000Y-114900000D02*
X139100000Y-114480000D01*
X144900000Y-109100000D02*
X144900000Y-109520000D01*
X144900000Y-109520000D02*
X146650000Y-109520000D01*
X144900000Y-114480000D02*
X144900000Y-114900000D01*
X144900000Y-114900000D02*
X139100000Y-114900000D01*
X146650000Y-109520000D02*
X146650000Y-114480000D01*
X146650000Y-114480000D02*
X144900000Y-114480000D01*
%TO.C,U6*%
X142300000Y-119850000D02*
X143750000Y-119850000D01*
X142300000Y-128150000D02*
X142300000Y-119850000D01*
X143750000Y-118750000D02*
X144850000Y-118750000D01*
X143750000Y-119850000D02*
X143750000Y-118750000D01*
X143750000Y-128150000D02*
X142300000Y-128150000D01*
X143750000Y-129250000D02*
X143750000Y-128150000D01*
X144850000Y-117300000D02*
X153150000Y-117300000D01*
X144850000Y-118750000D02*
X144850000Y-117300000D01*
X144850000Y-129250000D02*
X143750000Y-129250000D01*
X144850000Y-130700000D02*
X144850000Y-129250000D01*
X153150000Y-117300000D02*
X153150000Y-118750000D01*
X153150000Y-118750000D02*
X154250000Y-118750000D01*
X153150000Y-129250000D02*
X153150000Y-130700000D01*
X153150000Y-130700000D02*
X144850000Y-130700000D01*
X154250000Y-118750000D02*
X154250000Y-119850000D01*
X154250000Y-119850000D02*
X155700000Y-119850000D01*
X154250000Y-128150000D02*
X154250000Y-129250000D01*
X154250000Y-129250000D02*
X153150000Y-129250000D01*
X155700000Y-119850000D02*
X155700000Y-128150000D01*
X155700000Y-128150000D02*
X154250000Y-128150000D01*
%TO.C,C101*%
X131035200Y-106907500D02*
X133995200Y-106907500D01*
X133995200Y-108367500D01*
X131035200Y-108367500D01*
X131035200Y-106907500D01*
%TO.C,R15*%
X150718500Y-135181600D02*
X152178500Y-135181600D01*
X152178500Y-138141600D01*
X150718500Y-138141600D01*
X150718500Y-135181600D01*
%TO.C,C65*%
X92926100Y-98624500D02*
X94886100Y-98624500D01*
X94886100Y-102024500D01*
X92926100Y-102024500D01*
X92926100Y-98624500D01*
%TO.C,R48*%
X144411800Y-103950600D02*
X145871800Y-103950600D01*
X145871800Y-106910600D01*
X144411800Y-106910600D01*
X144411800Y-103950600D01*
%TO.C,R6*%
X66969000Y-92348000D02*
X69929000Y-92348000D01*
X69929000Y-93808000D01*
X66969000Y-93808000D01*
X66969000Y-92348000D01*
%TO.C,C9*%
X88008000Y-85610800D02*
X91408000Y-85610800D01*
X91408000Y-87570800D01*
X88008000Y-87570800D01*
X88008000Y-85610800D01*
%TO.C,C10*%
X74420000Y-92520000D02*
X75880000Y-92520000D01*
X75880000Y-95480000D01*
X74420000Y-95480000D01*
X74420000Y-92520000D01*
%TO.C,C41*%
X83162000Y-75770000D02*
X84622000Y-75770000D01*
X84622000Y-78730000D01*
X83162000Y-78730000D01*
X83162000Y-75770000D01*
%TO.C,C59*%
X100437200Y-100079200D02*
X101897200Y-100079200D01*
X101897200Y-103039200D01*
X100437200Y-103039200D01*
X100437200Y-100079200D01*
%TO.C,C5*%
X126394800Y-73512000D02*
X129354800Y-73512000D01*
X129354800Y-74972000D01*
X126394800Y-74972000D01*
X126394800Y-73512000D01*
%TO.C,FB1*%
X159627400Y-109672300D02*
X161327400Y-109672300D01*
X161327400Y-113172300D01*
X159627400Y-113172300D01*
X159627400Y-109672300D01*
%TO.C,R51*%
X137790500Y-76509600D02*
X139250500Y-76509600D01*
X139250500Y-79469600D01*
X137790500Y-79469600D01*
X137790500Y-76509600D01*
%TO.C,C64*%
X95561500Y-98096100D02*
X97021500Y-98096100D01*
X97021500Y-101056100D01*
X95561500Y-101056100D01*
X95561500Y-98096100D01*
%TO.C,C50*%
X79050800Y-112245300D02*
X82010800Y-112245300D01*
X82010800Y-113705300D01*
X79050800Y-113705300D01*
X79050800Y-112245300D01*
%TO.C,C48*%
X69386000Y-120460100D02*
X73086000Y-120460100D01*
X73086000Y-125960100D01*
X69386000Y-125960100D01*
X69386000Y-120460100D01*
%TO.C,U14*%
X120350000Y-82850000D02*
X121750000Y-82850000D01*
X120350000Y-101150000D02*
X120350000Y-82850000D01*
X121750000Y-81750000D02*
X122850000Y-81750000D01*
X121750000Y-82850000D02*
X121750000Y-81750000D01*
X121750000Y-101150000D02*
X120350000Y-101150000D01*
X121750000Y-102250000D02*
X121750000Y-101150000D01*
X122850000Y-80350000D02*
X141150000Y-80350000D01*
X122850000Y-81750000D02*
X122850000Y-80350000D01*
X122850000Y-102250000D02*
X121750000Y-102250000D01*
X122850000Y-103650000D02*
X122850000Y-102250000D01*
X141150000Y-80350000D02*
X141150000Y-81750000D01*
X141150000Y-81750000D02*
X142250000Y-81750000D01*
X141150000Y-102250000D02*
X141150000Y-103650000D01*
X141150000Y-103650000D02*
X122850000Y-103650000D01*
X142250000Y-81750000D02*
X142250000Y-82850000D01*
X142250000Y-82850000D02*
X143650000Y-82850000D01*
X142250000Y-101150000D02*
X142250000Y-102250000D01*
X142250000Y-102250000D02*
X141150000Y-102250000D01*
X143650000Y-82850000D02*
X143650000Y-101150000D01*
X143650000Y-101150000D02*
X142250000Y-101150000D01*
%TO.C,H4*%
X179950000Y-136500000D02*
G75*
G02*
X173050000Y-136500000I-3450000J0D01*
G01*
X173050000Y-136500000D02*
G75*
G02*
X179950000Y-136500000I3450000J0D01*
G01*
%TO.C,U1*%
X168950000Y-105500000D02*
X169950000Y-105500000D01*
X168950000Y-108500000D02*
X168950000Y-105500000D01*
X169950000Y-105300000D02*
X172050000Y-105300000D01*
X169950000Y-105500000D02*
X169950000Y-105300000D01*
X169950000Y-108500000D02*
X168950000Y-108500000D01*
X169950000Y-108700000D02*
X169950000Y-108500000D01*
X172050000Y-105300000D02*
X172050000Y-105500000D01*
X172050000Y-105500000D02*
X173050000Y-105500000D01*
X172050000Y-106610000D02*
X172050000Y-107390000D01*
X172050000Y-107390000D02*
X173050000Y-107390000D01*
X172050000Y-108500000D02*
X172050000Y-108700000D01*
X172050000Y-108700000D02*
X169950000Y-108700000D01*
X173050000Y-105500000D02*
X173050000Y-106610000D01*
X173050000Y-106610000D02*
X172050000Y-106610000D01*
X173050000Y-107390000D02*
X173050000Y-108500000D01*
X173050000Y-108500000D02*
X172050000Y-108500000D01*
%TO.C,U13*%
X155240000Y-78640000D02*
X155240000Y-101360000D01*
X155240000Y-78640000D02*
X168760000Y-78640000D01*
X168760000Y-78640000D02*
X168760000Y-101360000D01*
X168760000Y-101360000D02*
X155240000Y-101360000D01*
%TO.C,R11*%
X158050000Y-133904100D02*
X161010000Y-133904100D01*
X161010000Y-135364100D01*
X158050000Y-135364100D01*
X158050000Y-133904100D01*
%TO.C,R39*%
X105071000Y-100326400D02*
X106531000Y-100326400D01*
X106531000Y-103286400D01*
X105071000Y-103286400D01*
X105071000Y-100326400D01*
%TO.C,U5*%
X157450000Y-123000000D02*
X158450000Y-123000000D01*
X157450000Y-126000000D02*
X157450000Y-123000000D01*
X158450000Y-122800000D02*
X160550000Y-122800000D01*
X158450000Y-123000000D02*
X158450000Y-122800000D01*
X158450000Y-126000000D02*
X157450000Y-126000000D01*
X158450000Y-126200000D02*
X158450000Y-126000000D01*
X160550000Y-122800000D02*
X160550000Y-123000000D01*
X160550000Y-123000000D02*
X161550000Y-123000000D01*
X160550000Y-126000000D02*
X160550000Y-126200000D01*
X160550000Y-126200000D02*
X158450000Y-126200000D01*
X161550000Y-123000000D02*
X161550000Y-126000000D01*
X161550000Y-126000000D02*
X160550000Y-126000000D01*
%TO.C,U4*%
X70550000Y-92250000D02*
X73450000Y-92250000D01*
X70550000Y-95750000D02*
X70550000Y-92250000D01*
X73450000Y-92250000D02*
X73450000Y-95750000D01*
X73450000Y-95750000D02*
X70550000Y-95750000D01*
%TO.C,U3*%
X85950000Y-92500000D02*
X86950000Y-92500000D01*
X85950000Y-95500000D02*
X85950000Y-92500000D01*
X86950000Y-92300000D02*
X89050000Y-92300000D01*
X86950000Y-92500000D02*
X86950000Y-92300000D01*
X86950000Y-95500000D02*
X85950000Y-95500000D01*
X86950000Y-95700000D02*
X86950000Y-95500000D01*
X89050000Y-92300000D02*
X89050000Y-92500000D01*
X89050000Y-92500000D02*
X90050000Y-92500000D01*
X89050000Y-93610000D02*
X89050000Y-94390000D01*
X89050000Y-94390000D02*
X90050000Y-94390000D01*
X89050000Y-95500000D02*
X89050000Y-95700000D01*
X89050000Y-95700000D02*
X86950000Y-95700000D01*
X90050000Y-92500000D02*
X90050000Y-93610000D01*
X90050000Y-93610000D02*
X89050000Y-93610000D01*
X90050000Y-94390000D02*
X90050000Y-95500000D01*
X90050000Y-95500000D02*
X89050000Y-95500000D01*
%TO.C,R52*%
X134151000Y-74344700D02*
X135611000Y-74344700D01*
X135611000Y-77304700D01*
X134151000Y-77304700D01*
X134151000Y-74344700D01*
%TO.C,U2*%
X129950000Y-70000000D02*
X130950000Y-70000000D01*
X129950000Y-73000000D02*
X129950000Y-70000000D01*
X130950000Y-69800000D02*
X133050000Y-69800000D01*
X130950000Y-70000000D02*
X130950000Y-69800000D01*
X130950000Y-73000000D02*
X129950000Y-73000000D01*
X130950000Y-73200000D02*
X130950000Y-73000000D01*
X133050000Y-69800000D02*
X133050000Y-70000000D01*
X133050000Y-70000000D02*
X134050000Y-70000000D01*
X133050000Y-71110000D02*
X133050000Y-71890000D01*
X133050000Y-71890000D02*
X134050000Y-71890000D01*
X133050000Y-73000000D02*
X133050000Y-73200000D01*
X133050000Y-73200000D02*
X130950000Y-73200000D01*
X134050000Y-70000000D02*
X134050000Y-71110000D01*
X134050000Y-71110000D02*
X133050000Y-71110000D01*
X134050000Y-71890000D02*
X134050000Y-73000000D01*
X134050000Y-73000000D02*
X133050000Y-73000000D01*
%TO.C,R37*%
X105217600Y-84940600D02*
X106677600Y-84940600D01*
X106677600Y-87900600D01*
X105217600Y-87900600D01*
X105217600Y-84940600D01*
%TO.C,C42*%
X81675000Y-79360800D02*
X84635000Y-79360800D01*
X84635000Y-80820800D01*
X81675000Y-80820800D01*
X81675000Y-79360800D01*
%TO.C,R14*%
X152884000Y-134963400D02*
X154344000Y-134963400D01*
X154344000Y-137923400D01*
X152884000Y-137923400D01*
X152884000Y-134963400D01*
%TO.C,D3*%
X68968700Y-113186800D02*
X70118700Y-113186800D01*
X68968700Y-114986800D02*
X68968700Y-113186800D01*
X69168700Y-114986800D02*
X68968700Y-114986800D01*
X69168700Y-116016800D02*
X69168700Y-114986800D01*
X70118700Y-112156800D02*
X71218700Y-112156800D01*
X70118700Y-113186800D02*
X70118700Y-112156800D01*
X70278700Y-114986800D02*
X70278700Y-116016800D01*
X70278700Y-116016800D02*
X69168700Y-116016800D01*
X71058700Y-114986800D02*
X70278700Y-114986800D01*
X71058700Y-116016800D02*
X71058700Y-114986800D01*
X71218700Y-112156800D02*
X71218700Y-113186800D01*
X71218700Y-113186800D02*
X72368700Y-113186800D01*
X72168700Y-114986800D02*
X72168700Y-116016800D01*
X72168700Y-116016800D02*
X71058700Y-116016800D01*
X72368700Y-113186800D02*
X72368700Y-114986800D01*
X72368700Y-114986800D02*
X72168700Y-114986800D01*
%TO.C,C76*%
X93295300Y-79100100D02*
X96255300Y-79100100D01*
X96255300Y-80560100D01*
X93295300Y-80560100D01*
X93295300Y-79100100D01*
%TO.C,C30*%
X161046800Y-131273200D02*
X164006800Y-131273200D01*
X164006800Y-132733200D01*
X161046800Y-132733200D01*
X161046800Y-131273200D01*
%TO.C,C37*%
X79050800Y-66245300D02*
X82010800Y-66245300D01*
X82010800Y-67705300D01*
X79050800Y-67705300D01*
X79050800Y-66245300D01*
%TO.C,R31*%
X69589700Y-110077400D02*
X72549700Y-110077400D01*
X72549700Y-111537400D01*
X69589700Y-111537400D01*
X69589700Y-110077400D01*
%TO.C,C60*%
X97618400Y-91510900D02*
X99078400Y-91510900D01*
X99078400Y-94470900D01*
X97618400Y-94470900D01*
X97618400Y-91510900D01*
%TO.C,FID3*%
X60200000Y-136050000D02*
G75*
G02*
X57700000Y-136050000I-1250000J0D01*
G01*
X57700000Y-136050000D02*
G75*
G02*
X60200000Y-136050000I1250000J0D01*
G01*
%TO.C,FID1*%
X60200000Y-53950000D02*
G75*
G02*
X57700000Y-53950000I-1250000J0D01*
G01*
X57700000Y-53950000D02*
G75*
G02*
X60200000Y-53950000I1250000J0D01*
G01*
%TO.C,U9*%
X85300000Y-74540000D02*
X86800000Y-74540000D01*
X85300000Y-79460000D02*
X85300000Y-74540000D01*
X86800000Y-74300000D02*
X91200000Y-74300000D01*
X86800000Y-74540000D02*
X86800000Y-74300000D01*
X86800000Y-79460000D02*
X85300000Y-79460000D01*
X86800000Y-79700000D02*
X86800000Y-79460000D01*
X91200000Y-74300000D02*
X91200000Y-74540000D01*
X91200000Y-74540000D02*
X92700000Y-74540000D01*
X91200000Y-79460000D02*
X91200000Y-79700000D01*
X91200000Y-79700000D02*
X86800000Y-79700000D01*
X92700000Y-74540000D02*
X92700000Y-79460000D01*
X92700000Y-79460000D02*
X91200000Y-79460000D01*
%TO.C,R47*%
X142302200Y-104265300D02*
X143762200Y-104265300D01*
X143762200Y-107225300D01*
X142302200Y-107225300D01*
X142302200Y-104265300D01*
%TO.C,R44*%
X134220000Y-77974500D02*
X137180000Y-77974500D01*
X137180000Y-79434500D01*
X134220000Y-79434500D01*
X134220000Y-77974500D01*
%TO.C,FID2*%
X172300000Y-53950000D02*
G75*
G02*
X169800000Y-53950000I-1250000J0D01*
G01*
X169800000Y-53950000D02*
G75*
G02*
X172300000Y-53950000I1250000J0D01*
G01*
%TO.C,C45*%
X66050000Y-113700000D02*
X68350000Y-113700000D01*
X68350000Y-118300000D01*
X66050000Y-118300000D01*
X66050000Y-113700000D01*
%TO.C,C89*%
X115627100Y-97280400D02*
X117587100Y-97280400D01*
X117587100Y-100680400D01*
X115627100Y-100680400D01*
X115627100Y-97280400D01*
%TO.C,H2*%
X179950000Y-53500000D02*
G75*
G02*
X173050000Y-53500000I-3450000J0D01*
G01*
X173050000Y-53500000D02*
G75*
G02*
X179950000Y-53500000I3450000J0D01*
G01*
%TO.C,Y2*%
X95900000Y-81250000D02*
X100100000Y-81250000D01*
X100100000Y-84750000D01*
X95900000Y-84750000D01*
X95900000Y-81250000D01*
%TO.C,C51*%
X73890400Y-120506900D02*
X76850400Y-120506900D01*
X76850400Y-121966900D01*
X73890400Y-121966900D01*
X73890400Y-120506900D01*
%TO.C,C102*%
X130050000Y-77724500D02*
X133450000Y-77724500D01*
X133450000Y-79684500D01*
X130050000Y-79684500D01*
X130050000Y-77724500D01*
%TO.C,R7*%
X70645000Y-96503500D02*
X73605000Y-96503500D01*
X73605000Y-97963500D01*
X70645000Y-97963500D01*
X70645000Y-96503500D01*
%TO.C,C62*%
X95394000Y-86216900D02*
X96854000Y-86216900D01*
X96854000Y-89176900D01*
X95394000Y-89176900D01*
X95394000Y-86216900D01*
%TO.C,R4*%
X68202200Y-88483400D02*
X69662200Y-88483400D01*
X69662200Y-91443400D01*
X68202200Y-91443400D01*
X68202200Y-88483400D01*
%TO.C,C35*%
X69386000Y-74460100D02*
X73086000Y-74460100D01*
X73086000Y-79960100D01*
X69386000Y-79960100D01*
X69386000Y-74460100D01*
%TO.C,C12*%
X162495100Y-103838200D02*
X165455100Y-103838200D01*
X165455100Y-105298200D01*
X162495100Y-105298200D01*
X162495100Y-103838200D01*
%TO.C,C58*%
X100937200Y-84960800D02*
X102397200Y-84960800D01*
X102397200Y-87920800D01*
X100937200Y-87920800D01*
X100937200Y-84960800D01*
%TO.C,R50*%
X147417700Y-110181800D02*
X150377700Y-110181800D01*
X150377700Y-111641800D01*
X147417700Y-111641800D01*
X147417700Y-110181800D01*
%TO.C,C15*%
X173723300Y-108699100D02*
X176023300Y-108699100D01*
X176023300Y-113299100D01*
X173723300Y-113299100D01*
X173723300Y-108699100D01*
%TO.C,H3*%
X56950000Y-136500000D02*
G75*
G02*
X50050000Y-136500000I-3450000J0D01*
G01*
X50050000Y-136500000D02*
G75*
G02*
X56950000Y-136500000I3450000J0D01*
G01*
%TO.C,C74*%
X110154100Y-85192700D02*
X111614100Y-85192700D01*
X111614100Y-88152700D01*
X110154100Y-88152700D01*
X110154100Y-85192700D01*
%TO.C,C67*%
X93176100Y-95072700D02*
X94636100Y-95072700D01*
X94636100Y-98032700D01*
X93176100Y-98032700D01*
X93176100Y-95072700D01*
%TO.C,R35*%
X98908200Y-103711700D02*
X100368200Y-103711700D01*
X100368200Y-106671700D01*
X98908200Y-106671700D01*
X98908200Y-103711700D01*
%TO.C,C38*%
X73890400Y-74506900D02*
X76850400Y-74506900D01*
X76850400Y-75966900D01*
X73890400Y-75966900D01*
X73890400Y-74506900D01*
%TO.C,C7*%
X126315300Y-69842000D02*
X129275300Y-69842000D01*
X129275300Y-71302000D01*
X126315300Y-71302000D01*
X126315300Y-69842000D01*
%TO.C,C63*%
X95494700Y-94529100D02*
X96954700Y-94529100D01*
X96954700Y-97489100D01*
X95494700Y-97489100D01*
X95494700Y-94529100D01*
%TO.C,C3*%
X164327000Y-105891100D02*
X167727000Y-105891100D01*
X167727000Y-107851100D01*
X164327000Y-107851100D01*
X164327000Y-105891100D01*
%TO.C,C44*%
X97672100Y-87907600D02*
X99132100Y-87907600D01*
X99132100Y-90867600D01*
X97672100Y-90867600D01*
X97672100Y-87907600D01*
%TO.C,R24*%
X95695000Y-75520000D02*
X97155000Y-75520000D01*
X97155000Y-78480000D01*
X95695000Y-78480000D01*
X95695000Y-75520000D01*
%TO.C,C72*%
X84596700Y-89671300D02*
X87996700Y-89671300D01*
X87996700Y-91631300D01*
X84596700Y-91631300D01*
X84596700Y-89671300D01*
%TO.C,D5*%
X134710200Y-70627800D02*
X136170200Y-70627800D01*
X136170200Y-73587800D01*
X134710200Y-73587800D01*
X134710200Y-70627800D01*
%TO.C,C54*%
X83162000Y-109770000D02*
X84622000Y-109770000D01*
X84622000Y-112730000D01*
X83162000Y-112730000D01*
X83162000Y-109770000D01*
%TO.C,C22*%
X156394900Y-115026100D02*
X157854900Y-115026100D01*
X157854900Y-117986100D01*
X156394900Y-117986100D01*
X156394900Y-115026100D01*
%TO.C,C20*%
X156316400Y-118844300D02*
X157776400Y-118844300D01*
X157776400Y-121804300D01*
X156316400Y-121804300D01*
X156316400Y-118844300D01*
%TO.C,U10*%
X73300000Y-114540000D02*
X74800000Y-114540000D01*
X73300000Y-119460000D02*
X73300000Y-114540000D01*
X74800000Y-114300000D02*
X79200000Y-114300000D01*
X74800000Y-114540000D02*
X74800000Y-114300000D01*
X74800000Y-119460000D02*
X73300000Y-119460000D01*
X74800000Y-119700000D02*
X74800000Y-119460000D01*
X79200000Y-114300000D02*
X79200000Y-114540000D01*
X79200000Y-114540000D02*
X80700000Y-114540000D01*
X79200000Y-119460000D02*
X79200000Y-119700000D01*
X79200000Y-119700000D02*
X74800000Y-119700000D01*
X80700000Y-114540000D02*
X80700000Y-119460000D01*
X80700000Y-119460000D02*
X79200000Y-119460000D01*
%TO.C,R8*%
X74372900Y-98262600D02*
X77332900Y-98262600D01*
X77332900Y-99722600D01*
X74372900Y-99722600D01*
X74372900Y-98262600D01*
%TO.C,R20*%
X66033000Y-64041100D02*
X67493000Y-64041100D01*
X67493000Y-67001100D01*
X66033000Y-67001100D01*
X66033000Y-64041100D01*
%TO.C,R28*%
X66320600Y-124190800D02*
X68580600Y-124190800D01*
X68580600Y-128750800D01*
X66320600Y-128750800D01*
X66320600Y-124190800D01*
%TO.C,Y1*%
X155850000Y-127750000D02*
X160050000Y-127750000D01*
X160050000Y-131250000D01*
X155850000Y-131250000D01*
X155850000Y-127750000D01*
%TO.C,R40*%
X99239400Y-79189100D02*
X102199400Y-79189100D01*
X102199400Y-80649100D01*
X99239400Y-80649100D01*
X99239400Y-79189100D01*
%TO.C,R10*%
X176633000Y-110405000D02*
X178093000Y-110405000D01*
X178093000Y-113365000D01*
X176633000Y-113365000D01*
X176633000Y-110405000D01*
%TO.C,C100*%
X129946900Y-104313100D02*
X133346900Y-104313100D01*
X133346900Y-106273100D01*
X129946900Y-106273100D01*
X129946900Y-104313100D01*
%TO.C,C49*%
X81513400Y-114988900D02*
X84473400Y-114988900D01*
X84473400Y-116448900D01*
X81513400Y-116448900D01*
X81513400Y-114988900D01*
%TO.C,C73*%
X110404100Y-99847300D02*
X111864100Y-99847300D01*
X111864100Y-102807300D01*
X110404100Y-102807300D01*
X110404100Y-99847300D01*
%TO.C,C40*%
X93445000Y-75520000D02*
X94905000Y-75520000D01*
X94905000Y-78480000D01*
X93445000Y-78480000D01*
X93445000Y-75520000D01*
%TO.C,J3*%
X28900000Y-108150000D02*
X28900000Y-123850000D01*
X65400000Y-108150000D02*
X28900000Y-108150000D01*
X65400000Y-123850000D02*
X28900000Y-123850000D01*
X65400000Y-123850000D02*
X65400000Y-108150000D01*
%TO.C,R21*%
X73081200Y-66122200D02*
X76041200Y-66122200D01*
X76041200Y-67582200D01*
X73081200Y-67582200D01*
X73081200Y-66122200D01*
%TO.C,R18*%
X146069300Y-131790200D02*
X147529300Y-131790200D01*
X147529300Y-134750200D01*
X146069300Y-134750200D01*
X146069300Y-131790200D01*
%TO.C,R13*%
X132132900Y-134050900D02*
X133592900Y-134050900D01*
X133592900Y-137010900D01*
X132132900Y-137010900D01*
X132132900Y-134050900D01*
%TO.C,D1*%
X126342500Y-77726400D02*
X129302500Y-77726400D01*
X129302500Y-79186400D01*
X126342500Y-79186400D01*
X126342500Y-77726400D01*
%TO.C,FB2*%
X155051500Y-131873800D02*
X156511500Y-131873800D01*
X156511500Y-134833800D01*
X155051500Y-134833800D01*
X155051500Y-131873800D01*
%TO.C,C18*%
X150248100Y-131400900D02*
X151708100Y-131400900D01*
X151708100Y-134360900D01*
X150248100Y-134360900D01*
X150248100Y-131400900D01*
%TO.C,C4*%
X127036700Y-67164800D02*
X130436700Y-67164800D01*
X130436700Y-69124800D01*
X127036700Y-69124800D01*
X127036700Y-67164800D01*
%TO.C,H1*%
X56950000Y-53500000D02*
G75*
G02*
X50050000Y-53500000I-3450000J0D01*
G01*
X50050000Y-53500000D02*
G75*
G02*
X56950000Y-53500000I3450000J0D01*
G01*
%TO.C,C14*%
X68702900Y-98750200D02*
X70162900Y-98750200D01*
X70162900Y-101710200D01*
X68702900Y-101710200D01*
X68702900Y-98750200D01*
%TO.C,C88*%
X118213700Y-100444400D02*
X119673700Y-100444400D01*
X119673700Y-103404400D01*
X118213700Y-103404400D01*
X118213700Y-100444400D01*
%TO.C,J4*%
X124230000Y-51680000D02*
X137930000Y-51680000D01*
X137930000Y-57770000D01*
X124230000Y-57770000D01*
X124230000Y-51680000D01*
%TO.C,R12*%
X152838000Y-115086600D02*
X155798000Y-115086600D01*
X155798000Y-116546600D01*
X152838000Y-116546600D01*
X152838000Y-115086600D01*
%TO.C,C17*%
X152459800Y-131302900D02*
X153919800Y-131302900D01*
X153919800Y-134262900D01*
X152459800Y-134262900D01*
X152459800Y-131302900D01*
%TO.C,C52*%
X73802300Y-122560600D02*
X76762300Y-122560600D01*
X76762300Y-124020600D01*
X73802300Y-124020600D01*
X73802300Y-122560600D01*
%TO.C,R34*%
X80232300Y-106354300D02*
X81692300Y-106354300D01*
X81692300Y-109314300D01*
X80232300Y-109314300D01*
X80232300Y-106354300D01*
%TO.C,R49*%
X133797800Y-112840300D02*
X136757800Y-112840300D01*
X136757800Y-114300300D01*
X133797800Y-114300300D01*
X133797800Y-112840300D01*
%TO.C,R25*%
X80912000Y-75770000D02*
X82372000Y-75770000D01*
X82372000Y-78730000D01*
X80912000Y-78730000D01*
X80912000Y-75770000D01*
%TO.C,L1*%
X163661800Y-108713700D02*
X163711800Y-108713700D01*
X163661800Y-112913700D02*
X163661800Y-108713700D01*
X163711800Y-108563700D02*
X168211800Y-108563700D01*
X163711800Y-108713700D02*
X163711800Y-108563700D01*
X163711800Y-112913700D02*
X163661800Y-112913700D01*
X163711800Y-113063700D02*
X163711800Y-112913700D01*
X168211800Y-108563700D02*
X168211800Y-108713700D01*
X168211800Y-108713700D02*
X168261800Y-108713700D01*
X168211800Y-112913700D02*
X168211800Y-113063700D01*
X168211800Y-113063700D02*
X163711800Y-113063700D01*
X168261800Y-108713700D02*
X168261800Y-112913700D01*
X168261800Y-112913700D02*
X168211800Y-112913700D01*
%TO.C,U7*%
X134300000Y-130540000D02*
X135800000Y-130540000D01*
X134300000Y-135460000D02*
X134300000Y-130540000D01*
X135800000Y-130300000D02*
X140200000Y-130300000D01*
X135800000Y-130540000D02*
X135800000Y-130300000D01*
X135800000Y-135460000D02*
X134300000Y-135460000D01*
X135800000Y-135700000D02*
X135800000Y-135460000D01*
X140200000Y-130300000D02*
X140200000Y-130540000D01*
X140200000Y-130540000D02*
X141700000Y-130540000D01*
X140200000Y-135460000D02*
X140200000Y-135700000D01*
X140200000Y-135700000D02*
X135800000Y-135700000D01*
X141700000Y-130540000D02*
X141700000Y-135460000D01*
X141700000Y-135460000D02*
X140200000Y-135460000D01*
%TO.C,Y3*%
X120900000Y-107250000D02*
X125100000Y-107250000D01*
X125100000Y-110750000D01*
X120900000Y-110750000D01*
X120900000Y-107250000D01*
%TO.C,R30*%
X73306300Y-112233900D02*
X76266300Y-112233900D01*
X76266300Y-113693900D01*
X73306300Y-113693900D01*
X73306300Y-112233900D01*
%TO.C,C87*%
X118248900Y-93014600D02*
X119708900Y-93014600D01*
X119708900Y-95974600D01*
X118248900Y-95974600D01*
X118248900Y-93014600D01*
%TO.C,C68*%
X91411300Y-92439400D02*
X94371300Y-92439400D01*
X94371300Y-93899400D01*
X91411300Y-93899400D01*
X91411300Y-92439400D01*
%TO.C,R23*%
X82486700Y-72155600D02*
X83946700Y-72155600D01*
X83946700Y-75115600D01*
X82486700Y-75115600D01*
X82486700Y-72155600D01*
%TO.C,C66*%
X96347900Y-101648400D02*
X97807900Y-101648400D01*
X97807900Y-104608400D01*
X96347900Y-104608400D01*
X96347900Y-101648400D01*
%TO.C,R42*%
X124239400Y-105189100D02*
X127199400Y-105189100D01*
X127199400Y-106649100D01*
X124239400Y-106649100D01*
X124239400Y-105189100D01*
%TO.C,U8*%
X73300000Y-68540000D02*
X74800000Y-68540000D01*
X73300000Y-73460000D02*
X73300000Y-68540000D01*
X74800000Y-68300000D02*
X79200000Y-68300000D01*
X74800000Y-68540000D02*
X74800000Y-68300000D01*
X74800000Y-73460000D02*
X73300000Y-73460000D01*
X74800000Y-73700000D02*
X74800000Y-73460000D01*
X79200000Y-68300000D02*
X79200000Y-68540000D01*
X79200000Y-68540000D02*
X80700000Y-68540000D01*
X79200000Y-73460000D02*
X79200000Y-73700000D01*
X79200000Y-73700000D02*
X74800000Y-73700000D01*
X80700000Y-68540000D02*
X80700000Y-73460000D01*
X80700000Y-73460000D02*
X79200000Y-73460000D01*
%TO.C,C46*%
X66301900Y-118910900D02*
X68601900Y-118910900D01*
X68601900Y-123510900D01*
X66301900Y-123510900D01*
X66301900Y-118910900D01*
%TO.C,J2*%
X28900000Y-62150000D02*
X28900000Y-77850000D01*
X65400000Y-62150000D02*
X28900000Y-62150000D01*
X65400000Y-77850000D02*
X28900000Y-77850000D01*
X65400000Y-77850000D02*
X65400000Y-62150000D01*
%TO.C,C8*%
X160642500Y-105994800D02*
X163602500Y-105994800D01*
X163602500Y-107454800D01*
X160642500Y-107454800D01*
X160642500Y-105994800D01*
%TO.C,C61*%
X94983000Y-89839300D02*
X96943000Y-89839300D01*
X96943000Y-93239300D01*
X94983000Y-93239300D01*
X94983000Y-89839300D01*
%TO.C,U12*%
X99870000Y-89870000D02*
X100250000Y-89870000D01*
X99870000Y-98130000D02*
X99870000Y-89870000D01*
X100250000Y-89250000D02*
X100870000Y-89250000D01*
X100250000Y-89870000D02*
X100250000Y-89250000D01*
X100250000Y-98130000D02*
X99870000Y-98130000D01*
X100250000Y-98750000D02*
X100250000Y-98130000D01*
X100870000Y-88870000D02*
X109130000Y-88870000D01*
X100870000Y-89250000D02*
X100870000Y-88870000D01*
X100870000Y-98750000D02*
X100250000Y-98750000D01*
X100870000Y-99130000D02*
X100870000Y-98750000D01*
X109130000Y-88870000D02*
X109130000Y-89250000D01*
X109130000Y-89250000D02*
X109750000Y-89250000D01*
X109130000Y-98750000D02*
X109130000Y-99130000D01*
X109130000Y-99130000D02*
X100870000Y-99130000D01*
X109750000Y-89250000D02*
X109750000Y-89870000D01*
X109750000Y-89870000D02*
X110130000Y-89870000D01*
X109750000Y-98130000D02*
X109750000Y-98750000D01*
X109750000Y-98750000D02*
X109130000Y-98750000D01*
X110130000Y-89870000D02*
X110130000Y-98130000D01*
X110130000Y-98130000D02*
X109750000Y-98130000D01*
%TO.C,C11*%
X66477900Y-96155300D02*
X69877900Y-96155300D01*
X69877900Y-98115300D01*
X66477900Y-98115300D01*
X66477900Y-96155300D01*
%TO.C,R45*%
X138066100Y-104322500D02*
X139526100Y-104322500D01*
X139526100Y-107282500D01*
X138066100Y-107282500D01*
X138066100Y-104322500D01*
%TO.C,R33*%
X95695000Y-109520000D02*
X97155000Y-109520000D01*
X97155000Y-112480000D01*
X95695000Y-112480000D01*
X95695000Y-109520000D01*
%TO.C,R27*%
X103063300Y-84968600D02*
X104523300Y-84968600D01*
X104523300Y-87928600D01*
X103063300Y-87928600D01*
X103063300Y-84968600D01*
%TD*%
M02*
