%TF.GenerationSoftware,KiCad,Pcbnew,10.0.4*%
%TF.CreationDate,2026-10-09T15:41:01-04:00*%
%TF.ProjectId,dual_adc_usb,6475616c-5f61-4646-935f-7573622e6b69,rev?*%
%TF.SameCoordinates,Original*%
%TF.FileFunction,Legend,Bot*%
%TF.FilePolarity,Positive*%
%FSLAX46Y46*%
G04 Gerber Fmt 4.6, Leading zero omitted, Abs format (unit mm)*
G04 Created by KiCad (PCBNEW 10.0.4) date 2026-10-09 15:41:01*
%MOMM*%
%LPD*%
G01*
G04 APERTURE LIST*
%ADD10C,0.120000*%
G04 APERTURE END LIST*
%TO.C,C90*%
D10*
X120427600Y-97286880D02*
X120427600Y-97005720D01*
X121447600Y-97286880D02*
X121447600Y-97005720D01*
%TO.C,C91*%
X128275920Y-100480400D02*
X128557080Y-100480400D01*
X128275920Y-101500400D02*
X128557080Y-101500400D01*
%TO.C,C83*%
X166406420Y-84429000D02*
X166687580Y-84429000D01*
X166406420Y-85449000D02*
X166687580Y-85449000D01*
%TO.C,C25*%
X144599500Y-124654780D02*
X144599500Y-124373620D01*
X145619500Y-124654780D02*
X145619500Y-124373620D01*
%TO.C,C79*%
X157217600Y-87168480D02*
X157217600Y-86887320D01*
X158237600Y-87168480D02*
X158237600Y-86887320D01*
%TO.C,C78*%
X157469020Y-82846400D02*
X157750180Y-82846400D01*
X157469020Y-83866400D02*
X157750180Y-83866400D01*
%TO.C,C98*%
X129360448Y-82363700D02*
X129882952Y-82363700D01*
X129360448Y-83833700D02*
X129882952Y-83833700D01*
%TO.C,C16*%
X152266700Y-125847852D02*
X152266700Y-125325348D01*
X153736700Y-125847852D02*
X153736700Y-125325348D01*
%TO.C,C31*%
X145229120Y-117836000D02*
X145510280Y-117836000D01*
X145229120Y-118856000D02*
X145510280Y-118856000D01*
%TO.C,C24*%
X145411020Y-119983600D02*
X145692180Y-119983600D01*
X145411020Y-121003600D02*
X145692180Y-121003600D01*
%TO.C,C94*%
X140356900Y-92764280D02*
X140356900Y-92483120D01*
X141376900Y-92764280D02*
X141376900Y-92483120D01*
%TO.C,C81*%
X156980320Y-98314700D02*
X157261480Y-98314700D01*
X156980320Y-99334700D02*
X157261480Y-99334700D01*
%TO.C,C93*%
X139467520Y-100761000D02*
X139748680Y-100761000D01*
X139467520Y-101781000D02*
X139748680Y-101781000D01*
%TO.C,C85*%
X122499600Y-95724080D02*
X122499600Y-95442920D01*
X123519600Y-95724080D02*
X123519600Y-95442920D01*
%TO.C,C77*%
X156980320Y-80665300D02*
X157261480Y-80665300D01*
X156980320Y-81685300D02*
X157261480Y-81685300D01*
%TO.C,C84*%
X155991448Y-78095900D02*
X156513952Y-78095900D01*
X155991448Y-79565900D02*
X156513952Y-79565900D01*
%TO.C,C104*%
X122380400Y-86800780D02*
X122380400Y-86519620D01*
X123400400Y-86800780D02*
X123400400Y-86519620D01*
%TO.C,C95*%
X140508300Y-88123080D02*
X140508300Y-87841920D01*
X141528300Y-88123080D02*
X141528300Y-87841920D01*
%TO.C,C26*%
X146503920Y-127603000D02*
X146785080Y-127603000D01*
X146503920Y-128623000D02*
X146785080Y-128623000D01*
%TO.C,C27*%
X150273220Y-128109500D02*
X150554380Y-128109500D01*
X150273220Y-129129500D02*
X150554380Y-129129500D01*
%TO.C,C96*%
X140761000Y-84532480D02*
X140761000Y-84251320D01*
X141781000Y-84532480D02*
X141781000Y-84251320D01*
%TO.C,C92*%
X132899820Y-100364700D02*
X133180980Y-100364700D01*
X132899820Y-101384700D02*
X133180980Y-101384700D01*
%TO.C,C28*%
X149945320Y-117294700D02*
X150226480Y-117294700D01*
X149945320Y-118314700D02*
X150226480Y-118314700D01*
%TO.C,C80*%
X157915000Y-90790080D02*
X157915000Y-90508920D01*
X158935000Y-90790080D02*
X158935000Y-90508920D01*
%TO.C,C97*%
X133317920Y-82603700D02*
X133599080Y-82603700D01*
X133317920Y-83623700D02*
X133599080Y-83623700D01*
%TO.C,C23*%
X149081748Y-119389700D02*
X149604252Y-119389700D01*
X149081748Y-120859700D02*
X149604252Y-120859700D01*
%TO.C,C82*%
X165505900Y-89023080D02*
X165505900Y-88741920D01*
X166525900Y-89023080D02*
X166525900Y-88741920D01*
%TO.C,C99*%
X124655400Y-86921452D02*
X124655400Y-86398948D01*
X126125400Y-86921452D02*
X126125400Y-86398948D01*
%TO.C,C19*%
X151906600Y-121831552D02*
X151906600Y-121309048D01*
X153376600Y-121831552D02*
X153376600Y-121309048D01*
%TD*%
M02*
