%TF.GenerationSoftware,KiCad,Pcbnew,10.0.4*%
%TF.CreationDate,2026-10-09T15:41:01-04:00*%
%TF.ProjectId,dual_adc_usb,6475616c-5f61-4646-935f-7573622e6b69,rev?*%
%TF.SameCoordinates,Original*%
%TF.FileFunction,Other,User*%
%FSLAX46Y46*%
G04 Gerber Fmt 4.6, Leading zero omitted, Abs format (unit mm)*
G04 Created by KiCad (PCBNEW 10.0.4) date 2026-10-09 15:41:01*
%MOMM*%
%LPD*%
G01*
G04 APERTURE LIST*
%ADD10C,0.050000*%
G04 APERTURE END LIST*
%TO.C,C90*%
D10*
X120207600Y-95666300D02*
X121667600Y-95666300D01*
X121667600Y-98626300D01*
X120207600Y-98626300D01*
X120207600Y-95666300D01*
%TO.C,C91*%
X126936500Y-100260400D02*
X129896500Y-100260400D01*
X129896500Y-101720400D01*
X126936500Y-101720400D01*
X126936500Y-100260400D01*
%TO.C,C83*%
X165067000Y-84209000D02*
X168027000Y-84209000D01*
X168027000Y-85669000D01*
X165067000Y-85669000D01*
X165067000Y-84209000D01*
%TO.C,C25*%
X144379500Y-123034200D02*
X145839500Y-123034200D01*
X145839500Y-125994200D01*
X144379500Y-125994200D01*
X144379500Y-123034200D01*
%TO.C,C79*%
X156997600Y-85547900D02*
X158457600Y-85547900D01*
X158457600Y-88507900D01*
X156997600Y-88507900D01*
X156997600Y-85547900D01*
%TO.C,C78*%
X156129600Y-82626400D02*
X159089600Y-82626400D01*
X159089600Y-84086400D01*
X156129600Y-84086400D01*
X156129600Y-82626400D01*
%TO.C,C98*%
X127921700Y-82118700D02*
X131321700Y-82118700D01*
X131321700Y-84078700D01*
X127921700Y-84078700D01*
X127921700Y-82118700D01*
%TO.C,C16*%
X152021700Y-123886600D02*
X153981700Y-123886600D01*
X153981700Y-127286600D01*
X152021700Y-127286600D01*
X152021700Y-123886600D01*
%TO.C,C31*%
X143889700Y-117616000D02*
X146849700Y-117616000D01*
X146849700Y-119076000D01*
X143889700Y-119076000D01*
X143889700Y-117616000D01*
%TO.C,C24*%
X144071600Y-119763600D02*
X147031600Y-119763600D01*
X147031600Y-121223600D01*
X144071600Y-121223600D01*
X144071600Y-119763600D01*
%TO.C,C94*%
X140136900Y-91143700D02*
X141596900Y-91143700D01*
X141596900Y-94103700D01*
X140136900Y-94103700D01*
X140136900Y-91143700D01*
%TO.C,C81*%
X155640900Y-98094700D02*
X158600900Y-98094700D01*
X158600900Y-99554700D01*
X155640900Y-99554700D01*
X155640900Y-98094700D01*
%TO.C,C93*%
X138128100Y-100541000D02*
X141088100Y-100541000D01*
X141088100Y-102001000D01*
X138128100Y-102001000D01*
X138128100Y-100541000D01*
%TO.C,C85*%
X122279600Y-94103500D02*
X123739600Y-94103500D01*
X123739600Y-97063500D01*
X122279600Y-97063500D01*
X122279600Y-94103500D01*
%TO.C,C77*%
X155640900Y-80445300D02*
X158600900Y-80445300D01*
X158600900Y-81905300D01*
X155640900Y-81905300D01*
X155640900Y-80445300D01*
%TO.C,C84*%
X154552700Y-77850900D02*
X157952700Y-77850900D01*
X157952700Y-79810900D01*
X154552700Y-79810900D01*
X154552700Y-77850900D01*
%TO.C,C104*%
X122160400Y-85180200D02*
X123620400Y-85180200D01*
X123620400Y-88140200D01*
X122160400Y-88140200D01*
X122160400Y-85180200D01*
%TO.C,C95*%
X140288300Y-86502500D02*
X141748300Y-86502500D01*
X141748300Y-89462500D01*
X140288300Y-89462500D01*
X140288300Y-86502500D01*
%TO.C,C26*%
X145164500Y-127383000D02*
X148124500Y-127383000D01*
X148124500Y-128843000D01*
X145164500Y-128843000D01*
X145164500Y-127383000D01*
%TO.C,FID6*%
X60200000Y-136050000D02*
G75*
G02*
X57700000Y-136050000I-1250000J0D01*
G01*
X57700000Y-136050000D02*
G75*
G02*
X60200000Y-136050000I1250000J0D01*
G01*
%TO.C,C27*%
X148933800Y-127889500D02*
X151893800Y-127889500D01*
X151893800Y-129349500D01*
X148933800Y-129349500D01*
X148933800Y-127889500D01*
%TO.C,C96*%
X140541000Y-82911900D02*
X142001000Y-82911900D01*
X142001000Y-85871900D01*
X140541000Y-85871900D01*
X140541000Y-82911900D01*
%TO.C,FID5*%
X172300000Y-53950000D02*
G75*
G02*
X169800000Y-53950000I-1250000J0D01*
G01*
X169800000Y-53950000D02*
G75*
G02*
X172300000Y-53950000I1250000J0D01*
G01*
%TO.C,C92*%
X131560400Y-100144700D02*
X134520400Y-100144700D01*
X134520400Y-101604700D01*
X131560400Y-101604700D01*
X131560400Y-100144700D01*
%TO.C,C28*%
X148605900Y-117074700D02*
X151565900Y-117074700D01*
X151565900Y-118534700D01*
X148605900Y-118534700D01*
X148605900Y-117074700D01*
%TO.C,FID4*%
X60200000Y-53950000D02*
G75*
G02*
X57700000Y-53950000I-1250000J0D01*
G01*
X57700000Y-53950000D02*
G75*
G02*
X60200000Y-53950000I1250000J0D01*
G01*
%TO.C,C80*%
X157695000Y-89169500D02*
X159155000Y-89169500D01*
X159155000Y-92129500D01*
X157695000Y-92129500D01*
X157695000Y-89169500D01*
%TO.C,C97*%
X131978500Y-82383700D02*
X134938500Y-82383700D01*
X134938500Y-83843700D01*
X131978500Y-83843700D01*
X131978500Y-82383700D01*
%TO.C,C23*%
X147643000Y-119144700D02*
X151043000Y-119144700D01*
X151043000Y-121104700D01*
X147643000Y-121104700D01*
X147643000Y-119144700D01*
%TO.C,C82*%
X165285900Y-87402500D02*
X166745900Y-87402500D01*
X166745900Y-90362500D01*
X165285900Y-90362500D01*
X165285900Y-87402500D01*
%TO.C,C99*%
X124410400Y-84960200D02*
X126370400Y-84960200D01*
X126370400Y-88360200D01*
X124410400Y-88360200D01*
X124410400Y-84960200D01*
%TO.C,C19*%
X151661600Y-119870300D02*
X153621600Y-119870300D01*
X153621600Y-123270300D01*
X151661600Y-123270300D01*
X151661600Y-119870300D01*
%TD*%
M02*
