%TF.GenerationSoftware,KiCad,Pcbnew,10.0.4*%
%TF.CreationDate,2026-10-09T15:41:01-04:00*%
%TF.ProjectId,dual_adc_usb,6475616c-5f61-4646-935f-7573622e6b69,rev?*%
%TF.SameCoordinates,Original*%
%TF.FileFunction,Paste,Top*%
%TF.FilePolarity,Positive*%
%FSLAX46Y46*%
G04 Gerber Fmt 4.6, Leading zero omitted, Abs format (unit mm)*
G04 Created by KiCad (PCBNEW 10.0.4) date 2026-10-09 15:41:01*
%MOMM*%
%LPD*%
G01*
G04 APERTURE LIST*
G04 Aperture macros list*
%AMRoundRect*
0 Rectangle with rounded corners*
0 $1 Rounding radius*
0 $2 $3 $4 $5 $6 $7 $8 $9 X,Y pos of 4 corners*
0 Add a 4 corners polygon primitive as box body*
4,1,4,$2,$3,$4,$5,$6,$7,$8,$9,$2,$3,0*
0 Add four circle primitives for the rounded corners*
1,1,$1+$1,$2,$3*
1,1,$1+$1,$4,$5*
1,1,$1+$1,$6,$7*
1,1,$1+$1,$8,$9*
0 Add four rect primitives between the rounded corners*
20,1,$1+$1,$2,$3,$4,$5,0*
20,1,$1+$1,$4,$5,$6,$7,0*
20,1,$1+$1,$6,$7,$8,$9,0*
20,1,$1+$1,$8,$9,$2,$3,0*%
G04 Aperture macros list end*
%ADD10RoundRect,0.225000X-0.225000X-0.250000X0.225000X-0.250000X0.225000X0.250000X-0.225000X0.250000X0*%
%ADD11RoundRect,0.250000X0.625000X-0.375000X0.625000X0.375000X-0.625000X0.375000X-0.625000X-0.375000X0*%
%ADD12RoundRect,0.200000X-0.200000X-0.275000X0.200000X-0.275000X0.200000X0.275000X-0.200000X0.275000X0*%
%ADD13RoundRect,0.218750X0.256250X-0.218750X0.256250X0.218750X-0.256250X0.218750X-0.256250X-0.218750X0*%
%ADD14RoundRect,0.250000X-0.250000X-0.475000X0.250000X-0.475000X0.250000X0.475000X-0.250000X0.475000X0*%
%ADD15RoundRect,0.225000X0.250000X-0.225000X0.250000X0.225000X-0.250000X0.225000X-0.250000X-0.225000X0*%
%ADD16RoundRect,0.150000X0.150000X-0.587500X0.150000X0.587500X-0.150000X0.587500X-0.150000X-0.587500X0*%
%ADD17RoundRect,0.200000X0.275000X-0.200000X0.275000X0.200000X-0.275000X0.200000X-0.275000X-0.200000X0*%
%ADD18RoundRect,0.150000X-0.825000X-0.150000X0.825000X-0.150000X0.825000X0.150000X-0.825000X0.150000X0*%
%ADD19RoundRect,0.225000X0.225000X0.250000X-0.225000X0.250000X-0.225000X-0.250000X0.225000X-0.250000X0*%
%ADD20RoundRect,0.250000X0.625000X-0.312500X0.625000X0.312500X-0.625000X0.312500X-0.625000X-0.312500X0*%
%ADD21RoundRect,0.225000X-0.250000X0.225000X-0.250000X-0.225000X0.250000X-0.225000X0.250000X0.225000X0*%
%ADD22RoundRect,0.250000X0.650000X-0.325000X0.650000X0.325000X-0.650000X0.325000X-0.650000X-0.325000X0*%
%ADD23RoundRect,0.200000X0.200000X0.275000X-0.200000X0.275000X-0.200000X-0.275000X0.200000X-0.275000X0*%
%ADD24RoundRect,0.162500X-0.650000X-0.162500X0.650000X-0.162500X0.650000X0.162500X-0.650000X0.162500X0*%
%ADD25RoundRect,0.075000X0.700000X0.075000X-0.700000X0.075000X-0.700000X-0.075000X0.700000X-0.075000X0*%
%ADD26RoundRect,0.075000X0.075000X0.700000X-0.075000X0.700000X-0.075000X-0.700000X0.075000X-0.700000X0*%
%ADD27RoundRect,0.250000X0.475000X-0.250000X0.475000X0.250000X-0.475000X0.250000X-0.475000X-0.250000X0*%
%ADD28RoundRect,0.218750X0.381250X-0.218750X0.381250X0.218750X-0.381250X0.218750X-0.381250X-0.218750X0*%
%ADD29R,1.000000X0.850000*%
%ADD30RoundRect,0.075000X-0.662500X-0.075000X0.662500X-0.075000X0.662500X0.075000X-0.662500X0.075000X0*%
%ADD31RoundRect,0.075000X-0.075000X-0.662500X0.075000X-0.662500X0.075000X0.662500X-0.075000X0.662500X0*%
%ADD32RoundRect,0.150000X-0.512500X-0.150000X0.512500X-0.150000X0.512500X0.150000X-0.512500X0.150000X0*%
%ADD33R,1.510000X0.458000*%
%ADD34R,0.950000X0.800000*%
%ADD35RoundRect,0.062500X-0.187500X-0.062500X0.187500X-0.062500X0.187500X0.062500X-0.187500X0.062500X0*%
%ADD36RoundRect,0.250000X-0.400000X-0.300000X0.400000X-0.300000X0.400000X0.300000X-0.400000X0.300000X0*%
%ADD37RoundRect,0.250000X0.250000X0.475000X-0.250000X0.475000X-0.250000X-0.475000X0.250000X-0.475000X0*%
%ADD38RoundRect,0.200000X-0.275000X0.200000X-0.275000X-0.200000X0.275000X-0.200000X0.275000X0.200000X0*%
%ADD39RoundRect,0.250000X-0.450000X-0.350000X0.450000X-0.350000X0.450000X0.350000X-0.450000X0.350000X0*%
%ADD40RoundRect,0.218750X-0.218750X-0.256250X0.218750X-0.256250X0.218750X0.256250X-0.218750X0.256250X0*%
%ADD41RoundRect,0.250000X-0.300000X-1.600000X0.300000X-1.600000X0.300000X1.600000X-0.300000X1.600000X0*%
%ADD42RoundRect,0.250000X-0.475000X0.250000X-0.475000X-0.250000X0.475000X-0.250000X0.475000X0.250000X0*%
%ADD43RoundRect,0.250000X-0.325000X-0.325000X0.325000X-0.325000X0.325000X0.325000X-0.325000X0.325000X0*%
%ADD44RoundRect,0.062500X-0.375000X-0.062500X0.375000X-0.062500X0.375000X0.062500X-0.375000X0.062500X0*%
%ADD45RoundRect,0.062500X-0.062500X-0.375000X0.062500X-0.375000X0.062500X0.375000X-0.062500X0.375000X0*%
G04 APERTURE END LIST*
D10*
%TO.C,C1*%
X166841900Y-103950400D03*
X168391900Y-103950400D03*
%TD*%
D11*
%TO.C,F1*%
X160795300Y-117443200D03*
X160795300Y-114643200D03*
%TD*%
D12*
%TO.C,R43*%
X134771900Y-105293100D03*
X136421900Y-105293100D03*
%TD*%
D13*
%TO.C,D4*%
X138457200Y-75203700D03*
X138457200Y-73628700D03*
%TD*%
D14*
%TO.C,C6*%
X134052800Y-68144800D03*
X135952800Y-68144800D03*
%TD*%
D12*
%TO.C,R3*%
X74872100Y-96918800D03*
X76522100Y-96918800D03*
%TD*%
D15*
%TO.C,C86*%
X119017500Y-98884700D03*
X119017500Y-97334700D03*
%TD*%
D16*
%TO.C,D2*%
X69718700Y-69024300D03*
X71618700Y-69024300D03*
X70668700Y-67149300D03*
%TD*%
D17*
%TO.C,R29*%
X66763000Y-112346100D03*
X66763000Y-110696100D03*
%TD*%
D10*
%TO.C,C39*%
X74507300Y-77290600D03*
X76057300Y-77290600D03*
%TD*%
D17*
%TO.C,R32*%
X83216700Y-108460600D03*
X83216700Y-106810600D03*
%TD*%
D10*
%TO.C,C36*%
X82218400Y-69718900D03*
X83768400Y-69718900D03*
%TD*%
D15*
%TO.C,C21*%
X159218700Y-121191000D03*
X159218700Y-119641000D03*
%TD*%
D12*
%TO.C,R41*%
X98437700Y-77574800D03*
X100087700Y-77574800D03*
%TD*%
%TO.C,R9*%
X126456100Y-76363300D03*
X128106100Y-76363300D03*
%TD*%
D10*
%TO.C,C55*%
X80110200Y-110697800D03*
X81660200Y-110697800D03*
%TD*%
%TO.C,C70*%
X90092400Y-97161500D03*
X91642400Y-97161500D03*
%TD*%
%TO.C,C56*%
X76340600Y-110825000D03*
X77890600Y-110825000D03*
%TD*%
D17*
%TO.C,R26*%
X93945500Y-88561100D03*
X93945500Y-86911100D03*
%TD*%
D18*
%TO.C,U11*%
X86525000Y-109095000D03*
X86525000Y-110365000D03*
X86525000Y-111635000D03*
X86525000Y-112905000D03*
X91475000Y-112905000D03*
X91475000Y-111635000D03*
X91475000Y-110365000D03*
X91475000Y-109095000D03*
%TD*%
D10*
%TO.C,C75*%
X93037600Y-84824700D03*
X94587600Y-84824700D03*
%TD*%
D15*
%TO.C,C57*%
X98402100Y-99887400D03*
X98402100Y-98337400D03*
%TD*%
D19*
%TO.C,C103*%
X131656700Y-76360100D03*
X130106700Y-76360100D03*
%TD*%
D20*
%TO.C,R19*%
X67450600Y-81933300D03*
X67450600Y-79008300D03*
%TD*%
D10*
%TO.C,C69*%
X89340600Y-90975800D03*
X90890600Y-90975800D03*
%TD*%
D12*
%TO.C,R22*%
X70492600Y-64766500D03*
X72142600Y-64766500D03*
%TD*%
%TO.C,R2*%
X176076200Y-106074100D03*
X177726200Y-106074100D03*
%TD*%
D21*
%TO.C,C53*%
X94175000Y-110225000D03*
X94175000Y-111775000D03*
%TD*%
D22*
%TO.C,C32*%
X67200000Y-71475000D03*
X67200000Y-68525000D03*
%TD*%
D10*
%TO.C,C2*%
X173108100Y-103950400D03*
X174658100Y-103950400D03*
%TD*%
D17*
%TO.C,R36*%
X103536900Y-102043800D03*
X103536900Y-100393800D03*
%TD*%
D15*
%TO.C,C34*%
X69951900Y-73010900D03*
X69951900Y-71460900D03*
%TD*%
D23*
%TO.C,R5*%
X72700000Y-90833500D03*
X71050000Y-90833500D03*
%TD*%
D17*
%TO.C,R46*%
X140911300Y-106568100D03*
X140911300Y-104918100D03*
%TD*%
D10*
%TO.C,C13*%
X74922100Y-91081200D03*
X76472100Y-91081200D03*
%TD*%
D22*
%TO.C,C33*%
X67451900Y-76685900D03*
X67451900Y-73735900D03*
%TD*%
D12*
%TO.C,R1*%
X176833100Y-103950400D03*
X178483100Y-103950400D03*
%TD*%
D17*
%TO.C,R38*%
X105884300Y-83672200D03*
X105884300Y-82022200D03*
%TD*%
D10*
%TO.C,C43*%
X78738200Y-80708600D03*
X80288200Y-80708600D03*
%TD*%
D15*
%TO.C,C47*%
X69951900Y-119010900D03*
X69951900Y-117460900D03*
%TD*%
D17*
%TO.C,R17*%
X148909400Y-134711700D03*
X148909400Y-133061700D03*
%TD*%
D10*
%TO.C,C29*%
X158048200Y-132571000D03*
X159598200Y-132571000D03*
%TD*%
D17*
%TO.C,R16*%
X130627000Y-138429000D03*
X130627000Y-136779000D03*
%TD*%
D10*
%TO.C,C71*%
X89715300Y-88921200D03*
X91265300Y-88921200D03*
%TD*%
D24*
%TO.C,U15*%
X138412500Y-110095000D03*
X138412500Y-111365000D03*
X138412500Y-112635000D03*
X138412500Y-113905000D03*
X145587500Y-113905000D03*
X145587500Y-112635000D03*
X145587500Y-111365000D03*
X145587500Y-110095000D03*
%TD*%
D25*
%TO.C,U6*%
X154675000Y-127750000D03*
X154675000Y-127250000D03*
X154675000Y-126750000D03*
X154675000Y-126250000D03*
X154675000Y-125750000D03*
X154675000Y-125250000D03*
X154675000Y-124750000D03*
X154675000Y-124250000D03*
X154675000Y-123750000D03*
X154675000Y-123250000D03*
X154675000Y-122750000D03*
X154675000Y-122250000D03*
X154675000Y-121750000D03*
X154675000Y-121250000D03*
X154675000Y-120750000D03*
X154675000Y-120250000D03*
D26*
X152750000Y-118325000D03*
X152250000Y-118325000D03*
X151750000Y-118325000D03*
X151250000Y-118325000D03*
X150750000Y-118325000D03*
X150250000Y-118325000D03*
X149750000Y-118325000D03*
X149250000Y-118325000D03*
X148750000Y-118325000D03*
X148250000Y-118325000D03*
X147750000Y-118325000D03*
X147250000Y-118325000D03*
X146750000Y-118325000D03*
X146250000Y-118325000D03*
X145750000Y-118325000D03*
X145250000Y-118325000D03*
D25*
X143325000Y-120250000D03*
X143325000Y-120750000D03*
X143325000Y-121250000D03*
X143325000Y-121750000D03*
X143325000Y-122250000D03*
X143325000Y-122750000D03*
X143325000Y-123250000D03*
X143325000Y-123750000D03*
X143325000Y-124250000D03*
X143325000Y-124750000D03*
X143325000Y-125250000D03*
X143325000Y-125750000D03*
X143325000Y-126250000D03*
X143325000Y-126750000D03*
X143325000Y-127250000D03*
X143325000Y-127750000D03*
D26*
X145250000Y-129675000D03*
X145750000Y-129675000D03*
X146250000Y-129675000D03*
X146750000Y-129675000D03*
X147250000Y-129675000D03*
X147750000Y-129675000D03*
X148250000Y-129675000D03*
X148750000Y-129675000D03*
X149250000Y-129675000D03*
X149750000Y-129675000D03*
X150250000Y-129675000D03*
X150750000Y-129675000D03*
X151250000Y-129675000D03*
X151750000Y-129675000D03*
X152250000Y-129675000D03*
X152750000Y-129675000D03*
%TD*%
D19*
%TO.C,C101*%
X133290200Y-107637500D03*
X131740200Y-107637500D03*
%TD*%
D17*
%TO.C,R15*%
X151448500Y-137486600D03*
X151448500Y-135836600D03*
%TD*%
D27*
%TO.C,C65*%
X93906100Y-101274500D03*
X93906100Y-99374500D03*
%TD*%
D17*
%TO.C,R48*%
X145141800Y-106255600D03*
X145141800Y-104605600D03*
%TD*%
D12*
%TO.C,R6*%
X67624000Y-93078000D03*
X69274000Y-93078000D03*
%TD*%
D14*
%TO.C,C9*%
X88758000Y-86590800D03*
X90658000Y-86590800D03*
%TD*%
D21*
%TO.C,C10*%
X75150000Y-93225000D03*
X75150000Y-94775000D03*
%TD*%
%TO.C,C41*%
X83892000Y-76475000D03*
X83892000Y-78025000D03*
%TD*%
D15*
%TO.C,C59*%
X101167200Y-102334200D03*
X101167200Y-100784200D03*
%TD*%
D10*
%TO.C,C5*%
X127099800Y-74242000D03*
X128649800Y-74242000D03*
%TD*%
D28*
%TO.C,FB1*%
X160477400Y-112484800D03*
X160477400Y-110359800D03*
%TD*%
D17*
%TO.C,R51*%
X138520500Y-78814600D03*
X138520500Y-77164600D03*
%TD*%
D15*
%TO.C,C64*%
X96291500Y-100351100D03*
X96291500Y-98801100D03*
%TD*%
D10*
%TO.C,C50*%
X79755800Y-112975300D03*
X81305800Y-112975300D03*
%TD*%
D29*
%TO.C,C48*%
X71236000Y-125285100D03*
X71236000Y-121135100D03*
%TD*%
D30*
%TO.C,U14*%
X121337500Y-83250000D03*
X121337500Y-83750000D03*
X121337500Y-84250000D03*
X121337500Y-84750000D03*
X121337500Y-85250000D03*
X121337500Y-85750000D03*
X121337500Y-86250000D03*
X121337500Y-86750000D03*
X121337500Y-87250000D03*
X121337500Y-87750000D03*
X121337500Y-88250000D03*
X121337500Y-88750000D03*
X121337500Y-89250000D03*
X121337500Y-89750000D03*
X121337500Y-90250000D03*
X121337500Y-90750000D03*
X121337500Y-91250000D03*
X121337500Y-91750000D03*
X121337500Y-92250000D03*
X121337500Y-92750000D03*
X121337500Y-93250000D03*
X121337500Y-93750000D03*
X121337500Y-94250000D03*
X121337500Y-94750000D03*
X121337500Y-95250000D03*
X121337500Y-95750000D03*
X121337500Y-96250000D03*
X121337500Y-96750000D03*
X121337500Y-97250000D03*
X121337500Y-97750000D03*
X121337500Y-98250000D03*
X121337500Y-98750000D03*
X121337500Y-99250000D03*
X121337500Y-99750000D03*
X121337500Y-100250000D03*
X121337500Y-100750000D03*
D31*
X123250000Y-102662500D03*
X123750000Y-102662500D03*
X124250000Y-102662500D03*
X124750000Y-102662500D03*
X125250000Y-102662500D03*
X125750000Y-102662500D03*
X126250000Y-102662500D03*
X126750000Y-102662500D03*
X127250000Y-102662500D03*
X127750000Y-102662500D03*
X128250000Y-102662500D03*
X128750000Y-102662500D03*
X129250000Y-102662500D03*
X129750000Y-102662500D03*
X130250000Y-102662500D03*
X130750000Y-102662500D03*
X131250000Y-102662500D03*
X131750000Y-102662500D03*
X132250000Y-102662500D03*
X132750000Y-102662500D03*
X133250000Y-102662500D03*
X133750000Y-102662500D03*
X134250000Y-102662500D03*
X134750000Y-102662500D03*
X135250000Y-102662500D03*
X135750000Y-102662500D03*
X136250000Y-102662500D03*
X136750000Y-102662500D03*
X137250000Y-102662500D03*
X137750000Y-102662500D03*
X138250000Y-102662500D03*
X138750000Y-102662500D03*
X139250000Y-102662500D03*
X139750000Y-102662500D03*
X140250000Y-102662500D03*
X140750000Y-102662500D03*
D30*
X142662500Y-100750000D03*
X142662500Y-100250000D03*
X142662500Y-99750000D03*
X142662500Y-99250000D03*
X142662500Y-98750000D03*
X142662500Y-98250000D03*
X142662500Y-97750000D03*
X142662500Y-97250000D03*
X142662500Y-96750000D03*
X142662500Y-96250000D03*
X142662500Y-95750000D03*
X142662500Y-95250000D03*
X142662500Y-94750000D03*
X142662500Y-94250000D03*
X142662500Y-93750000D03*
X142662500Y-93250000D03*
X142662500Y-92750000D03*
X142662500Y-92250000D03*
X142662500Y-91750000D03*
X142662500Y-91250000D03*
X142662500Y-90750000D03*
X142662500Y-90250000D03*
X142662500Y-89750000D03*
X142662500Y-89250000D03*
X142662500Y-88750000D03*
X142662500Y-88250000D03*
X142662500Y-87750000D03*
X142662500Y-87250000D03*
X142662500Y-86750000D03*
X142662500Y-86250000D03*
X142662500Y-85750000D03*
X142662500Y-85250000D03*
X142662500Y-84750000D03*
X142662500Y-84250000D03*
X142662500Y-83750000D03*
X142662500Y-83250000D03*
D31*
X140750000Y-81337500D03*
X140250000Y-81337500D03*
X139750000Y-81337500D03*
X139250000Y-81337500D03*
X138750000Y-81337500D03*
X138250000Y-81337500D03*
X137750000Y-81337500D03*
X137250000Y-81337500D03*
X136750000Y-81337500D03*
X136250000Y-81337500D03*
X135750000Y-81337500D03*
X135250000Y-81337500D03*
X134750000Y-81337500D03*
X134250000Y-81337500D03*
X133750000Y-81337500D03*
X133250000Y-81337500D03*
X132750000Y-81337500D03*
X132250000Y-81337500D03*
X131750000Y-81337500D03*
X131250000Y-81337500D03*
X130750000Y-81337500D03*
X130250000Y-81337500D03*
X129750000Y-81337500D03*
X129250000Y-81337500D03*
X128750000Y-81337500D03*
X128250000Y-81337500D03*
X127750000Y-81337500D03*
X127250000Y-81337500D03*
X126750000Y-81337500D03*
X126250000Y-81337500D03*
X125750000Y-81337500D03*
X125250000Y-81337500D03*
X124750000Y-81337500D03*
X124250000Y-81337500D03*
X123750000Y-81337500D03*
X123250000Y-81337500D03*
%TD*%
D32*
%TO.C,U1*%
X169862500Y-106050000D03*
X169862500Y-107000000D03*
X169862500Y-107950000D03*
X172137500Y-107950000D03*
X172137500Y-106050000D03*
%TD*%
D33*
%TO.C,U13*%
X156250000Y-79600000D03*
X156250000Y-80400000D03*
X156250000Y-81200000D03*
X156250000Y-82000000D03*
X156250000Y-82800000D03*
X156250000Y-83600000D03*
X156250000Y-84400000D03*
X156250000Y-85200000D03*
X156250000Y-86000000D03*
X156250000Y-86800000D03*
X156250000Y-87600000D03*
X156250000Y-88400000D03*
X156250000Y-89200000D03*
X156250000Y-90000000D03*
X156250000Y-90800000D03*
X156250000Y-91600000D03*
X156250000Y-92400000D03*
X156250000Y-93200000D03*
X156250000Y-94000000D03*
X156250000Y-94800000D03*
X156250000Y-95600000D03*
X156250000Y-96400000D03*
X156250000Y-97200000D03*
X156250000Y-98000000D03*
X156250000Y-98800000D03*
X156250000Y-99600000D03*
X156250000Y-100400000D03*
X167750000Y-100400000D03*
X167750000Y-99600000D03*
X167750000Y-98800000D03*
X167750000Y-98000000D03*
X167750000Y-97200000D03*
X167750000Y-96400000D03*
X167750000Y-95600000D03*
X167750000Y-94800000D03*
X167750000Y-94000000D03*
X167750000Y-93200000D03*
X167750000Y-92400000D03*
X167750000Y-91600000D03*
X167750000Y-90800000D03*
X167750000Y-90000000D03*
X167750000Y-89200000D03*
X167750000Y-88400000D03*
X167750000Y-87600000D03*
X167750000Y-86800000D03*
X167750000Y-86000000D03*
X167750000Y-85200000D03*
X167750000Y-84400000D03*
X167750000Y-83600000D03*
X167750000Y-82800000D03*
X167750000Y-82000000D03*
X167750000Y-81200000D03*
X167750000Y-80400000D03*
X167750000Y-79600000D03*
%TD*%
D12*
%TO.C,R11*%
X158705000Y-134634100D03*
X160355000Y-134634100D03*
%TD*%
D17*
%TO.C,R39*%
X105801000Y-102631400D03*
X105801000Y-100981400D03*
%TD*%
D32*
%TO.C,U5*%
X158362500Y-123550000D03*
X158362500Y-124500000D03*
X158362500Y-125450000D03*
X160637500Y-125450000D03*
X160637500Y-124500000D03*
X160637500Y-123550000D03*
%TD*%
D34*
%TO.C,U4*%
X72000000Y-93500000D03*
X72000000Y-94500000D03*
D35*
X71050000Y-92750000D03*
X71050000Y-93250000D03*
X71050000Y-93750000D03*
X71050000Y-94250000D03*
X71050000Y-94750000D03*
X71050000Y-95250000D03*
X72950000Y-95250000D03*
X72950000Y-94750000D03*
X72950000Y-94250000D03*
X72950000Y-93750000D03*
X72950000Y-93250000D03*
X72950000Y-92750000D03*
%TD*%
D32*
%TO.C,U3*%
X86862500Y-93050000D03*
X86862500Y-94000000D03*
X86862500Y-94950000D03*
X89137500Y-94950000D03*
X89137500Y-93050000D03*
%TD*%
D17*
%TO.C,R52*%
X134881000Y-76649700D03*
X134881000Y-74999700D03*
%TD*%
D32*
%TO.C,U2*%
X130862500Y-70550000D03*
X130862500Y-71500000D03*
X130862500Y-72450000D03*
X133137500Y-72450000D03*
X133137500Y-70550000D03*
%TD*%
D17*
%TO.C,R37*%
X105947600Y-87245600D03*
X105947600Y-85595600D03*
%TD*%
D10*
%TO.C,C42*%
X82380000Y-80090800D03*
X83930000Y-80090800D03*
%TD*%
D17*
%TO.C,R14*%
X153614000Y-137268400D03*
X153614000Y-135618400D03*
%TD*%
D16*
%TO.C,D3*%
X69718700Y-115024300D03*
X71618700Y-115024300D03*
X70668700Y-113149300D03*
%TD*%
D10*
%TO.C,C76*%
X94000300Y-79830100D03*
X95550300Y-79830100D03*
%TD*%
%TO.C,C30*%
X161751800Y-132003200D03*
X163301800Y-132003200D03*
%TD*%
%TO.C,C37*%
X79755800Y-66975300D03*
X81305800Y-66975300D03*
%TD*%
D12*
%TO.C,R31*%
X70244700Y-110807400D03*
X71894700Y-110807400D03*
%TD*%
D21*
%TO.C,C60*%
X98348400Y-92215900D03*
X98348400Y-93765900D03*
%TD*%
D18*
%TO.C,U9*%
X86525000Y-75095000D03*
X86525000Y-76365000D03*
X86525000Y-77635000D03*
X86525000Y-78905000D03*
X91475000Y-78905000D03*
X91475000Y-77635000D03*
X91475000Y-76365000D03*
X91475000Y-75095000D03*
%TD*%
D17*
%TO.C,R47*%
X143032200Y-106570300D03*
X143032200Y-104920300D03*
%TD*%
D12*
%TO.C,R44*%
X134875000Y-78704500D03*
X136525000Y-78704500D03*
%TD*%
D22*
%TO.C,C45*%
X67200000Y-117475000D03*
X67200000Y-114525000D03*
%TD*%
D27*
%TO.C,C89*%
X116607100Y-99930400D03*
X116607100Y-98030400D03*
%TD*%
D36*
%TO.C,Y2*%
X96950000Y-83825000D03*
X99050000Y-83825000D03*
X99050000Y-82175000D03*
X96950000Y-82175000D03*
%TD*%
D10*
%TO.C,C51*%
X74595400Y-121236900D03*
X76145400Y-121236900D03*
%TD*%
D37*
%TO.C,C102*%
X132700000Y-78704500D03*
X130800000Y-78704500D03*
%TD*%
D12*
%TO.C,R7*%
X71300000Y-97233500D03*
X72950000Y-97233500D03*
%TD*%
D15*
%TO.C,C62*%
X96124000Y-88471900D03*
X96124000Y-86921900D03*
%TD*%
D17*
%TO.C,R4*%
X68932200Y-90788400D03*
X68932200Y-89138400D03*
%TD*%
D29*
%TO.C,C35*%
X71236000Y-79285100D03*
X71236000Y-75135100D03*
%TD*%
D10*
%TO.C,C12*%
X163200100Y-104568200D03*
X164750100Y-104568200D03*
%TD*%
D15*
%TO.C,C58*%
X101667200Y-87215800D03*
X101667200Y-85665800D03*
%TD*%
D12*
%TO.C,R50*%
X148072700Y-110911800D03*
X149722700Y-110911800D03*
%TD*%
D22*
%TO.C,C15*%
X174873300Y-112474100D03*
X174873300Y-109524100D03*
%TD*%
D15*
%TO.C,C74*%
X110884100Y-87447700D03*
X110884100Y-85897700D03*
%TD*%
%TO.C,C67*%
X93906100Y-97327700D03*
X93906100Y-95777700D03*
%TD*%
D17*
%TO.C,R35*%
X99638200Y-106016700D03*
X99638200Y-104366700D03*
%TD*%
D10*
%TO.C,C38*%
X74595400Y-75236900D03*
X76145400Y-75236900D03*
%TD*%
%TO.C,C7*%
X127020300Y-70572000D03*
X128570300Y-70572000D03*
%TD*%
D15*
%TO.C,C63*%
X96224700Y-96784100D03*
X96224700Y-95234100D03*
%TD*%
D14*
%TO.C,C3*%
X165077000Y-106871100D03*
X166977000Y-106871100D03*
%TD*%
D21*
%TO.C,C44*%
X98402100Y-88612600D03*
X98402100Y-90162600D03*
%TD*%
D38*
%TO.C,R24*%
X96425000Y-76175000D03*
X96425000Y-77825000D03*
%TD*%
D14*
%TO.C,C72*%
X85346700Y-90651300D03*
X87246700Y-90651300D03*
%TD*%
D13*
%TO.C,D5*%
X135440200Y-72895300D03*
X135440200Y-71320300D03*
%TD*%
D21*
%TO.C,C54*%
X83892000Y-110475000D03*
X83892000Y-112025000D03*
%TD*%
D15*
%TO.C,C22*%
X157124900Y-117281100D03*
X157124900Y-115731100D03*
%TD*%
%TO.C,C20*%
X157046400Y-121099300D03*
X157046400Y-119549300D03*
%TD*%
D18*
%TO.C,U10*%
X74525000Y-115095000D03*
X74525000Y-116365000D03*
X74525000Y-117635000D03*
X74525000Y-118905000D03*
X79475000Y-118905000D03*
X79475000Y-117635000D03*
X79475000Y-116365000D03*
X79475000Y-115095000D03*
%TD*%
D12*
%TO.C,R8*%
X75027900Y-98992600D03*
X76677900Y-98992600D03*
%TD*%
D17*
%TO.C,R20*%
X66763000Y-66346100D03*
X66763000Y-64696100D03*
%TD*%
D20*
%TO.C,R28*%
X67450600Y-127933300D03*
X67450600Y-125008300D03*
%TD*%
D39*
%TO.C,Y1*%
X156850000Y-130350000D03*
X159050000Y-130350000D03*
X159050000Y-128650000D03*
X156850000Y-128650000D03*
%TD*%
D12*
%TO.C,R40*%
X99894400Y-79919100D03*
X101544400Y-79919100D03*
%TD*%
D17*
%TO.C,R10*%
X177363000Y-112710000D03*
X177363000Y-111060000D03*
%TD*%
D37*
%TO.C,C100*%
X132596900Y-105293100D03*
X130696900Y-105293100D03*
%TD*%
D10*
%TO.C,C49*%
X82218400Y-115718900D03*
X83768400Y-115718900D03*
%TD*%
D15*
%TO.C,C73*%
X111134100Y-102102300D03*
X111134100Y-100552300D03*
%TD*%
D21*
%TO.C,C40*%
X94175000Y-76225000D03*
X94175000Y-77775000D03*
%TD*%
D12*
%TO.C,R21*%
X73736200Y-66852200D03*
X75386200Y-66852200D03*
%TD*%
D17*
%TO.C,R18*%
X146799300Y-134095200D03*
X146799300Y-132445200D03*
%TD*%
%TO.C,R13*%
X132862900Y-136355900D03*
X132862900Y-134705900D03*
%TD*%
D40*
%TO.C,D1*%
X127035000Y-78456400D03*
X128610000Y-78456400D03*
%TD*%
D13*
%TO.C,FB2*%
X155781500Y-134141300D03*
X155781500Y-132566300D03*
%TD*%
D15*
%TO.C,C18*%
X150978100Y-133655900D03*
X150978100Y-132105900D03*
%TD*%
D14*
%TO.C,C4*%
X127786700Y-68144800D03*
X129686700Y-68144800D03*
%TD*%
D15*
%TO.C,C14*%
X69432900Y-101005200D03*
X69432900Y-99455200D03*
%TD*%
%TO.C,C88*%
X118943700Y-102699400D03*
X118943700Y-101149400D03*
%TD*%
D12*
%TO.C,R12*%
X153493000Y-115816600D03*
X155143000Y-115816600D03*
%TD*%
D15*
%TO.C,C17*%
X153189800Y-133557900D03*
X153189800Y-132007900D03*
%TD*%
D10*
%TO.C,C52*%
X74507300Y-123290600D03*
X76057300Y-123290600D03*
%TD*%
D38*
%TO.C,R34*%
X80962300Y-107009300D03*
X80962300Y-108659300D03*
%TD*%
D12*
%TO.C,R49*%
X134452800Y-113570300D03*
X136102800Y-113570300D03*
%TD*%
D38*
%TO.C,R25*%
X81642000Y-76425000D03*
X81642000Y-78075000D03*
%TD*%
D41*
%TO.C,L1*%
X164461800Y-110813700D03*
X167461800Y-110813700D03*
%TD*%
D18*
%TO.C,U7*%
X135525000Y-131095000D03*
X135525000Y-132365000D03*
X135525000Y-133635000D03*
X135525000Y-134905000D03*
X140475000Y-134905000D03*
X140475000Y-133635000D03*
X140475000Y-132365000D03*
X140475000Y-131095000D03*
%TD*%
D36*
%TO.C,Y3*%
X121950000Y-109825000D03*
X124050000Y-109825000D03*
X124050000Y-108175000D03*
X121950000Y-108175000D03*
%TD*%
D12*
%TO.C,R30*%
X73961300Y-112963900D03*
X75611300Y-112963900D03*
%TD*%
D15*
%TO.C,C87*%
X118978900Y-95269600D03*
X118978900Y-93719600D03*
%TD*%
D10*
%TO.C,C68*%
X92116300Y-93169400D03*
X93666300Y-93169400D03*
%TD*%
D17*
%TO.C,R23*%
X83216700Y-74460600D03*
X83216700Y-72810600D03*
%TD*%
D15*
%TO.C,C66*%
X97077900Y-103903400D03*
X97077900Y-102353400D03*
%TD*%
D12*
%TO.C,R42*%
X124894400Y-105919100D03*
X126544400Y-105919100D03*
%TD*%
D18*
%TO.C,U8*%
X74525000Y-69095000D03*
X74525000Y-70365000D03*
X74525000Y-71635000D03*
X74525000Y-72905000D03*
X79475000Y-72905000D03*
X79475000Y-71635000D03*
X79475000Y-70365000D03*
X79475000Y-69095000D03*
%TD*%
D22*
%TO.C,C46*%
X67451900Y-122685900D03*
X67451900Y-119735900D03*
%TD*%
D10*
%TO.C,C8*%
X161347500Y-106724800D03*
X162897500Y-106724800D03*
%TD*%
D42*
%TO.C,C61*%
X95963000Y-90589300D03*
X95963000Y-92489300D03*
%TD*%
D43*
%TO.C,U12*%
X102140000Y-91140000D03*
X102140000Y-92570000D03*
X102140000Y-94000000D03*
X102140000Y-95430000D03*
X102140000Y-96860000D03*
X103570000Y-91140000D03*
X103570000Y-92570000D03*
X103570000Y-94000000D03*
X103570000Y-95430000D03*
X103570000Y-96860000D03*
X105000000Y-91140000D03*
X105000000Y-92570000D03*
X105000000Y-94000000D03*
X105000000Y-95430000D03*
X105000000Y-96860000D03*
X106430000Y-91140000D03*
X106430000Y-92570000D03*
X106430000Y-94000000D03*
X106430000Y-95430000D03*
X106430000Y-96860000D03*
X107860000Y-91140000D03*
X107860000Y-92570000D03*
X107860000Y-94000000D03*
X107860000Y-95430000D03*
X107860000Y-96860000D03*
D44*
X100562500Y-90250000D03*
X100562500Y-90750000D03*
X100562500Y-91250000D03*
X100562500Y-91750000D03*
X100562500Y-92250000D03*
X100562500Y-92750000D03*
X100562500Y-93250000D03*
X100562500Y-93750000D03*
X100562500Y-94250000D03*
X100562500Y-94750000D03*
X100562500Y-95250000D03*
X100562500Y-95750000D03*
X100562500Y-96250000D03*
X100562500Y-96750000D03*
X100562500Y-97250000D03*
X100562500Y-97750000D03*
D45*
X101250000Y-98437500D03*
X101750000Y-98437500D03*
X102250000Y-98437500D03*
X102750000Y-98437500D03*
X103250000Y-98437500D03*
X103750000Y-98437500D03*
X104250000Y-98437500D03*
X104750000Y-98437500D03*
X105250000Y-98437500D03*
X105750000Y-98437500D03*
X106250000Y-98437500D03*
X106750000Y-98437500D03*
X107250000Y-98437500D03*
X107750000Y-98437500D03*
X108250000Y-98437500D03*
X108750000Y-98437500D03*
D44*
X109437500Y-97750000D03*
X109437500Y-97250000D03*
X109437500Y-96750000D03*
X109437500Y-96250000D03*
X109437500Y-95750000D03*
X109437500Y-95250000D03*
X109437500Y-94750000D03*
X109437500Y-94250000D03*
X109437500Y-93750000D03*
X109437500Y-93250000D03*
X109437500Y-92750000D03*
X109437500Y-92250000D03*
X109437500Y-91750000D03*
X109437500Y-91250000D03*
X109437500Y-90750000D03*
X109437500Y-90250000D03*
D45*
X108750000Y-89562500D03*
X108250000Y-89562500D03*
X107750000Y-89562500D03*
X107250000Y-89562500D03*
X106750000Y-89562500D03*
X106250000Y-89562500D03*
X105750000Y-89562500D03*
X105250000Y-89562500D03*
X104750000Y-89562500D03*
X104250000Y-89562500D03*
X103750000Y-89562500D03*
X103250000Y-89562500D03*
X102750000Y-89562500D03*
X102250000Y-89562500D03*
X101750000Y-89562500D03*
X101250000Y-89562500D03*
%TD*%
D14*
%TO.C,C11*%
X67227900Y-97135300D03*
X69127900Y-97135300D03*
%TD*%
D17*
%TO.C,R45*%
X138796100Y-106627500D03*
X138796100Y-104977500D03*
%TD*%
D38*
%TO.C,R33*%
X96425000Y-110175000D03*
X96425000Y-111825000D03*
%TD*%
D17*
%TO.C,R27*%
X103793300Y-87273600D03*
X103793300Y-85623600D03*
%TD*%
M02*
