%TF.GenerationSoftware,KiCad,Pcbnew,10.0.4*%
%TF.CreationDate,2026-10-09T15:41:01-04:00*%
%TF.ProjectId,dual_adc_usb,6475616c-5f61-4646-935f-7573622e6b69,rev?*%
%TF.SameCoordinates,Original*%
%TF.FileFunction,Legend,Top*%
%TF.FilePolarity,Positive*%
%FSLAX46Y46*%
G04 Gerber Fmt 4.6, Leading zero omitted, Abs format (unit mm)*
G04 Created by KiCad (PCBNEW 10.0.4) date 2026-10-09 15:41:01*
%MOMM*%
%LPD*%
G01*
G04 APERTURE LIST*
%ADD10C,0.120000*%
G04 APERTURE END LIST*
D10*
X171493333Y-112793855D02*
X171493333Y-113365283D01*
X171493333Y-113365283D02*
X171455238Y-113479569D01*
X171455238Y-113479569D02*
X171379047Y-113555760D01*
X171379047Y-113555760D02*
X171264762Y-113593855D01*
X171264762Y-113593855D02*
X171188571Y-113593855D01*
X172293333Y-113593855D02*
X171836190Y-113593855D01*
X172064762Y-113593855D02*
X172064762Y-112793855D01*
X172064762Y-112793855D02*
X171988571Y-112908140D01*
X171988571Y-112908140D02*
X171912381Y-112984331D01*
X171912381Y-112984331D02*
X171836190Y-113022426D01*
X88009524Y-107163855D02*
X88009524Y-107811474D01*
X88009524Y-107811474D02*
X88047619Y-107887664D01*
X88047619Y-107887664D02*
X88085714Y-107925760D01*
X88085714Y-107925760D02*
X88161905Y-107963855D01*
X88161905Y-107963855D02*
X88314286Y-107963855D01*
X88314286Y-107963855D02*
X88390476Y-107925760D01*
X88390476Y-107925760D02*
X88428571Y-107887664D01*
X88428571Y-107887664D02*
X88466667Y-107811474D01*
X88466667Y-107811474D02*
X88466667Y-107163855D01*
X89266666Y-107963855D02*
X88809523Y-107963855D01*
X89038095Y-107963855D02*
X89038095Y-107163855D01*
X89038095Y-107163855D02*
X88961904Y-107278140D01*
X88961904Y-107278140D02*
X88885714Y-107354331D01*
X88885714Y-107354331D02*
X88809523Y-107392426D01*
X90028571Y-107963855D02*
X89571428Y-107963855D01*
X89800000Y-107963855D02*
X89800000Y-107163855D01*
X89800000Y-107163855D02*
X89723809Y-107278140D01*
X89723809Y-107278140D02*
X89647619Y-107354331D01*
X89647619Y-107354331D02*
X89571428Y-107392426D01*
X141009524Y-107963855D02*
X141009524Y-108611474D01*
X141009524Y-108611474D02*
X141047619Y-108687664D01*
X141047619Y-108687664D02*
X141085714Y-108725760D01*
X141085714Y-108725760D02*
X141161905Y-108763855D01*
X141161905Y-108763855D02*
X141314286Y-108763855D01*
X141314286Y-108763855D02*
X141390476Y-108725760D01*
X141390476Y-108725760D02*
X141428571Y-108687664D01*
X141428571Y-108687664D02*
X141466667Y-108611474D01*
X141466667Y-108611474D02*
X141466667Y-107963855D01*
X142266666Y-108763855D02*
X141809523Y-108763855D01*
X142038095Y-108763855D02*
X142038095Y-107963855D01*
X142038095Y-107963855D02*
X141961904Y-108078140D01*
X141961904Y-108078140D02*
X141885714Y-108154331D01*
X141885714Y-108154331D02*
X141809523Y-108192426D01*
X142990476Y-107963855D02*
X142609524Y-107963855D01*
X142609524Y-107963855D02*
X142571428Y-108344807D01*
X142571428Y-108344807D02*
X142609524Y-108306712D01*
X142609524Y-108306712D02*
X142685714Y-108268617D01*
X142685714Y-108268617D02*
X142876190Y-108268617D01*
X142876190Y-108268617D02*
X142952381Y-108306712D01*
X142952381Y-108306712D02*
X142990476Y-108344807D01*
X142990476Y-108344807D02*
X143028571Y-108420998D01*
X143028571Y-108420998D02*
X143028571Y-108611474D01*
X143028571Y-108611474D02*
X142990476Y-108687664D01*
X142990476Y-108687664D02*
X142952381Y-108725760D01*
X142952381Y-108725760D02*
X142876190Y-108763855D01*
X142876190Y-108763855D02*
X142685714Y-108763855D01*
X142685714Y-108763855D02*
X142609524Y-108725760D01*
X142609524Y-108725760D02*
X142571428Y-108687664D01*
X148390476Y-130963855D02*
X148390476Y-131611474D01*
X148390476Y-131611474D02*
X148428571Y-131687664D01*
X148428571Y-131687664D02*
X148466666Y-131725760D01*
X148466666Y-131725760D02*
X148542857Y-131763855D01*
X148542857Y-131763855D02*
X148695238Y-131763855D01*
X148695238Y-131763855D02*
X148771428Y-131725760D01*
X148771428Y-131725760D02*
X148809523Y-131687664D01*
X148809523Y-131687664D02*
X148847619Y-131611474D01*
X148847619Y-131611474D02*
X148847619Y-130963855D01*
X149571428Y-130963855D02*
X149419047Y-130963855D01*
X149419047Y-130963855D02*
X149342856Y-131001950D01*
X149342856Y-131001950D02*
X149304761Y-131040045D01*
X149304761Y-131040045D02*
X149228571Y-131154331D01*
X149228571Y-131154331D02*
X149190475Y-131306712D01*
X149190475Y-131306712D02*
X149190475Y-131611474D01*
X149190475Y-131611474D02*
X149228571Y-131687664D01*
X149228571Y-131687664D02*
X149266666Y-131725760D01*
X149266666Y-131725760D02*
X149342856Y-131763855D01*
X149342856Y-131763855D02*
X149495237Y-131763855D01*
X149495237Y-131763855D02*
X149571428Y-131725760D01*
X149571428Y-131725760D02*
X149609523Y-131687664D01*
X149609523Y-131687664D02*
X149647618Y-131611474D01*
X149647618Y-131611474D02*
X149647618Y-131420998D01*
X149647618Y-131420998D02*
X149609523Y-131344807D01*
X149609523Y-131344807D02*
X149571428Y-131306712D01*
X149571428Y-131306712D02*
X149495237Y-131268617D01*
X149495237Y-131268617D02*
X149342856Y-131268617D01*
X149342856Y-131268617D02*
X149266666Y-131306712D01*
X149266666Y-131306712D02*
X149228571Y-131344807D01*
X149228571Y-131344807D02*
X149190475Y-131420998D01*
X131009524Y-79213855D02*
X131009524Y-79861474D01*
X131009524Y-79861474D02*
X131047619Y-79937664D01*
X131047619Y-79937664D02*
X131085714Y-79975760D01*
X131085714Y-79975760D02*
X131161905Y-80013855D01*
X131161905Y-80013855D02*
X131314286Y-80013855D01*
X131314286Y-80013855D02*
X131390476Y-79975760D01*
X131390476Y-79975760D02*
X131428571Y-79937664D01*
X131428571Y-79937664D02*
X131466667Y-79861474D01*
X131466667Y-79861474D02*
X131466667Y-79213855D01*
X132266666Y-80013855D02*
X131809523Y-80013855D01*
X132038095Y-80013855D02*
X132038095Y-79213855D01*
X132038095Y-79213855D02*
X131961904Y-79328140D01*
X131961904Y-79328140D02*
X131885714Y-79404331D01*
X131885714Y-79404331D02*
X131809523Y-79442426D01*
X132952381Y-79480521D02*
X132952381Y-80013855D01*
X132761905Y-79175760D02*
X132571428Y-79747188D01*
X132571428Y-79747188D02*
X133066667Y-79747188D01*
X175890476Y-132713855D02*
X175890476Y-131913855D01*
X175890476Y-132294807D02*
X176347619Y-132294807D01*
X176347619Y-132713855D02*
X176347619Y-131913855D01*
X177071428Y-132180521D02*
X177071428Y-132713855D01*
X176880952Y-131875760D02*
X176690475Y-132447188D01*
X176690475Y-132447188D02*
X177185714Y-132447188D01*
X170390476Y-104163855D02*
X170390476Y-104811474D01*
X170390476Y-104811474D02*
X170428571Y-104887664D01*
X170428571Y-104887664D02*
X170466666Y-104925760D01*
X170466666Y-104925760D02*
X170542857Y-104963855D01*
X170542857Y-104963855D02*
X170695238Y-104963855D01*
X170695238Y-104963855D02*
X170771428Y-104925760D01*
X170771428Y-104925760D02*
X170809523Y-104887664D01*
X170809523Y-104887664D02*
X170847619Y-104811474D01*
X170847619Y-104811474D02*
X170847619Y-104163855D01*
X171647618Y-104963855D02*
X171190475Y-104963855D01*
X171419047Y-104963855D02*
X171419047Y-104163855D01*
X171419047Y-104163855D02*
X171342856Y-104278140D01*
X171342856Y-104278140D02*
X171266666Y-104354331D01*
X171266666Y-104354331D02*
X171190475Y-104392426D01*
X161009524Y-77063855D02*
X161009524Y-77711474D01*
X161009524Y-77711474D02*
X161047619Y-77787664D01*
X161047619Y-77787664D02*
X161085714Y-77825760D01*
X161085714Y-77825760D02*
X161161905Y-77863855D01*
X161161905Y-77863855D02*
X161314286Y-77863855D01*
X161314286Y-77863855D02*
X161390476Y-77825760D01*
X161390476Y-77825760D02*
X161428571Y-77787664D01*
X161428571Y-77787664D02*
X161466667Y-77711474D01*
X161466667Y-77711474D02*
X161466667Y-77063855D01*
X162266666Y-77863855D02*
X161809523Y-77863855D01*
X162038095Y-77863855D02*
X162038095Y-77063855D01*
X162038095Y-77063855D02*
X161961904Y-77178140D01*
X161961904Y-77178140D02*
X161885714Y-77254331D01*
X161885714Y-77254331D02*
X161809523Y-77292426D01*
X162533333Y-77063855D02*
X163028571Y-77063855D01*
X163028571Y-77063855D02*
X162761905Y-77368617D01*
X162761905Y-77368617D02*
X162876190Y-77368617D01*
X162876190Y-77368617D02*
X162952381Y-77406712D01*
X162952381Y-77406712D02*
X162990476Y-77444807D01*
X162990476Y-77444807D02*
X163028571Y-77520998D01*
X163028571Y-77520998D02*
X163028571Y-77711474D01*
X163028571Y-77711474D02*
X162990476Y-77787664D01*
X162990476Y-77787664D02*
X162952381Y-77825760D01*
X162952381Y-77825760D02*
X162876190Y-77863855D01*
X162876190Y-77863855D02*
X162647619Y-77863855D01*
X162647619Y-77863855D02*
X162571428Y-77825760D01*
X162571428Y-77825760D02*
X162533333Y-77787664D01*
X158890476Y-121663855D02*
X158890476Y-122311474D01*
X158890476Y-122311474D02*
X158928571Y-122387664D01*
X158928571Y-122387664D02*
X158966666Y-122425760D01*
X158966666Y-122425760D02*
X159042857Y-122463855D01*
X159042857Y-122463855D02*
X159195238Y-122463855D01*
X159195238Y-122463855D02*
X159271428Y-122425760D01*
X159271428Y-122425760D02*
X159309523Y-122387664D01*
X159309523Y-122387664D02*
X159347619Y-122311474D01*
X159347619Y-122311474D02*
X159347619Y-121663855D01*
X160109523Y-121663855D02*
X159728571Y-121663855D01*
X159728571Y-121663855D02*
X159690475Y-122044807D01*
X159690475Y-122044807D02*
X159728571Y-122006712D01*
X159728571Y-122006712D02*
X159804761Y-121968617D01*
X159804761Y-121968617D02*
X159995237Y-121968617D01*
X159995237Y-121968617D02*
X160071428Y-122006712D01*
X160071428Y-122006712D02*
X160109523Y-122044807D01*
X160109523Y-122044807D02*
X160147618Y-122120998D01*
X160147618Y-122120998D02*
X160147618Y-122311474D01*
X160147618Y-122311474D02*
X160109523Y-122387664D01*
X160109523Y-122387664D02*
X160071428Y-122425760D01*
X160071428Y-122425760D02*
X159995237Y-122463855D01*
X159995237Y-122463855D02*
X159804761Y-122463855D01*
X159804761Y-122463855D02*
X159728571Y-122425760D01*
X159728571Y-122425760D02*
X159690475Y-122387664D01*
X72025476Y-90896855D02*
X72025476Y-91544474D01*
X72025476Y-91544474D02*
X72063571Y-91620664D01*
X72063571Y-91620664D02*
X72101666Y-91658760D01*
X72101666Y-91658760D02*
X72177857Y-91696855D01*
X72177857Y-91696855D02*
X72330238Y-91696855D01*
X72330238Y-91696855D02*
X72406428Y-91658760D01*
X72406428Y-91658760D02*
X72444523Y-91620664D01*
X72444523Y-91620664D02*
X72482619Y-91544474D01*
X72482619Y-91544474D02*
X72482619Y-90896855D01*
X73206428Y-91163521D02*
X73206428Y-91696855D01*
X73015952Y-90858760D02*
X72825475Y-91430188D01*
X72825475Y-91430188D02*
X73320714Y-91430188D01*
X87390476Y-91163855D02*
X87390476Y-91811474D01*
X87390476Y-91811474D02*
X87428571Y-91887664D01*
X87428571Y-91887664D02*
X87466666Y-91925760D01*
X87466666Y-91925760D02*
X87542857Y-91963855D01*
X87542857Y-91963855D02*
X87695238Y-91963855D01*
X87695238Y-91963855D02*
X87771428Y-91925760D01*
X87771428Y-91925760D02*
X87809523Y-91887664D01*
X87809523Y-91887664D02*
X87847619Y-91811474D01*
X87847619Y-91811474D02*
X87847619Y-91163855D01*
X88152380Y-91163855D02*
X88647618Y-91163855D01*
X88647618Y-91163855D02*
X88380952Y-91468617D01*
X88380952Y-91468617D02*
X88495237Y-91468617D01*
X88495237Y-91468617D02*
X88571428Y-91506712D01*
X88571428Y-91506712D02*
X88609523Y-91544807D01*
X88609523Y-91544807D02*
X88647618Y-91620998D01*
X88647618Y-91620998D02*
X88647618Y-91811474D01*
X88647618Y-91811474D02*
X88609523Y-91887664D01*
X88609523Y-91887664D02*
X88571428Y-91925760D01*
X88571428Y-91925760D02*
X88495237Y-91963855D01*
X88495237Y-91963855D02*
X88266666Y-91963855D01*
X88266666Y-91963855D02*
X88190475Y-91925760D01*
X88190475Y-91925760D02*
X88152380Y-91887664D01*
X131390476Y-68663855D02*
X131390476Y-69311474D01*
X131390476Y-69311474D02*
X131428571Y-69387664D01*
X131428571Y-69387664D02*
X131466666Y-69425760D01*
X131466666Y-69425760D02*
X131542857Y-69463855D01*
X131542857Y-69463855D02*
X131695238Y-69463855D01*
X131695238Y-69463855D02*
X131771428Y-69425760D01*
X131771428Y-69425760D02*
X131809523Y-69387664D01*
X131809523Y-69387664D02*
X131847619Y-69311474D01*
X131847619Y-69311474D02*
X131847619Y-68663855D01*
X132190475Y-68740045D02*
X132228571Y-68701950D01*
X132228571Y-68701950D02*
X132304761Y-68663855D01*
X132304761Y-68663855D02*
X132495237Y-68663855D01*
X132495237Y-68663855D02*
X132571428Y-68701950D01*
X132571428Y-68701950D02*
X132609523Y-68740045D01*
X132609523Y-68740045D02*
X132647618Y-68816236D01*
X132647618Y-68816236D02*
X132647618Y-68892426D01*
X132647618Y-68892426D02*
X132609523Y-69006712D01*
X132609523Y-69006712D02*
X132152380Y-69463855D01*
X132152380Y-69463855D02*
X132647618Y-69463855D01*
X88390476Y-73163855D02*
X88390476Y-73811474D01*
X88390476Y-73811474D02*
X88428571Y-73887664D01*
X88428571Y-73887664D02*
X88466666Y-73925760D01*
X88466666Y-73925760D02*
X88542857Y-73963855D01*
X88542857Y-73963855D02*
X88695238Y-73963855D01*
X88695238Y-73963855D02*
X88771428Y-73925760D01*
X88771428Y-73925760D02*
X88809523Y-73887664D01*
X88809523Y-73887664D02*
X88847619Y-73811474D01*
X88847619Y-73811474D02*
X88847619Y-73163855D01*
X89266666Y-73963855D02*
X89419047Y-73963855D01*
X89419047Y-73963855D02*
X89495237Y-73925760D01*
X89495237Y-73925760D02*
X89533333Y-73887664D01*
X89533333Y-73887664D02*
X89609523Y-73773379D01*
X89609523Y-73773379D02*
X89647618Y-73620998D01*
X89647618Y-73620998D02*
X89647618Y-73316236D01*
X89647618Y-73316236D02*
X89609523Y-73240045D01*
X89609523Y-73240045D02*
X89571428Y-73201950D01*
X89571428Y-73201950D02*
X89495237Y-73163855D01*
X89495237Y-73163855D02*
X89342856Y-73163855D01*
X89342856Y-73163855D02*
X89266666Y-73201950D01*
X89266666Y-73201950D02*
X89228571Y-73240045D01*
X89228571Y-73240045D02*
X89190475Y-73316236D01*
X89190475Y-73316236D02*
X89190475Y-73506712D01*
X89190475Y-73506712D02*
X89228571Y-73582902D01*
X89228571Y-73582902D02*
X89266666Y-73620998D01*
X89266666Y-73620998D02*
X89342856Y-73659093D01*
X89342856Y-73659093D02*
X89495237Y-73659093D01*
X89495237Y-73659093D02*
X89571428Y-73620998D01*
X89571428Y-73620998D02*
X89609523Y-73582902D01*
X89609523Y-73582902D02*
X89647618Y-73506712D01*
X175890476Y-49713855D02*
X175890476Y-48913855D01*
X175890476Y-49294807D02*
X176347619Y-49294807D01*
X176347619Y-49713855D02*
X176347619Y-48913855D01*
X176690475Y-48990045D02*
X176728571Y-48951950D01*
X176728571Y-48951950D02*
X176804761Y-48913855D01*
X176804761Y-48913855D02*
X176995237Y-48913855D01*
X176995237Y-48913855D02*
X177071428Y-48951950D01*
X177071428Y-48951950D02*
X177109523Y-48990045D01*
X177109523Y-48990045D02*
X177147618Y-49066236D01*
X177147618Y-49066236D02*
X177147618Y-49142426D01*
X177147618Y-49142426D02*
X177109523Y-49256712D01*
X177109523Y-49256712D02*
X176652380Y-49713855D01*
X176652380Y-49713855D02*
X177147618Y-49713855D01*
X97619048Y-80532902D02*
X97619048Y-80913855D01*
X97352381Y-80113855D02*
X97619048Y-80532902D01*
X97619048Y-80532902D02*
X97885714Y-80113855D01*
X98114285Y-80190045D02*
X98152381Y-80151950D01*
X98152381Y-80151950D02*
X98228571Y-80113855D01*
X98228571Y-80113855D02*
X98419047Y-80113855D01*
X98419047Y-80113855D02*
X98495238Y-80151950D01*
X98495238Y-80151950D02*
X98533333Y-80190045D01*
X98533333Y-80190045D02*
X98571428Y-80266236D01*
X98571428Y-80266236D02*
X98571428Y-80342426D01*
X98571428Y-80342426D02*
X98533333Y-80456712D01*
X98533333Y-80456712D02*
X98076190Y-80913855D01*
X98076190Y-80913855D02*
X98571428Y-80913855D01*
X52890476Y-132713855D02*
X52890476Y-131913855D01*
X52890476Y-132294807D02*
X53347619Y-132294807D01*
X53347619Y-132713855D02*
X53347619Y-131913855D01*
X53652380Y-131913855D02*
X54147618Y-131913855D01*
X54147618Y-131913855D02*
X53880952Y-132218617D01*
X53880952Y-132218617D02*
X53995237Y-132218617D01*
X53995237Y-132218617D02*
X54071428Y-132256712D01*
X54071428Y-132256712D02*
X54109523Y-132294807D01*
X54109523Y-132294807D02*
X54147618Y-132370998D01*
X54147618Y-132370998D02*
X54147618Y-132561474D01*
X54147618Y-132561474D02*
X54109523Y-132637664D01*
X54109523Y-132637664D02*
X54071428Y-132675760D01*
X54071428Y-132675760D02*
X53995237Y-132713855D01*
X53995237Y-132713855D02*
X53766666Y-132713855D01*
X53766666Y-132713855D02*
X53690475Y-132675760D01*
X53690475Y-132675760D02*
X53652380Y-132637664D01*
X76009524Y-113163855D02*
X76009524Y-113811474D01*
X76009524Y-113811474D02*
X76047619Y-113887664D01*
X76047619Y-113887664D02*
X76085714Y-113925760D01*
X76085714Y-113925760D02*
X76161905Y-113963855D01*
X76161905Y-113963855D02*
X76314286Y-113963855D01*
X76314286Y-113963855D02*
X76390476Y-113925760D01*
X76390476Y-113925760D02*
X76428571Y-113887664D01*
X76428571Y-113887664D02*
X76466667Y-113811474D01*
X76466667Y-113811474D02*
X76466667Y-113163855D01*
X77266666Y-113963855D02*
X76809523Y-113963855D01*
X77038095Y-113963855D02*
X77038095Y-113163855D01*
X77038095Y-113163855D02*
X76961904Y-113278140D01*
X76961904Y-113278140D02*
X76885714Y-113354331D01*
X76885714Y-113354331D02*
X76809523Y-113392426D01*
X77761905Y-113163855D02*
X77838095Y-113163855D01*
X77838095Y-113163855D02*
X77914286Y-113201950D01*
X77914286Y-113201950D02*
X77952381Y-113240045D01*
X77952381Y-113240045D02*
X77990476Y-113316236D01*
X77990476Y-113316236D02*
X78028571Y-113468617D01*
X78028571Y-113468617D02*
X78028571Y-113659093D01*
X78028571Y-113659093D02*
X77990476Y-113811474D01*
X77990476Y-113811474D02*
X77952381Y-113887664D01*
X77952381Y-113887664D02*
X77914286Y-113925760D01*
X77914286Y-113925760D02*
X77838095Y-113963855D01*
X77838095Y-113963855D02*
X77761905Y-113963855D01*
X77761905Y-113963855D02*
X77685714Y-113925760D01*
X77685714Y-113925760D02*
X77647619Y-113887664D01*
X77647619Y-113887664D02*
X77609524Y-113811474D01*
X77609524Y-113811474D02*
X77571428Y-113659093D01*
X77571428Y-113659093D02*
X77571428Y-113468617D01*
X77571428Y-113468617D02*
X77609524Y-113316236D01*
X77609524Y-113316236D02*
X77647619Y-113240045D01*
X77647619Y-113240045D02*
X77685714Y-113201950D01*
X77685714Y-113201950D02*
X77761905Y-113163855D01*
X157569048Y-127032902D02*
X157569048Y-127413855D01*
X157302381Y-126613855D02*
X157569048Y-127032902D01*
X157569048Y-127032902D02*
X157835714Y-126613855D01*
X158521428Y-127413855D02*
X158064285Y-127413855D01*
X158292857Y-127413855D02*
X158292857Y-126613855D01*
X158292857Y-126613855D02*
X158216666Y-126728140D01*
X158216666Y-126728140D02*
X158140476Y-126804331D01*
X158140476Y-126804331D02*
X158064285Y-126842426D01*
X66263855Y-116266666D02*
X66835283Y-116266666D01*
X66835283Y-116266666D02*
X66949569Y-116304761D01*
X66949569Y-116304761D02*
X67025760Y-116380952D01*
X67025760Y-116380952D02*
X67063855Y-116495237D01*
X67063855Y-116495237D02*
X67063855Y-116571428D01*
X66263855Y-115961904D02*
X66263855Y-115466666D01*
X66263855Y-115466666D02*
X66568617Y-115733332D01*
X66568617Y-115733332D02*
X66568617Y-115619047D01*
X66568617Y-115619047D02*
X66606712Y-115542856D01*
X66606712Y-115542856D02*
X66644807Y-115504761D01*
X66644807Y-115504761D02*
X66720998Y-115466666D01*
X66720998Y-115466666D02*
X66911474Y-115466666D01*
X66911474Y-115466666D02*
X66987664Y-115504761D01*
X66987664Y-115504761D02*
X67025760Y-115542856D01*
X67025760Y-115542856D02*
X67063855Y-115619047D01*
X67063855Y-115619047D02*
X67063855Y-115847618D01*
X67063855Y-115847618D02*
X67025760Y-115923809D01*
X67025760Y-115923809D02*
X66987664Y-115961904D01*
X52890476Y-49713855D02*
X52890476Y-48913855D01*
X52890476Y-49294807D02*
X53347619Y-49294807D01*
X53347619Y-49713855D02*
X53347619Y-48913855D01*
X54147618Y-49713855D02*
X53690475Y-49713855D01*
X53919047Y-49713855D02*
X53919047Y-48913855D01*
X53919047Y-48913855D02*
X53842856Y-49028140D01*
X53842856Y-49028140D02*
X53766666Y-49104331D01*
X53766666Y-49104331D02*
X53690475Y-49142426D01*
X123183855Y-54996666D02*
X123755283Y-54996666D01*
X123755283Y-54996666D02*
X123869569Y-55034761D01*
X123869569Y-55034761D02*
X123945760Y-55110952D01*
X123945760Y-55110952D02*
X123983855Y-55225237D01*
X123983855Y-55225237D02*
X123983855Y-55301428D01*
X123450521Y-54272856D02*
X123983855Y-54272856D01*
X123145760Y-54463332D02*
X123717188Y-54653809D01*
X123717188Y-54653809D02*
X123717188Y-54158570D01*
X137390476Y-129163855D02*
X137390476Y-129811474D01*
X137390476Y-129811474D02*
X137428571Y-129887664D01*
X137428571Y-129887664D02*
X137466666Y-129925760D01*
X137466666Y-129925760D02*
X137542857Y-129963855D01*
X137542857Y-129963855D02*
X137695238Y-129963855D01*
X137695238Y-129963855D02*
X137771428Y-129925760D01*
X137771428Y-129925760D02*
X137809523Y-129887664D01*
X137809523Y-129887664D02*
X137847619Y-129811474D01*
X137847619Y-129811474D02*
X137847619Y-129163855D01*
X138152380Y-129163855D02*
X138685714Y-129163855D01*
X138685714Y-129163855D02*
X138342856Y-129963855D01*
X122619048Y-106532902D02*
X122619048Y-106913855D01*
X122352381Y-106113855D02*
X122619048Y-106532902D01*
X122619048Y-106532902D02*
X122885714Y-106113855D01*
X123076190Y-106113855D02*
X123571428Y-106113855D01*
X123571428Y-106113855D02*
X123304762Y-106418617D01*
X123304762Y-106418617D02*
X123419047Y-106418617D01*
X123419047Y-106418617D02*
X123495238Y-106456712D01*
X123495238Y-106456712D02*
X123533333Y-106494807D01*
X123533333Y-106494807D02*
X123571428Y-106570998D01*
X123571428Y-106570998D02*
X123571428Y-106761474D01*
X123571428Y-106761474D02*
X123533333Y-106837664D01*
X123533333Y-106837664D02*
X123495238Y-106875760D01*
X123495238Y-106875760D02*
X123419047Y-106913855D01*
X123419047Y-106913855D02*
X123190476Y-106913855D01*
X123190476Y-106913855D02*
X123114285Y-106875760D01*
X123114285Y-106875760D02*
X123076190Y-106837664D01*
X76390476Y-67163855D02*
X76390476Y-67811474D01*
X76390476Y-67811474D02*
X76428571Y-67887664D01*
X76428571Y-67887664D02*
X76466666Y-67925760D01*
X76466666Y-67925760D02*
X76542857Y-67963855D01*
X76542857Y-67963855D02*
X76695238Y-67963855D01*
X76695238Y-67963855D02*
X76771428Y-67925760D01*
X76771428Y-67925760D02*
X76809523Y-67887664D01*
X76809523Y-67887664D02*
X76847619Y-67811474D01*
X76847619Y-67811474D02*
X76847619Y-67163855D01*
X77342856Y-67506712D02*
X77266666Y-67468617D01*
X77266666Y-67468617D02*
X77228571Y-67430521D01*
X77228571Y-67430521D02*
X77190475Y-67354331D01*
X77190475Y-67354331D02*
X77190475Y-67316236D01*
X77190475Y-67316236D02*
X77228571Y-67240045D01*
X77228571Y-67240045D02*
X77266666Y-67201950D01*
X77266666Y-67201950D02*
X77342856Y-67163855D01*
X77342856Y-67163855D02*
X77495237Y-67163855D01*
X77495237Y-67163855D02*
X77571428Y-67201950D01*
X77571428Y-67201950D02*
X77609523Y-67240045D01*
X77609523Y-67240045D02*
X77647618Y-67316236D01*
X77647618Y-67316236D02*
X77647618Y-67354331D01*
X77647618Y-67354331D02*
X77609523Y-67430521D01*
X77609523Y-67430521D02*
X77571428Y-67468617D01*
X77571428Y-67468617D02*
X77495237Y-67506712D01*
X77495237Y-67506712D02*
X77342856Y-67506712D01*
X77342856Y-67506712D02*
X77266666Y-67544807D01*
X77266666Y-67544807D02*
X77228571Y-67582902D01*
X77228571Y-67582902D02*
X77190475Y-67659093D01*
X77190475Y-67659093D02*
X77190475Y-67811474D01*
X77190475Y-67811474D02*
X77228571Y-67887664D01*
X77228571Y-67887664D02*
X77266666Y-67925760D01*
X77266666Y-67925760D02*
X77342856Y-67963855D01*
X77342856Y-67963855D02*
X77495237Y-67963855D01*
X77495237Y-67963855D02*
X77571428Y-67925760D01*
X77571428Y-67925760D02*
X77609523Y-67887664D01*
X77609523Y-67887664D02*
X77647618Y-67811474D01*
X77647618Y-67811474D02*
X77647618Y-67659093D01*
X77647618Y-67659093D02*
X77609523Y-67582902D01*
X77609523Y-67582902D02*
X77571428Y-67544807D01*
X77571428Y-67544807D02*
X77495237Y-67506712D01*
X66263855Y-70266666D02*
X66835283Y-70266666D01*
X66835283Y-70266666D02*
X66949569Y-70304761D01*
X66949569Y-70304761D02*
X67025760Y-70380952D01*
X67025760Y-70380952D02*
X67063855Y-70495237D01*
X67063855Y-70495237D02*
X67063855Y-70571428D01*
X66340045Y-69923809D02*
X66301950Y-69885713D01*
X66301950Y-69885713D02*
X66263855Y-69809523D01*
X66263855Y-69809523D02*
X66263855Y-69619047D01*
X66263855Y-69619047D02*
X66301950Y-69542856D01*
X66301950Y-69542856D02*
X66340045Y-69504761D01*
X66340045Y-69504761D02*
X66416236Y-69466666D01*
X66416236Y-69466666D02*
X66492426Y-69466666D01*
X66492426Y-69466666D02*
X66606712Y-69504761D01*
X66606712Y-69504761D02*
X67063855Y-69961904D01*
X67063855Y-69961904D02*
X67063855Y-69466666D01*
X104009524Y-87733855D02*
X104009524Y-88381474D01*
X104009524Y-88381474D02*
X104047619Y-88457664D01*
X104047619Y-88457664D02*
X104085714Y-88495760D01*
X104085714Y-88495760D02*
X104161905Y-88533855D01*
X104161905Y-88533855D02*
X104314286Y-88533855D01*
X104314286Y-88533855D02*
X104390476Y-88495760D01*
X104390476Y-88495760D02*
X104428571Y-88457664D01*
X104428571Y-88457664D02*
X104466667Y-88381474D01*
X104466667Y-88381474D02*
X104466667Y-87733855D01*
X105266666Y-88533855D02*
X104809523Y-88533855D01*
X105038095Y-88533855D02*
X105038095Y-87733855D01*
X105038095Y-87733855D02*
X104961904Y-87848140D01*
X104961904Y-87848140D02*
X104885714Y-87924331D01*
X104885714Y-87924331D02*
X104809523Y-87962426D01*
X105571428Y-87810045D02*
X105609524Y-87771950D01*
X105609524Y-87771950D02*
X105685714Y-87733855D01*
X105685714Y-87733855D02*
X105876190Y-87733855D01*
X105876190Y-87733855D02*
X105952381Y-87771950D01*
X105952381Y-87771950D02*
X105990476Y-87810045D01*
X105990476Y-87810045D02*
X106028571Y-87886236D01*
X106028571Y-87886236D02*
X106028571Y-87962426D01*
X106028571Y-87962426D02*
X105990476Y-88076712D01*
X105990476Y-88076712D02*
X105533333Y-88533855D01*
X105533333Y-88533855D02*
X106028571Y-88533855D01*
%TO.C,C1*%
X167476320Y-103440400D02*
X167757480Y-103440400D01*
X167476320Y-104460400D02*
X167757480Y-104460400D01*
%TO.C,F1*%
X159885300Y-116645264D02*
X159885300Y-115441136D01*
X161705300Y-116645264D02*
X161705300Y-115441136D01*
%TO.C,R43*%
X135359642Y-104770600D02*
X135834158Y-104770600D01*
X135359642Y-105815600D02*
X135834158Y-105815600D01*
%TO.C,D4*%
X137722200Y-73616200D02*
X137722200Y-75901200D01*
X137722200Y-75901200D02*
X139192200Y-75901200D01*
X139192200Y-75901200D02*
X139192200Y-73616200D01*
%TO.C,C6*%
X134741548Y-67409800D02*
X135264052Y-67409800D01*
X134741548Y-68879800D02*
X135264052Y-68879800D01*
%TO.C,R3*%
X75459842Y-96396300D02*
X75934358Y-96396300D01*
X75459842Y-97441300D02*
X75934358Y-97441300D01*
%TO.C,C86*%
X118507500Y-98250280D02*
X118507500Y-97969120D01*
X119527500Y-98250280D02*
X119527500Y-97969120D01*
%TO.C,D2*%
X69108700Y-67326800D02*
X70108700Y-67326800D01*
X69108700Y-68846800D02*
X69108700Y-67326800D01*
X69158700Y-68846800D02*
X69108700Y-68846800D01*
X71058700Y-68846800D02*
X70278700Y-68846800D01*
X71228700Y-67326800D02*
X72228700Y-67326800D01*
X72228700Y-67326800D02*
X72228700Y-68846800D01*
X72228700Y-68846800D02*
X72178700Y-68846800D01*
X70288700Y-69386800D02*
X70618700Y-69146800D01*
X70618700Y-69626800D01*
X70288700Y-69386800D01*
G36*
X70618700Y-69626800D02*
G01*
X70288700Y-69386800D01*
X70618700Y-69146800D01*
X70618700Y-69626800D01*
G37*
%TO.C,R29*%
X66240500Y-111758358D02*
X66240500Y-111283842D01*
X67285500Y-111758358D02*
X67285500Y-111283842D01*
%TO.C,C39*%
X75141720Y-76780600D02*
X75422880Y-76780600D01*
X75141720Y-77800600D02*
X75422880Y-77800600D01*
%TO.C,R32*%
X82694200Y-107872858D02*
X82694200Y-107398342D01*
X83739200Y-107872858D02*
X83739200Y-107398342D01*
%TO.C,C36*%
X82852820Y-69208900D02*
X83133980Y-69208900D01*
X82852820Y-70228900D02*
X83133980Y-70228900D01*
%TO.C,C21*%
X158708700Y-120556580D02*
X158708700Y-120275420D01*
X159728700Y-120556580D02*
X159728700Y-120275420D01*
%TO.C,R41*%
X99025442Y-77052300D02*
X99499958Y-77052300D01*
X99025442Y-78097300D02*
X99499958Y-78097300D01*
%TO.C,R9*%
X127043842Y-75840800D02*
X127518358Y-75840800D01*
X127043842Y-76885800D02*
X127518358Y-76885800D01*
%TO.C,C55*%
X80744620Y-110187800D02*
X81025780Y-110187800D01*
X80744620Y-111207800D02*
X81025780Y-111207800D01*
%TO.C,C70*%
X90726820Y-96651500D02*
X91007980Y-96651500D01*
X90726820Y-97671500D02*
X91007980Y-97671500D01*
%TO.C,J1*%
X162680000Y-120500000D02*
X162680000Y-121500000D01*
X162680000Y-121500000D02*
X163180000Y-121000000D01*
X163180000Y-121000000D02*
X162680000Y-120500000D01*
X163400000Y-116090000D02*
X163400000Y-128410000D01*
X163400000Y-128410000D02*
X167660000Y-128410000D01*
X167660000Y-116090000D02*
X163400000Y-116090000D01*
X171760000Y-116090000D02*
X180120000Y-116090000D01*
X180120000Y-116090000D02*
X180120000Y-128410000D01*
X180120000Y-128410000D02*
X171760000Y-128410000D01*
%TO.C,C56*%
X76975020Y-110315000D02*
X77256180Y-110315000D01*
X76975020Y-111335000D02*
X77256180Y-111335000D01*
%TO.C,R26*%
X93423000Y-87973358D02*
X93423000Y-87498842D01*
X94468000Y-87973358D02*
X94468000Y-87498842D01*
%TO.C,U11*%
X86940000Y-108440000D02*
X91060000Y-108440000D01*
X86940000Y-108535000D02*
X86940000Y-108440000D01*
X86940000Y-113560000D02*
X86940000Y-113465000D01*
X91060000Y-108440000D02*
X91060000Y-108535000D01*
X91060000Y-113465000D02*
X91060000Y-113560000D01*
X91060000Y-113560000D02*
X86940000Y-113560000D01*
X86400000Y-108530000D02*
X86160000Y-108200000D01*
X86640000Y-108200000D01*
X86400000Y-108530000D01*
G36*
X86400000Y-108530000D02*
G01*
X86160000Y-108200000D01*
X86640000Y-108200000D01*
X86400000Y-108530000D01*
G37*
%TO.C,C75*%
X93672020Y-84314700D02*
X93953180Y-84314700D01*
X93672020Y-85334700D02*
X93953180Y-85334700D01*
%TO.C,C57*%
X97892100Y-99252980D02*
X97892100Y-98971820D01*
X98912100Y-99252980D02*
X98912100Y-98971820D01*
%TO.C,C103*%
X131022280Y-75850100D02*
X130741120Y-75850100D01*
X131022280Y-76870100D02*
X130741120Y-76870100D01*
%TO.C,R19*%
X66540600Y-81197864D02*
X66540600Y-79743736D01*
X68360600Y-81197864D02*
X68360600Y-79743736D01*
%TO.C,C69*%
X89975020Y-90465800D02*
X90256180Y-90465800D01*
X89975020Y-91485800D02*
X90256180Y-91485800D01*
%TO.C,R22*%
X71080342Y-64244000D02*
X71554858Y-64244000D01*
X71080342Y-65289000D02*
X71554858Y-65289000D01*
%TO.C,R2*%
X176663942Y-105551600D02*
X177138458Y-105551600D01*
X176663942Y-106596600D02*
X177138458Y-106596600D01*
%TO.C,C53*%
X93665000Y-110859420D02*
X93665000Y-111140580D01*
X94685000Y-110859420D02*
X94685000Y-111140580D01*
%TO.C,C32*%
X66290000Y-70711252D02*
X66290000Y-69288748D01*
X68110000Y-70711252D02*
X68110000Y-69288748D01*
%TO.C,C2*%
X173742520Y-103440400D02*
X174023680Y-103440400D01*
X173742520Y-104460400D02*
X174023680Y-104460400D01*
%TO.C,R36*%
X103014400Y-101456058D02*
X103014400Y-100981542D01*
X104059400Y-101456058D02*
X104059400Y-100981542D01*
%TO.C,C34*%
X69441900Y-72376480D02*
X69441900Y-72095320D01*
X70461900Y-72376480D02*
X70461900Y-72095320D01*
%TO.C,R5*%
X72112258Y-90311000D02*
X71637742Y-90311000D01*
X72112258Y-91356000D02*
X71637742Y-91356000D01*
%TO.C,R46*%
X140388800Y-105980358D02*
X140388800Y-105505842D01*
X141433800Y-105980358D02*
X141433800Y-105505842D01*
%TO.C,C13*%
X75556520Y-90571200D02*
X75837680Y-90571200D01*
X75556520Y-91591200D02*
X75837680Y-91591200D01*
%TO.C,C33*%
X66541900Y-75922152D02*
X66541900Y-74499648D01*
X68361900Y-75922152D02*
X68361900Y-74499648D01*
%TO.C,R1*%
X177420842Y-103427900D02*
X177895358Y-103427900D01*
X177420842Y-104472900D02*
X177895358Y-104472900D01*
%TO.C,R38*%
X105361800Y-83084458D02*
X105361800Y-82609942D01*
X106406800Y-83084458D02*
X106406800Y-82609942D01*
%TO.C,C43*%
X79372620Y-80198600D02*
X79653780Y-80198600D01*
X79372620Y-81218600D02*
X79653780Y-81218600D01*
%TO.C,C47*%
X69441900Y-118376480D02*
X69441900Y-118095320D01*
X70461900Y-118376480D02*
X70461900Y-118095320D01*
%TO.C,R17*%
X148386900Y-134123958D02*
X148386900Y-133649442D01*
X149431900Y-134123958D02*
X149431900Y-133649442D01*
%TO.C,C29*%
X158682620Y-132061000D02*
X158963780Y-132061000D01*
X158682620Y-133081000D02*
X158963780Y-133081000D01*
%TO.C,R16*%
X130104500Y-137841258D02*
X130104500Y-137366742D01*
X131149500Y-137841258D02*
X131149500Y-137366742D01*
%TO.C,C71*%
X90349720Y-88411200D02*
X90630880Y-88411200D01*
X90349720Y-89431200D02*
X90630880Y-89431200D01*
%TO.C,U15*%
X139240000Y-109240000D02*
X144760000Y-109240000D01*
X139240000Y-109510000D02*
X139240000Y-109240000D01*
X139240000Y-114760000D02*
X139240000Y-114490000D01*
X144760000Y-109240000D02*
X144760000Y-109510000D01*
X144760000Y-114490000D02*
X144760000Y-114760000D01*
X144760000Y-114760000D02*
X139240000Y-114760000D01*
X138410000Y-109500000D02*
X138070000Y-109030000D01*
X138750000Y-109030000D01*
X138410000Y-109500000D01*
G36*
X138410000Y-109500000D02*
G01*
X138070000Y-109030000D01*
X138750000Y-109030000D01*
X138410000Y-109500000D01*
G37*
%TO.C,U6*%
X143890000Y-118890000D02*
X144840000Y-118890000D01*
X143890000Y-119840000D02*
X143890000Y-118890000D01*
X143890000Y-129110000D02*
X143890000Y-128160000D01*
X144840000Y-129110000D02*
X143890000Y-129110000D01*
X153160000Y-118890000D02*
X154110000Y-118890000D01*
X154110000Y-118890000D02*
X154110000Y-119840000D01*
X154110000Y-128160000D02*
X154110000Y-129110000D01*
X154110000Y-129110000D02*
X153160000Y-129110000D01*
X154750000Y-128160000D02*
X155090000Y-128630000D01*
X154410000Y-128630000D01*
X154750000Y-128160000D01*
G36*
X155090000Y-128630000D02*
G01*
X154410000Y-128630000D01*
X154750000Y-128160000D01*
X155090000Y-128630000D01*
G37*
%TO.C,C101*%
X132655780Y-107127500D02*
X132374620Y-107127500D01*
X132655780Y-108147500D02*
X132374620Y-108147500D01*
%TO.C,R15*%
X150926000Y-136898858D02*
X150926000Y-136424342D01*
X151971000Y-136898858D02*
X151971000Y-136424342D01*
%TO.C,C65*%
X93171100Y-100585752D02*
X93171100Y-100063248D01*
X94641100Y-100585752D02*
X94641100Y-100063248D01*
%TO.C,R48*%
X144619300Y-105667858D02*
X144619300Y-105193342D01*
X145664300Y-105667858D02*
X145664300Y-105193342D01*
%TO.C,R6*%
X68211742Y-92555500D02*
X68686258Y-92555500D01*
X68211742Y-93600500D02*
X68686258Y-93600500D01*
%TO.C,C9*%
X89446748Y-85855800D02*
X89969252Y-85855800D01*
X89446748Y-87325800D02*
X89969252Y-87325800D01*
%TO.C,C10*%
X74640000Y-93859420D02*
X74640000Y-94140580D01*
X75660000Y-93859420D02*
X75660000Y-94140580D01*
%TO.C,C41*%
X83382000Y-77109420D02*
X83382000Y-77390580D01*
X84402000Y-77109420D02*
X84402000Y-77390580D01*
%TO.C,C59*%
X100657200Y-101699780D02*
X100657200Y-101418620D01*
X101677200Y-101699780D02*
X101677200Y-101418620D01*
%TO.C,C5*%
X127734220Y-73732000D02*
X128015380Y-73732000D01*
X127734220Y-74752000D02*
X128015380Y-74752000D01*
%TO.C,FB1*%
X159917400Y-111821922D02*
X159917400Y-111022678D01*
X161037400Y-111821922D02*
X161037400Y-111022678D01*
%TO.C,R51*%
X137998000Y-78226858D02*
X137998000Y-77752342D01*
X139043000Y-78226858D02*
X139043000Y-77752342D01*
%TO.C,C64*%
X95781500Y-99716680D02*
X95781500Y-99435520D01*
X96801500Y-99716680D02*
X96801500Y-99435520D01*
%TO.C,C50*%
X80390220Y-112465300D02*
X80671380Y-112465300D01*
X80390220Y-113485300D02*
X80671380Y-113485300D01*
%TO.C,C48*%
X69436000Y-120760100D02*
X69436000Y-121260100D01*
X69436000Y-120760100D02*
X69936000Y-120760100D01*
X69936000Y-125660100D02*
X69436000Y-125160100D01*
X72536000Y-125660100D02*
X73036000Y-125160100D01*
X73036000Y-120760100D02*
X72536000Y-120760100D01*
X73036000Y-120760100D02*
X73036000Y-121260100D01*
%TO.C,U14*%
X121890000Y-81890000D02*
X122840000Y-81890000D01*
X121890000Y-82840000D02*
X121890000Y-81890000D01*
X121890000Y-102110000D02*
X121890000Y-101160000D01*
X122840000Y-102110000D02*
X121890000Y-102110000D01*
X141160000Y-81890000D02*
X142110000Y-81890000D01*
X142110000Y-81890000D02*
X142110000Y-82840000D01*
X142110000Y-101160000D02*
X142110000Y-102110000D01*
X142110000Y-102110000D02*
X141160000Y-102110000D01*
X121250000Y-82840000D02*
X120910000Y-82370000D01*
X121590000Y-82370000D01*
X121250000Y-82840000D01*
G36*
X121250000Y-82840000D02*
G01*
X120910000Y-82370000D01*
X121590000Y-82370000D01*
X121250000Y-82840000D01*
G37*
%TO.C,U1*%
X170090000Y-105440000D02*
X171910000Y-105440000D01*
X170090000Y-105490000D02*
X170090000Y-105440000D01*
X170090000Y-108560000D02*
X170090000Y-108510000D01*
X171910000Y-105440000D02*
X171910000Y-105490000D01*
X171910000Y-106610000D02*
X171910000Y-107390000D01*
X171910000Y-108510000D02*
X171910000Y-108560000D01*
X171910000Y-108560000D02*
X170090000Y-108560000D01*
X169550000Y-105490000D02*
X169310000Y-105160000D01*
X169790000Y-105160000D01*
X169550000Y-105490000D01*
G36*
X169550000Y-105490000D02*
G01*
X169310000Y-105160000D01*
X169790000Y-105160000D01*
X169550000Y-105490000D01*
G37*
%TO.C,U13*%
X156700000Y-78700000D02*
X167300000Y-78700000D01*
X156700000Y-79100000D02*
X156700000Y-78700000D01*
X156700000Y-100900000D02*
X156700000Y-101300000D01*
X156700000Y-101300000D02*
X167300000Y-101300000D01*
X167300000Y-78700000D02*
X167300000Y-79100000D01*
X167300000Y-100900000D02*
X167300000Y-101300000D01*
X156300000Y-79100000D02*
X156060000Y-78770000D01*
X156540000Y-78770000D01*
X156300000Y-79100000D01*
G36*
X156300000Y-79100000D02*
G01*
X156060000Y-78770000D01*
X156540000Y-78770000D01*
X156300000Y-79100000D01*
G37*
%TO.C,R11*%
X159292742Y-134111600D02*
X159767258Y-134111600D01*
X159292742Y-135156600D02*
X159767258Y-135156600D01*
%TO.C,R39*%
X105278500Y-102043658D02*
X105278500Y-101569142D01*
X106323500Y-102043658D02*
X106323500Y-101569142D01*
%TO.C,U5*%
X158590000Y-122940000D02*
X160410000Y-122940000D01*
X158590000Y-122990000D02*
X158590000Y-122940000D01*
X158590000Y-126060000D02*
X158590000Y-126010000D01*
X160410000Y-122940000D02*
X160410000Y-122990000D01*
X160410000Y-126010000D02*
X160410000Y-126060000D01*
X160410000Y-126060000D02*
X158590000Y-126060000D01*
X158050000Y-122990000D02*
X157810000Y-122660000D01*
X158290000Y-122660000D01*
X158050000Y-122990000D01*
G36*
X158050000Y-122990000D02*
G01*
X157810000Y-122660000D01*
X158290000Y-122660000D01*
X158050000Y-122990000D01*
G37*
%TO.C,U4*%
X71000000Y-92360000D02*
X73000000Y-92360000D01*
X71000000Y-95640000D02*
X73000000Y-95640000D01*
X70630000Y-92430000D02*
X70350000Y-92430000D01*
X70630000Y-92150000D01*
X70630000Y-92430000D01*
G36*
X70630000Y-92430000D02*
G01*
X70350000Y-92430000D01*
X70630000Y-92150000D01*
X70630000Y-92430000D01*
G37*
%TO.C,U3*%
X87090000Y-92440000D02*
X88910000Y-92440000D01*
X87090000Y-92490000D02*
X87090000Y-92440000D01*
X87090000Y-95560000D02*
X87090000Y-95510000D01*
X88910000Y-92440000D02*
X88910000Y-92490000D01*
X88910000Y-93610000D02*
X88910000Y-94390000D01*
X88910000Y-95510000D02*
X88910000Y-95560000D01*
X88910000Y-95560000D02*
X87090000Y-95560000D01*
X86550000Y-92490000D02*
X86310000Y-92160000D01*
X86790000Y-92160000D01*
X86550000Y-92490000D01*
G36*
X86550000Y-92490000D02*
G01*
X86310000Y-92160000D01*
X86790000Y-92160000D01*
X86550000Y-92490000D01*
G37*
%TO.C,R52*%
X134358500Y-76061958D02*
X134358500Y-75587442D01*
X135403500Y-76061958D02*
X135403500Y-75587442D01*
%TO.C,U2*%
X131090000Y-69940000D02*
X132910000Y-69940000D01*
X131090000Y-69990000D02*
X131090000Y-69940000D01*
X131090000Y-73060000D02*
X131090000Y-73010000D01*
X132910000Y-69940000D02*
X132910000Y-69990000D01*
X132910000Y-71110000D02*
X132910000Y-71890000D01*
X132910000Y-73010000D02*
X132910000Y-73060000D01*
X132910000Y-73060000D02*
X131090000Y-73060000D01*
X130550000Y-69990000D02*
X130310000Y-69660000D01*
X130790000Y-69660000D01*
X130550000Y-69990000D01*
G36*
X130550000Y-69990000D02*
G01*
X130310000Y-69660000D01*
X130790000Y-69660000D01*
X130550000Y-69990000D01*
G37*
%TO.C,R37*%
X105425100Y-86657858D02*
X105425100Y-86183342D01*
X106470100Y-86657858D02*
X106470100Y-86183342D01*
%TO.C,C42*%
X83014420Y-79580800D02*
X83295580Y-79580800D01*
X83014420Y-80600800D02*
X83295580Y-80600800D01*
%TO.C,R14*%
X153091500Y-136680658D02*
X153091500Y-136206142D01*
X154136500Y-136680658D02*
X154136500Y-136206142D01*
%TO.C,D3*%
X69108700Y-113326800D02*
X70108700Y-113326800D01*
X69108700Y-114846800D02*
X69108700Y-113326800D01*
X69158700Y-114846800D02*
X69108700Y-114846800D01*
X71058700Y-114846800D02*
X70278700Y-114846800D01*
X71228700Y-113326800D02*
X72228700Y-113326800D01*
X72228700Y-113326800D02*
X72228700Y-114846800D01*
X72228700Y-114846800D02*
X72178700Y-114846800D01*
X70288700Y-115386800D02*
X70618700Y-115146800D01*
X70618700Y-115626800D01*
X70288700Y-115386800D01*
G36*
X70618700Y-115626800D02*
G01*
X70288700Y-115386800D01*
X70618700Y-115146800D01*
X70618700Y-115626800D01*
G37*
%TO.C,C76*%
X94634720Y-79320100D02*
X94915880Y-79320100D01*
X94634720Y-80340100D02*
X94915880Y-80340100D01*
%TO.C,C30*%
X162386220Y-131493200D02*
X162667380Y-131493200D01*
X162386220Y-132513200D02*
X162667380Y-132513200D01*
%TO.C,C37*%
X80390220Y-66465300D02*
X80671380Y-66465300D01*
X80390220Y-67485300D02*
X80671380Y-67485300D01*
%TO.C,R31*%
X70832442Y-110284900D02*
X71306958Y-110284900D01*
X70832442Y-111329900D02*
X71306958Y-111329900D01*
%TO.C,C60*%
X97838400Y-92850320D02*
X97838400Y-93131480D01*
X98858400Y-92850320D02*
X98858400Y-93131480D01*
%TO.C,U9*%
X86940000Y-74440000D02*
X91060000Y-74440000D01*
X86940000Y-74535000D02*
X86940000Y-74440000D01*
X86940000Y-79560000D02*
X86940000Y-79465000D01*
X91060000Y-74440000D02*
X91060000Y-74535000D01*
X91060000Y-79465000D02*
X91060000Y-79560000D01*
X91060000Y-79560000D02*
X86940000Y-79560000D01*
X86400000Y-74530000D02*
X86160000Y-74200000D01*
X86640000Y-74200000D01*
X86400000Y-74530000D01*
G36*
X86400000Y-74530000D02*
G01*
X86160000Y-74200000D01*
X86640000Y-74200000D01*
X86400000Y-74530000D01*
G37*
%TO.C,R47*%
X142509700Y-105982558D02*
X142509700Y-105508042D01*
X143554700Y-105982558D02*
X143554700Y-105508042D01*
%TO.C,R44*%
X135462742Y-78182000D02*
X135937258Y-78182000D01*
X135462742Y-79227000D02*
X135937258Y-79227000D01*
%TO.C,C45*%
X66290000Y-116711252D02*
X66290000Y-115288748D01*
X68110000Y-116711252D02*
X68110000Y-115288748D01*
%TO.C,C89*%
X115872100Y-99241652D02*
X115872100Y-98719148D01*
X117342100Y-99241652D02*
X117342100Y-98719148D01*
%TO.C,Y2*%
X96040000Y-81365000D02*
X96040000Y-84635000D01*
X96040000Y-84635000D02*
X99960000Y-84635000D01*
%TO.C,C51*%
X75229820Y-120726900D02*
X75510980Y-120726900D01*
X75229820Y-121746900D02*
X75510980Y-121746900D01*
%TO.C,C102*%
X132011252Y-77969500D02*
X131488748Y-77969500D01*
X132011252Y-79439500D02*
X131488748Y-79439500D01*
%TO.C,R7*%
X71887742Y-96711000D02*
X72362258Y-96711000D01*
X71887742Y-97756000D02*
X72362258Y-97756000D01*
%TO.C,C62*%
X95614000Y-87837480D02*
X95614000Y-87556320D01*
X96634000Y-87837480D02*
X96634000Y-87556320D01*
%TO.C,R4*%
X68409700Y-90200658D02*
X68409700Y-89726142D01*
X69454700Y-90200658D02*
X69454700Y-89726142D01*
%TO.C,C35*%
X69436000Y-74760100D02*
X69436000Y-75260100D01*
X69436000Y-74760100D02*
X69936000Y-74760100D01*
X69936000Y-79660100D02*
X69436000Y-79160100D01*
X72536000Y-79660100D02*
X73036000Y-79160100D01*
X73036000Y-74760100D02*
X72536000Y-74760100D01*
X73036000Y-74760100D02*
X73036000Y-75260100D01*
%TO.C,C12*%
X163834520Y-104058200D02*
X164115680Y-104058200D01*
X163834520Y-105078200D02*
X164115680Y-105078200D01*
%TO.C,C58*%
X101157200Y-86581380D02*
X101157200Y-86300220D01*
X102177200Y-86581380D02*
X102177200Y-86300220D01*
%TO.C,R50*%
X148660442Y-110389300D02*
X149134958Y-110389300D01*
X148660442Y-111434300D02*
X149134958Y-111434300D01*
%TO.C,C15*%
X173963300Y-111710352D02*
X173963300Y-110287848D01*
X175783300Y-111710352D02*
X175783300Y-110287848D01*
%TO.C,C74*%
X110374100Y-86813280D02*
X110374100Y-86532120D01*
X111394100Y-86813280D02*
X111394100Y-86532120D01*
%TO.C,C67*%
X93396100Y-96693280D02*
X93396100Y-96412120D01*
X94416100Y-96693280D02*
X94416100Y-96412120D01*
%TO.C,R35*%
X99115700Y-105428958D02*
X99115700Y-104954442D01*
X100160700Y-105428958D02*
X100160700Y-104954442D01*
%TO.C,C38*%
X75229820Y-74726900D02*
X75510980Y-74726900D01*
X75229820Y-75746900D02*
X75510980Y-75746900D01*
%TO.C,C7*%
X127654720Y-70062000D02*
X127935880Y-70062000D01*
X127654720Y-71082000D02*
X127935880Y-71082000D01*
%TO.C,C63*%
X95714700Y-96149680D02*
X95714700Y-95868520D01*
X96734700Y-96149680D02*
X96734700Y-95868520D01*
%TO.C,C3*%
X165765748Y-106136100D02*
X166288252Y-106136100D01*
X165765748Y-107606100D02*
X166288252Y-107606100D01*
%TO.C,C44*%
X97892100Y-89247020D02*
X97892100Y-89528180D01*
X98912100Y-89247020D02*
X98912100Y-89528180D01*
%TO.C,R24*%
X95902500Y-76762742D02*
X95902500Y-77237258D01*
X96947500Y-76762742D02*
X96947500Y-77237258D01*
%TO.C,C72*%
X86035448Y-89916300D02*
X86557952Y-89916300D01*
X86035448Y-91386300D02*
X86557952Y-91386300D01*
%TO.C,D5*%
X134705200Y-71307800D02*
X134705200Y-73592800D01*
X134705200Y-73592800D02*
X136175200Y-73592800D01*
X136175200Y-73592800D02*
X136175200Y-71307800D01*
%TO.C,C54*%
X83382000Y-111109420D02*
X83382000Y-111390580D01*
X84402000Y-111109420D02*
X84402000Y-111390580D01*
%TO.C,C22*%
X156614900Y-116646680D02*
X156614900Y-116365520D01*
X157634900Y-116646680D02*
X157634900Y-116365520D01*
%TO.C,C20*%
X156536400Y-120464880D02*
X156536400Y-120183720D01*
X157556400Y-120464880D02*
X157556400Y-120183720D01*
%TO.C,U10*%
X74940000Y-114440000D02*
X79060000Y-114440000D01*
X74940000Y-114535000D02*
X74940000Y-114440000D01*
X74940000Y-119560000D02*
X74940000Y-119465000D01*
X79060000Y-114440000D02*
X79060000Y-114535000D01*
X79060000Y-119465000D02*
X79060000Y-119560000D01*
X79060000Y-119560000D02*
X74940000Y-119560000D01*
X74400000Y-114530000D02*
X74160000Y-114200000D01*
X74640000Y-114200000D01*
X74400000Y-114530000D01*
G36*
X74400000Y-114530000D02*
G01*
X74160000Y-114200000D01*
X74640000Y-114200000D01*
X74400000Y-114530000D01*
G37*
%TO.C,R8*%
X75615642Y-98470100D02*
X76090158Y-98470100D01*
X75615642Y-99515100D02*
X76090158Y-99515100D01*
%TO.C,R20*%
X66240500Y-65758358D02*
X66240500Y-65283842D01*
X67285500Y-65758358D02*
X67285500Y-65283842D01*
%TO.C,R28*%
X66540600Y-127197864D02*
X66540600Y-125743736D01*
X68360600Y-127197864D02*
X68360600Y-125743736D01*
%TO.C,Y1*%
X155890000Y-127790000D02*
X155890000Y-131210000D01*
X155890000Y-131210000D02*
X160010000Y-131210000D01*
%TO.C,R40*%
X100482142Y-79396600D02*
X100956658Y-79396600D01*
X100482142Y-80441600D02*
X100956658Y-80441600D01*
%TO.C,R10*%
X176840500Y-112122258D02*
X176840500Y-111647742D01*
X177885500Y-112122258D02*
X177885500Y-111647742D01*
%TO.C,C100*%
X131908152Y-104558100D02*
X131385648Y-104558100D01*
X131908152Y-106028100D02*
X131385648Y-106028100D01*
%TO.C,C49*%
X82852820Y-115208900D02*
X83133980Y-115208900D01*
X82852820Y-116228900D02*
X83133980Y-116228900D01*
%TO.C,C73*%
X110624100Y-101467880D02*
X110624100Y-101186720D01*
X111644100Y-101467880D02*
X111644100Y-101186720D01*
%TO.C,C40*%
X93665000Y-76859420D02*
X93665000Y-77140580D01*
X94685000Y-76859420D02*
X94685000Y-77140580D01*
%TO.C,J3*%
X50000000Y-108500000D02*
X65000000Y-108500000D01*
X50000000Y-123500000D02*
X50000000Y-108500000D01*
X50200000Y-116000000D02*
X51200000Y-115000000D01*
X50200000Y-116000000D02*
X51200000Y-117000000D01*
X65000000Y-108500000D02*
X65000000Y-123500000D01*
X65000000Y-123500000D02*
X50000000Y-123500000D01*
%TO.C,R21*%
X74323942Y-66329700D02*
X74798458Y-66329700D01*
X74323942Y-67374700D02*
X74798458Y-67374700D01*
%TO.C,R18*%
X146276800Y-133507458D02*
X146276800Y-133032942D01*
X147321800Y-133507458D02*
X147321800Y-133032942D01*
%TO.C,R13*%
X132340400Y-135768158D02*
X132340400Y-135293642D01*
X133385400Y-135768158D02*
X133385400Y-135293642D01*
%TO.C,D1*%
X126337500Y-77721400D02*
X126337500Y-79191400D01*
X126337500Y-79191400D02*
X128622500Y-79191400D01*
X128622500Y-77721400D02*
X126337500Y-77721400D01*
%TO.C,FB2*%
X155271500Y-133516579D02*
X155271500Y-133191021D01*
X156291500Y-133516579D02*
X156291500Y-133191021D01*
%TO.C,C18*%
X150468100Y-133021480D02*
X150468100Y-132740320D01*
X151488100Y-133021480D02*
X151488100Y-132740320D01*
%TO.C,C4*%
X128475448Y-67409800D02*
X128997952Y-67409800D01*
X128475448Y-68879800D02*
X128997952Y-68879800D01*
%TO.C,C14*%
X68922900Y-100370780D02*
X68922900Y-100089620D01*
X69942900Y-100370780D02*
X69942900Y-100089620D01*
%TO.C,C88*%
X118433700Y-102064980D02*
X118433700Y-101783820D01*
X119453700Y-102064980D02*
X119453700Y-101783820D01*
%TO.C,J4*%
X124620000Y-52080000D02*
X137540000Y-52080000D01*
X124620000Y-54730000D02*
X124620000Y-52080000D01*
X124620000Y-57380000D02*
X124620000Y-56000000D01*
X126000000Y-57380000D02*
X124620000Y-57380000D01*
X127270000Y-54730000D02*
X124620000Y-54730000D01*
X127270000Y-57380000D02*
X127270000Y-54730000D01*
X127270000Y-57380000D02*
X137540000Y-57380000D01*
X137540000Y-57380000D02*
X137540000Y-52080000D01*
%TO.C,R12*%
X154080742Y-115294100D02*
X154555258Y-115294100D01*
X154080742Y-116339100D02*
X154555258Y-116339100D01*
%TO.C,C17*%
X152679800Y-132923480D02*
X152679800Y-132642320D01*
X153699800Y-132923480D02*
X153699800Y-132642320D01*
%TO.C,C52*%
X75141720Y-122780600D02*
X75422880Y-122780600D01*
X75141720Y-123800600D02*
X75422880Y-123800600D01*
%TO.C,R34*%
X80439800Y-107597042D02*
X80439800Y-108071558D01*
X81484800Y-107597042D02*
X81484800Y-108071558D01*
%TO.C,R49*%
X135040542Y-113047800D02*
X135515058Y-113047800D01*
X135040542Y-114092800D02*
X135515058Y-114092800D01*
%TO.C,R25*%
X81119500Y-77012742D02*
X81119500Y-77487258D01*
X82164500Y-77012742D02*
X82164500Y-77487258D01*
%TO.C,L1*%
X163851800Y-108703700D02*
X168071800Y-108703700D01*
X168071800Y-112923700D02*
X163851800Y-112923700D01*
%TO.C,U7*%
X135940000Y-130440000D02*
X140060000Y-130440000D01*
X135940000Y-130535000D02*
X135940000Y-130440000D01*
X135940000Y-135560000D02*
X135940000Y-135465000D01*
X140060000Y-130440000D02*
X140060000Y-130535000D01*
X140060000Y-135465000D02*
X140060000Y-135560000D01*
X140060000Y-135560000D02*
X135940000Y-135560000D01*
X135400000Y-130530000D02*
X135160000Y-130200000D01*
X135640000Y-130200000D01*
X135400000Y-130530000D01*
G36*
X135400000Y-130530000D02*
G01*
X135160000Y-130200000D01*
X135640000Y-130200000D01*
X135400000Y-130530000D01*
G37*
%TO.C,Y3*%
X121040000Y-107365000D02*
X121040000Y-110635000D01*
X121040000Y-110635000D02*
X124960000Y-110635000D01*
%TO.C,R30*%
X74549042Y-112441400D02*
X75023558Y-112441400D01*
X74549042Y-113486400D02*
X75023558Y-113486400D01*
%TO.C,C87*%
X118468900Y-94635180D02*
X118468900Y-94354020D01*
X119488900Y-94635180D02*
X119488900Y-94354020D01*
%TO.C,C68*%
X92750720Y-92659400D02*
X93031880Y-92659400D01*
X92750720Y-93679400D02*
X93031880Y-93679400D01*
%TO.C,R23*%
X82694200Y-73872858D02*
X82694200Y-73398342D01*
X83739200Y-73872858D02*
X83739200Y-73398342D01*
%TO.C,C66*%
X96567900Y-103268980D02*
X96567900Y-102987820D01*
X97587900Y-103268980D02*
X97587900Y-102987820D01*
%TO.C,R42*%
X125482142Y-105396600D02*
X125956658Y-105396600D01*
X125482142Y-106441600D02*
X125956658Y-106441600D01*
%TO.C,U8*%
X74940000Y-68440000D02*
X79060000Y-68440000D01*
X74940000Y-68535000D02*
X74940000Y-68440000D01*
X74940000Y-73560000D02*
X74940000Y-73465000D01*
X79060000Y-68440000D02*
X79060000Y-68535000D01*
X79060000Y-73465000D02*
X79060000Y-73560000D01*
X79060000Y-73560000D02*
X74940000Y-73560000D01*
X74400000Y-68530000D02*
X74160000Y-68200000D01*
X74640000Y-68200000D01*
X74400000Y-68530000D01*
G36*
X74400000Y-68530000D02*
G01*
X74160000Y-68200000D01*
X74640000Y-68200000D01*
X74400000Y-68530000D01*
G37*
%TO.C,C46*%
X66541900Y-121922152D02*
X66541900Y-120499648D01*
X68361900Y-121922152D02*
X68361900Y-120499648D01*
%TO.C,J2*%
X50000000Y-62500000D02*
X65000000Y-62500000D01*
X50000000Y-77500000D02*
X50000000Y-62500000D01*
X50200000Y-70000000D02*
X51200000Y-69000000D01*
X50200000Y-70000000D02*
X51200000Y-71000000D01*
X65000000Y-62500000D02*
X65000000Y-77500000D01*
X65000000Y-77500000D02*
X50000000Y-77500000D01*
%TO.C,C8*%
X161981920Y-106214800D02*
X162263080Y-106214800D01*
X161981920Y-107234800D02*
X162263080Y-107234800D01*
%TO.C,C61*%
X95228000Y-91278048D02*
X95228000Y-91800552D01*
X96698000Y-91278048D02*
X96698000Y-91800552D01*
%TO.C,U12*%
X100390000Y-89390000D02*
X100865000Y-89390000D01*
X100390000Y-89865000D02*
X100390000Y-89390000D01*
X100390000Y-98610000D02*
X100390000Y-98135000D01*
X100865000Y-98610000D02*
X100390000Y-98610000D01*
X109135000Y-89390000D02*
X109610000Y-89390000D01*
X109610000Y-89390000D02*
X109610000Y-89865000D01*
X109610000Y-98135000D02*
X109610000Y-98610000D01*
X109610000Y-98610000D02*
X109135000Y-98610000D01*
X99860000Y-90250000D02*
X99530000Y-90490000D01*
X99530000Y-90010000D01*
X99860000Y-90250000D01*
G36*
X99860000Y-90250000D02*
G01*
X99530000Y-90490000D01*
X99530000Y-90010000D01*
X99860000Y-90250000D01*
G37*
%TO.C,C11*%
X67916648Y-96400300D02*
X68439152Y-96400300D01*
X67916648Y-97870300D02*
X68439152Y-97870300D01*
%TO.C,R45*%
X138273600Y-106039758D02*
X138273600Y-105565242D01*
X139318600Y-106039758D02*
X139318600Y-105565242D01*
%TO.C,R33*%
X95902500Y-110762742D02*
X95902500Y-111237258D01*
X96947500Y-110762742D02*
X96947500Y-111237258D01*
%TO.C,R27*%
X103270800Y-86685858D02*
X103270800Y-86211342D01*
X104315800Y-86685858D02*
X104315800Y-86211342D01*
%TD*%
M02*
