M48
; DRILL file KiCad 10.0.4 date 2026-10-09T15:41:01
; FORMAT={-:-/ absolute / metric / decimal}
; #@! TF.CreationDate,2026-10-09T15:41:01-04:00
; #@! TF.GenerationSoftware,Kicad,Pcbnew,10.0.4
; #@! TF.FileFunction,MixedPlating,1,4
FMAT,2
METRIC
; #@! TA.AperFunction,Plated,PTH,ViaDrill
T1C0.200
; #@! TA.AperFunction,Plated,PTH,ComponentDrill
T2C0.300
; #@! TA.AperFunction,Plated,PTH,ComponentDrill
T3C0.500
; #@! TA.AperFunction,Plated,PTH,ComponentDrill
T4C0.890
; #@! TA.AperFunction,Plated,PTH,ComponentDrill
T5C0.920
; #@! TA.AperFunction,Plated,PTH,ComponentDrill
T6C1.000
; #@! TA.AperFunction,Plated,PTH,ComponentDrill
T7C2.010
; #@! TA.AperFunction,Plated,PTH,ComponentDrill
T8C2.330
; #@! TA.AperFunction,Plated,PTH,ComponentDrill
T9C3.200
%
G90
G05
T1
X66.763Y-63.971
X66.763Y-109.971
X67.2Y-67.625
X67.2Y-113.625
X68.932Y-91.513
X69.433Y-98.68
X69.623Y-81.8
X69.952Y-70.686
X69.952Y-116.686
X69.953Y-97.135
X69.999Y-93.078
X70.079Y-93.725
X70.475Y-94.25
X70.503Y-111.675
X71.236Y-74.385
X71.236Y-120.385
X71.3Y-96.268
X71.318Y-64.839
X72.287Y-95.625
X72.627Y-116.365
X72.912Y-70.607
X73.408Y-92.296
X73.65Y-94.0
X73.681Y-91.699
X73.935Y-95.386
X74.533Y-91.945
X74.947Y-95.7
X75.386Y-67.718
X75.588Y-110.215
X75.789Y-113.827
X75.892Y-71.635
X75.921Y-117.635
X76.832Y-77.291
X76.832Y-123.291
X76.92Y-75.237
X76.92Y-121.237
X77.247Y-96.919
X77.247Y-91.081
X77.403Y-98.993
X78.666Y-110.825
X81.063Y-80.709
X82.081Y-66.975
X82.081Y-112.975
X82.286Y-114.434
X82.435Y-110.698
X83.217Y-75.186
X83.217Y-109.186
X84.543Y-69.719
X84.543Y-115.719
X84.705Y-80.091
X85.875Y-94.0
X87.211Y-79.591
X87.899Y-76.365
X88.072Y-90.651
X88.774Y-105.051
X89.187Y-110.366
X90.001Y-109.111
X91.483Y-86.591
X91.666Y-90.976
X92.04Y-88.921
X92.263Y-84.825
X92.417Y-97.161
X92.743Y-88.873
X92.775Y-77.635
X92.775Y-111.635
X93.159Y-105.54
X93.225Y-79.83
X93.906Y-95.003
X94.441Y-93.169
X95.363Y-84.825
X96.025Y-81.448
X96.025Y-84.552
X96.124Y-86.147
X96.225Y-94.459
X96.325Y-79.83
X97.078Y-101.578
X97.54Y-98.582
X98.773Y-104.581
X99.694Y-90.163
X99.736Y-94.006
X99.746Y-94.646
X99.975Y-84.552
X100.589Y-87.003
X101.055Y-86.388
X101.167Y-100.009
X101.25Y-88.8
X101.25Y-99.2
X101.57Y-78.934
X101.631Y-80.776
X101.667Y-84.891
X101.809Y-88.458
X102.288Y-99.256
X102.617Y-91.617
X102.617Y-94.0
X102.617Y-96.383
X102.761Y-86.919
X103.25Y-88.73
X103.25Y-99.255
X104.25Y-88.8
X104.25Y-99.2
X104.703Y-101.628
X104.736Y-88.424
X105.0Y-91.617
X105.0Y-94.0
X105.0Y-96.383
X105.184Y-87.972
X105.801Y-100.256
X105.843Y-88.233
X105.861Y-88.785
X105.884Y-81.297
X106.807Y-85.761
X107.319Y-87.121
X107.383Y-91.617
X107.383Y-94.0
X107.383Y-96.383
X107.791Y-86.552
X108.0Y-88.5
X108.25Y-99.2
X108.75Y-88.8
X109.0Y-99.2
X109.922Y-87.665
X110.258Y-100.558
X110.884Y-85.123
X110.884Y-88.223
X111.134Y-99.777
X111.134Y-102.877
X112.021Y-86.172
X113.336Y-84.25
X114.17Y-99.487
X115.05Y-97.75
X115.052Y-98.697
X115.097Y-99.869
X115.353Y-97.25
X116.607Y-97.205
X117.22Y-96.75
X117.586Y-89.207
X117.716Y-99.663
X118.123Y-100.043
X118.369Y-83.275
X118.589Y-77.575
X118.753Y-87.203
X118.944Y-100.374
X118.979Y-92.945
X119.017Y-96.56
X119.825Y-85.75
X119.92Y-96.678
X120.125Y-97.75
X120.188Y-95.596
X120.261Y-99.289
X120.266Y-83.75
X120.275Y-85.25
X120.275Y-89.25
X121.025Y-107.448
X121.025Y-110.552
X122.411Y-98.75
X122.456Y-97.723
X122.495Y-101.545
X122.69Y-102.662
X122.805Y-92.839
X122.89Y-85.11
X122.89Y-88.21
X123.01Y-94.034
X123.01Y-97.197
X123.462Y-93.607
X123.67Y-95.691
X124.25Y-101.531
X124.975Y-110.552
X125.047Y-104.039
X125.25Y-80.275
X125.39Y-84.885
X125.39Y-88.435
X125.504Y-101.535
X125.731Y-76.363
X126.0Y-103.796
X126.004Y-84.096
X126.245Y-70.572
X126.272Y-78.456
X126.325Y-74.242
X126.602Y-104.18
X126.84Y-75.254
X126.866Y-100.99
X126.882Y-80.207
X126.962Y-68.145
X127.127Y-103.844
X127.175Y-82.463
X127.75Y-80.213
X127.75Y-103.725
X127.783Y-104.332
X127.799Y-77.889
X127.847Y-83.099
X129.25Y-79.825
X129.345Y-71.072
X129.425Y-74.242
X129.68Y-82.469
X129.686Y-83.215
X129.71Y-104.306
X129.75Y-80.275
X129.875Y-70.55
X129.875Y-71.5
X129.875Y-72.45
X129.966Y-100.99
X130.487Y-73.384
X130.512Y-68.145
X130.627Y-139.154
X130.75Y-80.211
X131.397Y-83.099
X131.49Y-100.875
X131.521Y-100.249
X131.908Y-82.614
X132.202Y-100.022
X133.25Y-103.725
X133.728Y-113.57
X133.75Y-80.275
X133.751Y-105.09
X134.25Y-103.725
X134.445Y-87.31
X134.59Y-100.875
X134.75Y-80.207
X134.878Y-103.946
X135.008Y-83.114
X135.042Y-59.8
X135.44Y-73.658
X135.454Y-116.872
X135.923Y-83.615
X135.933Y-82.48
X136.033Y-75.825
X136.329Y-77.4
X136.401Y-100.928
X136.778Y-68.145
X136.923Y-106.416
X137.149Y-101.505
X137.275Y-113.905
X137.53Y-118.832
X137.554Y-83.141
X137.795Y-121.75
X137.809Y-104.836
X137.918Y-79.729
X137.994Y-103.778
X138.058Y-101.271
X138.204Y-122.344
X138.457Y-75.966
X138.524Y-123.091
X138.65Y-83.138
X138.708Y-123.702
X138.796Y-107.353
X138.991Y-124.283
X139.104Y-105.762
X139.25Y-103.725
X139.32Y-126.697
X139.39Y-125.25
X139.5Y-111.325
X139.6Y-100.675
X139.725Y-106.7
X139.741Y-125.75
X139.75Y-80.199
X139.956Y-104.609
X140.035Y-85.825
X140.107Y-126.245
X140.145Y-82.833
X140.75Y-103.725
X140.867Y-91.074
X140.867Y-94.174
X140.911Y-107.293
X141.018Y-86.432
X141.018Y-89.532
X141.1Y-100.625
X141.116Y-79.482
X141.158Y-101.271
X141.271Y-82.842
X141.291Y-81.578
X141.46Y-80.932
X141.521Y-85.942
X141.54Y-94.115
X141.775Y-131.095
X141.775Y-134.905
X141.931Y-128.239
X142.124Y-82.047
X142.124Y-113.905
X142.225Y-121.25
X142.225Y-124.75
X142.225Y-127.25
X143.032Y-107.295
X143.05Y-104.875
X143.725Y-83.25
X143.725Y-85.75
X143.725Y-87.25
X143.725Y-92.75
X143.725Y-94.25
X143.808Y-84.25
X143.82Y-118.346
X144.002Y-119.494
X144.424Y-114.848
X144.497Y-123.011
X144.883Y-116.414
X145.095Y-128.113
X145.109Y-122.964
X145.109Y-126.064
X145.142Y-106.981
X145.585Y-115.792
X145.592Y-97.216
X145.75Y-117.225
X145.75Y-130.775
X146.25Y-131.225
X146.349Y-119.503
X146.711Y-104.606
X146.725Y-110.095
X146.799Y-134.82
X147.137Y-130.856
X147.25Y-116.903
X147.348Y-110.912
X147.494Y-80.373
X147.568Y-120.125
X147.755Y-127.254
X147.936Y-117.055
X147.978Y-121.233
X148.195Y-128.113
X148.364Y-127.393
X148.75Y-116.925
X148.75Y-130.775
X148.864Y-128.37
X148.909Y-135.437
X149.283Y-119.586
X149.287Y-125.875
X149.382Y-127.763
X150.456Y-99.25
X150.531Y-116.948
X150.978Y-131.331
X151.118Y-120.125
X151.25Y-116.925
X151.448Y-138.212
X151.648Y-130.853
X151.932Y-94.15
X151.936Y-117.055
X151.964Y-128.37
X152.041Y-84.75
X152.043Y-127.203
X152.067Y-90.75
X152.095Y-86.8
X152.133Y-134.741
X152.135Y-125.387
X152.139Y-87.77
X152.25Y-130.828
X152.252Y-112.635
X152.306Y-135.837
X152.498Y-89.75
X152.642Y-119.795
X152.746Y-97.731
X152.768Y-115.817
X152.849Y-89.25
X153.002Y-123.812
X153.19Y-131.233
X153.24Y-96.409
X153.283Y-129.675
X153.49Y-83.75
X153.614Y-137.993
X153.71Y-95.577
X154.475Y-87.6
X154.558Y-86.25
X154.593Y-94.973
X154.723Y-119.712
X154.796Y-85.25
X155.01Y-82.856
X155.117Y-97.2
X155.121Y-99.075
X155.17Y-81.2
X155.17Y-83.6
X155.17Y-86.0
X155.17Y-88.4
X155.17Y-90.0
X155.775Y-120.75
X155.775Y-121.75
X155.775Y-123.25
X155.775Y-125.75
X155.775Y-127.75
X155.781Y-134.904
X155.781Y-131.751
X155.859Y-116.478
X156.075Y-122.75
X156.227Y-120.346
X156.25Y-78.52
X156.25Y-101.48
X156.868Y-134.6
X157.046Y-118.774
X157.125Y-114.956
X157.375Y-124.5
X157.382Y-99.779
X157.382Y-95.6
X157.394Y-97.202
X157.407Y-84.4
X157.409Y-93.106
X157.412Y-94.802
X157.698Y-89.257
X157.728Y-85.478
X157.728Y-88.578
X158.028Y-78.831
X158.425Y-89.1
X158.425Y-92.2
X158.671Y-81.175
X158.671Y-98.825
X158.778Y-97.2
X158.903Y-98.0
X158.96Y-93.2
X159.16Y-83.356
X159.168Y-86.8
X159.219Y-118.866
X159.575Y-124.5
X159.586Y-131.112
X159.726Y-91.6
X160.373Y-132.571
X161.08Y-134.634
X161.225Y-125.2
X161.823Y-96.4
X163.07Y-85.794
X163.672Y-106.725
X164.077Y-132.003
X164.997Y-84.939
X165.196Y-90.17
X165.525Y-104.568
X166.016Y-87.333
X166.016Y-90.433
X167.75Y-78.52
X167.75Y-101.48
X167.802Y-106.871
X168.337Y-110.814
X168.83Y-81.2
X168.83Y-83.6
X168.83Y-86.0
X168.83Y-88.4
X168.83Y-90.0
X168.875Y-107.0
X168.997Y-84.939
X169.167Y-103.95
X172.333Y-103.95
X174.873Y-108.624
X176.108Y-103.95
X177.363Y-110.335
X178.451Y-106.074
T2
X72.0Y-93.0
X72.0Y-94.0
X72.0Y-95.0
T3
X51.1Y-53.5
X51.1Y-136.5
X51.803Y-51.803
X51.803Y-55.197
X51.803Y-134.803
X51.803Y-138.197
X53.5Y-51.1
X53.5Y-55.9
X53.5Y-134.1
X53.5Y-138.9
X55.197Y-51.803
X55.197Y-55.197
X55.197Y-134.803
X55.197Y-138.197
X55.9Y-53.5
X55.9Y-136.5
X174.1Y-53.5
X174.1Y-136.5
X174.803Y-51.803
X174.803Y-55.197
X174.803Y-134.803
X174.803Y-138.197
X176.5Y-51.1
X176.5Y-55.9
X176.5Y-134.1
X176.5Y-138.9
X178.197Y-51.803
X178.197Y-55.197
X178.197Y-134.803
X178.197Y-138.197
X178.9Y-53.5
X178.9Y-136.5
T4
X62.7Y-70.0
X62.7Y-72.54
X62.7Y-116.0
X62.7Y-118.54
T5
X165.0Y-121.0
X165.0Y-123.5
X167.0Y-121.0
X167.0Y-123.5
T6
X126.0Y-53.46
X126.0Y-56.0
X128.54Y-53.46
X128.54Y-56.0
X131.08Y-53.46
X131.08Y-56.0
X133.62Y-53.46
X133.62Y-56.0
X136.16Y-53.46
X136.16Y-56.0
T7
X57.62Y-64.92
X57.62Y-75.08
X57.62Y-110.92
X57.62Y-121.08
T8
X169.71Y-116.23
X169.71Y-128.27
T9
X53.5Y-53.5
X53.5Y-136.5
X176.5Y-53.5
X176.5Y-136.5
M30
