%TF.GenerationSoftware,KiCad,Pcbnew,10.0.4*%
%TF.CreationDate,2026-10-09T11:23:48-04:00*%
%TF.ProjectId,dual_adc_usb,6475616c-5f61-4646-935f-7573622e6b69,rev?*%
%TF.SameCoordinates,Original*%
%TF.FileFunction,Other,User*%
%FSLAX46Y46*%
G04 Gerber Fmt 4.6, Leading zero omitted, Abs format (unit mm)*
G04 Created by KiCad (PCBNEW 10.0.4) date 2026-10-09 11:23:48*
%MOMM*%
%LPD*%
G01*
G04 APERTURE LIST*
%ADD10C,0.050000*%
G04 APERTURE END LIST*
%TO.C,FB301*%
D10*
X72935000Y-62045000D02*
X75895000Y-62045000D01*
X75895000Y-63505000D01*
X72935000Y-63505000D01*
X72935000Y-62045000D01*
%TO.C,R209*%
X46345000Y-68275000D02*
X49305000Y-68275000D01*
X49305000Y-69735000D01*
X46345000Y-69735000D01*
X46345000Y-68275000D01*
%TO.C,C307*%
X80545000Y-53695000D02*
X83505000Y-53695000D01*
X83505000Y-55155000D01*
X80545000Y-55155000D01*
X80545000Y-53695000D01*
%TO.C,C302*%
X67045000Y-34345000D02*
X70005000Y-34345000D01*
X70005000Y-35805000D01*
X67045000Y-35805000D01*
X67045000Y-34345000D01*
%TO.C,R105*%
X39045000Y-11085000D02*
X42005000Y-11085000D01*
X42005000Y-12545000D01*
X39045000Y-12545000D01*
X39045000Y-11085000D01*
%TO.C,C508*%
X140345000Y-60195000D02*
X143305000Y-60195000D01*
X143305000Y-61655000D01*
X140345000Y-61655000D01*
X140345000Y-60195000D01*
%TO.C,C312*%
X70695000Y-51045000D02*
X73655000Y-51045000D01*
X73655000Y-52505000D01*
X70695000Y-52505000D01*
X70695000Y-51045000D01*
%TO.C,C101*%
X39045000Y-4045000D02*
X42445000Y-4045000D01*
X42445000Y-6005000D01*
X39045000Y-6005000D01*
X39045000Y-4045000D01*
%TO.C,R301*%
X70695000Y-34345000D02*
X73655000Y-34345000D01*
X73655000Y-35805000D01*
X70695000Y-35805000D01*
X70695000Y-34345000D01*
%TO.C,U101*%
X53435000Y-6895000D02*
X54435000Y-6895000D01*
X53435000Y-9895000D02*
X53435000Y-6895000D01*
X54435000Y-6695000D02*
X56535000Y-6695000D01*
X54435000Y-6895000D02*
X54435000Y-6695000D01*
X54435000Y-9895000D02*
X53435000Y-9895000D01*
X54435000Y-10095000D02*
X54435000Y-9895000D01*
X56535000Y-6695000D02*
X56535000Y-6895000D01*
X56535000Y-6895000D02*
X57535000Y-6895000D01*
X56535000Y-8005000D02*
X56535000Y-8785000D01*
X56535000Y-8785000D02*
X57535000Y-8785000D01*
X56535000Y-9895000D02*
X56535000Y-10095000D01*
X56535000Y-10095000D02*
X54435000Y-10095000D01*
X57535000Y-6895000D02*
X57535000Y-8005000D01*
X57535000Y-8005000D02*
X56535000Y-8005000D01*
X57535000Y-8785000D02*
X57535000Y-9895000D01*
X57535000Y-9895000D02*
X56535000Y-9895000D01*
%TO.C,R404*%
X124635000Y-64695000D02*
X127595000Y-64695000D01*
X127595000Y-66155000D01*
X124635000Y-66155000D01*
X124635000Y-64695000D01*
%TO.C,RN307*%
X86045000Y-58885000D02*
X86045000Y-55785000D01*
X86045000Y-58885000D02*
X89745000Y-58885000D01*
X89745000Y-55785000D02*
X86045000Y-55785000D01*
X89745000Y-55785000D02*
X89745000Y-58885000D01*
%TO.C,C205*%
X58225000Y-59695000D02*
X61185000Y-59695000D01*
X61185000Y-61155000D01*
X58225000Y-61155000D01*
X58225000Y-59695000D01*
%TO.C,U102*%
X46345000Y-11355000D02*
X47775000Y-11355000D01*
X46345000Y-14315000D02*
X46345000Y-11355000D01*
X47775000Y-11085000D02*
X51275000Y-11085000D01*
X47775000Y-11355000D02*
X47775000Y-11085000D01*
X47775000Y-14315000D02*
X46345000Y-14315000D01*
X47775000Y-14585000D02*
X47775000Y-14315000D01*
X51275000Y-11085000D02*
X51275000Y-11355000D01*
X51275000Y-11355000D02*
X52705000Y-11355000D01*
X51275000Y-14315000D02*
X51275000Y-14585000D01*
X51275000Y-14585000D02*
X47775000Y-14585000D01*
X52705000Y-11355000D02*
X52705000Y-14315000D01*
X52705000Y-14315000D02*
X51275000Y-14315000D01*
%TO.C,FB501*%
X140345000Y-58045000D02*
X143305000Y-58045000D01*
X143305000Y-59505000D01*
X140345000Y-59505000D01*
X140345000Y-58045000D01*
%TO.C,C106*%
X61875000Y-6695000D02*
X64835000Y-6695000D01*
X64835000Y-8155000D01*
X61875000Y-8155000D01*
X61875000Y-6695000D01*
%TO.C,J201*%
X400000Y-60150000D02*
X400000Y-75850000D01*
X36900000Y-60150000D02*
X400000Y-60150000D01*
X36900000Y-75850000D02*
X400000Y-75850000D01*
X36900000Y-75850000D02*
X36900000Y-60150000D01*
%TO.C,R403*%
X120985000Y-64695000D02*
X123945000Y-64695000D01*
X123945000Y-66155000D01*
X120985000Y-66155000D01*
X120985000Y-64695000D01*
%TO.C,C304*%
X67045000Y-55345000D02*
X70005000Y-55345000D01*
X70005000Y-56805000D01*
X67045000Y-56805000D01*
X67045000Y-55345000D01*
%TO.C,RN304*%
X86045000Y-47515000D02*
X86045000Y-44415000D01*
X86045000Y-47515000D02*
X89745000Y-47515000D01*
X89745000Y-44415000D02*
X86045000Y-44415000D01*
X89745000Y-44415000D02*
X89745000Y-47515000D01*
%TO.C,R504*%
X139785000Y-30235000D02*
X142745000Y-30235000D01*
X142745000Y-31695000D01*
X139785000Y-31695000D01*
X139785000Y-30235000D01*
%TO.C,U402*%
X104640000Y-5240000D02*
X127360000Y-5240000D01*
X104640000Y-18760000D02*
X104640000Y-5240000D01*
X104640000Y-18760000D02*
X127360000Y-18760000D01*
X127360000Y-5240000D02*
X127360000Y-18760000D01*
%TO.C,U2*%
X68045000Y-73045000D02*
X68045000Y-75545000D01*
X68045000Y-73045000D02*
X71245000Y-73045000D01*
X68045000Y-75545000D02*
X71245000Y-75545000D01*
X71245000Y-73045000D02*
X71245000Y-75545000D01*
%TO.C,C108*%
X39045000Y-15275000D02*
X42005000Y-15275000D01*
X42005000Y-16735000D01*
X39045000Y-16735000D01*
X39045000Y-15275000D01*
%TO.C,C506*%
X136695000Y-60195000D02*
X139655000Y-60195000D01*
X139655000Y-61655000D01*
X136695000Y-61655000D01*
X136695000Y-60195000D01*
%TO.C,J101*%
X400000Y-14150000D02*
X400000Y-29850000D01*
X36900000Y-14150000D02*
X400000Y-14150000D01*
X36900000Y-29850000D02*
X400000Y-29850000D01*
X36900000Y-29850000D02*
X36900000Y-14150000D01*
%TO.C,C403*%
X118735000Y-62045000D02*
X122135000Y-62045000D01*
X122135000Y-64005000D01*
X118735000Y-64005000D01*
X118735000Y-62045000D01*
%TO.C,U3*%
X88055000Y-73245000D02*
X89055000Y-73245000D01*
X88055000Y-76245000D02*
X88055000Y-73245000D01*
X89055000Y-73045000D02*
X91155000Y-73045000D01*
X89055000Y-73245000D02*
X89055000Y-73045000D01*
X89055000Y-76245000D02*
X88055000Y-76245000D01*
X89055000Y-76445000D02*
X89055000Y-76245000D01*
X91155000Y-73045000D02*
X91155000Y-73245000D01*
X91155000Y-73245000D02*
X92155000Y-73245000D01*
X91155000Y-74355000D02*
X91155000Y-75135000D01*
X91155000Y-75135000D02*
X92155000Y-75135000D01*
X91155000Y-76245000D02*
X91155000Y-76445000D01*
X91155000Y-76445000D02*
X89055000Y-76445000D01*
X92155000Y-73245000D02*
X92155000Y-74355000D01*
X92155000Y-74355000D02*
X91155000Y-74355000D01*
X92155000Y-75135000D02*
X92155000Y-76245000D01*
X92155000Y-76245000D02*
X91155000Y-76245000D01*
%TO.C,R401*%
X103695000Y-62045000D02*
X106655000Y-62045000D01*
X106655000Y-63505000D01*
X103695000Y-63505000D01*
X103695000Y-62045000D01*
%TO.C,C204*%
X39045000Y-59695000D02*
X44545000Y-59695000D01*
X44545000Y-63395000D01*
X39045000Y-63395000D01*
X39045000Y-59695000D01*
%TO.C,R502*%
X136695000Y-58045000D02*
X139655000Y-58045000D01*
X139655000Y-59505000D01*
X136695000Y-59505000D01*
X136695000Y-58045000D01*
%TO.C,C5*%
X92845000Y-73045000D02*
X95805000Y-73045000D01*
X95805000Y-74505000D01*
X92845000Y-74505000D01*
X92845000Y-73045000D01*
%TO.C,C4*%
X84405000Y-73045000D02*
X87365000Y-73045000D01*
X87365000Y-74505000D01*
X84405000Y-74505000D01*
X84405000Y-73045000D01*
%TO.C,C2*%
X76225000Y-73045000D02*
X79625000Y-73045000D01*
X79625000Y-75005000D01*
X76225000Y-75005000D01*
X76225000Y-73045000D01*
%TO.C,R505*%
X128045000Y-36325000D02*
X131005000Y-36325000D01*
X131005000Y-37785000D01*
X128045000Y-37785000D01*
X128045000Y-36325000D01*
%TO.C,C305*%
X70695000Y-55345000D02*
X74095000Y-55345000D01*
X74095000Y-57305000D01*
X70695000Y-57305000D01*
X70695000Y-55345000D01*
%TO.C,C512*%
X143995000Y-60195000D02*
X146955000Y-60195000D01*
X146955000Y-61655000D01*
X143995000Y-61655000D01*
X143995000Y-60195000D01*
%TO.C,C11*%
X42935000Y-39135000D02*
X45895000Y-39135000D01*
X45895000Y-40595000D01*
X42935000Y-40595000D01*
X42935000Y-39135000D01*
%TO.C,C501*%
X135345000Y-36325000D02*
X138305000Y-36325000D01*
X138305000Y-37785000D01*
X135345000Y-37785000D01*
X135345000Y-36325000D01*
%TO.C,C105*%
X58225000Y-6695000D02*
X61185000Y-6695000D01*
X61185000Y-8155000D01*
X58225000Y-8155000D01*
X58225000Y-6695000D01*
%TO.C,U4*%
X39045000Y-35245000D02*
X40045000Y-35245000D01*
X39045000Y-38245000D02*
X39045000Y-35245000D01*
X40045000Y-35045000D02*
X42145000Y-35045000D01*
X40045000Y-35245000D02*
X40045000Y-35045000D01*
X40045000Y-38245000D02*
X39045000Y-38245000D01*
X40045000Y-38445000D02*
X40045000Y-38245000D01*
X42145000Y-35045000D02*
X42145000Y-35245000D01*
X42145000Y-35245000D02*
X43145000Y-35245000D01*
X42145000Y-36355000D02*
X42145000Y-37135000D01*
X42145000Y-37135000D02*
X43145000Y-37135000D01*
X42145000Y-38245000D02*
X42145000Y-38445000D01*
X42145000Y-38445000D02*
X40045000Y-38445000D01*
X43145000Y-35245000D02*
X43145000Y-36355000D01*
X43145000Y-36355000D02*
X42145000Y-36355000D01*
X43145000Y-37135000D02*
X43145000Y-38245000D01*
X43145000Y-38245000D02*
X42145000Y-38245000D01*
%TO.C,R304*%
X87535000Y-62045000D02*
X90495000Y-62045000D01*
X90495000Y-63505000D01*
X87535000Y-63505000D01*
X87535000Y-62045000D01*
%TO.C,R6*%
X71695000Y-77335000D02*
X74655000Y-77335000D01*
X74655000Y-78795000D01*
X71695000Y-78795000D01*
X71695000Y-77335000D01*
%TO.C,R3*%
X129385000Y-81545000D02*
X132345000Y-81545000D01*
X132345000Y-83005000D01*
X129385000Y-83005000D01*
X129385000Y-81545000D01*
%TO.C,D201*%
X45235000Y-59895000D02*
X46265000Y-59895000D01*
X45235000Y-61005000D02*
X45235000Y-59895000D01*
X45235000Y-61785000D02*
X46265000Y-61785000D01*
X45235000Y-62895000D02*
X45235000Y-61785000D01*
X46265000Y-59695000D02*
X48065000Y-59695000D01*
X46265000Y-59895000D02*
X46265000Y-59695000D01*
X46265000Y-61005000D02*
X45235000Y-61005000D01*
X46265000Y-61785000D02*
X46265000Y-61005000D01*
X46265000Y-62895000D02*
X45235000Y-62895000D01*
X46265000Y-63095000D02*
X46265000Y-62895000D01*
X48065000Y-59695000D02*
X48065000Y-60845000D01*
X48065000Y-60845000D02*
X49095000Y-60845000D01*
X48065000Y-61945000D02*
X48065000Y-63095000D01*
X48065000Y-63095000D02*
X46265000Y-63095000D01*
X49095000Y-60845000D02*
X49095000Y-61945000D01*
X49095000Y-61945000D02*
X48065000Y-61945000D01*
%TO.C,R101*%
X43135000Y-4045000D02*
X46495000Y-4045000D01*
X46495000Y-5945000D01*
X43135000Y-5945000D01*
X43135000Y-4045000D01*
%TO.C,U501*%
X133300000Y-45850000D02*
X134750000Y-45850000D01*
X133300000Y-54150000D02*
X133300000Y-45850000D01*
X134750000Y-44750000D02*
X135850000Y-44750000D01*
X134750000Y-45850000D02*
X134750000Y-44750000D01*
X134750000Y-54150000D02*
X133300000Y-54150000D01*
X134750000Y-55250000D02*
X134750000Y-54150000D01*
X135850000Y-43300000D02*
X144150000Y-43300000D01*
X135850000Y-44750000D02*
X135850000Y-43300000D01*
X135850000Y-55250000D02*
X134750000Y-55250000D01*
X135850000Y-56700000D02*
X135850000Y-55250000D01*
X144150000Y-43300000D02*
X144150000Y-44750000D01*
X144150000Y-44750000D02*
X145250000Y-44750000D01*
X144150000Y-55250000D02*
X144150000Y-56700000D01*
X144150000Y-56700000D02*
X135850000Y-56700000D01*
X145250000Y-44750000D02*
X145250000Y-45850000D01*
X145250000Y-45850000D02*
X146700000Y-45850000D01*
X145250000Y-54150000D02*
X145250000Y-55250000D01*
X145250000Y-55250000D02*
X144150000Y-55250000D01*
X146700000Y-45850000D02*
X146700000Y-54150000D01*
X146700000Y-54150000D02*
X145250000Y-54150000D01*
%TO.C,C1*%
X133035000Y-81545000D02*
X135995000Y-81545000D01*
X135995000Y-83005000D01*
X133035000Y-83005000D01*
X133035000Y-81545000D01*
%TO.C,C313*%
X74345000Y-51045000D02*
X77305000Y-51045000D01*
X77305000Y-52505000D01*
X74345000Y-52505000D01*
X74345000Y-51045000D01*
%TO.C,D402*%
X110995000Y-73045000D02*
X113955000Y-73045000D01*
X113955000Y-74505000D01*
X110995000Y-74505000D01*
X110995000Y-73045000D01*
%TO.C,C12*%
X46585000Y-39135000D02*
X49545000Y-39135000D01*
X49545000Y-40595000D01*
X46585000Y-40595000D01*
X46585000Y-39135000D01*
%TO.C,C207*%
X57045000Y-64085000D02*
X60005000Y-64085000D01*
X60005000Y-65545000D01*
X57045000Y-65545000D01*
X57045000Y-64085000D01*
%TO.C,C202*%
X51235000Y-57045000D02*
X54635000Y-57045000D01*
X54635000Y-59005000D01*
X51235000Y-59005000D01*
X51235000Y-57045000D01*
%TO.C,R506*%
X131695000Y-36325000D02*
X134655000Y-36325000D01*
X134655000Y-37785000D01*
X131695000Y-37785000D01*
X131695000Y-36325000D01*
%TO.C,C516*%
X133045000Y-62345000D02*
X136005000Y-62345000D01*
X136005000Y-63805000D01*
X133045000Y-63805000D01*
X133045000Y-62345000D01*
%TO.C,C318*%
X76585000Y-62045000D02*
X79545000Y-62045000D01*
X79545000Y-63505000D01*
X76585000Y-63505000D01*
X76585000Y-62045000D01*
%TO.C,R207*%
X53395000Y-64085000D02*
X56355000Y-64085000D01*
X56355000Y-65545000D01*
X53395000Y-65545000D01*
X53395000Y-64085000D01*
%TO.C,RN303*%
X86045000Y-43725000D02*
X86045000Y-40625000D01*
X86045000Y-43725000D02*
X89745000Y-43725000D01*
X89745000Y-40625000D02*
X86045000Y-40625000D01*
X89745000Y-40625000D02*
X89745000Y-43725000D01*
%TO.C,C109*%
X53645000Y-15275000D02*
X56605000Y-15275000D01*
X56605000Y-16735000D01*
X53645000Y-16735000D01*
X53645000Y-15275000D01*
%TO.C,U301*%
X74870000Y-40870000D02*
X75250000Y-40870000D01*
X74870000Y-49130000D02*
X74870000Y-40870000D01*
X75250000Y-40250000D02*
X75870000Y-40250000D01*
X75250000Y-40870000D02*
X75250000Y-40250000D01*
X75250000Y-49130000D02*
X74870000Y-49130000D01*
X75250000Y-49750000D02*
X75250000Y-49130000D01*
X75870000Y-39870000D02*
X84130000Y-39870000D01*
X75870000Y-40250000D02*
X75870000Y-39870000D01*
X75870000Y-49750000D02*
X75250000Y-49750000D01*
X75870000Y-50130000D02*
X75870000Y-49750000D01*
X84130000Y-39870000D02*
X84130000Y-40250000D01*
X84130000Y-40250000D02*
X84750000Y-40250000D01*
X84130000Y-49750000D02*
X84130000Y-50130000D01*
X84130000Y-50130000D02*
X75870000Y-50130000D01*
X84750000Y-40250000D02*
X84750000Y-40870000D01*
X84750000Y-40870000D02*
X85130000Y-40870000D01*
X84750000Y-49130000D02*
X84750000Y-49750000D01*
X84750000Y-49750000D02*
X84130000Y-49750000D01*
X85130000Y-40870000D02*
X85130000Y-49130000D01*
X85130000Y-49130000D02*
X84750000Y-49130000D01*
%TO.C,C402*%
X111435000Y-62045000D02*
X114395000Y-62045000D01*
X114395000Y-63505000D01*
X111435000Y-63505000D01*
X111435000Y-62045000D01*
%TO.C,C9*%
X55925000Y-35045000D02*
X58885000Y-35045000D01*
X58885000Y-36505000D01*
X55925000Y-36505000D01*
X55925000Y-35045000D01*
%TO.C,C404*%
X122825000Y-62045000D02*
X125785000Y-62045000D01*
X125785000Y-63505000D01*
X122825000Y-63505000D01*
X122825000Y-62045000D01*
%TO.C,C102*%
X51235000Y-4045000D02*
X54635000Y-4045000D01*
X54635000Y-6005000D01*
X51235000Y-6005000D01*
X51235000Y-4045000D01*
%TO.C,R305*%
X91185000Y-62045000D02*
X94145000Y-62045000D01*
X94145000Y-63505000D01*
X91185000Y-63505000D01*
X91185000Y-62045000D01*
%TO.C,C209*%
X53645000Y-68275000D02*
X56605000Y-68275000D01*
X56605000Y-69735000D01*
X53645000Y-69735000D01*
X53645000Y-68275000D01*
%TO.C,C504*%
X143995000Y-58045000D02*
X146955000Y-58045000D01*
X146955000Y-59505000D01*
X143995000Y-59505000D01*
X143995000Y-58045000D01*
%TO.C,C315*%
X70695000Y-53195000D02*
X73655000Y-53195000D01*
X73655000Y-54655000D01*
X70695000Y-54655000D01*
X70695000Y-53195000D01*
%TO.C,R203*%
X55325000Y-57045000D02*
X58285000Y-57045000D01*
X58285000Y-58505000D01*
X55325000Y-58505000D01*
X55325000Y-57045000D01*
%TO.C,R5*%
X57535000Y-39135000D02*
X60495000Y-39135000D01*
X60495000Y-40595000D01*
X57535000Y-40595000D01*
X57535000Y-39135000D01*
%TO.C,R407*%
X113685000Y-64695000D02*
X116645000Y-64695000D01*
X116645000Y-66155000D01*
X113685000Y-66155000D01*
X113685000Y-64695000D01*
%TO.C,C303*%
X74345000Y-53195000D02*
X77305000Y-53195000D01*
X77305000Y-54655000D01*
X74345000Y-54655000D01*
X74345000Y-53195000D01*
%TO.C,C316*%
X67045000Y-30045000D02*
X70005000Y-30045000D01*
X70005000Y-31505000D01*
X67045000Y-31505000D01*
X67045000Y-30045000D01*
%TO.C,R205*%
X39045000Y-64085000D02*
X42005000Y-64085000D01*
X42005000Y-65545000D01*
X39045000Y-65545000D01*
X39045000Y-64085000D01*
%TO.C,H3*%
X7450000Y-86000000D02*
G75*
G02*
X550000Y-86000000I-3450000J0D01*
G01*
X550000Y-86000000D02*
G75*
G02*
X7450000Y-86000000I3450000J0D01*
G01*
%TO.C,H4*%
X103450000Y-4000000D02*
G75*
G02*
X96550000Y-4000000I-3450000J0D01*
G01*
X96550000Y-4000000D02*
G75*
G02*
X103450000Y-4000000I3450000J0D01*
G01*
%TO.C,R110*%
X49995000Y-15275000D02*
X52955000Y-15275000D01*
X52955000Y-16735000D01*
X49995000Y-16735000D01*
X49995000Y-15275000D01*
%TO.C,C13*%
X50235000Y-39135000D02*
X53195000Y-39135000D01*
X53195000Y-40595000D01*
X50235000Y-40595000D01*
X50235000Y-39135000D01*
%TO.C,R104*%
X49785000Y-6695000D02*
X52745000Y-6695000D01*
X52745000Y-8155000D01*
X49785000Y-8155000D01*
X49785000Y-6695000D01*
%TO.C,C310*%
X67045000Y-32195000D02*
X70005000Y-32195000D01*
X70005000Y-33655000D01*
X67045000Y-33655000D01*
X67045000Y-32195000D01*
%TO.C,R201*%
X43135000Y-57045000D02*
X46495000Y-57045000D01*
X46495000Y-58945000D01*
X43135000Y-58945000D01*
X43135000Y-57045000D01*
%TO.C,R405*%
X128285000Y-64695000D02*
X131245000Y-64695000D01*
X131245000Y-66155000D01*
X128285000Y-66155000D01*
X128285000Y-64695000D01*
%TO.C,C301*%
X74345000Y-32195000D02*
X77305000Y-32195000D01*
X77305000Y-33655000D01*
X74345000Y-33655000D01*
X74345000Y-32195000D01*
%TO.C,R210*%
X49995000Y-68275000D02*
X52955000Y-68275000D01*
X52955000Y-69735000D01*
X49995000Y-69735000D01*
X49995000Y-68275000D01*
%TO.C,R302*%
X74345000Y-34345000D02*
X77305000Y-34345000D01*
X77305000Y-35805000D01*
X74345000Y-35805000D01*
X74345000Y-34345000D01*
%TO.C,C314*%
X67045000Y-53195000D02*
X70005000Y-53195000D01*
X70005000Y-54655000D01*
X67045000Y-54655000D01*
X67045000Y-53195000D01*
%TO.C,U6*%
X39045000Y-39135000D02*
X39045000Y-41635000D01*
X39045000Y-39135000D02*
X42245000Y-39135000D01*
X39045000Y-41635000D02*
X42245000Y-41635000D01*
X42245000Y-39135000D02*
X42245000Y-41635000D01*
%TO.C,R202*%
X47185000Y-57045000D02*
X50545000Y-57045000D01*
X50545000Y-58945000D01*
X47185000Y-58945000D01*
X47185000Y-57045000D01*
%TO.C,R102*%
X47185000Y-4045000D02*
X50545000Y-4045000D01*
X50545000Y-5945000D01*
X47185000Y-5945000D01*
X47185000Y-4045000D01*
%TO.C,J401*%
X145230000Y-3230000D02*
X148770000Y-3230000D01*
X148770000Y-24550000D01*
X145230000Y-24550000D01*
X145230000Y-3230000D01*
%TO.C,R503*%
X136135000Y-30235000D02*
X139095000Y-30235000D01*
X139095000Y-31695000D01*
X136135000Y-31695000D01*
X136135000Y-30235000D01*
%TO.C,RN305*%
X86045000Y-51305000D02*
X86045000Y-48205000D01*
X86045000Y-51305000D02*
X89745000Y-51305000D01*
X89745000Y-48205000D02*
X86045000Y-48205000D01*
X89745000Y-48205000D02*
X89745000Y-51305000D01*
%TO.C,R406*%
X110035000Y-64695000D02*
X112995000Y-64695000D01*
X112995000Y-66155000D01*
X110035000Y-66155000D01*
X110035000Y-64695000D01*
%TO.C,C6*%
X68045000Y-77335000D02*
X71005000Y-77335000D01*
X71005000Y-78795000D01*
X68045000Y-78795000D01*
X68045000Y-77335000D01*
%TO.C,U201*%
X53435000Y-59895000D02*
X54435000Y-59895000D01*
X53435000Y-62895000D02*
X53435000Y-59895000D01*
X54435000Y-59695000D02*
X56535000Y-59695000D01*
X54435000Y-59895000D02*
X54435000Y-59695000D01*
X54435000Y-62895000D02*
X53435000Y-62895000D01*
X54435000Y-63095000D02*
X54435000Y-62895000D01*
X56535000Y-59695000D02*
X56535000Y-59895000D01*
X56535000Y-59895000D02*
X57535000Y-59895000D01*
X56535000Y-61005000D02*
X56535000Y-61785000D01*
X56535000Y-61785000D02*
X57535000Y-61785000D01*
X56535000Y-62895000D02*
X56535000Y-63095000D01*
X56535000Y-63095000D02*
X54435000Y-63095000D01*
X57535000Y-59895000D02*
X57535000Y-61005000D01*
X57535000Y-61005000D02*
X56535000Y-61005000D01*
X57535000Y-61785000D02*
X57535000Y-62895000D01*
X57535000Y-62895000D02*
X56535000Y-62895000D01*
%TO.C,RN301*%
X86045000Y-36145000D02*
X86045000Y-33045000D01*
X86045000Y-36145000D02*
X89745000Y-36145000D01*
X89745000Y-33045000D02*
X86045000Y-33045000D01*
X89745000Y-33045000D02*
X89745000Y-36145000D01*
%TO.C,R1*%
X122085000Y-81545000D02*
X125045000Y-81545000D01*
X125045000Y-83005000D01*
X122085000Y-83005000D01*
X122085000Y-81545000D01*
%TO.C,RN306*%
X86045000Y-55095000D02*
X86045000Y-51995000D01*
X86045000Y-55095000D02*
X89745000Y-55095000D01*
X89745000Y-51995000D02*
X86045000Y-51995000D01*
X89745000Y-51995000D02*
X89745000Y-55095000D01*
%TO.C,R410*%
X107345000Y-73045000D02*
X110305000Y-73045000D01*
X110305000Y-74505000D01*
X107345000Y-74505000D01*
X107345000Y-73045000D01*
%TO.C,C208*%
X39045000Y-68275000D02*
X42005000Y-68275000D01*
X42005000Y-69735000D01*
X39045000Y-69735000D01*
X39045000Y-68275000D01*
%TO.C,U202*%
X46345000Y-64355000D02*
X47775000Y-64355000D01*
X46345000Y-67315000D02*
X46345000Y-64355000D01*
X47775000Y-64085000D02*
X51275000Y-64085000D01*
X47775000Y-64355000D02*
X47775000Y-64085000D01*
X47775000Y-67315000D02*
X46345000Y-67315000D01*
X47775000Y-67585000D02*
X47775000Y-67315000D01*
X51275000Y-64085000D02*
X51275000Y-64355000D01*
X51275000Y-64355000D02*
X52705000Y-64355000D01*
X51275000Y-67315000D02*
X51275000Y-67585000D01*
X51275000Y-67585000D02*
X47775000Y-67585000D01*
X52705000Y-64355000D02*
X52705000Y-67315000D01*
X52705000Y-67315000D02*
X51275000Y-67315000D01*
%TO.C,R106*%
X42695000Y-11085000D02*
X45655000Y-11085000D01*
X45655000Y-12545000D01*
X42695000Y-12545000D01*
X42695000Y-11085000D01*
%TO.C,R109*%
X46345000Y-15275000D02*
X49305000Y-15275000D01*
X49305000Y-16735000D01*
X46345000Y-16735000D01*
X46345000Y-15275000D01*
%TO.C,C7*%
X43835000Y-35045000D02*
X46795000Y-35045000D01*
X46795000Y-36505000D01*
X43835000Y-36505000D01*
X43835000Y-35045000D01*
%TO.C,C104*%
X39045000Y-6695000D02*
X44545000Y-6695000D01*
X44545000Y-10395000D01*
X39045000Y-10395000D01*
X39045000Y-6695000D01*
%TO.C,C311*%
X70695000Y-32195000D02*
X73655000Y-32195000D01*
X73655000Y-33655000D01*
X70695000Y-33655000D01*
X70695000Y-32195000D01*
%TO.C,C103*%
X58975000Y-4045000D02*
X61935000Y-4045000D01*
X61935000Y-5505000D01*
X58975000Y-5505000D01*
X58975000Y-4045000D01*
%TO.C,RN302*%
X86045000Y-39935000D02*
X86045000Y-36835000D01*
X86045000Y-39935000D02*
X89745000Y-39935000D01*
X89745000Y-36835000D02*
X86045000Y-36835000D01*
X89745000Y-36835000D02*
X89745000Y-39935000D01*
%TO.C,U1*%
X112045000Y-81745000D02*
X113045000Y-81745000D01*
X112045000Y-84745000D02*
X112045000Y-81745000D01*
X113045000Y-81545000D02*
X115145000Y-81545000D01*
X113045000Y-81745000D02*
X113045000Y-81545000D01*
X113045000Y-84745000D02*
X112045000Y-84745000D01*
X113045000Y-84945000D02*
X113045000Y-84745000D01*
X115145000Y-81545000D02*
X115145000Y-81745000D01*
X115145000Y-81745000D02*
X116145000Y-81745000D01*
X115145000Y-84745000D02*
X115145000Y-84945000D01*
X115145000Y-84945000D02*
X113045000Y-84945000D01*
X116145000Y-81745000D02*
X116145000Y-84745000D01*
X116145000Y-84745000D02*
X115145000Y-84745000D01*
%TO.C,C210*%
X42695000Y-68275000D02*
X45655000Y-68275000D01*
X45655000Y-69735000D01*
X42695000Y-69735000D01*
X42695000Y-68275000D01*
%TO.C,C8*%
X47485000Y-35045000D02*
X50445000Y-35045000D01*
X50445000Y-36505000D01*
X47485000Y-36505000D01*
X47485000Y-35045000D01*
%TO.C,C317*%
X67045000Y-51045000D02*
X70005000Y-51045000D01*
X70005000Y-52505000D01*
X67045000Y-52505000D01*
X67045000Y-51045000D01*
%TO.C,C502*%
X132935000Y-26045000D02*
X135895000Y-26045000D01*
X135895000Y-27505000D01*
X132935000Y-27505000D01*
X132935000Y-26045000D01*
%TO.C,J1*%
X141840000Y-68680000D02*
X150780000Y-68680000D01*
X150780000Y-79320000D01*
X141840000Y-79320000D01*
X141840000Y-68680000D01*
%TO.C,R4*%
X53885000Y-39135000D02*
X56845000Y-39135000D01*
X56845000Y-40595000D01*
X53885000Y-40595000D01*
X53885000Y-39135000D01*
%TO.C,R204*%
X49785000Y-59695000D02*
X52745000Y-59695000D01*
X52745000Y-61155000D01*
X49785000Y-61155000D01*
X49785000Y-59695000D01*
%TO.C,C10*%
X59575000Y-35045000D02*
X62535000Y-35045000D01*
X62535000Y-36505000D01*
X59575000Y-36505000D01*
X59575000Y-35045000D01*
%TO.C,R2*%
X125735000Y-81545000D02*
X128695000Y-81545000D01*
X128695000Y-83005000D01*
X125735000Y-83005000D01*
X125735000Y-81545000D01*
%TO.C,R402*%
X115085000Y-62045000D02*
X118045000Y-62045000D01*
X118045000Y-63505000D01*
X115085000Y-63505000D01*
X115085000Y-62045000D01*
%TO.C,C503*%
X136585000Y-26045000D02*
X139545000Y-26045000D01*
X139545000Y-27505000D01*
X136585000Y-27505000D01*
X136585000Y-26045000D01*
%TO.C,U502*%
X128045000Y-30475000D02*
X129545000Y-30475000D01*
X128045000Y-35395000D02*
X128045000Y-30475000D01*
X129545000Y-30235000D02*
X133945000Y-30235000D01*
X129545000Y-30475000D02*
X129545000Y-30235000D01*
X129545000Y-35395000D02*
X128045000Y-35395000D01*
X129545000Y-35635000D02*
X129545000Y-35395000D01*
X133945000Y-30235000D02*
X133945000Y-30475000D01*
X133945000Y-30475000D02*
X135445000Y-30475000D01*
X133945000Y-35395000D02*
X133945000Y-35635000D01*
X133945000Y-35635000D02*
X129545000Y-35635000D01*
X135445000Y-30475000D02*
X135445000Y-35395000D01*
X135445000Y-35395000D02*
X133945000Y-35395000D01*
%TO.C,D401*%
X103695000Y-73045000D02*
X106655000Y-73045000D01*
X106655000Y-74505000D01*
X103695000Y-74505000D01*
X103695000Y-73045000D01*
%TO.C,Y301*%
X68045000Y-62045000D02*
X72245000Y-62045000D01*
X72245000Y-65545000D01*
X68045000Y-65545000D01*
X68045000Y-62045000D01*
%TO.C,U403*%
X100045000Y-65115000D02*
X101795000Y-65115000D01*
X100045000Y-70075000D02*
X100045000Y-65115000D01*
X101795000Y-64695000D02*
X107595000Y-64695000D01*
X101795000Y-65115000D02*
X101795000Y-64695000D01*
X101795000Y-70075000D02*
X100045000Y-70075000D01*
X101795000Y-70495000D02*
X101795000Y-70075000D01*
X107595000Y-64695000D02*
X107595000Y-65115000D01*
X107595000Y-65115000D02*
X109345000Y-65115000D01*
X107595000Y-70075000D02*
X107595000Y-70495000D01*
X107595000Y-70495000D02*
X101795000Y-70495000D01*
X109345000Y-65115000D02*
X109345000Y-70075000D01*
X109345000Y-70075000D02*
X107595000Y-70075000D01*
%TO.C,R303*%
X83885000Y-62045000D02*
X86845000Y-62045000D01*
X86845000Y-63505000D01*
X83885000Y-63505000D01*
X83885000Y-62045000D01*
%TO.C,C319*%
X80235000Y-62045000D02*
X83195000Y-62045000D01*
X83195000Y-63505000D01*
X80235000Y-63505000D01*
X80235000Y-62045000D01*
%TO.C,D1*%
X75345000Y-77335000D02*
X78305000Y-77335000D01*
X78305000Y-78795000D01*
X75345000Y-78795000D01*
X75345000Y-77335000D01*
%TO.C,C309*%
X74345000Y-30045000D02*
X77305000Y-30045000D01*
X77305000Y-31505000D01*
X74345000Y-31505000D01*
X74345000Y-30045000D01*
%TO.C,C306*%
X80545000Y-51545000D02*
X83505000Y-51545000D01*
X83505000Y-53005000D01*
X80545000Y-53005000D01*
X80545000Y-51545000D01*
%TO.C,C201*%
X39045000Y-57045000D02*
X42445000Y-57045000D01*
X42445000Y-59005000D01*
X39045000Y-59005000D01*
X39045000Y-57045000D01*
%TO.C,R108*%
X60695000Y-11085000D02*
X63655000Y-11085000D01*
X63655000Y-12545000D01*
X60695000Y-12545000D01*
X60695000Y-11085000D01*
%TO.C,R501*%
X133045000Y-58045000D02*
X136005000Y-58045000D01*
X136005000Y-59505000D01*
X133045000Y-59505000D01*
X133045000Y-58045000D01*
%TO.C,U5*%
X51135000Y-35245000D02*
X52135000Y-35245000D01*
X51135000Y-38245000D02*
X51135000Y-35245000D01*
X52135000Y-35045000D02*
X54235000Y-35045000D01*
X52135000Y-35245000D02*
X52135000Y-35045000D01*
X52135000Y-38245000D02*
X51135000Y-38245000D01*
X52135000Y-38445000D02*
X52135000Y-38245000D01*
X54235000Y-35045000D02*
X54235000Y-35245000D01*
X54235000Y-35245000D02*
X55235000Y-35245000D01*
X54235000Y-36355000D02*
X54235000Y-37135000D01*
X54235000Y-37135000D02*
X55235000Y-37135000D01*
X54235000Y-38245000D02*
X54235000Y-38445000D01*
X54235000Y-38445000D02*
X52135000Y-38445000D01*
X55235000Y-35245000D02*
X55235000Y-36355000D01*
X55235000Y-36355000D02*
X54235000Y-36355000D01*
X55235000Y-37135000D02*
X55235000Y-38245000D01*
X55235000Y-38245000D02*
X54235000Y-38245000D01*
%TO.C,H2*%
X149450000Y-86000000D02*
G75*
G02*
X142550000Y-86000000I-3450000J0D01*
G01*
X142550000Y-86000000D02*
G75*
G02*
X149450000Y-86000000I3450000J0D01*
G01*
%TO.C,U401*%
X104350000Y-38850000D02*
X105750000Y-38850000D01*
X104350000Y-57150000D02*
X104350000Y-38850000D01*
X105750000Y-37750000D02*
X106850000Y-37750000D01*
X105750000Y-38850000D02*
X105750000Y-37750000D01*
X105750000Y-57150000D02*
X104350000Y-57150000D01*
X105750000Y-58250000D02*
X105750000Y-57150000D01*
X106850000Y-36350000D02*
X125150000Y-36350000D01*
X106850000Y-37750000D02*
X106850000Y-36350000D01*
X106850000Y-58250000D02*
X105750000Y-58250000D01*
X106850000Y-59650000D02*
X106850000Y-58250000D01*
X125150000Y-36350000D02*
X125150000Y-37750000D01*
X125150000Y-37750000D02*
X126250000Y-37750000D01*
X125150000Y-58250000D02*
X125150000Y-59650000D01*
X125150000Y-59650000D02*
X106850000Y-59650000D01*
X126250000Y-37750000D02*
X126250000Y-38850000D01*
X126250000Y-38850000D02*
X127650000Y-38850000D01*
X126250000Y-57150000D02*
X126250000Y-58250000D01*
X126250000Y-58250000D02*
X125150000Y-58250000D01*
X127650000Y-38850000D02*
X127650000Y-57150000D01*
X127650000Y-57150000D02*
X126250000Y-57150000D01*
%TO.C,C203*%
X58975000Y-57045000D02*
X61935000Y-57045000D01*
X61935000Y-58505000D01*
X58975000Y-58505000D01*
X58975000Y-57045000D01*
%TO.C,F1*%
X116835000Y-81545000D02*
X121395000Y-81545000D01*
X121395000Y-83805000D01*
X116835000Y-83805000D01*
X116835000Y-81545000D01*
%TO.C,D101*%
X45235000Y-6895000D02*
X46265000Y-6895000D01*
X45235000Y-8005000D02*
X45235000Y-6895000D01*
X45235000Y-8785000D02*
X46265000Y-8785000D01*
X45235000Y-9895000D02*
X45235000Y-8785000D01*
X46265000Y-6695000D02*
X48065000Y-6695000D01*
X46265000Y-6895000D02*
X46265000Y-6695000D01*
X46265000Y-8005000D02*
X45235000Y-8005000D01*
X46265000Y-8785000D02*
X46265000Y-8005000D01*
X46265000Y-9895000D02*
X45235000Y-9895000D01*
X46265000Y-10095000D02*
X46265000Y-9895000D01*
X48065000Y-6695000D02*
X48065000Y-7845000D01*
X48065000Y-7845000D02*
X49095000Y-7845000D01*
X48065000Y-8945000D02*
X48065000Y-10095000D01*
X48065000Y-10095000D02*
X46265000Y-10095000D01*
X49095000Y-7845000D02*
X49095000Y-8945000D01*
X49095000Y-8945000D02*
X48065000Y-8945000D01*
%TO.C,L1*%
X71935000Y-73045000D02*
X71935000Y-76645000D01*
X71935000Y-76645000D02*
X75535000Y-76645000D01*
X75535000Y-73045000D02*
X71935000Y-73045000D01*
X75535000Y-76645000D02*
X75535000Y-73045000D01*
%TO.C,R103*%
X55325000Y-4045000D02*
X58285000Y-4045000D01*
X58285000Y-5505000D01*
X55325000Y-5505000D01*
X55325000Y-4045000D01*
%TO.C,Y501*%
X128045000Y-26045000D02*
X132245000Y-26045000D01*
X132245000Y-29545000D01*
X128045000Y-29545000D01*
X128045000Y-26045000D01*
%TO.C,R409*%
X100045000Y-73045000D02*
X103005000Y-73045000D01*
X103005000Y-74505000D01*
X100045000Y-74505000D01*
X100045000Y-73045000D01*
%TO.C,FB502*%
X133045000Y-60195000D02*
X136005000Y-60195000D01*
X136005000Y-61655000D01*
X133045000Y-61655000D01*
X133045000Y-60195000D01*
%TO.C,C420*%
X117335000Y-64695000D02*
X120295000Y-64695000D01*
X120295000Y-66155000D01*
X117335000Y-66155000D01*
X117335000Y-64695000D01*
%TO.C,C308*%
X70695000Y-30045000D02*
X73655000Y-30045000D01*
X73655000Y-31505000D01*
X70695000Y-31505000D01*
X70695000Y-30045000D01*
%TO.C,R206*%
X42695000Y-64085000D02*
X45655000Y-64085000D01*
X45655000Y-65545000D01*
X42695000Y-65545000D01*
X42695000Y-64085000D01*
%TO.C,C107*%
X57045000Y-11085000D02*
X60005000Y-11085000D01*
X60005000Y-12545000D01*
X57045000Y-12545000D01*
X57045000Y-11085000D01*
%TO.C,C401*%
X107345000Y-62045000D02*
X110745000Y-62045000D01*
X110745000Y-64005000D01*
X107345000Y-64005000D01*
X107345000Y-62045000D01*
%TO.C,H1*%
X7450000Y-4000000D02*
G75*
G02*
X550000Y-4000000I-3450000J0D01*
G01*
X550000Y-4000000D02*
G75*
G02*
X7450000Y-4000000I3450000J0D01*
G01*
%TO.C,C206*%
X61875000Y-59695000D02*
X64835000Y-59695000D01*
X64835000Y-61155000D01*
X61875000Y-61155000D01*
X61875000Y-59695000D01*
%TO.C,C3*%
X80315000Y-73045000D02*
X83715000Y-73045000D01*
X83715000Y-75005000D01*
X80315000Y-75005000D01*
X80315000Y-73045000D01*
%TO.C,R208*%
X60695000Y-64085000D02*
X63655000Y-64085000D01*
X63655000Y-65545000D01*
X60695000Y-65545000D01*
X60695000Y-64085000D01*
%TO.C,R107*%
X53395000Y-11085000D02*
X56355000Y-11085000D01*
X56355000Y-12545000D01*
X53395000Y-12545000D01*
X53395000Y-11085000D01*
%TO.C,R408*%
X100045000Y-62045000D02*
X103005000Y-62045000D01*
X103005000Y-63505000D01*
X100045000Y-63505000D01*
X100045000Y-62045000D01*
%TO.C,C110*%
X42695000Y-15275000D02*
X45655000Y-15275000D01*
X45655000Y-16735000D01*
X42695000Y-16735000D01*
X42695000Y-15275000D01*
%TD*%
M02*
