%TF.GenerationSoftware,KiCad,Pcbnew,10.0.4*%
%TF.CreationDate,2026-10-09T11:23:48-04:00*%
%TF.ProjectId,dual_adc_usb,6475616c-5f61-4646-935f-7573622e6b69,rev?*%
%TF.SameCoordinates,Original*%
%TF.FileFunction,Soldermask,Bot*%
%TF.FilePolarity,Negative*%
%FSLAX46Y46*%
G04 Gerber Fmt 4.6, Leading zero omitted, Abs format (unit mm)*
G04 Created by KiCad (PCBNEW 10.0.4) date 2026-10-09 11:23:48*
%MOMM*%
%LPD*%
G01*
G04 APERTURE LIST*
G04 Aperture macros list*
%AMRoundRect*
0 Rectangle with rounded corners*
0 $1 Rounding radius*
0 $2 $3 $4 $5 $6 $7 $8 $9 X,Y pos of 4 corners*
0 Add a 4 corners polygon primitive as box body*
4,1,4,$2,$3,$4,$5,$6,$7,$8,$9,$2,$3,0*
0 Add four circle primitives for the rounded corners*
1,1,$1+$1,$2,$3*
1,1,$1+$1,$4,$5*
1,1,$1+$1,$6,$7*
1,1,$1+$1,$8,$9*
0 Add four rect primitives between the rounded corners*
20,1,$1+$1,$2,$3,$4,$5,0*
20,1,$1+$1,$4,$5,$6,$7,0*
20,1,$1+$1,$6,$7,$8,$9,0*
20,1,$1+$1,$8,$9,$2,$3,0*%
G04 Aperture macros list end*
%ADD10O,2.500000X1.600000*%
%ADD11O,7.000000X3.500000*%
%ADD12C,3.200000*%
%ADD13R,1.700000X1.700000*%
%ADD14C,1.700000*%
%ADD15C,0.650000*%
%ADD16O,2.100000X1.000000*%
%ADD17O,1.800000X1.000000*%
%ADD18RoundRect,0.225000X0.225000X0.250000X-0.225000X0.250000X-0.225000X-0.250000X0.225000X-0.250000X0*%
%ADD19RoundRect,0.250000X0.250000X0.475000X-0.250000X0.475000X-0.250000X-0.475000X0.250000X-0.475000X0*%
G04 APERTURE END LIST*
D10*
%TO.C,J201*%
X34200000Y-68000000D03*
D11*
X29120000Y-73080000D03*
D10*
X34200000Y-70540000D03*
D11*
X29120000Y-62920000D03*
%TD*%
D10*
%TO.C,J101*%
X34200000Y-22000000D03*
D11*
X29120000Y-27080000D03*
D10*
X34200000Y-24540000D03*
D11*
X29120000Y-16920000D03*
%TD*%
D12*
%TO.C,H3*%
X4000000Y-86000000D03*
%TD*%
%TO.C,H4*%
X100000000Y-4000000D03*
%TD*%
D13*
%TO.C,J401*%
X147000000Y-5000000D03*
D14*
X147000000Y-7540000D03*
X147000000Y-10080000D03*
X147000000Y-12620000D03*
X147000000Y-15160000D03*
X147000000Y-17700000D03*
X147000000Y-20240000D03*
X147000000Y-22780000D03*
%TD*%
D15*
%TO.C,J1*%
X143995000Y-76890000D03*
X143995000Y-71110000D03*
D16*
X143495000Y-78320000D03*
D17*
X147675000Y-78320000D03*
D16*
X143495000Y-69680000D03*
D17*
X147675000Y-69680000D03*
%TD*%
D12*
%TO.C,H2*%
X146000000Y-86000000D03*
%TD*%
%TO.C,H1*%
X4000000Y-4000000D03*
%TD*%
D18*
%TO.C,C416*%
X112950000Y-44575000D03*
X111400000Y-44575000D03*
%TD*%
D19*
%TO.C,C418*%
X120645000Y-44825000D03*
X118745000Y-44825000D03*
%TD*%
D18*
%TO.C,C407*%
X116600000Y-39775000D03*
X115050000Y-39775000D03*
%TD*%
%TO.C,C510*%
X141550000Y-48525000D03*
X140000000Y-48525000D03*
%TD*%
%TO.C,C515*%
X141550000Y-52825000D03*
X140000000Y-52825000D03*
%TD*%
%TO.C,C426*%
X108300000Y-11225000D03*
X106750000Y-11225000D03*
%TD*%
%TO.C,C507*%
X141550000Y-46375000D03*
X140000000Y-46375000D03*
%TD*%
%TO.C,C509*%
X137900000Y-48525000D03*
X136350000Y-48525000D03*
%TD*%
%TO.C,C415*%
X109300000Y-44575000D03*
X107750000Y-44575000D03*
%TD*%
%TO.C,C514*%
X137900000Y-52825000D03*
X136350000Y-52825000D03*
%TD*%
D19*
%TO.C,C409*%
X124295000Y-40025000D03*
X122395000Y-40025000D03*
%TD*%
D18*
%TO.C,C405*%
X109300000Y-39775000D03*
X107750000Y-39775000D03*
%TD*%
%TO.C,C411*%
X112950000Y-42425000D03*
X111400000Y-42425000D03*
%TD*%
D19*
%TO.C,C428*%
X115995000Y-11475000D03*
X114095000Y-11475000D03*
%TD*%
D18*
%TO.C,C414*%
X123900000Y-42425000D03*
X122350000Y-42425000D03*
%TD*%
%TO.C,C513*%
X141550000Y-50675000D03*
X140000000Y-50675000D03*
%TD*%
%TO.C,C417*%
X116600000Y-44575000D03*
X115050000Y-44575000D03*
%TD*%
%TO.C,C427*%
X111950000Y-11225000D03*
X110400000Y-11225000D03*
%TD*%
%TO.C,C410*%
X109300000Y-42425000D03*
X107750000Y-42425000D03*
%TD*%
%TO.C,C412*%
X116600000Y-42425000D03*
X115050000Y-42425000D03*
%TD*%
%TO.C,C505*%
X137900000Y-46375000D03*
X136350000Y-46375000D03*
%TD*%
%TO.C,C413*%
X120250000Y-42425000D03*
X118700000Y-42425000D03*
%TD*%
%TO.C,C424*%
X119250000Y-9075000D03*
X117700000Y-9075000D03*
%TD*%
%TO.C,C419*%
X124340000Y-44575000D03*
X122790000Y-44575000D03*
%TD*%
%TO.C,C408*%
X120250000Y-39775000D03*
X118700000Y-39775000D03*
%TD*%
%TO.C,C423*%
X115600000Y-9075000D03*
X114050000Y-9075000D03*
%TD*%
%TO.C,C406*%
X112950000Y-39775000D03*
X111400000Y-39775000D03*
%TD*%
%TO.C,C422*%
X111950000Y-9075000D03*
X110400000Y-9075000D03*
%TD*%
%TO.C,C421*%
X108300000Y-9075000D03*
X106750000Y-9075000D03*
%TD*%
%TO.C,C511*%
X137900000Y-50675000D03*
X136350000Y-50675000D03*
%TD*%
%TO.C,C425*%
X122900000Y-9075000D03*
X121350000Y-9075000D03*
%TD*%
M02*
