%TF.GenerationSoftware,KiCad,Pcbnew,10.0.4*%
%TF.CreationDate,2026-10-09T11:23:48-04:00*%
%TF.ProjectId,dual_adc_usb,6475616c-5f61-4646-935f-7573622e6b69,rev?*%
%TF.SameCoordinates,Original*%
%TF.FileFunction,AssemblyDrawing,Bot*%
%FSLAX46Y46*%
G04 Gerber Fmt 4.6, Leading zero omitted, Abs format (unit mm)*
G04 Created by KiCad (PCBNEW 10.0.4) date 2026-10-09 11:23:48*
%MOMM*%
%LPD*%
G01*
G04 APERTURE LIST*
%ADD10C,0.150000*%
%ADD11C,0.060000*%
%ADD12C,0.080000*%
%ADD13C,0.100000*%
G04 APERTURE END LIST*
D10*
X113722619Y-46459819D02*
X114294047Y-46459819D01*
X114008333Y-46459819D02*
X114008333Y-45459819D01*
X114008333Y-45459819D02*
X114103571Y-45602676D01*
X114103571Y-45602676D02*
X114198809Y-45697914D01*
X114198809Y-45697914D02*
X114294047Y-45745533D01*
X113103571Y-45459819D02*
X113008333Y-45459819D01*
X113008333Y-45459819D02*
X112913095Y-45507438D01*
X112913095Y-45507438D02*
X112865476Y-45555057D01*
X112865476Y-45555057D02*
X112817857Y-45650295D01*
X112817857Y-45650295D02*
X112770238Y-45840771D01*
X112770238Y-45840771D02*
X112770238Y-46078866D01*
X112770238Y-46078866D02*
X112817857Y-46269342D01*
X112817857Y-46269342D02*
X112865476Y-46364580D01*
X112865476Y-46364580D02*
X112913095Y-46412200D01*
X112913095Y-46412200D02*
X113008333Y-46459819D01*
X113008333Y-46459819D02*
X113103571Y-46459819D01*
X113103571Y-46459819D02*
X113198809Y-46412200D01*
X113198809Y-46412200D02*
X113246428Y-46364580D01*
X113246428Y-46364580D02*
X113294047Y-46269342D01*
X113294047Y-46269342D02*
X113341666Y-46078866D01*
X113341666Y-46078866D02*
X113341666Y-45840771D01*
X113341666Y-45840771D02*
X113294047Y-45650295D01*
X113294047Y-45650295D02*
X113246428Y-45555057D01*
X113246428Y-45555057D02*
X113198809Y-45507438D01*
X113198809Y-45507438D02*
X113103571Y-45459819D01*
X112151190Y-45459819D02*
X112055952Y-45459819D01*
X112055952Y-45459819D02*
X111960714Y-45507438D01*
X111960714Y-45507438D02*
X111913095Y-45555057D01*
X111913095Y-45555057D02*
X111865476Y-45650295D01*
X111865476Y-45650295D02*
X111817857Y-45840771D01*
X111817857Y-45840771D02*
X111817857Y-46078866D01*
X111817857Y-46078866D02*
X111865476Y-46269342D01*
X111865476Y-46269342D02*
X111913095Y-46364580D01*
X111913095Y-46364580D02*
X111960714Y-46412200D01*
X111960714Y-46412200D02*
X112055952Y-46459819D01*
X112055952Y-46459819D02*
X112151190Y-46459819D01*
X112151190Y-46459819D02*
X112246428Y-46412200D01*
X112246428Y-46412200D02*
X112294047Y-46364580D01*
X112294047Y-46364580D02*
X112341666Y-46269342D01*
X112341666Y-46269342D02*
X112389285Y-46078866D01*
X112389285Y-46078866D02*
X112389285Y-45840771D01*
X112389285Y-45840771D02*
X112341666Y-45650295D01*
X112341666Y-45650295D02*
X112294047Y-45555057D01*
X112294047Y-45555057D02*
X112246428Y-45507438D01*
X112246428Y-45507438D02*
X112151190Y-45459819D01*
X111389285Y-45793152D02*
X111389285Y-46459819D01*
X111389285Y-45888390D02*
X111341666Y-45840771D01*
X111341666Y-45840771D02*
X111246428Y-45793152D01*
X111246428Y-45793152D02*
X111103571Y-45793152D01*
X111103571Y-45793152D02*
X111008333Y-45840771D01*
X111008333Y-45840771D02*
X110960714Y-45936009D01*
X110960714Y-45936009D02*
X110960714Y-46459819D01*
X110151190Y-45936009D02*
X110484523Y-45936009D01*
X110484523Y-46459819D02*
X110484523Y-45459819D01*
X110484523Y-45459819D02*
X110008333Y-45459819D01*
D11*
X112622618Y-44718832D02*
X112641666Y-44737880D01*
X112641666Y-44737880D02*
X112698808Y-44756927D01*
X112698808Y-44756927D02*
X112736904Y-44756927D01*
X112736904Y-44756927D02*
X112794047Y-44737880D01*
X112794047Y-44737880D02*
X112832142Y-44699784D01*
X112832142Y-44699784D02*
X112851189Y-44661689D01*
X112851189Y-44661689D02*
X112870237Y-44585499D01*
X112870237Y-44585499D02*
X112870237Y-44528356D01*
X112870237Y-44528356D02*
X112851189Y-44452165D01*
X112851189Y-44452165D02*
X112832142Y-44414070D01*
X112832142Y-44414070D02*
X112794047Y-44375975D01*
X112794047Y-44375975D02*
X112736904Y-44356927D01*
X112736904Y-44356927D02*
X112698808Y-44356927D01*
X112698808Y-44356927D02*
X112641666Y-44375975D01*
X112641666Y-44375975D02*
X112622618Y-44395022D01*
X112279761Y-44490260D02*
X112279761Y-44756927D01*
X112374999Y-44337880D02*
X112470237Y-44623594D01*
X112470237Y-44623594D02*
X112222618Y-44623594D01*
X111860714Y-44756927D02*
X112089285Y-44756927D01*
X111974999Y-44756927D02*
X111974999Y-44356927D01*
X111974999Y-44356927D02*
X112013095Y-44414070D01*
X112013095Y-44414070D02*
X112051190Y-44452165D01*
X112051190Y-44452165D02*
X112089285Y-44471213D01*
X111517857Y-44356927D02*
X111594047Y-44356927D01*
X111594047Y-44356927D02*
X111632143Y-44375975D01*
X111632143Y-44375975D02*
X111651190Y-44395022D01*
X111651190Y-44395022D02*
X111689285Y-44452165D01*
X111689285Y-44452165D02*
X111708333Y-44528356D01*
X111708333Y-44528356D02*
X111708333Y-44680737D01*
X111708333Y-44680737D02*
X111689285Y-44718832D01*
X111689285Y-44718832D02*
X111670238Y-44737880D01*
X111670238Y-44737880D02*
X111632143Y-44756927D01*
X111632143Y-44756927D02*
X111555952Y-44756927D01*
X111555952Y-44756927D02*
X111517857Y-44737880D01*
X111517857Y-44737880D02*
X111498809Y-44718832D01*
X111498809Y-44718832D02*
X111479762Y-44680737D01*
X111479762Y-44680737D02*
X111479762Y-44585499D01*
X111479762Y-44585499D02*
X111498809Y-44547403D01*
X111498809Y-44547403D02*
X111517857Y-44528356D01*
X111517857Y-44528356D02*
X111555952Y-44509308D01*
X111555952Y-44509308D02*
X111632143Y-44509308D01*
X111632143Y-44509308D02*
X111670238Y-44528356D01*
X111670238Y-44528356D02*
X111689285Y-44547403D01*
X111689285Y-44547403D02*
X111708333Y-44585499D01*
D10*
X120766428Y-46959819D02*
X121337856Y-46959819D01*
X121052142Y-46959819D02*
X121052142Y-45959819D01*
X121052142Y-45959819D02*
X121147380Y-46102676D01*
X121147380Y-46102676D02*
X121242618Y-46197914D01*
X121242618Y-46197914D02*
X121337856Y-46245533D01*
X120147380Y-45959819D02*
X120052142Y-45959819D01*
X120052142Y-45959819D02*
X119956904Y-46007438D01*
X119956904Y-46007438D02*
X119909285Y-46055057D01*
X119909285Y-46055057D02*
X119861666Y-46150295D01*
X119861666Y-46150295D02*
X119814047Y-46340771D01*
X119814047Y-46340771D02*
X119814047Y-46578866D01*
X119814047Y-46578866D02*
X119861666Y-46769342D01*
X119861666Y-46769342D02*
X119909285Y-46864580D01*
X119909285Y-46864580D02*
X119956904Y-46912200D01*
X119956904Y-46912200D02*
X120052142Y-46959819D01*
X120052142Y-46959819D02*
X120147380Y-46959819D01*
X120147380Y-46959819D02*
X120242618Y-46912200D01*
X120242618Y-46912200D02*
X120290237Y-46864580D01*
X120290237Y-46864580D02*
X120337856Y-46769342D01*
X120337856Y-46769342D02*
X120385475Y-46578866D01*
X120385475Y-46578866D02*
X120385475Y-46340771D01*
X120385475Y-46340771D02*
X120337856Y-46150295D01*
X120337856Y-46150295D02*
X120290237Y-46055057D01*
X120290237Y-46055057D02*
X120242618Y-46007438D01*
X120242618Y-46007438D02*
X120147380Y-45959819D01*
X118956904Y-46293152D02*
X118956904Y-46959819D01*
X119385475Y-46293152D02*
X119385475Y-46816961D01*
X119385475Y-46816961D02*
X119337856Y-46912200D01*
X119337856Y-46912200D02*
X119242618Y-46959819D01*
X119242618Y-46959819D02*
X119099761Y-46959819D01*
X119099761Y-46959819D02*
X119004523Y-46912200D01*
X119004523Y-46912200D02*
X118956904Y-46864580D01*
X118147380Y-46436009D02*
X118480713Y-46436009D01*
X118480713Y-46959819D02*
X118480713Y-45959819D01*
X118480713Y-45959819D02*
X118004523Y-45959819D01*
D12*
X120254523Y-45004530D02*
X120278332Y-45028340D01*
X120278332Y-45028340D02*
X120349761Y-45052149D01*
X120349761Y-45052149D02*
X120397380Y-45052149D01*
X120397380Y-45052149D02*
X120468808Y-45028340D01*
X120468808Y-45028340D02*
X120516427Y-44980720D01*
X120516427Y-44980720D02*
X120540237Y-44933101D01*
X120540237Y-44933101D02*
X120564046Y-44837863D01*
X120564046Y-44837863D02*
X120564046Y-44766435D01*
X120564046Y-44766435D02*
X120540237Y-44671197D01*
X120540237Y-44671197D02*
X120516427Y-44623578D01*
X120516427Y-44623578D02*
X120468808Y-44575959D01*
X120468808Y-44575959D02*
X120397380Y-44552149D01*
X120397380Y-44552149D02*
X120349761Y-44552149D01*
X120349761Y-44552149D02*
X120278332Y-44575959D01*
X120278332Y-44575959D02*
X120254523Y-44599768D01*
X119825951Y-44718816D02*
X119825951Y-45052149D01*
X119944999Y-44528340D02*
X120064046Y-44885482D01*
X120064046Y-44885482D02*
X119754523Y-44885482D01*
X119302142Y-45052149D02*
X119587856Y-45052149D01*
X119444999Y-45052149D02*
X119444999Y-44552149D01*
X119444999Y-44552149D02*
X119492618Y-44623578D01*
X119492618Y-44623578D02*
X119540237Y-44671197D01*
X119540237Y-44671197D02*
X119587856Y-44695006D01*
X119016428Y-44766435D02*
X119064047Y-44742625D01*
X119064047Y-44742625D02*
X119087857Y-44718816D01*
X119087857Y-44718816D02*
X119111666Y-44671197D01*
X119111666Y-44671197D02*
X119111666Y-44647387D01*
X119111666Y-44647387D02*
X119087857Y-44599768D01*
X119087857Y-44599768D02*
X119064047Y-44575959D01*
X119064047Y-44575959D02*
X119016428Y-44552149D01*
X119016428Y-44552149D02*
X118921190Y-44552149D01*
X118921190Y-44552149D02*
X118873571Y-44575959D01*
X118873571Y-44575959D02*
X118849762Y-44599768D01*
X118849762Y-44599768D02*
X118825952Y-44647387D01*
X118825952Y-44647387D02*
X118825952Y-44671197D01*
X118825952Y-44671197D02*
X118849762Y-44718816D01*
X118849762Y-44718816D02*
X118873571Y-44742625D01*
X118873571Y-44742625D02*
X118921190Y-44766435D01*
X118921190Y-44766435D02*
X119016428Y-44766435D01*
X119016428Y-44766435D02*
X119064047Y-44790244D01*
X119064047Y-44790244D02*
X119087857Y-44814054D01*
X119087857Y-44814054D02*
X119111666Y-44861673D01*
X119111666Y-44861673D02*
X119111666Y-44956911D01*
X119111666Y-44956911D02*
X119087857Y-45004530D01*
X119087857Y-45004530D02*
X119064047Y-45028340D01*
X119064047Y-45028340D02*
X119016428Y-45052149D01*
X119016428Y-45052149D02*
X118921190Y-45052149D01*
X118921190Y-45052149D02*
X118873571Y-45028340D01*
X118873571Y-45028340D02*
X118849762Y-45004530D01*
X118849762Y-45004530D02*
X118825952Y-44956911D01*
X118825952Y-44956911D02*
X118825952Y-44861673D01*
X118825952Y-44861673D02*
X118849762Y-44814054D01*
X118849762Y-44814054D02*
X118873571Y-44790244D01*
X118873571Y-44790244D02*
X118921190Y-44766435D01*
D10*
X117372619Y-41659819D02*
X117944047Y-41659819D01*
X117658333Y-41659819D02*
X117658333Y-40659819D01*
X117658333Y-40659819D02*
X117753571Y-40802676D01*
X117753571Y-40802676D02*
X117848809Y-40897914D01*
X117848809Y-40897914D02*
X117944047Y-40945533D01*
X116753571Y-40659819D02*
X116658333Y-40659819D01*
X116658333Y-40659819D02*
X116563095Y-40707438D01*
X116563095Y-40707438D02*
X116515476Y-40755057D01*
X116515476Y-40755057D02*
X116467857Y-40850295D01*
X116467857Y-40850295D02*
X116420238Y-41040771D01*
X116420238Y-41040771D02*
X116420238Y-41278866D01*
X116420238Y-41278866D02*
X116467857Y-41469342D01*
X116467857Y-41469342D02*
X116515476Y-41564580D01*
X116515476Y-41564580D02*
X116563095Y-41612200D01*
X116563095Y-41612200D02*
X116658333Y-41659819D01*
X116658333Y-41659819D02*
X116753571Y-41659819D01*
X116753571Y-41659819D02*
X116848809Y-41612200D01*
X116848809Y-41612200D02*
X116896428Y-41564580D01*
X116896428Y-41564580D02*
X116944047Y-41469342D01*
X116944047Y-41469342D02*
X116991666Y-41278866D01*
X116991666Y-41278866D02*
X116991666Y-41040771D01*
X116991666Y-41040771D02*
X116944047Y-40850295D01*
X116944047Y-40850295D02*
X116896428Y-40755057D01*
X116896428Y-40755057D02*
X116848809Y-40707438D01*
X116848809Y-40707438D02*
X116753571Y-40659819D01*
X115801190Y-40659819D02*
X115705952Y-40659819D01*
X115705952Y-40659819D02*
X115610714Y-40707438D01*
X115610714Y-40707438D02*
X115563095Y-40755057D01*
X115563095Y-40755057D02*
X115515476Y-40850295D01*
X115515476Y-40850295D02*
X115467857Y-41040771D01*
X115467857Y-41040771D02*
X115467857Y-41278866D01*
X115467857Y-41278866D02*
X115515476Y-41469342D01*
X115515476Y-41469342D02*
X115563095Y-41564580D01*
X115563095Y-41564580D02*
X115610714Y-41612200D01*
X115610714Y-41612200D02*
X115705952Y-41659819D01*
X115705952Y-41659819D02*
X115801190Y-41659819D01*
X115801190Y-41659819D02*
X115896428Y-41612200D01*
X115896428Y-41612200D02*
X115944047Y-41564580D01*
X115944047Y-41564580D02*
X115991666Y-41469342D01*
X115991666Y-41469342D02*
X116039285Y-41278866D01*
X116039285Y-41278866D02*
X116039285Y-41040771D01*
X116039285Y-41040771D02*
X115991666Y-40850295D01*
X115991666Y-40850295D02*
X115944047Y-40755057D01*
X115944047Y-40755057D02*
X115896428Y-40707438D01*
X115896428Y-40707438D02*
X115801190Y-40659819D01*
X115039285Y-40993152D02*
X115039285Y-41659819D01*
X115039285Y-41088390D02*
X114991666Y-41040771D01*
X114991666Y-41040771D02*
X114896428Y-40993152D01*
X114896428Y-40993152D02*
X114753571Y-40993152D01*
X114753571Y-40993152D02*
X114658333Y-41040771D01*
X114658333Y-41040771D02*
X114610714Y-41136009D01*
X114610714Y-41136009D02*
X114610714Y-41659819D01*
X113801190Y-41136009D02*
X114134523Y-41136009D01*
X114134523Y-41659819D02*
X114134523Y-40659819D01*
X114134523Y-40659819D02*
X113658333Y-40659819D01*
D11*
X116272618Y-39918832D02*
X116291666Y-39937880D01*
X116291666Y-39937880D02*
X116348808Y-39956927D01*
X116348808Y-39956927D02*
X116386904Y-39956927D01*
X116386904Y-39956927D02*
X116444047Y-39937880D01*
X116444047Y-39937880D02*
X116482142Y-39899784D01*
X116482142Y-39899784D02*
X116501189Y-39861689D01*
X116501189Y-39861689D02*
X116520237Y-39785499D01*
X116520237Y-39785499D02*
X116520237Y-39728356D01*
X116520237Y-39728356D02*
X116501189Y-39652165D01*
X116501189Y-39652165D02*
X116482142Y-39614070D01*
X116482142Y-39614070D02*
X116444047Y-39575975D01*
X116444047Y-39575975D02*
X116386904Y-39556927D01*
X116386904Y-39556927D02*
X116348808Y-39556927D01*
X116348808Y-39556927D02*
X116291666Y-39575975D01*
X116291666Y-39575975D02*
X116272618Y-39595022D01*
X115929761Y-39690260D02*
X115929761Y-39956927D01*
X116024999Y-39537880D02*
X116120237Y-39823594D01*
X116120237Y-39823594D02*
X115872618Y-39823594D01*
X115644047Y-39556927D02*
X115605952Y-39556927D01*
X115605952Y-39556927D02*
X115567856Y-39575975D01*
X115567856Y-39575975D02*
X115548809Y-39595022D01*
X115548809Y-39595022D02*
X115529761Y-39633118D01*
X115529761Y-39633118D02*
X115510714Y-39709308D01*
X115510714Y-39709308D02*
X115510714Y-39804546D01*
X115510714Y-39804546D02*
X115529761Y-39880737D01*
X115529761Y-39880737D02*
X115548809Y-39918832D01*
X115548809Y-39918832D02*
X115567856Y-39937880D01*
X115567856Y-39937880D02*
X115605952Y-39956927D01*
X115605952Y-39956927D02*
X115644047Y-39956927D01*
X115644047Y-39956927D02*
X115682142Y-39937880D01*
X115682142Y-39937880D02*
X115701190Y-39918832D01*
X115701190Y-39918832D02*
X115720237Y-39880737D01*
X115720237Y-39880737D02*
X115739285Y-39804546D01*
X115739285Y-39804546D02*
X115739285Y-39709308D01*
X115739285Y-39709308D02*
X115720237Y-39633118D01*
X115720237Y-39633118D02*
X115701190Y-39595022D01*
X115701190Y-39595022D02*
X115682142Y-39575975D01*
X115682142Y-39575975D02*
X115644047Y-39556927D01*
X115377381Y-39556927D02*
X115110714Y-39556927D01*
X115110714Y-39556927D02*
X115282143Y-39956927D01*
D10*
X142322619Y-50409819D02*
X142894047Y-50409819D01*
X142608333Y-50409819D02*
X142608333Y-49409819D01*
X142608333Y-49409819D02*
X142703571Y-49552676D01*
X142703571Y-49552676D02*
X142798809Y-49647914D01*
X142798809Y-49647914D02*
X142894047Y-49695533D01*
X141703571Y-49409819D02*
X141608333Y-49409819D01*
X141608333Y-49409819D02*
X141513095Y-49457438D01*
X141513095Y-49457438D02*
X141465476Y-49505057D01*
X141465476Y-49505057D02*
X141417857Y-49600295D01*
X141417857Y-49600295D02*
X141370238Y-49790771D01*
X141370238Y-49790771D02*
X141370238Y-50028866D01*
X141370238Y-50028866D02*
X141417857Y-50219342D01*
X141417857Y-50219342D02*
X141465476Y-50314580D01*
X141465476Y-50314580D02*
X141513095Y-50362200D01*
X141513095Y-50362200D02*
X141608333Y-50409819D01*
X141608333Y-50409819D02*
X141703571Y-50409819D01*
X141703571Y-50409819D02*
X141798809Y-50362200D01*
X141798809Y-50362200D02*
X141846428Y-50314580D01*
X141846428Y-50314580D02*
X141894047Y-50219342D01*
X141894047Y-50219342D02*
X141941666Y-50028866D01*
X141941666Y-50028866D02*
X141941666Y-49790771D01*
X141941666Y-49790771D02*
X141894047Y-49600295D01*
X141894047Y-49600295D02*
X141846428Y-49505057D01*
X141846428Y-49505057D02*
X141798809Y-49457438D01*
X141798809Y-49457438D02*
X141703571Y-49409819D01*
X140751190Y-49409819D02*
X140655952Y-49409819D01*
X140655952Y-49409819D02*
X140560714Y-49457438D01*
X140560714Y-49457438D02*
X140513095Y-49505057D01*
X140513095Y-49505057D02*
X140465476Y-49600295D01*
X140465476Y-49600295D02*
X140417857Y-49790771D01*
X140417857Y-49790771D02*
X140417857Y-50028866D01*
X140417857Y-50028866D02*
X140465476Y-50219342D01*
X140465476Y-50219342D02*
X140513095Y-50314580D01*
X140513095Y-50314580D02*
X140560714Y-50362200D01*
X140560714Y-50362200D02*
X140655952Y-50409819D01*
X140655952Y-50409819D02*
X140751190Y-50409819D01*
X140751190Y-50409819D02*
X140846428Y-50362200D01*
X140846428Y-50362200D02*
X140894047Y-50314580D01*
X140894047Y-50314580D02*
X140941666Y-50219342D01*
X140941666Y-50219342D02*
X140989285Y-50028866D01*
X140989285Y-50028866D02*
X140989285Y-49790771D01*
X140989285Y-49790771D02*
X140941666Y-49600295D01*
X140941666Y-49600295D02*
X140894047Y-49505057D01*
X140894047Y-49505057D02*
X140846428Y-49457438D01*
X140846428Y-49457438D02*
X140751190Y-49409819D01*
X139989285Y-49743152D02*
X139989285Y-50409819D01*
X139989285Y-49838390D02*
X139941666Y-49790771D01*
X139941666Y-49790771D02*
X139846428Y-49743152D01*
X139846428Y-49743152D02*
X139703571Y-49743152D01*
X139703571Y-49743152D02*
X139608333Y-49790771D01*
X139608333Y-49790771D02*
X139560714Y-49886009D01*
X139560714Y-49886009D02*
X139560714Y-50409819D01*
X138751190Y-49886009D02*
X139084523Y-49886009D01*
X139084523Y-50409819D02*
X139084523Y-49409819D01*
X139084523Y-49409819D02*
X138608333Y-49409819D01*
D11*
X141222618Y-48668832D02*
X141241666Y-48687880D01*
X141241666Y-48687880D02*
X141298808Y-48706927D01*
X141298808Y-48706927D02*
X141336904Y-48706927D01*
X141336904Y-48706927D02*
X141394047Y-48687880D01*
X141394047Y-48687880D02*
X141432142Y-48649784D01*
X141432142Y-48649784D02*
X141451189Y-48611689D01*
X141451189Y-48611689D02*
X141470237Y-48535499D01*
X141470237Y-48535499D02*
X141470237Y-48478356D01*
X141470237Y-48478356D02*
X141451189Y-48402165D01*
X141451189Y-48402165D02*
X141432142Y-48364070D01*
X141432142Y-48364070D02*
X141394047Y-48325975D01*
X141394047Y-48325975D02*
X141336904Y-48306927D01*
X141336904Y-48306927D02*
X141298808Y-48306927D01*
X141298808Y-48306927D02*
X141241666Y-48325975D01*
X141241666Y-48325975D02*
X141222618Y-48345022D01*
X140860713Y-48306927D02*
X141051189Y-48306927D01*
X141051189Y-48306927D02*
X141070237Y-48497403D01*
X141070237Y-48497403D02*
X141051189Y-48478356D01*
X141051189Y-48478356D02*
X141013094Y-48459308D01*
X141013094Y-48459308D02*
X140917856Y-48459308D01*
X140917856Y-48459308D02*
X140879761Y-48478356D01*
X140879761Y-48478356D02*
X140860713Y-48497403D01*
X140860713Y-48497403D02*
X140841666Y-48535499D01*
X140841666Y-48535499D02*
X140841666Y-48630737D01*
X140841666Y-48630737D02*
X140860713Y-48668832D01*
X140860713Y-48668832D02*
X140879761Y-48687880D01*
X140879761Y-48687880D02*
X140917856Y-48706927D01*
X140917856Y-48706927D02*
X141013094Y-48706927D01*
X141013094Y-48706927D02*
X141051189Y-48687880D01*
X141051189Y-48687880D02*
X141070237Y-48668832D01*
X140460714Y-48706927D02*
X140689285Y-48706927D01*
X140574999Y-48706927D02*
X140574999Y-48306927D01*
X140574999Y-48306927D02*
X140613095Y-48364070D01*
X140613095Y-48364070D02*
X140651190Y-48402165D01*
X140651190Y-48402165D02*
X140689285Y-48421213D01*
X140213095Y-48306927D02*
X140175000Y-48306927D01*
X140175000Y-48306927D02*
X140136904Y-48325975D01*
X140136904Y-48325975D02*
X140117857Y-48345022D01*
X140117857Y-48345022D02*
X140098809Y-48383118D01*
X140098809Y-48383118D02*
X140079762Y-48459308D01*
X140079762Y-48459308D02*
X140079762Y-48554546D01*
X140079762Y-48554546D02*
X140098809Y-48630737D01*
X140098809Y-48630737D02*
X140117857Y-48668832D01*
X140117857Y-48668832D02*
X140136904Y-48687880D01*
X140136904Y-48687880D02*
X140175000Y-48706927D01*
X140175000Y-48706927D02*
X140213095Y-48706927D01*
X140213095Y-48706927D02*
X140251190Y-48687880D01*
X140251190Y-48687880D02*
X140270238Y-48668832D01*
X140270238Y-48668832D02*
X140289285Y-48630737D01*
X140289285Y-48630737D02*
X140308333Y-48554546D01*
X140308333Y-48554546D02*
X140308333Y-48459308D01*
X140308333Y-48459308D02*
X140289285Y-48383118D01*
X140289285Y-48383118D02*
X140270238Y-48345022D01*
X140270238Y-48345022D02*
X140251190Y-48325975D01*
X140251190Y-48325975D02*
X140213095Y-48306927D01*
D10*
X142322619Y-54709819D02*
X142894047Y-54709819D01*
X142608333Y-54709819D02*
X142608333Y-53709819D01*
X142608333Y-53709819D02*
X142703571Y-53852676D01*
X142703571Y-53852676D02*
X142798809Y-53947914D01*
X142798809Y-53947914D02*
X142894047Y-53995533D01*
X141703571Y-53709819D02*
X141608333Y-53709819D01*
X141608333Y-53709819D02*
X141513095Y-53757438D01*
X141513095Y-53757438D02*
X141465476Y-53805057D01*
X141465476Y-53805057D02*
X141417857Y-53900295D01*
X141417857Y-53900295D02*
X141370238Y-54090771D01*
X141370238Y-54090771D02*
X141370238Y-54328866D01*
X141370238Y-54328866D02*
X141417857Y-54519342D01*
X141417857Y-54519342D02*
X141465476Y-54614580D01*
X141465476Y-54614580D02*
X141513095Y-54662200D01*
X141513095Y-54662200D02*
X141608333Y-54709819D01*
X141608333Y-54709819D02*
X141703571Y-54709819D01*
X141703571Y-54709819D02*
X141798809Y-54662200D01*
X141798809Y-54662200D02*
X141846428Y-54614580D01*
X141846428Y-54614580D02*
X141894047Y-54519342D01*
X141894047Y-54519342D02*
X141941666Y-54328866D01*
X141941666Y-54328866D02*
X141941666Y-54090771D01*
X141941666Y-54090771D02*
X141894047Y-53900295D01*
X141894047Y-53900295D02*
X141846428Y-53805057D01*
X141846428Y-53805057D02*
X141798809Y-53757438D01*
X141798809Y-53757438D02*
X141703571Y-53709819D01*
X140751190Y-53709819D02*
X140655952Y-53709819D01*
X140655952Y-53709819D02*
X140560714Y-53757438D01*
X140560714Y-53757438D02*
X140513095Y-53805057D01*
X140513095Y-53805057D02*
X140465476Y-53900295D01*
X140465476Y-53900295D02*
X140417857Y-54090771D01*
X140417857Y-54090771D02*
X140417857Y-54328866D01*
X140417857Y-54328866D02*
X140465476Y-54519342D01*
X140465476Y-54519342D02*
X140513095Y-54614580D01*
X140513095Y-54614580D02*
X140560714Y-54662200D01*
X140560714Y-54662200D02*
X140655952Y-54709819D01*
X140655952Y-54709819D02*
X140751190Y-54709819D01*
X140751190Y-54709819D02*
X140846428Y-54662200D01*
X140846428Y-54662200D02*
X140894047Y-54614580D01*
X140894047Y-54614580D02*
X140941666Y-54519342D01*
X140941666Y-54519342D02*
X140989285Y-54328866D01*
X140989285Y-54328866D02*
X140989285Y-54090771D01*
X140989285Y-54090771D02*
X140941666Y-53900295D01*
X140941666Y-53900295D02*
X140894047Y-53805057D01*
X140894047Y-53805057D02*
X140846428Y-53757438D01*
X140846428Y-53757438D02*
X140751190Y-53709819D01*
X139989285Y-54043152D02*
X139989285Y-54709819D01*
X139989285Y-54138390D02*
X139941666Y-54090771D01*
X139941666Y-54090771D02*
X139846428Y-54043152D01*
X139846428Y-54043152D02*
X139703571Y-54043152D01*
X139703571Y-54043152D02*
X139608333Y-54090771D01*
X139608333Y-54090771D02*
X139560714Y-54186009D01*
X139560714Y-54186009D02*
X139560714Y-54709819D01*
X138751190Y-54186009D02*
X139084523Y-54186009D01*
X139084523Y-54709819D02*
X139084523Y-53709819D01*
X139084523Y-53709819D02*
X138608333Y-53709819D01*
D11*
X141222618Y-52968832D02*
X141241666Y-52987880D01*
X141241666Y-52987880D02*
X141298808Y-53006927D01*
X141298808Y-53006927D02*
X141336904Y-53006927D01*
X141336904Y-53006927D02*
X141394047Y-52987880D01*
X141394047Y-52987880D02*
X141432142Y-52949784D01*
X141432142Y-52949784D02*
X141451189Y-52911689D01*
X141451189Y-52911689D02*
X141470237Y-52835499D01*
X141470237Y-52835499D02*
X141470237Y-52778356D01*
X141470237Y-52778356D02*
X141451189Y-52702165D01*
X141451189Y-52702165D02*
X141432142Y-52664070D01*
X141432142Y-52664070D02*
X141394047Y-52625975D01*
X141394047Y-52625975D02*
X141336904Y-52606927D01*
X141336904Y-52606927D02*
X141298808Y-52606927D01*
X141298808Y-52606927D02*
X141241666Y-52625975D01*
X141241666Y-52625975D02*
X141222618Y-52645022D01*
X140860713Y-52606927D02*
X141051189Y-52606927D01*
X141051189Y-52606927D02*
X141070237Y-52797403D01*
X141070237Y-52797403D02*
X141051189Y-52778356D01*
X141051189Y-52778356D02*
X141013094Y-52759308D01*
X141013094Y-52759308D02*
X140917856Y-52759308D01*
X140917856Y-52759308D02*
X140879761Y-52778356D01*
X140879761Y-52778356D02*
X140860713Y-52797403D01*
X140860713Y-52797403D02*
X140841666Y-52835499D01*
X140841666Y-52835499D02*
X140841666Y-52930737D01*
X140841666Y-52930737D02*
X140860713Y-52968832D01*
X140860713Y-52968832D02*
X140879761Y-52987880D01*
X140879761Y-52987880D02*
X140917856Y-53006927D01*
X140917856Y-53006927D02*
X141013094Y-53006927D01*
X141013094Y-53006927D02*
X141051189Y-52987880D01*
X141051189Y-52987880D02*
X141070237Y-52968832D01*
X140460714Y-53006927D02*
X140689285Y-53006927D01*
X140574999Y-53006927D02*
X140574999Y-52606927D01*
X140574999Y-52606927D02*
X140613095Y-52664070D01*
X140613095Y-52664070D02*
X140651190Y-52702165D01*
X140651190Y-52702165D02*
X140689285Y-52721213D01*
X140098809Y-52606927D02*
X140289285Y-52606927D01*
X140289285Y-52606927D02*
X140308333Y-52797403D01*
X140308333Y-52797403D02*
X140289285Y-52778356D01*
X140289285Y-52778356D02*
X140251190Y-52759308D01*
X140251190Y-52759308D02*
X140155952Y-52759308D01*
X140155952Y-52759308D02*
X140117857Y-52778356D01*
X140117857Y-52778356D02*
X140098809Y-52797403D01*
X140098809Y-52797403D02*
X140079762Y-52835499D01*
X140079762Y-52835499D02*
X140079762Y-52930737D01*
X140079762Y-52930737D02*
X140098809Y-52968832D01*
X140098809Y-52968832D02*
X140117857Y-52987880D01*
X140117857Y-52987880D02*
X140155952Y-53006927D01*
X140155952Y-53006927D02*
X140251190Y-53006927D01*
X140251190Y-53006927D02*
X140289285Y-52987880D01*
X140289285Y-52987880D02*
X140308333Y-52968832D01*
D10*
X109072619Y-13109819D02*
X109644047Y-13109819D01*
X109358333Y-13109819D02*
X109358333Y-12109819D01*
X109358333Y-12109819D02*
X109453571Y-12252676D01*
X109453571Y-12252676D02*
X109548809Y-12347914D01*
X109548809Y-12347914D02*
X109644047Y-12395533D01*
X108453571Y-12109819D02*
X108358333Y-12109819D01*
X108358333Y-12109819D02*
X108263095Y-12157438D01*
X108263095Y-12157438D02*
X108215476Y-12205057D01*
X108215476Y-12205057D02*
X108167857Y-12300295D01*
X108167857Y-12300295D02*
X108120238Y-12490771D01*
X108120238Y-12490771D02*
X108120238Y-12728866D01*
X108120238Y-12728866D02*
X108167857Y-12919342D01*
X108167857Y-12919342D02*
X108215476Y-13014580D01*
X108215476Y-13014580D02*
X108263095Y-13062200D01*
X108263095Y-13062200D02*
X108358333Y-13109819D01*
X108358333Y-13109819D02*
X108453571Y-13109819D01*
X108453571Y-13109819D02*
X108548809Y-13062200D01*
X108548809Y-13062200D02*
X108596428Y-13014580D01*
X108596428Y-13014580D02*
X108644047Y-12919342D01*
X108644047Y-12919342D02*
X108691666Y-12728866D01*
X108691666Y-12728866D02*
X108691666Y-12490771D01*
X108691666Y-12490771D02*
X108644047Y-12300295D01*
X108644047Y-12300295D02*
X108596428Y-12205057D01*
X108596428Y-12205057D02*
X108548809Y-12157438D01*
X108548809Y-12157438D02*
X108453571Y-12109819D01*
X107501190Y-12109819D02*
X107405952Y-12109819D01*
X107405952Y-12109819D02*
X107310714Y-12157438D01*
X107310714Y-12157438D02*
X107263095Y-12205057D01*
X107263095Y-12205057D02*
X107215476Y-12300295D01*
X107215476Y-12300295D02*
X107167857Y-12490771D01*
X107167857Y-12490771D02*
X107167857Y-12728866D01*
X107167857Y-12728866D02*
X107215476Y-12919342D01*
X107215476Y-12919342D02*
X107263095Y-13014580D01*
X107263095Y-13014580D02*
X107310714Y-13062200D01*
X107310714Y-13062200D02*
X107405952Y-13109819D01*
X107405952Y-13109819D02*
X107501190Y-13109819D01*
X107501190Y-13109819D02*
X107596428Y-13062200D01*
X107596428Y-13062200D02*
X107644047Y-13014580D01*
X107644047Y-13014580D02*
X107691666Y-12919342D01*
X107691666Y-12919342D02*
X107739285Y-12728866D01*
X107739285Y-12728866D02*
X107739285Y-12490771D01*
X107739285Y-12490771D02*
X107691666Y-12300295D01*
X107691666Y-12300295D02*
X107644047Y-12205057D01*
X107644047Y-12205057D02*
X107596428Y-12157438D01*
X107596428Y-12157438D02*
X107501190Y-12109819D01*
X106739285Y-12443152D02*
X106739285Y-13109819D01*
X106739285Y-12538390D02*
X106691666Y-12490771D01*
X106691666Y-12490771D02*
X106596428Y-12443152D01*
X106596428Y-12443152D02*
X106453571Y-12443152D01*
X106453571Y-12443152D02*
X106358333Y-12490771D01*
X106358333Y-12490771D02*
X106310714Y-12586009D01*
X106310714Y-12586009D02*
X106310714Y-13109819D01*
X105501190Y-12586009D02*
X105834523Y-12586009D01*
X105834523Y-13109819D02*
X105834523Y-12109819D01*
X105834523Y-12109819D02*
X105358333Y-12109819D01*
D11*
X107972618Y-11368832D02*
X107991666Y-11387880D01*
X107991666Y-11387880D02*
X108048808Y-11406927D01*
X108048808Y-11406927D02*
X108086904Y-11406927D01*
X108086904Y-11406927D02*
X108144047Y-11387880D01*
X108144047Y-11387880D02*
X108182142Y-11349784D01*
X108182142Y-11349784D02*
X108201189Y-11311689D01*
X108201189Y-11311689D02*
X108220237Y-11235499D01*
X108220237Y-11235499D02*
X108220237Y-11178356D01*
X108220237Y-11178356D02*
X108201189Y-11102165D01*
X108201189Y-11102165D02*
X108182142Y-11064070D01*
X108182142Y-11064070D02*
X108144047Y-11025975D01*
X108144047Y-11025975D02*
X108086904Y-11006927D01*
X108086904Y-11006927D02*
X108048808Y-11006927D01*
X108048808Y-11006927D02*
X107991666Y-11025975D01*
X107991666Y-11025975D02*
X107972618Y-11045022D01*
X107629761Y-11140260D02*
X107629761Y-11406927D01*
X107724999Y-10987880D02*
X107820237Y-11273594D01*
X107820237Y-11273594D02*
X107572618Y-11273594D01*
X107439285Y-11045022D02*
X107420237Y-11025975D01*
X107420237Y-11025975D02*
X107382142Y-11006927D01*
X107382142Y-11006927D02*
X107286904Y-11006927D01*
X107286904Y-11006927D02*
X107248809Y-11025975D01*
X107248809Y-11025975D02*
X107229761Y-11045022D01*
X107229761Y-11045022D02*
X107210714Y-11083118D01*
X107210714Y-11083118D02*
X107210714Y-11121213D01*
X107210714Y-11121213D02*
X107229761Y-11178356D01*
X107229761Y-11178356D02*
X107458333Y-11406927D01*
X107458333Y-11406927D02*
X107210714Y-11406927D01*
X106867857Y-11006927D02*
X106944047Y-11006927D01*
X106944047Y-11006927D02*
X106982143Y-11025975D01*
X106982143Y-11025975D02*
X107001190Y-11045022D01*
X107001190Y-11045022D02*
X107039285Y-11102165D01*
X107039285Y-11102165D02*
X107058333Y-11178356D01*
X107058333Y-11178356D02*
X107058333Y-11330737D01*
X107058333Y-11330737D02*
X107039285Y-11368832D01*
X107039285Y-11368832D02*
X107020238Y-11387880D01*
X107020238Y-11387880D02*
X106982143Y-11406927D01*
X106982143Y-11406927D02*
X106905952Y-11406927D01*
X106905952Y-11406927D02*
X106867857Y-11387880D01*
X106867857Y-11387880D02*
X106848809Y-11368832D01*
X106848809Y-11368832D02*
X106829762Y-11330737D01*
X106829762Y-11330737D02*
X106829762Y-11235499D01*
X106829762Y-11235499D02*
X106848809Y-11197403D01*
X106848809Y-11197403D02*
X106867857Y-11178356D01*
X106867857Y-11178356D02*
X106905952Y-11159308D01*
X106905952Y-11159308D02*
X106982143Y-11159308D01*
X106982143Y-11159308D02*
X107020238Y-11178356D01*
X107020238Y-11178356D02*
X107039285Y-11197403D01*
X107039285Y-11197403D02*
X107058333Y-11235499D01*
D10*
X142322619Y-48259819D02*
X142894047Y-48259819D01*
X142608333Y-48259819D02*
X142608333Y-47259819D01*
X142608333Y-47259819D02*
X142703571Y-47402676D01*
X142703571Y-47402676D02*
X142798809Y-47497914D01*
X142798809Y-47497914D02*
X142894047Y-47545533D01*
X141703571Y-47259819D02*
X141608333Y-47259819D01*
X141608333Y-47259819D02*
X141513095Y-47307438D01*
X141513095Y-47307438D02*
X141465476Y-47355057D01*
X141465476Y-47355057D02*
X141417857Y-47450295D01*
X141417857Y-47450295D02*
X141370238Y-47640771D01*
X141370238Y-47640771D02*
X141370238Y-47878866D01*
X141370238Y-47878866D02*
X141417857Y-48069342D01*
X141417857Y-48069342D02*
X141465476Y-48164580D01*
X141465476Y-48164580D02*
X141513095Y-48212200D01*
X141513095Y-48212200D02*
X141608333Y-48259819D01*
X141608333Y-48259819D02*
X141703571Y-48259819D01*
X141703571Y-48259819D02*
X141798809Y-48212200D01*
X141798809Y-48212200D02*
X141846428Y-48164580D01*
X141846428Y-48164580D02*
X141894047Y-48069342D01*
X141894047Y-48069342D02*
X141941666Y-47878866D01*
X141941666Y-47878866D02*
X141941666Y-47640771D01*
X141941666Y-47640771D02*
X141894047Y-47450295D01*
X141894047Y-47450295D02*
X141846428Y-47355057D01*
X141846428Y-47355057D02*
X141798809Y-47307438D01*
X141798809Y-47307438D02*
X141703571Y-47259819D01*
X140751190Y-47259819D02*
X140655952Y-47259819D01*
X140655952Y-47259819D02*
X140560714Y-47307438D01*
X140560714Y-47307438D02*
X140513095Y-47355057D01*
X140513095Y-47355057D02*
X140465476Y-47450295D01*
X140465476Y-47450295D02*
X140417857Y-47640771D01*
X140417857Y-47640771D02*
X140417857Y-47878866D01*
X140417857Y-47878866D02*
X140465476Y-48069342D01*
X140465476Y-48069342D02*
X140513095Y-48164580D01*
X140513095Y-48164580D02*
X140560714Y-48212200D01*
X140560714Y-48212200D02*
X140655952Y-48259819D01*
X140655952Y-48259819D02*
X140751190Y-48259819D01*
X140751190Y-48259819D02*
X140846428Y-48212200D01*
X140846428Y-48212200D02*
X140894047Y-48164580D01*
X140894047Y-48164580D02*
X140941666Y-48069342D01*
X140941666Y-48069342D02*
X140989285Y-47878866D01*
X140989285Y-47878866D02*
X140989285Y-47640771D01*
X140989285Y-47640771D02*
X140941666Y-47450295D01*
X140941666Y-47450295D02*
X140894047Y-47355057D01*
X140894047Y-47355057D02*
X140846428Y-47307438D01*
X140846428Y-47307438D02*
X140751190Y-47259819D01*
X139989285Y-47593152D02*
X139989285Y-48259819D01*
X139989285Y-47688390D02*
X139941666Y-47640771D01*
X139941666Y-47640771D02*
X139846428Y-47593152D01*
X139846428Y-47593152D02*
X139703571Y-47593152D01*
X139703571Y-47593152D02*
X139608333Y-47640771D01*
X139608333Y-47640771D02*
X139560714Y-47736009D01*
X139560714Y-47736009D02*
X139560714Y-48259819D01*
X138751190Y-47736009D02*
X139084523Y-47736009D01*
X139084523Y-48259819D02*
X139084523Y-47259819D01*
X139084523Y-47259819D02*
X138608333Y-47259819D01*
D11*
X141222618Y-46518832D02*
X141241666Y-46537880D01*
X141241666Y-46537880D02*
X141298808Y-46556927D01*
X141298808Y-46556927D02*
X141336904Y-46556927D01*
X141336904Y-46556927D02*
X141394047Y-46537880D01*
X141394047Y-46537880D02*
X141432142Y-46499784D01*
X141432142Y-46499784D02*
X141451189Y-46461689D01*
X141451189Y-46461689D02*
X141470237Y-46385499D01*
X141470237Y-46385499D02*
X141470237Y-46328356D01*
X141470237Y-46328356D02*
X141451189Y-46252165D01*
X141451189Y-46252165D02*
X141432142Y-46214070D01*
X141432142Y-46214070D02*
X141394047Y-46175975D01*
X141394047Y-46175975D02*
X141336904Y-46156927D01*
X141336904Y-46156927D02*
X141298808Y-46156927D01*
X141298808Y-46156927D02*
X141241666Y-46175975D01*
X141241666Y-46175975D02*
X141222618Y-46195022D01*
X140860713Y-46156927D02*
X141051189Y-46156927D01*
X141051189Y-46156927D02*
X141070237Y-46347403D01*
X141070237Y-46347403D02*
X141051189Y-46328356D01*
X141051189Y-46328356D02*
X141013094Y-46309308D01*
X141013094Y-46309308D02*
X140917856Y-46309308D01*
X140917856Y-46309308D02*
X140879761Y-46328356D01*
X140879761Y-46328356D02*
X140860713Y-46347403D01*
X140860713Y-46347403D02*
X140841666Y-46385499D01*
X140841666Y-46385499D02*
X140841666Y-46480737D01*
X140841666Y-46480737D02*
X140860713Y-46518832D01*
X140860713Y-46518832D02*
X140879761Y-46537880D01*
X140879761Y-46537880D02*
X140917856Y-46556927D01*
X140917856Y-46556927D02*
X141013094Y-46556927D01*
X141013094Y-46556927D02*
X141051189Y-46537880D01*
X141051189Y-46537880D02*
X141070237Y-46518832D01*
X140594047Y-46156927D02*
X140555952Y-46156927D01*
X140555952Y-46156927D02*
X140517856Y-46175975D01*
X140517856Y-46175975D02*
X140498809Y-46195022D01*
X140498809Y-46195022D02*
X140479761Y-46233118D01*
X140479761Y-46233118D02*
X140460714Y-46309308D01*
X140460714Y-46309308D02*
X140460714Y-46404546D01*
X140460714Y-46404546D02*
X140479761Y-46480737D01*
X140479761Y-46480737D02*
X140498809Y-46518832D01*
X140498809Y-46518832D02*
X140517856Y-46537880D01*
X140517856Y-46537880D02*
X140555952Y-46556927D01*
X140555952Y-46556927D02*
X140594047Y-46556927D01*
X140594047Y-46556927D02*
X140632142Y-46537880D01*
X140632142Y-46537880D02*
X140651190Y-46518832D01*
X140651190Y-46518832D02*
X140670237Y-46480737D01*
X140670237Y-46480737D02*
X140689285Y-46404546D01*
X140689285Y-46404546D02*
X140689285Y-46309308D01*
X140689285Y-46309308D02*
X140670237Y-46233118D01*
X140670237Y-46233118D02*
X140651190Y-46195022D01*
X140651190Y-46195022D02*
X140632142Y-46175975D01*
X140632142Y-46175975D02*
X140594047Y-46156927D01*
X140327381Y-46156927D02*
X140060714Y-46156927D01*
X140060714Y-46156927D02*
X140232143Y-46556927D01*
D10*
X138672619Y-50409819D02*
X139244047Y-50409819D01*
X138958333Y-50409819D02*
X138958333Y-49409819D01*
X138958333Y-49409819D02*
X139053571Y-49552676D01*
X139053571Y-49552676D02*
X139148809Y-49647914D01*
X139148809Y-49647914D02*
X139244047Y-49695533D01*
X138053571Y-49409819D02*
X137958333Y-49409819D01*
X137958333Y-49409819D02*
X137863095Y-49457438D01*
X137863095Y-49457438D02*
X137815476Y-49505057D01*
X137815476Y-49505057D02*
X137767857Y-49600295D01*
X137767857Y-49600295D02*
X137720238Y-49790771D01*
X137720238Y-49790771D02*
X137720238Y-50028866D01*
X137720238Y-50028866D02*
X137767857Y-50219342D01*
X137767857Y-50219342D02*
X137815476Y-50314580D01*
X137815476Y-50314580D02*
X137863095Y-50362200D01*
X137863095Y-50362200D02*
X137958333Y-50409819D01*
X137958333Y-50409819D02*
X138053571Y-50409819D01*
X138053571Y-50409819D02*
X138148809Y-50362200D01*
X138148809Y-50362200D02*
X138196428Y-50314580D01*
X138196428Y-50314580D02*
X138244047Y-50219342D01*
X138244047Y-50219342D02*
X138291666Y-50028866D01*
X138291666Y-50028866D02*
X138291666Y-49790771D01*
X138291666Y-49790771D02*
X138244047Y-49600295D01*
X138244047Y-49600295D02*
X138196428Y-49505057D01*
X138196428Y-49505057D02*
X138148809Y-49457438D01*
X138148809Y-49457438D02*
X138053571Y-49409819D01*
X137101190Y-49409819D02*
X137005952Y-49409819D01*
X137005952Y-49409819D02*
X136910714Y-49457438D01*
X136910714Y-49457438D02*
X136863095Y-49505057D01*
X136863095Y-49505057D02*
X136815476Y-49600295D01*
X136815476Y-49600295D02*
X136767857Y-49790771D01*
X136767857Y-49790771D02*
X136767857Y-50028866D01*
X136767857Y-50028866D02*
X136815476Y-50219342D01*
X136815476Y-50219342D02*
X136863095Y-50314580D01*
X136863095Y-50314580D02*
X136910714Y-50362200D01*
X136910714Y-50362200D02*
X137005952Y-50409819D01*
X137005952Y-50409819D02*
X137101190Y-50409819D01*
X137101190Y-50409819D02*
X137196428Y-50362200D01*
X137196428Y-50362200D02*
X137244047Y-50314580D01*
X137244047Y-50314580D02*
X137291666Y-50219342D01*
X137291666Y-50219342D02*
X137339285Y-50028866D01*
X137339285Y-50028866D02*
X137339285Y-49790771D01*
X137339285Y-49790771D02*
X137291666Y-49600295D01*
X137291666Y-49600295D02*
X137244047Y-49505057D01*
X137244047Y-49505057D02*
X137196428Y-49457438D01*
X137196428Y-49457438D02*
X137101190Y-49409819D01*
X136339285Y-49743152D02*
X136339285Y-50409819D01*
X136339285Y-49838390D02*
X136291666Y-49790771D01*
X136291666Y-49790771D02*
X136196428Y-49743152D01*
X136196428Y-49743152D02*
X136053571Y-49743152D01*
X136053571Y-49743152D02*
X135958333Y-49790771D01*
X135958333Y-49790771D02*
X135910714Y-49886009D01*
X135910714Y-49886009D02*
X135910714Y-50409819D01*
X135101190Y-49886009D02*
X135434523Y-49886009D01*
X135434523Y-50409819D02*
X135434523Y-49409819D01*
X135434523Y-49409819D02*
X134958333Y-49409819D01*
D11*
X137572618Y-48668832D02*
X137591666Y-48687880D01*
X137591666Y-48687880D02*
X137648808Y-48706927D01*
X137648808Y-48706927D02*
X137686904Y-48706927D01*
X137686904Y-48706927D02*
X137744047Y-48687880D01*
X137744047Y-48687880D02*
X137782142Y-48649784D01*
X137782142Y-48649784D02*
X137801189Y-48611689D01*
X137801189Y-48611689D02*
X137820237Y-48535499D01*
X137820237Y-48535499D02*
X137820237Y-48478356D01*
X137820237Y-48478356D02*
X137801189Y-48402165D01*
X137801189Y-48402165D02*
X137782142Y-48364070D01*
X137782142Y-48364070D02*
X137744047Y-48325975D01*
X137744047Y-48325975D02*
X137686904Y-48306927D01*
X137686904Y-48306927D02*
X137648808Y-48306927D01*
X137648808Y-48306927D02*
X137591666Y-48325975D01*
X137591666Y-48325975D02*
X137572618Y-48345022D01*
X137210713Y-48306927D02*
X137401189Y-48306927D01*
X137401189Y-48306927D02*
X137420237Y-48497403D01*
X137420237Y-48497403D02*
X137401189Y-48478356D01*
X137401189Y-48478356D02*
X137363094Y-48459308D01*
X137363094Y-48459308D02*
X137267856Y-48459308D01*
X137267856Y-48459308D02*
X137229761Y-48478356D01*
X137229761Y-48478356D02*
X137210713Y-48497403D01*
X137210713Y-48497403D02*
X137191666Y-48535499D01*
X137191666Y-48535499D02*
X137191666Y-48630737D01*
X137191666Y-48630737D02*
X137210713Y-48668832D01*
X137210713Y-48668832D02*
X137229761Y-48687880D01*
X137229761Y-48687880D02*
X137267856Y-48706927D01*
X137267856Y-48706927D02*
X137363094Y-48706927D01*
X137363094Y-48706927D02*
X137401189Y-48687880D01*
X137401189Y-48687880D02*
X137420237Y-48668832D01*
X136944047Y-48306927D02*
X136905952Y-48306927D01*
X136905952Y-48306927D02*
X136867856Y-48325975D01*
X136867856Y-48325975D02*
X136848809Y-48345022D01*
X136848809Y-48345022D02*
X136829761Y-48383118D01*
X136829761Y-48383118D02*
X136810714Y-48459308D01*
X136810714Y-48459308D02*
X136810714Y-48554546D01*
X136810714Y-48554546D02*
X136829761Y-48630737D01*
X136829761Y-48630737D02*
X136848809Y-48668832D01*
X136848809Y-48668832D02*
X136867856Y-48687880D01*
X136867856Y-48687880D02*
X136905952Y-48706927D01*
X136905952Y-48706927D02*
X136944047Y-48706927D01*
X136944047Y-48706927D02*
X136982142Y-48687880D01*
X136982142Y-48687880D02*
X137001190Y-48668832D01*
X137001190Y-48668832D02*
X137020237Y-48630737D01*
X137020237Y-48630737D02*
X137039285Y-48554546D01*
X137039285Y-48554546D02*
X137039285Y-48459308D01*
X137039285Y-48459308D02*
X137020237Y-48383118D01*
X137020237Y-48383118D02*
X137001190Y-48345022D01*
X137001190Y-48345022D02*
X136982142Y-48325975D01*
X136982142Y-48325975D02*
X136944047Y-48306927D01*
X136620238Y-48706927D02*
X136544047Y-48706927D01*
X136544047Y-48706927D02*
X136505952Y-48687880D01*
X136505952Y-48687880D02*
X136486904Y-48668832D01*
X136486904Y-48668832D02*
X136448809Y-48611689D01*
X136448809Y-48611689D02*
X136429762Y-48535499D01*
X136429762Y-48535499D02*
X136429762Y-48383118D01*
X136429762Y-48383118D02*
X136448809Y-48345022D01*
X136448809Y-48345022D02*
X136467857Y-48325975D01*
X136467857Y-48325975D02*
X136505952Y-48306927D01*
X136505952Y-48306927D02*
X136582143Y-48306927D01*
X136582143Y-48306927D02*
X136620238Y-48325975D01*
X136620238Y-48325975D02*
X136639285Y-48345022D01*
X136639285Y-48345022D02*
X136658333Y-48383118D01*
X136658333Y-48383118D02*
X136658333Y-48478356D01*
X136658333Y-48478356D02*
X136639285Y-48516451D01*
X136639285Y-48516451D02*
X136620238Y-48535499D01*
X136620238Y-48535499D02*
X136582143Y-48554546D01*
X136582143Y-48554546D02*
X136505952Y-48554546D01*
X136505952Y-48554546D02*
X136467857Y-48535499D01*
X136467857Y-48535499D02*
X136448809Y-48516451D01*
X136448809Y-48516451D02*
X136429762Y-48478356D01*
D10*
X110072619Y-46459819D02*
X110644047Y-46459819D01*
X110358333Y-46459819D02*
X110358333Y-45459819D01*
X110358333Y-45459819D02*
X110453571Y-45602676D01*
X110453571Y-45602676D02*
X110548809Y-45697914D01*
X110548809Y-45697914D02*
X110644047Y-45745533D01*
X109453571Y-45459819D02*
X109358333Y-45459819D01*
X109358333Y-45459819D02*
X109263095Y-45507438D01*
X109263095Y-45507438D02*
X109215476Y-45555057D01*
X109215476Y-45555057D02*
X109167857Y-45650295D01*
X109167857Y-45650295D02*
X109120238Y-45840771D01*
X109120238Y-45840771D02*
X109120238Y-46078866D01*
X109120238Y-46078866D02*
X109167857Y-46269342D01*
X109167857Y-46269342D02*
X109215476Y-46364580D01*
X109215476Y-46364580D02*
X109263095Y-46412200D01*
X109263095Y-46412200D02*
X109358333Y-46459819D01*
X109358333Y-46459819D02*
X109453571Y-46459819D01*
X109453571Y-46459819D02*
X109548809Y-46412200D01*
X109548809Y-46412200D02*
X109596428Y-46364580D01*
X109596428Y-46364580D02*
X109644047Y-46269342D01*
X109644047Y-46269342D02*
X109691666Y-46078866D01*
X109691666Y-46078866D02*
X109691666Y-45840771D01*
X109691666Y-45840771D02*
X109644047Y-45650295D01*
X109644047Y-45650295D02*
X109596428Y-45555057D01*
X109596428Y-45555057D02*
X109548809Y-45507438D01*
X109548809Y-45507438D02*
X109453571Y-45459819D01*
X108501190Y-45459819D02*
X108405952Y-45459819D01*
X108405952Y-45459819D02*
X108310714Y-45507438D01*
X108310714Y-45507438D02*
X108263095Y-45555057D01*
X108263095Y-45555057D02*
X108215476Y-45650295D01*
X108215476Y-45650295D02*
X108167857Y-45840771D01*
X108167857Y-45840771D02*
X108167857Y-46078866D01*
X108167857Y-46078866D02*
X108215476Y-46269342D01*
X108215476Y-46269342D02*
X108263095Y-46364580D01*
X108263095Y-46364580D02*
X108310714Y-46412200D01*
X108310714Y-46412200D02*
X108405952Y-46459819D01*
X108405952Y-46459819D02*
X108501190Y-46459819D01*
X108501190Y-46459819D02*
X108596428Y-46412200D01*
X108596428Y-46412200D02*
X108644047Y-46364580D01*
X108644047Y-46364580D02*
X108691666Y-46269342D01*
X108691666Y-46269342D02*
X108739285Y-46078866D01*
X108739285Y-46078866D02*
X108739285Y-45840771D01*
X108739285Y-45840771D02*
X108691666Y-45650295D01*
X108691666Y-45650295D02*
X108644047Y-45555057D01*
X108644047Y-45555057D02*
X108596428Y-45507438D01*
X108596428Y-45507438D02*
X108501190Y-45459819D01*
X107739285Y-45793152D02*
X107739285Y-46459819D01*
X107739285Y-45888390D02*
X107691666Y-45840771D01*
X107691666Y-45840771D02*
X107596428Y-45793152D01*
X107596428Y-45793152D02*
X107453571Y-45793152D01*
X107453571Y-45793152D02*
X107358333Y-45840771D01*
X107358333Y-45840771D02*
X107310714Y-45936009D01*
X107310714Y-45936009D02*
X107310714Y-46459819D01*
X106501190Y-45936009D02*
X106834523Y-45936009D01*
X106834523Y-46459819D02*
X106834523Y-45459819D01*
X106834523Y-45459819D02*
X106358333Y-45459819D01*
D11*
X108972618Y-44718832D02*
X108991666Y-44737880D01*
X108991666Y-44737880D02*
X109048808Y-44756927D01*
X109048808Y-44756927D02*
X109086904Y-44756927D01*
X109086904Y-44756927D02*
X109144047Y-44737880D01*
X109144047Y-44737880D02*
X109182142Y-44699784D01*
X109182142Y-44699784D02*
X109201189Y-44661689D01*
X109201189Y-44661689D02*
X109220237Y-44585499D01*
X109220237Y-44585499D02*
X109220237Y-44528356D01*
X109220237Y-44528356D02*
X109201189Y-44452165D01*
X109201189Y-44452165D02*
X109182142Y-44414070D01*
X109182142Y-44414070D02*
X109144047Y-44375975D01*
X109144047Y-44375975D02*
X109086904Y-44356927D01*
X109086904Y-44356927D02*
X109048808Y-44356927D01*
X109048808Y-44356927D02*
X108991666Y-44375975D01*
X108991666Y-44375975D02*
X108972618Y-44395022D01*
X108629761Y-44490260D02*
X108629761Y-44756927D01*
X108724999Y-44337880D02*
X108820237Y-44623594D01*
X108820237Y-44623594D02*
X108572618Y-44623594D01*
X108210714Y-44756927D02*
X108439285Y-44756927D01*
X108324999Y-44756927D02*
X108324999Y-44356927D01*
X108324999Y-44356927D02*
X108363095Y-44414070D01*
X108363095Y-44414070D02*
X108401190Y-44452165D01*
X108401190Y-44452165D02*
X108439285Y-44471213D01*
X107848809Y-44356927D02*
X108039285Y-44356927D01*
X108039285Y-44356927D02*
X108058333Y-44547403D01*
X108058333Y-44547403D02*
X108039285Y-44528356D01*
X108039285Y-44528356D02*
X108001190Y-44509308D01*
X108001190Y-44509308D02*
X107905952Y-44509308D01*
X107905952Y-44509308D02*
X107867857Y-44528356D01*
X107867857Y-44528356D02*
X107848809Y-44547403D01*
X107848809Y-44547403D02*
X107829762Y-44585499D01*
X107829762Y-44585499D02*
X107829762Y-44680737D01*
X107829762Y-44680737D02*
X107848809Y-44718832D01*
X107848809Y-44718832D02*
X107867857Y-44737880D01*
X107867857Y-44737880D02*
X107905952Y-44756927D01*
X107905952Y-44756927D02*
X108001190Y-44756927D01*
X108001190Y-44756927D02*
X108039285Y-44737880D01*
X108039285Y-44737880D02*
X108058333Y-44718832D01*
D10*
X138672619Y-54709819D02*
X139244047Y-54709819D01*
X138958333Y-54709819D02*
X138958333Y-53709819D01*
X138958333Y-53709819D02*
X139053571Y-53852676D01*
X139053571Y-53852676D02*
X139148809Y-53947914D01*
X139148809Y-53947914D02*
X139244047Y-53995533D01*
X138053571Y-53709819D02*
X137958333Y-53709819D01*
X137958333Y-53709819D02*
X137863095Y-53757438D01*
X137863095Y-53757438D02*
X137815476Y-53805057D01*
X137815476Y-53805057D02*
X137767857Y-53900295D01*
X137767857Y-53900295D02*
X137720238Y-54090771D01*
X137720238Y-54090771D02*
X137720238Y-54328866D01*
X137720238Y-54328866D02*
X137767857Y-54519342D01*
X137767857Y-54519342D02*
X137815476Y-54614580D01*
X137815476Y-54614580D02*
X137863095Y-54662200D01*
X137863095Y-54662200D02*
X137958333Y-54709819D01*
X137958333Y-54709819D02*
X138053571Y-54709819D01*
X138053571Y-54709819D02*
X138148809Y-54662200D01*
X138148809Y-54662200D02*
X138196428Y-54614580D01*
X138196428Y-54614580D02*
X138244047Y-54519342D01*
X138244047Y-54519342D02*
X138291666Y-54328866D01*
X138291666Y-54328866D02*
X138291666Y-54090771D01*
X138291666Y-54090771D02*
X138244047Y-53900295D01*
X138244047Y-53900295D02*
X138196428Y-53805057D01*
X138196428Y-53805057D02*
X138148809Y-53757438D01*
X138148809Y-53757438D02*
X138053571Y-53709819D01*
X137101190Y-53709819D02*
X137005952Y-53709819D01*
X137005952Y-53709819D02*
X136910714Y-53757438D01*
X136910714Y-53757438D02*
X136863095Y-53805057D01*
X136863095Y-53805057D02*
X136815476Y-53900295D01*
X136815476Y-53900295D02*
X136767857Y-54090771D01*
X136767857Y-54090771D02*
X136767857Y-54328866D01*
X136767857Y-54328866D02*
X136815476Y-54519342D01*
X136815476Y-54519342D02*
X136863095Y-54614580D01*
X136863095Y-54614580D02*
X136910714Y-54662200D01*
X136910714Y-54662200D02*
X137005952Y-54709819D01*
X137005952Y-54709819D02*
X137101190Y-54709819D01*
X137101190Y-54709819D02*
X137196428Y-54662200D01*
X137196428Y-54662200D02*
X137244047Y-54614580D01*
X137244047Y-54614580D02*
X137291666Y-54519342D01*
X137291666Y-54519342D02*
X137339285Y-54328866D01*
X137339285Y-54328866D02*
X137339285Y-54090771D01*
X137339285Y-54090771D02*
X137291666Y-53900295D01*
X137291666Y-53900295D02*
X137244047Y-53805057D01*
X137244047Y-53805057D02*
X137196428Y-53757438D01*
X137196428Y-53757438D02*
X137101190Y-53709819D01*
X136339285Y-54043152D02*
X136339285Y-54709819D01*
X136339285Y-54138390D02*
X136291666Y-54090771D01*
X136291666Y-54090771D02*
X136196428Y-54043152D01*
X136196428Y-54043152D02*
X136053571Y-54043152D01*
X136053571Y-54043152D02*
X135958333Y-54090771D01*
X135958333Y-54090771D02*
X135910714Y-54186009D01*
X135910714Y-54186009D02*
X135910714Y-54709819D01*
X135101190Y-54186009D02*
X135434523Y-54186009D01*
X135434523Y-54709819D02*
X135434523Y-53709819D01*
X135434523Y-53709819D02*
X134958333Y-53709819D01*
D11*
X137572618Y-52968832D02*
X137591666Y-52987880D01*
X137591666Y-52987880D02*
X137648808Y-53006927D01*
X137648808Y-53006927D02*
X137686904Y-53006927D01*
X137686904Y-53006927D02*
X137744047Y-52987880D01*
X137744047Y-52987880D02*
X137782142Y-52949784D01*
X137782142Y-52949784D02*
X137801189Y-52911689D01*
X137801189Y-52911689D02*
X137820237Y-52835499D01*
X137820237Y-52835499D02*
X137820237Y-52778356D01*
X137820237Y-52778356D02*
X137801189Y-52702165D01*
X137801189Y-52702165D02*
X137782142Y-52664070D01*
X137782142Y-52664070D02*
X137744047Y-52625975D01*
X137744047Y-52625975D02*
X137686904Y-52606927D01*
X137686904Y-52606927D02*
X137648808Y-52606927D01*
X137648808Y-52606927D02*
X137591666Y-52625975D01*
X137591666Y-52625975D02*
X137572618Y-52645022D01*
X137210713Y-52606927D02*
X137401189Y-52606927D01*
X137401189Y-52606927D02*
X137420237Y-52797403D01*
X137420237Y-52797403D02*
X137401189Y-52778356D01*
X137401189Y-52778356D02*
X137363094Y-52759308D01*
X137363094Y-52759308D02*
X137267856Y-52759308D01*
X137267856Y-52759308D02*
X137229761Y-52778356D01*
X137229761Y-52778356D02*
X137210713Y-52797403D01*
X137210713Y-52797403D02*
X137191666Y-52835499D01*
X137191666Y-52835499D02*
X137191666Y-52930737D01*
X137191666Y-52930737D02*
X137210713Y-52968832D01*
X137210713Y-52968832D02*
X137229761Y-52987880D01*
X137229761Y-52987880D02*
X137267856Y-53006927D01*
X137267856Y-53006927D02*
X137363094Y-53006927D01*
X137363094Y-53006927D02*
X137401189Y-52987880D01*
X137401189Y-52987880D02*
X137420237Y-52968832D01*
X136810714Y-53006927D02*
X137039285Y-53006927D01*
X136924999Y-53006927D02*
X136924999Y-52606927D01*
X136924999Y-52606927D02*
X136963095Y-52664070D01*
X136963095Y-52664070D02*
X137001190Y-52702165D01*
X137001190Y-52702165D02*
X137039285Y-52721213D01*
X136467857Y-52740260D02*
X136467857Y-53006927D01*
X136563095Y-52587880D02*
X136658333Y-52873594D01*
X136658333Y-52873594D02*
X136410714Y-52873594D01*
D10*
X124416428Y-42159819D02*
X124987856Y-42159819D01*
X124702142Y-42159819D02*
X124702142Y-41159819D01*
X124702142Y-41159819D02*
X124797380Y-41302676D01*
X124797380Y-41302676D02*
X124892618Y-41397914D01*
X124892618Y-41397914D02*
X124987856Y-41445533D01*
X123797380Y-41159819D02*
X123702142Y-41159819D01*
X123702142Y-41159819D02*
X123606904Y-41207438D01*
X123606904Y-41207438D02*
X123559285Y-41255057D01*
X123559285Y-41255057D02*
X123511666Y-41350295D01*
X123511666Y-41350295D02*
X123464047Y-41540771D01*
X123464047Y-41540771D02*
X123464047Y-41778866D01*
X123464047Y-41778866D02*
X123511666Y-41969342D01*
X123511666Y-41969342D02*
X123559285Y-42064580D01*
X123559285Y-42064580D02*
X123606904Y-42112200D01*
X123606904Y-42112200D02*
X123702142Y-42159819D01*
X123702142Y-42159819D02*
X123797380Y-42159819D01*
X123797380Y-42159819D02*
X123892618Y-42112200D01*
X123892618Y-42112200D02*
X123940237Y-42064580D01*
X123940237Y-42064580D02*
X123987856Y-41969342D01*
X123987856Y-41969342D02*
X124035475Y-41778866D01*
X124035475Y-41778866D02*
X124035475Y-41540771D01*
X124035475Y-41540771D02*
X123987856Y-41350295D01*
X123987856Y-41350295D02*
X123940237Y-41255057D01*
X123940237Y-41255057D02*
X123892618Y-41207438D01*
X123892618Y-41207438D02*
X123797380Y-41159819D01*
X122606904Y-41493152D02*
X122606904Y-42159819D01*
X123035475Y-41493152D02*
X123035475Y-42016961D01*
X123035475Y-42016961D02*
X122987856Y-42112200D01*
X122987856Y-42112200D02*
X122892618Y-42159819D01*
X122892618Y-42159819D02*
X122749761Y-42159819D01*
X122749761Y-42159819D02*
X122654523Y-42112200D01*
X122654523Y-42112200D02*
X122606904Y-42064580D01*
X121797380Y-41636009D02*
X122130713Y-41636009D01*
X122130713Y-42159819D02*
X122130713Y-41159819D01*
X122130713Y-41159819D02*
X121654523Y-41159819D01*
D12*
X123904523Y-40204530D02*
X123928332Y-40228340D01*
X123928332Y-40228340D02*
X123999761Y-40252149D01*
X123999761Y-40252149D02*
X124047380Y-40252149D01*
X124047380Y-40252149D02*
X124118808Y-40228340D01*
X124118808Y-40228340D02*
X124166427Y-40180720D01*
X124166427Y-40180720D02*
X124190237Y-40133101D01*
X124190237Y-40133101D02*
X124214046Y-40037863D01*
X124214046Y-40037863D02*
X124214046Y-39966435D01*
X124214046Y-39966435D02*
X124190237Y-39871197D01*
X124190237Y-39871197D02*
X124166427Y-39823578D01*
X124166427Y-39823578D02*
X124118808Y-39775959D01*
X124118808Y-39775959D02*
X124047380Y-39752149D01*
X124047380Y-39752149D02*
X123999761Y-39752149D01*
X123999761Y-39752149D02*
X123928332Y-39775959D01*
X123928332Y-39775959D02*
X123904523Y-39799768D01*
X123475951Y-39918816D02*
X123475951Y-40252149D01*
X123594999Y-39728340D02*
X123714046Y-40085482D01*
X123714046Y-40085482D02*
X123404523Y-40085482D01*
X123118809Y-39752149D02*
X123071190Y-39752149D01*
X123071190Y-39752149D02*
X123023571Y-39775959D01*
X123023571Y-39775959D02*
X122999761Y-39799768D01*
X122999761Y-39799768D02*
X122975952Y-39847387D01*
X122975952Y-39847387D02*
X122952142Y-39942625D01*
X122952142Y-39942625D02*
X122952142Y-40061673D01*
X122952142Y-40061673D02*
X122975952Y-40156911D01*
X122975952Y-40156911D02*
X122999761Y-40204530D01*
X122999761Y-40204530D02*
X123023571Y-40228340D01*
X123023571Y-40228340D02*
X123071190Y-40252149D01*
X123071190Y-40252149D02*
X123118809Y-40252149D01*
X123118809Y-40252149D02*
X123166428Y-40228340D01*
X123166428Y-40228340D02*
X123190237Y-40204530D01*
X123190237Y-40204530D02*
X123214047Y-40156911D01*
X123214047Y-40156911D02*
X123237856Y-40061673D01*
X123237856Y-40061673D02*
X123237856Y-39942625D01*
X123237856Y-39942625D02*
X123214047Y-39847387D01*
X123214047Y-39847387D02*
X123190237Y-39799768D01*
X123190237Y-39799768D02*
X123166428Y-39775959D01*
X123166428Y-39775959D02*
X123118809Y-39752149D01*
X122714047Y-40252149D02*
X122618809Y-40252149D01*
X122618809Y-40252149D02*
X122571190Y-40228340D01*
X122571190Y-40228340D02*
X122547381Y-40204530D01*
X122547381Y-40204530D02*
X122499762Y-40133101D01*
X122499762Y-40133101D02*
X122475952Y-40037863D01*
X122475952Y-40037863D02*
X122475952Y-39847387D01*
X122475952Y-39847387D02*
X122499762Y-39799768D01*
X122499762Y-39799768D02*
X122523571Y-39775959D01*
X122523571Y-39775959D02*
X122571190Y-39752149D01*
X122571190Y-39752149D02*
X122666428Y-39752149D01*
X122666428Y-39752149D02*
X122714047Y-39775959D01*
X122714047Y-39775959D02*
X122737857Y-39799768D01*
X122737857Y-39799768D02*
X122761666Y-39847387D01*
X122761666Y-39847387D02*
X122761666Y-39966435D01*
X122761666Y-39966435D02*
X122737857Y-40014054D01*
X122737857Y-40014054D02*
X122714047Y-40037863D01*
X122714047Y-40037863D02*
X122666428Y-40061673D01*
X122666428Y-40061673D02*
X122571190Y-40061673D01*
X122571190Y-40061673D02*
X122523571Y-40037863D01*
X122523571Y-40037863D02*
X122499762Y-40014054D01*
X122499762Y-40014054D02*
X122475952Y-39966435D01*
D10*
X110072619Y-41659819D02*
X110644047Y-41659819D01*
X110358333Y-41659819D02*
X110358333Y-40659819D01*
X110358333Y-40659819D02*
X110453571Y-40802676D01*
X110453571Y-40802676D02*
X110548809Y-40897914D01*
X110548809Y-40897914D02*
X110644047Y-40945533D01*
X109453571Y-40659819D02*
X109358333Y-40659819D01*
X109358333Y-40659819D02*
X109263095Y-40707438D01*
X109263095Y-40707438D02*
X109215476Y-40755057D01*
X109215476Y-40755057D02*
X109167857Y-40850295D01*
X109167857Y-40850295D02*
X109120238Y-41040771D01*
X109120238Y-41040771D02*
X109120238Y-41278866D01*
X109120238Y-41278866D02*
X109167857Y-41469342D01*
X109167857Y-41469342D02*
X109215476Y-41564580D01*
X109215476Y-41564580D02*
X109263095Y-41612200D01*
X109263095Y-41612200D02*
X109358333Y-41659819D01*
X109358333Y-41659819D02*
X109453571Y-41659819D01*
X109453571Y-41659819D02*
X109548809Y-41612200D01*
X109548809Y-41612200D02*
X109596428Y-41564580D01*
X109596428Y-41564580D02*
X109644047Y-41469342D01*
X109644047Y-41469342D02*
X109691666Y-41278866D01*
X109691666Y-41278866D02*
X109691666Y-41040771D01*
X109691666Y-41040771D02*
X109644047Y-40850295D01*
X109644047Y-40850295D02*
X109596428Y-40755057D01*
X109596428Y-40755057D02*
X109548809Y-40707438D01*
X109548809Y-40707438D02*
X109453571Y-40659819D01*
X108501190Y-40659819D02*
X108405952Y-40659819D01*
X108405952Y-40659819D02*
X108310714Y-40707438D01*
X108310714Y-40707438D02*
X108263095Y-40755057D01*
X108263095Y-40755057D02*
X108215476Y-40850295D01*
X108215476Y-40850295D02*
X108167857Y-41040771D01*
X108167857Y-41040771D02*
X108167857Y-41278866D01*
X108167857Y-41278866D02*
X108215476Y-41469342D01*
X108215476Y-41469342D02*
X108263095Y-41564580D01*
X108263095Y-41564580D02*
X108310714Y-41612200D01*
X108310714Y-41612200D02*
X108405952Y-41659819D01*
X108405952Y-41659819D02*
X108501190Y-41659819D01*
X108501190Y-41659819D02*
X108596428Y-41612200D01*
X108596428Y-41612200D02*
X108644047Y-41564580D01*
X108644047Y-41564580D02*
X108691666Y-41469342D01*
X108691666Y-41469342D02*
X108739285Y-41278866D01*
X108739285Y-41278866D02*
X108739285Y-41040771D01*
X108739285Y-41040771D02*
X108691666Y-40850295D01*
X108691666Y-40850295D02*
X108644047Y-40755057D01*
X108644047Y-40755057D02*
X108596428Y-40707438D01*
X108596428Y-40707438D02*
X108501190Y-40659819D01*
X107739285Y-40993152D02*
X107739285Y-41659819D01*
X107739285Y-41088390D02*
X107691666Y-41040771D01*
X107691666Y-41040771D02*
X107596428Y-40993152D01*
X107596428Y-40993152D02*
X107453571Y-40993152D01*
X107453571Y-40993152D02*
X107358333Y-41040771D01*
X107358333Y-41040771D02*
X107310714Y-41136009D01*
X107310714Y-41136009D02*
X107310714Y-41659819D01*
X106501190Y-41136009D02*
X106834523Y-41136009D01*
X106834523Y-41659819D02*
X106834523Y-40659819D01*
X106834523Y-40659819D02*
X106358333Y-40659819D01*
D11*
X108972618Y-39918832D02*
X108991666Y-39937880D01*
X108991666Y-39937880D02*
X109048808Y-39956927D01*
X109048808Y-39956927D02*
X109086904Y-39956927D01*
X109086904Y-39956927D02*
X109144047Y-39937880D01*
X109144047Y-39937880D02*
X109182142Y-39899784D01*
X109182142Y-39899784D02*
X109201189Y-39861689D01*
X109201189Y-39861689D02*
X109220237Y-39785499D01*
X109220237Y-39785499D02*
X109220237Y-39728356D01*
X109220237Y-39728356D02*
X109201189Y-39652165D01*
X109201189Y-39652165D02*
X109182142Y-39614070D01*
X109182142Y-39614070D02*
X109144047Y-39575975D01*
X109144047Y-39575975D02*
X109086904Y-39556927D01*
X109086904Y-39556927D02*
X109048808Y-39556927D01*
X109048808Y-39556927D02*
X108991666Y-39575975D01*
X108991666Y-39575975D02*
X108972618Y-39595022D01*
X108629761Y-39690260D02*
X108629761Y-39956927D01*
X108724999Y-39537880D02*
X108820237Y-39823594D01*
X108820237Y-39823594D02*
X108572618Y-39823594D01*
X108344047Y-39556927D02*
X108305952Y-39556927D01*
X108305952Y-39556927D02*
X108267856Y-39575975D01*
X108267856Y-39575975D02*
X108248809Y-39595022D01*
X108248809Y-39595022D02*
X108229761Y-39633118D01*
X108229761Y-39633118D02*
X108210714Y-39709308D01*
X108210714Y-39709308D02*
X108210714Y-39804546D01*
X108210714Y-39804546D02*
X108229761Y-39880737D01*
X108229761Y-39880737D02*
X108248809Y-39918832D01*
X108248809Y-39918832D02*
X108267856Y-39937880D01*
X108267856Y-39937880D02*
X108305952Y-39956927D01*
X108305952Y-39956927D02*
X108344047Y-39956927D01*
X108344047Y-39956927D02*
X108382142Y-39937880D01*
X108382142Y-39937880D02*
X108401190Y-39918832D01*
X108401190Y-39918832D02*
X108420237Y-39880737D01*
X108420237Y-39880737D02*
X108439285Y-39804546D01*
X108439285Y-39804546D02*
X108439285Y-39709308D01*
X108439285Y-39709308D02*
X108420237Y-39633118D01*
X108420237Y-39633118D02*
X108401190Y-39595022D01*
X108401190Y-39595022D02*
X108382142Y-39575975D01*
X108382142Y-39575975D02*
X108344047Y-39556927D01*
X107848809Y-39556927D02*
X108039285Y-39556927D01*
X108039285Y-39556927D02*
X108058333Y-39747403D01*
X108058333Y-39747403D02*
X108039285Y-39728356D01*
X108039285Y-39728356D02*
X108001190Y-39709308D01*
X108001190Y-39709308D02*
X107905952Y-39709308D01*
X107905952Y-39709308D02*
X107867857Y-39728356D01*
X107867857Y-39728356D02*
X107848809Y-39747403D01*
X107848809Y-39747403D02*
X107829762Y-39785499D01*
X107829762Y-39785499D02*
X107829762Y-39880737D01*
X107829762Y-39880737D02*
X107848809Y-39918832D01*
X107848809Y-39918832D02*
X107867857Y-39937880D01*
X107867857Y-39937880D02*
X107905952Y-39956927D01*
X107905952Y-39956927D02*
X108001190Y-39956927D01*
X108001190Y-39956927D02*
X108039285Y-39937880D01*
X108039285Y-39937880D02*
X108058333Y-39918832D01*
D10*
X113722619Y-44309819D02*
X114294047Y-44309819D01*
X114008333Y-44309819D02*
X114008333Y-43309819D01*
X114008333Y-43309819D02*
X114103571Y-43452676D01*
X114103571Y-43452676D02*
X114198809Y-43547914D01*
X114198809Y-43547914D02*
X114294047Y-43595533D01*
X113103571Y-43309819D02*
X113008333Y-43309819D01*
X113008333Y-43309819D02*
X112913095Y-43357438D01*
X112913095Y-43357438D02*
X112865476Y-43405057D01*
X112865476Y-43405057D02*
X112817857Y-43500295D01*
X112817857Y-43500295D02*
X112770238Y-43690771D01*
X112770238Y-43690771D02*
X112770238Y-43928866D01*
X112770238Y-43928866D02*
X112817857Y-44119342D01*
X112817857Y-44119342D02*
X112865476Y-44214580D01*
X112865476Y-44214580D02*
X112913095Y-44262200D01*
X112913095Y-44262200D02*
X113008333Y-44309819D01*
X113008333Y-44309819D02*
X113103571Y-44309819D01*
X113103571Y-44309819D02*
X113198809Y-44262200D01*
X113198809Y-44262200D02*
X113246428Y-44214580D01*
X113246428Y-44214580D02*
X113294047Y-44119342D01*
X113294047Y-44119342D02*
X113341666Y-43928866D01*
X113341666Y-43928866D02*
X113341666Y-43690771D01*
X113341666Y-43690771D02*
X113294047Y-43500295D01*
X113294047Y-43500295D02*
X113246428Y-43405057D01*
X113246428Y-43405057D02*
X113198809Y-43357438D01*
X113198809Y-43357438D02*
X113103571Y-43309819D01*
X112151190Y-43309819D02*
X112055952Y-43309819D01*
X112055952Y-43309819D02*
X111960714Y-43357438D01*
X111960714Y-43357438D02*
X111913095Y-43405057D01*
X111913095Y-43405057D02*
X111865476Y-43500295D01*
X111865476Y-43500295D02*
X111817857Y-43690771D01*
X111817857Y-43690771D02*
X111817857Y-43928866D01*
X111817857Y-43928866D02*
X111865476Y-44119342D01*
X111865476Y-44119342D02*
X111913095Y-44214580D01*
X111913095Y-44214580D02*
X111960714Y-44262200D01*
X111960714Y-44262200D02*
X112055952Y-44309819D01*
X112055952Y-44309819D02*
X112151190Y-44309819D01*
X112151190Y-44309819D02*
X112246428Y-44262200D01*
X112246428Y-44262200D02*
X112294047Y-44214580D01*
X112294047Y-44214580D02*
X112341666Y-44119342D01*
X112341666Y-44119342D02*
X112389285Y-43928866D01*
X112389285Y-43928866D02*
X112389285Y-43690771D01*
X112389285Y-43690771D02*
X112341666Y-43500295D01*
X112341666Y-43500295D02*
X112294047Y-43405057D01*
X112294047Y-43405057D02*
X112246428Y-43357438D01*
X112246428Y-43357438D02*
X112151190Y-43309819D01*
X111389285Y-43643152D02*
X111389285Y-44309819D01*
X111389285Y-43738390D02*
X111341666Y-43690771D01*
X111341666Y-43690771D02*
X111246428Y-43643152D01*
X111246428Y-43643152D02*
X111103571Y-43643152D01*
X111103571Y-43643152D02*
X111008333Y-43690771D01*
X111008333Y-43690771D02*
X110960714Y-43786009D01*
X110960714Y-43786009D02*
X110960714Y-44309819D01*
X110151190Y-43786009D02*
X110484523Y-43786009D01*
X110484523Y-44309819D02*
X110484523Y-43309819D01*
X110484523Y-43309819D02*
X110008333Y-43309819D01*
D11*
X112622618Y-42568832D02*
X112641666Y-42587880D01*
X112641666Y-42587880D02*
X112698808Y-42606927D01*
X112698808Y-42606927D02*
X112736904Y-42606927D01*
X112736904Y-42606927D02*
X112794047Y-42587880D01*
X112794047Y-42587880D02*
X112832142Y-42549784D01*
X112832142Y-42549784D02*
X112851189Y-42511689D01*
X112851189Y-42511689D02*
X112870237Y-42435499D01*
X112870237Y-42435499D02*
X112870237Y-42378356D01*
X112870237Y-42378356D02*
X112851189Y-42302165D01*
X112851189Y-42302165D02*
X112832142Y-42264070D01*
X112832142Y-42264070D02*
X112794047Y-42225975D01*
X112794047Y-42225975D02*
X112736904Y-42206927D01*
X112736904Y-42206927D02*
X112698808Y-42206927D01*
X112698808Y-42206927D02*
X112641666Y-42225975D01*
X112641666Y-42225975D02*
X112622618Y-42245022D01*
X112279761Y-42340260D02*
X112279761Y-42606927D01*
X112374999Y-42187880D02*
X112470237Y-42473594D01*
X112470237Y-42473594D02*
X112222618Y-42473594D01*
X111860714Y-42606927D02*
X112089285Y-42606927D01*
X111974999Y-42606927D02*
X111974999Y-42206927D01*
X111974999Y-42206927D02*
X112013095Y-42264070D01*
X112013095Y-42264070D02*
X112051190Y-42302165D01*
X112051190Y-42302165D02*
X112089285Y-42321213D01*
X111479762Y-42606927D02*
X111708333Y-42606927D01*
X111594047Y-42606927D02*
X111594047Y-42206927D01*
X111594047Y-42206927D02*
X111632143Y-42264070D01*
X111632143Y-42264070D02*
X111670238Y-42302165D01*
X111670238Y-42302165D02*
X111708333Y-42321213D01*
D10*
X116116428Y-13609819D02*
X116687856Y-13609819D01*
X116402142Y-13609819D02*
X116402142Y-12609819D01*
X116402142Y-12609819D02*
X116497380Y-12752676D01*
X116497380Y-12752676D02*
X116592618Y-12847914D01*
X116592618Y-12847914D02*
X116687856Y-12895533D01*
X115497380Y-12609819D02*
X115402142Y-12609819D01*
X115402142Y-12609819D02*
X115306904Y-12657438D01*
X115306904Y-12657438D02*
X115259285Y-12705057D01*
X115259285Y-12705057D02*
X115211666Y-12800295D01*
X115211666Y-12800295D02*
X115164047Y-12990771D01*
X115164047Y-12990771D02*
X115164047Y-13228866D01*
X115164047Y-13228866D02*
X115211666Y-13419342D01*
X115211666Y-13419342D02*
X115259285Y-13514580D01*
X115259285Y-13514580D02*
X115306904Y-13562200D01*
X115306904Y-13562200D02*
X115402142Y-13609819D01*
X115402142Y-13609819D02*
X115497380Y-13609819D01*
X115497380Y-13609819D02*
X115592618Y-13562200D01*
X115592618Y-13562200D02*
X115640237Y-13514580D01*
X115640237Y-13514580D02*
X115687856Y-13419342D01*
X115687856Y-13419342D02*
X115735475Y-13228866D01*
X115735475Y-13228866D02*
X115735475Y-12990771D01*
X115735475Y-12990771D02*
X115687856Y-12800295D01*
X115687856Y-12800295D02*
X115640237Y-12705057D01*
X115640237Y-12705057D02*
X115592618Y-12657438D01*
X115592618Y-12657438D02*
X115497380Y-12609819D01*
X114306904Y-12943152D02*
X114306904Y-13609819D01*
X114735475Y-12943152D02*
X114735475Y-13466961D01*
X114735475Y-13466961D02*
X114687856Y-13562200D01*
X114687856Y-13562200D02*
X114592618Y-13609819D01*
X114592618Y-13609819D02*
X114449761Y-13609819D01*
X114449761Y-13609819D02*
X114354523Y-13562200D01*
X114354523Y-13562200D02*
X114306904Y-13514580D01*
X113497380Y-13086009D02*
X113830713Y-13086009D01*
X113830713Y-13609819D02*
X113830713Y-12609819D01*
X113830713Y-12609819D02*
X113354523Y-12609819D01*
D12*
X115604523Y-11654530D02*
X115628332Y-11678340D01*
X115628332Y-11678340D02*
X115699761Y-11702149D01*
X115699761Y-11702149D02*
X115747380Y-11702149D01*
X115747380Y-11702149D02*
X115818808Y-11678340D01*
X115818808Y-11678340D02*
X115866427Y-11630720D01*
X115866427Y-11630720D02*
X115890237Y-11583101D01*
X115890237Y-11583101D02*
X115914046Y-11487863D01*
X115914046Y-11487863D02*
X115914046Y-11416435D01*
X115914046Y-11416435D02*
X115890237Y-11321197D01*
X115890237Y-11321197D02*
X115866427Y-11273578D01*
X115866427Y-11273578D02*
X115818808Y-11225959D01*
X115818808Y-11225959D02*
X115747380Y-11202149D01*
X115747380Y-11202149D02*
X115699761Y-11202149D01*
X115699761Y-11202149D02*
X115628332Y-11225959D01*
X115628332Y-11225959D02*
X115604523Y-11249768D01*
X115175951Y-11368816D02*
X115175951Y-11702149D01*
X115294999Y-11178340D02*
X115414046Y-11535482D01*
X115414046Y-11535482D02*
X115104523Y-11535482D01*
X114937856Y-11249768D02*
X114914047Y-11225959D01*
X114914047Y-11225959D02*
X114866428Y-11202149D01*
X114866428Y-11202149D02*
X114747380Y-11202149D01*
X114747380Y-11202149D02*
X114699761Y-11225959D01*
X114699761Y-11225959D02*
X114675952Y-11249768D01*
X114675952Y-11249768D02*
X114652142Y-11297387D01*
X114652142Y-11297387D02*
X114652142Y-11345006D01*
X114652142Y-11345006D02*
X114675952Y-11416435D01*
X114675952Y-11416435D02*
X114961666Y-11702149D01*
X114961666Y-11702149D02*
X114652142Y-11702149D01*
X114366428Y-11416435D02*
X114414047Y-11392625D01*
X114414047Y-11392625D02*
X114437857Y-11368816D01*
X114437857Y-11368816D02*
X114461666Y-11321197D01*
X114461666Y-11321197D02*
X114461666Y-11297387D01*
X114461666Y-11297387D02*
X114437857Y-11249768D01*
X114437857Y-11249768D02*
X114414047Y-11225959D01*
X114414047Y-11225959D02*
X114366428Y-11202149D01*
X114366428Y-11202149D02*
X114271190Y-11202149D01*
X114271190Y-11202149D02*
X114223571Y-11225959D01*
X114223571Y-11225959D02*
X114199762Y-11249768D01*
X114199762Y-11249768D02*
X114175952Y-11297387D01*
X114175952Y-11297387D02*
X114175952Y-11321197D01*
X114175952Y-11321197D02*
X114199762Y-11368816D01*
X114199762Y-11368816D02*
X114223571Y-11392625D01*
X114223571Y-11392625D02*
X114271190Y-11416435D01*
X114271190Y-11416435D02*
X114366428Y-11416435D01*
X114366428Y-11416435D02*
X114414047Y-11440244D01*
X114414047Y-11440244D02*
X114437857Y-11464054D01*
X114437857Y-11464054D02*
X114461666Y-11511673D01*
X114461666Y-11511673D02*
X114461666Y-11606911D01*
X114461666Y-11606911D02*
X114437857Y-11654530D01*
X114437857Y-11654530D02*
X114414047Y-11678340D01*
X114414047Y-11678340D02*
X114366428Y-11702149D01*
X114366428Y-11702149D02*
X114271190Y-11702149D01*
X114271190Y-11702149D02*
X114223571Y-11678340D01*
X114223571Y-11678340D02*
X114199762Y-11654530D01*
X114199762Y-11654530D02*
X114175952Y-11606911D01*
X114175952Y-11606911D02*
X114175952Y-11511673D01*
X114175952Y-11511673D02*
X114199762Y-11464054D01*
X114199762Y-11464054D02*
X114223571Y-11440244D01*
X114223571Y-11440244D02*
X114271190Y-11416435D01*
D10*
X124672619Y-44309819D02*
X125244047Y-44309819D01*
X124958333Y-44309819D02*
X124958333Y-43309819D01*
X124958333Y-43309819D02*
X125053571Y-43452676D01*
X125053571Y-43452676D02*
X125148809Y-43547914D01*
X125148809Y-43547914D02*
X125244047Y-43595533D01*
X124053571Y-43309819D02*
X123958333Y-43309819D01*
X123958333Y-43309819D02*
X123863095Y-43357438D01*
X123863095Y-43357438D02*
X123815476Y-43405057D01*
X123815476Y-43405057D02*
X123767857Y-43500295D01*
X123767857Y-43500295D02*
X123720238Y-43690771D01*
X123720238Y-43690771D02*
X123720238Y-43928866D01*
X123720238Y-43928866D02*
X123767857Y-44119342D01*
X123767857Y-44119342D02*
X123815476Y-44214580D01*
X123815476Y-44214580D02*
X123863095Y-44262200D01*
X123863095Y-44262200D02*
X123958333Y-44309819D01*
X123958333Y-44309819D02*
X124053571Y-44309819D01*
X124053571Y-44309819D02*
X124148809Y-44262200D01*
X124148809Y-44262200D02*
X124196428Y-44214580D01*
X124196428Y-44214580D02*
X124244047Y-44119342D01*
X124244047Y-44119342D02*
X124291666Y-43928866D01*
X124291666Y-43928866D02*
X124291666Y-43690771D01*
X124291666Y-43690771D02*
X124244047Y-43500295D01*
X124244047Y-43500295D02*
X124196428Y-43405057D01*
X124196428Y-43405057D02*
X124148809Y-43357438D01*
X124148809Y-43357438D02*
X124053571Y-43309819D01*
X123101190Y-43309819D02*
X123005952Y-43309819D01*
X123005952Y-43309819D02*
X122910714Y-43357438D01*
X122910714Y-43357438D02*
X122863095Y-43405057D01*
X122863095Y-43405057D02*
X122815476Y-43500295D01*
X122815476Y-43500295D02*
X122767857Y-43690771D01*
X122767857Y-43690771D02*
X122767857Y-43928866D01*
X122767857Y-43928866D02*
X122815476Y-44119342D01*
X122815476Y-44119342D02*
X122863095Y-44214580D01*
X122863095Y-44214580D02*
X122910714Y-44262200D01*
X122910714Y-44262200D02*
X123005952Y-44309819D01*
X123005952Y-44309819D02*
X123101190Y-44309819D01*
X123101190Y-44309819D02*
X123196428Y-44262200D01*
X123196428Y-44262200D02*
X123244047Y-44214580D01*
X123244047Y-44214580D02*
X123291666Y-44119342D01*
X123291666Y-44119342D02*
X123339285Y-43928866D01*
X123339285Y-43928866D02*
X123339285Y-43690771D01*
X123339285Y-43690771D02*
X123291666Y-43500295D01*
X123291666Y-43500295D02*
X123244047Y-43405057D01*
X123244047Y-43405057D02*
X123196428Y-43357438D01*
X123196428Y-43357438D02*
X123101190Y-43309819D01*
X122339285Y-43643152D02*
X122339285Y-44309819D01*
X122339285Y-43738390D02*
X122291666Y-43690771D01*
X122291666Y-43690771D02*
X122196428Y-43643152D01*
X122196428Y-43643152D02*
X122053571Y-43643152D01*
X122053571Y-43643152D02*
X121958333Y-43690771D01*
X121958333Y-43690771D02*
X121910714Y-43786009D01*
X121910714Y-43786009D02*
X121910714Y-44309819D01*
X121101190Y-43786009D02*
X121434523Y-43786009D01*
X121434523Y-44309819D02*
X121434523Y-43309819D01*
X121434523Y-43309819D02*
X120958333Y-43309819D01*
D11*
X123572618Y-42568832D02*
X123591666Y-42587880D01*
X123591666Y-42587880D02*
X123648808Y-42606927D01*
X123648808Y-42606927D02*
X123686904Y-42606927D01*
X123686904Y-42606927D02*
X123744047Y-42587880D01*
X123744047Y-42587880D02*
X123782142Y-42549784D01*
X123782142Y-42549784D02*
X123801189Y-42511689D01*
X123801189Y-42511689D02*
X123820237Y-42435499D01*
X123820237Y-42435499D02*
X123820237Y-42378356D01*
X123820237Y-42378356D02*
X123801189Y-42302165D01*
X123801189Y-42302165D02*
X123782142Y-42264070D01*
X123782142Y-42264070D02*
X123744047Y-42225975D01*
X123744047Y-42225975D02*
X123686904Y-42206927D01*
X123686904Y-42206927D02*
X123648808Y-42206927D01*
X123648808Y-42206927D02*
X123591666Y-42225975D01*
X123591666Y-42225975D02*
X123572618Y-42245022D01*
X123229761Y-42340260D02*
X123229761Y-42606927D01*
X123324999Y-42187880D02*
X123420237Y-42473594D01*
X123420237Y-42473594D02*
X123172618Y-42473594D01*
X122810714Y-42606927D02*
X123039285Y-42606927D01*
X122924999Y-42606927D02*
X122924999Y-42206927D01*
X122924999Y-42206927D02*
X122963095Y-42264070D01*
X122963095Y-42264070D02*
X123001190Y-42302165D01*
X123001190Y-42302165D02*
X123039285Y-42321213D01*
X122467857Y-42340260D02*
X122467857Y-42606927D01*
X122563095Y-42187880D02*
X122658333Y-42473594D01*
X122658333Y-42473594D02*
X122410714Y-42473594D01*
D10*
X142322619Y-52559819D02*
X142894047Y-52559819D01*
X142608333Y-52559819D02*
X142608333Y-51559819D01*
X142608333Y-51559819D02*
X142703571Y-51702676D01*
X142703571Y-51702676D02*
X142798809Y-51797914D01*
X142798809Y-51797914D02*
X142894047Y-51845533D01*
X141703571Y-51559819D02*
X141608333Y-51559819D01*
X141608333Y-51559819D02*
X141513095Y-51607438D01*
X141513095Y-51607438D02*
X141465476Y-51655057D01*
X141465476Y-51655057D02*
X141417857Y-51750295D01*
X141417857Y-51750295D02*
X141370238Y-51940771D01*
X141370238Y-51940771D02*
X141370238Y-52178866D01*
X141370238Y-52178866D02*
X141417857Y-52369342D01*
X141417857Y-52369342D02*
X141465476Y-52464580D01*
X141465476Y-52464580D02*
X141513095Y-52512200D01*
X141513095Y-52512200D02*
X141608333Y-52559819D01*
X141608333Y-52559819D02*
X141703571Y-52559819D01*
X141703571Y-52559819D02*
X141798809Y-52512200D01*
X141798809Y-52512200D02*
X141846428Y-52464580D01*
X141846428Y-52464580D02*
X141894047Y-52369342D01*
X141894047Y-52369342D02*
X141941666Y-52178866D01*
X141941666Y-52178866D02*
X141941666Y-51940771D01*
X141941666Y-51940771D02*
X141894047Y-51750295D01*
X141894047Y-51750295D02*
X141846428Y-51655057D01*
X141846428Y-51655057D02*
X141798809Y-51607438D01*
X141798809Y-51607438D02*
X141703571Y-51559819D01*
X140751190Y-51559819D02*
X140655952Y-51559819D01*
X140655952Y-51559819D02*
X140560714Y-51607438D01*
X140560714Y-51607438D02*
X140513095Y-51655057D01*
X140513095Y-51655057D02*
X140465476Y-51750295D01*
X140465476Y-51750295D02*
X140417857Y-51940771D01*
X140417857Y-51940771D02*
X140417857Y-52178866D01*
X140417857Y-52178866D02*
X140465476Y-52369342D01*
X140465476Y-52369342D02*
X140513095Y-52464580D01*
X140513095Y-52464580D02*
X140560714Y-52512200D01*
X140560714Y-52512200D02*
X140655952Y-52559819D01*
X140655952Y-52559819D02*
X140751190Y-52559819D01*
X140751190Y-52559819D02*
X140846428Y-52512200D01*
X140846428Y-52512200D02*
X140894047Y-52464580D01*
X140894047Y-52464580D02*
X140941666Y-52369342D01*
X140941666Y-52369342D02*
X140989285Y-52178866D01*
X140989285Y-52178866D02*
X140989285Y-51940771D01*
X140989285Y-51940771D02*
X140941666Y-51750295D01*
X140941666Y-51750295D02*
X140894047Y-51655057D01*
X140894047Y-51655057D02*
X140846428Y-51607438D01*
X140846428Y-51607438D02*
X140751190Y-51559819D01*
X139989285Y-51893152D02*
X139989285Y-52559819D01*
X139989285Y-51988390D02*
X139941666Y-51940771D01*
X139941666Y-51940771D02*
X139846428Y-51893152D01*
X139846428Y-51893152D02*
X139703571Y-51893152D01*
X139703571Y-51893152D02*
X139608333Y-51940771D01*
X139608333Y-51940771D02*
X139560714Y-52036009D01*
X139560714Y-52036009D02*
X139560714Y-52559819D01*
X138751190Y-52036009D02*
X139084523Y-52036009D01*
X139084523Y-52559819D02*
X139084523Y-51559819D01*
X139084523Y-51559819D02*
X138608333Y-51559819D01*
D11*
X141222618Y-50818832D02*
X141241666Y-50837880D01*
X141241666Y-50837880D02*
X141298808Y-50856927D01*
X141298808Y-50856927D02*
X141336904Y-50856927D01*
X141336904Y-50856927D02*
X141394047Y-50837880D01*
X141394047Y-50837880D02*
X141432142Y-50799784D01*
X141432142Y-50799784D02*
X141451189Y-50761689D01*
X141451189Y-50761689D02*
X141470237Y-50685499D01*
X141470237Y-50685499D02*
X141470237Y-50628356D01*
X141470237Y-50628356D02*
X141451189Y-50552165D01*
X141451189Y-50552165D02*
X141432142Y-50514070D01*
X141432142Y-50514070D02*
X141394047Y-50475975D01*
X141394047Y-50475975D02*
X141336904Y-50456927D01*
X141336904Y-50456927D02*
X141298808Y-50456927D01*
X141298808Y-50456927D02*
X141241666Y-50475975D01*
X141241666Y-50475975D02*
X141222618Y-50495022D01*
X140860713Y-50456927D02*
X141051189Y-50456927D01*
X141051189Y-50456927D02*
X141070237Y-50647403D01*
X141070237Y-50647403D02*
X141051189Y-50628356D01*
X141051189Y-50628356D02*
X141013094Y-50609308D01*
X141013094Y-50609308D02*
X140917856Y-50609308D01*
X140917856Y-50609308D02*
X140879761Y-50628356D01*
X140879761Y-50628356D02*
X140860713Y-50647403D01*
X140860713Y-50647403D02*
X140841666Y-50685499D01*
X140841666Y-50685499D02*
X140841666Y-50780737D01*
X140841666Y-50780737D02*
X140860713Y-50818832D01*
X140860713Y-50818832D02*
X140879761Y-50837880D01*
X140879761Y-50837880D02*
X140917856Y-50856927D01*
X140917856Y-50856927D02*
X141013094Y-50856927D01*
X141013094Y-50856927D02*
X141051189Y-50837880D01*
X141051189Y-50837880D02*
X141070237Y-50818832D01*
X140460714Y-50856927D02*
X140689285Y-50856927D01*
X140574999Y-50856927D02*
X140574999Y-50456927D01*
X140574999Y-50456927D02*
X140613095Y-50514070D01*
X140613095Y-50514070D02*
X140651190Y-50552165D01*
X140651190Y-50552165D02*
X140689285Y-50571213D01*
X140327381Y-50456927D02*
X140079762Y-50456927D01*
X140079762Y-50456927D02*
X140213095Y-50609308D01*
X140213095Y-50609308D02*
X140155952Y-50609308D01*
X140155952Y-50609308D02*
X140117857Y-50628356D01*
X140117857Y-50628356D02*
X140098809Y-50647403D01*
X140098809Y-50647403D02*
X140079762Y-50685499D01*
X140079762Y-50685499D02*
X140079762Y-50780737D01*
X140079762Y-50780737D02*
X140098809Y-50818832D01*
X140098809Y-50818832D02*
X140117857Y-50837880D01*
X140117857Y-50837880D02*
X140155952Y-50856927D01*
X140155952Y-50856927D02*
X140270238Y-50856927D01*
X140270238Y-50856927D02*
X140308333Y-50837880D01*
X140308333Y-50837880D02*
X140327381Y-50818832D01*
D10*
X117372619Y-46459819D02*
X117944047Y-46459819D01*
X117658333Y-46459819D02*
X117658333Y-45459819D01*
X117658333Y-45459819D02*
X117753571Y-45602676D01*
X117753571Y-45602676D02*
X117848809Y-45697914D01*
X117848809Y-45697914D02*
X117944047Y-45745533D01*
X116753571Y-45459819D02*
X116658333Y-45459819D01*
X116658333Y-45459819D02*
X116563095Y-45507438D01*
X116563095Y-45507438D02*
X116515476Y-45555057D01*
X116515476Y-45555057D02*
X116467857Y-45650295D01*
X116467857Y-45650295D02*
X116420238Y-45840771D01*
X116420238Y-45840771D02*
X116420238Y-46078866D01*
X116420238Y-46078866D02*
X116467857Y-46269342D01*
X116467857Y-46269342D02*
X116515476Y-46364580D01*
X116515476Y-46364580D02*
X116563095Y-46412200D01*
X116563095Y-46412200D02*
X116658333Y-46459819D01*
X116658333Y-46459819D02*
X116753571Y-46459819D01*
X116753571Y-46459819D02*
X116848809Y-46412200D01*
X116848809Y-46412200D02*
X116896428Y-46364580D01*
X116896428Y-46364580D02*
X116944047Y-46269342D01*
X116944047Y-46269342D02*
X116991666Y-46078866D01*
X116991666Y-46078866D02*
X116991666Y-45840771D01*
X116991666Y-45840771D02*
X116944047Y-45650295D01*
X116944047Y-45650295D02*
X116896428Y-45555057D01*
X116896428Y-45555057D02*
X116848809Y-45507438D01*
X116848809Y-45507438D02*
X116753571Y-45459819D01*
X115801190Y-45459819D02*
X115705952Y-45459819D01*
X115705952Y-45459819D02*
X115610714Y-45507438D01*
X115610714Y-45507438D02*
X115563095Y-45555057D01*
X115563095Y-45555057D02*
X115515476Y-45650295D01*
X115515476Y-45650295D02*
X115467857Y-45840771D01*
X115467857Y-45840771D02*
X115467857Y-46078866D01*
X115467857Y-46078866D02*
X115515476Y-46269342D01*
X115515476Y-46269342D02*
X115563095Y-46364580D01*
X115563095Y-46364580D02*
X115610714Y-46412200D01*
X115610714Y-46412200D02*
X115705952Y-46459819D01*
X115705952Y-46459819D02*
X115801190Y-46459819D01*
X115801190Y-46459819D02*
X115896428Y-46412200D01*
X115896428Y-46412200D02*
X115944047Y-46364580D01*
X115944047Y-46364580D02*
X115991666Y-46269342D01*
X115991666Y-46269342D02*
X116039285Y-46078866D01*
X116039285Y-46078866D02*
X116039285Y-45840771D01*
X116039285Y-45840771D02*
X115991666Y-45650295D01*
X115991666Y-45650295D02*
X115944047Y-45555057D01*
X115944047Y-45555057D02*
X115896428Y-45507438D01*
X115896428Y-45507438D02*
X115801190Y-45459819D01*
X115039285Y-45793152D02*
X115039285Y-46459819D01*
X115039285Y-45888390D02*
X114991666Y-45840771D01*
X114991666Y-45840771D02*
X114896428Y-45793152D01*
X114896428Y-45793152D02*
X114753571Y-45793152D01*
X114753571Y-45793152D02*
X114658333Y-45840771D01*
X114658333Y-45840771D02*
X114610714Y-45936009D01*
X114610714Y-45936009D02*
X114610714Y-46459819D01*
X113801190Y-45936009D02*
X114134523Y-45936009D01*
X114134523Y-46459819D02*
X114134523Y-45459819D01*
X114134523Y-45459819D02*
X113658333Y-45459819D01*
D11*
X116272618Y-44718832D02*
X116291666Y-44737880D01*
X116291666Y-44737880D02*
X116348808Y-44756927D01*
X116348808Y-44756927D02*
X116386904Y-44756927D01*
X116386904Y-44756927D02*
X116444047Y-44737880D01*
X116444047Y-44737880D02*
X116482142Y-44699784D01*
X116482142Y-44699784D02*
X116501189Y-44661689D01*
X116501189Y-44661689D02*
X116520237Y-44585499D01*
X116520237Y-44585499D02*
X116520237Y-44528356D01*
X116520237Y-44528356D02*
X116501189Y-44452165D01*
X116501189Y-44452165D02*
X116482142Y-44414070D01*
X116482142Y-44414070D02*
X116444047Y-44375975D01*
X116444047Y-44375975D02*
X116386904Y-44356927D01*
X116386904Y-44356927D02*
X116348808Y-44356927D01*
X116348808Y-44356927D02*
X116291666Y-44375975D01*
X116291666Y-44375975D02*
X116272618Y-44395022D01*
X115929761Y-44490260D02*
X115929761Y-44756927D01*
X116024999Y-44337880D02*
X116120237Y-44623594D01*
X116120237Y-44623594D02*
X115872618Y-44623594D01*
X115510714Y-44756927D02*
X115739285Y-44756927D01*
X115624999Y-44756927D02*
X115624999Y-44356927D01*
X115624999Y-44356927D02*
X115663095Y-44414070D01*
X115663095Y-44414070D02*
X115701190Y-44452165D01*
X115701190Y-44452165D02*
X115739285Y-44471213D01*
X115377381Y-44356927D02*
X115110714Y-44356927D01*
X115110714Y-44356927D02*
X115282143Y-44756927D01*
D10*
X112722619Y-13109819D02*
X113294047Y-13109819D01*
X113008333Y-13109819D02*
X113008333Y-12109819D01*
X113008333Y-12109819D02*
X113103571Y-12252676D01*
X113103571Y-12252676D02*
X113198809Y-12347914D01*
X113198809Y-12347914D02*
X113294047Y-12395533D01*
X112103571Y-12109819D02*
X112008333Y-12109819D01*
X112008333Y-12109819D02*
X111913095Y-12157438D01*
X111913095Y-12157438D02*
X111865476Y-12205057D01*
X111865476Y-12205057D02*
X111817857Y-12300295D01*
X111817857Y-12300295D02*
X111770238Y-12490771D01*
X111770238Y-12490771D02*
X111770238Y-12728866D01*
X111770238Y-12728866D02*
X111817857Y-12919342D01*
X111817857Y-12919342D02*
X111865476Y-13014580D01*
X111865476Y-13014580D02*
X111913095Y-13062200D01*
X111913095Y-13062200D02*
X112008333Y-13109819D01*
X112008333Y-13109819D02*
X112103571Y-13109819D01*
X112103571Y-13109819D02*
X112198809Y-13062200D01*
X112198809Y-13062200D02*
X112246428Y-13014580D01*
X112246428Y-13014580D02*
X112294047Y-12919342D01*
X112294047Y-12919342D02*
X112341666Y-12728866D01*
X112341666Y-12728866D02*
X112341666Y-12490771D01*
X112341666Y-12490771D02*
X112294047Y-12300295D01*
X112294047Y-12300295D02*
X112246428Y-12205057D01*
X112246428Y-12205057D02*
X112198809Y-12157438D01*
X112198809Y-12157438D02*
X112103571Y-12109819D01*
X111151190Y-12109819D02*
X111055952Y-12109819D01*
X111055952Y-12109819D02*
X110960714Y-12157438D01*
X110960714Y-12157438D02*
X110913095Y-12205057D01*
X110913095Y-12205057D02*
X110865476Y-12300295D01*
X110865476Y-12300295D02*
X110817857Y-12490771D01*
X110817857Y-12490771D02*
X110817857Y-12728866D01*
X110817857Y-12728866D02*
X110865476Y-12919342D01*
X110865476Y-12919342D02*
X110913095Y-13014580D01*
X110913095Y-13014580D02*
X110960714Y-13062200D01*
X110960714Y-13062200D02*
X111055952Y-13109819D01*
X111055952Y-13109819D02*
X111151190Y-13109819D01*
X111151190Y-13109819D02*
X111246428Y-13062200D01*
X111246428Y-13062200D02*
X111294047Y-13014580D01*
X111294047Y-13014580D02*
X111341666Y-12919342D01*
X111341666Y-12919342D02*
X111389285Y-12728866D01*
X111389285Y-12728866D02*
X111389285Y-12490771D01*
X111389285Y-12490771D02*
X111341666Y-12300295D01*
X111341666Y-12300295D02*
X111294047Y-12205057D01*
X111294047Y-12205057D02*
X111246428Y-12157438D01*
X111246428Y-12157438D02*
X111151190Y-12109819D01*
X110389285Y-12443152D02*
X110389285Y-13109819D01*
X110389285Y-12538390D02*
X110341666Y-12490771D01*
X110341666Y-12490771D02*
X110246428Y-12443152D01*
X110246428Y-12443152D02*
X110103571Y-12443152D01*
X110103571Y-12443152D02*
X110008333Y-12490771D01*
X110008333Y-12490771D02*
X109960714Y-12586009D01*
X109960714Y-12586009D02*
X109960714Y-13109819D01*
X109151190Y-12586009D02*
X109484523Y-12586009D01*
X109484523Y-13109819D02*
X109484523Y-12109819D01*
X109484523Y-12109819D02*
X109008333Y-12109819D01*
D11*
X111622618Y-11368832D02*
X111641666Y-11387880D01*
X111641666Y-11387880D02*
X111698808Y-11406927D01*
X111698808Y-11406927D02*
X111736904Y-11406927D01*
X111736904Y-11406927D02*
X111794047Y-11387880D01*
X111794047Y-11387880D02*
X111832142Y-11349784D01*
X111832142Y-11349784D02*
X111851189Y-11311689D01*
X111851189Y-11311689D02*
X111870237Y-11235499D01*
X111870237Y-11235499D02*
X111870237Y-11178356D01*
X111870237Y-11178356D02*
X111851189Y-11102165D01*
X111851189Y-11102165D02*
X111832142Y-11064070D01*
X111832142Y-11064070D02*
X111794047Y-11025975D01*
X111794047Y-11025975D02*
X111736904Y-11006927D01*
X111736904Y-11006927D02*
X111698808Y-11006927D01*
X111698808Y-11006927D02*
X111641666Y-11025975D01*
X111641666Y-11025975D02*
X111622618Y-11045022D01*
X111279761Y-11140260D02*
X111279761Y-11406927D01*
X111374999Y-10987880D02*
X111470237Y-11273594D01*
X111470237Y-11273594D02*
X111222618Y-11273594D01*
X111089285Y-11045022D02*
X111070237Y-11025975D01*
X111070237Y-11025975D02*
X111032142Y-11006927D01*
X111032142Y-11006927D02*
X110936904Y-11006927D01*
X110936904Y-11006927D02*
X110898809Y-11025975D01*
X110898809Y-11025975D02*
X110879761Y-11045022D01*
X110879761Y-11045022D02*
X110860714Y-11083118D01*
X110860714Y-11083118D02*
X110860714Y-11121213D01*
X110860714Y-11121213D02*
X110879761Y-11178356D01*
X110879761Y-11178356D02*
X111108333Y-11406927D01*
X111108333Y-11406927D02*
X110860714Y-11406927D01*
X110727381Y-11006927D02*
X110460714Y-11006927D01*
X110460714Y-11006927D02*
X110632143Y-11406927D01*
D10*
X110072619Y-44309819D02*
X110644047Y-44309819D01*
X110358333Y-44309819D02*
X110358333Y-43309819D01*
X110358333Y-43309819D02*
X110453571Y-43452676D01*
X110453571Y-43452676D02*
X110548809Y-43547914D01*
X110548809Y-43547914D02*
X110644047Y-43595533D01*
X109453571Y-43309819D02*
X109358333Y-43309819D01*
X109358333Y-43309819D02*
X109263095Y-43357438D01*
X109263095Y-43357438D02*
X109215476Y-43405057D01*
X109215476Y-43405057D02*
X109167857Y-43500295D01*
X109167857Y-43500295D02*
X109120238Y-43690771D01*
X109120238Y-43690771D02*
X109120238Y-43928866D01*
X109120238Y-43928866D02*
X109167857Y-44119342D01*
X109167857Y-44119342D02*
X109215476Y-44214580D01*
X109215476Y-44214580D02*
X109263095Y-44262200D01*
X109263095Y-44262200D02*
X109358333Y-44309819D01*
X109358333Y-44309819D02*
X109453571Y-44309819D01*
X109453571Y-44309819D02*
X109548809Y-44262200D01*
X109548809Y-44262200D02*
X109596428Y-44214580D01*
X109596428Y-44214580D02*
X109644047Y-44119342D01*
X109644047Y-44119342D02*
X109691666Y-43928866D01*
X109691666Y-43928866D02*
X109691666Y-43690771D01*
X109691666Y-43690771D02*
X109644047Y-43500295D01*
X109644047Y-43500295D02*
X109596428Y-43405057D01*
X109596428Y-43405057D02*
X109548809Y-43357438D01*
X109548809Y-43357438D02*
X109453571Y-43309819D01*
X108501190Y-43309819D02*
X108405952Y-43309819D01*
X108405952Y-43309819D02*
X108310714Y-43357438D01*
X108310714Y-43357438D02*
X108263095Y-43405057D01*
X108263095Y-43405057D02*
X108215476Y-43500295D01*
X108215476Y-43500295D02*
X108167857Y-43690771D01*
X108167857Y-43690771D02*
X108167857Y-43928866D01*
X108167857Y-43928866D02*
X108215476Y-44119342D01*
X108215476Y-44119342D02*
X108263095Y-44214580D01*
X108263095Y-44214580D02*
X108310714Y-44262200D01*
X108310714Y-44262200D02*
X108405952Y-44309819D01*
X108405952Y-44309819D02*
X108501190Y-44309819D01*
X108501190Y-44309819D02*
X108596428Y-44262200D01*
X108596428Y-44262200D02*
X108644047Y-44214580D01*
X108644047Y-44214580D02*
X108691666Y-44119342D01*
X108691666Y-44119342D02*
X108739285Y-43928866D01*
X108739285Y-43928866D02*
X108739285Y-43690771D01*
X108739285Y-43690771D02*
X108691666Y-43500295D01*
X108691666Y-43500295D02*
X108644047Y-43405057D01*
X108644047Y-43405057D02*
X108596428Y-43357438D01*
X108596428Y-43357438D02*
X108501190Y-43309819D01*
X107739285Y-43643152D02*
X107739285Y-44309819D01*
X107739285Y-43738390D02*
X107691666Y-43690771D01*
X107691666Y-43690771D02*
X107596428Y-43643152D01*
X107596428Y-43643152D02*
X107453571Y-43643152D01*
X107453571Y-43643152D02*
X107358333Y-43690771D01*
X107358333Y-43690771D02*
X107310714Y-43786009D01*
X107310714Y-43786009D02*
X107310714Y-44309819D01*
X106501190Y-43786009D02*
X106834523Y-43786009D01*
X106834523Y-44309819D02*
X106834523Y-43309819D01*
X106834523Y-43309819D02*
X106358333Y-43309819D01*
D11*
X108972618Y-42568832D02*
X108991666Y-42587880D01*
X108991666Y-42587880D02*
X109048808Y-42606927D01*
X109048808Y-42606927D02*
X109086904Y-42606927D01*
X109086904Y-42606927D02*
X109144047Y-42587880D01*
X109144047Y-42587880D02*
X109182142Y-42549784D01*
X109182142Y-42549784D02*
X109201189Y-42511689D01*
X109201189Y-42511689D02*
X109220237Y-42435499D01*
X109220237Y-42435499D02*
X109220237Y-42378356D01*
X109220237Y-42378356D02*
X109201189Y-42302165D01*
X109201189Y-42302165D02*
X109182142Y-42264070D01*
X109182142Y-42264070D02*
X109144047Y-42225975D01*
X109144047Y-42225975D02*
X109086904Y-42206927D01*
X109086904Y-42206927D02*
X109048808Y-42206927D01*
X109048808Y-42206927D02*
X108991666Y-42225975D01*
X108991666Y-42225975D02*
X108972618Y-42245022D01*
X108629761Y-42340260D02*
X108629761Y-42606927D01*
X108724999Y-42187880D02*
X108820237Y-42473594D01*
X108820237Y-42473594D02*
X108572618Y-42473594D01*
X108210714Y-42606927D02*
X108439285Y-42606927D01*
X108324999Y-42606927D02*
X108324999Y-42206927D01*
X108324999Y-42206927D02*
X108363095Y-42264070D01*
X108363095Y-42264070D02*
X108401190Y-42302165D01*
X108401190Y-42302165D02*
X108439285Y-42321213D01*
X107963095Y-42206927D02*
X107925000Y-42206927D01*
X107925000Y-42206927D02*
X107886904Y-42225975D01*
X107886904Y-42225975D02*
X107867857Y-42245022D01*
X107867857Y-42245022D02*
X107848809Y-42283118D01*
X107848809Y-42283118D02*
X107829762Y-42359308D01*
X107829762Y-42359308D02*
X107829762Y-42454546D01*
X107829762Y-42454546D02*
X107848809Y-42530737D01*
X107848809Y-42530737D02*
X107867857Y-42568832D01*
X107867857Y-42568832D02*
X107886904Y-42587880D01*
X107886904Y-42587880D02*
X107925000Y-42606927D01*
X107925000Y-42606927D02*
X107963095Y-42606927D01*
X107963095Y-42606927D02*
X108001190Y-42587880D01*
X108001190Y-42587880D02*
X108020238Y-42568832D01*
X108020238Y-42568832D02*
X108039285Y-42530737D01*
X108039285Y-42530737D02*
X108058333Y-42454546D01*
X108058333Y-42454546D02*
X108058333Y-42359308D01*
X108058333Y-42359308D02*
X108039285Y-42283118D01*
X108039285Y-42283118D02*
X108020238Y-42245022D01*
X108020238Y-42245022D02*
X108001190Y-42225975D01*
X108001190Y-42225975D02*
X107963095Y-42206927D01*
D10*
X117372619Y-44309819D02*
X117944047Y-44309819D01*
X117658333Y-44309819D02*
X117658333Y-43309819D01*
X117658333Y-43309819D02*
X117753571Y-43452676D01*
X117753571Y-43452676D02*
X117848809Y-43547914D01*
X117848809Y-43547914D02*
X117944047Y-43595533D01*
X116753571Y-43309819D02*
X116658333Y-43309819D01*
X116658333Y-43309819D02*
X116563095Y-43357438D01*
X116563095Y-43357438D02*
X116515476Y-43405057D01*
X116515476Y-43405057D02*
X116467857Y-43500295D01*
X116467857Y-43500295D02*
X116420238Y-43690771D01*
X116420238Y-43690771D02*
X116420238Y-43928866D01*
X116420238Y-43928866D02*
X116467857Y-44119342D01*
X116467857Y-44119342D02*
X116515476Y-44214580D01*
X116515476Y-44214580D02*
X116563095Y-44262200D01*
X116563095Y-44262200D02*
X116658333Y-44309819D01*
X116658333Y-44309819D02*
X116753571Y-44309819D01*
X116753571Y-44309819D02*
X116848809Y-44262200D01*
X116848809Y-44262200D02*
X116896428Y-44214580D01*
X116896428Y-44214580D02*
X116944047Y-44119342D01*
X116944047Y-44119342D02*
X116991666Y-43928866D01*
X116991666Y-43928866D02*
X116991666Y-43690771D01*
X116991666Y-43690771D02*
X116944047Y-43500295D01*
X116944047Y-43500295D02*
X116896428Y-43405057D01*
X116896428Y-43405057D02*
X116848809Y-43357438D01*
X116848809Y-43357438D02*
X116753571Y-43309819D01*
X115801190Y-43309819D02*
X115705952Y-43309819D01*
X115705952Y-43309819D02*
X115610714Y-43357438D01*
X115610714Y-43357438D02*
X115563095Y-43405057D01*
X115563095Y-43405057D02*
X115515476Y-43500295D01*
X115515476Y-43500295D02*
X115467857Y-43690771D01*
X115467857Y-43690771D02*
X115467857Y-43928866D01*
X115467857Y-43928866D02*
X115515476Y-44119342D01*
X115515476Y-44119342D02*
X115563095Y-44214580D01*
X115563095Y-44214580D02*
X115610714Y-44262200D01*
X115610714Y-44262200D02*
X115705952Y-44309819D01*
X115705952Y-44309819D02*
X115801190Y-44309819D01*
X115801190Y-44309819D02*
X115896428Y-44262200D01*
X115896428Y-44262200D02*
X115944047Y-44214580D01*
X115944047Y-44214580D02*
X115991666Y-44119342D01*
X115991666Y-44119342D02*
X116039285Y-43928866D01*
X116039285Y-43928866D02*
X116039285Y-43690771D01*
X116039285Y-43690771D02*
X115991666Y-43500295D01*
X115991666Y-43500295D02*
X115944047Y-43405057D01*
X115944047Y-43405057D02*
X115896428Y-43357438D01*
X115896428Y-43357438D02*
X115801190Y-43309819D01*
X115039285Y-43643152D02*
X115039285Y-44309819D01*
X115039285Y-43738390D02*
X114991666Y-43690771D01*
X114991666Y-43690771D02*
X114896428Y-43643152D01*
X114896428Y-43643152D02*
X114753571Y-43643152D01*
X114753571Y-43643152D02*
X114658333Y-43690771D01*
X114658333Y-43690771D02*
X114610714Y-43786009D01*
X114610714Y-43786009D02*
X114610714Y-44309819D01*
X113801190Y-43786009D02*
X114134523Y-43786009D01*
X114134523Y-44309819D02*
X114134523Y-43309819D01*
X114134523Y-43309819D02*
X113658333Y-43309819D01*
D11*
X116272618Y-42568832D02*
X116291666Y-42587880D01*
X116291666Y-42587880D02*
X116348808Y-42606927D01*
X116348808Y-42606927D02*
X116386904Y-42606927D01*
X116386904Y-42606927D02*
X116444047Y-42587880D01*
X116444047Y-42587880D02*
X116482142Y-42549784D01*
X116482142Y-42549784D02*
X116501189Y-42511689D01*
X116501189Y-42511689D02*
X116520237Y-42435499D01*
X116520237Y-42435499D02*
X116520237Y-42378356D01*
X116520237Y-42378356D02*
X116501189Y-42302165D01*
X116501189Y-42302165D02*
X116482142Y-42264070D01*
X116482142Y-42264070D02*
X116444047Y-42225975D01*
X116444047Y-42225975D02*
X116386904Y-42206927D01*
X116386904Y-42206927D02*
X116348808Y-42206927D01*
X116348808Y-42206927D02*
X116291666Y-42225975D01*
X116291666Y-42225975D02*
X116272618Y-42245022D01*
X115929761Y-42340260D02*
X115929761Y-42606927D01*
X116024999Y-42187880D02*
X116120237Y-42473594D01*
X116120237Y-42473594D02*
X115872618Y-42473594D01*
X115510714Y-42606927D02*
X115739285Y-42606927D01*
X115624999Y-42606927D02*
X115624999Y-42206927D01*
X115624999Y-42206927D02*
X115663095Y-42264070D01*
X115663095Y-42264070D02*
X115701190Y-42302165D01*
X115701190Y-42302165D02*
X115739285Y-42321213D01*
X115358333Y-42245022D02*
X115339285Y-42225975D01*
X115339285Y-42225975D02*
X115301190Y-42206927D01*
X115301190Y-42206927D02*
X115205952Y-42206927D01*
X115205952Y-42206927D02*
X115167857Y-42225975D01*
X115167857Y-42225975D02*
X115148809Y-42245022D01*
X115148809Y-42245022D02*
X115129762Y-42283118D01*
X115129762Y-42283118D02*
X115129762Y-42321213D01*
X115129762Y-42321213D02*
X115148809Y-42378356D01*
X115148809Y-42378356D02*
X115377381Y-42606927D01*
X115377381Y-42606927D02*
X115129762Y-42606927D01*
D10*
X138672619Y-48259819D02*
X139244047Y-48259819D01*
X138958333Y-48259819D02*
X138958333Y-47259819D01*
X138958333Y-47259819D02*
X139053571Y-47402676D01*
X139053571Y-47402676D02*
X139148809Y-47497914D01*
X139148809Y-47497914D02*
X139244047Y-47545533D01*
X138053571Y-47259819D02*
X137958333Y-47259819D01*
X137958333Y-47259819D02*
X137863095Y-47307438D01*
X137863095Y-47307438D02*
X137815476Y-47355057D01*
X137815476Y-47355057D02*
X137767857Y-47450295D01*
X137767857Y-47450295D02*
X137720238Y-47640771D01*
X137720238Y-47640771D02*
X137720238Y-47878866D01*
X137720238Y-47878866D02*
X137767857Y-48069342D01*
X137767857Y-48069342D02*
X137815476Y-48164580D01*
X137815476Y-48164580D02*
X137863095Y-48212200D01*
X137863095Y-48212200D02*
X137958333Y-48259819D01*
X137958333Y-48259819D02*
X138053571Y-48259819D01*
X138053571Y-48259819D02*
X138148809Y-48212200D01*
X138148809Y-48212200D02*
X138196428Y-48164580D01*
X138196428Y-48164580D02*
X138244047Y-48069342D01*
X138244047Y-48069342D02*
X138291666Y-47878866D01*
X138291666Y-47878866D02*
X138291666Y-47640771D01*
X138291666Y-47640771D02*
X138244047Y-47450295D01*
X138244047Y-47450295D02*
X138196428Y-47355057D01*
X138196428Y-47355057D02*
X138148809Y-47307438D01*
X138148809Y-47307438D02*
X138053571Y-47259819D01*
X137101190Y-47259819D02*
X137005952Y-47259819D01*
X137005952Y-47259819D02*
X136910714Y-47307438D01*
X136910714Y-47307438D02*
X136863095Y-47355057D01*
X136863095Y-47355057D02*
X136815476Y-47450295D01*
X136815476Y-47450295D02*
X136767857Y-47640771D01*
X136767857Y-47640771D02*
X136767857Y-47878866D01*
X136767857Y-47878866D02*
X136815476Y-48069342D01*
X136815476Y-48069342D02*
X136863095Y-48164580D01*
X136863095Y-48164580D02*
X136910714Y-48212200D01*
X136910714Y-48212200D02*
X137005952Y-48259819D01*
X137005952Y-48259819D02*
X137101190Y-48259819D01*
X137101190Y-48259819D02*
X137196428Y-48212200D01*
X137196428Y-48212200D02*
X137244047Y-48164580D01*
X137244047Y-48164580D02*
X137291666Y-48069342D01*
X137291666Y-48069342D02*
X137339285Y-47878866D01*
X137339285Y-47878866D02*
X137339285Y-47640771D01*
X137339285Y-47640771D02*
X137291666Y-47450295D01*
X137291666Y-47450295D02*
X137244047Y-47355057D01*
X137244047Y-47355057D02*
X137196428Y-47307438D01*
X137196428Y-47307438D02*
X137101190Y-47259819D01*
X136339285Y-47593152D02*
X136339285Y-48259819D01*
X136339285Y-47688390D02*
X136291666Y-47640771D01*
X136291666Y-47640771D02*
X136196428Y-47593152D01*
X136196428Y-47593152D02*
X136053571Y-47593152D01*
X136053571Y-47593152D02*
X135958333Y-47640771D01*
X135958333Y-47640771D02*
X135910714Y-47736009D01*
X135910714Y-47736009D02*
X135910714Y-48259819D01*
X135101190Y-47736009D02*
X135434523Y-47736009D01*
X135434523Y-48259819D02*
X135434523Y-47259819D01*
X135434523Y-47259819D02*
X134958333Y-47259819D01*
D11*
X137572618Y-46518832D02*
X137591666Y-46537880D01*
X137591666Y-46537880D02*
X137648808Y-46556927D01*
X137648808Y-46556927D02*
X137686904Y-46556927D01*
X137686904Y-46556927D02*
X137744047Y-46537880D01*
X137744047Y-46537880D02*
X137782142Y-46499784D01*
X137782142Y-46499784D02*
X137801189Y-46461689D01*
X137801189Y-46461689D02*
X137820237Y-46385499D01*
X137820237Y-46385499D02*
X137820237Y-46328356D01*
X137820237Y-46328356D02*
X137801189Y-46252165D01*
X137801189Y-46252165D02*
X137782142Y-46214070D01*
X137782142Y-46214070D02*
X137744047Y-46175975D01*
X137744047Y-46175975D02*
X137686904Y-46156927D01*
X137686904Y-46156927D02*
X137648808Y-46156927D01*
X137648808Y-46156927D02*
X137591666Y-46175975D01*
X137591666Y-46175975D02*
X137572618Y-46195022D01*
X137210713Y-46156927D02*
X137401189Y-46156927D01*
X137401189Y-46156927D02*
X137420237Y-46347403D01*
X137420237Y-46347403D02*
X137401189Y-46328356D01*
X137401189Y-46328356D02*
X137363094Y-46309308D01*
X137363094Y-46309308D02*
X137267856Y-46309308D01*
X137267856Y-46309308D02*
X137229761Y-46328356D01*
X137229761Y-46328356D02*
X137210713Y-46347403D01*
X137210713Y-46347403D02*
X137191666Y-46385499D01*
X137191666Y-46385499D02*
X137191666Y-46480737D01*
X137191666Y-46480737D02*
X137210713Y-46518832D01*
X137210713Y-46518832D02*
X137229761Y-46537880D01*
X137229761Y-46537880D02*
X137267856Y-46556927D01*
X137267856Y-46556927D02*
X137363094Y-46556927D01*
X137363094Y-46556927D02*
X137401189Y-46537880D01*
X137401189Y-46537880D02*
X137420237Y-46518832D01*
X136944047Y-46156927D02*
X136905952Y-46156927D01*
X136905952Y-46156927D02*
X136867856Y-46175975D01*
X136867856Y-46175975D02*
X136848809Y-46195022D01*
X136848809Y-46195022D02*
X136829761Y-46233118D01*
X136829761Y-46233118D02*
X136810714Y-46309308D01*
X136810714Y-46309308D02*
X136810714Y-46404546D01*
X136810714Y-46404546D02*
X136829761Y-46480737D01*
X136829761Y-46480737D02*
X136848809Y-46518832D01*
X136848809Y-46518832D02*
X136867856Y-46537880D01*
X136867856Y-46537880D02*
X136905952Y-46556927D01*
X136905952Y-46556927D02*
X136944047Y-46556927D01*
X136944047Y-46556927D02*
X136982142Y-46537880D01*
X136982142Y-46537880D02*
X137001190Y-46518832D01*
X137001190Y-46518832D02*
X137020237Y-46480737D01*
X137020237Y-46480737D02*
X137039285Y-46404546D01*
X137039285Y-46404546D02*
X137039285Y-46309308D01*
X137039285Y-46309308D02*
X137020237Y-46233118D01*
X137020237Y-46233118D02*
X137001190Y-46195022D01*
X137001190Y-46195022D02*
X136982142Y-46175975D01*
X136982142Y-46175975D02*
X136944047Y-46156927D01*
X136448809Y-46156927D02*
X136639285Y-46156927D01*
X136639285Y-46156927D02*
X136658333Y-46347403D01*
X136658333Y-46347403D02*
X136639285Y-46328356D01*
X136639285Y-46328356D02*
X136601190Y-46309308D01*
X136601190Y-46309308D02*
X136505952Y-46309308D01*
X136505952Y-46309308D02*
X136467857Y-46328356D01*
X136467857Y-46328356D02*
X136448809Y-46347403D01*
X136448809Y-46347403D02*
X136429762Y-46385499D01*
X136429762Y-46385499D02*
X136429762Y-46480737D01*
X136429762Y-46480737D02*
X136448809Y-46518832D01*
X136448809Y-46518832D02*
X136467857Y-46537880D01*
X136467857Y-46537880D02*
X136505952Y-46556927D01*
X136505952Y-46556927D02*
X136601190Y-46556927D01*
X136601190Y-46556927D02*
X136639285Y-46537880D01*
X136639285Y-46537880D02*
X136658333Y-46518832D01*
D10*
X121022619Y-44309819D02*
X121594047Y-44309819D01*
X121308333Y-44309819D02*
X121308333Y-43309819D01*
X121308333Y-43309819D02*
X121403571Y-43452676D01*
X121403571Y-43452676D02*
X121498809Y-43547914D01*
X121498809Y-43547914D02*
X121594047Y-43595533D01*
X120403571Y-43309819D02*
X120308333Y-43309819D01*
X120308333Y-43309819D02*
X120213095Y-43357438D01*
X120213095Y-43357438D02*
X120165476Y-43405057D01*
X120165476Y-43405057D02*
X120117857Y-43500295D01*
X120117857Y-43500295D02*
X120070238Y-43690771D01*
X120070238Y-43690771D02*
X120070238Y-43928866D01*
X120070238Y-43928866D02*
X120117857Y-44119342D01*
X120117857Y-44119342D02*
X120165476Y-44214580D01*
X120165476Y-44214580D02*
X120213095Y-44262200D01*
X120213095Y-44262200D02*
X120308333Y-44309819D01*
X120308333Y-44309819D02*
X120403571Y-44309819D01*
X120403571Y-44309819D02*
X120498809Y-44262200D01*
X120498809Y-44262200D02*
X120546428Y-44214580D01*
X120546428Y-44214580D02*
X120594047Y-44119342D01*
X120594047Y-44119342D02*
X120641666Y-43928866D01*
X120641666Y-43928866D02*
X120641666Y-43690771D01*
X120641666Y-43690771D02*
X120594047Y-43500295D01*
X120594047Y-43500295D02*
X120546428Y-43405057D01*
X120546428Y-43405057D02*
X120498809Y-43357438D01*
X120498809Y-43357438D02*
X120403571Y-43309819D01*
X119451190Y-43309819D02*
X119355952Y-43309819D01*
X119355952Y-43309819D02*
X119260714Y-43357438D01*
X119260714Y-43357438D02*
X119213095Y-43405057D01*
X119213095Y-43405057D02*
X119165476Y-43500295D01*
X119165476Y-43500295D02*
X119117857Y-43690771D01*
X119117857Y-43690771D02*
X119117857Y-43928866D01*
X119117857Y-43928866D02*
X119165476Y-44119342D01*
X119165476Y-44119342D02*
X119213095Y-44214580D01*
X119213095Y-44214580D02*
X119260714Y-44262200D01*
X119260714Y-44262200D02*
X119355952Y-44309819D01*
X119355952Y-44309819D02*
X119451190Y-44309819D01*
X119451190Y-44309819D02*
X119546428Y-44262200D01*
X119546428Y-44262200D02*
X119594047Y-44214580D01*
X119594047Y-44214580D02*
X119641666Y-44119342D01*
X119641666Y-44119342D02*
X119689285Y-43928866D01*
X119689285Y-43928866D02*
X119689285Y-43690771D01*
X119689285Y-43690771D02*
X119641666Y-43500295D01*
X119641666Y-43500295D02*
X119594047Y-43405057D01*
X119594047Y-43405057D02*
X119546428Y-43357438D01*
X119546428Y-43357438D02*
X119451190Y-43309819D01*
X118689285Y-43643152D02*
X118689285Y-44309819D01*
X118689285Y-43738390D02*
X118641666Y-43690771D01*
X118641666Y-43690771D02*
X118546428Y-43643152D01*
X118546428Y-43643152D02*
X118403571Y-43643152D01*
X118403571Y-43643152D02*
X118308333Y-43690771D01*
X118308333Y-43690771D02*
X118260714Y-43786009D01*
X118260714Y-43786009D02*
X118260714Y-44309819D01*
X117451190Y-43786009D02*
X117784523Y-43786009D01*
X117784523Y-44309819D02*
X117784523Y-43309819D01*
X117784523Y-43309819D02*
X117308333Y-43309819D01*
D11*
X119922618Y-42568832D02*
X119941666Y-42587880D01*
X119941666Y-42587880D02*
X119998808Y-42606927D01*
X119998808Y-42606927D02*
X120036904Y-42606927D01*
X120036904Y-42606927D02*
X120094047Y-42587880D01*
X120094047Y-42587880D02*
X120132142Y-42549784D01*
X120132142Y-42549784D02*
X120151189Y-42511689D01*
X120151189Y-42511689D02*
X120170237Y-42435499D01*
X120170237Y-42435499D02*
X120170237Y-42378356D01*
X120170237Y-42378356D02*
X120151189Y-42302165D01*
X120151189Y-42302165D02*
X120132142Y-42264070D01*
X120132142Y-42264070D02*
X120094047Y-42225975D01*
X120094047Y-42225975D02*
X120036904Y-42206927D01*
X120036904Y-42206927D02*
X119998808Y-42206927D01*
X119998808Y-42206927D02*
X119941666Y-42225975D01*
X119941666Y-42225975D02*
X119922618Y-42245022D01*
X119579761Y-42340260D02*
X119579761Y-42606927D01*
X119674999Y-42187880D02*
X119770237Y-42473594D01*
X119770237Y-42473594D02*
X119522618Y-42473594D01*
X119160714Y-42606927D02*
X119389285Y-42606927D01*
X119274999Y-42606927D02*
X119274999Y-42206927D01*
X119274999Y-42206927D02*
X119313095Y-42264070D01*
X119313095Y-42264070D02*
X119351190Y-42302165D01*
X119351190Y-42302165D02*
X119389285Y-42321213D01*
X119027381Y-42206927D02*
X118779762Y-42206927D01*
X118779762Y-42206927D02*
X118913095Y-42359308D01*
X118913095Y-42359308D02*
X118855952Y-42359308D01*
X118855952Y-42359308D02*
X118817857Y-42378356D01*
X118817857Y-42378356D02*
X118798809Y-42397403D01*
X118798809Y-42397403D02*
X118779762Y-42435499D01*
X118779762Y-42435499D02*
X118779762Y-42530737D01*
X118779762Y-42530737D02*
X118798809Y-42568832D01*
X118798809Y-42568832D02*
X118817857Y-42587880D01*
X118817857Y-42587880D02*
X118855952Y-42606927D01*
X118855952Y-42606927D02*
X118970238Y-42606927D01*
X118970238Y-42606927D02*
X119008333Y-42587880D01*
X119008333Y-42587880D02*
X119027381Y-42568832D01*
D10*
X120022619Y-10959819D02*
X120594047Y-10959819D01*
X120308333Y-10959819D02*
X120308333Y-9959819D01*
X120308333Y-9959819D02*
X120403571Y-10102676D01*
X120403571Y-10102676D02*
X120498809Y-10197914D01*
X120498809Y-10197914D02*
X120594047Y-10245533D01*
X119403571Y-9959819D02*
X119308333Y-9959819D01*
X119308333Y-9959819D02*
X119213095Y-10007438D01*
X119213095Y-10007438D02*
X119165476Y-10055057D01*
X119165476Y-10055057D02*
X119117857Y-10150295D01*
X119117857Y-10150295D02*
X119070238Y-10340771D01*
X119070238Y-10340771D02*
X119070238Y-10578866D01*
X119070238Y-10578866D02*
X119117857Y-10769342D01*
X119117857Y-10769342D02*
X119165476Y-10864580D01*
X119165476Y-10864580D02*
X119213095Y-10912200D01*
X119213095Y-10912200D02*
X119308333Y-10959819D01*
X119308333Y-10959819D02*
X119403571Y-10959819D01*
X119403571Y-10959819D02*
X119498809Y-10912200D01*
X119498809Y-10912200D02*
X119546428Y-10864580D01*
X119546428Y-10864580D02*
X119594047Y-10769342D01*
X119594047Y-10769342D02*
X119641666Y-10578866D01*
X119641666Y-10578866D02*
X119641666Y-10340771D01*
X119641666Y-10340771D02*
X119594047Y-10150295D01*
X119594047Y-10150295D02*
X119546428Y-10055057D01*
X119546428Y-10055057D02*
X119498809Y-10007438D01*
X119498809Y-10007438D02*
X119403571Y-9959819D01*
X118451190Y-9959819D02*
X118355952Y-9959819D01*
X118355952Y-9959819D02*
X118260714Y-10007438D01*
X118260714Y-10007438D02*
X118213095Y-10055057D01*
X118213095Y-10055057D02*
X118165476Y-10150295D01*
X118165476Y-10150295D02*
X118117857Y-10340771D01*
X118117857Y-10340771D02*
X118117857Y-10578866D01*
X118117857Y-10578866D02*
X118165476Y-10769342D01*
X118165476Y-10769342D02*
X118213095Y-10864580D01*
X118213095Y-10864580D02*
X118260714Y-10912200D01*
X118260714Y-10912200D02*
X118355952Y-10959819D01*
X118355952Y-10959819D02*
X118451190Y-10959819D01*
X118451190Y-10959819D02*
X118546428Y-10912200D01*
X118546428Y-10912200D02*
X118594047Y-10864580D01*
X118594047Y-10864580D02*
X118641666Y-10769342D01*
X118641666Y-10769342D02*
X118689285Y-10578866D01*
X118689285Y-10578866D02*
X118689285Y-10340771D01*
X118689285Y-10340771D02*
X118641666Y-10150295D01*
X118641666Y-10150295D02*
X118594047Y-10055057D01*
X118594047Y-10055057D02*
X118546428Y-10007438D01*
X118546428Y-10007438D02*
X118451190Y-9959819D01*
X117689285Y-10293152D02*
X117689285Y-10959819D01*
X117689285Y-10388390D02*
X117641666Y-10340771D01*
X117641666Y-10340771D02*
X117546428Y-10293152D01*
X117546428Y-10293152D02*
X117403571Y-10293152D01*
X117403571Y-10293152D02*
X117308333Y-10340771D01*
X117308333Y-10340771D02*
X117260714Y-10436009D01*
X117260714Y-10436009D02*
X117260714Y-10959819D01*
X116451190Y-10436009D02*
X116784523Y-10436009D01*
X116784523Y-10959819D02*
X116784523Y-9959819D01*
X116784523Y-9959819D02*
X116308333Y-9959819D01*
D11*
X118922618Y-9218832D02*
X118941666Y-9237880D01*
X118941666Y-9237880D02*
X118998808Y-9256927D01*
X118998808Y-9256927D02*
X119036904Y-9256927D01*
X119036904Y-9256927D02*
X119094047Y-9237880D01*
X119094047Y-9237880D02*
X119132142Y-9199784D01*
X119132142Y-9199784D02*
X119151189Y-9161689D01*
X119151189Y-9161689D02*
X119170237Y-9085499D01*
X119170237Y-9085499D02*
X119170237Y-9028356D01*
X119170237Y-9028356D02*
X119151189Y-8952165D01*
X119151189Y-8952165D02*
X119132142Y-8914070D01*
X119132142Y-8914070D02*
X119094047Y-8875975D01*
X119094047Y-8875975D02*
X119036904Y-8856927D01*
X119036904Y-8856927D02*
X118998808Y-8856927D01*
X118998808Y-8856927D02*
X118941666Y-8875975D01*
X118941666Y-8875975D02*
X118922618Y-8895022D01*
X118579761Y-8990260D02*
X118579761Y-9256927D01*
X118674999Y-8837880D02*
X118770237Y-9123594D01*
X118770237Y-9123594D02*
X118522618Y-9123594D01*
X118389285Y-8895022D02*
X118370237Y-8875975D01*
X118370237Y-8875975D02*
X118332142Y-8856927D01*
X118332142Y-8856927D02*
X118236904Y-8856927D01*
X118236904Y-8856927D02*
X118198809Y-8875975D01*
X118198809Y-8875975D02*
X118179761Y-8895022D01*
X118179761Y-8895022D02*
X118160714Y-8933118D01*
X118160714Y-8933118D02*
X118160714Y-8971213D01*
X118160714Y-8971213D02*
X118179761Y-9028356D01*
X118179761Y-9028356D02*
X118408333Y-9256927D01*
X118408333Y-9256927D02*
X118160714Y-9256927D01*
X117817857Y-8990260D02*
X117817857Y-9256927D01*
X117913095Y-8837880D02*
X118008333Y-9123594D01*
X118008333Y-9123594D02*
X117760714Y-9123594D01*
D10*
X125112619Y-46459819D02*
X125684047Y-46459819D01*
X125398333Y-46459819D02*
X125398333Y-45459819D01*
X125398333Y-45459819D02*
X125493571Y-45602676D01*
X125493571Y-45602676D02*
X125588809Y-45697914D01*
X125588809Y-45697914D02*
X125684047Y-45745533D01*
X124493571Y-45459819D02*
X124398333Y-45459819D01*
X124398333Y-45459819D02*
X124303095Y-45507438D01*
X124303095Y-45507438D02*
X124255476Y-45555057D01*
X124255476Y-45555057D02*
X124207857Y-45650295D01*
X124207857Y-45650295D02*
X124160238Y-45840771D01*
X124160238Y-45840771D02*
X124160238Y-46078866D01*
X124160238Y-46078866D02*
X124207857Y-46269342D01*
X124207857Y-46269342D02*
X124255476Y-46364580D01*
X124255476Y-46364580D02*
X124303095Y-46412200D01*
X124303095Y-46412200D02*
X124398333Y-46459819D01*
X124398333Y-46459819D02*
X124493571Y-46459819D01*
X124493571Y-46459819D02*
X124588809Y-46412200D01*
X124588809Y-46412200D02*
X124636428Y-46364580D01*
X124636428Y-46364580D02*
X124684047Y-46269342D01*
X124684047Y-46269342D02*
X124731666Y-46078866D01*
X124731666Y-46078866D02*
X124731666Y-45840771D01*
X124731666Y-45840771D02*
X124684047Y-45650295D01*
X124684047Y-45650295D02*
X124636428Y-45555057D01*
X124636428Y-45555057D02*
X124588809Y-45507438D01*
X124588809Y-45507438D02*
X124493571Y-45459819D01*
X123541190Y-45459819D02*
X123445952Y-45459819D01*
X123445952Y-45459819D02*
X123350714Y-45507438D01*
X123350714Y-45507438D02*
X123303095Y-45555057D01*
X123303095Y-45555057D02*
X123255476Y-45650295D01*
X123255476Y-45650295D02*
X123207857Y-45840771D01*
X123207857Y-45840771D02*
X123207857Y-46078866D01*
X123207857Y-46078866D02*
X123255476Y-46269342D01*
X123255476Y-46269342D02*
X123303095Y-46364580D01*
X123303095Y-46364580D02*
X123350714Y-46412200D01*
X123350714Y-46412200D02*
X123445952Y-46459819D01*
X123445952Y-46459819D02*
X123541190Y-46459819D01*
X123541190Y-46459819D02*
X123636428Y-46412200D01*
X123636428Y-46412200D02*
X123684047Y-46364580D01*
X123684047Y-46364580D02*
X123731666Y-46269342D01*
X123731666Y-46269342D02*
X123779285Y-46078866D01*
X123779285Y-46078866D02*
X123779285Y-45840771D01*
X123779285Y-45840771D02*
X123731666Y-45650295D01*
X123731666Y-45650295D02*
X123684047Y-45555057D01*
X123684047Y-45555057D02*
X123636428Y-45507438D01*
X123636428Y-45507438D02*
X123541190Y-45459819D01*
X122779285Y-45793152D02*
X122779285Y-46459819D01*
X122779285Y-45888390D02*
X122731666Y-45840771D01*
X122731666Y-45840771D02*
X122636428Y-45793152D01*
X122636428Y-45793152D02*
X122493571Y-45793152D01*
X122493571Y-45793152D02*
X122398333Y-45840771D01*
X122398333Y-45840771D02*
X122350714Y-45936009D01*
X122350714Y-45936009D02*
X122350714Y-46459819D01*
X121541190Y-45936009D02*
X121874523Y-45936009D01*
X121874523Y-46459819D02*
X121874523Y-45459819D01*
X121874523Y-45459819D02*
X121398333Y-45459819D01*
D11*
X124012618Y-44718832D02*
X124031666Y-44737880D01*
X124031666Y-44737880D02*
X124088808Y-44756927D01*
X124088808Y-44756927D02*
X124126904Y-44756927D01*
X124126904Y-44756927D02*
X124184047Y-44737880D01*
X124184047Y-44737880D02*
X124222142Y-44699784D01*
X124222142Y-44699784D02*
X124241189Y-44661689D01*
X124241189Y-44661689D02*
X124260237Y-44585499D01*
X124260237Y-44585499D02*
X124260237Y-44528356D01*
X124260237Y-44528356D02*
X124241189Y-44452165D01*
X124241189Y-44452165D02*
X124222142Y-44414070D01*
X124222142Y-44414070D02*
X124184047Y-44375975D01*
X124184047Y-44375975D02*
X124126904Y-44356927D01*
X124126904Y-44356927D02*
X124088808Y-44356927D01*
X124088808Y-44356927D02*
X124031666Y-44375975D01*
X124031666Y-44375975D02*
X124012618Y-44395022D01*
X123669761Y-44490260D02*
X123669761Y-44756927D01*
X123764999Y-44337880D02*
X123860237Y-44623594D01*
X123860237Y-44623594D02*
X123612618Y-44623594D01*
X123250714Y-44756927D02*
X123479285Y-44756927D01*
X123364999Y-44756927D02*
X123364999Y-44356927D01*
X123364999Y-44356927D02*
X123403095Y-44414070D01*
X123403095Y-44414070D02*
X123441190Y-44452165D01*
X123441190Y-44452165D02*
X123479285Y-44471213D01*
X123060238Y-44756927D02*
X122984047Y-44756927D01*
X122984047Y-44756927D02*
X122945952Y-44737880D01*
X122945952Y-44737880D02*
X122926904Y-44718832D01*
X122926904Y-44718832D02*
X122888809Y-44661689D01*
X122888809Y-44661689D02*
X122869762Y-44585499D01*
X122869762Y-44585499D02*
X122869762Y-44433118D01*
X122869762Y-44433118D02*
X122888809Y-44395022D01*
X122888809Y-44395022D02*
X122907857Y-44375975D01*
X122907857Y-44375975D02*
X122945952Y-44356927D01*
X122945952Y-44356927D02*
X123022143Y-44356927D01*
X123022143Y-44356927D02*
X123060238Y-44375975D01*
X123060238Y-44375975D02*
X123079285Y-44395022D01*
X123079285Y-44395022D02*
X123098333Y-44433118D01*
X123098333Y-44433118D02*
X123098333Y-44528356D01*
X123098333Y-44528356D02*
X123079285Y-44566451D01*
X123079285Y-44566451D02*
X123060238Y-44585499D01*
X123060238Y-44585499D02*
X123022143Y-44604546D01*
X123022143Y-44604546D02*
X122945952Y-44604546D01*
X122945952Y-44604546D02*
X122907857Y-44585499D01*
X122907857Y-44585499D02*
X122888809Y-44566451D01*
X122888809Y-44566451D02*
X122869762Y-44528356D01*
D10*
X121022619Y-41659819D02*
X121594047Y-41659819D01*
X121308333Y-41659819D02*
X121308333Y-40659819D01*
X121308333Y-40659819D02*
X121403571Y-40802676D01*
X121403571Y-40802676D02*
X121498809Y-40897914D01*
X121498809Y-40897914D02*
X121594047Y-40945533D01*
X120403571Y-40659819D02*
X120308333Y-40659819D01*
X120308333Y-40659819D02*
X120213095Y-40707438D01*
X120213095Y-40707438D02*
X120165476Y-40755057D01*
X120165476Y-40755057D02*
X120117857Y-40850295D01*
X120117857Y-40850295D02*
X120070238Y-41040771D01*
X120070238Y-41040771D02*
X120070238Y-41278866D01*
X120070238Y-41278866D02*
X120117857Y-41469342D01*
X120117857Y-41469342D02*
X120165476Y-41564580D01*
X120165476Y-41564580D02*
X120213095Y-41612200D01*
X120213095Y-41612200D02*
X120308333Y-41659819D01*
X120308333Y-41659819D02*
X120403571Y-41659819D01*
X120403571Y-41659819D02*
X120498809Y-41612200D01*
X120498809Y-41612200D02*
X120546428Y-41564580D01*
X120546428Y-41564580D02*
X120594047Y-41469342D01*
X120594047Y-41469342D02*
X120641666Y-41278866D01*
X120641666Y-41278866D02*
X120641666Y-41040771D01*
X120641666Y-41040771D02*
X120594047Y-40850295D01*
X120594047Y-40850295D02*
X120546428Y-40755057D01*
X120546428Y-40755057D02*
X120498809Y-40707438D01*
X120498809Y-40707438D02*
X120403571Y-40659819D01*
X119451190Y-40659819D02*
X119355952Y-40659819D01*
X119355952Y-40659819D02*
X119260714Y-40707438D01*
X119260714Y-40707438D02*
X119213095Y-40755057D01*
X119213095Y-40755057D02*
X119165476Y-40850295D01*
X119165476Y-40850295D02*
X119117857Y-41040771D01*
X119117857Y-41040771D02*
X119117857Y-41278866D01*
X119117857Y-41278866D02*
X119165476Y-41469342D01*
X119165476Y-41469342D02*
X119213095Y-41564580D01*
X119213095Y-41564580D02*
X119260714Y-41612200D01*
X119260714Y-41612200D02*
X119355952Y-41659819D01*
X119355952Y-41659819D02*
X119451190Y-41659819D01*
X119451190Y-41659819D02*
X119546428Y-41612200D01*
X119546428Y-41612200D02*
X119594047Y-41564580D01*
X119594047Y-41564580D02*
X119641666Y-41469342D01*
X119641666Y-41469342D02*
X119689285Y-41278866D01*
X119689285Y-41278866D02*
X119689285Y-41040771D01*
X119689285Y-41040771D02*
X119641666Y-40850295D01*
X119641666Y-40850295D02*
X119594047Y-40755057D01*
X119594047Y-40755057D02*
X119546428Y-40707438D01*
X119546428Y-40707438D02*
X119451190Y-40659819D01*
X118689285Y-40993152D02*
X118689285Y-41659819D01*
X118689285Y-41088390D02*
X118641666Y-41040771D01*
X118641666Y-41040771D02*
X118546428Y-40993152D01*
X118546428Y-40993152D02*
X118403571Y-40993152D01*
X118403571Y-40993152D02*
X118308333Y-41040771D01*
X118308333Y-41040771D02*
X118260714Y-41136009D01*
X118260714Y-41136009D02*
X118260714Y-41659819D01*
X117451190Y-41136009D02*
X117784523Y-41136009D01*
X117784523Y-41659819D02*
X117784523Y-40659819D01*
X117784523Y-40659819D02*
X117308333Y-40659819D01*
D11*
X119922618Y-39918832D02*
X119941666Y-39937880D01*
X119941666Y-39937880D02*
X119998808Y-39956927D01*
X119998808Y-39956927D02*
X120036904Y-39956927D01*
X120036904Y-39956927D02*
X120094047Y-39937880D01*
X120094047Y-39937880D02*
X120132142Y-39899784D01*
X120132142Y-39899784D02*
X120151189Y-39861689D01*
X120151189Y-39861689D02*
X120170237Y-39785499D01*
X120170237Y-39785499D02*
X120170237Y-39728356D01*
X120170237Y-39728356D02*
X120151189Y-39652165D01*
X120151189Y-39652165D02*
X120132142Y-39614070D01*
X120132142Y-39614070D02*
X120094047Y-39575975D01*
X120094047Y-39575975D02*
X120036904Y-39556927D01*
X120036904Y-39556927D02*
X119998808Y-39556927D01*
X119998808Y-39556927D02*
X119941666Y-39575975D01*
X119941666Y-39575975D02*
X119922618Y-39595022D01*
X119579761Y-39690260D02*
X119579761Y-39956927D01*
X119674999Y-39537880D02*
X119770237Y-39823594D01*
X119770237Y-39823594D02*
X119522618Y-39823594D01*
X119294047Y-39556927D02*
X119255952Y-39556927D01*
X119255952Y-39556927D02*
X119217856Y-39575975D01*
X119217856Y-39575975D02*
X119198809Y-39595022D01*
X119198809Y-39595022D02*
X119179761Y-39633118D01*
X119179761Y-39633118D02*
X119160714Y-39709308D01*
X119160714Y-39709308D02*
X119160714Y-39804546D01*
X119160714Y-39804546D02*
X119179761Y-39880737D01*
X119179761Y-39880737D02*
X119198809Y-39918832D01*
X119198809Y-39918832D02*
X119217856Y-39937880D01*
X119217856Y-39937880D02*
X119255952Y-39956927D01*
X119255952Y-39956927D02*
X119294047Y-39956927D01*
X119294047Y-39956927D02*
X119332142Y-39937880D01*
X119332142Y-39937880D02*
X119351190Y-39918832D01*
X119351190Y-39918832D02*
X119370237Y-39880737D01*
X119370237Y-39880737D02*
X119389285Y-39804546D01*
X119389285Y-39804546D02*
X119389285Y-39709308D01*
X119389285Y-39709308D02*
X119370237Y-39633118D01*
X119370237Y-39633118D02*
X119351190Y-39595022D01*
X119351190Y-39595022D02*
X119332142Y-39575975D01*
X119332142Y-39575975D02*
X119294047Y-39556927D01*
X118932143Y-39728356D02*
X118970238Y-39709308D01*
X118970238Y-39709308D02*
X118989285Y-39690260D01*
X118989285Y-39690260D02*
X119008333Y-39652165D01*
X119008333Y-39652165D02*
X119008333Y-39633118D01*
X119008333Y-39633118D02*
X118989285Y-39595022D01*
X118989285Y-39595022D02*
X118970238Y-39575975D01*
X118970238Y-39575975D02*
X118932143Y-39556927D01*
X118932143Y-39556927D02*
X118855952Y-39556927D01*
X118855952Y-39556927D02*
X118817857Y-39575975D01*
X118817857Y-39575975D02*
X118798809Y-39595022D01*
X118798809Y-39595022D02*
X118779762Y-39633118D01*
X118779762Y-39633118D02*
X118779762Y-39652165D01*
X118779762Y-39652165D02*
X118798809Y-39690260D01*
X118798809Y-39690260D02*
X118817857Y-39709308D01*
X118817857Y-39709308D02*
X118855952Y-39728356D01*
X118855952Y-39728356D02*
X118932143Y-39728356D01*
X118932143Y-39728356D02*
X118970238Y-39747403D01*
X118970238Y-39747403D02*
X118989285Y-39766451D01*
X118989285Y-39766451D02*
X119008333Y-39804546D01*
X119008333Y-39804546D02*
X119008333Y-39880737D01*
X119008333Y-39880737D02*
X118989285Y-39918832D01*
X118989285Y-39918832D02*
X118970238Y-39937880D01*
X118970238Y-39937880D02*
X118932143Y-39956927D01*
X118932143Y-39956927D02*
X118855952Y-39956927D01*
X118855952Y-39956927D02*
X118817857Y-39937880D01*
X118817857Y-39937880D02*
X118798809Y-39918832D01*
X118798809Y-39918832D02*
X118779762Y-39880737D01*
X118779762Y-39880737D02*
X118779762Y-39804546D01*
X118779762Y-39804546D02*
X118798809Y-39766451D01*
X118798809Y-39766451D02*
X118817857Y-39747403D01*
X118817857Y-39747403D02*
X118855952Y-39728356D01*
D10*
X116372619Y-10959819D02*
X116944047Y-10959819D01*
X116658333Y-10959819D02*
X116658333Y-9959819D01*
X116658333Y-9959819D02*
X116753571Y-10102676D01*
X116753571Y-10102676D02*
X116848809Y-10197914D01*
X116848809Y-10197914D02*
X116944047Y-10245533D01*
X115753571Y-9959819D02*
X115658333Y-9959819D01*
X115658333Y-9959819D02*
X115563095Y-10007438D01*
X115563095Y-10007438D02*
X115515476Y-10055057D01*
X115515476Y-10055057D02*
X115467857Y-10150295D01*
X115467857Y-10150295D02*
X115420238Y-10340771D01*
X115420238Y-10340771D02*
X115420238Y-10578866D01*
X115420238Y-10578866D02*
X115467857Y-10769342D01*
X115467857Y-10769342D02*
X115515476Y-10864580D01*
X115515476Y-10864580D02*
X115563095Y-10912200D01*
X115563095Y-10912200D02*
X115658333Y-10959819D01*
X115658333Y-10959819D02*
X115753571Y-10959819D01*
X115753571Y-10959819D02*
X115848809Y-10912200D01*
X115848809Y-10912200D02*
X115896428Y-10864580D01*
X115896428Y-10864580D02*
X115944047Y-10769342D01*
X115944047Y-10769342D02*
X115991666Y-10578866D01*
X115991666Y-10578866D02*
X115991666Y-10340771D01*
X115991666Y-10340771D02*
X115944047Y-10150295D01*
X115944047Y-10150295D02*
X115896428Y-10055057D01*
X115896428Y-10055057D02*
X115848809Y-10007438D01*
X115848809Y-10007438D02*
X115753571Y-9959819D01*
X114801190Y-9959819D02*
X114705952Y-9959819D01*
X114705952Y-9959819D02*
X114610714Y-10007438D01*
X114610714Y-10007438D02*
X114563095Y-10055057D01*
X114563095Y-10055057D02*
X114515476Y-10150295D01*
X114515476Y-10150295D02*
X114467857Y-10340771D01*
X114467857Y-10340771D02*
X114467857Y-10578866D01*
X114467857Y-10578866D02*
X114515476Y-10769342D01*
X114515476Y-10769342D02*
X114563095Y-10864580D01*
X114563095Y-10864580D02*
X114610714Y-10912200D01*
X114610714Y-10912200D02*
X114705952Y-10959819D01*
X114705952Y-10959819D02*
X114801190Y-10959819D01*
X114801190Y-10959819D02*
X114896428Y-10912200D01*
X114896428Y-10912200D02*
X114944047Y-10864580D01*
X114944047Y-10864580D02*
X114991666Y-10769342D01*
X114991666Y-10769342D02*
X115039285Y-10578866D01*
X115039285Y-10578866D02*
X115039285Y-10340771D01*
X115039285Y-10340771D02*
X114991666Y-10150295D01*
X114991666Y-10150295D02*
X114944047Y-10055057D01*
X114944047Y-10055057D02*
X114896428Y-10007438D01*
X114896428Y-10007438D02*
X114801190Y-9959819D01*
X114039285Y-10293152D02*
X114039285Y-10959819D01*
X114039285Y-10388390D02*
X113991666Y-10340771D01*
X113991666Y-10340771D02*
X113896428Y-10293152D01*
X113896428Y-10293152D02*
X113753571Y-10293152D01*
X113753571Y-10293152D02*
X113658333Y-10340771D01*
X113658333Y-10340771D02*
X113610714Y-10436009D01*
X113610714Y-10436009D02*
X113610714Y-10959819D01*
X112801190Y-10436009D02*
X113134523Y-10436009D01*
X113134523Y-10959819D02*
X113134523Y-9959819D01*
X113134523Y-9959819D02*
X112658333Y-9959819D01*
D11*
X115272618Y-9218832D02*
X115291666Y-9237880D01*
X115291666Y-9237880D02*
X115348808Y-9256927D01*
X115348808Y-9256927D02*
X115386904Y-9256927D01*
X115386904Y-9256927D02*
X115444047Y-9237880D01*
X115444047Y-9237880D02*
X115482142Y-9199784D01*
X115482142Y-9199784D02*
X115501189Y-9161689D01*
X115501189Y-9161689D02*
X115520237Y-9085499D01*
X115520237Y-9085499D02*
X115520237Y-9028356D01*
X115520237Y-9028356D02*
X115501189Y-8952165D01*
X115501189Y-8952165D02*
X115482142Y-8914070D01*
X115482142Y-8914070D02*
X115444047Y-8875975D01*
X115444047Y-8875975D02*
X115386904Y-8856927D01*
X115386904Y-8856927D02*
X115348808Y-8856927D01*
X115348808Y-8856927D02*
X115291666Y-8875975D01*
X115291666Y-8875975D02*
X115272618Y-8895022D01*
X114929761Y-8990260D02*
X114929761Y-9256927D01*
X115024999Y-8837880D02*
X115120237Y-9123594D01*
X115120237Y-9123594D02*
X114872618Y-9123594D01*
X114739285Y-8895022D02*
X114720237Y-8875975D01*
X114720237Y-8875975D02*
X114682142Y-8856927D01*
X114682142Y-8856927D02*
X114586904Y-8856927D01*
X114586904Y-8856927D02*
X114548809Y-8875975D01*
X114548809Y-8875975D02*
X114529761Y-8895022D01*
X114529761Y-8895022D02*
X114510714Y-8933118D01*
X114510714Y-8933118D02*
X114510714Y-8971213D01*
X114510714Y-8971213D02*
X114529761Y-9028356D01*
X114529761Y-9028356D02*
X114758333Y-9256927D01*
X114758333Y-9256927D02*
X114510714Y-9256927D01*
X114377381Y-8856927D02*
X114129762Y-8856927D01*
X114129762Y-8856927D02*
X114263095Y-9009308D01*
X114263095Y-9009308D02*
X114205952Y-9009308D01*
X114205952Y-9009308D02*
X114167857Y-9028356D01*
X114167857Y-9028356D02*
X114148809Y-9047403D01*
X114148809Y-9047403D02*
X114129762Y-9085499D01*
X114129762Y-9085499D02*
X114129762Y-9180737D01*
X114129762Y-9180737D02*
X114148809Y-9218832D01*
X114148809Y-9218832D02*
X114167857Y-9237880D01*
X114167857Y-9237880D02*
X114205952Y-9256927D01*
X114205952Y-9256927D02*
X114320238Y-9256927D01*
X114320238Y-9256927D02*
X114358333Y-9237880D01*
X114358333Y-9237880D02*
X114377381Y-9218832D01*
D10*
X113722619Y-41659819D02*
X114294047Y-41659819D01*
X114008333Y-41659819D02*
X114008333Y-40659819D01*
X114008333Y-40659819D02*
X114103571Y-40802676D01*
X114103571Y-40802676D02*
X114198809Y-40897914D01*
X114198809Y-40897914D02*
X114294047Y-40945533D01*
X113103571Y-40659819D02*
X113008333Y-40659819D01*
X113008333Y-40659819D02*
X112913095Y-40707438D01*
X112913095Y-40707438D02*
X112865476Y-40755057D01*
X112865476Y-40755057D02*
X112817857Y-40850295D01*
X112817857Y-40850295D02*
X112770238Y-41040771D01*
X112770238Y-41040771D02*
X112770238Y-41278866D01*
X112770238Y-41278866D02*
X112817857Y-41469342D01*
X112817857Y-41469342D02*
X112865476Y-41564580D01*
X112865476Y-41564580D02*
X112913095Y-41612200D01*
X112913095Y-41612200D02*
X113008333Y-41659819D01*
X113008333Y-41659819D02*
X113103571Y-41659819D01*
X113103571Y-41659819D02*
X113198809Y-41612200D01*
X113198809Y-41612200D02*
X113246428Y-41564580D01*
X113246428Y-41564580D02*
X113294047Y-41469342D01*
X113294047Y-41469342D02*
X113341666Y-41278866D01*
X113341666Y-41278866D02*
X113341666Y-41040771D01*
X113341666Y-41040771D02*
X113294047Y-40850295D01*
X113294047Y-40850295D02*
X113246428Y-40755057D01*
X113246428Y-40755057D02*
X113198809Y-40707438D01*
X113198809Y-40707438D02*
X113103571Y-40659819D01*
X112151190Y-40659819D02*
X112055952Y-40659819D01*
X112055952Y-40659819D02*
X111960714Y-40707438D01*
X111960714Y-40707438D02*
X111913095Y-40755057D01*
X111913095Y-40755057D02*
X111865476Y-40850295D01*
X111865476Y-40850295D02*
X111817857Y-41040771D01*
X111817857Y-41040771D02*
X111817857Y-41278866D01*
X111817857Y-41278866D02*
X111865476Y-41469342D01*
X111865476Y-41469342D02*
X111913095Y-41564580D01*
X111913095Y-41564580D02*
X111960714Y-41612200D01*
X111960714Y-41612200D02*
X112055952Y-41659819D01*
X112055952Y-41659819D02*
X112151190Y-41659819D01*
X112151190Y-41659819D02*
X112246428Y-41612200D01*
X112246428Y-41612200D02*
X112294047Y-41564580D01*
X112294047Y-41564580D02*
X112341666Y-41469342D01*
X112341666Y-41469342D02*
X112389285Y-41278866D01*
X112389285Y-41278866D02*
X112389285Y-41040771D01*
X112389285Y-41040771D02*
X112341666Y-40850295D01*
X112341666Y-40850295D02*
X112294047Y-40755057D01*
X112294047Y-40755057D02*
X112246428Y-40707438D01*
X112246428Y-40707438D02*
X112151190Y-40659819D01*
X111389285Y-40993152D02*
X111389285Y-41659819D01*
X111389285Y-41088390D02*
X111341666Y-41040771D01*
X111341666Y-41040771D02*
X111246428Y-40993152D01*
X111246428Y-40993152D02*
X111103571Y-40993152D01*
X111103571Y-40993152D02*
X111008333Y-41040771D01*
X111008333Y-41040771D02*
X110960714Y-41136009D01*
X110960714Y-41136009D02*
X110960714Y-41659819D01*
X110151190Y-41136009D02*
X110484523Y-41136009D01*
X110484523Y-41659819D02*
X110484523Y-40659819D01*
X110484523Y-40659819D02*
X110008333Y-40659819D01*
D11*
X112622618Y-39918832D02*
X112641666Y-39937880D01*
X112641666Y-39937880D02*
X112698808Y-39956927D01*
X112698808Y-39956927D02*
X112736904Y-39956927D01*
X112736904Y-39956927D02*
X112794047Y-39937880D01*
X112794047Y-39937880D02*
X112832142Y-39899784D01*
X112832142Y-39899784D02*
X112851189Y-39861689D01*
X112851189Y-39861689D02*
X112870237Y-39785499D01*
X112870237Y-39785499D02*
X112870237Y-39728356D01*
X112870237Y-39728356D02*
X112851189Y-39652165D01*
X112851189Y-39652165D02*
X112832142Y-39614070D01*
X112832142Y-39614070D02*
X112794047Y-39575975D01*
X112794047Y-39575975D02*
X112736904Y-39556927D01*
X112736904Y-39556927D02*
X112698808Y-39556927D01*
X112698808Y-39556927D02*
X112641666Y-39575975D01*
X112641666Y-39575975D02*
X112622618Y-39595022D01*
X112279761Y-39690260D02*
X112279761Y-39956927D01*
X112374999Y-39537880D02*
X112470237Y-39823594D01*
X112470237Y-39823594D02*
X112222618Y-39823594D01*
X111994047Y-39556927D02*
X111955952Y-39556927D01*
X111955952Y-39556927D02*
X111917856Y-39575975D01*
X111917856Y-39575975D02*
X111898809Y-39595022D01*
X111898809Y-39595022D02*
X111879761Y-39633118D01*
X111879761Y-39633118D02*
X111860714Y-39709308D01*
X111860714Y-39709308D02*
X111860714Y-39804546D01*
X111860714Y-39804546D02*
X111879761Y-39880737D01*
X111879761Y-39880737D02*
X111898809Y-39918832D01*
X111898809Y-39918832D02*
X111917856Y-39937880D01*
X111917856Y-39937880D02*
X111955952Y-39956927D01*
X111955952Y-39956927D02*
X111994047Y-39956927D01*
X111994047Y-39956927D02*
X112032142Y-39937880D01*
X112032142Y-39937880D02*
X112051190Y-39918832D01*
X112051190Y-39918832D02*
X112070237Y-39880737D01*
X112070237Y-39880737D02*
X112089285Y-39804546D01*
X112089285Y-39804546D02*
X112089285Y-39709308D01*
X112089285Y-39709308D02*
X112070237Y-39633118D01*
X112070237Y-39633118D02*
X112051190Y-39595022D01*
X112051190Y-39595022D02*
X112032142Y-39575975D01*
X112032142Y-39575975D02*
X111994047Y-39556927D01*
X111517857Y-39556927D02*
X111594047Y-39556927D01*
X111594047Y-39556927D02*
X111632143Y-39575975D01*
X111632143Y-39575975D02*
X111651190Y-39595022D01*
X111651190Y-39595022D02*
X111689285Y-39652165D01*
X111689285Y-39652165D02*
X111708333Y-39728356D01*
X111708333Y-39728356D02*
X111708333Y-39880737D01*
X111708333Y-39880737D02*
X111689285Y-39918832D01*
X111689285Y-39918832D02*
X111670238Y-39937880D01*
X111670238Y-39937880D02*
X111632143Y-39956927D01*
X111632143Y-39956927D02*
X111555952Y-39956927D01*
X111555952Y-39956927D02*
X111517857Y-39937880D01*
X111517857Y-39937880D02*
X111498809Y-39918832D01*
X111498809Y-39918832D02*
X111479762Y-39880737D01*
X111479762Y-39880737D02*
X111479762Y-39785499D01*
X111479762Y-39785499D02*
X111498809Y-39747403D01*
X111498809Y-39747403D02*
X111517857Y-39728356D01*
X111517857Y-39728356D02*
X111555952Y-39709308D01*
X111555952Y-39709308D02*
X111632143Y-39709308D01*
X111632143Y-39709308D02*
X111670238Y-39728356D01*
X111670238Y-39728356D02*
X111689285Y-39747403D01*
X111689285Y-39747403D02*
X111708333Y-39785499D01*
D10*
X112722619Y-10959819D02*
X113294047Y-10959819D01*
X113008333Y-10959819D02*
X113008333Y-9959819D01*
X113008333Y-9959819D02*
X113103571Y-10102676D01*
X113103571Y-10102676D02*
X113198809Y-10197914D01*
X113198809Y-10197914D02*
X113294047Y-10245533D01*
X112103571Y-9959819D02*
X112008333Y-9959819D01*
X112008333Y-9959819D02*
X111913095Y-10007438D01*
X111913095Y-10007438D02*
X111865476Y-10055057D01*
X111865476Y-10055057D02*
X111817857Y-10150295D01*
X111817857Y-10150295D02*
X111770238Y-10340771D01*
X111770238Y-10340771D02*
X111770238Y-10578866D01*
X111770238Y-10578866D02*
X111817857Y-10769342D01*
X111817857Y-10769342D02*
X111865476Y-10864580D01*
X111865476Y-10864580D02*
X111913095Y-10912200D01*
X111913095Y-10912200D02*
X112008333Y-10959819D01*
X112008333Y-10959819D02*
X112103571Y-10959819D01*
X112103571Y-10959819D02*
X112198809Y-10912200D01*
X112198809Y-10912200D02*
X112246428Y-10864580D01*
X112246428Y-10864580D02*
X112294047Y-10769342D01*
X112294047Y-10769342D02*
X112341666Y-10578866D01*
X112341666Y-10578866D02*
X112341666Y-10340771D01*
X112341666Y-10340771D02*
X112294047Y-10150295D01*
X112294047Y-10150295D02*
X112246428Y-10055057D01*
X112246428Y-10055057D02*
X112198809Y-10007438D01*
X112198809Y-10007438D02*
X112103571Y-9959819D01*
X111151190Y-9959819D02*
X111055952Y-9959819D01*
X111055952Y-9959819D02*
X110960714Y-10007438D01*
X110960714Y-10007438D02*
X110913095Y-10055057D01*
X110913095Y-10055057D02*
X110865476Y-10150295D01*
X110865476Y-10150295D02*
X110817857Y-10340771D01*
X110817857Y-10340771D02*
X110817857Y-10578866D01*
X110817857Y-10578866D02*
X110865476Y-10769342D01*
X110865476Y-10769342D02*
X110913095Y-10864580D01*
X110913095Y-10864580D02*
X110960714Y-10912200D01*
X110960714Y-10912200D02*
X111055952Y-10959819D01*
X111055952Y-10959819D02*
X111151190Y-10959819D01*
X111151190Y-10959819D02*
X111246428Y-10912200D01*
X111246428Y-10912200D02*
X111294047Y-10864580D01*
X111294047Y-10864580D02*
X111341666Y-10769342D01*
X111341666Y-10769342D02*
X111389285Y-10578866D01*
X111389285Y-10578866D02*
X111389285Y-10340771D01*
X111389285Y-10340771D02*
X111341666Y-10150295D01*
X111341666Y-10150295D02*
X111294047Y-10055057D01*
X111294047Y-10055057D02*
X111246428Y-10007438D01*
X111246428Y-10007438D02*
X111151190Y-9959819D01*
X110389285Y-10293152D02*
X110389285Y-10959819D01*
X110389285Y-10388390D02*
X110341666Y-10340771D01*
X110341666Y-10340771D02*
X110246428Y-10293152D01*
X110246428Y-10293152D02*
X110103571Y-10293152D01*
X110103571Y-10293152D02*
X110008333Y-10340771D01*
X110008333Y-10340771D02*
X109960714Y-10436009D01*
X109960714Y-10436009D02*
X109960714Y-10959819D01*
X109151190Y-10436009D02*
X109484523Y-10436009D01*
X109484523Y-10959819D02*
X109484523Y-9959819D01*
X109484523Y-9959819D02*
X109008333Y-9959819D01*
D11*
X111622618Y-9218832D02*
X111641666Y-9237880D01*
X111641666Y-9237880D02*
X111698808Y-9256927D01*
X111698808Y-9256927D02*
X111736904Y-9256927D01*
X111736904Y-9256927D02*
X111794047Y-9237880D01*
X111794047Y-9237880D02*
X111832142Y-9199784D01*
X111832142Y-9199784D02*
X111851189Y-9161689D01*
X111851189Y-9161689D02*
X111870237Y-9085499D01*
X111870237Y-9085499D02*
X111870237Y-9028356D01*
X111870237Y-9028356D02*
X111851189Y-8952165D01*
X111851189Y-8952165D02*
X111832142Y-8914070D01*
X111832142Y-8914070D02*
X111794047Y-8875975D01*
X111794047Y-8875975D02*
X111736904Y-8856927D01*
X111736904Y-8856927D02*
X111698808Y-8856927D01*
X111698808Y-8856927D02*
X111641666Y-8875975D01*
X111641666Y-8875975D02*
X111622618Y-8895022D01*
X111279761Y-8990260D02*
X111279761Y-9256927D01*
X111374999Y-8837880D02*
X111470237Y-9123594D01*
X111470237Y-9123594D02*
X111222618Y-9123594D01*
X111089285Y-8895022D02*
X111070237Y-8875975D01*
X111070237Y-8875975D02*
X111032142Y-8856927D01*
X111032142Y-8856927D02*
X110936904Y-8856927D01*
X110936904Y-8856927D02*
X110898809Y-8875975D01*
X110898809Y-8875975D02*
X110879761Y-8895022D01*
X110879761Y-8895022D02*
X110860714Y-8933118D01*
X110860714Y-8933118D02*
X110860714Y-8971213D01*
X110860714Y-8971213D02*
X110879761Y-9028356D01*
X110879761Y-9028356D02*
X111108333Y-9256927D01*
X111108333Y-9256927D02*
X110860714Y-9256927D01*
X110708333Y-8895022D02*
X110689285Y-8875975D01*
X110689285Y-8875975D02*
X110651190Y-8856927D01*
X110651190Y-8856927D02*
X110555952Y-8856927D01*
X110555952Y-8856927D02*
X110517857Y-8875975D01*
X110517857Y-8875975D02*
X110498809Y-8895022D01*
X110498809Y-8895022D02*
X110479762Y-8933118D01*
X110479762Y-8933118D02*
X110479762Y-8971213D01*
X110479762Y-8971213D02*
X110498809Y-9028356D01*
X110498809Y-9028356D02*
X110727381Y-9256927D01*
X110727381Y-9256927D02*
X110479762Y-9256927D01*
D10*
X109072619Y-10959819D02*
X109644047Y-10959819D01*
X109358333Y-10959819D02*
X109358333Y-9959819D01*
X109358333Y-9959819D02*
X109453571Y-10102676D01*
X109453571Y-10102676D02*
X109548809Y-10197914D01*
X109548809Y-10197914D02*
X109644047Y-10245533D01*
X108453571Y-9959819D02*
X108358333Y-9959819D01*
X108358333Y-9959819D02*
X108263095Y-10007438D01*
X108263095Y-10007438D02*
X108215476Y-10055057D01*
X108215476Y-10055057D02*
X108167857Y-10150295D01*
X108167857Y-10150295D02*
X108120238Y-10340771D01*
X108120238Y-10340771D02*
X108120238Y-10578866D01*
X108120238Y-10578866D02*
X108167857Y-10769342D01*
X108167857Y-10769342D02*
X108215476Y-10864580D01*
X108215476Y-10864580D02*
X108263095Y-10912200D01*
X108263095Y-10912200D02*
X108358333Y-10959819D01*
X108358333Y-10959819D02*
X108453571Y-10959819D01*
X108453571Y-10959819D02*
X108548809Y-10912200D01*
X108548809Y-10912200D02*
X108596428Y-10864580D01*
X108596428Y-10864580D02*
X108644047Y-10769342D01*
X108644047Y-10769342D02*
X108691666Y-10578866D01*
X108691666Y-10578866D02*
X108691666Y-10340771D01*
X108691666Y-10340771D02*
X108644047Y-10150295D01*
X108644047Y-10150295D02*
X108596428Y-10055057D01*
X108596428Y-10055057D02*
X108548809Y-10007438D01*
X108548809Y-10007438D02*
X108453571Y-9959819D01*
X107501190Y-9959819D02*
X107405952Y-9959819D01*
X107405952Y-9959819D02*
X107310714Y-10007438D01*
X107310714Y-10007438D02*
X107263095Y-10055057D01*
X107263095Y-10055057D02*
X107215476Y-10150295D01*
X107215476Y-10150295D02*
X107167857Y-10340771D01*
X107167857Y-10340771D02*
X107167857Y-10578866D01*
X107167857Y-10578866D02*
X107215476Y-10769342D01*
X107215476Y-10769342D02*
X107263095Y-10864580D01*
X107263095Y-10864580D02*
X107310714Y-10912200D01*
X107310714Y-10912200D02*
X107405952Y-10959819D01*
X107405952Y-10959819D02*
X107501190Y-10959819D01*
X107501190Y-10959819D02*
X107596428Y-10912200D01*
X107596428Y-10912200D02*
X107644047Y-10864580D01*
X107644047Y-10864580D02*
X107691666Y-10769342D01*
X107691666Y-10769342D02*
X107739285Y-10578866D01*
X107739285Y-10578866D02*
X107739285Y-10340771D01*
X107739285Y-10340771D02*
X107691666Y-10150295D01*
X107691666Y-10150295D02*
X107644047Y-10055057D01*
X107644047Y-10055057D02*
X107596428Y-10007438D01*
X107596428Y-10007438D02*
X107501190Y-9959819D01*
X106739285Y-10293152D02*
X106739285Y-10959819D01*
X106739285Y-10388390D02*
X106691666Y-10340771D01*
X106691666Y-10340771D02*
X106596428Y-10293152D01*
X106596428Y-10293152D02*
X106453571Y-10293152D01*
X106453571Y-10293152D02*
X106358333Y-10340771D01*
X106358333Y-10340771D02*
X106310714Y-10436009D01*
X106310714Y-10436009D02*
X106310714Y-10959819D01*
X105501190Y-10436009D02*
X105834523Y-10436009D01*
X105834523Y-10959819D02*
X105834523Y-9959819D01*
X105834523Y-9959819D02*
X105358333Y-9959819D01*
D11*
X107972618Y-9218832D02*
X107991666Y-9237880D01*
X107991666Y-9237880D02*
X108048808Y-9256927D01*
X108048808Y-9256927D02*
X108086904Y-9256927D01*
X108086904Y-9256927D02*
X108144047Y-9237880D01*
X108144047Y-9237880D02*
X108182142Y-9199784D01*
X108182142Y-9199784D02*
X108201189Y-9161689D01*
X108201189Y-9161689D02*
X108220237Y-9085499D01*
X108220237Y-9085499D02*
X108220237Y-9028356D01*
X108220237Y-9028356D02*
X108201189Y-8952165D01*
X108201189Y-8952165D02*
X108182142Y-8914070D01*
X108182142Y-8914070D02*
X108144047Y-8875975D01*
X108144047Y-8875975D02*
X108086904Y-8856927D01*
X108086904Y-8856927D02*
X108048808Y-8856927D01*
X108048808Y-8856927D02*
X107991666Y-8875975D01*
X107991666Y-8875975D02*
X107972618Y-8895022D01*
X107629761Y-8990260D02*
X107629761Y-9256927D01*
X107724999Y-8837880D02*
X107820237Y-9123594D01*
X107820237Y-9123594D02*
X107572618Y-9123594D01*
X107439285Y-8895022D02*
X107420237Y-8875975D01*
X107420237Y-8875975D02*
X107382142Y-8856927D01*
X107382142Y-8856927D02*
X107286904Y-8856927D01*
X107286904Y-8856927D02*
X107248809Y-8875975D01*
X107248809Y-8875975D02*
X107229761Y-8895022D01*
X107229761Y-8895022D02*
X107210714Y-8933118D01*
X107210714Y-8933118D02*
X107210714Y-8971213D01*
X107210714Y-8971213D02*
X107229761Y-9028356D01*
X107229761Y-9028356D02*
X107458333Y-9256927D01*
X107458333Y-9256927D02*
X107210714Y-9256927D01*
X106829762Y-9256927D02*
X107058333Y-9256927D01*
X106944047Y-9256927D02*
X106944047Y-8856927D01*
X106944047Y-8856927D02*
X106982143Y-8914070D01*
X106982143Y-8914070D02*
X107020238Y-8952165D01*
X107020238Y-8952165D02*
X107058333Y-8971213D01*
D10*
X138672619Y-52559819D02*
X139244047Y-52559819D01*
X138958333Y-52559819D02*
X138958333Y-51559819D01*
X138958333Y-51559819D02*
X139053571Y-51702676D01*
X139053571Y-51702676D02*
X139148809Y-51797914D01*
X139148809Y-51797914D02*
X139244047Y-51845533D01*
X138053571Y-51559819D02*
X137958333Y-51559819D01*
X137958333Y-51559819D02*
X137863095Y-51607438D01*
X137863095Y-51607438D02*
X137815476Y-51655057D01*
X137815476Y-51655057D02*
X137767857Y-51750295D01*
X137767857Y-51750295D02*
X137720238Y-51940771D01*
X137720238Y-51940771D02*
X137720238Y-52178866D01*
X137720238Y-52178866D02*
X137767857Y-52369342D01*
X137767857Y-52369342D02*
X137815476Y-52464580D01*
X137815476Y-52464580D02*
X137863095Y-52512200D01*
X137863095Y-52512200D02*
X137958333Y-52559819D01*
X137958333Y-52559819D02*
X138053571Y-52559819D01*
X138053571Y-52559819D02*
X138148809Y-52512200D01*
X138148809Y-52512200D02*
X138196428Y-52464580D01*
X138196428Y-52464580D02*
X138244047Y-52369342D01*
X138244047Y-52369342D02*
X138291666Y-52178866D01*
X138291666Y-52178866D02*
X138291666Y-51940771D01*
X138291666Y-51940771D02*
X138244047Y-51750295D01*
X138244047Y-51750295D02*
X138196428Y-51655057D01*
X138196428Y-51655057D02*
X138148809Y-51607438D01*
X138148809Y-51607438D02*
X138053571Y-51559819D01*
X137101190Y-51559819D02*
X137005952Y-51559819D01*
X137005952Y-51559819D02*
X136910714Y-51607438D01*
X136910714Y-51607438D02*
X136863095Y-51655057D01*
X136863095Y-51655057D02*
X136815476Y-51750295D01*
X136815476Y-51750295D02*
X136767857Y-51940771D01*
X136767857Y-51940771D02*
X136767857Y-52178866D01*
X136767857Y-52178866D02*
X136815476Y-52369342D01*
X136815476Y-52369342D02*
X136863095Y-52464580D01*
X136863095Y-52464580D02*
X136910714Y-52512200D01*
X136910714Y-52512200D02*
X137005952Y-52559819D01*
X137005952Y-52559819D02*
X137101190Y-52559819D01*
X137101190Y-52559819D02*
X137196428Y-52512200D01*
X137196428Y-52512200D02*
X137244047Y-52464580D01*
X137244047Y-52464580D02*
X137291666Y-52369342D01*
X137291666Y-52369342D02*
X137339285Y-52178866D01*
X137339285Y-52178866D02*
X137339285Y-51940771D01*
X137339285Y-51940771D02*
X137291666Y-51750295D01*
X137291666Y-51750295D02*
X137244047Y-51655057D01*
X137244047Y-51655057D02*
X137196428Y-51607438D01*
X137196428Y-51607438D02*
X137101190Y-51559819D01*
X136339285Y-51893152D02*
X136339285Y-52559819D01*
X136339285Y-51988390D02*
X136291666Y-51940771D01*
X136291666Y-51940771D02*
X136196428Y-51893152D01*
X136196428Y-51893152D02*
X136053571Y-51893152D01*
X136053571Y-51893152D02*
X135958333Y-51940771D01*
X135958333Y-51940771D02*
X135910714Y-52036009D01*
X135910714Y-52036009D02*
X135910714Y-52559819D01*
X135101190Y-52036009D02*
X135434523Y-52036009D01*
X135434523Y-52559819D02*
X135434523Y-51559819D01*
X135434523Y-51559819D02*
X134958333Y-51559819D01*
D11*
X137572618Y-50818832D02*
X137591666Y-50837880D01*
X137591666Y-50837880D02*
X137648808Y-50856927D01*
X137648808Y-50856927D02*
X137686904Y-50856927D01*
X137686904Y-50856927D02*
X137744047Y-50837880D01*
X137744047Y-50837880D02*
X137782142Y-50799784D01*
X137782142Y-50799784D02*
X137801189Y-50761689D01*
X137801189Y-50761689D02*
X137820237Y-50685499D01*
X137820237Y-50685499D02*
X137820237Y-50628356D01*
X137820237Y-50628356D02*
X137801189Y-50552165D01*
X137801189Y-50552165D02*
X137782142Y-50514070D01*
X137782142Y-50514070D02*
X137744047Y-50475975D01*
X137744047Y-50475975D02*
X137686904Y-50456927D01*
X137686904Y-50456927D02*
X137648808Y-50456927D01*
X137648808Y-50456927D02*
X137591666Y-50475975D01*
X137591666Y-50475975D02*
X137572618Y-50495022D01*
X137210713Y-50456927D02*
X137401189Y-50456927D01*
X137401189Y-50456927D02*
X137420237Y-50647403D01*
X137420237Y-50647403D02*
X137401189Y-50628356D01*
X137401189Y-50628356D02*
X137363094Y-50609308D01*
X137363094Y-50609308D02*
X137267856Y-50609308D01*
X137267856Y-50609308D02*
X137229761Y-50628356D01*
X137229761Y-50628356D02*
X137210713Y-50647403D01*
X137210713Y-50647403D02*
X137191666Y-50685499D01*
X137191666Y-50685499D02*
X137191666Y-50780737D01*
X137191666Y-50780737D02*
X137210713Y-50818832D01*
X137210713Y-50818832D02*
X137229761Y-50837880D01*
X137229761Y-50837880D02*
X137267856Y-50856927D01*
X137267856Y-50856927D02*
X137363094Y-50856927D01*
X137363094Y-50856927D02*
X137401189Y-50837880D01*
X137401189Y-50837880D02*
X137420237Y-50818832D01*
X136810714Y-50856927D02*
X137039285Y-50856927D01*
X136924999Y-50856927D02*
X136924999Y-50456927D01*
X136924999Y-50456927D02*
X136963095Y-50514070D01*
X136963095Y-50514070D02*
X137001190Y-50552165D01*
X137001190Y-50552165D02*
X137039285Y-50571213D01*
X136429762Y-50856927D02*
X136658333Y-50856927D01*
X136544047Y-50856927D02*
X136544047Y-50456927D01*
X136544047Y-50456927D02*
X136582143Y-50514070D01*
X136582143Y-50514070D02*
X136620238Y-50552165D01*
X136620238Y-50552165D02*
X136658333Y-50571213D01*
D10*
X123672619Y-10959819D02*
X124244047Y-10959819D01*
X123958333Y-10959819D02*
X123958333Y-9959819D01*
X123958333Y-9959819D02*
X124053571Y-10102676D01*
X124053571Y-10102676D02*
X124148809Y-10197914D01*
X124148809Y-10197914D02*
X124244047Y-10245533D01*
X123053571Y-9959819D02*
X122958333Y-9959819D01*
X122958333Y-9959819D02*
X122863095Y-10007438D01*
X122863095Y-10007438D02*
X122815476Y-10055057D01*
X122815476Y-10055057D02*
X122767857Y-10150295D01*
X122767857Y-10150295D02*
X122720238Y-10340771D01*
X122720238Y-10340771D02*
X122720238Y-10578866D01*
X122720238Y-10578866D02*
X122767857Y-10769342D01*
X122767857Y-10769342D02*
X122815476Y-10864580D01*
X122815476Y-10864580D02*
X122863095Y-10912200D01*
X122863095Y-10912200D02*
X122958333Y-10959819D01*
X122958333Y-10959819D02*
X123053571Y-10959819D01*
X123053571Y-10959819D02*
X123148809Y-10912200D01*
X123148809Y-10912200D02*
X123196428Y-10864580D01*
X123196428Y-10864580D02*
X123244047Y-10769342D01*
X123244047Y-10769342D02*
X123291666Y-10578866D01*
X123291666Y-10578866D02*
X123291666Y-10340771D01*
X123291666Y-10340771D02*
X123244047Y-10150295D01*
X123244047Y-10150295D02*
X123196428Y-10055057D01*
X123196428Y-10055057D02*
X123148809Y-10007438D01*
X123148809Y-10007438D02*
X123053571Y-9959819D01*
X122101190Y-9959819D02*
X122005952Y-9959819D01*
X122005952Y-9959819D02*
X121910714Y-10007438D01*
X121910714Y-10007438D02*
X121863095Y-10055057D01*
X121863095Y-10055057D02*
X121815476Y-10150295D01*
X121815476Y-10150295D02*
X121767857Y-10340771D01*
X121767857Y-10340771D02*
X121767857Y-10578866D01*
X121767857Y-10578866D02*
X121815476Y-10769342D01*
X121815476Y-10769342D02*
X121863095Y-10864580D01*
X121863095Y-10864580D02*
X121910714Y-10912200D01*
X121910714Y-10912200D02*
X122005952Y-10959819D01*
X122005952Y-10959819D02*
X122101190Y-10959819D01*
X122101190Y-10959819D02*
X122196428Y-10912200D01*
X122196428Y-10912200D02*
X122244047Y-10864580D01*
X122244047Y-10864580D02*
X122291666Y-10769342D01*
X122291666Y-10769342D02*
X122339285Y-10578866D01*
X122339285Y-10578866D02*
X122339285Y-10340771D01*
X122339285Y-10340771D02*
X122291666Y-10150295D01*
X122291666Y-10150295D02*
X122244047Y-10055057D01*
X122244047Y-10055057D02*
X122196428Y-10007438D01*
X122196428Y-10007438D02*
X122101190Y-9959819D01*
X121339285Y-10293152D02*
X121339285Y-10959819D01*
X121339285Y-10388390D02*
X121291666Y-10340771D01*
X121291666Y-10340771D02*
X121196428Y-10293152D01*
X121196428Y-10293152D02*
X121053571Y-10293152D01*
X121053571Y-10293152D02*
X120958333Y-10340771D01*
X120958333Y-10340771D02*
X120910714Y-10436009D01*
X120910714Y-10436009D02*
X120910714Y-10959819D01*
X120101190Y-10436009D02*
X120434523Y-10436009D01*
X120434523Y-10959819D02*
X120434523Y-9959819D01*
X120434523Y-9959819D02*
X119958333Y-9959819D01*
D11*
X122572618Y-9218832D02*
X122591666Y-9237880D01*
X122591666Y-9237880D02*
X122648808Y-9256927D01*
X122648808Y-9256927D02*
X122686904Y-9256927D01*
X122686904Y-9256927D02*
X122744047Y-9237880D01*
X122744047Y-9237880D02*
X122782142Y-9199784D01*
X122782142Y-9199784D02*
X122801189Y-9161689D01*
X122801189Y-9161689D02*
X122820237Y-9085499D01*
X122820237Y-9085499D02*
X122820237Y-9028356D01*
X122820237Y-9028356D02*
X122801189Y-8952165D01*
X122801189Y-8952165D02*
X122782142Y-8914070D01*
X122782142Y-8914070D02*
X122744047Y-8875975D01*
X122744047Y-8875975D02*
X122686904Y-8856927D01*
X122686904Y-8856927D02*
X122648808Y-8856927D01*
X122648808Y-8856927D02*
X122591666Y-8875975D01*
X122591666Y-8875975D02*
X122572618Y-8895022D01*
X122229761Y-8990260D02*
X122229761Y-9256927D01*
X122324999Y-8837880D02*
X122420237Y-9123594D01*
X122420237Y-9123594D02*
X122172618Y-9123594D01*
X122039285Y-8895022D02*
X122020237Y-8875975D01*
X122020237Y-8875975D02*
X121982142Y-8856927D01*
X121982142Y-8856927D02*
X121886904Y-8856927D01*
X121886904Y-8856927D02*
X121848809Y-8875975D01*
X121848809Y-8875975D02*
X121829761Y-8895022D01*
X121829761Y-8895022D02*
X121810714Y-8933118D01*
X121810714Y-8933118D02*
X121810714Y-8971213D01*
X121810714Y-8971213D02*
X121829761Y-9028356D01*
X121829761Y-9028356D02*
X122058333Y-9256927D01*
X122058333Y-9256927D02*
X121810714Y-9256927D01*
X121448809Y-8856927D02*
X121639285Y-8856927D01*
X121639285Y-8856927D02*
X121658333Y-9047403D01*
X121658333Y-9047403D02*
X121639285Y-9028356D01*
X121639285Y-9028356D02*
X121601190Y-9009308D01*
X121601190Y-9009308D02*
X121505952Y-9009308D01*
X121505952Y-9009308D02*
X121467857Y-9028356D01*
X121467857Y-9028356D02*
X121448809Y-9047403D01*
X121448809Y-9047403D02*
X121429762Y-9085499D01*
X121429762Y-9085499D02*
X121429762Y-9180737D01*
X121429762Y-9180737D02*
X121448809Y-9218832D01*
X121448809Y-9218832D02*
X121467857Y-9237880D01*
X121467857Y-9237880D02*
X121505952Y-9256927D01*
X121505952Y-9256927D02*
X121601190Y-9256927D01*
X121601190Y-9256927D02*
X121639285Y-9237880D01*
X121639285Y-9237880D02*
X121658333Y-9218832D01*
%TO.C,C416*%
D13*
X111375000Y-44175000D02*
X112975000Y-44175000D01*
X112975000Y-44975000D01*
X111375000Y-44975000D01*
X111375000Y-44175000D01*
%TO.C,C418*%
X118695000Y-44200000D02*
X120695000Y-44200000D01*
X120695000Y-45450000D01*
X118695000Y-45450000D01*
X118695000Y-44200000D01*
%TO.C,C407*%
X115025000Y-39375000D02*
X116625000Y-39375000D01*
X116625000Y-40175000D01*
X115025000Y-40175000D01*
X115025000Y-39375000D01*
%TO.C,C510*%
X139975000Y-48125000D02*
X141575000Y-48125000D01*
X141575000Y-48925000D01*
X139975000Y-48925000D01*
X139975000Y-48125000D01*
%TO.C,C515*%
X139975000Y-52425000D02*
X141575000Y-52425000D01*
X141575000Y-53225000D01*
X139975000Y-53225000D01*
X139975000Y-52425000D01*
%TO.C,C426*%
X106725000Y-10825000D02*
X108325000Y-10825000D01*
X108325000Y-11625000D01*
X106725000Y-11625000D01*
X106725000Y-10825000D01*
%TO.C,C507*%
X139975000Y-45975000D02*
X141575000Y-45975000D01*
X141575000Y-46775000D01*
X139975000Y-46775000D01*
X139975000Y-45975000D01*
%TO.C,C509*%
X136325000Y-48125000D02*
X137925000Y-48125000D01*
X137925000Y-48925000D01*
X136325000Y-48925000D01*
X136325000Y-48125000D01*
%TO.C,C415*%
X107725000Y-44175000D02*
X109325000Y-44175000D01*
X109325000Y-44975000D01*
X107725000Y-44975000D01*
X107725000Y-44175000D01*
%TO.C,C514*%
X136325000Y-52425000D02*
X137925000Y-52425000D01*
X137925000Y-53225000D01*
X136325000Y-53225000D01*
X136325000Y-52425000D01*
%TO.C,C409*%
X122345000Y-39400000D02*
X124345000Y-39400000D01*
X124345000Y-40650000D01*
X122345000Y-40650000D01*
X122345000Y-39400000D01*
%TO.C,C405*%
X107725000Y-39375000D02*
X109325000Y-39375000D01*
X109325000Y-40175000D01*
X107725000Y-40175000D01*
X107725000Y-39375000D01*
%TO.C,C411*%
X111375000Y-42025000D02*
X112975000Y-42025000D01*
X112975000Y-42825000D01*
X111375000Y-42825000D01*
X111375000Y-42025000D01*
%TO.C,C428*%
X114045000Y-10850000D02*
X116045000Y-10850000D01*
X116045000Y-12100000D01*
X114045000Y-12100000D01*
X114045000Y-10850000D01*
%TO.C,C414*%
X122325000Y-42025000D02*
X123925000Y-42025000D01*
X123925000Y-42825000D01*
X122325000Y-42825000D01*
X122325000Y-42025000D01*
%TO.C,C513*%
X139975000Y-50275000D02*
X141575000Y-50275000D01*
X141575000Y-51075000D01*
X139975000Y-51075000D01*
X139975000Y-50275000D01*
%TO.C,C417*%
X115025000Y-44175000D02*
X116625000Y-44175000D01*
X116625000Y-44975000D01*
X115025000Y-44975000D01*
X115025000Y-44175000D01*
%TO.C,C427*%
X110375000Y-10825000D02*
X111975000Y-10825000D01*
X111975000Y-11625000D01*
X110375000Y-11625000D01*
X110375000Y-10825000D01*
%TO.C,C410*%
X107725000Y-42025000D02*
X109325000Y-42025000D01*
X109325000Y-42825000D01*
X107725000Y-42825000D01*
X107725000Y-42025000D01*
%TO.C,C412*%
X115025000Y-42025000D02*
X116625000Y-42025000D01*
X116625000Y-42825000D01*
X115025000Y-42825000D01*
X115025000Y-42025000D01*
%TO.C,C505*%
X136325000Y-45975000D02*
X137925000Y-45975000D01*
X137925000Y-46775000D01*
X136325000Y-46775000D01*
X136325000Y-45975000D01*
%TO.C,C413*%
X118675000Y-42025000D02*
X120275000Y-42025000D01*
X120275000Y-42825000D01*
X118675000Y-42825000D01*
X118675000Y-42025000D01*
%TO.C,C424*%
X117675000Y-8675000D02*
X119275000Y-8675000D01*
X119275000Y-9475000D01*
X117675000Y-9475000D01*
X117675000Y-8675000D01*
%TO.C,C419*%
X122765000Y-44175000D02*
X124365000Y-44175000D01*
X124365000Y-44975000D01*
X122765000Y-44975000D01*
X122765000Y-44175000D01*
%TO.C,C408*%
X118675000Y-39375000D02*
X120275000Y-39375000D01*
X120275000Y-40175000D01*
X118675000Y-40175000D01*
X118675000Y-39375000D01*
%TO.C,C423*%
X114025000Y-8675000D02*
X115625000Y-8675000D01*
X115625000Y-9475000D01*
X114025000Y-9475000D01*
X114025000Y-8675000D01*
%TO.C,C406*%
X111375000Y-39375000D02*
X112975000Y-39375000D01*
X112975000Y-40175000D01*
X111375000Y-40175000D01*
X111375000Y-39375000D01*
%TO.C,C422*%
X110375000Y-8675000D02*
X111975000Y-8675000D01*
X111975000Y-9475000D01*
X110375000Y-9475000D01*
X110375000Y-8675000D01*
%TO.C,C421*%
X106725000Y-8675000D02*
X108325000Y-8675000D01*
X108325000Y-9475000D01*
X106725000Y-9475000D01*
X106725000Y-8675000D01*
%TO.C,C511*%
X136325000Y-50275000D02*
X137925000Y-50275000D01*
X137925000Y-51075000D01*
X136325000Y-51075000D01*
X136325000Y-50275000D01*
%TO.C,C425*%
X121325000Y-8675000D02*
X122925000Y-8675000D01*
X122925000Y-9475000D01*
X121325000Y-9475000D01*
X121325000Y-8675000D01*
%TD*%
M02*
