%TF.GenerationSoftware,KiCad,Pcbnew,10.0.4*%
%TF.CreationDate,2026-10-09T11:23:48-04:00*%
%TF.ProjectId,dual_adc_usb,6475616c-5f61-4646-935f-7573622e6b69,rev?*%
%TF.SameCoordinates,Original*%
%TF.FileFunction,Other,User*%
%FSLAX46Y46*%
G04 Gerber Fmt 4.6, Leading zero omitted, Abs format (unit mm)*
G04 Created by KiCad (PCBNEW 10.0.4) date 2026-10-09 11:23:48*
%MOMM*%
%LPD*%
G01*
G04 APERTURE LIST*
%ADD10C,0.050000*%
G04 APERTURE END LIST*
%TO.C,C416*%
D10*
X110695000Y-43845000D02*
X113655000Y-43845000D01*
X113655000Y-45305000D01*
X110695000Y-45305000D01*
X110695000Y-43845000D01*
%TO.C,C418*%
X117995000Y-43845000D02*
X121395000Y-43845000D01*
X121395000Y-45805000D01*
X117995000Y-45805000D01*
X117995000Y-43845000D01*
%TO.C,C407*%
X114345000Y-39045000D02*
X117305000Y-39045000D01*
X117305000Y-40505000D01*
X114345000Y-40505000D01*
X114345000Y-39045000D01*
%TO.C,C510*%
X139295000Y-47795000D02*
X142255000Y-47795000D01*
X142255000Y-49255000D01*
X139295000Y-49255000D01*
X139295000Y-47795000D01*
%TO.C,C515*%
X139295000Y-52095000D02*
X142255000Y-52095000D01*
X142255000Y-53555000D01*
X139295000Y-53555000D01*
X139295000Y-52095000D01*
%TO.C,C426*%
X106045000Y-10495000D02*
X109005000Y-10495000D01*
X109005000Y-11955000D01*
X106045000Y-11955000D01*
X106045000Y-10495000D01*
%TO.C,C507*%
X139295000Y-45645000D02*
X142255000Y-45645000D01*
X142255000Y-47105000D01*
X139295000Y-47105000D01*
X139295000Y-45645000D01*
%TO.C,C509*%
X135645000Y-47795000D02*
X138605000Y-47795000D01*
X138605000Y-49255000D01*
X135645000Y-49255000D01*
X135645000Y-47795000D01*
%TO.C,C415*%
X107045000Y-43845000D02*
X110005000Y-43845000D01*
X110005000Y-45305000D01*
X107045000Y-45305000D01*
X107045000Y-43845000D01*
%TO.C,C514*%
X135645000Y-52095000D02*
X138605000Y-52095000D01*
X138605000Y-53555000D01*
X135645000Y-53555000D01*
X135645000Y-52095000D01*
%TO.C,C409*%
X121645000Y-39045000D02*
X125045000Y-39045000D01*
X125045000Y-41005000D01*
X121645000Y-41005000D01*
X121645000Y-39045000D01*
%TO.C,C405*%
X107045000Y-39045000D02*
X110005000Y-39045000D01*
X110005000Y-40505000D01*
X107045000Y-40505000D01*
X107045000Y-39045000D01*
%TO.C,C411*%
X110695000Y-41695000D02*
X113655000Y-41695000D01*
X113655000Y-43155000D01*
X110695000Y-43155000D01*
X110695000Y-41695000D01*
%TO.C,C428*%
X113345000Y-10495000D02*
X116745000Y-10495000D01*
X116745000Y-12455000D01*
X113345000Y-12455000D01*
X113345000Y-10495000D01*
%TO.C,C414*%
X121645000Y-41695000D02*
X124605000Y-41695000D01*
X124605000Y-43155000D01*
X121645000Y-43155000D01*
X121645000Y-41695000D01*
%TO.C,C513*%
X139295000Y-49945000D02*
X142255000Y-49945000D01*
X142255000Y-51405000D01*
X139295000Y-51405000D01*
X139295000Y-49945000D01*
%TO.C,C417*%
X114345000Y-43845000D02*
X117305000Y-43845000D01*
X117305000Y-45305000D01*
X114345000Y-45305000D01*
X114345000Y-43845000D01*
%TO.C,C427*%
X109695000Y-10495000D02*
X112655000Y-10495000D01*
X112655000Y-11955000D01*
X109695000Y-11955000D01*
X109695000Y-10495000D01*
%TO.C,C410*%
X107045000Y-41695000D02*
X110005000Y-41695000D01*
X110005000Y-43155000D01*
X107045000Y-43155000D01*
X107045000Y-41695000D01*
%TO.C,C412*%
X114345000Y-41695000D02*
X117305000Y-41695000D01*
X117305000Y-43155000D01*
X114345000Y-43155000D01*
X114345000Y-41695000D01*
%TO.C,C505*%
X135645000Y-45645000D02*
X138605000Y-45645000D01*
X138605000Y-47105000D01*
X135645000Y-47105000D01*
X135645000Y-45645000D01*
%TO.C,C413*%
X117995000Y-41695000D02*
X120955000Y-41695000D01*
X120955000Y-43155000D01*
X117995000Y-43155000D01*
X117995000Y-41695000D01*
%TO.C,C424*%
X116995000Y-8345000D02*
X119955000Y-8345000D01*
X119955000Y-9805000D01*
X116995000Y-9805000D01*
X116995000Y-8345000D01*
%TO.C,C419*%
X122085000Y-43845000D02*
X125045000Y-43845000D01*
X125045000Y-45305000D01*
X122085000Y-45305000D01*
X122085000Y-43845000D01*
%TO.C,C408*%
X117995000Y-39045000D02*
X120955000Y-39045000D01*
X120955000Y-40505000D01*
X117995000Y-40505000D01*
X117995000Y-39045000D01*
%TO.C,C423*%
X113345000Y-8345000D02*
X116305000Y-8345000D01*
X116305000Y-9805000D01*
X113345000Y-9805000D01*
X113345000Y-8345000D01*
%TO.C,C406*%
X110695000Y-39045000D02*
X113655000Y-39045000D01*
X113655000Y-40505000D01*
X110695000Y-40505000D01*
X110695000Y-39045000D01*
%TO.C,C422*%
X109695000Y-8345000D02*
X112655000Y-8345000D01*
X112655000Y-9805000D01*
X109695000Y-9805000D01*
X109695000Y-8345000D01*
%TO.C,C421*%
X106045000Y-8345000D02*
X109005000Y-8345000D01*
X109005000Y-9805000D01*
X106045000Y-9805000D01*
X106045000Y-8345000D01*
%TO.C,C511*%
X135645000Y-49945000D02*
X138605000Y-49945000D01*
X138605000Y-51405000D01*
X135645000Y-51405000D01*
X135645000Y-49945000D01*
%TO.C,C425*%
X120645000Y-8345000D02*
X123605000Y-8345000D01*
X123605000Y-9805000D01*
X120645000Y-9805000D01*
X120645000Y-8345000D01*
%TD*%
M02*
