M48
; DRILL file KiCad 10.0.4 date 2026-10-09T11:23:49
; FORMAT={-:-/ absolute / metric / decimal}
; #@! TF.CreationDate,2026-10-09T11:23:49-04:00
; #@! TF.GenerationSoftware,Kicad,Pcbnew,10.0.4
; #@! TF.FileFunction,MixedPlating,1,4
FMAT,2
METRIC
; #@! TA.AperFunction,Plated,PTH,ViaDrill
T1C0.200
; #@! TA.AperFunction,Plated,PTH,ViaDrill
T2C0.250
; #@! TA.AperFunction,Plated,PTH,ComponentDrill
T3C0.250
; #@! TA.AperFunction,Plated,PTH,ComponentDrill
T4C0.600
; #@! TA.AperFunction,Plated,PTH,ComponentDrill
T5C0.890
; #@! TA.AperFunction,Plated,PTH,ComponentDrill
T6C1.000
; #@! TA.AperFunction,Plated,PTH,ComponentDrill
T7C2.010
; #@! TA.AperFunction,NonPlated,NPTH,ComponentDrill
T8C0.650
; #@! TA.AperFunction,NonPlated,NPTH,ComponentDrill
T9C3.200
%
G90
G05
T1
X38.895Y-58.2
X40.645Y-40.385
X40.776Y-6.006
X41.596Y-39.069
X41.767Y-38.459
X42.039Y-43.1
X42.275Y-64.14
X42.569Y-11.152
X42.87Y-40.635
X42.934Y-35.094
X43.661Y-14.621
X46.091Y-40.489
X46.211Y-39.865
X46.822Y-59.624
X47.758Y-11.225
X48.198Y-41.596
X48.616Y-65.51
X48.68Y-9.273
X48.784Y-63.858
X48.875Y-12.51
X48.877Y-36.813
X49.305Y-64.86
X49.442Y-10.296
X49.617Y-40.587
X51.064Y-64.208
X52.395Y-63.726
X52.674Y-73.508
X53.494Y-68.761
X55.471Y-60.028
X55.485Y-7.598
X56.389Y-12.916
X57.306Y-16.4
X57.306Y-69.2
X57.822Y-18.6
X66.033Y-29.6
X69.645Y-74.295
X71.395Y-76.178
X71.567Y-41.75
X71.901Y-50.711
X72.025Y-49.713
X72.109Y-33.695
X73.523Y-41.25
X74.229Y-45.423
X74.631Y-42.25
X74.746Y-45.082
X74.748Y-43.34
X75.299Y-31.913
X75.567Y-49.253
X76.044Y-72.359
X77.786Y-39.746
X77.925Y-74.057
X77.929Y-50.613
X79.75Y-39.311
X80.532Y-50.268
X80.75Y-39.743
X81.25Y-50.626
X81.369Y-51.313
X81.625Y-39.425
X81.725Y-40.025
X81.75Y-50.27
X82.45Y-50.895
X83.21Y-38.456
X84.236Y-51.584
X84.458Y-63.857
X84.839Y-49.43
X85.141Y-36.122
X85.253Y-45.355
X85.292Y-45.957
X85.32Y-47.431
X85.328Y-48.641
X85.368Y-42.95
X85.525Y-43.625
X85.532Y-41.971
X85.677Y-39.875
X85.771Y-46.329
X85.815Y-37.907
X85.899Y-53.169
X85.948Y-44.732
X86.025Y-35.025
X86.065Y-50.817
X86.068Y-49.194
X86.098Y-57.608
X86.109Y-48.181
X86.135Y-42.43
X86.356Y-53.577
X86.52Y-46.081
X86.523Y-47.723
X86.695Y-32.902
X86.695Y-59.022
X87.337Y-55.23
X87.385Y-48.063
X87.495Y-32.918
X87.558Y-51.857
X87.612Y-40.346
X87.7Y-36.406
X87.758Y-45.861
X88.178Y-34.478
X88.295Y-32.907
X88.295Y-40.497
X88.295Y-51.86
X89.005Y-63.033
X89.589Y-38.579
X89.654Y-36.122
X89.728Y-54.441
X89.736Y-43.075
X89.769Y-47.464
X89.853Y-50.784
X89.892Y-39.141
X90.16Y-57.062
X90.259Y-46.398
X90.405Y-38.112
X90.542Y-47.915
X90.597Y-43.406
X90.693Y-54.161
X91.125Y-43.725
X91.25Y-48.579
X92.578Y-36.557
X92.613Y-34.322
X92.912Y-45.993
X94.278Y-41.902
X97.382Y-62.564
X98.998Y-51.623
X99.862Y-51.75
X99.899Y-54.25
X100.76Y-39.521
X101.172Y-47.75
X101.604Y-72.871
X102.024Y-46.25
X102.31Y-43.25
X102.35Y-61.915
X102.381Y-44.25
X102.533Y-67.576
X102.588Y-40.75
X102.656Y-42.283
X102.676Y-40.127
X102.702Y-39.51
X103.108Y-46.75
X103.655Y-43.75
X103.671Y-42.75
X104.208Y-48.25
X104.211Y-49.25
X104.215Y-52.75
X104.389Y-64.824
X106.501Y-53.799
X106.545Y-7.68
X106.631Y-64.781
X106.952Y-64.052
X107.074Y-34.753
X107.165Y-55.05
X107.206Y-33.478
X107.25Y-57.539
X107.29Y-38.458
X107.75Y-57.188
X107.766Y-7.829
X107.971Y-41.529
X108.023Y-18.894
X108.25Y-57.54
X108.3Y-12.08
X108.345Y-38.459
X108.35Y-36.2
X108.494Y-33.929
X108.535Y-32.259
X108.646Y-73.129
X108.752Y-31.364
X109.154Y-38.458
X109.25Y-57.547
X109.409Y-7.834
X109.474Y-68.23
X109.546Y-69.415
X109.589Y-4.576
X109.97Y-57.537
X110.001Y-34.211
X110.395Y-57.112
X110.462Y-5.117
X110.52Y-18.883
X110.713Y-20.74
X110.819Y-19.996
X110.844Y-66.355
X111.015Y-23.0
X111.188Y-5.102
X111.273Y-38.452
X111.528Y-36.223
X111.744Y-30.329
X111.754Y-34.07
X111.766Y-61.898
X112.218Y-29.856
X112.234Y-36.222
X112.42Y-38.521
X112.546Y-29.101
X112.69Y-59.862
X112.956Y-5.113
X113.051Y-28.596
X113.577Y-43.812
X113.611Y-59.968
X113.625Y-28.022
X113.761Y-5.117
X113.996Y-26.802
X114.03Y-19.498
X114.03Y-20.8
X114.078Y-81.497
X114.27Y-27.381
X115.2Y-9.929
X115.213Y-18.885
X115.526Y-33.142
X116.137Y-38.481
X116.689Y-31.922
X116.798Y-38.464
X116.825Y-41.225
X117.072Y-18.938
X117.643Y-35.463
X117.825Y-39.025
X117.844Y-31.027
X118.126Y-35.837
X118.4Y-7.386
X118.992Y-29.618
X119.025Y-8.025
X119.025Y-10.925
X119.093Y-36.219
X119.186Y-82.675
X119.2Y-16.612
X119.225Y-48.625
X119.225Y-57.479
X119.355Y-34.701
X119.424Y-40.601
X119.584Y-39.062
X119.729Y-50.75
X119.75Y-36.204
X119.845Y-30.043
X120.356Y-21.877
X120.892Y-18.918
X120.967Y-5.109
X121.041Y-7.505
X121.08Y-26.498
X121.273Y-57.546
X121.35Y-38.473
X121.527Y-19.48
X121.609Y-25.911
X121.648Y-36.222
X121.996Y-16.603
X122.057Y-25.16
X122.25Y-38.456
X122.423Y-47.206
X122.473Y-7.387
X122.548Y-59.793
X122.631Y-24.586
X122.787Y-36.2
X123.046Y-16.616
X123.055Y-46.002
X123.2Y-7.402
X123.402Y-23.815
X123.414Y-40.25
X123.533Y-43.75
X123.603Y-66.283
X123.605Y-11.37
X123.73Y-60.226
X123.731Y-82.951
X123.877Y-55.066
X123.947Y-18.889
X123.977Y-61.73
X124.0Y-5.113
X124.207Y-22.661
X124.282Y-36.201
X124.29Y-60.831
X124.321Y-38.919
X124.494Y-21.784
X124.591Y-52.595
X124.683Y-59.933
X124.721Y-55.25
X124.774Y-16.601
X124.792Y-7.386
X124.794Y-53.197
X125.056Y-21.23
X125.06Y-57.546
X125.093Y-14.46
X125.189Y-41.25
X125.189Y-42.425
X125.191Y-43.104
X125.269Y-55.711
X125.326Y-61.719
X125.478Y-49.25
X125.491Y-16.615
X125.536Y-47.75
X125.539Y-46.201
X125.546Y-48.568
X125.546Y-56.302
X125.548Y-53.75
X125.6Y-7.394
X125.756Y-15.406
X126.42Y-19.108
X126.562Y-73.6
X126.595Y-57.28
X127.182Y-82.275
X127.783Y-51.512
X127.995Y-65.141
X128.055Y-40.75
X128.097Y-17.119
X128.212Y-42.561
X128.218Y-52.355
X128.579Y-46.25
X128.681Y-45.383
X128.687Y-55.011
X128.731Y-49.739
X129.121Y-52.671
X129.201Y-20.234
X129.215Y-21.21
X129.232Y-50.302
X129.251Y-55.725
X129.585Y-48.278
X130.155Y-49.153
X130.445Y-51.856
X130.586Y-45.478
X130.59Y-66.3
X130.597Y-46.628
X130.626Y-32.3
X131.007Y-37.717
X131.211Y-55.326
X132.042Y-47.25
X132.136Y-52.73
X132.221Y-34.652
X132.233Y-76.4
X132.237Y-55.929
X132.237Y-54.556
X132.256Y-35.256
X132.309Y-57.134
X132.35Y-31.712
X132.427Y-37.965
X132.501Y-27.776
X132.621Y-46.75
X132.645Y-26.945
X132.851Y-45.626
X133.185Y-43.629
X133.355Y-30.241
X133.531Y-44.336
X133.827Y-57.044
X134.432Y-41.041
X134.624Y-55.126
X134.937Y-45.058
X135.478Y-51.503
X135.48Y-49.909
X135.49Y-49.25
X135.501Y-52.467
X135.537Y-55.282
X135.749Y-30.295
X136.25Y-45.508
X136.346Y-41.493
X136.626Y-27.452
X137.351Y-53.756
X137.535Y-51.963
X138.137Y-57.433
X138.222Y-58.968
X138.559Y-52.019
X138.593Y-49.941
X138.85Y-47.7
X138.969Y-54.492
X139.0Y-59.744
X139.386Y-56.828
X139.966Y-47.557
X140.358Y-54.485
X140.653Y-72.25
X140.736Y-75.25
X141.004Y-71.6
X141.25Y-56.852
X141.57Y-47.487
X141.669Y-54.282
X142.271Y-54.518
X142.379Y-46.052
X143.147Y-53.2
X144.261Y-48.75
X144.261Y-50.25
X144.378Y-75.686
X144.503Y-47.25
X144.53Y-57.896
X144.74Y-54.884
X144.767Y-54.258
X147.129Y-47.75
X147.393Y-57.82
T2
X38.895Y-36.745
X39.045Y-40.135
X42.55Y-11.815
X42.55Y-64.815
X42.595Y-5.025
X42.595Y-58.025
X44.695Y-8.545
X44.695Y-61.545
X45.8Y-16.005
X45.8Y-69.005
X46.94Y-35.775
X49.69Y-39.865
X50.59Y-35.775
X50.985Y-36.745
X52.85Y-13.16
X52.85Y-66.16
X53.34Y-39.865
X58.43Y-4.775
X58.43Y-57.775
X59.03Y-35.775
X60.64Y-39.865
X61.33Y-7.425
X61.33Y-60.425
X62.08Y-4.775
X62.08Y-57.775
X62.68Y-35.775
X64.98Y-7.425
X64.98Y-60.425
X68.045Y-73.545
X68.045Y-75.045
X70.15Y-30.775
X70.15Y-32.925
X70.15Y-35.075
X70.15Y-51.775
X70.15Y-53.925
X70.15Y-56.075
X71.15Y-78.065
X71.245Y-75.045
X72.245Y-64.62
X73.8Y-32.925
X73.8Y-53.925
X74.245Y-56.325
X75.2Y-78.065
X76.25Y-39.725
X76.25Y-50.275
X77.45Y-32.925
X77.45Y-53.925
X77.45Y-35.075
X78.75Y-39.275
X78.9Y-43.9
X78.9Y-45.0
X78.9Y-46.1
X79.25Y-39.725
X79.69Y-62.775
X79.775Y-74.025
X80.0Y-43.9
X80.0Y-45.0
X80.0Y-46.1
X81.1Y-43.9
X81.1Y-45.0
X81.1Y-46.1
X83.25Y-39.725
X83.25Y-50.275
X83.34Y-62.775
X83.65Y-52.275
X83.65Y-54.425
X83.865Y-74.025
X87.51Y-73.775
X87.905Y-74.745
X95.95Y-73.775
X99.895Y-69.5
X103.55Y-73.775
X103.75Y-45.75
X104.2Y-41.25
X104.2Y-45.25
X104.971Y-6.25
X105.9Y-9.075
X105.9Y-11.225
X106.9Y-39.775
X106.9Y-42.425
X106.9Y-44.575
X107.2Y-7.405
X109.25Y-36.2
X109.55Y-9.075
X109.55Y-11.225
X109.6Y-18.905
X110.55Y-39.775
X110.55Y-42.425
X110.55Y-44.575
X110.85Y-73.775
X110.895Y-63.025
X111.895Y-83.245
X112.0Y-5.095
X113.195Y-11.475
X113.2Y-9.075
X113.25Y-36.2
X114.2Y-39.775
X114.2Y-42.425
X114.2Y-44.575
X114.4Y-18.905
X114.54Y-62.775
X115.25Y-59.8
X115.75Y-36.2
X116.0Y-5.095
X116.85Y-9.075
X117.845Y-44.825
X117.85Y-39.775
X117.85Y-42.425
X118.25Y-59.8
X120.44Y-65.425
X120.5Y-9.075
X121.495Y-40.025
X121.5Y-42.425
X121.94Y-44.575
X122.285Y-63.025
X123.25Y-59.8
X125.19Y-82.275
X125.93Y-62.775
X127.029Y-6.25
X127.8Y-41.75
X127.8Y-50.25
X127.945Y-26.945
X128.84Y-82.275
X132.345Y-28.645
X132.49Y-82.275
X132.7Y-51.25
X133.15Y-46.25
X133.15Y-48.25
X133.15Y-50.75
X133.15Y-52.25
X133.15Y-53.25
X135.5Y-46.375
X135.5Y-50.675
X135.595Y-34.84
X136.04Y-26.775
X136.14Y-82.275
X136.15Y-58.775
X136.15Y-63.075
X136.35Y-49.4
X136.35Y-53.7
X138.45Y-37.055
X139.15Y-46.375
X139.15Y-48.525
X139.15Y-50.675
X139.15Y-52.825
X139.69Y-26.775
X139.8Y-60.925
X140.25Y-56.85
X141.195Y-70.8
X141.195Y-77.2
X141.945Y-70.8
X141.945Y-77.2
X142.75Y-43.15
X143.45Y-60.925
X146.85Y-46.75
X146.85Y-52.75
X147.1Y-58.775
X147.1Y-60.925
T3
X69.645Y-73.795
X69.645Y-74.795
T5
X34.2Y-22.0
X34.2Y-24.54
X34.2Y-68.0
X34.2Y-70.54
T6
X147.0Y-5.0
X147.0Y-7.54
X147.0Y-10.08
X147.0Y-12.62
X147.0Y-15.16
X147.0Y-17.7
X147.0Y-20.24
X147.0Y-22.78
T7
X29.12Y-16.92
X29.12Y-27.08
X29.12Y-62.92
X29.12Y-73.08
T8
X143.995Y-71.11
X143.995Y-76.89
T9
X4.0Y-4.0
X4.0Y-86.0
X100.0Y-4.0
X146.0Y-86.0
T4
X142.945Y-69.68G85X144.045Y-69.68
G05
X142.945Y-78.32G85X144.045Y-78.32
G05
X147.275Y-69.68G85X148.075Y-69.68
G05
X147.275Y-78.32G85X148.075Y-78.32
G05
M30
