%TF.GenerationSoftware,KiCad,Pcbnew,10.0.4*%
%TF.CreationDate,2026-10-09T11:23:48-04:00*%
%TF.ProjectId,dual_adc_usb,6475616c-5f61-4646-935f-7573622e6b69,rev?*%
%TF.SameCoordinates,Original*%
%TF.FileFunction,OtherDrawing,Comment*%
%FSLAX46Y46*%
G04 Gerber Fmt 4.6, Leading zero omitted, Abs format (unit mm)*
G04 Created by KiCad (PCBNEW 10.0.4) date 2026-10-09 11:23:48*
%MOMM*%
%LPD*%
G01*
G04 APERTURE LIST*
%ADD10C,0.100000*%
G04 APERTURE END LIST*
D10*
X149926109Y-75714285D02*
X149426109Y-75714285D01*
X149426109Y-75714285D02*
X149426109Y-75523809D01*
X149426109Y-75523809D02*
X149449919Y-75476190D01*
X149449919Y-75476190D02*
X149473728Y-75452380D01*
X149473728Y-75452380D02*
X149521347Y-75428571D01*
X149521347Y-75428571D02*
X149592776Y-75428571D01*
X149592776Y-75428571D02*
X149640395Y-75452380D01*
X149640395Y-75452380D02*
X149664204Y-75476190D01*
X149664204Y-75476190D02*
X149688014Y-75523809D01*
X149688014Y-75523809D02*
X149688014Y-75714285D01*
X149878490Y-74928571D02*
X149902300Y-74952380D01*
X149902300Y-74952380D02*
X149926109Y-75023809D01*
X149926109Y-75023809D02*
X149926109Y-75071428D01*
X149926109Y-75071428D02*
X149902300Y-75142856D01*
X149902300Y-75142856D02*
X149854680Y-75190475D01*
X149854680Y-75190475D02*
X149807061Y-75214285D01*
X149807061Y-75214285D02*
X149711823Y-75238094D01*
X149711823Y-75238094D02*
X149640395Y-75238094D01*
X149640395Y-75238094D02*
X149545157Y-75214285D01*
X149545157Y-75214285D02*
X149497538Y-75190475D01*
X149497538Y-75190475D02*
X149449919Y-75142856D01*
X149449919Y-75142856D02*
X149426109Y-75071428D01*
X149426109Y-75071428D02*
X149426109Y-75023809D01*
X149426109Y-75023809D02*
X149449919Y-74952380D01*
X149449919Y-74952380D02*
X149473728Y-74928571D01*
X149664204Y-74547618D02*
X149688014Y-74476190D01*
X149688014Y-74476190D02*
X149711823Y-74452380D01*
X149711823Y-74452380D02*
X149759442Y-74428571D01*
X149759442Y-74428571D02*
X149830871Y-74428571D01*
X149830871Y-74428571D02*
X149878490Y-74452380D01*
X149878490Y-74452380D02*
X149902300Y-74476190D01*
X149902300Y-74476190D02*
X149926109Y-74523809D01*
X149926109Y-74523809D02*
X149926109Y-74714285D01*
X149926109Y-74714285D02*
X149426109Y-74714285D01*
X149426109Y-74714285D02*
X149426109Y-74547618D01*
X149426109Y-74547618D02*
X149449919Y-74499999D01*
X149449919Y-74499999D02*
X149473728Y-74476190D01*
X149473728Y-74476190D02*
X149521347Y-74452380D01*
X149521347Y-74452380D02*
X149568966Y-74452380D01*
X149568966Y-74452380D02*
X149616585Y-74476190D01*
X149616585Y-74476190D02*
X149640395Y-74499999D01*
X149640395Y-74499999D02*
X149664204Y-74547618D01*
X149664204Y-74547618D02*
X149664204Y-74714285D01*
X149664204Y-73833333D02*
X149664204Y-73666666D01*
X149926109Y-73595238D02*
X149926109Y-73833333D01*
X149926109Y-73833333D02*
X149426109Y-73833333D01*
X149426109Y-73833333D02*
X149426109Y-73595238D01*
X149926109Y-73166666D02*
X149426109Y-73166666D01*
X149902300Y-73166666D02*
X149926109Y-73214285D01*
X149926109Y-73214285D02*
X149926109Y-73309523D01*
X149926109Y-73309523D02*
X149902300Y-73357142D01*
X149902300Y-73357142D02*
X149878490Y-73380952D01*
X149878490Y-73380952D02*
X149830871Y-73404761D01*
X149830871Y-73404761D02*
X149688014Y-73404761D01*
X149688014Y-73404761D02*
X149640395Y-73380952D01*
X149640395Y-73380952D02*
X149616585Y-73357142D01*
X149616585Y-73357142D02*
X149592776Y-73309523D01*
X149592776Y-73309523D02*
X149592776Y-73214285D01*
X149592776Y-73214285D02*
X149616585Y-73166666D01*
X149592776Y-72714285D02*
X149997538Y-72714285D01*
X149997538Y-72714285D02*
X150045157Y-72738095D01*
X150045157Y-72738095D02*
X150068966Y-72761904D01*
X150068966Y-72761904D02*
X150092776Y-72809523D01*
X150092776Y-72809523D02*
X150092776Y-72880952D01*
X150092776Y-72880952D02*
X150068966Y-72928571D01*
X149902300Y-72714285D02*
X149926109Y-72761904D01*
X149926109Y-72761904D02*
X149926109Y-72857142D01*
X149926109Y-72857142D02*
X149902300Y-72904761D01*
X149902300Y-72904761D02*
X149878490Y-72928571D01*
X149878490Y-72928571D02*
X149830871Y-72952380D01*
X149830871Y-72952380D02*
X149688014Y-72952380D01*
X149688014Y-72952380D02*
X149640395Y-72928571D01*
X149640395Y-72928571D02*
X149616585Y-72904761D01*
X149616585Y-72904761D02*
X149592776Y-72857142D01*
X149592776Y-72857142D02*
X149592776Y-72761904D01*
X149592776Y-72761904D02*
X149616585Y-72714285D01*
X149902300Y-72285714D02*
X149926109Y-72333333D01*
X149926109Y-72333333D02*
X149926109Y-72428571D01*
X149926109Y-72428571D02*
X149902300Y-72476190D01*
X149902300Y-72476190D02*
X149854680Y-72499999D01*
X149854680Y-72499999D02*
X149664204Y-72499999D01*
X149664204Y-72499999D02*
X149616585Y-72476190D01*
X149616585Y-72476190D02*
X149592776Y-72428571D01*
X149592776Y-72428571D02*
X149592776Y-72333333D01*
X149592776Y-72333333D02*
X149616585Y-72285714D01*
X149616585Y-72285714D02*
X149664204Y-72261904D01*
X149664204Y-72261904D02*
X149711823Y-72261904D01*
X149711823Y-72261904D02*
X149759442Y-72499999D01*
%TO.C,J1*%
X150275000Y-69000000D02*
X150275000Y-79000000D01*
%TD*%
M02*
